<svg width="24" height="24" viewBox="0 0 24 24" fill="none" xmlns="http://www.w3.org/2000/svg">
<g clip-path="url(#clip0_642_7680)">
<g clip-path="url(#clip1_642_7680)">
<path fill-rule="evenodd" clip-rule="evenodd" d="M12 0C18.6274 0 24 5.37258 24 12C24 18.6274 18.6274 24 12 24C5.37258 24 0 18.6274 0 12C0 5.37258 5.37258 0 12 0Z" fill="#F0F2FD"/>
</g>
<path d="M15.0858 8.31437L10.75 12.65L8.91419 10.8144C8.52369 10.4238 7.89048 10.4238 7.49996 10.8144L6.79288 11.5215C6.40237 11.912 6.40237 12.5452 6.79289 12.9357L10.0429 16.1857C10.4333 16.5762 11.0665 16.5762 11.4571 16.1857L17.2071 10.4357C17.5976 10.0451 17.5976 9.412 17.2071 9.02148L16.5 8.31438C16.1095 7.92385 15.4763 7.92385 15.0858 8.31437Z" fill="#5BC587"/>
</g>
<defs>
<clipPath id="clip0_642_7680">
<rect width="24" height="24" fill="white"/>
</clipPath>
<clipPath id="clip1_642_7680">
<rect width="24" height="24" fill="white"/>
</clipPath>
</defs>
</svg>
