<svg width="365" height="21" viewBox="0 0 365 21" fill="none" xmlns="http://www.w3.org/2000/svg">
<path d="M10.7109 20.3047C5.35547 20.3047 0.914062 15.8984 0.914062 10.5664C0.914062 5.24609 5.35547 0.78125 10.6641 0.78125C13.1133 0.816406 15.375 1.85938 17.2266 3.66406L15.5039 5.99609C14.1797 4.67188 12.457 3.79297 10.6055 3.79297C7.18359 3.79297 3.91406 6.79297 3.91406 10.5781C3.91406 14.3867 7.23047 17.3281 10.6172 17.3281C12.5508 17.3281 14.2148 16.3672 15.5156 15.0781L17.2266 17.4688C15.5977 19.0742 13.5234 20.3047 10.7109 20.3047ZM27.6094 20.3047C22.2422 20.3047 17.8594 15.9219 17.8594 10.5781C17.8594 5.1875 22.2422 0.78125 27.6211 0.78125C32.9883 0.78125 37.3945 5.1875 37.3945 10.5781C37.3945 15.9219 32.9883 20.3047 27.6094 20.3047ZM27.6094 17.3047C31.3359 17.3047 34.3945 14.2695 34.3945 10.5547C34.3945 6.81641 31.3359 3.76953 27.6094 3.76953C23.8828 3.76953 20.8477 6.81641 20.8477 10.5547C20.8477 14.2695 23.8828 17.3047 27.6094 17.3047ZM52.3242 1.0625H55.3008V20.3281H55.1602L43.0781 7.70703V20.0234H40.1133V0.78125H40.2656L52.3242 13.3789V1.0625ZM71.1445 1.0625H74.1211V20.3281H73.9805L61.8984 7.70703V20.0234H58.9336V0.78125H59.0859L71.1445 13.3789V1.0625ZM89.0039 4.02734H80.7188V8.86719H87.8672V11.8203H80.7188V17.0469H89.0039V20H77.7539V1.10938H89.0039V4.02734ZM100.992 20.3047C95.6367 20.3047 91.1953 15.8984 91.1953 10.5664C91.1953 5.24609 95.6367 0.78125 100.945 0.78125C103.395 0.816406 105.656 1.85938 107.508 3.66406L105.785 5.99609C104.461 4.67188 102.738 3.79297 100.887 3.79297C97.4648 3.79297 94.1953 6.79297 94.1953 10.5781C94.1953 14.3867 97.5117 17.3281 100.898 17.3281C102.832 17.3281 104.496 16.3672 105.797 15.0781L107.508 17.4688C105.879 19.0742 103.805 20.3047 100.992 20.3047ZM121.699 1.10938V4.05078H116.637V20H113.66V4.05078H108.598V1.10938H121.699ZM135.562 20.1758L129.551 1.10938H132.75L136.254 12.7695L140.578 1.90625H140.695L145.02 12.7578L148.512 1.10938H151.711L145.711 20.1758H145.441L140.602 8.78516L135.832 20.1758H135.562ZM153.809 20V1.10938H156.773V20H153.809ZM172.254 1.10938V4.05078H167.191V20H164.215V4.05078H159.152V1.10938H172.254ZM185.754 1.10938H188.719V20H185.754V12.0195H177.574V20H174.621V1.10938H177.574V9.07812H185.754V1.10938ZM211.23 1.10938V4.05078H206.168V20H203.191V4.05078H198.129V1.10938H211.23ZM221.508 20.3047C216.141 20.3047 211.758 15.9219 211.758 10.5781C211.758 5.1875 216.141 0.78125 221.52 0.78125C226.887 0.78125 231.293 5.1875 231.293 10.5781C231.293 15.9219 226.887 20.3047 221.508 20.3047ZM221.508 17.3047C225.234 17.3047 228.293 14.2695 228.293 10.5547C228.293 6.81641 225.234 3.76953 221.508 3.76953C217.781 3.76953 214.746 6.81641 214.746 10.5547C214.746 14.2695 217.781 17.3047 221.508 17.3047ZM251.871 9.6875C251.918 10.1211 251.953 10.6367 251.953 11.1641C251.953 16.7773 247.875 20.3164 242.965 20.3164C237.469 20.3164 233.109 15.9336 233.109 10.5781C233.109 5.21094 237.492 0.792969 242.859 0.792969C245.238 0.804688 247.957 1.95312 249.738 3.6875L248.086 6.14844C246.609 4.69531 244.617 3.78125 242.824 3.78125C239.379 3.78125 236.121 6.66406 236.121 10.5781C236.121 14.2812 239.062 17.3281 243.094 17.3281C246.34 17.3281 248.777 15.3477 248.777 12.4648V12.4062H242.93V9.6875H251.871ZM263.531 20.3047C258.164 20.3047 253.781 15.9219 253.781 10.5781C253.781 5.1875 258.164 0.78125 263.543 0.78125C268.91 0.78125 273.316 5.1875 273.316 10.5781C273.316 15.9219 268.91 20.3047 263.531 20.3047ZM263.531 17.3047C267.258 17.3047 270.316 14.2695 270.316 10.5547C270.316 6.81641 267.258 3.76953 263.531 3.76953C259.805 3.76953 256.77 6.81641 256.77 10.5547C256.77 14.2695 259.805 17.3047 263.531 17.3047ZM294.902 1.10938V4.05078H289.84V20H286.863V4.05078H281.801V1.10938H294.902ZM308.52 4.02734H300.234V8.86719H307.383V11.8203H300.234V17.0469H308.52V20H297.27V1.10938H308.52V4.02734ZM324.797 20L323.508 17.1289H314.566L313.277 20H310.066L318.949 0.722656H319.125L328.008 20H324.797ZM315.715 14.5859H322.359L319.043 7.20312L315.715 14.5859ZM348.387 0.699219H348.609V20H345.645V9.52344L339.375 19.6836H339.352L333.07 9.51172V20H330.105V0.699219H330.328L339.363 14.4336L348.387 0.699219ZM357.703 20.3164C354.598 20.3164 352.242 18.8633 351.164 16.6836L353.508 15.0078C354.352 16.4844 355.922 17.3281 357.738 17.3281C359.859 17.3281 361.465 16.3086 361.465 14.8672C361.465 13.1211 358.98 12.0664 356.777 11.1172C354.562 10.1328 352.102 8.98438 352.102 6.01953C352.102 2.92578 354.785 0.769531 358.184 0.769531C360.879 0.769531 362.895 2.07031 363.668 4.14453L361.465 5.66797C360.879 4.39062 359.578 3.67578 358.207 3.67578C356.473 3.67578 355.09 4.75391 355.09 6.08984C355.09 7.56641 356.836 8.09375 359.133 9.07812C362.121 10.3906 364.441 11.832 364.441 14.8086C364.441 18.1602 361.535 20.3164 357.703 20.3164Z" fill="white"/>
</svg>
