<svg width="512" height="131" viewBox="0 0 512 131" fill="none" xmlns="http://www.w3.org/2000/svg">
<g filter="url(#filter0_d_439_2183)">
<path d="M19.6094 5.79688H9.48438V10.7188H18.1719V15.7656H9.48438V20.9688H19.6094V26H4.42188V0.8125H19.6094V5.79688ZM21.4688 26L29.125 12.9219L21.9375 0.8125H27.75L32.0625 8.4375L36.3594 0.8125H42.1719L34.9688 12.9062L42.6406 26H36.8281L32.0469 17.5469L27.2812 26H21.4688ZM45.1719 26V0.8125H54.0156C58.8906 0.8125 62.875 4.64062 62.875 9.32812C62.875 14 58.8906 17.8125 54.0156 17.8125H50.2344V26H45.1719ZM54.0156 12.8125C56.1094 12.8281 57.8125 11.2344 57.8125 9.28125C57.8125 7.375 56.1094 5.82812 54.0156 5.82812H50.2344V12.7969L54.0156 12.8125ZM80.9219 5.79688H70.7969V10.7188H79.4844V15.7656H70.7969V20.9688H80.9219V26H65.7344V0.8125H80.9219V5.79688ZM103.922 26H97.7344L89.7188 14.0938V26H84.6562L84.6406 0.8125H92.8594C97.5625 0.8125 101.422 4.4375 101.422 8.96875C101.422 12.2031 99.4688 15.0312 96.7656 15.9844L103.922 26ZM89.7031 5.82812V12.1562L92.9531 12.1719C94.6719 12.1875 96.2031 10.7969 96.2031 9C96.2031 7.20312 94.6562 5.82812 92.9531 5.82812H89.7031ZM106.328 26V0.8125H111.391V26H106.328ZM130.953 5.79688H120.828V10.7188H129.516V15.7656H120.828V20.9688H130.953V26H115.766V0.8125H130.953V5.79688ZM149.844 0.75H154.922V26.4688H154.688L139.734 11.9219V26.0312H134.672V0.34375H134.922L149.844 14.8594V0.75ZM171.375 26.4844C164.109 26.4844 158.203 20.5 158.203 13.4219C158.203 6.3125 164.188 0.296875 171.281 0.296875C174.562 0.34375 177.469 1.64062 180.109 4.1875L177.188 8.17188C175.469 6.48438 173.406 5.45312 171.234 5.45312C167.188 5.45312 163.328 9.04688 163.328 13.4531C163.328 17.9375 167.328 21.4062 171.219 21.4062C173.531 21.4062 175.531 20.1719 177.203 18.5312L180.109 22.625C177.891 24.8281 175.188 26.4844 171.375 26.4844ZM198.141 5.79688H188.016V10.7188H196.703V15.7656H188.016V20.9688H198.141V26H182.953V0.8125H198.141V5.79688ZM217.578 26.3125L209.375 0.8125H214.828L218.703 13.5156L224.109 0.90625H224.203L229.594 13.5L233.453 0.8125H238.922L230.719 26.3125H230.422L224.094 12.625L217.859 26.3125H217.578ZM256.641 5.79688H246.516V10.7188H255.203V15.7656H246.516V20.9688H256.641V26H241.453V0.8125H256.641V5.79688ZM286.625 26L285.031 22.4844H274.953L273.344 26H267.875L279.906 0.1875H280.062L292.109 26H286.625ZM276.922 18.1719H283.062L280 11.4375L276.922 18.1719ZM313.922 26H307.734L299.719 14.0938V26H294.656L294.641 0.8125H302.859C307.562 0.8125 311.422 4.4375 311.422 8.96875C311.422 12.2031 309.469 15.0312 306.766 15.9844L313.922 26ZM299.703 5.82812V12.1562L302.953 12.1719C304.672 12.1875 306.203 10.7969 306.203 9C306.203 7.20312 304.656 5.82812 302.953 5.82812H299.703ZM331.516 5.79688H321.391V10.7188H330.078V15.7656H321.391V20.9688H331.516V26H316.328V0.8125H331.516V5.79688ZM356.688 26.4844C349.422 26.4844 343.516 20.5 343.516 13.4219C343.516 6.3125 349.5 0.296875 356.594 0.296875C359.875 0.34375 362.781 1.64062 365.422 4.1875L362.5 8.17188C360.781 6.48438 358.719 5.45312 356.547 5.45312C352.5 5.45312 348.641 9.04688 348.641 13.4531C348.641 17.9375 352.641 21.4062 356.531 21.4062C358.844 21.4062 360.844 20.1719 362.516 18.5312L365.422 22.625C363.203 24.8281 360.5 26.4844 356.688 26.4844ZM387.547 26H381.359L373.344 14.0938V26H368.281L368.266 0.8125H376.484C381.188 0.8125 385.047 4.4375 385.047 8.96875C385.047 12.2031 383.094 15.0312 380.391 15.9844L387.547 26ZM373.328 5.82812V12.1562L376.578 12.1719C378.297 12.1875 379.828 10.7969 379.828 9C379.828 7.20312 378.281 5.82812 376.578 5.82812H373.328ZM405.141 5.79688H395.016V10.7188H403.703V15.7656H395.016V20.9688H405.141V26H389.953V0.8125H405.141V5.79688ZM425.75 26L424.156 22.4844H414.078L412.469 26H407L419.031 0.1875H419.188L431.234 26H425.75ZM416.047 18.1719H422.188L419.125 11.4375L416.047 18.1719ZM446.578 0.8125V5.82812H440.391V26H435.312V5.82812H429.109V0.8125H446.578ZM449.422 26V0.8125H454.484V26H449.422ZM474.031 0.75H479.109V26.4688H478.875L463.922 11.9219V26.0312H458.859V0.34375H459.109L474.031 14.8594V0.75ZM507.547 11.8594C507.625 12.5938 507.672 13.2969 507.672 13.9844C507.672 21.8906 502.219 26.5 495.656 26.5C488.234 26.5 482.391 20.625 482.391 13.4375C482.391 6.23438 488.266 0.296875 495.469 0.296875C498.734 0.328125 502.219 1.82812 504.688 4.23438L501.875 8.4375C499.906 6.51562 497.656 5.42188 495.406 5.42188C491.5 5.42188 487.547 8.73438 487.547 13.4375C487.547 17.8125 490.953 21.4062 495.875 21.4062C499.469 21.4062 502.047 19.5625 502.219 16.5312H495.703V11.8594H507.547ZM58.3281 74.3125L50.125 48.8125H55.5781L59.4531 61.5156L64.8594 48.9062H64.9531L70.3438 61.5L74.2031 48.8125H79.6719L71.4688 74.3125H71.1719L64.8438 60.625L58.6094 74.3125H58.3281ZM82.2031 74V48.8125H87.2656V74H82.2031ZM107.578 48.8125V53.8281H101.391V74H96.3125V53.8281H90.1094V48.8125H107.578ZM124.516 48.8125H129.562V74H124.516V63.9062H115.469V74H110.422V48.8125H115.469V58.8906H124.516V48.8125ZM155.312 74.4844C148.125 74.4844 142.234 68.6094 142.234 61.4375C142.234 54.2031 148.125 48.2969 155.328 48.2969C162.531 48.2969 168.438 54.2031 168.438 61.4375C168.438 68.6094 162.531 74.4844 155.312 74.4844ZM155.312 69.3594C159.719 69.3594 163.312 65.7812 163.312 61.4062C163.312 57 159.719 53.4062 155.312 53.4062C150.922 53.4062 147.344 57 147.344 61.4062C147.344 65.7812 150.922 69.3594 155.312 69.3594ZM181.234 74.5469C175.875 74.5469 171.516 70.3906 171.516 64.6875V48.8125H176.609V64.6719C176.609 67.4219 178.781 69.4219 181.219 69.4219C183.656 69.4219 185.859 67.4062 185.859 64.6719V48.8125H190.953V64.6875C190.953 70.3906 186.594 74.5469 181.234 74.5469ZM214.391 74H208.203L200.188 62.0938V74H195.125L195.109 48.8125H203.328C208.031 48.8125 211.891 52.4375 211.891 56.9688C211.891 60.2031 209.938 63.0312 207.234 63.9844L214.391 74ZM200.172 53.8281V60.1562L203.422 60.1719C205.141 60.1875 206.672 58.7969 206.672 57C206.672 55.2031 205.125 53.8281 203.422 53.8281H200.172ZM233.719 74.5C229.594 74.5 226.547 72.7812 224.859 69.6562L228.906 66.8125C230.016 68.5938 231.625 69.4062 233.797 69.4062C236.172 69.4062 237.766 68.4375 237.766 67.0938C237.766 65.25 234.75 63.7969 232.109 62.4844C229.281 61.0781 226.172 59.5312 226.172 55.5156C226.172 51.1562 229.859 48.2812 234.484 48.2812C237.922 48.2812 240.766 49.7031 241.906 52.75L238.172 55.3594C237.422 53.8594 235.969 53.25 234.562 53.25C232.672 53.25 231.266 54.3438 231.266 55.6406C231.266 57.1406 233.172 57.6562 236.062 59.0156C240.234 60.9844 242.859 63.1094 242.859 66.9844C242.859 71.5781 239.109 74.5 233.719 74.5ZM261.109 53.7969H250.984V58.7188H259.672V63.7656H250.984V68.9688H261.109V74H245.922V48.8125H261.109V53.7969ZM284.109 74H277.922L269.906 62.0938V74H264.844L264.828 48.8125H273.047C277.75 48.8125 281.609 52.4375 281.609 56.9688C281.609 60.2031 279.656 63.0312 276.953 63.9844L284.109 74ZM269.891 53.8281V60.1562L273.141 60.1719C274.859 60.1875 276.391 58.7969 276.391 57C276.391 55.2031 274.844 53.8281 273.141 53.8281H269.891ZM301.062 48.8125H306.484L294.703 74.625H294.516L282.781 48.8125H288.141L294.594 63.4375L301.062 48.8125ZM309.016 74V48.8125H314.078V74H309.016ZM330.531 74.4844C323.266 74.4844 317.359 68.5 317.359 61.4219C317.359 54.3125 323.344 48.2969 330.438 48.2969C333.719 48.3438 336.625 49.6406 339.266 52.1875L336.344 56.1719C334.625 54.4844 332.562 53.4531 330.391 53.4531C326.344 53.4531 322.484 57.0469 322.484 61.4531C322.484 65.9375 326.484 69.4062 330.375 69.4062C332.688 69.4062 334.688 68.1719 336.359 66.5312L339.266 70.625C337.047 72.8281 334.344 74.4844 330.531 74.4844ZM357.297 53.7969H347.172V58.7188H355.859V63.7656H347.172V68.9688H357.297V74H342.109V48.8125H357.297V53.7969ZM368.562 74.5C364.438 74.5 361.391 72.7812 359.703 69.6562L363.75 66.8125C364.859 68.5938 366.469 69.4062 368.641 69.4062C371.016 69.4062 372.609 68.4375 372.609 67.0938C372.609 65.25 369.594 63.7969 366.953 62.4844C364.125 61.0781 361.016 59.5312 361.016 55.5156C361.016 51.1562 364.703 48.2812 369.328 48.2812C372.766 48.2812 375.609 49.7031 376.75 52.75L373.016 55.3594C372.266 53.8594 370.812 53.25 369.406 53.25C367.516 53.25 366.109 54.3438 366.109 55.6406C366.109 57.1406 368.016 57.6562 370.906 59.0156C375.078 60.9844 377.703 63.1094 377.703 66.9844C377.703 71.5781 373.953 74.5 368.562 74.5ZM407.031 74L405.438 70.4844H395.359L393.75 74H388.281L400.312 48.1875H400.469L412.516 74H407.031ZM397.328 66.1719H403.469L400.406 59.4375L397.328 66.1719ZM430.219 48.75H435.297V74.4688H435.062L420.109 59.9219V74.0312H415.047V48.3438H415.297L430.219 62.8594V48.75ZM447 48.8125C455.141 48.7969 460.109 53.5781 460.109 61.4375C460.109 69.25 455.141 74 447 74H439.672V48.8281L447 48.8125ZM447.031 68.9531C451.984 68.9531 455 66.1094 455 61.4219C455 56.7031 451.969 53.8281 446.984 53.8281H444.719V68.9531H447.031ZM174.125 122V96.8125H182.969C187.844 96.8125 191.828 100.641 191.828 105.328C191.828 110 187.844 113.812 182.969 113.812H179.188V122H174.125ZM182.969 108.812C185.062 108.828 186.766 107.234 186.766 105.281C186.766 103.375 185.062 101.828 182.969 101.828H179.188V108.797L182.969 108.812ZM213.969 122H207.781L199.766 110.094V122H194.703L194.688 96.8125H202.906C207.609 96.8125 211.469 100.438 211.469 104.969C211.469 108.203 209.516 111.031 206.812 111.984L213.969 122ZM199.75 101.828V108.156L203 108.172C204.719 108.188 206.25 106.797 206.25 105C206.25 103.203 204.703 101.828 203 101.828H199.75ZM228.359 122.484C221.172 122.484 215.281 116.609 215.281 109.438C215.281 102.203 221.172 96.2969 228.375 96.2969C235.578 96.2969 241.484 102.203 241.484 109.438C241.484 116.609 235.578 122.484 228.359 122.484ZM228.359 117.359C232.766 117.359 236.359 113.781 236.359 109.406C236.359 105 232.766 101.406 228.359 101.406C223.969 101.406 220.391 105 220.391 109.406C220.391 113.781 223.969 117.359 228.359 117.359ZM252.109 96.8125C260.25 96.7969 265.219 101.578 265.219 109.438C265.219 117.25 260.25 122 252.109 122H244.781V96.8281L252.109 96.8125ZM252.141 116.953C257.094 116.953 260.109 114.109 260.109 109.422C260.109 104.703 257.078 101.828 252.094 101.828H249.828V116.953H252.141ZM278 122.547C272.641 122.547 268.281 118.391 268.281 112.688V96.8125H273.375V112.672C273.375 115.422 275.547 117.422 277.984 117.422C280.422 117.422 282.625 115.406 282.625 112.672V96.8125H287.719V112.688C287.719 118.391 283.359 122.547 278 122.547ZM303.953 122.484C296.688 122.484 290.781 116.5 290.781 109.422C290.781 102.312 296.766 96.2969 303.859 96.2969C307.141 96.3438 310.047 97.6406 312.688 100.188L309.766 104.172C308.047 102.484 305.984 101.453 303.812 101.453C299.766 101.453 295.906 105.047 295.906 109.453C295.906 113.938 299.906 117.406 303.797 117.406C306.109 117.406 308.109 116.172 309.781 114.531L312.688 118.625C310.469 120.828 307.766 122.484 303.953 122.484ZM331.469 96.8125V101.828H325.281V122H320.203V101.828H314V96.8125H331.469ZM334.188 122.797C332.406 122.797 330.953 121.359 330.953 119.578C330.953 117.812 332.422 116.344 334.188 116.344C335.938 116.344 337.422 117.828 337.422 119.578C337.422 121.344 335.953 122.797 334.188 122.797Z" fill="white"/>
</g>
<defs>
<filter id="filter0_d_439_2183" x="0.421875" y="0.1875" width="511.25" height="130.609" filterUnits="userSpaceOnUse" color-interpolation-filters="sRGB">
<feFlood flood-opacity="0" result="BackgroundImageFix"/>
<feColorMatrix in="SourceAlpha" type="matrix" values="0 0 0 0 0 0 0 0 0 0 0 0 0 0 0 0 0 0 127 0" result="hardAlpha"/>
<feOffset dy="4"/>
<feGaussianBlur stdDeviation="2"/>
<feComposite in2="hardAlpha" operator="out"/>
<feColorMatrix type="matrix" values="0 0 0 0 0 0 0 0 0 0 0 0 0 0 0 0 0 0 0.25 0"/>
<feBlend mode="normal" in2="BackgroundImageFix" result="effect1_dropShadow_439_2183"/>
<feBlend mode="normal" in="SourceGraphic" in2="effect1_dropShadow_439_2183" result="shape"/>
</filter>
</defs>
</svg>
