<svg width="168" height="47" viewBox="0 0 168 47" fill="none" xmlns="http://www.w3.org/2000/svg">
<path d="M5.784 9.44C5.784 7.264 5.48533 5.664 4.888 4.64C4.29067 3.57333 3.096 3.04 1.304 3.04H0.024V1.76H5.784C7.36267 1.76 8.536 1.97333 9.304 2.4C10.1147 2.784 10.6907 3.50933 11.032 4.576C11.3733 5.64266 11.544 7.264 11.544 9.44V20.96H30.744V1.76H36.504V36.32C36.504 38.496 36.8027 40.1173 37.4 41.184C37.9973 42.208 39.192 42.72 40.984 42.72H42.264V44H36.504C34.9253 44 33.7307 43.808 32.92 43.424C32.152 42.9973 31.5973 42.2507 31.256 41.184C30.9147 40.1173 30.744 38.496 30.744 36.32V23.52H11.544V44H5.784V9.44ZM78.319 44.64C76.0577 44.64 74.0737 43.9787 72.367 42.656C70.703 41.2907 68.847 38.8587 66.799 35.36L60.399 24.48H55.919V44H50.159V9.44C50.159 7.264 49.8603 5.664 49.263 4.64C48.6657 3.57333 47.471 3.04 45.679 3.04H44.399V1.76H61.039C65.0923 1.76 68.7617 2.57066 72.047 4.192C75.375 5.77066 77.039 8.8 77.039 13.28C77.039 18.9547 73.6257 22.5813 66.799 24.16L73.519 35.36C75.0977 38.0053 76.5057 39.8613 77.743 40.928C79.023 41.952 80.495 42.5493 82.159 42.72V44C81.775 44.1707 81.2203 44.32 80.495 44.448C79.8123 44.576 79.087 44.64 78.319 44.64ZM60.719 22.24C62.0417 22.24 63.471 21.92 65.007 21.28C66.5857 20.64 67.9083 19.6373 68.975 18.272C70.0843 16.9067 70.639 15.2427 70.639 13.28C70.639 11.1893 70.0843 9.46133 68.975 8.096C67.9083 6.688 66.5857 5.664 65.007 5.024C63.471 4.34133 62.0417 4 60.719 4C59.2257 4 57.6257 4.21333 55.919 4.64V21.6C57.6257 22.0267 59.2257 22.24 60.719 22.24ZM135.262 46.88C132.19 46.88 129.8 46.4107 128.094 45.472C126.387 44.5333 125.171 43.0827 124.446 41.12C123.763 39.1147 123.422 36.448 123.422 33.12V8.48L107.422 44H106.142L89.5015 7.84V44H86.9415V1.76H93.0215L108.382 35.04L123.422 1.76H129.182V33.12C129.182 37.088 129.672 40.16 130.654 42.336C131.678 44.512 133.214 45.6 135.262 45.6V46.88ZM154.236 45.088C151.889 45.088 149.585 44.768 147.324 44.128C145.062 43.488 143.206 42.5707 141.756 41.376C140.348 40.1813 139.644 38.816 139.644 37.28V30.432H140.796C141.521 34.6987 142.929 37.792 145.02 39.712C147.11 41.5893 149.99 42.528 153.66 42.528C155.964 42.528 157.926 41.952 159.548 40.8C161.212 39.648 162.044 38.048 162.044 36C162.044 34.208 161.489 32.6507 160.38 31.328C159.27 30.0053 157.478 28.6187 155.003 27.168L147.132 22.496C144.401 20.8747 142.46 19.232 141.308 17.568C140.198 15.904 139.644 13.8773 139.644 11.488C139.644 8.20266 140.774 5.57866 143.036 3.616C145.34 1.61066 148.348 0.607998 152.06 0.607998C154.236 0.607998 156.39 0.927998 158.524 1.568C160.657 2.16533 162.406 3.06133 163.772 4.256C165.18 5.408 165.884 6.752 165.884 8.288V15.136H164.732C164.006 10.8693 162.62 7.81867 160.572 5.984C158.566 4.10667 155.729 3.168 152.06 3.168C150.097 3.168 148.369 3.76533 146.876 4.96C145.382 6.15467 144.635 7.712 144.635 9.632C144.635 11.3813 145.169 12.832 146.236 13.984C147.345 15.136 149.18 16.48 151.74 18.016L159.612 22.688C162.513 24.4373 164.561 26.0587 165.756 27.552C166.95 29.0453 167.548 30.944 167.548 33.248C167.548 36.832 166.353 39.712 163.964 41.888C161.574 44.0213 158.332 45.088 154.236 45.088Z" fill="#283C90"/>
</svg>
