<svg width="505" height="607" viewBox="0 0 505 607" fill="none" xmlns="http://www.w3.org/2000/svg">
<path opacity="0.15" d="M104.544 392.02L263.499 300.248L493.099 432.807L334.144 524.579L104.544 392.02Z" fill="#21201E"/>
<path opacity="0.15" d="M0 555.484L88.3076 606.469L211.939 535.091L123.631 484.106L0 555.484Z" fill="#21201E"/>
<path d="M106.12 380.791L265.075 289.019L494.675 421.579L335.721 513.351L106.12 380.791Z" fill="#A6D7D3"/>
<path d="M106.12 378.425L265.075 286.653L494.675 419.213L335.721 510.985L106.12 378.425Z" fill="#A9D8D4"/>
<path d="M106.12 376.059L265.075 284.287L494.675 416.847L335.721 508.62L106.12 376.059Z" fill="#ACDAD6"/>
<path d="M106.12 373.695L265.075 281.921L494.675 414.482L335.721 506.254L106.12 373.695Z" fill="#AFDBD7"/>
<path d="M106.12 371.329L265.075 279.557L494.675 412.116L335.721 503.889L106.12 371.329Z" fill="#B2DCD8"/>
<path d="M106.12 368.963L265.075 277.191L494.675 409.75L335.721 501.522L106.12 368.963Z" fill="#B5DDD9"/>
<path d="M106.12 366.597L265.075 274.825L494.675 407.386L335.721 499.158L106.12 366.597Z" fill="#B8DEDA"/>
<path d="M106.12 364.232L265.075 272.46L494.675 405.02L335.721 496.792L106.12 364.232Z" fill="#BCE0DC"/>
<path d="M106.12 361.866L265.075 270.094L494.675 402.654L335.721 494.426L106.12 361.866Z" fill="#BFE1DD"/>
<path d="M106.12 359.5L265.075 267.728L494.675 400.289L335.721 492.061L106.12 359.5Z" fill="#C2E2DE"/>
<path d="M106.12 357.136L265.075 265.364L494.675 397.923L335.721 489.695L106.12 357.136Z" fill="#C5E3DF"/>
<path d="M106.12 354.77L265.075 262.998L494.675 395.557L335.721 487.329L106.12 354.77Z" fill="#C8E4E0"/>
<path d="M106.12 352.404L265.075 260.632L494.675 393.191L335.721 484.963L106.12 352.404Z" fill="#CCE6E2"/>
<path d="M106.12 350.039L265.075 258.266L494.675 390.827L335.721 482.599L106.12 350.039Z" fill="#CFE7E3"/>
<path d="M106.12 347.673L265.075 255.901L494.675 388.461L335.721 480.233L106.12 347.673Z" fill="#D2E8E4"/>
<path d="M106.12 345.307L265.075 253.535L494.675 386.095L335.721 477.867L106.12 345.307Z" fill="#D5E9E5"/>
<path d="M106.12 342.941L265.075 251.169L494.675 383.73L335.721 475.502L106.12 342.941Z" fill="#D8EAE6"/>
<path d="M106.12 340.577L265.075 248.803L494.675 381.364L335.721 473.136L106.12 340.577Z" fill="#DCECE9"/>
<path d="M106.12 338.211L265.075 246.438L494.675 378.998L335.721 470.77L106.12 338.211Z" fill="#DFEDEA"/>
<path d="M106.12 335.845L265.075 244.073L494.675 376.632L335.721 468.404L106.12 335.845Z" fill="#E2EFEB"/>
<path d="M106.12 333.479L265.075 241.707L494.675 374.267L335.721 466.04L106.12 333.479Z" fill="#E6F0EC"/>
<path d="M106.12 331.114L265.075 239.342L494.675 371.902L335.721 463.674L106.12 331.114Z" fill="#E9F1ED"/>
<path d="M106.12 328.748L265.075 236.976L494.675 369.535L335.721 461.307L106.12 328.748Z" fill="#EDF3EF"/>
<path d="M106.12 326.382L265.075 234.61L494.675 367.17L335.721 458.943L106.12 326.382Z" fill="#F0F4F0"/>
<path d="M106.12 324.017L265.075 232.244L494.675 364.805L335.721 456.577L106.12 324.017Z" fill="#F3F5F1"/>
<path d="M106.12 321.651L265.075 229.879L494.675 362.439L335.721 454.211L106.12 321.651Z" fill="#F8F7F3"/>
<path opacity="0.15" d="M420.663 355.134L264.32 268.938C263.29 268.397 262.654 267.881 261.376 268.614L157.668 324.121C156.817 324.609 156.417 329.082 157.933 329.987L312.805 420.372C313.775 420.938 314.872 421.2 315.723 420.711L419.365 361.237C421.37 360.182 421.987 355.864 420.663 355.134Z" fill="#21201E"/>
<path d="M419.969 349.259L263.626 263.064C262.596 262.523 261.96 262.006 260.682 262.74L156.976 318.246C156.124 318.735 155.725 323.207 157.241 324.112L312.113 414.497C313.082 415.063 314.18 415.325 315.031 414.837L418.673 355.363C420.676 354.307 421.291 349.99 419.969 349.259Z" fill="#5B7AFF"/>
<path d="M419.781 350.176L262.937 259.43C261.947 258.804 261.175 258.506 261.177 257.046L261.306 139.7C261.307 138.727 261.517 137.05 263.07 137.918L419.916 227.663C420.898 228.225 421.678 229.044 421.676 230.017L421.546 348.394C421.546 349.368 421.084 350.962 419.781 350.176Z" fill="url(#paint0_linear_33_8167)"/>
<path d="M419.374 348.784L263.625 258.901C262.596 258.36 261.96 257.844 260.681 258.577L157.942 317.533C157.09 318.022 155.723 319.045 157.239 319.952L312.111 410.337C313.08 410.902 314.178 411.165 315.029 410.676L418.671 351.202C419.524 350.712 420.696 349.515 419.374 348.784Z" fill="url(#paint1_linear_33_8167)"/>
<path d="M275.372 354.156L248.852 338.851C248.676 338.759 248.567 338.671 248.35 338.796L235.764 346.224C235.618 346.308 235.386 346.483 235.644 346.636L262.125 361.939C262.29 362.035 262.476 362.081 262.622 361.997L275.254 354.568C275.397 354.484 275.597 354.281 275.372 354.156Z" fill="#F0F3FF"/>
<path d="M416.966 345.31L265.766 257.854C264.828 257.26 264.096 256.979 264.098 255.595L264.22 146.203C264.221 145.282 264.42 143.692 265.892 144.516L417.094 231.023C418.024 231.556 418.763 232.332 418.763 233.253L418.639 343.621C418.638 344.542 418.201 346.054 416.966 345.31Z" fill="url(#paint2_linear_33_8167)"/>
<path d="M356.88 342.127L364.431 346.479L366.184 345.449L358.644 341.103L363.881 338.058L362.116 337.039L356.878 340.084L345.52 333.538L350.766 330.489L349.001 329.47L343.756 332.52L332.259 325.893L337.513 322.839L335.749 321.82L330.495 324.874L319.012 318.256L324.273 315.198L322.508 314.179L317.246 317.238L305.822 310.654L311.092 307.59L309.327 306.571L304.057 309.635L292.671 303.072L297.948 300.005L296.183 298.986L290.905 302.055L279.473 295.466L284.758 292.395L282.994 291.376L277.707 294.449L266.275 287.86L271.569 284.783L269.805 283.764L264.51 286.842L258.562 283.414L256.814 284.447L262.748 287.866L255.014 292.362L249.141 288.977L247.393 290.008L253.254 293.386L245.52 297.88L239.72 294.537L237.972 295.569L243.758 298.905L236.024 303.401L230.297 300.1L228.549 301.131L234.263 304.425L226.529 308.921L220.874 305.661L219.126 306.692L224.767 309.944L217.036 314.438L218.801 315.457L226.534 310.961L237.965 317.55L230.216 322.054L231.979 323.073L239.731 318.567L251.161 325.156L243.396 329.67L245.159 330.688L252.927 326.173L290.751 347.975L282.902 352.5L284.669 353.522L292.518 348.994L304.014 355.621L296.182 360.175L297.946 361.194L305.782 356.639L317.138 363.185L309.307 367.737L309.326 367.768L311.053 368.767L318.905 364.202L326.679 368.683L328.431 367.652L320.667 363.176L328.399 358.682L336.118 363.131L337.87 362.101L330.162 357.659L337.895 353.165L345.557 357.581L347.309 356.549L339.658 352.139L347.39 347.644L354.996 352.029L356.749 350.999L349.152 346.621L356.88 342.127ZM330.495 326.919L341.991 333.546L334.259 338.04L322.762 331.413L330.495 326.919ZM298.251 328.28L286.826 321.695L294.56 317.2L305.984 323.785L298.251 328.28ZM307.751 324.803L319.233 331.422L311.501 335.916L300.019 329.297L307.751 324.803ZM285.061 320.677L273.674 314.114L281.408 309.618L292.794 316.181L285.061 320.677ZM271.91 313.097L260.478 306.508L268.212 302.012L279.642 308.601L271.91 313.097ZM270.148 314.121L262.414 318.617L250.984 312.028L258.718 307.533L270.148 314.121ZM271.914 315.139L283.3 321.701L275.566 326.197L264.18 319.634L271.914 315.139ZM285.065 322.718L296.489 329.303L288.757 333.797L277.332 327.213L285.065 322.718ZM298.255 330.322L309.738 336.94L302.004 341.435L290.522 334.816L298.255 330.322ZM311.504 337.958L323 344.585L315.268 349.079L303.771 342.452L311.504 337.958ZM313.267 336.934L320.999 332.439L332.496 339.066L324.763 343.561L313.267 336.934ZM317.246 319.283L328.729 325.901L320.995 330.396L309.513 323.777L317.246 319.283ZM304.056 311.68L315.481 318.264L307.747 322.76L296.322 316.175L304.056 311.68ZM290.903 304.1L302.29 310.662L294.556 315.158L283.17 308.595L290.903 304.1ZM277.707 296.494L289.137 303.082L281.404 307.576L269.972 300.988L277.707 296.494ZM264.51 288.886L275.94 295.475L268.206 299.97L256.774 293.382L264.51 288.886ZM255.014 294.406L266.446 300.995L258.712 305.491L247.282 298.902L255.014 294.406ZM245.52 299.925L256.95 306.514L249.217 311.009L237.785 304.421L245.52 299.925ZM239.721 316.528L228.291 309.94L236.024 305.444L247.455 312.032L239.721 316.528ZM252.919 324.136L241.487 317.547L249.221 313.051L260.651 319.64L252.919 324.136ZM254.685 325.153L262.418 320.659L273.805 327.221L266.071 331.717L254.685 325.153ZM267.837 332.733L275.571 328.237L286.995 334.822L279.262 339.317L267.837 332.733ZM292.51 346.955L281.028 340.336L288.76 335.842L300.242 342.461L292.51 346.955ZM305.772 354.6L294.276 347.973L302.01 343.478L313.506 350.105L305.772 354.6ZM318.896 362.163L307.538 355.617L315.27 351.123L326.628 357.669L318.896 362.163ZM328.391 356.644L317.034 350.098L324.767 345.604L336.123 352.15L328.391 356.644ZM337.887 351.124L326.529 344.578L334.261 340.084L345.618 346.63L337.887 351.124ZM347.381 345.605L336.023 339.059L343.757 334.565L355.113 341.111L347.381 345.605Z" fill="#2E2589"/>
<path d="M341.936 185.518C341.936 185.93 341.71 186.263 341.43 186.263C341.149 186.263 340.923 185.93 340.923 185.518C340.923 185.106 341.149 184.772 341.43 184.772C341.71 184.773 341.936 185.107 341.936 185.518Z" fill="#F0F3FF"/>
<path d="M252.923 326.177L245.155 330.692L282.898 352.503L290.747 347.979L252.923 326.177Z" fill="#F0F3FF"/>
<path d="M239.726 318.571L231.976 323.077L243.392 329.673L251.157 325.16L239.726 318.571Z" fill="#F0F3FF"/>
<path d="M292.515 348.997L284.666 353.524L296.177 360.177L304.011 355.624L292.515 348.997Z" fill="#F0F3FF"/>
<path d="M226.53 310.964L218.796 315.46L230.212 322.056L237.96 317.552L226.53 310.964Z" fill="#F0F3FF"/>
<path d="M234.258 304.426L228.542 301.134L220.869 305.662L226.524 308.922L234.258 304.426Z" fill="#F0F3FF"/>
<path d="M317.133 363.187L305.777 356.641L297.941 361.196L309.321 367.772L309.302 367.739L317.133 363.187Z" fill="#F0F3FF"/>
<path d="M219.121 306.695L213.089 310.255C212.513 310.585 211.589 311.277 212.614 311.888L217.031 314.441L224.762 309.947L219.121 306.695Z" fill="#F0F3FF"/>
<path d="M286.827 321.694L298.251 328.28L305.984 323.784L294.559 317.199L286.827 321.694Z" fill="#F0F3FF"/>
<path d="M334.26 338.04L341.992 333.546L330.496 326.919L322.764 331.415L334.26 338.04Z" fill="#F0F3FF"/>
<path d="M311.046 368.769L317.665 372.595C318.32 372.977 319.061 373.154 319.635 372.824L326.67 368.687L318.896 364.206L311.046 368.769Z" fill="#F0F3FF"/>
<path d="M319.234 331.42L307.751 324.803L300.018 329.297L311.501 335.916L319.234 331.42Z" fill="#F0F3FF"/>
<path d="M330.157 357.662L337.865 362.104L345.552 357.583L337.89 353.166L330.157 357.662Z" fill="#F0F3FF"/>
<path d="M273.675 314.114L285.06 320.676L292.794 316.182L281.409 309.618L273.675 314.114Z" fill="#F0F3FF"/>
<path d="M320.661 363.18L328.425 367.656L336.112 363.135L328.394 358.686L320.661 363.18Z" fill="#F0F3FF"/>
<path d="M330.491 324.877L335.746 321.823L324.271 315.2L319.009 318.258L330.491 324.877Z" fill="#F0F3FF"/>
<path d="M304.051 309.637L309.321 306.574L297.943 300.007L292.666 303.075L304.051 309.637Z" fill="#F0F3FF"/>
<path d="M317.243 317.241L322.505 314.181L311.089 307.593L305.818 310.655L317.243 317.241Z" fill="#F0F3FF"/>
<path d="M243.754 298.907L237.967 295.572L230.294 300.101L236.021 303.402L243.754 298.907Z" fill="#F0F3FF"/>
<path d="M356.876 340.085L362.114 337.041L350.764 330.491L345.52 333.539L356.876 340.085Z" fill="#F0F3FF"/>
<path d="M366.183 345.449L369.747 343.352C370.323 343.022 371.115 342.212 370.223 341.719L363.88 338.06L358.643 341.104L366.183 345.449Z" fill="#F0F3FF"/>
<path d="M343.754 332.521L349 329.472L337.51 322.841L332.258 325.894L343.754 332.521Z" fill="#F0F3FF"/>
<path d="M262.744 287.869L256.811 284.449L249.138 288.978L255.011 292.363L262.744 287.869Z" fill="#F0F3FF"/>
<path d="M253.247 293.387L247.388 290.011L239.713 294.539L245.515 297.883L253.247 293.387Z" fill="#F0F3FF"/>
<path d="M290.899 302.058L296.178 298.989L284.753 292.396L279.468 295.469L290.899 302.058Z" fill="#F0F3FF"/>
<path d="M277.702 294.45L282.989 291.377L271.565 284.784L266.271 287.862L277.702 294.45Z" fill="#F0F3FF"/>
<path d="M269.802 283.766L265.012 281.001C264.316 280.636 263.886 280.287 263.022 280.782L258.56 283.416L264.507 286.843L269.802 283.766Z" fill="#F0F3FF"/>
<path d="M339.651 352.141L347.303 356.552L354.99 352.032L347.384 347.647L339.651 352.141Z" fill="#F0F3FF"/>
<path d="M288.759 335.841L281.026 340.336L292.509 346.955L300.241 342.459L288.759 335.841Z" fill="#F0F3FF"/>
<path d="M275.568 328.239L267.836 332.733L279.261 339.319L286.993 334.823L275.568 328.239Z" fill="#F0F3FF"/>
<path d="M249.221 313.051L241.488 317.547L252.919 324.136L260.652 319.64L249.221 313.051Z" fill="#F0F3FF"/>
<path d="M262.417 320.657L254.684 325.153L266.07 331.715L273.802 327.221L262.417 320.657Z" fill="#F0F3FF"/>
<path d="M260.477 306.508L271.908 313.096L279.641 308.601L268.21 302.012L260.477 306.508Z" fill="#F0F3FF"/>
<path d="M256.951 306.514L245.521 299.925L237.787 304.421L249.217 311.009L256.951 306.514Z" fill="#F0F3FF"/>
<path d="M266.445 300.995L255.014 294.406L247.281 298.901L258.712 305.489L266.445 300.995Z" fill="#F0F3FF"/>
<path d="M326.529 344.578L337.887 351.124L345.619 346.629L334.262 340.083L326.529 344.578Z" fill="#F0F3FF"/>
<path d="M343.758 334.563L336.025 339.059L347.382 345.605L355.115 341.109L343.758 334.563Z" fill="#F0F3FF"/>
<path d="M356.88 342.127L349.146 346.623L356.743 351L364.43 346.48L356.88 342.127Z" fill="#F0F3FF"/>
<path d="M317.035 350.098L328.393 356.644L336.125 352.148L324.769 345.603L317.035 350.098Z" fill="#F0F3FF"/>
<path d="M302.008 343.478L294.275 347.972L305.772 354.599L313.505 350.104L302.008 343.478Z" fill="#F0F3FF"/>
<path d="M307.538 355.617L318.896 362.163L326.628 357.668L315.272 351.123L307.538 355.617Z" fill="#F0F3FF"/>
<path d="M236.024 305.445L228.29 309.94L239.72 316.528L247.454 312.034L236.024 305.445Z" fill="#F0F3FF"/>
<path d="M323.002 344.585L311.505 337.958L303.772 342.454L315.269 349.079L323.002 344.585Z" fill="#F0F3FF"/>
<path d="M296.49 329.304L285.065 322.719L277.333 327.214L288.756 333.799L296.49 329.304Z" fill="#F0F3FF"/>
<path d="M309.738 336.94L298.256 330.322L290.523 334.818L302.006 341.435L309.738 336.94Z" fill="#F0F3FF"/>
<path d="M250.982 312.027L262.414 318.615L270.148 314.121L258.716 307.532L250.982 312.027Z" fill="#F0F3FF"/>
<path d="M283.299 321.701L271.914 315.138L264.181 319.633L275.567 326.197L283.299 321.701Z" fill="#F0F3FF"/>
<path d="M307.746 322.76L315.48 318.265L304.055 311.679L296.321 316.175L307.746 322.76Z" fill="#F0F3FF"/>
<path d="M281.405 307.576L289.138 303.082L277.707 296.493L269.974 300.988L281.405 307.576Z" fill="#F0F3FF"/>
<path d="M294.557 315.158L302.291 310.662L290.904 304.1L283.172 308.595L294.557 315.158Z" fill="#F0F3FF"/>
<path d="M275.941 295.474L264.509 288.886L256.775 293.382L268.207 299.97L275.941 295.474Z" fill="#F0F3FF"/>
<path d="M332.495 339.065L320.999 332.439L313.267 336.934L324.763 343.561L332.495 339.065Z" fill="#F0F3FF"/>
<path d="M320.994 330.396L328.728 325.901L317.245 319.283L309.512 323.777L320.994 330.396Z" fill="#F0F3FF"/>
<path opacity="0.75" d="M315.754 228.605V365.258L484.818 462.867V326.214L315.754 228.605Z" fill="url(#paint3_linear_33_8167)"/>
<path opacity="0.5" d="M484.818 326.214L504.121 315.123L503.68 451.485L484.818 462.867V326.214Z" fill="url(#paint4_linear_33_8167)"/>
<path opacity="0.5" d="M484.818 326.214L504.121 315.123L333.951 219.01L315.754 228.605L484.818 326.214Z" fill="url(#paint5_linear_33_8167)"/>
<path opacity="0.2" d="M337.482 265.097V367.066L390.468 397.656V295.687L337.482 265.097Z" fill="#222221"/>
<path opacity="0.2" d="M405.479 304.39V406.36L458.464 436.95V334.981L405.479 304.39Z" fill="#222221"/>
<path d="M333.95 259.798V361.767L386.934 392.359V290.39L333.95 259.798Z" fill="white"/>
<path d="M401.947 299.092V401.061L454.931 431.651V329.683L401.947 299.092Z" fill="white"/>
<path d="M351.562 320.466C351.562 320.466 348.054 327.379 348.841 336.495C348.841 336.495 348.915 336.939 350.116 337.466L351.562 320.466Z" fill="#444443"/>
<path d="M359.462 321.699L357.608 321.584L355.217 324.145L354.712 332.66L355.522 337.211L357.364 338.102L360.643 337.853L364.262 329.686L363.613 323.863L360.667 322.496L359.462 321.699Z" fill="#CCCCCA"/>
<path d="M357.91 314.761L357.9 320.446C357.9 320.446 360.494 323.729 364.718 321.761L365.233 314.658L357.91 314.761Z" fill="#E7D7B8"/>
<path opacity="0.15" d="M364.727 316.348L357.908 316.664C357.908 316.664 360.243 321.491 364.727 316.348Z" fill="#21201E"/>
<path d="M352.718 307.512C353.044 309.922 353.033 312.561 354.668 314.529C356.713 316.989 360.436 317.554 363.246 316.892C365.007 316.477 366.509 315.332 367.613 313.905C369.247 311.793 370.114 309.216 370.552 306.549C371.039 303.573 371.521 300.471 370.659 297.503C369.538 293.645 366.023 290.509 362.159 289.92C351.856 288.346 351.594 299.196 352.718 307.512Z" fill="#E7D7B8"/>
<path d="M352.455 303.33C352.29 303.379 352.212 303.043 352.183 302.763C351.96 300.553 351.935 298.475 352.667 296.37C352.897 295.707 353.191 295.058 353.618 294.589C354.607 293.499 355.608 293.998 355.681 295.67C355.748 297.206 354.979 297.746 354.423 298.662C353.632 299.959 352.962 301.677 352.455 303.33Z" fill="#5F4225"/>
<path d="M363.338 289.056C359.984 288.448 356.445 289.704 353.28 288.311C353.386 288.972 353.616 289.621 353.957 290.207C352.695 289.844 351.507 289.148 350.546 288.209C349.261 292.371 351.592 297.319 355.286 299.886C358.98 302.454 363.686 302.932 367.91 302.126C367.57 302.191 367.995 306.39 368.068 306.831C368.217 307.726 368.444 308.573 368.804 309.414C368.907 309.653 369.728 310.925 369.674 311.027C370.83 308.811 372.223 306.693 372.86 304.244C373.24 302.783 373.309 301.162 372.893 299.653C372.515 298.287 371.584 297.376 370.983 296.14C370.84 295.848 370.771 295.528 370.69 295.215C370.42 294.155 370.005 293.103 369.308 292.249C368.096 290.77 365.121 289.38 363.338 289.056Z" fill="#714F2B"/>
<path d="M369.522 306.134C370.351 306.051 371.138 306.841 371.303 307.691C371.467 308.54 371.143 309.387 370.682 310.075C370.285 310.666 369.715 311.21 368.997 311.233C368.809 311.238 368.612 311.207 368.445 311.107C367.691 310.658 367.6 308.918 367.79 308.198C368.01 307.363 368.586 306.229 369.522 306.134Z" fill="#E7D7B8"/>
<path opacity="0.15" d="M363.679 305.955C362.244 305.974 360.794 305.787 359.385 305.401C359.227 307.28 358.969 309.105 358.67 310.957C359.017 310.735 359.365 310.511 359.712 310.288C359.836 309.239 359.961 308.19 360.086 307.141C360.808 307.236 361.545 307.329 362.248 307.196C362.952 307.063 363.63 306.662 363.913 305.998L363.679 305.955Z" fill="#21201E"/>
<path opacity="0.15" d="M354.683 303.775C354.493 303.663 354.305 303.552 354.116 303.439C354.081 303.604 354.139 303.778 354.195 303.942C354.353 304.396 354.518 304.859 354.801 305.252C355.153 305.738 355.68 306.092 356.248 306.22C356.46 306.268 356.696 306.28 356.866 306.156C356.968 306.082 357.032 305.968 357.083 305.852C357.164 305.661 357.332 305.165 357.181 304.977C357.087 304.862 356.612 304.756 356.48 304.705C355.851 304.469 355.265 304.12 354.683 303.775Z" fill="#21201E"/>
<path opacity="0.15" d="M369.896 308.958C369.749 309.348 369.451 309.584 369.229 309.485C369.006 309.386 368.945 308.991 369.092 308.601C369.238 308.211 369.536 307.974 369.759 308.073C369.981 308.171 370.043 308.568 369.896 308.958Z" fill="#21201E"/>
<path d="M357.598 327.526L355.199 335.831L355.193 339.578L355.615 340.705C355.615 340.705 356.185 341.716 357.702 341.651L359.112 337.606L358.982 328.205L358.327 327.57L357.598 327.526Z" fill="#973245"/>
<path d="M357.605 323.586L357.6 327.525C357.6 327.525 358.255 328.309 358.984 328.206L360.665 325.115L359.942 322.595L358.815 322.198L357.605 323.586Z" fill="#973245"/>
<path d="M364.862 319.78C364.862 319.78 362.408 321.886 359.461 321.699L360.513 327.038L366.202 323.675C366.202 323.675 365.843 321.455 364.862 319.78Z" fill="#D9D9D9"/>
<path d="M359.462 321.699L356.984 325.382L356.661 322.065C356.661 322.065 356.936 320.512 357.904 319.211L359.462 321.699Z" fill="#D9D9D9"/>
<path d="M357.038 320.805C357.038 320.805 354.467 331.939 355.615 340.705L350.117 337.466C350.117 337.466 349.032 331.09 351.563 320.466C351.563 320.466 355.397 321.164 357.038 320.805Z" fill="#3E3E3D"/>
<path d="M355.51 339.803C355.51 339.803 352.745 331.888 354.391 327.364L355.156 327.412L354.283 326.409C354.283 326.409 355.074 320.66 357.609 319.642C357.609 319.642 354.998 338.12 355.51 339.803Z" fill="#444443"/>
<path d="M365.916 322.414C365.916 322.414 368.129 325.801 371.316 327.264C371.316 327.264 367.416 339.928 367.042 346.099C367.042 346.099 360.685 343.865 357.701 341.653L361.748 330.046L365.916 322.414Z" fill="#3E3E3D"/>
<path d="M365.223 320.477C365.223 320.477 358.15 334.544 357.701 341.652C357.701 341.652 362.684 336.164 364.224 330.687L363.132 329.727L364.704 329.932C364.704 329.932 366.366 323.526 365.795 322.002L365.223 320.477Z" fill="#444443"/>
<path d="M371.317 327.262C371.317 327.262 373.356 331.254 370.489 347.242C370.489 347.242 368.346 347.298 367.044 346.098C367.044 346.098 367.574 332.567 371.317 327.262Z" fill="#444443"/>
<path d="M344.256 338.411L344.908 340.778L347.02 341.939L345.312 342.241L345.964 344.608L344.256 342.429L342.546 342.731L343.2 341.08L341.49 338.901L343.602 340.061L344.256 338.411Z" fill="#E6AF41"/>
<path d="M350.745 342.238L351.398 344.605L353.51 345.765L351.802 346.068L352.454 348.435L350.745 346.254L349.036 346.558L349.689 344.907L347.98 342.727L350.092 343.887L350.745 342.238Z" fill="#E6AF41"/>
<path d="M357.501 346.175L358.153 348.542L360.266 349.702L358.556 350.005L359.209 352.372L357.501 350.191L355.792 350.495L356.445 348.844L354.736 346.664L356.848 347.825L357.501 346.175Z" fill="#E6AF41"/>
<path d="M363.992 350.002L364.644 352.369L366.756 353.53L365.048 353.832L365.7 356.199L363.992 354.019L362.283 354.322L362.936 352.671L361.227 350.491L363.338 351.651L363.992 350.002Z" fill="#E6AF41"/>
<path d="M370.957 353.976L371.61 356.343L373.722 357.504L372.013 357.806L372.666 360.173L370.957 357.992L369.248 358.296L369.901 356.645L368.192 354.465L370.304 355.625L370.957 353.976Z" fill="#585857"/>
<path d="M341.548 345.735V347.636L372.527 365.372V363.482L341.548 345.735Z" fill="#AFAFAF"/>
<path d="M341.548 349.446V351.345L372.527 369.081V367.193L341.548 349.446Z" fill="#AFAFAF"/>
<path d="M341.548 352.721V354.62L372.527 372.356V370.468L341.548 352.721Z" fill="#AFAFAF"/>
<path d="M341.548 355.996V357.895L360.428 368.647V366.759L341.548 355.996Z" fill="#AFAFAF"/>
<path d="M410.334 322.483V324.383L441.313 342.12V340.23L410.334 322.483Z" fill="#AFAFAF"/>
<path d="M417.028 320.104V322.003L434.69 332.302V330.414L417.028 320.104Z" fill="#AFAFAF"/>
<path d="M410.334 326.192V328.093L441.313 345.829V343.941L410.334 326.192Z" fill="#AFAFAF"/>
<path d="M410.334 329.467V331.368L441.313 349.104V347.216L410.334 329.467Z" fill="#AFAFAF"/>
<path d="M410.334 332.742V334.643L429.214 345.395V343.505L410.334 332.742Z" fill="#AFAFAF"/>
<path d="M410.334 385.507V387.406L441.313 405.142V403.254L410.334 385.507Z" fill="#AFAFAF"/>
<path d="M410.334 388.782V390.681L441.313 408.417V406.529L410.334 388.782Z" fill="#AFAFAF"/>
<path d="M410.334 392.057V393.956L429.214 404.708V402.82L410.334 392.057Z" fill="#AFAFAF"/>
<path d="M412.414 346.119V348.019L441.311 364.589V362.701L412.414 346.119Z" fill="#AFAFAF"/>
<path d="M412.414 349.829V351.728L441.311 368.3V366.41L412.414 349.829Z" fill="#AFAFAF"/>
<path d="M412.414 353.104V355.003L441.311 371.575V369.685L412.414 353.104Z" fill="#AFAFAF"/>
<path d="M411.27 347.313C411.583 347.313 411.837 346.918 411.837 346.43C411.837 345.943 411.583 345.547 411.27 345.547C410.957 345.547 410.703 345.943 410.703 346.43C410.703 346.918 410.957 347.313 411.27 347.313Z" fill="#6F6F6F"/>
<path d="M411.27 351.009C411.583 351.009 411.837 350.613 411.837 350.126C411.837 349.638 411.583 349.243 411.27 349.243C410.957 349.243 410.703 349.638 410.703 350.126C410.703 350.613 410.957 351.009 411.27 351.009Z" fill="#6F6F6F"/>
<path d="M411.27 354.313C411.583 354.313 411.837 353.917 411.837 353.43C411.837 352.942 411.583 352.547 411.27 352.547C410.957 352.547 410.703 352.942 410.703 353.43C410.703 353.917 410.957 354.313 411.27 354.313Z" fill="#6F6F6F"/>
<path d="M412.414 356.826V358.726L441.311 375.297V373.409L412.414 356.826Z" fill="#AFAFAF"/>
<path d="M412.414 360.535V362.436L441.311 379.006V377.118L412.414 360.535Z" fill="#AFAFAF"/>
<path d="M412.414 363.81V365.711L441.311 382.281V380.393L412.414 363.81Z" fill="#AFAFAF"/>
<path d="M411.27 358.02C411.583 358.02 411.837 357.625 411.837 357.137C411.837 356.649 411.583 356.254 411.27 356.254C410.957 356.254 410.703 356.649 410.703 357.137C410.703 357.625 410.957 358.02 411.27 358.02Z" fill="#6F6F6F"/>
<path d="M411.27 361.716C411.583 361.716 411.837 361.321 411.837 360.833C411.837 360.346 411.583 359.95 411.27 359.95C410.957 359.95 410.703 360.346 410.703 360.833C410.703 361.321 410.957 361.716 411.27 361.716Z" fill="#6F6F6F"/>
<path d="M411.27 365.02C411.583 365.02 411.837 364.625 411.837 364.137C411.837 363.65 411.583 363.254 411.27 363.254C410.957 363.254 410.703 363.65 410.703 364.137C410.703 364.625 410.957 365.02 411.27 365.02Z" fill="#6F6F6F"/>
<path d="M412.414 370.343V372.243L441.311 388.813V386.925L412.414 370.343Z" fill="#AFAFAF"/>
<path d="M412.414 374.053V375.952L441.311 392.524V390.636L412.414 374.053Z" fill="#AFAFAF"/>
<path d="M412.414 377.328V379.227L441.311 395.799V393.911L412.414 377.328Z" fill="#AFAFAF"/>
<path d="M411.27 371.537C411.583 371.537 411.837 371.142 411.837 370.654C411.837 370.167 411.583 369.771 411.27 369.771C410.957 369.771 410.703 370.167 410.703 370.654C410.703 371.142 410.957 371.537 411.27 371.537Z" fill="#6F6F6F"/>
<path d="M411.837 374.35C411.837 374.837 411.583 375.233 411.27 375.233C410.957 375.233 410.703 374.837 410.703 374.35C410.703 373.862 410.957 373.467 411.27 373.467C411.583 373.467 411.837 373.862 411.837 374.35Z" fill="#6F6F6F"/>
<path d="M411.27 378.536C411.583 378.536 411.837 378.141 411.837 377.653C411.837 377.166 411.583 376.771 411.27 376.771C410.957 376.771 410.703 377.166 410.703 377.653C410.703 378.141 410.957 378.536 411.27 378.536Z" fill="#6F6F6F"/>
<path opacity="0.75" d="M232.269 9.59302V146.247L401.333 243.855V107.202L232.269 9.59302Z" fill="url(#paint6_linear_33_8167)"/>
<path opacity="0.5" d="M401.333 107.202L420.636 96.1113L420.195 232.473L401.333 243.855V107.202Z" fill="url(#paint7_linear_33_8167)"/>
<path opacity="0.5" d="M401.333 107.202L420.635 96.1113L250.466 0L232.269 9.59301L401.333 107.202Z" fill="url(#paint8_linear_33_8167)"/>
<path opacity="0.2" d="M253.998 46.0852V148.055L306.983 178.646V76.6768L253.998 46.0852Z" fill="#222221"/>
<path opacity="0.2" d="M321.994 85.3787V187.348L374.98 217.94V115.97L321.994 85.3787Z" fill="#222221"/>
<path d="M250.466 40.7874V142.757L303.45 173.347V71.3776L250.466 40.7874Z" fill="white"/>
<path d="M318.462 80.0808V182.05L371.446 212.64V110.671L318.462 80.0808Z" fill="white"/>
<path d="M268.077 101.454C268.077 101.454 264.568 108.367 265.355 117.483C265.355 117.483 265.429 117.927 266.631 118.454L268.077 101.454Z" fill="#444443"/>
<path d="M275.975 102.687L274.122 102.573L271.731 105.133L271.226 113.65L272.036 118.2L273.877 119.091L277.156 118.842L280.776 110.675L280.127 104.853L277.181 103.485L275.975 102.687Z" fill="#CCCCCA"/>
<path d="M273.172 96.0976L274.413 101.435C274.413 101.435 277.007 104.718 281.231 102.751L282.313 95.5002L273.172 96.0976Z" fill="#E7D7B8"/>
<path opacity="0.15" d="M280.778 97.5504L273.548 97.2771C273.548 97.2771 276.293 102.693 280.778 97.5504Z" fill="#21201E"/>
<path d="M269.099 88.4915C269.065 89.0696 269.035 89.6477 269.008 90.2258C268.959 91.3051 268.926 92.4215 269.322 93.428C269.681 94.3453 270.372 95.0772 271.163 95.643C271.915 96.1812 272.672 96.8816 273.5 97.2825C275.402 98.2026 277.717 98.3605 279.759 97.8785C281.519 97.4638 283.022 96.3186 284.126 94.8918C285.76 92.7799 286.626 90.2024 287.064 87.5357C287.667 83.8639 288.714 79.5507 285.171 77.1367C282.239 75.1387 278.39 74.3725 275.034 75.5246C272.775 76.3004 270.439 77.9771 270.001 80.4172C269.523 83.0866 269.261 85.7877 269.099 88.4915Z" fill="#E7D7B8"/>
<path opacity="0.15" d="M280.192 86.9438C278.757 86.9644 277.307 86.7762 275.898 86.3904C275.74 88.2689 274.874 90.0938 274.574 91.9462C274.922 91.7238 275.877 91.5 276.223 91.2775C276.348 90.2284 276.472 89.1793 276.597 88.1302C277.319 88.2249 278.057 88.3183 278.76 88.1851C279.463 88.0519 280.141 87.651 280.424 86.9877L280.192 86.9438Z" fill="#21201E"/>
<path opacity="0.15" d="M271.196 84.7646C271.006 84.652 270.818 84.5408 270.628 84.4282C270.594 84.593 270.652 84.7674 270.708 84.9308C270.866 85.3867 271.029 85.8481 271.314 86.2408C271.664 86.7269 272.193 87.0812 272.761 87.2089C272.973 87.257 273.209 87.2693 273.379 87.1457C273.481 87.0716 273.545 86.9576 273.596 86.8409C273.677 86.65 273.844 86.1543 273.693 85.9676C273.6 85.8522 273.125 85.7465 272.993 85.6957C272.364 85.4567 271.778 85.1093 271.196 84.7646Z" fill="#21201E"/>
<path d="M274.114 108.514L271.713 116.82L271.708 120.567L272.13 121.695C272.13 121.695 272.699 122.705 274.217 122.641L275.627 118.596L275.497 109.195L274.842 108.559L274.114 108.514Z" fill="#3A2AA4"/>
<path d="M274.119 104.575L274.113 108.514C274.113 108.514 274.768 109.298 275.496 109.195L277.177 106.104L276.455 103.584L275.327 103.187L274.119 104.575Z" fill="#3A2AA4"/>
<path d="M281.528 100.769C281.528 100.769 278.921 102.875 275.975 102.689L277.026 108.028L282.716 104.665C282.716 104.665 282.51 102.444 281.528 100.769Z" fill="#D9D9D9"/>
<path d="M275.976 102.687L273.498 106.37L273.175 103.053C273.175 103.053 273.197 101.781 274.166 100.479L275.976 102.687Z" fill="#D9D9D9"/>
<path d="M273.551 101.795C273.551 101.795 270.981 112.928 272.129 121.695L266.631 118.455C266.631 118.455 265.546 112.08 268.076 101.454C268.076 101.454 271.91 102.152 273.551 101.795Z" fill="#3E3E3D"/>
<path d="M272.024 120.793C272.024 120.793 269.259 112.878 270.905 108.353L271.67 108.401L270.797 107.4C270.797 107.4 271.335 101.931 273.871 100.913C273.871 100.913 271.512 119.109 272.024 120.793Z" fill="#444443"/>
<path d="M282.511 103.248C282.511 103.248 284.641 106.789 287.827 108.25C287.827 108.25 283.927 120.915 283.552 127.086C283.552 127.086 277.197 124.852 274.212 122.64L278.259 111.032L282.511 103.248Z" fill="#3E3E3D"/>
<path d="M281.857 101.35C281.857 101.35 274.664 115.533 274.215 122.641C274.215 122.641 279.198 117.154 280.737 111.676L279.646 110.716L281.218 110.921C281.218 110.921 282.999 104.398 282.428 102.874L281.857 101.35Z" fill="#444443"/>
<path d="M287.832 108.251C287.832 108.251 289.871 112.243 287.004 128.231C287.004 128.231 284.862 128.287 283.559 127.087C283.559 127.087 284.089 113.556 287.832 108.251Z" fill="#444443"/>
<path d="M260.77 119.4L261.423 121.766L263.535 122.928L261.826 123.23L262.479 125.598L260.77 123.417L259.061 123.72L259.714 122.07L258.005 119.889L260.117 121.05L260.77 119.4Z" fill="#E6AF41"/>
<path d="M267.259 123.226L267.913 125.593L270.025 126.754L268.315 127.057L268.969 129.425L267.259 127.244L265.551 127.546L266.203 125.897L264.495 123.716L266.607 124.877L267.259 123.226Z" fill="#E6AF41"/>
<path d="M274.015 127.163L274.667 129.53L276.779 130.691L275.071 130.994L275.723 133.362L274.015 131.181L272.307 131.483L272.959 129.834L271.251 127.653L273.363 128.814L274.015 127.163Z" fill="#585857"/>
<path d="M280.507 130.99L281.159 133.357L283.271 134.518L281.563 134.821L282.215 137.189L280.507 135.008L278.799 135.31L279.451 133.661L277.741 131.48L279.853 132.641L280.507 130.99Z" fill="#585857"/>
<path d="M287.471 134.964L288.125 137.331L290.237 138.492L288.529 138.795L289.181 141.161L287.471 138.982L285.763 139.284L286.415 137.633L284.707 135.454L286.819 136.614L287.471 134.964Z" fill="#585857"/>
<path d="M258.064 126.725V128.624L289.043 146.36V144.472L258.064 126.725Z" fill="#AFAFAF"/>
<path d="M258.064 130.434V132.334L289.043 150.07V148.181L258.064 130.434Z" fill="#AFAFAF"/>
<path d="M258.064 133.709V135.609L289.043 153.345V151.457L258.064 133.709Z" fill="#AFAFAF"/>
<path d="M258.064 136.984V138.884L276.944 149.635V147.747L258.064 136.984Z" fill="#AFAFAF"/>
<path d="M326.849 103.473V105.372L357.827 123.108V121.22L326.849 103.473Z" fill="#AFAFAF"/>
<path d="M333.54 101.093V102.992L351.202 113.29V111.402L333.54 101.093Z" fill="#AFAFAF"/>
<path d="M326.849 107.182V109.081L357.827 126.818V124.929L326.849 107.182Z" fill="#AFAFAF"/>
<path d="M326.849 110.457V112.356L357.827 130.093V128.204L326.849 110.457Z" fill="#AFAFAF"/>
<path d="M326.849 113.732V115.631L345.728 126.383V124.495L326.849 113.732Z" fill="#AFAFAF"/>
<path d="M326.849 166.495V168.395L357.827 186.131V184.243L326.849 166.495Z" fill="#AFAFAF"/>
<path d="M326.849 169.77V171.67L357.827 189.406V187.518L326.849 169.77Z" fill="#AFAFAF"/>
<path d="M326.849 173.045V174.945L345.728 185.697V183.808L326.849 173.045Z" fill="#AFAFAF"/>
<path d="M328.929 127.108V129.007L357.826 145.578V143.69L328.929 127.108Z" fill="#AFAFAF"/>
<path d="M328.929 130.817V132.717L357.826 149.287V147.399L328.929 130.817Z" fill="#AFAFAF"/>
<path d="M328.929 134.092V135.992L357.826 152.562V150.674L328.929 134.092Z" fill="#AFAFAF"/>
<path d="M328.353 127.418C328.353 127.906 328.099 128.301 327.785 128.301C327.472 128.301 327.218 127.906 327.218 127.418C327.218 126.931 327.472 126.535 327.785 126.535C328.099 126.535 328.353 126.931 328.353 127.418Z" fill="#6F6F6F"/>
<path d="M328.353 131.115C328.353 131.602 328.099 131.998 327.785 131.998C327.472 131.998 327.218 131.602 327.218 131.115C327.218 130.627 327.472 130.232 327.785 130.232C328.099 130.232 328.353 130.627 328.353 131.115Z" fill="#6F6F6F"/>
<path d="M328.353 134.419C328.353 134.906 328.099 135.302 327.785 135.302C327.472 135.302 327.218 134.906 327.218 134.419C327.218 133.931 327.472 133.536 327.785 133.536C328.099 133.536 328.353 133.931 328.353 134.419Z" fill="#6F6F6F"/>
<path d="M328.929 137.816V139.715L357.826 156.285V154.397L328.929 137.816Z" fill="#AFAFAF"/>
<path d="M328.929 141.525V143.424L357.826 159.995V158.107L328.929 141.525Z" fill="#AFAFAF"/>
<path d="M328.929 144.8V146.699L357.826 163.27V161.381L328.929 144.8Z" fill="#AFAFAF"/>
<path d="M328.353 138.126C328.353 138.614 328.099 139.009 327.785 139.009C327.472 139.009 327.218 138.614 327.218 138.126C327.218 137.639 327.472 137.243 327.785 137.243C328.099 137.243 328.353 137.639 328.353 138.126Z" fill="#6F6F6F"/>
<path d="M328.353 141.821C328.353 142.309 328.099 142.704 327.785 142.704C327.472 142.704 327.218 142.309 327.218 141.821C327.218 141.334 327.472 140.938 327.785 140.938C328.099 140.938 328.353 141.334 328.353 141.821Z" fill="#6F6F6F"/>
<path d="M328.353 145.125C328.353 145.613 328.099 146.008 327.785 146.008C327.472 146.008 327.218 145.613 327.218 145.125C327.218 144.638 327.472 144.242 327.785 144.242C328.099 144.242 328.353 144.638 328.353 145.125Z" fill="#6F6F6F"/>
<path d="M328.929 151.332V153.233L357.826 169.803V167.915L328.929 151.332Z" fill="#AFAFAF"/>
<path d="M328.929 155.041V156.941L357.826 173.512V171.623L328.929 155.041Z" fill="#AFAFAF"/>
<path d="M328.929 158.316V160.216L357.826 176.787V174.898L328.929 158.316Z" fill="#AFAFAF"/>
<path d="M328.353 151.642C328.353 152.13 328.099 152.525 327.785 152.525C327.472 152.525 327.218 152.13 327.218 151.642C327.218 151.155 327.472 150.76 327.785 150.76C328.099 150.76 328.353 151.155 328.353 151.642Z" fill="#6F6F6F"/>
<path d="M328.353 155.339C328.353 155.826 328.099 156.222 327.785 156.222C327.472 156.222 327.218 155.826 327.218 155.339C327.218 154.852 327.472 154.456 327.785 154.456C328.099 154.456 328.353 154.852 328.353 155.339Z" fill="#6F6F6F"/>
<path d="M328.353 158.643C328.353 159.13 328.099 159.526 327.785 159.526C327.472 159.526 327.218 159.13 327.218 158.643C327.218 158.155 327.472 157.76 327.785 157.76C328.099 157.76 328.353 158.155 328.353 158.643Z" fill="#6F6F6F"/>
<path d="M283.004 85.086C283.301 86.5594 283.942 87.9765 283.967 89.4802C285.277 89.5722 286.606 88.2525 287.754 88.8897C287.316 87.0332 290.2 85.465 289.523 83.6812C289.437 83.4574 289.296 83.2459 289.293 83.0056C289.288 82.7104 289.492 82.4577 289.619 82.1914C290.025 81.3359 289.512 80.1769 288.605 79.9023C289.001 78.1487 288.218 76.1892 286.724 75.1881C286.14 74.7968 285.474 74.5482 284.814 74.3038C283.969 73.9907 283.125 73.6777 282.28 73.3646C281.602 73.1133 280.885 72.8579 280.171 72.9746C279.844 73.0281 279.531 73.16 279.2 73.1778C278.872 73.1957 278.55 73.1009 278.228 73.0295C276.362 72.6121 274.333 72.9897 272.74 74.0498C271.691 74.7474 270.772 76.0327 271.248 77.1985C271.457 77.7107 271.901 78.0897 272.355 78.4041C274.398 79.8171 277.04 80.3321 279.464 79.7897C279.585 79.7636 280.94 80.7495 281.248 80.8401C281.678 80.9665 283.13 80.7811 283.38 81.0173C283.617 81.2384 282.839 84.269 283.004 85.086Z" fill="#222221"/>
<path d="M269.849 78.3576C269.832 78.543 269.851 78.7325 269.817 78.9165C269.75 79.2776 269.49 79.5674 269.336 79.9011C269.073 80.4723 269.577 82.0954 269.644 82.7216C269.849 82.094 269.941 81.6011 270.214 81.1287C270.677 80.3281 271.491 79.5179 272.123 78.8423C272.325 78.6268 272.529 78.4057 272.644 78.1338C272.941 77.4307 272.18 76.6343 271.47 76.6494C270.708 76.6631 269.909 77.66 269.849 78.3576Z" fill="#222221"/>
<path d="M286.039 87.1238C286.867 87.04 287.655 87.831 287.818 88.681C287.983 89.5296 287.659 90.3768 287.197 91.0648C286.801 91.6553 286.231 92.199 285.513 92.2224C285.324 92.2293 285.128 92.1963 284.961 92.0961C284.207 91.647 284.116 89.9072 284.306 89.1877C284.527 88.3528 285.103 87.2185 286.039 87.1238Z" fill="#E7D7B8"/>
<path opacity="0.15" d="M286.411 89.9456C286.264 90.3356 285.966 90.5718 285.743 90.4729C285.521 90.3741 285.459 89.9786 285.606 89.5886C285.753 89.1986 286.051 88.9625 286.274 89.0613C286.496 89.1602 286.558 89.5557 286.411 89.9456Z" fill="#21201E"/>
<path opacity="0.75" d="M55.7725 77.1328V213.786L224.837 311.394V174.742L55.7725 77.1328Z" fill="url(#paint9_linear_33_8167)"/>
<path opacity="0.5" d="M224.837 174.742L244.14 163.651L243.699 300.013L224.837 311.394V174.742Z" fill="url(#paint10_linear_33_8167)"/>
<path opacity="0.5" d="M224.837 174.742L244.139 163.651L73.9684 67.5383L55.7725 77.1327L224.837 174.742Z" fill="url(#paint11_linear_33_8167)"/>
<path opacity="0.2" d="M77.5029 113.625V215.594L130.487 246.184V144.215L77.5029 113.625Z" fill="#222221"/>
<path opacity="0.2" d="M145.499 152.918V254.888L198.483 285.478V183.508L145.499 152.918Z" fill="#222221"/>
<path d="M73.9707 108.326V210.295L126.956 240.885V138.916L73.9707 108.326Z" fill="white"/>
<path d="M141.967 147.619V249.588L194.951 280.179V178.209L141.967 147.619Z" fill="white"/>
<path d="M84.2744 186.939L84.9266 189.306L87.0386 190.466L85.3303 190.769L85.9826 193.136L84.2744 190.957L82.5648 191.259L83.217 189.608L81.5088 187.428L83.6207 188.589L84.2744 186.939Z" fill="#E6AF41"/>
<path d="M90.7632 190.766L91.4169 193.133L93.5288 194.293L91.8192 194.595L92.4728 196.963L90.7632 194.782L89.055 195.086L89.7073 193.435L87.999 191.254L90.111 192.415L90.7632 190.766Z" fill="#E6AF41"/>
<path d="M97.5191 194.703L98.1714 197.07L100.283 198.23L98.5751 198.532L99.2273 200.9L97.5191 198.719L95.8109 199.023L96.4631 197.372L94.7549 195.191L96.8668 196.352L97.5191 194.703Z" fill="#E6AF41"/>
<path d="M104.011 198.528L104.663 200.896L106.775 202.057L105.067 202.359L105.719 204.727L104.011 202.546L102.301 202.848L102.955 201.199L101.245 199.019L103.357 200.179L104.011 198.528Z" fill="#E6AF41"/>
<path d="M110.975 202.502L111.629 204.87L113.741 206.03L112.031 206.333L112.685 208.701L110.975 206.52L109.267 206.822L109.919 205.173L108.211 202.992L110.323 204.153L110.975 202.502Z" fill="#E6AF41"/>
<path d="M81.5664 194.263V196.162L112.547 213.9V212.01L81.5664 194.263Z" fill="#AFAFAF"/>
<path d="M81.5664 197.974V199.873L112.547 217.609V215.721L81.5664 197.974Z" fill="#AFAFAF"/>
<path d="M81.5664 201.247V203.148L112.547 220.883V218.995L81.5664 201.247Z" fill="#AFAFAF"/>
<path d="M81.5664 204.523V206.423L88.5215 210.351V208.463L81.5664 204.523Z" fill="#AFAFAF"/>
<path d="M150.353 171.011V172.91L181.333 190.646V188.758L150.353 171.011Z" fill="#AFAFAF"/>
<path d="M157.047 168.632V170.531L174.709 180.83V178.94L157.047 168.632Z" fill="#AFAFAF"/>
<path d="M150.353 174.72V176.621L181.333 194.357V192.469L150.353 174.72Z" fill="#AFAFAF"/>
<path d="M150.353 177.995V179.896L181.333 197.632V195.744L150.353 177.995Z" fill="#AFAFAF"/>
<path d="M150.353 181.27V183.171L169.232 193.923V192.033L150.353 181.27Z" fill="#AFAFAF"/>
<path d="M150.353 234.035V235.934L181.333 253.67V251.782L150.353 234.035Z" fill="#AFAFAF"/>
<path d="M150.353 237.31V239.209L181.333 256.945V255.056L150.353 237.31Z" fill="#AFAFAF"/>
<path d="M150.353 240.585V242.484L169.232 253.236V251.348L150.353 240.585Z" fill="#AFAFAF"/>
<path d="M152.436 194.646V196.547L181.333 213.117V211.229L152.436 194.646Z" fill="#AFAFAF"/>
<path d="M152.436 198.357V200.256L181.333 216.828V214.938L152.436 198.357Z" fill="#AFAFAF"/>
<path d="M152.436 201.632V203.531L181.333 220.102V218.213L152.436 201.632Z" fill="#AFAFAF"/>
<path d="M151.291 195.841C151.604 195.841 151.858 195.446 151.858 194.958C151.858 194.471 151.604 194.075 151.291 194.075C150.978 194.075 150.724 194.471 150.724 194.958C150.724 195.446 150.978 195.841 151.291 195.841Z" fill="#6F6F6F"/>
<path d="M151.291 199.536C151.604 199.536 151.858 199.141 151.858 198.653C151.858 198.166 151.604 197.77 151.291 197.77C150.978 197.77 150.724 198.166 150.724 198.653C150.724 199.141 150.978 199.536 151.291 199.536Z" fill="#6F6F6F"/>
<path d="M151.291 202.84C151.604 202.84 151.858 202.445 151.858 201.957C151.858 201.47 151.604 201.074 151.291 201.074C150.978 201.074 150.724 201.47 150.724 201.957C150.724 202.445 150.978 202.84 151.291 202.84Z" fill="#6F6F6F"/>
<path d="M152.436 205.354V207.253L181.333 223.825V221.937L152.436 205.354Z" fill="#AFAFAF"/>
<path d="M152.436 209.063V210.964L181.333 227.534V225.646L152.436 209.063Z" fill="#AFAFAF"/>
<path d="M152.436 212.338V214.239L181.333 230.809V228.921L152.436 212.338Z" fill="#AFAFAF"/>
<path d="M151.291 206.548C151.604 206.548 151.858 206.152 151.858 205.665C151.858 205.177 151.604 204.782 151.291 204.782C150.978 204.782 150.724 205.177 150.724 205.665C150.724 206.152 150.978 206.548 151.291 206.548Z" fill="#6F6F6F"/>
<path d="M151.291 210.244C151.604 210.244 151.858 209.849 151.858 209.361C151.858 208.874 151.604 208.478 151.291 208.478C150.978 208.478 150.724 208.874 150.724 209.361C150.724 209.849 150.978 210.244 151.291 210.244Z" fill="#6F6F6F"/>
<path d="M151.291 213.548C151.604 213.548 151.858 213.153 151.858 212.665C151.858 212.178 151.604 211.782 151.291 211.782C150.978 211.782 150.724 212.178 150.724 212.665C150.724 213.153 150.978 213.548 151.291 213.548Z" fill="#6F6F6F"/>
<path d="M152.436 218.871V220.771L181.333 237.341V235.453L152.436 218.871Z" fill="#AFAFAF"/>
<path d="M152.436 222.581V224.48L181.333 241.052V239.162L152.436 222.581Z" fill="#AFAFAF"/>
<path d="M152.436 225.856V227.755L181.333 244.327V242.437L152.436 225.856Z" fill="#AFAFAF"/>
<path d="M151.291 220.065C151.604 220.065 151.858 219.67 151.858 219.182C151.858 218.695 151.604 218.299 151.291 218.299C150.978 218.299 150.724 218.695 150.724 219.182C150.724 219.67 150.978 220.065 151.291 220.065Z" fill="#6F6F6F"/>
<path d="M151.858 222.877C151.858 223.365 151.604 223.76 151.291 223.76C150.978 223.76 150.724 223.365 150.724 222.877C150.724 222.39 150.978 221.994 151.291 221.994C151.604 221.994 151.858 222.39 151.858 222.877Z" fill="#6F6F6F"/>
<path d="M151.291 227.064C151.604 227.064 151.858 226.669 151.858 226.181C151.858 225.694 151.604 225.298 151.291 225.298C150.978 225.298 150.724 225.694 150.724 226.181C150.724 226.669 150.978 227.064 151.291 227.064Z" fill="#6F6F6F"/>
<path d="M105.328 136.789C106.641 136.173 108.188 136.179 109.577 136.601C110.964 137.023 112.206 137.83 113.319 138.76C115.948 140.958 118.005 144.059 118.213 147.479C118.355 149.827 117.626 152.152 116.611 154.274C115.597 156.395 114.292 158.366 113.18 160.438C112.904 160.95 112.636 161.487 112.592 162.068C112.492 163.438 113.949 164.685 115.288 164.372C115.023 165.044 114.403 165.528 113.729 165.785C113.055 166.042 112.322 166.101 111.601 166.134C109.272 166.242 106.885 166.108 104.713 165.261C102.54 164.413 100.593 162.771 99.8078 160.575C99.3931 159.415 99.3162 158.167 99.2421 156.936C99.1556 155.488 99.0691 154.038 99.1034 152.587C99.1803 149.451 99.8381 146.333 101.022 143.427C101.544 142.147 102.304 141.025 102.895 139.799C103.521 138.506 103.916 137.452 105.328 136.789Z" fill="#D49C37"/>
<path d="M91.5798 168.994C91.5798 168.994 88.0713 175.907 88.8582 185.023C88.8582 185.023 88.9323 185.467 90.1338 185.994L91.5798 168.994Z" fill="#444443"/>
<path d="M99.4783 170.227L97.6245 170.112L95.2338 172.673L94.7285 181.188L95.6307 189.235L97.7893 190.233L100.44 189.876L104.279 178.214L103.629 172.391L100.683 171.024L99.4783 170.227Z" fill="#CCCCCA"/>
<path d="M104.736 170.289L105.36 163.069L98.662 163.507L98.7471 169.461L98.1869 174.742L97.8848 178.372L103.993 171.547L104.736 170.289Z" fill="#E7D7B8"/>
<path opacity="0.15" d="M104.763 164.725L98.6602 165.414C98.6602 165.414 100.278 169.867 104.763 164.725Z" fill="#21201E"/>
<path d="M92.9455 156.029C92.951 156.815 92.9606 157.602 93.0649 158.382C93.3711 160.678 94.5411 162.942 96.307 164.457C97.9919 165.903 101.223 165.9 103.265 165.418C105.025 165.004 106.528 163.858 107.632 162.432C109.266 160.32 110.133 157.742 110.57 155.076C111.173 151.404 112.219 147.091 108.677 144.676C105.745 142.678 101.896 141.912 98.5398 143.064C96.2809 143.84 93.9451 145.517 93.5071 147.957C93.0251 150.639 92.9276 153.185 92.9441 155.898C92.9441 155.942 92.9441 155.986 92.9455 156.029Z" fill="#E7D7B8"/>
<path opacity="0.15" d="M103.821 155.689C102.386 155.71 100.936 155.522 99.5268 155.136C99.3689 157.014 98.9638 158.142 98.6631 159.993C99.0105 159.77 99.4197 159.593 99.7671 159.369C99.8907 158.32 100.101 157.924 100.226 156.874C100.948 156.969 101.685 157.063 102.389 156.929C103.092 156.795 103.77 156.395 104.053 155.732L103.821 155.689Z" fill="#21201E"/>
<path opacity="0.15" d="M94.8235 153.511C94.634 153.399 94.4459 153.288 94.2564 153.175C94.2221 153.34 94.2798 153.514 94.3361 153.678C94.494 154.132 94.6574 154.595 94.9416 154.988C95.2932 155.474 95.8205 155.828 96.3889 155.956C96.6004 156.004 96.8366 156.016 97.0069 155.893C97.1085 155.818 97.173 155.704 97.2238 155.588C97.3049 155.397 97.4724 154.901 97.3213 154.713C97.228 154.598 96.7528 154.492 96.621 154.441C95.9907 154.204 95.4044 153.856 94.8235 153.511Z" fill="#21201E"/>
<path d="M104.932 167.989C104.932 167.989 103.973 169.552 101.213 171.574L101.207 178.059L106.218 172.201C106.218 172.201 105.692 169.791 104.932 167.989Z" fill="#D9D9D9"/>
<path d="M98.0264 170.72L96.7549 176.011L97.0542 169.333C97.0542 169.333 97.6914 168.91 98.7693 167.139L98.0264 170.72Z" fill="#D9D9D9"/>
<path d="M97.0543 169.333C97.0543 169.333 94.4837 180.467 95.6317 189.233L90.1335 185.994C90.1335 185.994 89.0487 179.618 91.5794 168.993C91.5767 168.994 95.4133 169.69 97.0543 169.333Z" fill="#3E3E3D"/>
<path d="M95.5265 188.331C95.5265 188.331 92.7609 180.416 94.4087 175.892L95.1736 175.94L94.3002 174.937C94.3002 174.937 95.3425 169.468 97.8787 168.45C97.8787 168.45 95.0143 186.648 95.5265 188.331Z" fill="#444443"/>
<path d="M106.015 170.787C106.015 170.787 108.145 174.329 111.331 175.79C111.331 175.79 107.431 188.455 107.056 194.626C107.056 194.626 100.68 192.401 97.6963 190.189L101.764 178.572L106.015 170.787Z" fill="#3E3E3D"/>
<path d="M105.318 168.851C105.318 168.851 98.1482 183.083 97.6992 190.19C97.6992 190.19 102.703 184.694 104.242 179.215L103.151 178.255L104.723 178.459C104.723 178.459 106.504 171.937 105.933 170.413L105.318 168.851Z" fill="#444443"/>
<path d="M111.335 175.79C111.335 175.79 113.374 179.782 110.507 195.769C110.507 195.769 108.363 195.826 107.062 194.626C107.062 194.626 107.592 181.094 111.335 175.79Z" fill="#444443"/>
<path d="M93.1063 145.787C92.8633 146.337 92.6642 146.902 92.5667 147.494C92.4335 148.302 92.4445 149.613 93.1283 150.179C93.3782 149.709 93.4414 149.141 93.716 148.664C94.0772 148.039 94.6415 147.236 95.2265 146.801C95.7703 146.396 96.494 146.254 97.0528 145.833C97.5541 145.455 97.9674 144.924 98.0704 144.304C98.172 143.685 97.9015 142.986 97.3398 142.706C97.0542 142.563 96.7233 142.537 96.4047 142.563C95.6907 142.622 94.9999 142.944 94.496 143.452C94.1005 143.85 93.8231 144.35 93.5636 144.848C93.4043 145.157 93.2478 145.47 93.1063 145.787Z" fill="#D49C37"/>
<path d="M105.777 154.525C106.266 154.713 106.758 154.893 107.249 155.071C107.775 155.262 108.316 155.457 108.728 155.836C109.651 156.685 109.629 158.121 109.537 159.371C110.829 159.052 111.91 158.146 112.737 157.102C114.129 155.346 114.926 153.126 114.967 150.885C115.008 148.644 114.295 146.396 112.97 144.589C112.499 143.947 111.955 143.361 111.381 142.809C110.483 141.945 109.511 141.16 108.477 140.466C107.863 140.054 107.219 139.67 106.511 139.456C105.788 139.237 105.024 139.206 104.27 139.191C102.866 139.163 101.449 139.192 100.084 139.516C98.3005 139.939 96.9562 140.757 96.2353 142.526C95.5239 144.273 95.6118 146.342 96.4481 148.031C96.8367 148.817 97.4793 149.219 98.0739 149.831C98.8402 150.62 99.6531 151.334 100.568 151.949C102.18 153.034 103.961 153.827 105.777 154.525Z" fill="#E6AF41"/>
<path d="M109.542 154.662C110.371 154.578 111.158 155.369 111.323 156.219C111.488 157.068 111.164 157.915 110.702 158.603C110.306 159.194 109.736 159.737 109.018 159.761C108.829 159.768 108.633 159.735 108.465 159.634C107.712 159.185 107.621 157.446 107.81 156.726C108.032 155.891 108.608 154.757 109.542 154.662Z" fill="#E7D7B8"/>
<path opacity="0.15" d="M109.916 157.485C109.769 157.875 109.471 158.112 109.248 158.013C109.026 157.914 108.964 157.518 109.111 157.128C109.257 156.738 109.556 156.502 109.778 156.601C110.001 156.699 110.063 157.095 109.916 157.485Z" fill="#21201E"/>
<path d="M98.0315 170.615L97.8887 178.372L98.7401 169.568L98.7744 167.14L98.0315 170.615Z" fill="#D9D9D9"/>
<path d="M101.217 171.576L98.0303 178.211L101.423 174.606L101.217 171.576Z" fill="#D9D9D9"/>
<path d="M297.526 243.5L296.551 203.543L300.737 205.972L301.171 223.766L319.604 234.464L319.169 216.67L323.356 219.1L324.331 259.057L320.145 256.628L319.709 238.756L301.276 228.058L301.712 245.93L297.526 243.5ZM335.922 226.393L336.898 266.351L332.711 263.921L331.736 223.964L335.922 226.393ZM345.291 271.222L344.316 231.265L355.996 238.044C358.697 239.611 360.927 241.431 362.686 243.504C364.445 245.563 365.763 247.758 366.641 250.088C367.518 252.418 367.986 254.761 368.043 257.115C368.101 259.469 367.736 261.315 366.947 262.653C366.159 263.991 364.917 264.68 363.22 264.721C361.524 264.75 359.336 263.987 356.658 262.432L347.206 256.946L347.099 252.576L356.416 257.983C358.262 259.055 359.74 259.605 360.85 259.633C361.971 259.669 362.771 259.261 363.249 258.41C363.739 257.553 363.964 256.324 363.925 254.725C363.886 253.125 363.593 251.576 363.046 250.079C362.499 248.582 361.65 247.179 360.497 245.869C359.344 244.546 357.834 243.342 355.966 242.258L348.607 237.986L349.477 273.652L345.291 271.222ZM361.125 262.716L370.07 285.604L365.209 282.782L356.398 259.973L361.125 262.716ZM378.906 251.34L379.881 291.298L375.695 288.868L374.72 248.911L378.906 251.34ZM414.712 272.121L415.687 312.079L411.636 309.728L392.033 267.422L391.695 267.226L392.461 298.599L388.275 296.169L387.299 256.212L391.35 258.563L411.023 300.986L411.361 301.182L410.593 269.731L414.712 272.121ZM447.024 303.185C446.621 301.656 446.102 300.194 445.469 298.801C444.847 297.401 444.111 296.089 443.26 294.864C442.42 293.646 441.473 292.538 440.417 291.541C439.36 290.543 438.208 289.682 436.959 288.957C434.911 287.768 433.063 287.299 431.416 287.548C429.77 287.798 428.48 288.825 427.548 290.631C426.616 292.436 426.192 295.069 426.276 298.529C426.361 301.989 426.933 305.2 427.992 308.161C429.052 311.123 430.452 313.711 432.192 315.927C433.933 318.142 435.872 319.87 438.01 321.111C439.99 322.261 441.723 322.785 443.207 322.685C444.702 322.578 445.849 321.872 446.65 320.567C447.461 319.255 447.836 317.377 447.777 314.931L449.067 315.988L438.669 309.953L438.565 305.661L451.731 313.302L451.835 317.595C451.916 320.885 451.378 323.394 450.222 325.121C449.077 326.855 447.458 327.774 445.364 327.88C443.281 327.978 440.866 327.231 438.12 325.638C435.06 323.861 432.35 321.468 429.991 318.457C427.644 315.454 425.785 312.041 424.416 308.221C423.058 304.406 422.328 300.392 422.225 296.178C422.148 293.017 422.445 290.387 423.114 288.289C423.795 286.183 424.789 284.631 426.096 283.633C427.403 282.635 428.967 282.197 430.79 282.318C432.612 282.44 434.632 283.144 436.848 284.43C438.671 285.489 440.378 286.793 441.969 288.345C443.571 289.89 445.005 291.601 446.271 293.477C447.548 295.347 448.623 297.323 449.494 299.406C450.366 301.476 450.983 303.572 451.345 305.693L447.024 303.185Z" fill="#F8F7F3"/>
<path d="M1.5791 546.621L89.8867 597.606L213.518 526.227L125.21 475.242L1.5791 546.621Z" fill="#A3D6D2"/>
<path d="M1.5791 545.166L89.8867 596.151L213.518 524.772L125.21 473.787L1.5791 545.166Z" fill="#A6D7D3"/>
<path d="M1.5791 543.71L89.8867 594.695L213.518 523.317L125.21 472.333L1.5791 543.71Z" fill="#A9D8D4"/>
<path d="M1.5791 542.256L89.8867 593.241L213.518 521.862L125.21 470.877L1.5791 542.256Z" fill="#ACDAD6"/>
<path d="M1.5791 540.801L89.8867 591.785L213.518 520.406L125.21 469.423L1.5791 540.801Z" fill="#AFDBD7"/>
<path d="M1.5791 539.345L89.8867 590.33L213.518 518.952L125.21 467.967L1.5791 539.345Z" fill="#B2DCD8"/>
<path d="M1.5791 537.891L89.8867 588.875L213.518 517.496L125.21 466.512L1.5791 537.891Z" fill="#B5DDD9"/>
<path d="M1.5791 536.435L89.8867 587.42L213.518 516.041L125.21 465.056L1.5791 536.435Z" fill="#B8DEDA"/>
<path d="M1.5791 534.98L89.8867 585.964L213.518 514.587L125.21 463.602L1.5791 534.98Z" fill="#BCE0DC"/>
<path d="M1.5791 533.526L89.8867 584.51L213.518 513.131L125.21 462.146L1.5791 533.526Z" fill="#BFE1DD"/>
<path d="M1.5791 532.07L89.8867 583.055L213.518 511.676L125.21 460.691L1.5791 532.07Z" fill="#C2E2DE"/>
<path d="M1.5791 530.614L89.8867 581.599L213.518 510.221L125.21 459.237L1.5791 530.614Z" fill="#C5E3DF"/>
<path d="M1.5791 529.16L89.8867 580.144L213.518 508.766L125.21 457.781L1.5791 529.16Z" fill="#C8E4E0"/>
<path d="M1.5791 527.705L89.8867 578.689L213.518 507.31L125.21 456.326L1.5791 527.705Z" fill="#CCE6E2"/>
<path d="M1.5791 526.249L89.8867 577.234L213.518 505.856L125.21 454.871L1.5791 526.249Z" fill="#CFE7E3"/>
<path d="M1.5791 524.795L89.8867 575.779L213.518 504.4L125.21 453.416L1.5791 524.795Z" fill="#D2E8E4"/>
<path d="M1.5791 523.339L89.8867 574.324L213.518 502.945L125.21 451.96L1.5791 523.339Z" fill="#D5E9E5"/>
<path d="M1.5791 521.884L89.8867 572.868L213.518 501.491L125.21 450.506L1.5791 521.884Z" fill="#D8EAE6"/>
<path d="M1.5791 520.428L89.8867 571.413L213.518 500.035L125.21 449.051L1.5791 520.428Z" fill="#DCECE9"/>
<path d="M1.5791 518.974L89.8867 569.959L213.518 498.58L125.21 447.595L1.5791 518.974Z" fill="#DFEDEA"/>
<path d="M1.5791 517.518L89.8867 568.503L213.518 497.124L125.21 446.141L1.5791 517.518Z" fill="#E2EFEB"/>
<path d="M1.5791 516.063L89.8867 567.047L213.518 495.67L125.21 444.685L1.5791 516.063Z" fill="#E6F0EC"/>
<path d="M1.5791 514.609L89.8867 565.593L213.518 494.214L125.21 443.229L1.5791 514.609Z" fill="#E9F1ED"/>
<path d="M1.5791 513.153L89.8867 564.138L213.518 492.76L125.21 441.775L1.5791 513.153Z" fill="#EDF3EF"/>
<path d="M1.5791 511.698L89.8867 562.682L213.518 491.304L125.21 440.32L1.5791 511.698Z" fill="#F0F4F0"/>
<path d="M1.5791 510.243L89.8867 561.228L213.518 489.849L125.21 438.864L1.5791 510.243Z" fill="#F3F5F1"/>
<path d="M1.5791 508.788L89.8867 559.772L213.518 488.393L125.21 437.409L1.5791 508.788Z" fill="#F8F7F3"/>
<path d="M119.341 449.073L115.458 451.315L189.246 493.916L193.129 491.674L119.341 449.073Z" fill="#AFAFAF"/>
<path d="M110.893 453.967L107.01 456.209L180.797 498.81L184.681 496.568L110.893 453.967Z" fill="#AFAFAF"/>
<path d="M102.268 459.237L98.3848 461.479L172.172 504.079L176.056 501.837L102.268 459.237Z" fill="#AFAFAF"/>
<path d="M93.8218 464.131L89.9385 466.373L163.726 508.973L167.609 506.732L93.8218 464.131Z" fill="#AFAFAF"/>
<path d="M74.3052 474.461L70.4219 476.704L144.208 519.304L148.093 517.063L74.3052 474.461Z" fill="#AFAFAF"/>
<path d="M65.8583 479.355L61.9736 481.598L135.761 524.199L139.645 521.957L65.8583 479.355Z" fill="#AFAFAF"/>
<path d="M57.2304 484.624L53.3457 486.866L127.133 529.468L131.017 527.225L57.2304 484.624Z" fill="#AFAFAF"/>
<path d="M48.7851 489.518L44.9004 491.76L118.688 534.362L122.571 532.119L48.7851 489.518Z" fill="#AFAFAF"/>
<path d="M39.7798 494.832L35.8965 497.075L109.684 539.676L113.567 537.434L39.7798 494.832Z" fill="#AFAFAF"/>
<path d="M31.3345 499.728L27.4512 501.969L66.286 524.449L70.1707 522.206L31.3345 499.728Z" fill="#AFAFAF"/>
<path opacity="0.15" d="M89.8169 497.014C86.2728 497.143 82.6091 497.445 79.4906 499.132C76.3708 500.818 73.9279 504.24 74.4428 507.748C74.9921 511.498 78.5404 514.03 81.9981 515.582C89.0356 518.743 97.033 519.726 104.625 518.363C107.207 517.9 109.795 517.146 111.931 515.623C114.066 514.1 115.699 511.704 115.785 509.083C115.876 506.376 114.323 503.825 112.267 502.062C106.596 497.201 96.8929 496.757 89.8169 497.014Z" fill="#21201E"/>
<path d="M105.744 501.228C106.062 501.23 106.38 501.248 106.699 501.281C107.686 501.385 108.936 501.261 109.35 502.162C109.857 503.264 108.925 505.025 108.009 505.819C107.004 506.69 105.802 507.296 104.616 507.894C103.888 508.26 103.159 508.627 102.431 508.994C101.628 509.397 100.797 509.809 99.9003 509.86C99.1766 509.901 98.4598 509.701 97.7828 509.44C96.2559 508.852 95.594 507.438 96.1652 505.849C96.2874 505.509 96.4659 505.191 96.6431 504.877C97.6798 503.034 99.3633 502.873 101.114 501.999C102.619 501.568 104.175 501.219 105.744 501.228Z" fill="#0D0D1F"/>
<path d="M105.818 500.794C106.47 500.715 107.127 500.656 107.783 500.617C108.151 500.597 108.54 500.587 108.862 500.766C109.351 501.037 109.53 501.681 109.427 502.232C109.265 503.094 108.669 504.201 108.008 504.774C107.003 505.644 105.802 506.251 104.615 506.85C103.887 507.217 103.158 507.583 102.43 507.95C101.627 508.354 100.796 508.767 99.8997 508.816C99.176 508.858 98.4592 508.657 97.7822 508.396C96.6947 507.976 95.8612 507.575 96.177 506.302C96.3129 505.749 96.4503 505.197 96.5876 504.643C96.8663 503.515 96.9885 503.221 98.0761 502.785C99.1225 502.367 100.191 502.006 101.276 501.703C102.763 501.286 104.283 500.983 105.818 500.794Z" fill="#12122E"/>
<path d="M97.7557 502.294C97.6293 503.005 97.1982 504.138 97.6623 504.799C98.4436 505.911 100.606 505.266 101.511 504.668C101.712 504.536 101.921 504.332 101.874 504.096C101.849 503.973 101.758 503.876 101.68 503.78C101.428 503.474 101.336 503.067 100.987 502.86C100.696 502.688 100.134 502.703 99.8017 502.645C99.1192 502.53 98.4381 502.412 97.7557 502.294Z" fill="#191745"/>
<path d="M89.4344 504.488C89.7516 504.49 90.0702 504.508 90.3888 504.541C91.3761 504.645 92.7479 503.954 93.0486 504.899C93.6267 506.718 92.6147 508.285 91.6974 509.079C90.6922 509.95 89.4921 510.557 88.3043 511.154C87.5765 511.52 86.8473 511.887 86.1196 512.254C85.3176 512.657 84.4855 513.071 83.5888 513.12C82.8651 513.161 82.1483 512.961 81.4714 512.7C80.999 512.517 80.5239 512.295 80.1833 511.92C79.2413 510.879 79.6739 509.091 80.3193 508.041C81.286 506.467 83.0903 505.749 84.8013 505.257C86.3077 504.826 87.8649 504.477 89.4344 504.488Z" fill="#0D0D1F"/>
<path d="M89.4923 503.98C90.1569 503.907 90.8243 503.862 91.493 503.843C91.7773 503.835 92.0725 503.833 92.3348 503.946C92.7646 504.13 93.0227 504.595 93.0777 505.061C93.2122 506.212 92.5339 507.31 91.6976 508.034C90.6925 508.904 89.4923 509.511 88.3045 510.11C87.5767 510.477 86.8476 510.843 86.1198 511.21C85.3179 511.614 84.4857 512.026 83.589 512.076C82.8654 512.118 82.1486 511.917 81.4716 511.656C80.9443 511.453 80.1959 511.161 79.968 510.609C79.6659 509.877 79.9625 508.601 80.1616 507.875C80.2742 507.461 80.4307 507.047 80.7246 506.735C80.9937 506.449 81.3549 506.272 81.7119 506.11C84.1699 504.992 86.8078 504.273 89.4923 503.98Z" fill="#12122E"/>
<path d="M81.4451 505.554C81.3023 506.352 80.9988 507.081 80.856 507.877C80.7764 508.322 82.6068 508.51 82.8471 508.521C83.6903 508.56 84.4826 508.403 85.2021 507.928C85.4026 507.796 85.6113 507.591 85.5647 507.357C85.5399 507.234 85.4507 507.137 85.371 507.041C85.1184 506.735 85.0264 506.328 84.6776 506.122C84.3865 505.951 83.8248 505.966 83.4925 505.908C82.8087 505.789 82.1276 505.672 81.4451 505.554Z" fill="#191745"/>
<path d="M81.457 506.405C82.0268 506.824 82.7299 507.059 83.4385 507.067C84.1731 507.075 84.9091 506.838 85.501 506.401C85.5477 506.367 85.5944 506.33 85.6191 506.278C85.6452 506.224 85.6452 506.162 85.6452 506.103C85.6479 505.754 85.7495 505.421 85.7687 505.079C85.7893 504.701 85.8017 504.319 85.8278 503.94C85.8827 503.138 85.9404 502.338 86.0022 501.536C86.1258 499.933 86.2631 498.332 86.4114 496.733C86.708 493.532 87.0472 490.334 87.4083 487.138C87.7695 483.943 88.1498 480.749 88.5288 477.555C88.9078 474.362 89.2854 471.168 89.637 467.971C89.9899 464.777 90.3167 461.581 90.5982 458.378C90.8783 455.179 91.1118 451.975 91.2752 448.768C91.3603 447.099 91.4262 445.429 91.4702 443.76C93.1674 449.815 94.866 455.871 96.5633 461.927C97.3776 464.832 98.1946 467.748 98.6148 470.736C99.2218 475.052 98.9924 479.436 98.7466 483.786C98.5681 486.949 98.38 490.113 98.0188 493.261C97.655 496.42 96.9945 499.512 97.0741 502.709C97.0768 502.813 97.081 502.921 97.1331 503.012C97.184 503.099 97.2732 503.156 97.3597 503.207C98.6148 503.921 100.171 503.741 101.593 503.487C101.516 503.501 101.954 500.115 102 499.821C102.184 498.63 102.362 497.423 102.549 496.227C102.938 493.743 103.292 491.255 103.613 488.761C104.256 483.775 104.765 478.771 105.142 473.758C105.518 468.745 105.759 463.721 105.867 458.694C105.967 453.998 105.257 449.273 105.497 444.608C105.547 443.654 105.658 442.69 105.493 441.748C105.334 440.833 104.92 439.985 104.66 439.095C104.014 436.899 104.289 434.455 103.295 432.394C101.622 428.924 97.7387 428.033 94.4925 426.558C92.198 425.517 89.8388 424.461 87.3246 424.307C85.4708 424.193 83.389 424.607 81.965 425.87C80.3406 427.31 80.4875 429.987 80.3186 432.038C80.1689 433.864 80.0193 435.709 80.2664 437.524C80.872 441.968 81.6835 446.131 81.8552 450.642C82.3125 462.59 82.3578 474.553 81.9884 486.504C81.8895 489.744 81.7591 492.984 81.5984 496.22C81.5174 497.848 81.4295 499.475 81.3334 501.101C81.2853 501.914 81.2359 502.727 81.1837 503.539C81.1576 503.946 81.1315 504.352 81.1041 504.759C81.0835 505.076 81.0107 505.434 81.0258 505.749C81.0313 505.844 81.0478 505.936 81.089 506.021C81.1549 506.157 81.2702 506.26 81.3883 506.352C81.413 506.372 81.435 506.389 81.457 506.405Z" fill="#12122E"/>
<path d="M92.8225 385.35C93.1095 385.269 93.4157 385.166 93.5901 384.924C93.7425 384.713 93.7645 384.436 93.7796 384.175C93.8331 383.29 93.888 382.407 93.9416 381.524C93.9567 381.287 93.9718 381.042 94.0775 380.83C94.2629 380.452 94.6776 380.257 95.0347 380.036C96.3474 379.223 97.1562 377.765 97.5077 376.26C97.8593 374.756 97.8071 373.191 97.7426 371.647C97.6835 370.226 97.6107 368.787 97.1878 367.429C96.7648 366.071 95.9478 364.781 94.7106 364.08C93.4033 363.339 91.8091 363.339 90.3178 363.515C88.9941 363.672 87.6044 363.995 86.6624 364.938C85.9676 365.633 85.5996 366.583 85.3126 367.522C83.3064 374.098 87.1663 378.628 85.2096 385.406C87.1966 385.954 90.8574 385.902 92.8225 385.35Z" fill="#DDCDB4"/>
<path d="M81.8394 375.734C83.2071 377.277 84.9497 378.55 85.8587 380.401C88.6023 381.375 91.9721 379.989 93.2368 377.368C93.8685 376.059 93.9893 374.595 94.3793 373.211C94.7651 371.838 95.4421 370.621 95.6481 369.185C95.7071 368.774 95.7429 368.354 95.9049 367.973C96.1891 367.3 96.818 366.844 97.2575 366.262C98.2969 364.884 98.1844 362.985 98.0223 361.267C97.9152 360.125 97.8026 358.96 97.3495 357.907C96.7096 356.421 95.3817 355.249 93.8273 354.798C92.2728 354.348 90.5234 354.629 89.1887 355.543C88.5735 355.964 88.0352 356.515 87.3459 356.796C86.7678 357.032 86.1279 357.06 85.5113 357.164C80.1449 358.072 78.0605 364.347 78.7786 369.061C79.1521 371.507 80.1944 373.879 81.8394 375.734Z" fill="#222221"/>
<path d="M93.9001 370.234C93.6997 370.425 93.6118 370.704 93.5376 370.972C93.3454 371.665 93.1957 372.383 93.2493 373.1C93.3042 373.818 93.5871 374.543 94.1391 375.005C94.2146 375.068 94.2998 375.128 94.3986 375.141C94.5744 375.163 94.7295 375.028 94.8463 374.895C95.5438 374.097 95.8308 372.831 95.7567 371.783C95.7018 370.998 94.9026 369.279 93.9001 370.234Z" fill="#DDCDB4"/>
<path d="M94.0716 382.744L94.382 385.153L85.7529 382.193V381.908C85.7529 381.908 87.2689 380.879 94.0716 382.744Z" fill="#F8F7F3"/>
<path d="M105.13 414.212C105.167 414.505 105.226 414.838 105.474 414.998C105.723 415.159 106.161 414.913 106.028 414.648C106.092 414.997 106.162 415.357 106.364 415.648C106.566 415.939 106.942 416.141 107.279 416.031C107.795 415.863 107.865 415.171 107.84 414.629C108.234 414.882 108.79 414.711 109.099 414.36C109.408 414.008 109.518 413.526 109.569 413.061C109.794 411.005 109.029 408.864 107.552 407.417C107.049 406.925 106.438 406.498 105.741 406.406C105.043 406.316 104.256 406.645 103.995 407.298C103.895 407.547 103.877 407.824 103.862 408.093C103.8 409.188 103.857 410.155 104.473 411.078C105.053 411.95 105.001 413.172 105.13 414.212Z" fill="#DDCDB4"/>
<path d="M82.461 383.237C82.9251 382.993 83.3961 382.76 83.8836 382.55C88.345 380.629 94.1769 383.35 97.5439 386.344C98.1646 386.896 98.7482 387.494 99.4005 388.01C101.035 389.302 103.033 390.036 104.837 391.078C105.107 391.233 105.383 391.407 105.544 391.674C105.702 391.936 105.727 392.255 105.747 392.559C106.163 398.574 104.853 404.83 104.848 410.934C104.835 417.936 105.532 428.501 105.729 435.493C105.74 435.904 105.747 436.335 105.556 436.697C105.306 437.171 104.783 437.422 104.288 437.628C98.567 440.014 92.1062 440.589 86.0546 439.25C83.6144 438.711 80.9038 437.693 79.153 435.836C78.844 435.51 78.5529 435.136 78.4774 434.693C78.4087 434.29 78.5268 433.884 78.6353 433.491C80.452 426.892 79.5704 416.19 78.2371 409.477C76.9024 402.764 74.8755 396.189 73.8924 389.415C73.8086 388.84 73.7413 388.215 74.031 387.711C74.3785 387.105 75.1172 386.873 75.7818 386.659C78.2481 385.868 80.2556 384.403 82.461 383.237Z" fill="#191745"/>
<path d="M99.4014 388.009C98.7492 387.492 98.1656 386.896 97.5449 386.343C94.1765 383.348 88.346 380.628 83.8845 382.549C83.3971 382.759 82.9247 382.991 82.4619 383.235C82.4619 383.235 88.0288 386.011 97.9088 387.647L99.4014 388.009Z" fill="#12122E"/>
<path d="M113.572 405.455C113.972 406.658 114.293 407.885 114.521 409.14C114.597 409.558 114.661 409.992 114.549 410.401C114.38 411.007 113.846 411.446 113.277 411.715C110.844 412.866 107.997 411.475 105.804 409.914C104.261 408.815 102.79 407.612 101.407 406.319C100.082 405.079 98.7586 403.583 98.6803 401.771C98.657 401.216 98.7531 400.664 98.8492 400.117C99.3175 397.467 99.8571 388.487 104.853 391.24C105.597 391.65 106.139 392.342 106.649 393.024C109.501 396.831 112.08 400.966 113.572 405.455Z" fill="#191745"/>
<path d="M104.726 409.2C104.726 409.2 100.499 407.294 99.4339 401.767C99.4339 401.767 97.716 413.261 104.726 409.2Z" fill="#12122E"/>
<path opacity="0.15" d="M94.7938 373.648C94.9523 373.648 95.0808 373.212 95.0808 372.675C95.0808 372.137 94.9523 371.701 94.7938 371.701C94.6353 371.701 94.5068 372.137 94.5068 372.675C94.5068 373.212 94.6353 373.648 94.7938 373.648Z" fill="#21201E"/>
<defs>
<linearGradient id="paint0_linear_33_8167" x1="261.176" y1="244.032" x2="421.677" y2="244.032" gradientUnits="userSpaceOnUse">
<stop stop-color="#221C61"/>
<stop offset="1" stop-color="#3A2AA4"/>
</linearGradient>
<linearGradient id="paint1_linear_33_8167" x1="234.395" y1="365.407" x2="331.534" y2="309.479" gradientUnits="userSpaceOnUse">
<stop stop-color="#221C61"/>
<stop offset="1" stop-color="#3A2AA4"/>
</linearGradient>
<linearGradient id="paint2_linear_33_8167" x1="264.1" y1="244.897" x2="418.764" y2="244.897" gradientUnits="userSpaceOnUse">
<stop stop-color="#3037EB"/>
<stop offset="1" stop-color="#32BDF8"/>
</linearGradient>
<linearGradient id="paint3_linear_33_8167" x1="315.756" y1="345.735" x2="484.82" y2="345.735" gradientUnits="userSpaceOnUse">
<stop stop-color="#3037EB"/>
<stop offset="1" stop-color="#32BDF8"/>
</linearGradient>
<linearGradient id="paint4_linear_33_8167" x1="485.585" y1="390.2" x2="519.355" y2="385.62" gradientUnits="userSpaceOnUse">
<stop stop-color="white"/>
<stop offset="1" stop-color="white" stop-opacity="0"/>
</linearGradient>
<linearGradient id="paint5_linear_33_8167" x1="402.25" y1="282.775" x2="429.85" y2="243.597" gradientUnits="userSpaceOnUse">
<stop stop-color="white"/>
<stop offset="1" stop-color="white" stop-opacity="0"/>
</linearGradient>
<linearGradient id="paint6_linear_33_8167" x1="232.271" y1="126.723" x2="401.335" y2="126.723" gradientUnits="userSpaceOnUse">
<stop stop-color="#3037EB"/>
<stop offset="1" stop-color="#32BDF8"/>
</linearGradient>
<linearGradient id="paint7_linear_33_8167" x1="403.139" y1="171.683" x2="436.503" y2="164.458" gradientUnits="userSpaceOnUse">
<stop stop-color="white"/>
<stop offset="1" stop-color="white" stop-opacity="0"/>
</linearGradient>
<linearGradient id="paint8_linear_33_8167" x1="316.002" y1="67.1417" x2="344.292" y2="28.4592" gradientUnits="userSpaceOnUse">
<stop stop-color="white"/>
<stop offset="1" stop-color="white" stop-opacity="0"/>
</linearGradient>
<linearGradient id="paint9_linear_33_8167" x1="55.7745" y1="194.263" x2="224.839" y2="194.263" gradientUnits="userSpaceOnUse">
<stop stop-color="#3037EB"/>
<stop offset="1" stop-color="#32BDF8"/>
</linearGradient>
<linearGradient id="paint10_linear_33_8167" x1="225.563" y1="239.446" x2="260.314" y2="231.957" gradientUnits="userSpaceOnUse">
<stop stop-color="white"/>
<stop offset="1" stop-color="white" stop-opacity="0"/>
</linearGradient>
<linearGradient id="paint11_linear_33_8167" x1="142.212" y1="137.085" x2="162.379" y2="93.6115" gradientUnits="userSpaceOnUse">
<stop stop-color="white"/>
<stop offset="1" stop-color="white" stop-opacity="0"/>
</linearGradient>
</defs>
</svg>
