<svg width="270" height="196" viewBox="0 0 270 196" fill="none" xmlns="http://www.w3.org/2000/svg">
<path d="M206.823 130.12C213.84 130.367 220.789 131.824 227.339 134.348C233.887 136.871 240.026 140.452 245.434 144.926C248.46 147.431 251.247 150.22 253.746 153.25C253.99 153.545 254.44 153.155 254.196 152.859C249.696 147.407 244.263 142.744 238.232 139.06C232.202 135.376 225.576 132.657 218.686 131.082C214.806 130.195 210.849 129.667 206.871 129.527C206.49 129.514 206.439 130.107 206.823 130.12Z" fill="#FEBB09"/>
<path d="M220.735 132.236C224.951 128.173 230.737 123.603 236.668 121.031C240.024 119.575 243.732 118.374 247.577 118.414C249.397 118.433 251.348 118.799 252.46 119.87C254.112 121.459 253.189 123.898 251.412 125.452C249.487 127.135 246.779 128.183 244.082 129.073C236.91 131.439 228.484 131.574 220.735 132.236Z" fill="#FEBB09"/>
<path d="M238.524 139.634C242.376 137.169 247.507 134.557 252.442 133.497C255.235 132.896 258.259 132.545 261.197 133.165C262.588 133.458 264.025 134.039 264.713 135.029C265.735 136.499 264.654 138.225 263.054 139.142C261.323 140.136 259.088 140.523 256.887 140.791C251.032 141.504 244.559 140.315 238.524 139.634Z" fill="#FEBB09"/>
<path d="M240.959 141.011C246.58 142.649 253.423 145.395 258.604 149.261C261.536 151.449 264.422 154.068 266.3 157.424C267.189 159.012 267.841 160.886 267.466 162.384C266.91 164.608 264.334 165.02 262.102 164.251C259.685 163.417 257.429 161.589 255.316 159.693C249.694 154.647 245.387 147.405 240.959 141.011Z" fill="#FEBB09"/>
<path d="M226.739 133.652C230.112 137.192 233.972 142.1 236.319 147.233C237.647 150.138 238.804 153.368 239.023 156.781C239.126 158.396 238.973 160.144 238.229 161.184C237.124 162.728 235.204 162.029 233.902 160.528C232.495 158.904 231.519 156.553 230.666 154.205C228.395 147.959 227.747 140.493 226.739 133.652Z" fill="#FEBB09"/>
<path d="M216.39 130.79C218.553 133.061 221.03 136.209 222.535 139.502C223.387 141.365 224.129 143.438 224.27 145.627C224.336 146.663 224.238 147.784 223.761 148.451C223.052 149.441 221.82 148.993 220.986 148.03C220.083 146.988 219.457 145.48 218.91 143.974C217.453 139.967 217.036 135.178 216.39 130.79Z" fill="#FEBB09"/>
<g opacity="0.09">
<path d="M133.042 161.313C130.951 165.226 128.193 168.763 124.941 171.777C121.69 174.791 117.951 177.278 113.909 179.102C111.647 180.122 109.29 180.928 106.876 181.504C106.641 181.56 106.737 181.923 106.973 181.867C111.317 180.83 115.473 179.044 119.239 176.648C123.005 174.251 126.389 171.248 129.198 167.777C130.78 165.823 132.18 163.725 133.364 161.507C133.478 161.293 133.156 161.1 133.042 161.313Z" fill="#4B0263"/>
<path d="M127.974 168.618C129.107 172.14 130.092 176.692 129.902 180.771C129.796 183.08 129.446 185.517 128.354 187.688C127.838 188.715 127.088 189.72 126.171 190.053C124.81 190.549 123.683 189.347 123.296 187.907C122.876 186.347 123.034 184.52 123.279 182.742C123.93 178.015 126.196 173.198 127.974 168.618Z" fill="#4B0263"/>
<path d="M118.832 176.653C119.159 179.523 119.215 183.161 118.444 186.255C118.008 188.007 117.367 189.82 116.198 191.314C115.645 192.021 114.917 192.676 114.164 192.791C113.046 192.961 112.367 191.869 112.291 190.706C112.209 189.448 112.611 188.072 113.071 186.749C114.295 183.229 116.768 179.887 118.832 176.653Z" fill="#4B0263"/>
<path d="M117.374 177.652C114.883 180.386 111.423 183.504 107.789 185.368C105.733 186.423 103.445 187.333 101.019 187.465C99.8713 187.528 98.6262 187.376 97.8817 186.748C96.7746 185.814 97.2564 184.238 98.3136 183.186C99.4581 182.046 101.123 181.275 102.786 180.603C107.21 178.816 112.516 178.387 117.374 177.652Z" fill="#4B0263"/>
<path d="M125.502 171.631C122.555 172.56 118.698 173.386 115.134 173.29C113.116 173.236 110.962 172.994 108.966 172.17C108.021 171.779 107.072 171.207 106.689 170.495C106.12 169.44 107.05 168.544 108.264 168.224C109.577 167.876 111.181 167.977 112.751 168.145C116.925 168.593 121.341 170.301 125.502 171.631Z" fill="#4B0263"/>
<path d="M130.002 166.555C128.112 167.151 125.638 167.681 123.351 167.619C122.057 167.585 120.675 167.429 119.394 166.9C118.788 166.65 118.179 166.283 117.934 165.827C117.569 165.149 118.166 164.575 118.944 164.369C119.786 164.147 120.815 164.211 121.822 164.319C124.501 164.606 127.333 165.702 130.002 166.555Z" fill="#4B0263"/>
</g>
<g opacity="0.09">
<path d="M161.045 32.4712C162.925 28.4525 165.49 24.7735 168.577 21.5901C171.664 18.4075 175.264 15.7246 179.202 13.6879C181.406 12.5482 183.717 11.6186 186.097 10.9143C186.328 10.8456 186.213 10.4879 185.981 10.5566C181.699 11.8238 177.644 13.8286 174.011 16.4227C170.378 19.0168 167.159 22.1967 164.539 25.8119C163.063 27.848 161.777 30.0178 160.713 32.2958C160.611 32.5141 160.943 32.6902 161.045 32.4712Z" fill="#4B0263"/>
<path d="M165.716 24.9065C164.398 21.4507 163.171 16.9571 163.144 12.8733C163.128 10.562 163.346 8.10936 164.321 5.88407C164.782 4.83104 165.477 3.78771 166.375 3.40574C167.707 2.83798 168.897 3.97836 169.361 5.39603C169.863 6.93085 169.802 8.76446 169.653 10.5523C169.253 15.3065 167.248 20.2382 165.716 24.9065Z" fill="#4B0263"/>
<path d="M174.416 16.395C173.936 13.5465 173.687 9.91738 174.291 6.78602C174.633 5.01342 175.176 3.16941 176.264 1.61448C176.778 0.878951 177.471 0.186409 178.217 0.0318174C179.324 -0.198337 180.06 0.85677 180.198 2.01378C180.347 3.26646 180.02 4.66125 179.631 6.00682C178.597 9.5867 176.306 13.0557 174.416 16.395Z" fill="#4B0263"/>
<path d="M175.82 15.3205C178.162 12.4574 181.451 9.15897 184.979 7.10352C186.977 5.94027 189.213 4.91012 191.628 4.64877C192.771 4.52537 194.022 4.60926 194.8 5.19781C195.955 6.07129 195.557 7.67059 194.558 8.77769C193.476 9.97699 191.855 10.8359 190.23 11.595C185.907 13.6151 180.631 14.3278 175.82 15.3205Z" fill="#4B0263"/>
<path d="M168.025 21.7661C170.917 20.6812 174.725 19.6504 178.29 19.5561C180.307 19.5027 182.47 19.6289 184.509 20.3464C185.473 20.6854 186.451 21.2074 186.872 21.8965C187.496 22.9204 186.615 23.8646 185.42 24.2493C184.127 24.6659 182.52 24.6514 180.944 24.5668C176.751 24.3422 172.25 22.8725 168.025 21.7661Z" fill="#4B0263"/>
<path d="M163.801 27.0743C165.656 26.3783 168.099 25.7176 170.385 25.6566C171.68 25.6226 173.067 25.7038 174.375 26.1634C174.993 26.3811 175.621 26.7152 175.891 27.1582C176.291 27.8154 175.726 28.4206 174.96 28.6673C174.131 28.9349 173.099 28.9252 172.089 28.8712C169.399 28.727 166.511 27.7842 163.801 27.0743Z" fill="#4B0263"/>
</g>
<path d="M60.641 51.5137C54.4843 53.0312 48.0892 53.4811 41.7766 52.9058C35.4661 52.3311 29.2498 50.7352 23.4488 48.1834C20.2017 46.7554 17.0932 45.0195 14.1733 43.0049C13.8891 42.8088 13.5944 43.258 13.8794 43.4549C19.1334 47.0798 25.0037 49.7897 31.1514 51.5013C37.2983 53.2129 43.7253 53.9387 50.0982 53.6059C53.6871 53.4188 57.2545 52.9009 60.7443 52.0406C61.0798 51.9581 60.9772 51.4305 60.641 51.5137Z" fill="#FEBB09"/>
<path d="M48.0345 53.1102C45.3745 57.68 41.4779 63.0776 36.9614 66.7753C34.4055 68.8682 31.4814 70.8266 28.131 71.741C26.5455 72.1736 24.7611 72.3365 23.5306 71.682C21.7033 70.7094 21.9029 68.3628 23.0634 66.5743C24.3202 64.6374 26.4138 63.0589 28.5365 61.6204C34.1815 57.7944 41.4668 55.5983 48.0345 53.1102Z" fill="#FEBB09"/>
<path d="M30.7569 51.075C28.0193 54.1661 24.2079 57.7023 20.1823 59.8409C17.9043 61.0513 15.3643 62.103 12.6593 62.2894C11.3788 62.3775 9.98751 62.2291 9.14523 61.5387C7.89463 60.5141 8.40763 58.7477 9.57019 57.556C10.8291 56.2659 12.6745 55.3779 14.5206 54.6021C19.4308 52.5384 25.3462 51.9727 30.7569 51.075Z" fill="#FEBB09"/>
<path d="M28.3015 50.4794C23.0142 50.4447 16.393 49.748 10.9387 47.669C7.85167 46.4926 4.69814 44.93 2.23853 42.478C1.07459 41.3182 0.0451286 39.8507 0.00145466 38.4573C-0.0637096 36.3879 2.07146 35.3938 4.20039 35.5117C6.50541 35.6386 8.91648 36.6694 11.2201 37.7959C17.3483 40.7914 22.8776 46.0191 28.3015 50.4794Z" fill="#FEBB09"/>
<path d="M42.4692 53.3619C38.6661 51.1193 34.1011 47.8098 30.7958 43.9297C28.9247 41.7342 27.123 39.2136 26.0908 36.3034C25.6021 34.9259 25.304 33.3696 25.6936 32.2833C26.2724 30.6702 28.113 30.8026 29.6131 31.7856C31.2374 32.849 32.6648 34.65 33.9854 36.4788C37.4994 41.3439 39.9063 47.669 42.4692 53.3619Z" fill="#FEBB09"/>
<path d="M52.1655 53.2939C49.726 51.8548 46.7977 49.7321 44.6771 47.2433C43.4771 45.8347 42.3208 44.2181 41.6588 42.3512C41.3454 41.468 41.1541 40.469 41.4036 39.7723C41.7752 38.7373 42.9558 38.8226 43.918 39.4527C44.96 40.1349 45.8757 41.2905 46.7229 42.4635C48.9773 45.5844 50.5211 49.6413 52.1655 53.2939Z" fill="#FEBB09"/>
<path opacity="0.09" d="M93.3111 15.4604L38.4331 100.286L148.19 99.3824L93.3111 15.4604Z" fill="#4B0263"/>
<path opacity="0.45" d="M97.9469 169.374C118.178 169.374 134.579 152.974 134.579 132.742C134.579 112.511 118.178 96.1102 97.9469 96.1102C77.7155 96.1102 61.3148 112.511 61.3148 132.742C61.3148 152.974 77.7155 169.374 97.9469 169.374Z" fill="#FFD96E"/>
<path opacity="0.45" d="M233.872 50.5653H132.356V145.085H233.872V50.5653Z" fill="#FFD96E"/>
<path d="M257.693 30.4011H172.663V109.571H257.693V30.4011Z" stroke="#02A2CB" stroke-width="0.693237" stroke-miterlimit="10"/>
<path d="M56.372 146.094H40.6528V161.813H56.372V146.094Z" fill="#1B1A1B"/>
<path d="M72.0918 146.094H56.3727V161.813H72.0918V146.094Z" fill="#FEBB09"/>
<path d="M87.8109 146.094H72.0918V161.813H87.8109V146.094Z" fill="#FF0B00"/>
<path d="M103.53 146.094H87.811V161.813H103.53V146.094Z" fill="#02A2CB"/>
<path d="M206.423 150.371C206.423 157.896 200.322 163.998 192.796 163.998C185.271 163.998 179.169 157.896 179.169 150.371C179.169 142.845 185.271 136.744 192.796 136.744C200.323 136.744 206.423 142.845 206.423 150.371Z" stroke="#FEBB09" stroke-width="0.693237" stroke-miterlimit="10"/>
<path d="M192.655 132.742C192.655 133.057 192.655 133.372 192.655 133.687C192.655 134.544 192.655 135.401 192.655 136.258C192.655 137.519 192.655 138.78 192.655 140.041C192.655 141.586 192.655 143.13 192.655 144.675C192.655 146.36 192.655 148.045 192.655 149.73C192.655 151.438 192.655 153.146 192.655 154.855C192.655 156.448 192.655 158.041 192.655 159.634C192.655 160.979 192.655 162.326 192.655 163.671C192.655 164.635 192.655 165.599 192.655 166.563C192.655 167.022 192.645 167.481 192.655 167.939C192.656 167.959 192.655 167.979 192.655 167.998C192.655 168.681 193.716 168.682 193.716 167.998C193.716 167.684 193.716 167.368 193.716 167.053C193.716 166.197 193.716 165.34 193.716 164.483C193.716 163.222 193.716 161.961 193.716 160.7C193.716 159.155 193.716 157.61 193.716 156.066C193.716 154.38 193.716 152.696 193.716 151.011C193.716 149.302 193.716 147.594 193.716 145.885C193.716 144.292 193.716 142.699 193.716 141.107C193.716 139.761 193.716 138.415 193.716 137.07C193.716 136.105 193.716 135.142 193.716 134.178C193.716 133.719 193.726 133.259 193.716 132.801C193.715 132.781 193.716 132.761 193.716 132.742C193.716 132.059 192.655 132.059 192.655 132.742Z" fill="#010305"/>
<path d="M210.814 149.84C210.499 149.84 210.184 149.84 209.869 149.84C209.013 149.84 208.156 149.84 207.299 149.84C206.038 149.84 204.777 149.84 203.516 149.84C201.971 149.84 200.426 149.84 198.882 149.84C197.196 149.84 195.512 149.84 193.826 149.84C192.118 149.84 190.41 149.84 188.701 149.84C187.108 149.84 185.515 149.84 183.923 149.84C182.577 149.84 181.231 149.84 179.885 149.84C178.921 149.84 177.958 149.84 176.994 149.84C176.535 149.84 176.075 149.831 175.616 149.84C175.597 149.841 175.577 149.84 175.558 149.84C174.875 149.84 174.873 150.902 175.558 150.902C175.872 150.902 176.187 150.902 176.502 150.902C177.359 150.902 178.216 150.902 179.073 150.902C180.334 150.902 181.595 150.902 182.856 150.902C184.4 150.902 185.946 150.902 187.49 150.902C189.176 150.902 190.86 150.902 192.545 150.902C194.253 150.902 195.962 150.902 197.67 150.902C199.263 150.902 200.857 150.902 202.449 150.902C203.794 150.902 205.141 150.902 206.486 150.902C207.45 150.902 208.414 150.902 209.378 150.902C209.837 150.902 210.296 150.911 210.755 150.902C210.775 150.901 210.795 150.902 210.814 150.902C211.497 150.902 211.498 149.84 210.814 149.84Z" fill="#010305"/>
<path d="M29.8688 123.274C24.8082 123.274 20.6918 119.157 20.6918 114.096C20.6918 109.036 24.8089 104.919 29.8688 104.919C34.9288 104.919 39.0459 109.036 39.0459 114.096C39.0459 119.156 34.9295 123.274 29.8688 123.274ZM29.8688 105.374C25.0592 105.374 21.1465 109.287 21.1465 114.096C21.1465 118.905 25.0592 122.818 29.8688 122.818C34.6778 122.818 38.5905 118.905 38.5905 114.096C38.5912 109.287 34.6785 105.374 29.8688 105.374Z" fill="#FF0B00"/>
<path d="M29.776 102.519C29.776 102.725 29.776 102.933 29.776 103.139C29.776 103.702 29.776 104.265 29.776 104.827C29.776 105.656 29.776 106.483 29.776 107.312C29.776 108.327 29.776 109.341 29.776 110.356C29.776 111.462 29.776 112.569 29.776 113.676C29.776 114.797 29.776 115.92 29.776 117.041C29.776 118.087 29.776 119.133 29.776 120.18C29.776 121.063 29.776 121.947 29.776 122.831C29.776 123.464 29.776 124.097 29.776 124.731C29.776 125.032 29.7697 125.334 29.776 125.635C29.776 125.649 29.776 125.661 29.776 125.674C29.776 126.123 30.4727 126.123 30.4727 125.674C30.4727 125.468 30.4727 125.26 30.4727 125.054C30.4727 124.491 30.4727 123.928 30.4727 123.366C30.4727 122.537 30.4727 121.71 30.4727 120.881C30.4727 119.866 30.4727 118.852 30.4727 117.837C30.4727 116.731 30.4727 115.624 30.4727 114.517C30.4727 113.396 30.4727 112.273 30.4727 111.152C30.4727 110.105 30.4727 109.059 30.4727 108.013C30.4727 107.129 30.4727 106.246 30.4727 105.362C30.4727 104.729 30.4727 104.096 30.4727 103.462C30.4727 103.161 30.4789 102.859 30.4727 102.557C30.4727 102.544 30.4727 102.532 30.4727 102.519C30.4727 102.07 29.776 102.069 29.776 102.519Z" fill="#010305"/>
<path d="M41.7018 113.748C41.4952 113.748 41.2879 113.748 41.0813 113.748C40.5184 113.748 39.9555 113.748 39.3933 113.748C38.5649 113.748 37.7371 113.748 36.9087 113.748C35.8938 113.748 34.8796 113.748 33.8647 113.748C32.7583 113.748 31.6512 113.748 30.5448 113.748C29.4231 113.748 28.3008 113.748 27.1791 113.748C26.133 113.748 25.0869 113.748 24.0408 113.748C23.157 113.748 22.2731 113.748 21.3892 113.748C20.7563 113.748 20.1234 113.748 19.4897 113.748C19.1882 113.748 18.8866 113.742 18.5851 113.748C18.5719 113.748 18.5594 113.748 18.5462 113.748C18.0977 113.748 18.097 114.445 18.5462 114.445C18.7528 114.445 18.9601 114.445 19.1667 114.445C19.7296 114.445 20.2925 114.445 20.8547 114.445C21.6831 114.445 22.5109 114.445 23.3393 114.445C24.3542 114.445 25.3684 114.445 26.3833 114.445C27.4897 114.445 28.5968 114.445 29.7032 114.445C30.8249 114.445 31.9472 114.445 33.0689 114.445C34.115 114.445 35.1611 114.445 36.2072 114.445C37.091 114.445 37.9749 114.445 38.8588 114.445C39.4917 114.445 40.1246 114.445 40.7583 114.445C41.0591 114.445 41.3614 114.451 41.6629 114.445C41.6761 114.445 41.6886 114.445 41.7018 114.445C42.1503 114.445 42.151 113.748 41.7018 113.748Z" fill="#010305"/>
<path d="M207.245 21.5943H229.01C230.477 21.5943 231.733 22.6446 231.993 24.0879L233.597 33.0105C234.495 38.0074 238.843 41.6434 243.92 41.6434L242.978 20.6862C242.804 16.8131 239.613 13.7628 235.737 13.7628H207.424H192.387H164.462C160.369 13.7628 157 16.9836 156.816 21.073L155.891 41.6427C160.969 41.6427 165.318 38.006 166.216 33.0085L167.899 23.6456C168.113 22.4581 169.147 21.5936 170.353 21.5936H192.563C192.84 35.1568 192.857 48.79 192.857 62.3185V70.1507C192.857 83.8449 192.841 97.413 192.569 110.71L182.64 111.773C179.097 112.153 176.41 115.143 176.41 118.706H192.387H207.424H223.401C223.401 115.143 220.714 112.153 217.171 111.773L207.245 110.71C206.972 97.2001 206.955 83.6224 206.955 70.15V62.3178C206.954 48.5689 206.97 34.9447 207.245 21.5943Z" fill="#FF0B00"/>
<path d="M92.5376 138.108H56.6417C56.3485 138.108 56.1246 137.847 56.169 137.558L58.2473 124.062C58.2833 123.829 58.4837 123.656 58.7194 123.656H89.1941C89.4215 123.656 89.6169 123.816 89.6627 124.039L92.5376 138.108Z" stroke="#4B0263" stroke-width="1.38647" stroke-miterlimit="10"/>
<path d="M106.225 76.1555L77.5657 28.761C77.1172 28.0192 75.9768 28.3374 75.9768 29.2039V71.4741C77.7487 71.9808 79.0471 73.6099 79.0471 75.5448C79.0471 77.8851 77.1497 79.7818 74.8101 79.7818C72.4697 79.7818 70.573 77.8844 70.573 75.5448C70.573 73.5732 71.9213 71.9212 73.7452 71.4477V29.0743C73.7452 28.2202 72.6319 27.8923 72.1688 28.6105L41.2865 76.5313C41.1347 76.7663 41.1076 77.0609 41.2137 77.3201L58.0982 118.488C58.2299 118.81 58.5432 119.02 58.8906 119.02H88.9798C89.3306 119.02 89.646 118.806 89.7757 118.48L106.288 76.9146C106.386 76.6657 106.363 76.385 106.225 76.1555Z" stroke="#4B0263" stroke-width="1.38647" stroke-miterlimit="10"/>
<path d="M28.6724 25.9513C28.6724 25.9513 69.8409 -15.2166 121.301 25.9513" stroke="#4B0263" stroke-width="1.38647" stroke-miterlimit="10"/>
<path d="M30.124 27.0043C30.124 28.4899 28.9199 29.6941 27.4343 29.6941C25.9487 29.6941 24.7445 28.4899 24.7445 27.0043C24.7445 25.5187 25.9487 24.3146 27.4343 24.3146C28.9199 24.3146 30.124 25.5187 30.124 27.0043Z" fill="#4B0263"/>
<path d="M121.301 29.6941C122.787 29.6941 123.991 28.4899 123.991 27.0043C123.991 25.5188 122.787 24.3146 121.301 24.3146C119.816 24.3146 118.612 25.5188 118.612 27.0043C118.612 28.4899 119.816 29.6941 121.301 29.6941Z" fill="#4B0263"/>
<path d="M77.2627 5.37878H72.7109V9.93058H77.2627V5.37878Z" fill="#4B0263"/>
<path d="M42.98 181.873C59.4478 195.047 74.1569 194.362 83.5954 191.466C93.8463 188.321 100.29 181.968 100.354 181.904L100.967 182.517C100.902 182.583 94.3308 189.07 83.8858 192.284C74.2387 195.252 59.217 195.972 42.4379 182.549L42.98 181.873Z" fill="#02A2CB"/>
<path d="M99.752 181.552C99.752 180.623 100.505 179.869 101.435 179.869C102.365 179.869 103.118 180.623 103.118 181.552C103.118 182.482 102.365 183.236 101.435 183.236C100.505 183.236 99.752 182.482 99.752 181.552Z" fill="#02A2CB"/>
<path d="M41.0265 181.552C41.0265 180.623 41.78 179.869 42.7097 179.869C43.6393 179.869 44.3928 180.623 44.3928 181.552C44.3928 182.482 43.6393 183.236 42.7097 183.236C41.78 183.236 41.0265 182.482 41.0265 181.552Z" fill="#02A2CB"/>
<path d="M70.2612 195.083H73.109V192.235H70.2612V195.083Z" fill="#02A2CB"/>
<path d="M266.261 72.846C255.202 63.9989 245.324 64.4585 238.986 66.4038C232.102 68.5154 227.775 72.7822 227.732 72.8245L227.32 72.4127C227.364 72.3691 231.776 68.0128 238.791 65.854C245.269 63.8603 255.357 63.3771 266.625 72.3912L266.261 72.846Z" fill="#02A2CB"/>
<path d="M227.006 74.1909C227.63 74.1909 228.136 73.6849 228.136 73.0609C228.136 72.4368 227.63 71.9309 227.006 71.9309C226.382 71.9309 225.876 72.4368 225.876 73.0609C225.876 73.6849 226.382 74.1909 227.006 74.1909Z" fill="#02A2CB"/>
<path d="M266.444 74.1909C267.068 74.1909 267.574 73.6849 267.574 73.0609C267.574 72.4368 267.068 71.9309 266.444 71.9309C265.82 71.9309 265.314 72.4368 265.314 73.0609C265.314 73.6849 265.82 74.1909 266.444 74.1909Z" fill="#02A2CB"/>
<path d="M247.94 63.9753H246.028V65.888H247.94V63.9753Z" fill="#02A2CB"/>
<path d="M131.173 73.1906L121.733 75.1213C121.656 75.1372 121.583 75.0804 121.579 75.002L121.4 71.341C121.396 71.278 121.44 71.2218 121.502 71.2093L129.517 69.5698C129.576 69.5574 129.637 69.5892 129.66 69.6454L131.173 73.1906Z" fill="#4B0263"/>
<path d="M131.44 56.1626L121.354 45.24C121.196 45.0688 120.913 45.2136 120.96 45.4417L123.234 56.5578C123.728 56.5959 124.157 56.9543 124.261 57.4631C124.387 58.0787 123.99 58.6798 123.374 58.8052C122.758 58.9314 122.157 58.5342 122.032 57.9186C121.926 57.4 122.191 56.8933 122.645 56.6708L120.366 45.527C120.32 45.3024 120.01 45.276 119.927 45.4895L114.383 59.7529C114.356 59.8229 114.364 59.9019 114.406 59.9643L121.061 69.8825C121.113 69.9601 121.207 69.9982 121.299 69.9795L129.212 68.3608C129.304 68.3421 129.375 68.2686 129.392 68.1757L131.499 56.3567C131.51 56.2881 131.489 56.2153 131.44 56.1626Z" fill="#4B0263"/>
<path d="M131.142 73.042L121.578 74.9983L131.315 122.6L140.879 120.643L131.142 73.042Z" fill="#F60034"/>
<path d="M145.448 59.5129L135.69 59.7736L136.987 108.342L146.746 108.081L145.448 59.5129Z" fill="#FEB604"/>
<path d="M145.456 59.6725L135.824 59.9297C135.746 59.9317 135.683 59.8631 135.694 59.7855L136.155 56.1494C136.163 56.0864 136.215 56.0392 136.279 56.0371L144.456 55.8188C144.517 55.8174 144.571 55.859 144.584 55.9179L145.456 59.6725Z" stroke="#4B0263" stroke-width="0.693237" stroke-miterlimit="10"/>
<path d="M148.685 42.9502L140.655 30.438C140.53 30.2418 140.226 30.3354 140.232 30.5683L140.534 41.9103C141.014 42.0337 141.374 42.4615 141.388 42.9807C141.404 43.6088 140.909 44.1315 140.281 44.1481C139.653 44.1647 139.131 43.6691 139.114 43.0417C139.1 42.5128 139.45 42.0594 139.936 41.9193L139.633 30.5496C139.626 30.3201 139.325 30.2404 139.206 30.4366L131.262 43.5166C131.224 43.581 131.218 43.6601 131.249 43.7287L136.074 54.6548C136.112 54.7401 136.198 54.7942 136.29 54.7914L144.365 54.5758C144.459 54.573 144.542 54.5134 144.574 54.4253L148.707 43.154C148.732 43.0861 148.724 43.0112 148.685 42.9502Z" stroke="#4B0263" stroke-width="0.693237" stroke-miterlimit="10"/>
<path d="M162.055 72.5702L152.558 70.216L153.533 66.2361L162.952 68.6832L162.055 72.5702Z" fill="#4B0263"/>
<path d="M162.087 72.4228L152.612 70.074L140.922 117.233L150.397 119.582L162.087 72.4228Z" fill="#F60034"/>
<path d="M162.882 67.19L164.591 59.7571L161.92 50.5654L155.944 57.6288L154.122 65.0104L162.882 67.19Z" stroke="#4B0263" stroke-width="0.693237" stroke-miterlimit="10"/>
<path d="M158.464 54.6118L163.418 55.7189" stroke="#4B0263" stroke-width="0.693237" stroke-miterlimit="10"/>
<path d="M145.492 168.906H134.967C125.601 168.906 118.01 161.314 118.01 151.949V106.394C118.01 105.133 119.032 104.11 120.293 104.11H160.76C162.04 104.11 163.077 105.147 163.077 106.427V151.321C163.078 161.033 155.205 168.906 145.492 168.906Z" fill="#4B0263"/>
<path opacity="0.2" d="M163.078 111.087H118.01V117.106H163.078V111.087Z" fill="#FDF6E6"/>
<path opacity="0.2" d="M163.078 121.106H118.01V127.126H163.078V121.106Z" fill="#FDF6E6"/>
<path d="M247.099 97.8254V194.006" stroke="#4B0263" stroke-width="1.38647" stroke-miterlimit="10"/>
<path d="M259.219 183.35H126.286" stroke="#4B0263" stroke-width="1.38647" stroke-miterlimit="10"/>
<path d="M224.288 177.024L223.498 174.706C222.977 173.179 221.777 171.98 220.25 171.458L217.932 170.668L220.293 169.807C221.749 169.276 222.896 168.129 223.427 166.673L224.288 164.312L224.891 166.208C225.475 168.043 226.913 169.481 228.748 170.066L230.644 170.669L228.695 171.437C227.03 172.093 225.859 172.623 225.056 175.076L224.288 177.024Z" fill="#4B0263"/>
<path d="M264.433 122.576L263.916 121.058C263.574 120.057 262.788 119.271 261.788 118.93L260.27 118.412L261.816 117.848C262.77 117.5 263.522 116.749 263.87 115.795L264.434 114.249L264.829 115.49C265.212 116.692 266.153 117.635 267.356 118.017L268.598 118.412L267.321 118.916C266.23 119.345 265.463 119.693 264.937 121.299L264.433 122.576Z" fill="#FCB610"/>
<path d="M206.559 179.285C204.777 179.285 203.327 177.835 203.327 176.052C203.327 174.27 204.777 172.82 206.559 172.82C208.341 172.82 209.792 174.27 209.792 176.052C209.792 177.835 208.341 179.285 206.559 179.285ZM206.559 173.79C205.312 173.79 204.297 174.805 204.297 176.052C204.297 177.299 205.312 178.314 206.559 178.314C207.806 178.314 208.821 177.299 208.821 176.052C208.821 174.805 207.806 173.79 206.559 173.79Z" fill="#FCB610"/>
<path d="M268.573 103.14C267.786 103.14 267.146 102.501 267.146 101.713C267.146 100.926 267.785 100.286 268.573 100.286C269.36 100.286 270 100.926 270 101.713C270 102.501 269.36 103.14 268.573 103.14ZM268.573 100.715C268.022 100.715 267.574 101.163 267.574 101.714C267.574 102.264 268.022 102.713 268.573 102.713C269.123 102.713 269.572 102.265 269.572 101.714C269.571 101.163 269.123 100.715 268.573 100.715Z" fill="#FCB610"/>
<path d="M168.74 171.331C167.953 171.331 167.313 170.691 167.313 169.904C167.313 169.117 167.953 168.477 168.74 168.477C169.528 168.477 170.168 169.117 170.168 169.904C170.168 170.691 169.527 171.331 168.74 171.331ZM168.74 168.905C168.19 168.905 167.741 169.353 167.741 169.904C167.741 170.454 168.189 170.902 168.74 170.902C169.291 170.902 169.739 170.454 169.739 169.904C169.739 169.354 169.291 168.905 168.74 168.905Z" fill="#FCB610"/>
<path d="M131.501 16.2861L130.711 13.9686C130.19 12.4414 128.99 11.2421 127.463 10.7208L125.145 9.93051L127.506 9.06951C128.962 8.53849 130.109 7.39118 130.64 5.93538L131.501 3.57422L132.104 5.47022C132.688 7.30522 134.126 8.74299 135.961 9.32739L137.857 9.93051L135.908 10.6986C134.243 11.3551 133.072 11.8847 132.269 14.3374L131.501 16.2861Z" fill="#FCB610"/>
<path d="M14.791 84.6247L14.0007 82.3072C13.4801 80.78 12.2801 79.58 10.7529 79.0594L8.43469 78.2691L10.7959 77.4081C12.2517 76.8771 13.399 75.7298 13.93 74.274L14.791 71.9128L15.3941 73.8088C15.9778 75.6438 17.4163 77.0816 19.2513 77.666L21.1473 78.2691L19.1979 79.0372C17.5334 79.693 16.3619 80.2234 15.5591 82.676L14.791 84.6247Z" fill="#FF0B00"/>
<path d="M57.7232 178.807L57.1693 177.183C56.8047 176.113 55.9645 175.273 54.8948 174.908L53.2712 174.355L54.9246 173.751C55.9444 173.38 56.7478 172.576 57.1194 171.557L57.7225 169.903L58.1447 171.231C58.5537 172.516 59.5603 173.523 60.8455 173.932L62.1731 174.355L60.8081 174.893C59.6421 175.352 58.822 175.723 58.2598 177.441L57.7232 178.807Z" fill="#4B0263"/>
<path d="M146.151 24.3145C144.369 24.3145 142.919 22.8642 142.919 21.0819C142.919 19.2996 144.369 17.8494 146.151 17.8494C147.933 17.8494 149.384 19.2996 149.384 21.0819C149.384 22.8642 147.933 24.3145 146.151 24.3145ZM146.151 18.8192C144.904 18.8192 143.889 19.8341 143.889 21.0812C143.889 22.3284 144.904 23.3433 146.151 23.3433C147.398 23.3433 148.413 22.3284 148.413 21.0812C148.413 19.8341 147.398 18.8192 146.151 18.8192Z" fill="#FCB610"/>
<path d="M27.4342 149.327C25.6519 149.327 24.2017 147.876 24.2017 146.094C24.2017 144.312 25.6519 142.862 27.4342 142.862C29.2165 142.862 30.6668 144.312 30.6668 146.094C30.6668 147.877 29.2165 149.327 27.4342 149.327ZM27.4342 143.832C26.1871 143.832 25.1722 144.847 25.1722 146.094C25.1722 147.341 26.1871 148.356 27.4342 148.356C28.6814 148.356 29.6963 147.341 29.6963 146.094C29.6963 144.847 28.6814 143.832 27.4342 143.832Z" fill="#FCB610"/>
<path d="M70.261 172.955C69.4742 172.955 68.8336 172.315 68.8336 171.528C68.8336 170.741 69.4735 170.1 70.261 170.1C71.0478 170.1 71.6884 170.741 71.6884 171.528C71.6884 172.315 71.0478 172.955 70.261 172.955ZM70.261 170.529C69.7106 170.529 69.262 170.977 69.262 171.528C69.262 172.079 69.7099 172.527 70.261 172.527C70.8114 172.527 71.2599 172.079 71.2599 171.528C71.2599 170.977 70.8121 170.529 70.261 170.529Z" fill="#FCB610"/>
<path d="M55.1085 29.8583C54.3217 29.8583 53.6812 29.2184 53.6812 28.4309C53.6812 27.6441 54.3217 27.0035 55.1085 27.0035C55.8954 27.0035 56.5359 27.6441 56.5359 28.4309C56.5352 29.2177 55.8954 29.8583 55.1085 29.8583ZM55.1085 27.4326C54.5581 27.4326 54.1096 27.8805 54.1096 28.4316C54.1096 28.982 54.5574 29.4306 55.1085 29.4306C55.659 29.4306 56.1075 28.9827 56.1075 28.4316C56.1068 27.8805 55.659 27.4326 55.1085 27.4326Z" fill="#FCB610"/>
<path d="M148.19 6.80535C147.403 6.80535 146.763 6.16549 146.763 5.37867C146.763 4.59184 147.402 3.95129 148.19 3.95129C148.977 3.95129 149.617 4.59184 149.617 5.37867C149.617 6.16549 148.977 6.80535 148.19 6.80535ZM148.19 4.37971C147.64 4.37971 147.191 4.82754 147.191 5.37867C147.191 5.9291 147.639 6.37693 148.19 6.37693C148.74 6.37693 149.189 5.9291 149.189 5.37867C149.189 4.82754 148.741 4.37971 148.19 4.37971Z" fill="#FCB610"/>
<path d="M25.679 95.4351C23.8967 95.4351 22.4464 93.9848 22.4464 92.2025C22.4464 90.4202 23.8967 88.97 25.679 88.97C27.4613 88.97 28.9115 90.4202 28.9115 92.2025C28.9115 93.9848 27.4613 95.4351 25.679 95.4351ZM25.679 89.9405C24.4318 89.9405 23.4169 90.9554 23.4169 92.2025C23.4169 93.4497 24.4318 94.4646 25.679 94.4646C26.9261 94.4646 27.941 93.4497 27.941 92.2025C27.941 90.9554 26.9268 89.9405 25.679 89.9405Z" fill="#FCB610"/>
</svg>
