<svg width="162" height="192" viewBox="0 0 162 192" fill="none" xmlns="http://www.w3.org/2000/svg">
<path d="M81.7061 3.26407C79.3071 1.22971 75.7029 1.05345 71.8115 2.4135C67.9212 3.77427 63.7433 6.67383 60.1986 10.7897C53.1165 19.016 51.2563 28.9973 56.0439 33.0796L58.7366 35.4108C53.9486 31.3285 55.8088 21.3472 62.8916 13.1187C66.4348 9.00468 70.6138 6.10547 74.5042 4.74507C78.3959 3.38252 81.9994 3.56127 84.3984 5.59563L81.7061 3.26407Z" fill="#85CCC6"/>
<path d="M74.5041 4.74488C78.3959 3.38233 81.9994 3.56108 84.3984 5.59545C89.1861 9.67132 87.3261 19.653 80.2433 27.8875C76.6983 32.0033 72.5215 34.9011 68.6294 36.2633C64.7387 37.6241 61.1338 37.4471 58.7365 35.4109C53.9485 31.3287 55.8088 21.3473 62.8916 13.1189C66.4345 9.00485 70.6134 6.10565 74.5041 4.74488Z" fill="#4C7571"/>
<path d="M61.9137 11.5051C66.3167 6.38809 71.5107 2.78211 76.3508 1.08918C81.1874 -0.602321 85.67 -0.381474 88.6455 2.1556L132.662 40.4554C129.684 37.9183 125.203 37.6953 120.365 39.3886C115.527 41.0819 110.332 44.6879 105.93 49.8052C97.1162 60.0441 94.8043 72.4469 100.764 77.5178L56.7482 39.2198C50.7889 34.1471 53.1005 21.7436 61.9137 11.5051Z" fill="#185D7C"/>
<path d="M120.366 39.3884C115.527 41.0817 110.332 44.6876 105.931 49.805C97.1167 60.0439 94.8048 72.4467 100.764 77.5176C103.742 80.0522 108.223 80.2716 113.062 78.5805C117.9 76.8868 123.096 73.2812 127.497 68.1678C136.309 57.9264 138.621 45.5257 132.662 40.4552C129.684 37.9181 125.204 37.6951 120.366 39.3884Z" fill="#144F69"/>
<path d="M120.709 45.8748C124.521 44.5405 127.667 44.9476 129.668 46.679L153.641 67.7052C151.64 65.9741 148.492 65.567 144.682 66.8992C137.098 69.5533 129.77 78.074 128.305 85.9267C127.579 89.8274 128.435 92.829 130.41 94.5402L106.438 73.514C104.463 71.8028 103.606 68.8009 104.334 64.9005C105.796 57.0478 113.125 48.5271 120.709 45.8748Z" fill="#133D63"/>
<path d="M118.23 46.9626C115.845 48.1982 113.549 49.9518 111.525 52.0279L135.294 73.2589C137.288 71.1767 139.558 69.3963 141.923 68.1269L118.23 46.9626Z" fill="#689BC1"/>
<path d="M71.7628 3.23584C68.3534 5.19528 64.9468 7.98032 61.9142 11.505C61.4214 12.078 60.9562 12.6588 60.5049 13.2443L104.823 51.1712C105.184 50.7142 105.543 50.2546 105.93 49.8047C109.092 46.1288 112.664 43.2489 116.219 41.2801L71.7628 3.23584Z" fill="#689BC1"/>
<path opacity="0.2" d="M133.163 152.038C133.166 152.04 133.169 152.041 133.171 152.044C133.163 152.037 133.156 152.031 133.148 152.024C133.146 152.022 133.144 152.02 133.141 152.018C127.619 147.236 127.814 147.323 127.085 146.915C126.287 146.467 125.427 146.228 124.529 146.167L116.085 138.761C116.674 135.241 115.992 132.186 113.885 130.393L81.8623 102.529C79.6974 100.683 76.4364 100.523 72.9178 101.753C72.5671 101.876 72.2135 102.016 71.8582 102.167C71.1346 102.266 70.3832 102.449 69.6151 102.717C66.7847 103.707 63.7453 105.816 61.1665 108.811C59.009 111.317 57.5206 114.047 56.7717 116.592L44.8249 120.771L43.4605 119.583C41.2952 117.739 38.0342 117.576 34.5157 118.807C34.2256 118.909 33.9341 119.023 33.6412 119.143C32.7303 119.205 31.7667 119.411 30.7759 119.758C27.9452 120.747 24.9065 122.857 22.3269 125.852C18.1305 130.727 16.455 136.448 17.86 140.007C17.7526 142.746 18.5211 145.075 20.254 146.55L52.2762 174.412C54.3127 176.144 57.3158 176.389 60.5935 175.389L70.0297 183.665C70.3422 184.497 70.8421 185.242 71.561 185.865L76.8724 190.462C76.8249 190.42 76.781 190.376 76.735 190.333C78.2688 191.773 80.7524 192.14 83.7843 191.08C89.6234 189.038 95.2709 182.472 96.399 176.42C96.9602 173.406 96.2956 171.086 94.766 169.768C94.7689 169.771 94.7717 169.772 94.7742 169.775C94.7664 169.768 94.7585 169.761 94.7503 169.754C94.7486 169.752 94.7471 169.751 94.7453 169.749C91.9485 167.327 90.6192 166.155 89.8924 165.534C91.2139 164.994 92.4769 164.385 93.6575 163.699C96.2435 162.195 98.2118 160.469 99.579 158.629L108.787 166.705C109.084 167.23 109.47 167.71 109.958 168.133L115.27 172.73C115.227 172.694 115.188 172.653 115.146 172.615C116.681 174.044 119.159 174.406 122.181 173.349C128.021 171.307 133.668 164.741 134.796 158.69C135.357 155.675 134.692 153.356 133.163 152.038ZM130.665 150.905C131.05 150.968 131.42 151.069 131.772 151.208C131.426 151.073 131.056 150.97 130.665 150.905Z" fill="black"/>
<path d="M87.4637 138.793L87.286 145.951C87.2775 149.383 85.0272 152.798 80.5364 155.41C71.4731 160.679 56.7495 160.679 47.6469 155.418C43.0583 152.773 40.7667 149.294 40.7749 145.821L40.9526 138.662C40.9401 142.133 43.2356 145.614 47.8246 148.26C56.9271 153.521 71.6508 153.521 80.7137 148.251C85.2053 145.637 87.4551 142.222 87.4637 138.793Z" fill="#4E4E4E"/>
<path d="M80.6001 129.212C89.7048 134.462 89.7522 142.992 80.7135 148.251C71.6506 153.521 56.9269 153.521 47.8244 148.259C38.7047 142.992 38.6551 134.462 47.7145 129.195C56.7614 123.943 71.4815 123.943 80.6001 129.212Z" fill="#3D3B3B"/>
<path d="M74.642 117.014L74.5617 136.978C74.5582 138.525 73.5438 140.065 71.5195 141.242C67.434 143.617 60.7971 143.617 56.6938 141.246C54.6255 140.053 53.5926 138.485 53.5962 136.919L53.6765 116.956C53.6704 118.52 54.7054 120.09 56.7737 121.282C60.877 123.653 67.5139 123.653 71.5994 121.278C73.6241 120.1 74.6381 118.56 74.642 117.014Z" fill="#4E4E4E"/>
<path d="M71.5481 112.696C75.6521 115.063 75.6739 118.907 71.5995 121.278C67.514 123.654 60.8771 123.654 56.7738 121.282C52.6633 118.907 52.6408 115.063 56.7245 112.688C60.8025 110.32 67.4376 110.32 71.5481 112.696Z" fill="#3D3B3B"/>
<path d="M70.8301 48.6575L70.7648 113.95C70.7609 114.935 70.1151 115.916 68.8243 116.667C66.223 118.178 61.9934 118.182 59.3781 116.671C58.062 115.909 57.4048 114.914 57.4087 113.917L57.4704 48.625C57.4683 49.6208 58.1269 50.6169 59.4406 51.379C62.0594 52.8896 66.2847 52.8857 68.886 51.3754C70.1804 50.6244 70.8258 49.6425 70.8301 48.6575Z" fill="#5B5B5B"/>
<path d="M68.8566 45.9034C71.4754 47.4176 71.4903 49.8609 68.8851 51.375C66.2842 52.8853 62.0588 52.8892 59.4397 51.3786C56.8238 49.8644 56.8156 47.4173 59.4158 45.9031C62.0167 44.3939 66.2378 44.3939 68.8566 45.9034Z" fill="#4E4E4E"/>
<path d="M144.682 66.8994C137.098 69.5535 129.77 78.0741 128.305 85.9269C126.842 93.7775 131.796 97.9961 139.381 95.342C146.958 92.6932 154.286 84.1787 155.748 76.3255C157.212 68.4746 152.259 64.2503 144.682 66.8994Z" fill="#0B243A"/>
<path d="M150.805 63.1653C151.81 63.7269 151.537 63.6055 159.171 70.2153C151.98 63.9698 134.852 76.0494 132.332 89.5179C131.562 93.6526 132.47 96.8383 134.564 98.65L127.263 92.3311C116.995 83.4404 138.921 56.491 150.805 63.1653Z" fill="#092B3A"/>
<path d="M149.681 69.3634C141.644 72.1751 133.884 81.1974 132.333 89.5183C130.782 97.8388 136.028 102.312 144.065 99.5003C152.091 96.6932 159.853 87.6684 161.404 79.3504C162.954 71.0292 157.709 66.5544 149.681 69.3634Z" fill="#2D4F5B"/>
<path d="M149.259 73.4148C143.236 75.5194 137.411 82.2886 136.247 88.5312C135.084 94.7738 139.023 98.1269 145.046 96.0194C151.069 93.9119 156.883 87.1473 158.046 80.905C159.21 74.6621 155.282 71.3069 149.259 73.4148Z" fill="#6EAFA4"/>
<path d="M136.248 88.5309C137.187 83.4878 141.172 78.1029 145.844 75.1098C146.358 74.8622 146.875 74.6325 147.396 74.4509C153.418 72.343 157.347 75.6985 156.183 81.9408C155.243 86.986 151.264 92.3684 146.595 95.3611C146.081 95.6087 145.566 95.8371 145.046 96.0187C139.023 98.1265 135.084 94.7735 136.248 88.5309Z" fill="#9CDBD2"/>
<g opacity="0.42">
<path d="M146.618 76.6987C143.448 77.8069 140.383 81.3686 139.771 84.6524C139.159 87.9363 141.233 89.7009 144.402 88.5924C147.57 87.4839 150.63 83.925 151.242 80.639C151.854 77.3555 149.787 75.5898 146.618 76.6987Z" fill="white"/>
</g>
<path d="M28.3191 26.6869C25.9205 24.6526 22.3162 24.4763 18.4248 25.8364C14.5341 27.1968 10.3569 30.0967 6.8116 34.2125C-0.270863 42.4388 -2.13112 52.4201 2.65724 56.5024L5.34987 58.8333C0.561865 54.7513 2.42212 44.77 9.50459 36.5412C13.0481 32.4275 17.2268 29.5283 21.1171 28.1676C25.0092 26.805 28.6127 26.9838 31.0121 29.0181L28.3191 26.6869Z" fill="#85CCC6"/>
<path d="M21.1166 28.1675C25.0087 26.8049 28.6122 26.9837 31.0116 29.0181C35.7992 33.0939 33.9393 43.0752 26.8565 51.3101C23.3112 55.4259 19.1343 58.3234 15.2422 59.6859C11.3515 61.0467 7.74693 60.8697 5.34936 58.8332C0.56135 54.7513 2.42161 44.77 9.50408 36.5411C13.0476 32.4275 17.2263 29.5283 21.1166 28.1675Z" fill="#4C7571"/>
<path d="M9.12794 34.9482C13.5313 29.8316 18.7254 26.2235 23.5655 24.5302C28.4023 22.8384 32.8842 23.0621 35.8605 25.5963L79.8763 63.8961C76.8986 61.3593 72.4174 61.1381 67.5794 62.8296C62.7411 64.5233 57.5457 68.1307 53.1441 73.248C44.3308 83.4848 42.0185 95.8879 47.9782 100.961L3.96282 62.663C-1.99686 57.5903 0.314728 45.1872 9.12794 34.9482Z" fill="#185D7C"/>
<path d="M67.5789 62.8301C62.7406 64.5237 57.5452 68.1311 53.1436 73.2484C44.3304 83.4852 42.0181 95.8883 47.9777 100.961C50.9551 103.494 55.4366 103.715 60.2756 102.021C65.1125 100.33 70.309 96.7243 74.7099 91.6087C83.5224 81.3698 85.8347 68.967 79.8758 63.8965C76.8984 61.3594 72.4169 61.1382 67.5789 62.8301Z" fill="#144F69"/>
<path d="M68.0317 69.7098C71.8432 68.3758 74.9901 68.7829 76.9909 70.5136L100.964 91.5402C98.9633 89.8087 95.8154 89.4016 92.005 90.7342C84.4209 93.3883 77.0922 101.909 75.6283 109.762C74.9019 113.662 75.7578 116.664 77.7323 118.375L53.7608 97.3489C51.7857 95.6378 50.9287 92.6359 51.6566 88.7359C53.119 80.8831 60.4484 72.3625 68.0317 69.7098Z" fill="#133D63"/>
<path d="M65.707 70.7222C63.309 71.9377 61.0017 73.681 58.9609 75.7492L82.7272 96.9798C84.738 94.9005 87.0229 93.1362 89.4005 91.8843L65.707 70.7222Z" fill="#689BC1"/>
<path d="M19.649 26.2898C16.0177 28.2596 12.3593 31.1927 9.12753 34.9485C8.79679 35.3331 8.49281 35.727 8.1792 36.117L52.4972 74.0439C52.7144 73.7792 52.9185 73.5091 53.144 73.2483C56.5106 69.3355 60.3399 66.3132 64.1193 64.3477L19.649 26.2898Z" fill="#689BC1"/>
<path d="M92.005 90.7345C84.4209 93.3886 77.0923 101.909 75.6284 109.762C74.1645 117.613 79.1191 121.831 86.704 119.177C94.2802 116.528 101.608 108.013 103.071 100.16C104.534 92.3097 99.5816 88.085 92.005 90.7345Z" fill="#0B243A"/>
<path d="M98.027 87.537C99.0321 88.0986 98.7588 87.9773 106.393 94.587C99.2019 88.3412 82.0743 100.421 79.5536 113.89C78.7837 118.025 79.6917 121.21 81.7856 123.022L74.4848 116.703C64.2163 107.812 86.1426 80.8631 98.027 87.537Z" fill="#092B3A"/>
<path d="M96.9026 93.7347C88.8657 96.5465 81.105 105.569 79.5537 113.889C78.0035 122.21 83.2492 126.683 91.2865 123.872C99.3126 121.064 107.075 112.039 108.626 103.721C110.176 95.4008 104.931 90.9257 96.9026 93.7347Z" fill="#2D4F5B"/>
<path d="M96.7491 97.8367C90.7259 99.9417 84.9007 106.711 83.7373 112.954C82.5742 119.196 86.5134 122.549 92.5358 120.442C98.5587 118.334 104.373 111.57 105.537 105.327C106.7 99.0847 102.772 95.7292 96.7491 97.8367Z" fill="#6EAFA4"/>
<path d="M83.7374 112.954C84.6768 107.91 88.662 102.525 93.3337 99.5325C93.8485 99.2849 94.3655 99.0551 94.8857 98.8732C100.909 96.766 104.837 100.121 103.673 106.363C102.733 111.409 98.7543 116.79 94.0847 119.784C93.571 120.031 93.0558 120.259 92.5359 120.441C86.5135 122.549 82.5739 119.196 83.7374 112.954Z" fill="#9CDBD2"/>
<g opacity="0.42">
<path d="M93.654 102.053C90.484 103.161 87.4185 106.723 86.8066 110.006C86.1951 113.291 88.2684 115.055 91.4373 113.946C94.6059 112.838 97.6653 109.279 98.2779 105.994C98.8898 102.71 96.8229 100.945 93.654 102.053Z" fill="white"/>
</g>
<path d="M100.402 21.6702L99.256 27.8204C94.7456 30.2533 90.2298 33.8268 86.2367 38.3615C82.7517 42.3103 80.2214 46.475 78.45 50.568L67.7622 54.3196C63.3685 50.6158 62.19 49.3767 59.7935 47.4833C57.0121 45.2613 53.4699 44.6258 49.2285 45.2773L50.3656 39.1731L100.402 21.6702Z" fill="#0D3344"/>
<path d="M100.402 21.6701L86.9406 10.0166L36.9038 27.5199L35.7671 33.6216L49.2281 45.2773L50.3652 39.1731L100.402 21.6701Z" fill="#55A9BC"/>
</svg>
