<svg width="233" height="182" viewBox="0 0 233 182" fill="none" xmlns="http://www.w3.org/2000/svg">
<path opacity="0.6" d="M116.27 181.31C180.484 181.31 232.539 172.525 232.539 161.689C232.539 150.852 180.484 142.067 116.27 142.067C52.0557 142.067 0 150.852 0 161.689C0 172.525 52.0557 181.31 116.27 181.31Z" fill="url(#paint0_radial_790_3016)"/>
<path d="M157.774 136.517C154.164 139.393 150.553 142.269 146.94 145.144C144.774 146.873 142.291 148.27 139.493 149.289C116.06 157.818 79.412 136.617 57.6569 101.905C38.5089 71.35 37.2931 40.5011 53.2932 27.7573C56.9035 24.8756 60.5138 21.9994 64.1269 19.1246C48.1268 31.8698 50.0191 62.436 69.167 92.9844C90.9222 127.695 126.894 149.185 150.328 140.657C153.125 139.636 155.607 138.239 157.774 136.517Z" fill="url(#paint1_linear_790_3016)"/>
<path opacity="0.6" d="M165.602 124.718C165.32 125.483 165.007 126.248 164.665 126.957C161.659 133.568 156.609 138.533 149.574 141.088C126.136 149.627 89.4826 128.432 67.722 93.7035C45.9887 59.0371 47.3514 23.9727 70.7861 15.4279C94.2497 6.88859 130.904 28.1114 152.638 62.8121C167.163 85.9628 171.363 109.254 165.602 124.718Z" fill="url(#paint2_linear_790_3016)"/>
<path d="M166.37 124.281C166.087 125.045 165.774 125.811 165.432 126.519C162.426 133.13 157.376 138.095 150.341 140.65C126.903 149.189 90.2497 127.994 68.4891 93.2657C46.7558 58.5993 48.1184 23.5336 71.5532 14.9887C95.0168 6.44942 131.673 27.6736 153.405 62.3729C167.928 85.525 172.129 108.816 166.37 124.281Z" fill="url(#paint3_linear_790_3016)"/>
<path d="M135.075 116.312C120.736 121.532 98.2441 108.51 84.9418 87.2925C71.6395 66.0697 72.482 44.5519 86.8231 39.332C101.161 34.1121 123.654 47.1345 136.956 68.3572C150.257 89.5814 149.413 111.098 135.075 116.312ZM80.8608 29.8239C62.9849 36.3296 61.9324 63.1716 78.5171 89.6308C95.099 116.086 123.144 132.31 141.023 125.804C158.899 119.298 159.95 92.4836 143.367 66.0245C126.782 39.5653 98.7367 23.3182 80.8608 29.8239Z" fill="url(#paint4_linear_790_3016)"/>
<path d="M122.335 95.9925C115.56 98.4529 104.954 92.3136 98.6763 82.295C92.3929 72.2709 92.7908 62.1248 99.5627 59.6589C106.335 57.193 116.941 63.3323 123.224 73.3564C129.505 83.3804 129.107 93.5266 122.335 95.9925ZM93.6169 50.1713C83.3046 53.923 82.6844 69.3715 92.2488 84.6333C101.813 99.8883 117.971 109.232 128.285 105.48C138.594 101.728 139.201 86.2841 129.636 71.0236C120.072 55.7631 103.924 46.4197 93.6169 50.1713Z" fill="url(#paint5_linear_790_3016)"/>
<path d="M139.603 101.586C139.458 101.979 139.296 102.375 139.12 102.74L110.859 77.7693C110.684 77.6087 110.669 77.3178 110.844 77.112C111.02 76.9199 111.312 76.8924 111.488 77.0516L139.603 101.586Z" fill="url(#paint6_linear_790_3016)"/>
<path d="M187.753 16.0371L188.24 3.79556L192.967 0L192.48 12.2416L187.753 16.0371Z" fill="url(#paint7_linear_790_3016)"/>
<path d="M187.753 16.0371L199.808 18.2039L204.535 14.4083L192.48 12.2416L187.753 16.0371Z" fill="url(#paint8_linear_790_3016)"/>
<path d="M181.791 20.8247L182.278 8.58316L187.008 4.7876L186.518 17.0292L181.791 20.8247Z" fill="url(#paint9_linear_790_3016)"/>
<path d="M181.791 20.8247L193.845 22.9915L198.576 19.1959L186.518 17.0292L181.791 20.8247Z" fill="url(#paint10_linear_790_3016)"/>
<path d="M175.826 25.6126L176.313 13.371L181.043 9.57544L180.552 21.817L175.826 25.6126Z" fill="url(#paint11_linear_790_3016)"/>
<path d="M175.826 25.6126L187.881 27.7793L192.608 23.9838L180.552 21.817L175.826 25.6126Z" fill="url(#paint12_linear_790_3016)"/>
<path d="M199.927 7.26745L111.649 77.7818C111.421 77.9643 111.077 77.9135 110.878 77.6651C110.68 77.4209 110.704 77.0723 110.93 76.8898L198.943 6.0448L199.927 7.26745Z" fill="url(#paint13_linear_790_3016)"/>
<path d="M199.936 7.26027C199.844 7.33575 199.549 7.11894 199.277 6.78137C199.007 6.4438 198.86 6.10898 198.953 6.03626C199.045 5.96078 199.342 6.17485 199.613 6.51516C199.882 6.84998 200.029 7.18755 199.936 7.26027Z" fill="url(#paint14_linear_790_3016)"/>
<defs>
<radialGradient id="paint0_radial_790_3016" cx="0" cy="0" r="1" gradientUnits="userSpaceOnUse" gradientTransform="translate(116.269 161.688) scale(116.271 19.6207)">
<stop stop-color="#2582E6"/>
<stop offset="0.0209" stop-color="#2D87E8"/>
<stop offset="0.2165" stop-color="#77B6F8"/>
<stop offset="0.3071" stop-color="#94C8FF"/>
<stop offset="0.3725" stop-color="#ABD4FF"/>
<stop offset="0.4787" stop-color="#C9E3FF"/>
<stop offset="0.5905" stop-color="#E1F0FF"/>
<stop offset="0.709" stop-color="#F2F8FF"/>
<stop offset="0.8385" stop-color="#FCFDFF"/>
<stop offset="1" stop-color="white"/>
</radialGradient>
<linearGradient id="paint1_linear_790_3016" x1="51.2185" y1="39.2596" x2="131.344" y2="152.88" gradientUnits="userSpaceOnUse">
<stop stop-color="#4CA0FA"/>
<stop offset="0.2893" stop-color="#0063CC"/>
<stop offset="0.681" stop-color="#54A7FF"/>
<stop offset="1" stop-color="#0063CC"/>
</linearGradient>
<linearGradient id="paint2_linear_790_3016" x1="121.181" y1="58.4486" x2="79.5856" y2="133.32" gradientUnits="userSpaceOnUse">
<stop stop-color="#49A1FF"/>
<stop offset="1" stop-color="#0063CC"/>
</linearGradient>
<linearGradient id="paint3_linear_790_3016" x1="121.947" y1="58.0107" x2="80.3519" y2="132.882" gradientUnits="userSpaceOnUse">
<stop stop-color="#49A1FF"/>
<stop offset="1" stop-color="#0063CC"/>
</linearGradient>
<linearGradient id="paint4_linear_790_3016" x1="121.991" y1="56.409" x2="98.5167" y2="101.89" gradientUnits="userSpaceOnUse">
<stop stop-color="white"/>
<stop offset="1" stop-color="#E9F3FD"/>
</linearGradient>
<linearGradient id="paint5_linear_790_3016" x1="121.999" y1="56.4136" x2="98.5252" y2="101.895" gradientUnits="userSpaceOnUse">
<stop stop-color="white"/>
<stop offset="1" stop-color="#E9F3FD"/>
</linearGradient>
<linearGradient id="paint6_linear_790_3016" x1="112.165" y1="75.3055" x2="130.79" y2="95.7927" gradientUnits="userSpaceOnUse">
<stop stop-color="#75ACE6"/>
<stop offset="0.1264" stop-color="#94BFEC"/>
<stop offset="0.3087" stop-color="#BAD6F3"/>
<stop offset="0.49" stop-color="#D8E8F8"/>
<stop offset="0.6675" stop-color="#EEF5FC"/>
<stop offset="0.8396" stop-color="#FBFCFE"/>
<stop offset="1" stop-color="white"/>
</linearGradient>
<linearGradient id="paint7_linear_790_3016" x1="194.372" y1="13.0156" x2="186.978" y2="3.80602" gradientUnits="userSpaceOnUse">
<stop stop-color="#2F2D30"/>
<stop offset="0.0684" stop-color="#363437"/>
<stop offset="0.1709" stop-color="#4A494B"/>
<stop offset="0.2948" stop-color="#6C6A6C"/>
<stop offset="0.4341" stop-color="#999899"/>
<stop offset="0.5591" stop-color="#C8C8C8"/>
<stop offset="0.6177" stop-color="#C3C3C3"/>
<stop offset="0.6878" stop-color="#B5B5B5"/>
<stop offset="0.7639" stop-color="#9D9D9D"/>
<stop offset="0.8442" stop-color="#7B7B7B"/>
<stop offset="0.9269" stop-color="#505050"/>
<stop offset="0.9785" stop-color="#313131"/>
</linearGradient>
<linearGradient id="paint8_linear_790_3016" x1="191.411" y1="9.32721" x2="201.467" y2="21.8516" gradientUnits="userSpaceOnUse">
<stop stop-color="#2F2D30"/>
<stop offset="0.0684" stop-color="#363437"/>
<stop offset="0.1709" stop-color="#4A494B"/>
<stop offset="0.2948" stop-color="#6C6A6C"/>
<stop offset="0.4341" stop-color="#999899"/>
<stop offset="0.5591" stop-color="#C8C8C8"/>
<stop offset="0.6177" stop-color="#C3C3C3"/>
<stop offset="0.6878" stop-color="#B5B5B5"/>
<stop offset="0.7639" stop-color="#9D9D9D"/>
<stop offset="0.8442" stop-color="#7B7B7B"/>
<stop offset="0.9269" stop-color="#505050"/>
<stop offset="0.9785" stop-color="#313131"/>
</linearGradient>
<linearGradient id="paint9_linear_790_3016" x1="188.411" y1="17.8025" x2="181.017" y2="8.59334" gradientUnits="userSpaceOnUse">
<stop stop-color="#2F2D30"/>
<stop offset="0.0684" stop-color="#363437"/>
<stop offset="0.1709" stop-color="#4A494B"/>
<stop offset="0.2948" stop-color="#6C6A6C"/>
<stop offset="0.4341" stop-color="#999899"/>
<stop offset="0.5591" stop-color="#C8C8C8"/>
<stop offset="0.6177" stop-color="#C3C3C3"/>
<stop offset="0.6878" stop-color="#B5B5B5"/>
<stop offset="0.7639" stop-color="#9D9D9D"/>
<stop offset="0.8442" stop-color="#7B7B7B"/>
<stop offset="0.9269" stop-color="#505050"/>
<stop offset="0.9785" stop-color="#313131"/>
</linearGradient>
<linearGradient id="paint10_linear_790_3016" x1="185.449" y1="14.1139" x2="195.506" y2="26.6399" gradientUnits="userSpaceOnUse">
<stop stop-color="#2F2D30"/>
<stop offset="0.0684" stop-color="#363437"/>
<stop offset="0.1709" stop-color="#4A494B"/>
<stop offset="0.2948" stop-color="#6C6A6C"/>
<stop offset="0.4341" stop-color="#999899"/>
<stop offset="0.5591" stop-color="#C8C8C8"/>
<stop offset="0.6177" stop-color="#C3C3C3"/>
<stop offset="0.6878" stop-color="#B5B5B5"/>
<stop offset="0.7639" stop-color="#9D9D9D"/>
<stop offset="0.8442" stop-color="#7B7B7B"/>
<stop offset="0.9269" stop-color="#505050"/>
<stop offset="0.9785" stop-color="#313131"/>
</linearGradient>
<linearGradient id="paint11_linear_790_3016" x1="182.445" y1="22.5902" x2="175.052" y2="13.3813" gradientUnits="userSpaceOnUse">
<stop stop-color="#2F2D30"/>
<stop offset="0.0684" stop-color="#363437"/>
<stop offset="0.1709" stop-color="#4A494B"/>
<stop offset="0.2948" stop-color="#6C6A6C"/>
<stop offset="0.4341" stop-color="#999899"/>
<stop offset="0.5591" stop-color="#C8C8C8"/>
<stop offset="0.6177" stop-color="#C3C3C3"/>
<stop offset="0.6878" stop-color="#B5B5B5"/>
<stop offset="0.7639" stop-color="#9D9D9D"/>
<stop offset="0.8442" stop-color="#7B7B7B"/>
<stop offset="0.9269" stop-color="#505050"/>
<stop offset="0.9785" stop-color="#313131"/>
</linearGradient>
<linearGradient id="paint12_linear_790_3016" x1="179.483" y1="18.9027" x2="189.539" y2="31.4271" gradientUnits="userSpaceOnUse">
<stop stop-color="#2F2D30"/>
<stop offset="0.0684" stop-color="#363437"/>
<stop offset="0.1709" stop-color="#4A494B"/>
<stop offset="0.2948" stop-color="#6C6A6C"/>
<stop offset="0.4341" stop-color="#999899"/>
<stop offset="0.5591" stop-color="#C8C8C8"/>
<stop offset="0.6177" stop-color="#C3C3C3"/>
<stop offset="0.6878" stop-color="#B5B5B5"/>
<stop offset="0.7639" stop-color="#9D9D9D"/>
<stop offset="0.8442" stop-color="#7B7B7B"/>
<stop offset="0.9269" stop-color="#505050"/>
<stop offset="0.9785" stop-color="#313131"/>
</linearGradient>
<linearGradient id="paint13_linear_790_3016" x1="154.688" y1="41.5764" x2="155.671" y2="42.8004" gradientUnits="userSpaceOnUse">
<stop stop-color="#5A595B"/>
<stop offset="0.0999" stop-color="#5E5D5F"/>
<stop offset="0.2074" stop-color="#6B6A6C"/>
<stop offset="0.3185" stop-color="#808081"/>
<stop offset="0.432" stop-color="#9E9E9F"/>
<stop offset="0.5462" stop-color="#C4C4C4"/>
<stop offset="0.5591" stop-color="#C9C9C9"/>
<stop offset="0.9785" stop-color="#5C5C5C"/>
</linearGradient>
<linearGradient id="paint14_linear_790_3016" x1="199.912" y1="6.2478" x2="189.035" y2="15.5679" gradientUnits="userSpaceOnUse">
<stop stop-color="#5A595B"/>
<stop offset="0.0999" stop-color="#5E5D5F"/>
<stop offset="0.2074" stop-color="#6B6A6C"/>
<stop offset="0.3185" stop-color="#808081"/>
<stop offset="0.432" stop-color="#9E9E9F"/>
<stop offset="0.5462" stop-color="#C4C4C4"/>
<stop offset="0.5591" stop-color="#C9C9C9"/>
<stop offset="0.9785" stop-color="#5C5C5C"/>
</linearGradient>
</defs>
</svg>
