<svg width="928" height="619" viewBox="0 0 928 619" fill="none" xmlns="http://www.w3.org/2000/svg">
<mask id="mask0_792_3580" style="mask-type:luminance" maskUnits="userSpaceOnUse" x="0" y="0" width="928" height="619">
<path d="M928 0H0V618.667H928V0Z" fill="white"/>
</mask>
<g mask="url(#mask0_792_3580)">
<path d="M868.322 261.013L824.708 286.332L780.903 261.015L824.708 235.695L868.322 261.013Z" fill="url(#paint0_linear_792_3580)"/>
<path d="M868.322 618.667V261.013L824.708 286.332V618.667H868.322Z" fill="url(#paint1_linear_792_3580)"/>
<path d="M824.707 618.667V286.331L780.903 261.014V618.667H824.707Z" fill="url(#paint2_linear_792_3580)"/>
<path d="M868.322 261.013H780.903V618.667H868.322V261.013Z" fill="url(#paint3_linear_792_3580)"/>
<path opacity="0.5608" d="M783.445 116.949L803.679 260.913L825.223 273.349L846.625 260.912L864.383 116.949H783.445Z" fill="url(#paint4_linear_792_3580)"/>
<path d="M803.679 260.913L825.082 248.474L846.624 260.912L825.222 273.349L803.679 260.913Z" fill="#F9FCFF"/>
<path opacity="0.5608" d="M842.684 187.082H841.084V174.199C841.084 166.097 834.491 159.505 826.387 159.505C818.285 159.505 811.692 166.097 811.692 174.199V179.14H818.964V174.199C818.964 170.106 822.295 166.777 826.387 166.777C830.482 166.777 833.812 170.107 833.812 174.199V187.082H810.091C808.752 187.082 807.667 188.168 807.667 189.506V217.251C807.667 218.59 808.752 219.675 810.091 219.675H842.684C844.022 219.675 845.108 218.59 845.108 217.251V189.506C845.108 188.168 844.022 187.082 842.684 187.082ZM828.811 204.081V208.008C828.811 209.347 827.727 210.432 826.387 210.432C825.047 210.432 823.963 209.347 823.963 208.008V204.08C822.857 203.31 822.128 202.033 822.128 200.583C822.128 198.231 824.034 196.323 826.388 196.323C828.74 196.323 830.647 198.23 830.647 200.583C830.647 202.034 829.918 203.311 828.811 204.081Z" fill="#A5FFFF"/>
<path d="M923.044 296.089L898.399 310.395L873.647 296.089L898.399 281.783L923.044 296.089Z" fill="url(#paint5_linear_792_3580)"/>
<path d="M923.045 618.667V296.089L898.399 310.396V618.667H923.045Z" fill="url(#paint6_linear_792_3580)"/>
<path d="M898.399 618.667V310.396L873.647 296.089V618.667H898.399Z" fill="url(#paint7_linear_792_3580)"/>
<path d="M923.043 296.09H873.647V618.667H923.043V296.09Z" fill="url(#paint8_linear_792_3580)"/>
<path opacity="0.5608" d="M865.847 185.667L881.386 296.217L897.928 305.766L914.363 296.215L928 185.667H865.847Z" fill="url(#paint9_linear_792_3580)"/>
<path d="M881.386 296.217L897.82 286.664L914.363 296.215L897.928 305.766L881.386 296.217Z" fill="#F9FCFF"/>
<path opacity="0.5608" d="M898.346 227.197C890.414 227.197 883.983 233.628 883.983 241.56C883.983 249.493 890.414 255.923 898.346 255.923C906.279 255.923 912.709 249.493 912.709 241.56C912.709 233.628 906.279 227.197 898.346 227.197ZM901.681 246.863C900.992 247.607 900.024 248.102 898.937 248.285V249.199C898.937 249.715 898.548 250.114 898.042 250.114C897.526 250.114 897.116 249.715 897.116 249.199V248.305C896.222 248.176 895.426 247.875 894.747 247.39C894.069 246.907 893.574 246.346 893.282 245.711C893.185 245.516 893.142 245.323 893.142 245.14C893.142 245.032 893.164 244.915 893.197 244.796C893.271 244.569 893.443 244.386 893.703 244.235C893.875 244.139 894.035 244.095 894.177 244.095C894.49 244.095 894.822 244.311 895.166 244.743C895.77 245.7 896.771 246.229 898.053 246.229C898.698 246.229 899.345 246.057 899.819 245.713C900.325 245.367 900.637 244.861 900.637 244.248C900.637 243.655 900.357 243.202 899.809 242.891C899.431 242.676 899.011 242.546 898.355 242.384L898.075 242.309C896.644 242.039 895.556 241.597 894.803 241.006C893.908 240.307 893.468 239.412 893.468 238.326C893.468 237.325 893.866 236.43 894.545 235.73C895.191 235.051 896.117 234.599 897.119 234.427V233.62C897.119 233.373 897.215 233.145 897.399 232.963C897.571 232.79 897.786 232.703 898.056 232.703C898.302 232.703 898.507 232.79 898.68 232.963C898.852 233.145 898.939 233.373 898.939 233.62V234.427C900.327 234.642 901.469 235.321 902.104 236.366C902.178 236.494 902.223 236.636 902.223 236.775C902.223 236.83 902.212 236.894 902.201 236.981C902.146 237.174 902.05 237.346 901.91 237.487C901.748 237.648 901.479 237.745 901.21 237.745C900.951 237.745 900.736 237.681 900.575 237.552C900.133 237.165 899.757 236.895 899.444 236.756C899.045 236.582 898.572 236.496 898.023 236.496C897.378 236.496 896.774 236.669 896.343 236.981C895.879 237.293 895.622 237.757 895.622 238.305C895.622 238.918 895.956 239.317 896.558 239.619C897.064 239.866 897.667 240.028 898.745 240.253C899.895 240.555 900.833 240.933 901.521 241.492C902.352 242.159 902.771 243.042 902.771 244.13C902.769 245.173 902.37 246.132 901.681 246.863Z" fill="#A5FFFF"/>
<path d="M897.702 367.418L877.456 379.171L857.122 367.418L877.456 355.666L897.702 367.418Z" fill="url(#paint10_linear_792_3580)"/>
<path d="M897.702 618.667V367.418L877.457 379.171V618.667H897.702Z" fill="url(#paint11_linear_792_3580)"/>
<path d="M877.457 618.667V379.171L857.122 367.418V618.667H877.457Z" fill="url(#paint12_linear_792_3580)"/>
<path d="M897.702 367.417H857.122V618.667H897.702V367.417Z" fill="url(#paint13_linear_792_3580)"/>
</g>
<mask id="mask1_792_3580" style="mask-type:luminance" maskUnits="userSpaceOnUse" x="0" y="0" width="928" height="619">
<path d="M928 0H0V618.667H928V0Z" fill="white"/>
</mask>
<g mask="url(#mask1_792_3580)">
<path d="M87.4188 449.156L43.8041 474.474L0 449.156L43.8041 423.837L87.4188 449.156Z" fill="url(#paint14_linear_792_3580)"/>
<path d="M87.419 618.666V449.155L43.8042 474.474V618.666H87.419Z" fill="url(#paint15_linear_792_3580)"/>
<path d="M43.8041 618.666V474.474L0 449.155V618.666H43.8041Z" fill="url(#paint16_linear_792_3580)"/>
</g>
<mask id="mask2_792_3580" style="mask-type:luminance" maskUnits="userSpaceOnUse" x="0" y="0" width="928" height="619">
<path d="M928 0H0V618.667H928V0Z" fill="white"/>
</mask>
<g mask="url(#mask2_792_3580)">
<path d="M210.489 261.011L191.521 272.022L172.471 261.011L191.521 250L210.489 261.011Z" fill="url(#paint17_linear_792_3580)"/>
<path d="M210.489 618.667V261.01L191.521 272.022V618.667H210.489Z" fill="url(#paint18_linear_792_3580)"/>
<path d="M191.521 618.667V272.022L172.471 261.01V618.667H191.521Z" fill="url(#paint19_linear_792_3580)"/>
<path d="M210.489 261.01H172.471V618.667H210.489V261.01Z" fill="url(#paint20_linear_792_3580)"/>
<path opacity="0.5608" d="M168.646 182.201L179.691 260.79L191.452 267.579L203.135 260.79L212.829 182.201H168.646Z" fill="url(#paint21_linear_792_3580)"/>
<path d="M179.691 260.79L191.375 254.001L203.135 260.79L191.452 267.579L179.691 260.79Z" fill="#F9FCFF"/>
<path opacity="0.5608" d="M202.476 210.881H180.566C179.713 210.881 179.021 211.573 179.021 212.427V224.548C179.021 225.402 179.713 226.093 180.566 226.093H202.476C203.33 226.093 204.021 225.402 204.021 224.548V212.427C204.021 211.574 203.33 210.881 202.476 210.881ZM200.077 224.131C199.409 224.131 198.821 223.813 198.437 223.328C198.052 223.813 197.465 224.131 196.798 224.131C195.638 224.131 194.698 223.19 194.698 222.031C194.698 220.872 195.638 219.931 196.798 219.931C197.465 219.931 198.052 220.249 198.437 220.734C198.822 220.249 199.41 219.931 200.077 219.931C201.236 219.931 202.176 220.872 202.176 222.031C202.176 223.192 201.236 224.131 200.077 224.131ZM202.176 217.911H180.865V214.155H202.176V217.911Z" fill="#A5FFFF"/>
<path d="M161.009 238.356L127.44 257.843L93.7251 238.357L127.44 218.87L161.009 238.356Z" fill="url(#paint22_linear_792_3580)"/>
<path d="M161.009 618.666V238.356L127.44 257.843V618.666H161.009Z" fill="url(#paint23_linear_792_3580)"/>
<path d="M127.44 618.666V257.842L93.7251 238.357V618.666H127.44Z" fill="url(#paint24_linear_792_3580)"/>
<path d="M161.008 238.357H93.7251V618.666H161.008V238.357Z" fill="url(#paint25_linear_792_3580)"/>
<path opacity="0.5608" d="M89.5161 107.966L107.782 237.915L127.228 249.142L146.546 237.915L162.577 107.966H89.5161Z" fill="url(#paint26_linear_792_3580)"/>
<path d="M107.781 237.916L127.101 226.688L146.546 237.916L127.227 249.142L107.781 237.916Z" fill="#F9FCFF"/>
<path opacity="0.5608" d="M139.575 194.957L135.73 191.112C134.917 190.298 133.769 190.042 132.732 190.317L130.802 188.386C131.924 186.815 132.537 184.943 132.537 182.973C132.537 180.475 131.565 178.126 129.799 176.361C128.033 174.595 125.686 173.622 123.188 173.622C120.691 173.622 118.342 174.595 116.575 176.361C112.93 180.007 112.93 185.939 116.575 189.585C118.342 191.351 120.691 192.324 123.188 192.324C125.157 192.324 127.029 191.711 128.601 190.589L130.531 192.519C130.258 193.556 130.514 194.703 131.327 195.516L135.171 199.36C135.78 199.969 136.577 200.272 137.374 200.272C138.17 200.272 138.967 199.968 139.576 199.36C140.791 198.145 140.791 196.173 139.575 194.957ZM118.776 187.384C116.345 184.953 116.345 180.996 118.776 178.563C119.954 177.385 121.521 176.737 123.186 176.737C124.853 176.737 126.417 177.385 127.596 178.563C128.775 179.741 129.422 181.308 129.422 182.974C129.422 184.64 128.775 186.206 127.596 187.384C126.417 188.562 124.853 189.21 123.186 189.21C121.521 189.21 119.954 188.562 118.776 187.384Z" fill="#A5FFFF"/>
<path d="M183.622 320.253L168.039 329.297L152.388 320.253L168.039 311.206L183.622 320.253Z" fill="url(#paint27_linear_792_3580)"/>
<path d="M183.622 618.666V320.253L168.039 329.297V618.666H183.622Z" fill="url(#paint28_linear_792_3580)"/>
<path d="M168.039 618.666V329.297L152.388 320.253V618.666H168.039Z" fill="url(#paint29_linear_792_3580)"/>
<path d="M183.622 320.252H152.388V618.666H183.622V320.252Z" fill="url(#paint30_linear_792_3580)"/>
<path opacity="0.5608" d="M148.531 252.731L158.001 320.115L168.086 325.937L178.103 320.115L186.415 252.731H148.531Z" fill="url(#paint31_linear_792_3580)"/>
<path d="M158.002 320.115L168.021 314.294L178.104 320.115L168.086 325.937L158.002 320.115Z" fill="#F9FCFF"/>
<path d="M173.951 302.478V298.898C173.951 298.212 173.951 297.879 174.302 297.842C174.667 297.803 174.954 298.283 175.265 298.424C175.602 298.577 176.015 298.603 176.348 298.426C176.8 298.185 176.891 297.614 176.891 297.149C176.891 296.684 176.8 296.114 176.348 295.872C176.015 295.695 175.602 295.72 175.265 295.874C174.954 296.016 174.667 296.495 174.302 296.455C173.951 296.417 173.951 296.085 173.951 295.4V291.819H170.37C169.685 291.819 169.353 291.819 169.315 291.467C169.275 291.102 169.755 290.815 169.896 290.505C170.05 290.168 170.076 289.755 169.897 289.422C169.656 288.969 169.086 288.879 168.62 288.879C168.155 288.879 167.585 288.969 167.344 289.422C167.167 289.755 167.191 290.168 167.345 290.505C167.487 290.815 167.966 291.102 167.926 291.467C167.888 291.819 167.556 291.819 166.871 291.819H163.29V295.41C163.29 296.088 163.291 296.417 163.641 296.455C164.006 296.495 164.294 296.015 164.604 295.874C164.941 295.72 165.354 295.694 165.687 295.872C166.14 296.114 166.23 296.684 166.23 297.149C166.23 297.614 166.14 298.185 165.687 298.426C165.354 298.603 164.941 298.578 164.604 298.424C164.294 298.281 164.006 297.803 163.641 297.842C163.293 297.881 163.29 298.21 163.29 298.888V302.478H173.951Z" fill="#F9FCFF"/>
</g>
<mask id="mask3_792_3580" style="mask-type:luminance" maskUnits="userSpaceOnUse" x="0" y="0" width="928" height="619">
<path d="M928 0H0V618.667H928V0Z" fill="white"/>
</mask>
<g mask="url(#mask3_792_3580)">
<path opacity="0.5608" d="M760.363 370.222L727.471 351.232L727.417 370.675L760.309 389.665L760.363 370.222Z" fill="#A5FFFF"/>
<path opacity="0.5608" d="M727.245 328.229L727.224 345.903L747.631 357.685L747.651 350.461V340.011L727.245 328.229Z" fill="#A5FFFF"/>
<path opacity="0.5608" d="M758.795 355.887L752.508 352.258L752.487 359.481L758.774 363.11L758.795 355.887Z" fill="#A5FFFF"/>
<path opacity="0.5608" d="M724.2 341.216L693.627 323.564L693.566 344.663L724.2 362.348V341.216Z" fill="#A5FFFF"/>
<path opacity="0.5608" d="M699.513 365.156L699.485 374.84L699.48 376.597L715.209 385.679L715.221 381.642L715.242 374.236L699.513 365.156Z" fill="#A5FFFF"/>
<path d="M643.423 618.667L826.388 512.456L582.887 371.105L338.325 512.458L522.085 618.667H643.423Z" fill="url(#paint32_linear_792_3580)"/>
<path d="M522.085 618.667L338.325 512.458V618.667H522.085Z" fill="url(#paint33_linear_792_3580)"/>
<path d="M687.16 376.026L464.485 505.289L240.839 376.027L464.485 246.764L687.16 376.026Z" fill="url(#paint34_linear_792_3580)"/>
<path d="M687.16 618.666V376.025L464.485 505.288V618.666H687.16Z" fill="url(#paint35_linear_792_3580)"/>
<path d="M745.451 536.417L639.985 597.641L534.059 536.418L639.985 475.195L745.451 536.417Z" fill="url(#paint36_linear_792_3580)"/>
<path d="M639.985 618.667V597.641L534.059 536.418V618.667H639.985Z" fill="url(#paint37_linear_792_3580)"/>
<path d="M710.311 530.56L604.845 591.783L498.918 530.561L604.845 469.337L710.311 530.56Z" fill="url(#paint38_linear_792_3580)"/>
<path d="M604.845 618.667V591.783L498.918 530.561V618.667H604.845Z" fill="url(#paint39_linear_792_3580)"/>
<path d="M675.041 524.704L569.575 585.928L463.649 524.704L569.575 463.481L675.041 524.704Z" fill="url(#paint40_linear_792_3580)"/>
<path d="M569.574 618.667V585.927L464.485 525.188V505.289L240.839 376.027V618.667H569.574Z" fill="url(#paint41_linear_792_3580)"/>
<path d="M826.387 618.667V512.455L745.45 559.439V536.416L710.31 556.815V530.56L675.04 551.034V524.704L569.574 585.927V618.667H826.387Z" fill="url(#paint42_linear_792_3580)"/>
<path opacity="0.5608" d="M323.63 147.315L256.48 186.084C254.71 187.106 253.285 189.575 253.291 191.608L253.583 294.558C253.589 296.591 255.023 297.409 256.793 296.387L323.943 257.617C325.712 256.595 327.138 254.127 327.131 252.094L326.839 149.144C326.834 147.111 325.4 146.293 323.63 147.315Z" fill="#A5FFFF"/>
<path opacity="0.5608" d="M265.136 191.197C263.335 192.236 261.871 194.774 261.876 196.853C261.882 198.923 263.356 199.763 265.157 198.722C266.966 197.678 268.423 195.145 268.418 193.076C268.412 190.998 266.945 190.152 265.136 191.197Z" fill="#A5FFFF"/>
<path opacity="0.5608" d="M316.506 163.239L276.596 186.282C275.601 186.856 274.797 188.248 274.801 189.391C274.805 190.526 275.612 190.986 276.607 190.412L316.517 167.369C317.505 166.799 318.308 165.408 318.305 164.274C318.302 163.129 317.494 162.669 316.506 163.239Z" fill="#A5FFFF"/>
<path opacity="0.5608" d="M316.532 172.517L276.622 195.56C275.626 196.135 274.822 197.526 274.826 198.669C274.83 199.812 275.638 200.274 276.633 199.699L316.543 176.656C317.53 176.085 318.333 174.695 318.33 173.551C318.328 172.407 317.519 171.946 316.532 172.517Z" fill="#A5FFFF"/>
<path opacity="0.5608" d="M284.659 200.221L276.648 204.846C275.652 205.421 274.849 206.812 274.853 207.956C274.857 209.09 275.665 209.55 276.66 208.976L284.67 204.351C285.665 203.777 286.469 202.385 286.465 201.25C286.463 200.107 285.655 199.646 284.659 200.221Z" fill="#A5FFFF"/>
<path opacity="0.5608" d="M291.452 196.299L290.71 196.727C289.714 197.302 288.919 198.688 288.922 199.832C288.926 200.967 289.726 201.432 290.721 200.858L291.463 200.43C292.451 199.86 293.254 198.469 293.251 197.334C293.248 196.188 292.44 195.728 291.452 196.299Z" fill="#A5FFFF"/>
<path opacity="0.5608" d="M265.229 224.058C263.428 225.097 261.964 227.625 261.969 229.704C261.975 231.782 263.449 232.614 265.25 231.573C267.059 230.529 268.515 228.006 268.511 225.927C268.504 223.85 267.038 223.014 265.229 224.058Z" fill="#A5FFFF"/>
<path opacity="0.5608" d="M316.599 196.091L276.689 219.134C275.693 219.708 274.89 221.1 274.894 222.244C274.897 223.387 275.705 223.848 276.7 223.273L316.61 200.23C317.598 199.66 318.401 198.269 318.398 197.126C318.396 195.981 317.587 195.521 316.599 196.091Z" fill="#A5FFFF"/>
<path opacity="0.5608" d="M316.626 205.378L276.715 228.421C275.719 228.996 274.916 230.387 274.92 231.53C274.924 232.665 275.732 233.125 276.726 232.551L316.637 209.508C317.624 208.938 318.427 207.547 318.425 206.412C318.422 205.268 317.614 204.808 316.626 205.378Z" fill="#A5FFFF"/>
<path opacity="0.5608" d="M284.751 233.072L276.741 237.697C275.746 238.271 274.942 239.663 274.945 240.806C274.949 241.95 275.757 242.411 276.752 241.836L284.762 237.211C285.757 236.635 286.56 235.245 286.558 234.101C286.555 232.958 285.747 232.498 284.751 233.072Z" fill="#A5FFFF"/>
<path opacity="0.5608" d="M291.545 229.15L290.803 229.578C289.808 230.152 289.013 231.539 289.015 232.682C289.019 233.825 289.819 234.291 290.814 233.717L291.557 233.288C292.544 232.718 293.347 231.327 293.345 230.183C293.342 229.041 292.533 228.58 291.545 229.15Z" fill="#A5FFFF"/>
<path opacity="0.5608" d="M265.322 256.919C263.521 257.958 262.057 260.486 262.062 262.565C262.068 264.635 263.542 265.475 265.343 264.435C267.152 263.39 268.609 260.857 268.604 258.789C268.598 256.711 267.131 255.875 265.322 256.919Z" fill="#A5FFFF"/>
<path opacity="0.5608" d="M316.691 228.951L276.781 251.994C275.785 252.568 274.982 253.96 274.985 255.104C274.989 256.238 275.797 256.698 276.792 256.124L316.702 233.082C317.689 232.511 318.492 231.12 318.489 229.986C318.488 228.842 317.68 228.382 316.691 228.951Z" fill="#A5FFFF"/>
<path opacity="0.5608" d="M316.719 238.229L276.809 261.272C275.813 261.846 275.009 263.238 275.013 264.382C275.017 265.525 275.825 265.986 276.82 265.411L316.73 242.368C317.717 241.798 318.52 240.407 318.518 239.262C318.515 238.118 317.706 237.66 316.719 238.229Z" fill="#A5FFFF"/>
<path opacity="0.5608" d="M284.845 265.933L276.835 270.558C275.84 271.132 275.036 272.524 275.04 273.668C275.043 274.811 275.851 275.263 276.846 274.688L284.857 270.063C285.851 269.489 286.656 268.107 286.652 266.963C286.649 265.819 285.84 265.359 284.845 265.933Z" fill="#A5FFFF"/>
<path opacity="0.5608" d="M291.639 262.011L290.897 262.439C289.902 263.014 289.106 264.4 289.109 265.544C289.113 266.688 289.913 267.144 290.908 266.57L291.65 266.142C292.638 265.572 293.441 264.19 293.438 263.046C293.435 261.902 292.627 261.441 291.639 262.011Z" fill="#A5FFFF"/>
<path d="M399.702 365.852L436.05 344.729L436.038 348.929L399.69 370.051L399.702 365.852Z" fill="#1A6CBE"/>
<path d="M372.54 298.856L375.933 302.375L364.232 329.007C362.926 331.993 363.292 336.253 365.242 340.714C367.193 345.168 370.314 348.885 373.811 350.903L399.702 365.851L399.69 370.051L373.799 355.103C369.139 352.413 364.806 347.258 362.206 341.316C359.606 335.374 359.095 329.459 360.839 325.487L372.54 298.856Z" fill="#1A6CBE"/>
<path d="M372.541 298.856L408.887 277.734L412.28 281.252L375.932 302.375L372.541 298.856Z" fill="#AAE0F1"/>
<path d="M410.157 329.78C409.735 329.536 409.319 329.265 408.909 328.973C408.883 328.954 408.857 328.936 408.831 328.917C408.431 328.629 408.038 328.32 407.652 327.989C407.627 327.967 407.601 327.945 407.576 327.924C407.185 327.585 406.802 327.227 406.429 326.849C406.427 326.846 406.426 326.845 406.423 326.842C406.045 326.458 405.678 326.052 405.322 325.63C405.307 325.612 405.292 325.596 405.279 325.579C404.941 325.177 404.615 324.755 404.3 324.322C404.245 324.248 404.194 324.171 404.14 324.095C403.924 323.791 403.717 323.474 403.513 323.156C403.378 322.947 403.244 322.738 403.116 322.524C402.867 322.111 402.623 321.694 402.397 321.262C402.381 321.231 402.366 321.201 402.35 321.17C402.081 320.656 401.828 320.13 401.593 319.593C401.354 319.047 401.141 318.505 400.95 317.967C400.941 317.941 400.932 317.914 400.923 317.888C400.74 317.366 400.579 316.848 400.441 316.337C400.433 316.31 400.426 316.283 400.42 316.256C400.284 315.745 400.17 315.241 400.079 314.745C400.076 314.723 400.072 314.699 400.067 314.677C399.979 314.181 399.914 313.693 399.871 313.216C399.869 313.193 399.868 313.171 399.867 313.149C399.827 312.674 399.81 312.21 399.816 311.758C399.816 311.734 399.817 311.711 399.817 311.689C399.826 311.237 399.858 310.797 399.914 310.371C399.916 310.351 399.92 310.333 399.922 310.313C399.978 309.903 400.058 309.509 400.159 309.126C400.167 309.092 400.176 309.056 400.186 309.021C400.295 308.626 400.425 308.245 400.582 307.886L412.283 281.254L375.935 302.377L364.234 329.009C364.173 329.147 364.116 329.29 364.062 329.435C363.993 329.623 363.928 329.814 363.871 330.01C363.859 330.053 363.849 330.099 363.837 330.144C363.827 330.178 363.818 330.214 363.809 330.249C363.783 330.348 363.755 330.445 363.731 330.547C363.693 330.715 363.658 330.887 363.629 331.06C363.608 331.183 363.59 331.308 363.573 331.433C363.571 331.453 363.567 331.472 363.564 331.492C363.562 331.514 363.557 331.536 363.555 331.559C363.535 331.72 363.517 331.882 363.504 332.047C363.491 332.205 363.482 332.365 363.474 332.527C363.47 332.619 363.469 332.715 363.468 332.809C363.468 332.832 363.467 332.857 363.467 332.881C363.467 332.921 363.464 332.962 363.464 333.003C363.463 333.161 363.465 333.32 363.47 333.481C363.475 333.64 363.483 333.8 363.493 333.962C363.499 334.065 363.509 334.167 363.517 334.271C363.519 334.294 363.521 334.315 363.522 334.337C363.526 334.374 363.527 334.411 363.531 334.449C363.547 334.613 363.564 334.777 363.585 334.944C363.607 335.111 363.631 335.281 363.657 335.45C363.676 335.567 363.697 335.683 363.718 335.799C363.722 335.822 363.725 335.844 363.729 335.866C363.735 335.901 363.74 335.934 363.746 335.969C363.78 336.145 363.816 336.322 363.854 336.5C363.894 336.679 363.936 336.86 363.98 337.042C364.007 337.153 364.038 337.267 364.069 337.378C364.077 337.405 364.083 337.431 364.09 337.457C364.103 337.502 364.113 337.547 364.125 337.591C364.176 337.774 364.23 337.959 364.286 338.144C364.341 338.326 364.401 338.509 364.461 338.692C364.497 338.797 364.534 338.904 364.572 339.009C364.58 339.035 364.59 339.061 364.599 339.087C364.616 339.135 364.631 339.182 364.648 339.231C364.711 339.406 364.778 339.582 364.846 339.759C364.913 339.932 364.984 340.105 365.055 340.279C365.116 340.423 365.178 340.568 365.241 340.714C365.252 340.74 365.265 340.767 365.276 340.793C365.354 340.969 365.433 341.143 365.514 341.317C365.601 341.502 365.69 341.687 365.782 341.87C365.852 342.012 365.926 342.152 365.999 342.293C366.014 342.323 366.029 342.352 366.045 342.382C366.065 342.418 366.082 342.456 366.102 342.492C366.259 342.787 366.421 343.077 366.587 343.363C366.644 343.46 366.707 343.55 366.765 343.647C366.894 343.861 367.028 344.068 367.161 344.278C367.262 344.432 367.353 344.594 367.456 344.747C367.565 344.907 367.679 345.062 367.79 345.219C367.843 345.293 367.895 345.369 367.948 345.443C367.987 345.496 368.024 345.552 368.062 345.605C368.201 345.792 368.341 345.976 368.484 346.157C368.611 346.319 368.741 346.479 368.873 346.637C368.891 346.659 368.91 346.68 368.928 346.703C368.942 346.719 368.957 346.735 368.97 346.751C369.066 346.864 369.16 346.976 369.256 347.086C369.386 347.235 369.518 347.381 369.652 347.526C369.788 347.673 369.927 347.818 370.065 347.959C370.068 347.961 370.07 347.962 370.072 347.965C370.074 347.967 370.077 347.97 370.079 347.972C370.218 348.113 370.357 348.252 370.498 348.387C370.647 348.53 370.798 348.67 370.95 348.806C371.042 348.888 371.133 348.967 371.226 349.046C371.251 349.069 371.277 349.091 371.301 349.112C371.339 349.144 371.374 349.176 371.412 349.208C371.565 349.338 371.72 349.464 371.876 349.588C372.029 349.709 372.184 349.827 372.338 349.941C372.385 349.976 372.432 350.008 372.479 350.041C372.505 350.06 372.531 350.078 372.557 350.097C372.637 350.154 372.716 350.212 372.796 350.266C372.946 350.369 373.097 350.469 373.249 350.566C373.399 350.661 373.55 350.754 373.702 350.843C373.737 350.864 373.772 350.884 373.807 350.904L399.698 365.852L436.046 344.729L410.157 329.78Z" fill="url(#paint43_linear_792_3580)"/>
<path d="M491.865 97.6455L488.23 95.5334C488.52 95.3664 488.804 95.2253 489.084 95.109L492.719 97.2211C492.439 97.3374 492.155 97.4785 491.865 97.6455Z" fill="#155698"/>
<path d="M492.719 97.2215L489.083 95.1094C489.327 95.0079 489.567 94.925 489.801 94.8619L493.436 96.9741C493.201 97.0372 492.963 97.1201 492.719 97.2215Z" fill="#145494"/>
<path d="M493.437 96.9737L489.801 94.8616C489.983 94.8121 490.163 94.7737 490.337 94.7465L493.972 96.8586C493.798 96.8859 493.618 96.9242 493.437 96.9737Z" fill="#145290"/>
<path d="M493.973 96.8597L490.337 94.7476C490.492 94.7241 490.643 94.7093 490.792 94.7018L494.427 96.814C494.278 96.8202 494.127 96.835 493.973 96.8597Z" fill="#13508D"/>
<path d="M494.426 96.8143L490.791 94.7022C490.928 94.696 491.063 94.6972 491.194 94.7059L494.83 96.818C494.698 96.8093 494.564 96.8081 494.426 96.8143Z" fill="#134E89"/>
<path d="M494.83 96.8164L491.195 94.7042C491.321 94.7116 491.444 94.7265 491.564 94.7475L495.199 96.8597C495.079 96.8386 494.956 96.825 494.83 96.8164Z" fill="#124C85"/>
<path d="M495.198 96.8599L491.563 94.7478C491.681 94.7676 491.794 94.7948 491.906 94.827L495.541 96.9391C495.43 96.907 495.316 96.881 495.198 96.8599Z" fill="#124981"/>
<path d="M495.542 96.939L491.906 94.8268C492.016 94.859 492.124 94.8961 492.228 94.9407L495.863 97.0528C495.759 97.0083 495.652 96.9711 495.542 96.939Z" fill="#11477D"/>
<path d="M495.864 97.0532L492.229 94.941C492.334 94.9856 492.436 95.0351 492.534 95.0908L496.169 97.2029C496.07 97.1472 495.969 97.0965 495.864 97.0532Z" fill="#11457A"/>
<path d="M496.168 97.2025L492.533 95.0903C492.544 95.0965 492.555 95.1027 492.567 95.1089L496.202 97.221C496.191 97.2148 496.18 97.2086 496.168 97.2025Z" fill="#104376"/>
<path d="M316.025 333.21L498.342 227.95L498.385 243.369C498.396 247.234 495.678 251.95 492.308 253.895L322.186 352.114C318.817 354.059 316.08 352.494 316.069 348.629L316.025 333.21Z" fill="#F9FCFF"/>
<path d="M316.025 333.21L312.39 331.098L494.706 225.838L498.342 227.95L316.025 333.21Z" fill="#DAD5D8"/>
<path d="M316.069 348.629L316.025 333.21L312.39 331.098L312.433 346.517C312.436 347.237 312.532 347.878 312.711 348.431C313.008 349.353 313.528 350.029 314.213 350.428L317.848 352.54C316.753 351.903 316.074 350.549 316.069 348.629Z" fill="url(#paint44_linear_792_3580)"/>
<path d="M491.866 97.6454C495.235 95.7003 497.972 97.2655 497.983 101.131L498.343 227.949L316.027 333.209L315.668 206.391C315.657 202.525 318.375 197.81 321.745 195.865L491.866 97.6454Z" fill="#1A6CBE"/>
<path d="M492.568 95.1091C491.459 94.4657 489.925 94.5548 488.23 95.5335L318.108 193.754C317.784 193.941 317.468 194.161 317.159 194.396C317.106 194.437 317.052 194.474 317 194.515C316.706 194.748 316.421 194.999 316.144 195.269C316.121 195.291 316.096 195.31 316.072 195.332C316.028 195.376 315.986 195.426 315.941 195.472C315.804 195.612 315.669 195.755 315.535 195.904C315.493 195.951 315.447 195.994 315.407 196.041C315.371 196.082 315.339 196.125 315.304 196.166C315.224 196.261 315.144 196.358 315.066 196.455C315.016 196.518 314.962 196.578 314.913 196.642C314.872 196.695 314.834 196.751 314.793 196.806C314.735 196.882 314.678 196.959 314.622 197.037C314.584 197.089 314.544 197.14 314.507 197.193C314.443 197.284 314.382 197.378 314.32 197.471C314.281 197.531 314.241 197.588 314.203 197.648C314.187 197.673 314.171 197.695 314.154 197.72C314.046 197.889 313.94 198.061 313.839 198.236C313.832 198.248 313.825 198.261 313.818 198.273C313.797 198.309 313.778 198.345 313.759 198.381C313.689 198.503 313.619 198.626 313.553 198.751C313.522 198.81 313.494 198.869 313.463 198.929C313.432 198.989 313.401 199.05 313.371 199.111C313.345 199.164 313.317 199.216 313.291 199.269C313.222 199.413 313.156 199.557 313.093 199.703C313.082 199.729 313.069 199.754 313.058 199.779C313.056 199.785 313.052 199.792 313.05 199.799C312.97 199.981 312.896 200.162 312.826 200.346C312.812 200.379 312.802 200.414 312.788 200.448C312.764 200.515 312.74 200.582 312.717 200.649C312.685 200.74 312.649 200.831 312.619 200.922C312.595 200.994 312.576 201.066 312.553 201.139C312.527 201.222 312.501 201.306 312.477 201.389C312.462 201.441 312.443 201.491 312.43 201.543C312.404 201.636 312.385 201.73 312.362 201.823C312.336 201.927 312.308 202.031 312.285 202.135C312.277 202.171 312.266 202.206 312.259 202.242C312.243 202.318 312.234 202.392 312.221 202.466C312.19 202.628 312.16 202.791 312.138 202.953C312.131 202.997 312.12 203.043 312.114 203.087C312.109 203.13 312.11 203.169 312.105 203.211C312.063 203.573 312.035 203.93 312.036 204.279L312.396 331.097L316.032 333.209L315.673 206.391C315.671 206.042 315.7 205.683 315.742 205.323C315.752 205.237 315.761 205.151 315.773 205.065C315.796 204.904 315.825 204.741 315.856 204.578C315.877 204.467 315.897 204.357 315.921 204.246C315.945 204.142 315.971 204.039 315.998 203.935C316.035 203.79 316.072 203.646 316.114 203.5C316.139 203.415 316.165 203.332 316.191 203.248C316.242 203.085 316.296 202.923 316.354 202.761C316.378 202.694 316.401 202.626 316.426 202.559C316.51 202.335 316.599 202.111 316.696 201.89C316.707 201.864 316.719 201.839 316.731 201.813C316.818 201.614 316.911 201.417 317.009 201.222C317.04 201.161 317.07 201.1 317.102 201.04C317.197 200.855 317.295 200.672 317.399 200.492C317.419 200.456 317.438 200.42 317.458 200.384C317.581 200.172 317.709 199.964 317.842 199.759C317.88 199.7 317.921 199.643 317.959 199.583C318.058 199.436 318.158 199.291 318.261 199.148C318.317 199.07 318.374 198.993 318.432 198.918C318.521 198.799 318.614 198.683 318.705 198.567C318.785 198.47 318.863 198.373 318.943 198.278C319.018 198.189 319.098 198.102 319.176 198.014C319.308 197.866 319.443 197.722 319.581 197.583C319.648 197.515 319.716 197.446 319.784 197.38C320.062 197.111 320.347 196.859 320.641 196.626C320.693 196.585 320.746 196.547 320.799 196.507C321.11 196.272 321.425 196.052 321.748 195.865L491.865 97.6456C493.56 96.6669 495.095 96.5766 496.203 97.2212L492.568 95.1091Z" fill="#102465"/>
<path d="M406.895 287.064C409.254 285.702 411.171 286.8 411.178 289.506C411.186 292.217 409.283 295.514 406.923 296.876C404.568 298.236 402.653 297.144 402.646 294.433C402.637 291.727 404.54 288.423 406.895 287.064Z" fill="#C1D0EB"/>
<path d="M490.062 107.813L490.382 220.613L323.915 316.723L323.595 203.923L490.062 107.813Z" fill="#102465"/>
<path d="M437.596 229.742L438.185 225.364L435.633 223.982L439.155 221.358L440.716 216.784L442.299 219.543L445.824 218.099L443.28 222.422L443.893 226.106L440.742 226.024L437.596 229.742ZM450.844 222.093L451.433 217.717L448.873 216.339L452.394 213.715L453.956 209.141L455.538 211.9L459.064 210.456L456.528 214.775L457.139 218.459L453.982 218.381L450.844 222.093ZM464.085 214.449L464.674 210.071L462.114 208.694L465.635 206.07L467.197 201.495L468.787 204.251L472.303 202.812L469.768 207.131L470.379 210.815L467.221 210.737L464.085 214.449ZM477.325 206.804L477.914 202.427L475.363 201.045L478.877 198.425L480.446 193.846L482.028 196.605L485.554 195.161L483.01 199.484L483.622 203.168L480.473 203.086L477.325 206.804ZM490.565 199.16L491.161 194.779L488.601 193.402L492.123 190.777L493.684 186.202L495.267 188.961L498.792 187.517L496.257 191.836L496.869 195.52L493.711 195.442L490.565 199.16ZM502.56 173.351L431.8 214.204C430.086 215.194 428.699 217.594 428.706 219.564L428.764 240.106C428.77 242.067 430.164 242.862 431.878 241.872L502.638 201.019C504.351 200.029 505.737 197.628 505.732 195.667L505.674 175.125C505.669 173.156 504.273 172.361 502.56 173.351Z" fill="#F9FCFF"/>
<path d="M440.716 216.783L439.155 221.359L435.633 223.983L438.185 225.365L437.596 229.742L440.742 226.025L443.892 226.107L443.28 222.423L445.824 218.1L442.299 219.544L440.716 216.783Z" fill="#FFC15B"/>
<path d="M453.957 209.141L452.395 213.715L448.874 216.339L451.432 217.717L450.843 222.093L453.982 218.381L457.14 218.458L456.528 214.774L459.064 210.456L455.539 211.9L453.957 209.141Z" fill="#FFC15B"/>
<path d="M467.197 201.495L465.636 206.071L462.113 208.695L464.673 210.072L464.084 214.449L467.223 210.737L470.381 210.814L469.769 207.13L472.304 202.811L468.787 204.25L467.197 201.495Z" fill="#FFC15B"/>
<path d="M480.446 193.847L478.876 198.427L475.362 201.046L477.914 202.428L477.325 206.805L480.472 203.088L483.621 203.169L483.01 199.486L485.554 195.163L482.029 196.607L480.446 193.847Z" fill="#FFC15B"/>
<path d="M493.684 186.203L492.123 190.777L488.601 193.402L491.161 194.779L490.563 199.16L493.711 195.443L496.868 195.521L496.256 191.836L498.792 187.518L495.267 188.962L493.684 186.203Z" fill="#DCE6F6"/>
<path d="M403.907 175.714L342.451 211.196C340.851 212.12 339.559 214.356 339.564 216.195L339.771 288.966C339.776 290.805 341.076 291.554 342.676 290.63L404.132 255.148C405.732 254.224 407.031 251.975 407.026 250.136L406.819 177.365C406.814 175.527 405.506 174.791 403.907 175.714Z" fill="#F9FCFF"/>
<path d="M349.348 277.464C348.73 277.821 348.233 277.537 348.231 276.828C348.229 276.119 348.723 275.264 349.34 274.908L354.293 272.049C354.911 271.692 355.407 271.976 355.409 272.685C355.412 273.394 354.918 274.249 354.301 274.605L349.348 277.464Z" fill="#B5C7E8"/>
<path d="M358.049 272.441C357.432 272.797 356.936 272.514 356.933 271.805C356.931 271.096 357.424 270.241 358.042 269.885L358.491 269.625C359.108 269.268 359.606 269.552 359.607 270.261C359.609 270.97 359.116 271.825 358.498 272.181L358.049 272.441Z" fill="#B5C7E8"/>
<path d="M349.332 271.721C348.714 272.077 348.218 271.794 348.216 271.085C348.213 270.385 348.707 269.521 349.324 269.165L363.033 261.251C363.65 260.894 364.146 261.186 364.149 261.887C364.151 262.596 363.658 263.451 363.04 263.807L349.332 271.721Z" fill="#B5C7E8"/>
<path d="M366.98 261.531C366.363 261.888 365.867 261.604 365.864 260.895C365.862 260.195 366.355 259.332 366.973 258.975L377.039 253.163C377.656 252.807 378.152 253.099 378.155 253.799C378.157 254.508 377.663 255.363 377.046 255.72L366.98 261.531Z" fill="#B5C7E8"/>
<path d="M380.985 253.445C380.368 253.802 379.872 253.518 379.869 252.809C379.867 252.109 380.36 251.245 380.978 250.889L397.391 241.412C398.008 241.056 398.505 241.348 398.507 242.048C398.51 242.757 398.016 243.612 397.398 243.969L380.985 253.445Z" fill="#B5C7E8"/>
<path d="M349.316 265.977C348.698 266.333 348.201 266.05 348.2 265.341C348.197 264.641 348.691 263.777 349.308 263.421L384.124 243.32C384.742 242.964 385.238 243.256 385.24 243.956C385.243 244.665 384.749 245.52 384.132 245.877L349.316 265.977Z" fill="#B5C7E8"/>
<path d="M349.283 254.497C348.665 254.853 348.169 254.57 348.167 253.861C348.164 253.152 348.658 252.297 349.275 251.941L354.228 249.081C354.846 248.725 355.343 249.008 355.344 249.717C355.347 250.426 354.853 251.281 354.236 251.637L349.283 254.497Z" fill="#B5C7E8"/>
<path d="M357.985 249.474C357.367 249.83 356.871 249.547 356.869 248.838C356.866 248.129 357.36 247.274 357.977 246.917L358.426 246.657C359.044 246.301 359.54 246.584 359.543 247.293C359.545 248.002 359.051 248.857 358.434 249.214L357.985 249.474Z" fill="#B5C7E8"/>
<path d="M349.266 248.754C348.648 249.11 348.152 248.827 348.149 248.118C348.147 247.409 348.641 246.554 349.258 246.197L397.325 218.445C397.942 218.089 398.44 218.372 398.441 219.081C398.443 219.79 397.95 220.645 397.332 221.002L349.266 248.754Z" fill="#B5C7E8"/>
<path d="M349.25 243.01C348.633 243.366 348.136 243.083 348.134 242.374C348.132 241.674 348.626 240.81 349.243 240.454L365.321 231.171C365.938 230.815 366.436 231.107 366.437 231.807C366.439 232.516 365.946 233.371 365.328 233.727L349.25 243.01Z" fill="#B5C7E8"/>
<path d="M369.739 231.18C369.122 231.536 368.624 231.253 368.623 230.544C368.621 229.844 369.114 228.98 369.732 228.624L397.309 212.702C397.927 212.345 398.423 212.637 398.425 213.338C398.428 214.047 397.934 214.902 397.317 215.258L369.739 231.18Z" fill="#B5C7E8"/>
<path d="M349.218 231.53C348.601 231.886 348.105 231.594 348.102 230.894C348.1 230.185 348.593 229.33 349.211 228.973L354.164 226.114C354.781 225.758 355.277 226.041 355.28 226.75C355.282 227.45 354.789 228.314 354.171 228.67L349.218 231.53Z" fill="#B5C7E8"/>
<path d="M357.92 226.506C357.302 226.862 356.806 226.57 356.804 225.87C356.801 225.161 357.295 224.306 357.912 223.95L358.362 223.69C358.979 223.334 359.475 223.617 359.478 224.326C359.48 225.026 358.986 225.89 358.369 226.246L357.92 226.506Z" fill="#B5C7E8"/>
<path d="M349.201 225.786C348.583 226.142 348.087 225.859 348.084 225.15C348.082 224.441 348.576 223.586 349.193 223.23L376.564 207.426C377.182 207.07 377.679 207.353 377.68 208.062C377.683 208.771 377.189 209.626 376.572 209.983L349.201 225.786Z" fill="#B5C7E8"/>
<path d="M380.68 207.612C380.07 207.965 379.566 207.685 379.563 206.976C379.561 206.267 380.063 205.407 380.672 205.056L397.261 195.478C397.879 195.121 398.375 195.405 398.377 196.114C398.38 196.823 397.886 197.678 397.268 198.034L380.68 207.612Z" fill="#B5C7E8"/>
<path d="M349.185 220.043C348.568 220.399 348.071 220.116 348.069 219.407C348.066 218.698 348.56 217.843 349.178 217.486L397.245 189.734C397.863 189.378 398.359 189.661 398.361 190.37C398.364 191.079 397.87 191.934 397.253 192.291L349.185 220.043Z" fill="#B5C7E8"/>
<path d="M551.424 344.159L490.379 308.683L490.311 284.618L551.356 320.094L551.424 344.159Z" fill="#35ABE2"/>
<path d="M581.047 292.85L581.143 327L551.424 344.158L551.355 320.094C554.764 314.179 556.686 310.861 560.103 304.941L581.047 292.85Z" fill="#008DD7"/>
<mask id="mask4_792_3580" style="mask-type:luminance" maskUnits="userSpaceOnUse" x="490" y="269" width="71" height="52">
<path d="M551.356 320.094L490.311 284.618C493.721 278.703 495.641 275.385 499.059 269.466L560.104 304.941C556.687 310.861 554.766 314.179 551.356 320.094Z" fill="white"/>
</mask>
<g mask="url(#mask4_792_3580)">
<path d="M551.356 320.094L490.311 284.618C493.72 278.703 495.641 275.385 499.059 269.466L560.104 304.941C556.687 310.861 554.766 314.179 551.356 320.094Z" fill="#54BCE9"/>
</g>
<path d="M560.103 304.941L499.059 269.466L520.001 257.375L581.046 292.85L560.103 304.941Z" fill="url(#paint45_linear_792_3580)"/>
<path opacity="0.5608" d="M523.859 266.568L520.358 264.547L516.881 266.568L520.382 268.588L523.859 266.568Z" fill="#A5FFFF"/>
<path opacity="0.5608" d="M529.626 269.897L526.134 267.882L522.657 269.902L526.149 271.918L529.626 269.897Z" fill="#A5FFFF"/>
<path opacity="0.5608" d="M535.401 273.232L531.9 271.212L528.423 273.232L531.924 275.253L535.401 273.232Z" fill="#A5FFFF"/>
<path opacity="0.5608" d="M541.169 276.562L537.668 274.542L534.191 276.562L537.692 278.583L541.169 276.562Z" fill="#A5FFFF"/>
<path opacity="0.5608" d="M546.934 279.891L543.442 277.876L539.966 279.895L543.457 281.912L546.934 279.891Z" fill="#A5FFFF"/>
<path opacity="0.5608" d="M552.709 283.225L549.209 281.204L545.732 283.225L549.232 285.245L552.709 283.225Z" fill="#A5FFFF"/>
<path opacity="0.5608" d="M535.274 279.987L514.466 267.973L511.161 269.894L531.969 281.907L535.274 279.987Z" fill="#A5FFFF"/>
<path opacity="0.5608" d="M539.389 282.254C538.425 281.697 536.866 281.697 535.908 282.254C534.943 282.814 534.948 283.717 535.912 284.274C536.876 284.831 538.435 284.831 539.4 284.269C540.358 283.714 540.353 282.81 539.389 282.254Z" fill="#A5FFFF"/>
<path opacity="0.5608" d="M545.155 285.583C544.191 285.026 542.632 285.026 541.675 285.583C540.71 286.145 540.714 287.047 541.678 287.604C542.642 288.161 544.209 288.164 545.175 287.604C546.132 287.047 546.119 286.14 545.155 285.583Z" fill="#A5FFFF"/>
<path d="M496.788 301.979C495.658 301.327 494.739 301.85 494.735 303.148L494.697 304.219C494.693 305.51 495.606 307.092 496.736 307.744L543.359 334.661C544.488 335.313 545.408 334.789 545.411 333.498L545.45 332.427C545.453 331.129 544.54 329.548 543.411 328.896L496.788 301.979Z" fill="#008DD7"/>
<path d="M619.119 383.623L558.074 348.148L558.006 324.083L619.051 359.558L619.119 383.623Z" fill="#35ABE2"/>
<path d="M648.741 332.315L648.838 366.465L619.118 383.623L619.05 359.558C622.459 353.644 624.381 350.325 627.798 344.406L648.741 332.315Z" fill="#008DD7"/>
<mask id="mask5_792_3580" style="mask-type:luminance" maskUnits="userSpaceOnUse" x="558" y="308" width="70" height="52">
<path d="M619.051 359.558L558.006 324.083C561.415 318.168 563.336 314.85 566.754 308.93L627.799 344.406C624.381 350.325 622.461 353.644 619.051 359.558Z" fill="white"/>
</mask>
<g mask="url(#mask5_792_3580)">
<path d="M619.051 359.558L558.006 324.083C561.415 318.168 563.336 314.85 566.754 308.93L627.799 344.406C624.381 350.325 622.461 353.644 619.051 359.558Z" fill="#54BCE9"/>
</g>
<path d="M627.798 344.406L566.754 308.93L587.696 296.839L648.741 332.315L627.798 344.406Z" fill="url(#paint46_linear_792_3580)"/>
<path opacity="0.5608" d="M591.554 306.033L588.054 304.012L584.577 306.033L588.077 308.053L591.554 306.033Z" fill="#A5FFFF"/>
<path opacity="0.5608" d="M597.321 309.362L593.829 307.346L590.352 309.367L593.844 311.383L597.321 309.362Z" fill="#A5FFFF"/>
<path opacity="0.5608" d="M603.095 312.697L599.595 310.677L596.118 312.697L599.619 314.718L603.095 312.697Z" fill="#A5FFFF"/>
<path opacity="0.5608" d="M608.863 316.027L605.362 314.006L601.885 316.027L605.386 318.047L608.863 316.027Z" fill="#A5FFFF"/>
<path opacity="0.5608" d="M614.629 319.355L611.137 317.339L607.66 319.36L611.152 321.377L614.629 319.355Z" fill="#A5FFFF"/>
<path opacity="0.5608" d="M620.405 322.689L616.904 320.669L613.427 322.689L616.928 324.71L620.405 322.689Z" fill="#A5FFFF"/>
<path opacity="0.5608" d="M602.968 319.452L582.159 307.438L578.854 309.359L599.663 321.372L602.968 319.452Z" fill="#A5FFFF"/>
<path opacity="0.5608" d="M607.083 321.718C606.119 321.162 604.56 321.162 603.602 321.718C602.637 322.279 602.642 323.182 603.606 323.739C604.57 324.296 606.129 324.296 607.094 323.734C608.052 323.178 608.047 322.275 607.083 321.718Z" fill="#A5FFFF"/>
<path opacity="0.5608" d="M612.851 325.048C611.887 324.491 610.328 324.491 609.37 325.048C608.405 325.608 608.41 326.512 609.374 327.068C610.338 327.625 611.904 327.629 612.87 327.068C613.827 326.512 613.814 325.605 612.851 325.048Z" fill="#A5FFFF"/>
<path d="M564.483 341.444C563.353 340.792 562.434 341.315 562.43 342.613L562.392 343.683C562.388 344.975 563.301 346.556 564.431 347.208L611.053 374.125C612.183 374.778 613.102 374.254 613.106 372.962L613.145 371.892C613.148 370.594 612.235 369.013 611.105 368.361L564.483 341.444Z" fill="#008DD7"/>
<g opacity="0.3">
<path d="M498.77 336.884C491.328 341.182 491.288 348.133 498.683 352.43C506.11 356.746 518.111 356.746 525.554 352.45C532.996 348.153 533.069 341.182 525.642 336.866C518.247 332.569 506.213 332.587 498.77 336.884Z" fill="#004299"/>
</g>
<path d="M519.04 349.677C519.04 349.677 525.773 345.303 525.954 344.241C526.134 343.179 524.504 342.03 523.372 342.072C522.24 342.114 517.476 342.51 517.476 342.51L515.949 344.241C515.949 344.241 513.221 350.754 519.04 349.677Z" fill="#102465"/>
<path d="M504.315 344.173C504.315 344.173 511.048 339.799 511.229 338.736C511.408 337.673 509.779 336.525 508.647 336.567C507.514 336.609 502.751 337.005 502.751 337.005L501.224 338.736C501.224 338.736 498.496 345.25 504.315 344.173Z" fill="#102465"/>
<path d="M521.251 288.494L521.448 343.873C521.448 343.873 518.374 345.738 514.832 343.729C514.832 343.729 509.8 295.89 509.694 294.754C509.597 293.706 507.572 338.43 507.572 338.43C507.572 338.43 503.688 340.657 500.732 337.631L498.483 284.65L521.251 288.494Z" fill="#102465"/>
<path d="M498.366 270.025C498.72 269.856 498.801 269.816 499.155 269.645C499.461 264.615 500.592 245.325 500.592 245.325C498.711 246 497.361 246.747 496.228 251.783C495.692 254.165 495.161 258.035 494.764 261.918C494.445 265.039 495.762 268.151 498.308 269.983C498.327 269.998 498.347 270.011 498.366 270.025Z" fill="#102465"/>
<path d="M518.971 254.648L531.912 259.064L525.441 275.715L512.728 271.211L518.971 254.648Z" fill="#F9FCFF"/>
<path d="M515.736 247.116C515.736 247.116 518.571 247.739 522.238 250.738L521.252 288.494C521.252 288.494 516.485 291.983 506.74 289.432C498.802 287.355 496.716 284.013 496.716 284.013C496.716 284.013 495.991 265.903 496.736 258.244C497.481 250.586 500.591 245.325 500.591 245.325C502.322 244.799 506.143 245.02 506.143 245.02L515.736 247.116Z" fill="#102465"/>
<path d="M506.947 244.811L506.728 237.431C506.728 237.431 504.871 237.29 505.19 235.257C505.509 233.224 507.411 234.56 507.747 235.159C507.747 235.159 508.175 228.159 511.883 227.485C515.591 226.812 517.13 227.349 517.226 229.156C517.321 230.962 517.44 237.274 517.226 239.62C517.012 241.966 517.229 243.186 513.842 243.092L513.547 245.548C513.547 245.548 512.01 246.981 507.264 245.821L506.947 244.811Z" fill="#FFC6A0"/>
<path d="M515.736 247.116C515.712 245.673 515.48 244.888 512.129 244.508C508.779 244.127 506.055 243.229 505.715 244.508C505.375 245.788 506.052 246.582 509.405 246.867C512.758 247.15 515.736 247.116 515.736 247.116Z" fill="white"/>
<path d="M522.238 250.74C523.686 251.314 524.473 269.467 524.473 269.467L528.839 265.48L532.228 267.626C532.228 267.626 527.429 283.103 522.28 279.482C517.129 275.859 515.017 247.874 522.238 250.74Z" fill="#102465"/>
<path d="M529.213 263.124C529.581 261.71 528.716 260.026 529.552 259.777C530.389 259.528 531.121 260.787 531.121 260.787C531.121 260.787 531.489 257.28 532.172 257.248C532.855 257.217 533.429 258.727 533.429 258.727C533.429 258.727 534.425 259.114 534.745 259.794C535.066 260.474 535.423 262.187 534.946 264.151C534.468 266.114 532.226 267.627 532.226 267.627L528.837 265.481C528.838 265.479 528.846 264.537 529.213 263.124Z" fill="#FFC6A0"/>
<path d="M513.247 234.517C512.89 234.121 512.469 233.876 511.994 233.984C511.327 234.136 511.182 234.903 511.353 235.469C511.423 235.704 512.773 237.196 512.864 237.02C511.973 238.765 510.766 240.347 509.318 241.668C509.009 241.948 508.68 242.223 508.282 242.348C507.885 242.473 507.402 242.412 507.129 242.098C504.308 238.875 502.845 234.654 503.772 230.472C503.936 229.731 504.181 228.979 504.695 228.419C505.208 227.86 506.048 227.543 506.751 227.829C507.981 224.407 515.629 225.509 517.077 228.22C518.81 231.467 515.345 232.342 514.671 234.829C514.497 235.471 514.466 236.143 514.435 236.807C514.258 236.257 513.842 235.178 513.247 234.517Z" fill="#F9FCFF"/>
<path d="M733.143 378.516C729.75 377.778 726.038 378.686 723.369 380.906C720.699 383.125 719.131 386.61 719.237 390.08C719.283 391.564 719.599 393.144 718.922 394.464C717.891 396.474 714.961 397.058 714.202 399.185C713.412 401.393 715.455 403.538 715.965 405.827C716.493 408.201 715.331 410.576 714.517 412.868C713.704 415.161 713.344 418.036 715.073 419.747C716.79 421.447 719.783 421.167 721.57 422.796C722.382 423.535 722.85 424.596 723.681 425.315C725.443 426.84 728.322 426.286 730.038 424.707C731.753 423.128 732.571 420.823 733.254 418.595C733.937 416.366 734.584 414.043 736.079 412.253C737.343 410.74 739.198 409.622 739.844 407.759C740.771 405.083 738.798 402.352 738.229 399.578C737.624 396.627 738.64 393.623 739.267 390.677C739.845 387.963 739.851 384.884 738.833 382.252C737.992 380.082 735.258 378.977 733.143 378.516Z" fill="#102465"/>
<g opacity="0.3">
<path d="M741.024 493.133C748.274 497.319 748.312 504.09 741.11 508.276C733.875 512.481 722.183 512.481 714.934 508.295C707.684 504.109 707.614 497.318 714.849 493.114C722.051 488.928 733.774 488.947 741.024 493.133Z" fill="#004299"/>
</g>
<path d="M744.675 437.18C744.675 437.18 746.036 440.487 746.174 441.786C746.31 443.085 745.257 442.78 745.257 442.78C745.257 442.78 744.368 443.408 743.7 444.294C743.032 445.18 740.867 443.846 740.867 443.846L741.037 437.988L744.675 437.18Z" fill="#FFC6A0"/>
<path d="M736.034 400.278C739.28 401.07 739.648 402.636 740.581 405.745C741.514 408.854 742.811 423.451 742.811 423.451L744.675 437.179L741.037 437.987L736.938 424.917L736.034 400.278Z" fill="#FFC6A0"/>
<path d="M719.518 495.209C718.475 496.742 717.452 498.321 719.073 500.787C720.694 503.254 722.975 505.73 726.002 505.079C727.534 504.75 725.055 499.256 722.775 496.124C720.498 492.991 719.518 495.209 719.518 495.209Z" fill="#102465"/>
<path d="M718.093 463.736C718.093 463.736 718.828 492.645 718.999 496.125C719.125 498.691 722.593 501.753 724.078 501.448C726.072 501.037 722.777 496.125 722.777 496.125C722.777 496.125 725.125 473.608 725.625 469.606C726.125 465.604 726.364 462.745 726.364 462.745L718.093 463.736Z" fill="#FFC6A0"/>
<path d="M731.336 491.336C730.293 492.869 729.271 494.447 730.892 496.914C732.513 499.381 734.793 501.857 737.821 501.206C739.353 500.877 736.873 495.385 734.594 492.252C732.316 489.119 731.336 491.336 731.336 491.336Z" fill="#102465"/>
<path d="M730.648 459.864C730.648 459.864 730.646 488.774 730.815 492.252C730.94 494.818 734.41 497.881 735.895 497.575C737.888 497.164 734.593 492.252 734.593 492.252C734.593 492.252 738.53 465.564 739.029 461.562C739.529 457.561 738.918 458.873 738.918 458.873L730.648 459.864Z" fill="#FFC6A0"/>
<path d="M721.115 426.969C716.179 434.566 715.197 442.202 716.309 450.38C717.422 458.56 718.093 463.736 718.093 463.736C718.093 463.736 728.757 468.124 739.03 461.562C739.03 461.562 741.411 448.793 741.609 440.14C741.807 431.488 738.257 426.927 738.257 426.927L721.115 426.969Z" fill="#102465"/>
<path d="M723.351 400.376C723.351 400.376 718.754 401.479 718.076 402.252C718.076 402.252 717.652 412.13 719.478 417.793C721.305 423.456 721.115 426.968 721.115 426.968C721.115 426.968 725.047 433.321 738.257 426.926C738.257 426.926 739.464 419.508 740.259 415.944C741.053 412.381 742.354 412.195 740.503 408.023C738.652 403.851 736.031 400.277 736.031 400.277C734.847 399.777 732.2 399.777 732.2 399.777L723.351 400.376Z" fill="#102465"/>
<path d="M724.925 398.651L724.765 391C724.765 391 722.957 390.849 723.283 388.871C723.608 386.894 725.452 388.209 725.774 388.795C725.774 388.795 726.241 381.978 729.858 381.35C733.475 380.721 736.971 381.523 737.052 383.282C737.131 385.043 737.063 390.43 736.034 393.572C735.294 395.831 734.953 396.681 731.653 396.565L731.851 400.726C731.851 400.726 730.187 401.929 725.573 400.766L724.925 398.651Z" fill="#FFC6A0"/>
<path d="M731.693 397.791C731.693 397.791 732.327 397.786 732.572 397.926C732.817 398.065 734.128 399.401 734.15 400.857C734.169 402.313 733.568 403.977 733.568 403.977L730.593 401.257L728.684 404.877C728.684 404.877 727.511 404.637 725.909 403.413C724.307 402.188 723.35 400.377 723.35 400.377C723.877 399.066 724.234 398.286 724.234 398.286C724.359 397.985 724.93 397.849 724.93 397.849C724.93 397.849 728.097 400.764 730.596 400.925C730.596 400.925 731.492 400.514 731.693 397.791Z" fill="white"/>
<path d="M718.075 402.252C715.905 403.831 711.789 424.006 711.789 426.888C711.789 429.769 717.456 442.78 717.456 442.78L721.212 440.784L718.093 425.862C718.093 425.862 720.871 414.124 721.681 410.213C722.493 406.302 718.075 402.252 718.075 402.252Z" fill="#FFC6A0"/>
<path d="M721.214 440.783C721.214 440.783 723.433 443.767 723.703 444.365C723.972 444.963 722.385 444.365 722.385 444.365C722.385 444.365 723.803 448.321 723.352 448.749C722.9 449.177 720.98 448.321 720.98 448.321C720.98 448.321 719.707 447.939 719.231 447.273C718.756 446.607 717.457 442.78 717.457 442.78L721.214 440.783Z" fill="#FFC6A0"/>
<path d="M724.483 396.83C725.685 396.427 726.633 395.342 726.872 394.096C727.065 393.087 726.856 391.928 727.497 391.126C728.409 389.986 730.388 390.379 731.408 389.334C732.471 388.245 731.911 386.211 732.992 385.14C733.65 384.485 734.681 384.436 735.61 384.427C735.417 386.294 735.601 388.2 736.148 389.995C736.31 390.528 736.65 391.154 737.207 391.117C737.822 391.075 738.036 390.291 738.088 389.677C738.188 388.495 738.289 387.315 738.39 386.133C738.524 384.562 738.596 382.794 737.541 381.621C736.735 380.722 735.464 380.418 734.266 380.273C731.075 379.888 727.67 380.36 725.039 382.205C722.408 384.05 720.746 387.441 721.509 390.564C721.753 391.561 722.226 392.511 722.285 393.535C722.313 394.035 722.208 394.571 721.958 395.006C721.749 395.372 721.095 395.721 721.195 396.174C721.425 397.201 723.802 397.059 724.483 396.83Z" fill="#102465"/>
<path d="M331.803 304.227C330.992 305.693 330.549 307.457 330.295 309.332C329.783 313.117 329.272 316.977 329.965 320.733C330.658 324.488 332.773 328.189 336.232 329.805C338.86 331.032 341.892 330.927 344.785 330.727C347.008 330.573 349.375 330.321 351.106 328.919C355.827 325.094 353.614 316.043 351.789 311.225C350.64 308.191 348.941 305.298 346.464 303.203C343.987 301.109 340.662 299.886 337.456 300.39C334.631 300.834 332.888 302.263 331.803 304.227Z" fill="#F9FCFF"/>
<g opacity="0.3">
<path d="M328.699 414.814C321.45 419 321.411 425.772 328.614 429.958C335.848 434.163 347.54 434.163 354.79 429.977C362.039 425.791 362.11 419 354.875 414.796C347.672 410.61 335.95 410.629 328.699 414.814Z" fill="#004299"/>
</g>
<path d="M325.048 358.86C325.048 358.86 323.687 362.169 323.549 363.468C323.413 364.768 324.466 364.462 324.466 364.462C324.466 364.462 325.355 365.09 326.023 365.976C326.691 366.861 328.856 365.528 328.856 365.528L328.685 359.67L325.048 358.86Z" fill="#FFC6A0"/>
<path d="M334.928 321.96C331.682 322.752 331.314 324.317 330.381 327.427C329.448 330.536 326.913 345.133 326.913 345.133L325.048 358.861L328.686 359.671L332.785 346.601L334.928 321.96Z" fill="#FFC6A0"/>
<path d="M333.101 338.022L333.691 321.959C330.444 322.751 330.077 324.316 329.144 327.426C328.727 328.814 327.178 332.623 326.765 336.269C327.829 336.79 332.438 337.812 333.101 338.022Z" fill="#102465"/>
<path d="M350.205 416.89C351.248 418.423 352.27 420.002 350.649 422.468C349.028 424.935 346.748 427.411 343.72 426.76C342.188 426.431 344.668 420.937 346.947 417.805C349.225 414.674 350.205 416.89 350.205 416.89Z" fill="#102465"/>
<path d="M351.629 385.419C351.629 385.419 350.894 414.328 350.723 417.807C350.597 420.373 347.129 423.436 345.644 423.13C343.65 422.719 346.945 417.807 346.945 417.807C346.945 417.807 344.597 395.29 344.097 391.289C343.597 387.287 343.358 384.428 343.358 384.428L351.629 385.419Z" fill="#FFC6A0"/>
<path d="M338.387 413.017C339.43 414.55 340.452 416.129 338.831 418.595C337.21 421.062 334.93 423.538 331.902 422.887C330.37 422.558 332.85 417.066 335.129 413.933C337.407 410.801 338.387 413.017 338.387 413.017Z" fill="#102465"/>
<path d="M339.074 381.544C339.074 381.544 339.076 410.453 338.907 413.933C338.782 416.5 335.312 419.561 333.827 419.256C331.834 418.845 335.129 413.933 335.129 413.933C335.129 413.933 331.192 387.246 330.693 383.244C330.193 379.243 330.805 380.554 330.805 380.554L339.074 381.544Z" fill="#FFC6A0"/>
<path d="M348.607 348.65C353.543 356.247 354.526 363.883 353.413 372.063C352.301 380.243 351.629 385.418 351.629 385.418C351.629 385.418 340.966 389.806 330.692 383.244C330.692 383.244 328.311 370.475 328.113 361.821C327.915 353.169 331.465 348.608 331.465 348.608L348.607 348.65Z" fill="#102465"/>
<path d="M346.372 322.058C346.372 322.058 350.969 323.161 351.647 323.934C351.647 323.934 352.072 333.812 350.245 339.475C348.418 345.138 348.607 348.65 348.607 348.65C348.607 348.65 344.675 355.004 331.465 348.609C331.465 348.609 330.257 341.191 329.463 337.628C328.669 334.064 327.368 333.879 329.219 329.706C331.07 325.534 333.691 321.961 333.691 321.961C334.875 321.462 337.522 321.462 337.522 321.462L346.372 322.058Z" fill="#102465"/>
<path d="M341.606 311.517C339.972 310.557 338.895 308.82 338.037 307.001C336.607 308.617 334.861 309.991 332.905 311.157C333.064 312.632 333.311 314.096 333.691 315.254C334.43 317.514 334.771 318.364 338.071 318.247L337.873 322.408C337.873 322.408 339.537 323.611 344.151 322.448L344.799 320.333L344.959 312.682C344.959 312.682 346.696 312.526 346.445 310.643C345.081 311.906 343.425 312.588 341.606 311.517Z" fill="#FFC6A0"/>
<path d="M338.029 319.473C338.029 319.473 337.395 319.468 337.15 319.607C336.905 319.747 335.594 321.082 335.573 322.539C335.553 323.995 336.154 325.659 336.154 325.659L339.129 322.938L341.038 326.559C341.038 326.559 342.211 326.319 343.813 325.094C345.416 323.869 346.372 322.057 346.372 322.057C345.845 320.747 345.489 319.966 345.489 319.966C345.364 319.666 344.792 319.529 344.792 319.529C344.792 319.529 341.626 322.445 339.126 322.605C339.126 322.605 338.231 322.197 338.029 319.473Z" fill="white"/>
<path d="M348.881 335.717C350.008 340.695 351.629 347.545 351.629 347.545L348.51 362.467L352.266 364.463C352.266 364.463 357.933 351.452 357.933 348.571C357.933 346.966 356.656 339.997 355.149 333.865C353.085 334.559 350.989 335.156 348.881 335.717Z" fill="#FFC6A0"/>
<path d="M348.821 340.839C350.917 340.271 355.501 339.757 357.618 339.272C356.222 332.651 352.961 324.89 351.648 323.934C351.648 323.934 347.231 327.984 348.041 331.895C348.432 333.786 348.046 337.5 348.821 340.839Z" fill="#102465"/>
<path d="M348.511 362.466C348.511 362.466 346.291 365.449 346.021 366.048C345.753 366.646 347.339 366.048 347.339 366.048C347.339 366.048 345.921 370.004 346.373 370.432C346.824 370.86 348.745 370.004 348.745 370.004C348.745 370.004 350.018 369.622 350.493 368.955C350.968 368.289 352.267 364.462 352.267 364.462L348.511 362.466Z" fill="#FFC6A0"/>
<g opacity="0.3">
<path d="M776.143 509.229C783.393 513.415 783.431 520.187 776.228 524.373C768.994 528.577 757.302 528.577 750.053 524.392C742.803 520.206 742.732 513.415 749.967 509.211C757.17 505.025 768.893 505.043 776.143 509.229Z" fill="#004299"/>
</g>
<path d="M757.279 522.167C757.279 522.167 750.571 517.81 750.392 516.752C750.212 515.694 751.836 514.55 752.963 514.592C754.09 514.634 758.835 515.029 758.835 515.029L760.357 516.753C760.357 516.753 763.076 523.24 757.279 522.167Z" fill="#102465"/>
<path d="M771.948 516.684C771.948 516.684 765.24 512.327 765.061 511.269C764.882 510.212 766.505 509.067 767.632 509.109C768.759 509.151 773.505 509.546 773.505 509.546L775.027 511.271C775.027 511.271 777.745 517.757 771.948 516.684Z" fill="#102465"/>
<path d="M755.076 461.226L754.881 516.386C754.881 516.386 757.942 518.245 761.471 516.243C761.471 516.243 767.716 468.592 767.821 467.461C767.919 466.416 768.702 510.964 768.702 510.964C768.702 510.964 772.571 513.183 775.516 510.17L778.989 457.397L755.076 461.226Z" fill="#102465"/>
<path d="M760.571 420.009C760.571 420.009 757.748 420.63 754.094 423.618L755.076 461.226C755.076 461.226 759.825 464.7 769.531 462.16C777.437 460.091 779.515 456.761 779.515 456.761C779.515 456.761 780.237 438.723 779.495 431.094C779.188 427.94 778.478 425.193 777.752 423.057C776.658 419.842 773.559 417.742 770.168 417.919L770.125 417.921L760.571 420.009Z" fill="#FDF7FB"/>
<path d="M769.325 417.712L769.544 410.362C769.544 410.362 771.394 410.221 771.076 408.197C770.758 406.173 768.863 407.504 768.529 408.099C768.529 408.099 768.104 401.126 764.409 400.455C760.715 399.784 759.181 400.32 759.086 402.119C758.991 403.918 758.872 410.206 759.086 412.543C759.3 414.879 759.082 416.095 762.456 416.001L762.75 418.447C762.75 418.447 764.28 419.874 769.008 418.719L769.325 417.712Z" fill="#FFC6A0"/>
<path d="M760.571 420.009C760.596 418.572 760.826 417.79 764.164 417.411C767.503 417.032 770.214 416.137 770.554 417.411C770.893 418.686 770.219 419.478 766.879 419.76C763.538 420.043 760.571 420.009 760.571 420.009Z" fill="#FDF7FB"/>
<path d="M754.094 423.618C752.653 424.19 749.889 445.368 749.889 445.368L741.367 439.84L739.394 443.313C739.394 443.313 748.925 455.853 754.055 452.247C759.182 448.64 761.287 420.765 754.094 423.618Z" fill="#FFC6A0"/>
<path d="M758.491 438.489C759.268 430.338 758.191 421.993 754.094 423.619C753.35 423.914 751.09 430.05 750.204 435.576C752.522 436.79 756.062 437.519 758.491 438.489Z" fill="#FDF7FB"/>
<path d="M739.934 437.946C738.948 436.875 738.92 434.99 738.068 435.163C737.217 435.336 737.161 436.785 737.161 436.785C737.161 436.785 735.196 433.875 734.58 434.167C733.965 434.459 734.167 436.055 734.167 436.055C734.167 436.055 733.473 436.863 733.509 437.61C733.546 438.358 734.033 440.032 735.373 441.534C736.712 443.035 739.392 443.316 739.392 443.316L741.366 439.842C741.366 439.842 740.92 439.016 739.934 437.946Z" fill="#FFC6A0"/>
<path d="M763.049 407.461C763.404 407.066 763.825 406.823 764.298 406.93C764.962 407.083 765.107 407.846 764.936 408.409C764.866 408.644 763.521 410.13 763.431 409.956C764.319 411.694 765.521 413.27 766.963 414.584C767.27 414.864 767.598 415.139 767.994 415.262C768.389 415.386 768.869 415.326 769.143 415.014C772.017 411.73 774.018 406.312 771.546 402.214C770.674 400.767 769.212 399.689 767.573 399.282C766.104 398.919 764.529 399.073 763.1 398.577C762.169 398.254 761.309 397.658 760.326 397.607C759.342 397.556 758.224 398.464 758.589 399.38C757.753 398.667 756.313 399.156 755.848 400.151C755.383 401.146 755.74 402.374 756.462 403.202C758.037 405.009 760.917 405.147 761.629 407.775C761.802 408.415 761.833 409.083 761.864 409.745C762.043 409.193 762.456 408.118 763.049 407.461Z" fill="#102465"/>
<path opacity="0.5608" d="M591.082 177L529.921 141.689C528.314 140.761 527 141.494 526.995 143.357L526.729 237.113C526.724 238.959 528.029 241.221 529.636 242.149L590.796 277.46C592.404 278.388 593.718 277.639 593.723 275.792L593.989 182.036C593.995 180.173 592.69 177.928 591.082 177Z" fill="#A5FFFF"/>
<path opacity="0.5608" d="M540.775 163.545L540.753 171.428L533.487 167.234L533.51 159.351L540.775 163.545ZM550.107 168.933L542.828 164.731L542.806 172.614L550.085 176.816L550.107 168.933ZM568.582 241.133L561.303 236.931L561.28 244.814L568.56 249.016L568.582 241.133ZM577.9 246.513L570.635 242.319L570.612 250.202L577.878 254.396L577.9 246.513ZM587.232 251.901L579.966 247.706L579.944 255.589L587.21 259.784L587.232 251.901ZM559.46 166.624L533.532 151.654L533.524 154.169L559.453 169.138L559.46 166.624ZM587.428 182.771L575.652 175.972L575.645 178.486L587.42 185.285L587.428 182.771Z" fill="#A5FFFF"/>
<path opacity="0.5608" d="M568.757 179.699L568.734 187.582L561.455 183.38L561.477 175.497L568.757 179.699ZM540.747 173.786L533.481 169.592L533.459 177.475L540.725 181.669L540.747 173.786ZM559.381 194.802L552.102 190.6L552.08 198.483L559.359 202.685L559.381 194.802ZM559.352 205.044L552.072 200.842L552.05 208.725L559.329 212.927L559.352 205.044ZM550.049 189.415L542.77 185.213L542.748 193.096L550.027 197.298L550.049 189.415ZM550.021 199.656L542.742 195.454L542.719 203.337L549.999 207.539L550.021 199.656ZM549.991 209.898L542.712 205.696L542.69 213.579L549.969 217.781L549.991 209.898ZM559.323 215.285L552.044 211.083L552.022 218.966L559.301 223.168L559.323 215.285ZM568.64 220.665L561.361 216.463L561.339 224.346L568.618 228.548L568.64 220.665ZM568.67 210.424L561.391 206.222L561.368 214.105L568.648 218.307L568.67 210.424ZM568.698 200.182L561.419 195.98L561.397 203.863L568.676 208.065L568.698 200.182ZM568.728 189.941L561.449 185.739L561.427 193.622L568.706 197.824L568.728 189.941ZM559.41 184.561L552.131 180.359L552.108 188.242L559.388 192.444L559.41 184.561ZM550.079 179.174L542.8 174.972L542.778 182.855L550.057 187.057L550.079 179.174ZM540.719 184.028L533.453 179.833L533.431 187.716L540.696 191.911L540.719 184.028ZM540.689 194.269L533.423 190.074L533.401 197.957L540.667 202.152L540.689 194.269ZM540.66 204.51L533.395 200.316L533.373 208.199L540.638 212.393L540.66 204.51ZM540.631 214.752L533.365 210.557L533.343 218.44L540.609 222.635L540.631 214.752ZM549.963 220.139L542.684 215.937L542.661 223.82L549.94 228.022L549.963 220.139ZM559.294 225.527L552.014 221.325L551.992 229.208L559.271 233.41L559.294 225.527ZM568.612 230.906L561.333 226.704L561.31 234.588L568.59 238.789L568.612 230.906ZM559.439 174.319L552.16 170.117L552.138 178.001L559.417 182.203L559.439 174.319ZM540.602 224.978L533.337 220.784L533.314 228.667L540.58 232.861L540.602 224.978ZM549.933 230.366L542.654 226.164L542.632 234.047L549.911 238.249L549.933 230.366ZM559.265 235.753L551.986 231.551L551.964 239.434L559.243 243.636L559.265 235.753ZM578.075 185.079L570.809 180.885L570.787 188.768L578.053 192.962L578.075 185.079ZM577.959 226.045L570.693 221.85L570.671 229.733L577.936 233.928L577.959 226.045ZM577.987 215.804L570.722 211.609L570.699 219.492L577.965 223.687L577.987 215.804ZM578.017 205.562L570.751 201.368L570.729 209.251L577.995 213.445L578.017 205.562ZM578.045 195.321L570.78 191.126L570.757 199.009L578.023 203.204L578.045 195.321ZM577.93 236.286L570.665 232.092L570.642 239.975L577.908 244.169L577.93 236.286ZM587.406 190.467L580.14 186.272L580.118 194.155L587.383 198.35L587.406 190.467ZM587.291 231.432L580.025 227.238L580.003 235.121L587.268 239.315L587.291 231.432ZM587.319 221.191L580.053 216.996L580.031 224.879L587.297 229.074L587.319 221.191ZM587.349 210.949L580.083 206.755L580.061 214.638L587.327 218.833L587.349 210.949ZM587.377 200.708L580.112 196.514L580.089 204.397L587.355 208.591L587.377 200.708ZM587.261 241.674L579.995 237.479L579.973 245.362L587.239 249.557L587.261 241.674ZM574.229 257.853L546.262 241.706L546.256 243.848L574.223 259.995L574.229 257.853Z" fill="#1773D0"/>
<path opacity="0.5608" d="M627.249 148.933L579.095 121.131C576.569 119.674 574.524 120.838 574.515 123.731L574.431 153.271C574.423 156.173 576.454 159.691 578.98 161.15L627.134 188.953C629.66 190.411 631.705 189.246 631.714 186.344L631.717 185.255L631.736 178.545L631.798 156.804C631.806 153.909 629.775 150.39 627.249 148.933Z" fill="#A5FFFF"/>
<path opacity="0.5608" d="M631.735 178.542L574.453 145.469L574.433 152.181L631.717 185.252L631.735 178.542Z" fill="#A5FFFF"/>
<path opacity="0.5608" d="M615.008 151.934C613.888 149.105 611.855 146.451 609.496 145.09C605.934 143.034 603.036 144.686 603.024 148.779C603.013 152.862 605.892 157.85 609.454 159.906C611.811 161.267 613.854 160.968 614.985 159.438C615.556 158.666 615.913 157.598 615.917 156.224C615.923 154.838 615.572 153.36 615.008 151.934Z" fill="#F9FCFF"/>
<path opacity="0.5608" d="M620.549 151.47C618.183 150.104 616.14 150.403 615.008 151.932C614.437 152.704 614.08 153.772 614.076 155.158C614.072 156.533 614.423 158.01 614.987 159.438C616.107 162.267 618.14 164.921 620.507 166.287C624.06 168.338 626.958 166.686 626.97 162.603C626.982 158.509 624.102 153.522 620.549 151.47Z" fill="#F9FCFF"/>
<mask id="mask6_792_3580" style="mask-type:luminance" maskUnits="userSpaceOnUse" x="604" y="195" width="58" height="72">
<path d="M604.845 233.753L604.954 195.364L661.967 228.282L661.859 266.67L604.845 233.753Z" fill="white"/>
</mask>
<g mask="url(#mask6_792_3580)">
<path opacity="0.5608" d="M660.34 227.342L606.572 196.3C605.68 195.785 604.95 196.199 604.948 197.235L604.85 231.884C604.848 232.918 605.571 234.173 606.464 234.689L660.231 265.731C661.131 266.251 661.86 265.835 661.864 264.801L661.962 230.152C661.964 229.117 661.239 227.863 660.34 227.342Z" fill="#A5FFFF"/>
</g>
<path opacity="0.5608" d="M658.356 229.383C658.194 229.289 658.029 229.246 657.881 229.268L634.741 232.812C634.329 232.87 633.863 232.748 633.398 232.479C632.932 232.211 632.468 231.795 632.062 231.265L609.011 201.053C608.864 200.86 608.7 200.715 608.54 200.621C608.251 200.454 607.969 200.457 607.801 200.663C607.539 200.985 607.656 201.679 608.066 202.216L632.055 233.652C632.461 234.187 632.925 234.605 633.39 234.873C633.855 235.142 634.322 235.261 634.734 235.199L658.823 231.521C659.227 231.455 659.356 230.901 659.096 230.278C658.931 229.881 658.647 229.552 658.356 229.383Z" fill="#F9FCFF"/>
<g opacity="0.5608">
<path d="M558.069 390.581L491.547 352.174C488.7 350.531 486.366 351.843 486.356 355.133L486.242 395.129C486.232 398.418 488.552 402.417 491.399 404.062L494.461 405.829L494.444 411.738L497.553 407.613L557.922 442.467C560.784 444.12 563.103 442.799 563.113 439.509L563.227 399.512C563.235 396.223 560.931 392.234 558.069 390.581Z" fill="#A5FFFF"/>
</g>
<path d="M551.537 396.948L497.994 366.035C497.03 365.478 496.262 365.933 496.259 367.041L496.258 367.34C496.254 368.449 497.018 369.788 497.981 370.344L551.525 401.258C552.488 401.815 553.272 401.368 553.275 400.261L553.277 399.961C553.28 398.852 552.502 397.505 551.537 396.948Z" fill="#F9FCFF"/>
<path d="M517.847 388.262L497.963 376.782C496.999 376.225 496.231 376.681 496.228 377.788L496.227 378.105C496.223 379.195 496.987 380.534 497.951 381.091L517.835 392.571C518.798 393.127 519.582 392.681 519.585 391.591L519.587 391.274C519.59 390.166 518.812 388.819 517.847 388.262Z" fill="#F9FCFF"/>
<path d="M530.614 395.632L525.257 392.538C524.216 391.937 523.386 392.427 523.383 393.623C523.38 394.801 524.204 396.247 525.244 396.848L530.602 399.941C531.628 400.534 532.472 400.053 532.475 398.873C532.479 397.677 531.64 396.224 530.614 395.632Z" fill="#F9FCFF"/>
<path d="M503.429 390.719L498.071 387.626C497.031 387.025 496.201 387.497 496.198 388.694C496.194 389.89 497.018 391.334 498.059 391.936L503.416 395.029C504.442 395.621 505.287 395.14 505.29 393.944C505.293 392.747 504.454 391.311 503.429 390.719Z" fill="#F9FCFF"/>
<g opacity="0.3">
<path d="M481.638 481.331C486.613 483.664 486.639 487.438 481.696 489.771C476.731 492.115 468.707 492.115 463.731 489.781C458.755 487.449 458.706 483.664 463.672 481.321C468.616 478.989 476.663 478.999 481.638 481.331Z" fill="#004299"/>
</g>
<path d="M491.814 421.432C491.814 421.432 492.802 422.307 493.016 422.447C493.23 422.587 495.212 422.964 495.622 423.338C496.031 423.711 495.934 424.46 495.934 424.46C495.934 424.46 496.79 425.342 496.883 425.603C496.975 425.864 496.067 426.552 496.025 426.685C495.983 426.817 495.8 427.654 495.319 427.85C494.837 428.047 493.601 428.699 493.364 428.699C493.125 428.698 490.122 425.899 488.325 423.263C486.529 420.626 491.814 421.432 491.814 421.432Z" fill="#FFC6A0"/>
<path d="M451.373 466.202C451.373 466.202 450.594 466.147 450.215 466.274C449.836 466.4 448.014 468.774 448.022 469.18C448.031 469.586 452.945 474.04 454.599 475.253C456.253 476.465 457.154 475.242 456.805 474.673C456.457 474.103 455.325 472.006 455.026 471.04C454.726 470.073 454.542 469.302 453.942 468.475C453.342 467.649 451.373 466.202 451.373 466.202Z" fill="#102465"/>
<path d="M475.478 424.125C475.478 424.125 477.878 443.15 477.373 446.105C476.868 449.06 455.255 469.49 455.028 469.393C454.801 469.295 450.533 469.879 449.586 465.912L466.446 445.506L465.699 426.754L475.478 424.125Z" fill="#102465"/>
<path d="M453.163 426.614L453.001 429.783C452.905 432.191 453.404 434.576 454.458 436.744C457.654 443.314 464.551 457.481 464.899 458.108C465.352 458.926 471.541 481.49 471.541 481.49C471.541 481.49 475.168 482.275 478.025 479.319C478.025 479.319 472.985 456.321 472.683 452.474C472.381 448.626 465.699 426.756 465.699 426.756L453.163 426.614Z" fill="#102465"/>
<path d="M472.252 481.57C472.252 481.57 476.739 478.737 479.16 478.176C482.243 477.461 484.474 478.524 484.777 478.985C485.081 479.448 483.838 481.029 482.263 481.835C480.688 482.642 474.296 484.75 473.702 484.817C473.108 484.884 472.311 483.567 472.252 481.57Z" fill="#102465"/>
<path d="M473.955 388.045C476.313 388.694 477.388 390.313 478.984 394.197C480.58 398.08 481.315 405.349 481.315 405.349L491.813 421.432C491.813 421.432 491.693 424.623 489.565 424.898C489.565 424.898 478.388 413.815 476.771 411.102C475.155 408.388 474.738 401.245 474.738 401.245L473.955 388.045Z" fill="#FFC6A0"/>
<path d="M476.449 407.006C478.46 405.937 480.416 404.764 482.297 403.476C481.445 400.906 480.032 396.744 478.984 394.196C477.388 390.313 476.312 388.692 473.955 388.044L474.739 401.243C474.739 401.243 475.48 404.214 476.449 407.006Z" fill="#92DBFB"/>
<path d="M473.954 388.045C472.358 387.491 468.784 387.557 468.784 387.557L459.755 389.159C459.755 389.159 455.844 390.432 452.311 393.097L452.598 404.386V426.515C452.598 426.943 452.805 427.342 453.172 427.562C454.577 428.405 458.548 430.266 464.902 429.297C464.918 429.294 464.934 429.292 464.952 429.289C465.485 429.206 466.029 429.111 466.596 428.986C468.467 428.574 470.005 428.015 471.258 427.407L471.261 427.406C471.681 427.202 472.06 426.992 472.419 426.781C472.509 426.728 472.596 426.676 472.682 426.623C473.365 426.202 473.933 425.782 474.397 425.386C474.457 425.335 474.512 425.288 474.568 425.238C475.007 424.849 475.348 424.492 475.6 424.193C475.634 424.153 475.662 424.119 475.693 424.081C475.928 423.794 476.076 423.577 476.153 423.453C476.169 423.427 476.174 423.421 476.184 423.403C476.209 423.361 476.226 423.333 476.226 423.333C476.226 423.333 476.246 421.409 476.298 418.652C476.401 413.104 476.63 404.124 477.08 400.245C477.907 393.106 473.954 388.045 473.954 388.045Z" fill="#92DBFB"/>
<path d="M470.612 369.172C470.612 369.172 465.076 366.326 461.123 369.376C457.17 372.428 458.846 377.707 460.099 380.897C461.351 384.087 462.352 382.985 462.352 382.985L472.697 379.279C472.697 379.279 474.068 378.901 474.04 374.644C474.009 370.387 470.612 369.172 470.612 369.172Z" fill="#102465"/>
<path d="M473.396 373.639C473.386 372.879 472.704 372.286 471.644 371.907C471.055 373.609 469.876 375.101 468.235 375.939C466.375 376.888 464.548 376.756 462.965 375.927C462.542 377.353 462.418 378.578 462.418 378.578C462.128 378.008 460.402 376.69 460.029 378.576C459.657 380.462 461.385 380.661 461.385 380.661L461.318 387.556L461.875 389.603C466.262 390.859 467.894 389.756 467.894 389.756L467.817 386.205C470.976 386.418 472.727 385.588 473.012 383.406C473.297 381.224 473.418 375.328 473.396 373.639Z" fill="#FFC6A0"/>
<path d="M467.831 386.937C467.831 386.937 468.438 386.951 468.669 387.093C468.899 387.234 470.116 388.554 470.09 389.95C470.066 391.345 469.438 392.922 469.438 392.922L466.67 390.223L464.729 393.634C464.729 393.634 463.613 393.37 462.114 392.146C460.616 390.923 459.755 389.158 459.755 389.158C460.299 387.918 460.666 387.18 460.666 387.18C460.794 386.896 461.346 386.783 461.346 386.783C461.346 386.783 464.291 389.675 466.683 389.904C466.684 389.906 467.554 389.541 467.831 386.937Z" fill="white"/>
<path d="M440.495 428.524C440.495 428.524 440.219 429.815 440.203 430.07C440.187 430.325 440.834 432.236 440.71 432.776C440.586 433.315 439.886 433.6 439.886 433.6C439.886 433.6 439.54 434.78 439.358 434.99C439.176 435.199 438.13 434.747 437.995 434.775C437.86 434.804 437.041 435.056 436.632 434.735C436.223 434.413 435.048 433.658 434.93 433.45C434.814 433.242 435.772 429.251 437.182 426.389C438.593 423.527 440.495 428.524 440.495 428.524Z" fill="#FFC6A0"/>
<path d="M436.65 427.701C436.65 427.701 443.121 410.729 444.634 407.569C446.149 404.41 450.197 394.518 452.311 393.097C454.424 391.678 455.293 402.085 455.293 402.085C455.293 402.085 449.684 413.018 447.927 415.414C446.17 417.809 440.496 428.525 440.496 428.525C440.496 428.525 439.059 430.587 436.65 427.701Z" fill="#FFC6A0"/>
<path d="M450.295 411.474C452.547 407.438 455.294 402.086 455.294 402.086C455.294 402.086 454.425 391.677 452.312 393.098C450.667 394.202 446.928 401.362 444.635 405.976C446.375 407.958 448.29 409.764 450.295 411.474Z" fill="#92DBFB"/>
<path opacity="0.5608" d="M528.85 417.098L513.666 408.331C508.906 405.583 505.02 407.78 505.004 413.267L504.982 420.954C504.967 426.353 508.704 432.88 513.372 435.699C513.031 437.14 512.152 438.659 509.992 438.363C509.992 438.363 515.794 441.607 518.148 438.491L528.771 444.625C533.547 447.382 537.416 445.159 537.432 439.689L537.455 432.003C537.471 426.515 533.626 419.856 528.85 417.098Z" fill="#A5FFFF"/>
<path d="M513.343 419.562C512.211 418.907 511.289 419.433 511.285 420.735C511.281 422.036 512.197 423.621 513.329 424.276C514.461 424.93 515.383 424.405 515.387 423.103C515.392 421.801 514.476 420.215 513.343 419.562ZM521.226 424.113C520.094 423.458 519.172 423.984 519.168 425.286C519.165 426.587 520.08 428.172 521.212 428.827C522.344 429.481 523.266 428.956 523.27 427.654C523.274 426.352 522.359 424.767 521.226 424.113ZM529.109 428.664C527.977 428.009 527.055 428.535 527.051 429.837C527.048 431.138 527.963 432.723 529.095 433.378C530.228 434.032 531.149 433.506 531.153 432.205C531.157 430.903 530.242 429.318 529.109 428.664Z" fill="#F9FCFF"/>
</g>
<mask id="mask7_792_3580" style="mask-type:luminance" maskUnits="userSpaceOnUse" x="0" y="0" width="928" height="619">
<path d="M928 0H0V618.667H928V0Z" fill="white"/>
</mask>
<g mask="url(#mask7_792_3580)">
<path d="M375.263 472.862L241.571 550.47L107.296 472.863L241.571 395.254L375.263 472.862Z" fill="url(#paint47_linear_792_3580)"/>
<path d="M375.264 618.667V472.862L241.571 550.47V618.667H375.264Z" fill="url(#paint48_linear_792_3580)"/>
<path d="M241.571 618.667V550.47L107.296 472.863V618.667H241.571Z" fill="url(#paint49_linear_792_3580)"/>
<path d="M306.432 460.183L220.216 510.286C217.557 511.831 213.234 511.831 210.559 510.286L146.685 473.408C145.339 472.631 144.666 471.611 144.668 470.592L144.661 473.123C144.658 474.141 145.33 475.162 146.678 475.939L210.551 512.816C213.227 514.362 217.551 514.362 220.209 512.816L306.425 462.713C307.746 461.946 308.407 460.941 308.409 459.935L308.417 457.405C308.414 458.411 307.754 459.415 306.432 460.183Z" fill="#A8BEE3"/>
<path d="M306.401 454.589C309.077 456.134 309.091 458.639 306.432 460.183L220.216 510.286C217.557 511.832 213.233 511.832 210.558 510.286L146.685 473.409C144.008 471.863 143.995 469.36 146.654 467.815L232.87 417.711C235.529 416.166 239.852 416.166 242.527 417.711L306.401 454.589Z" fill="#F9FCFF"/>
<path d="M187.617 490.959C188.345 491.38 188.35 492.063 187.625 492.484C186.9 492.904 185.724 492.904 184.994 492.484L177.065 487.905C176.336 487.485 176.331 486.802 177.056 486.381C177.781 485.96 178.959 485.96 179.688 486.381L187.617 490.959Z" fill="#A8BEE3"/>
<path d="M299.833 457.386L217.118 505.455L155.005 469.594L237.72 421.525L299.833 457.386Z" fill="#0E1F57"/>
<path d="M150.685 442.773C150.186 442.485 150.179 442.016 150.679 441.725C151.175 441.437 151.984 441.439 152.483 441.728L156.511 444.054C157.015 444.345 157.018 444.811 156.523 445.099C156.023 445.39 155.217 445.39 154.714 445.099L150.685 442.773ZM157.759 446.858C157.26 446.569 157.258 446.103 157.757 445.813C158.254 445.525 159.058 445.525 159.557 445.813L159.927 446.027C160.425 446.316 160.433 446.785 159.938 447.073C159.438 447.364 158.627 447.361 158.129 447.073L157.759 446.858ZM154.721 440.429C154.222 440.14 154.22 439.669 154.715 439.381C155.211 439.092 156.02 439.096 156.519 439.383L178.776 452.233C179.275 452.521 179.277 452.987 178.782 453.275C178.287 453.563 177.477 453.565 176.978 453.277L154.721 440.429ZM180.318 455.206C179.819 454.918 179.822 454.449 180.317 454.16C180.811 453.872 181.617 453.872 182.116 454.16L195.603 461.947C196.106 462.238 196.109 462.704 195.614 462.993C195.119 463.281 194.308 463.283 193.805 462.993L180.318 455.206ZM194.359 467.988L200.57 464.378L211.268 470.555L205.057 474.164L194.359 467.988ZM158.761 438.08C158.262 437.792 158.255 437.323 158.75 437.035C159.246 436.746 160.06 436.746 160.559 437.035L199.642 459.6C200.146 459.891 200.144 460.36 199.649 460.648C199.154 460.936 198.348 460.936 197.845 460.645L158.761 438.08ZM201.981 463.558L208.192 459.949L218.89 466.125L212.679 469.735L201.981 463.558ZM162.796 435.735C162.297 435.447 162.29 434.978 162.785 434.69C163.285 434.399 164.095 434.402 164.594 434.69L175.022 440.711C175.526 441.001 175.528 441.468 175.028 441.759C174.533 442.047 173.728 442.047 173.224 441.756L162.796 435.735ZM167.944 431.692L199.77 413.196L255.049 445.112L223.224 463.608L167.944 431.692ZM264.88 444.106L201.476 407.501C200.512 406.944 198.954 406.946 198 407.501L140.437 440.952C139.483 441.506 139.489 442.406 140.453 442.963L203.857 479.568C204.821 480.125 206.375 480.125 207.327 479.57L264.891 446.118C265.843 445.565 265.843 444.663 264.88 444.106Z" fill="#F9FCFF"/>
<path d="M201.221 438.991L212.473 432.452L216.145 441.088L201.221 438.991ZM255.049 445.113L199.77 413.198L167.944 431.693L223.223 463.609L255.049 445.113Z" fill="#FFC15B"/>
<path d="M218.892 466.125L208.192 459.949L201.981 463.558L212.68 469.735L218.892 466.125Z" fill="#017FD3"/>
<path d="M211.267 470.555L200.569 464.378L194.358 467.987L205.056 474.164L211.267 470.555Z" fill="#017FD3"/>
<path d="M212.475 432.452L201.223 438.991L216.146 441.089L212.475 432.452Z" fill="#F9FCFF"/>
<path d="M199.643 459.601L160.56 437.036C160.061 436.748 159.247 436.748 158.751 437.036C158.255 437.324 158.262 437.793 158.762 438.081L197.846 460.647C198.349 460.937 199.155 460.937 199.65 460.649C200.145 460.361 200.147 459.892 199.643 459.601Z" fill="#B5C7E8"/>
<path d="M178.776 452.234L156.519 439.385C156.021 439.096 155.21 439.094 154.715 439.382C154.219 439.671 154.223 440.142 154.721 440.43L176.979 453.28C177.477 453.568 178.286 453.565 178.783 453.278C179.277 452.988 179.275 452.521 178.776 452.234Z" fill="#B5C7E8"/>
<path d="M175.022 440.711L164.594 434.69C164.095 434.402 163.285 434.399 162.785 434.69C162.29 434.978 162.296 435.447 162.796 435.735L173.224 441.756C173.728 442.047 174.533 442.047 175.028 441.759C175.528 441.468 175.526 441.002 175.022 440.711Z" fill="#DCE6F6"/>
<path d="M195.602 461.948L182.115 454.162C181.617 453.873 180.811 453.873 180.316 454.162C179.821 454.45 179.819 454.919 180.318 455.207L193.804 462.994C194.308 463.284 195.117 463.282 195.613 462.994C196.11 462.705 196.107 462.239 195.602 461.948Z" fill="#B5C7E8"/>
<path d="M156.512 444.054L152.483 441.728C151.984 441.44 151.175 441.437 150.679 441.725C150.179 442.016 150.187 442.485 150.685 442.774L154.714 445.1C155.218 445.39 156.022 445.39 156.523 445.1C157.018 444.811 157.015 444.345 156.512 444.054Z" fill="#DCE6F6"/>
<path d="M159.928 446.026L159.558 445.812C159.059 445.524 158.254 445.524 157.759 445.812C157.259 446.103 157.261 446.57 157.76 446.857L158.13 447.071C158.628 447.359 159.439 447.361 159.939 447.071C160.434 446.784 160.426 446.315 159.928 446.026Z" fill="#DCE6F6"/>
<path d="M172.643 377.184C167.816 374.397 167.79 369.881 172.586 367.094C177.382 364.308 185.184 364.303 190.011 367.089C194.838 369.876 194.864 374.401 190.068 377.187C185.273 379.975 177.469 379.971 172.643 377.184ZM195.339 390.288C190.512 387.502 190.479 382.982 195.275 380.194C200.071 377.408 207.882 377.408 212.709 380.194C217.536 382.981 217.553 387.5 212.758 390.288C207.962 393.075 200.167 393.075 195.339 390.288ZM218.028 403.388C213.201 400.601 213.168 396.081 217.964 393.294C222.76 390.507 230.571 390.507 235.398 393.294C240.225 396.08 240.251 400.605 235.455 403.392C230.659 406.179 222.855 406.174 218.028 403.388ZM252.315 396.613L184.233 357.307C182.519 356.317 179.746 356.317 178.044 357.307L155.706 370.288C154.011 371.273 154.02 372.879 155.734 373.869L223.816 413.176C225.53 414.166 228.294 414.161 229.989 413.176L252.327 400.196C254.029 399.204 254.028 397.603 252.315 396.613Z" fill="#F9FCFF"/>
<path d="M199.96 385.891L205.156 382.872L206.847 386.858L199.96 385.891ZM212.709 380.194C207.882 377.408 200.071 377.408 195.275 380.194C190.479 382.981 190.512 387.501 195.339 390.288C200.166 393.075 207.961 393.075 212.757 390.288C217.553 387.501 217.536 382.982 212.709 380.194Z" fill="#017FD3"/>
<path d="M180.626 371.319L186.6 372.158L181.405 375.177L179.936 371.72L177.684 373.029L176.088 372.107L181.283 369.088L182.88 370.01L180.626 371.319ZM190.013 367.091C185.186 364.304 177.382 364.308 172.587 367.096C167.792 369.882 167.818 374.399 172.644 377.185C177.471 379.972 185.275 379.976 190.07 377.19C194.864 374.402 194.84 369.877 190.013 367.091Z" fill="#FFC15B"/>
<path d="M228.128 398.744L230.38 397.435L231.983 398.361L226.788 401.38L225.184 400.454L227.436 399.145L221.462 398.306L226.658 395.287L228.128 398.744ZM235.397 393.294C230.57 390.507 222.759 390.507 217.963 393.294C213.167 396.08 213.201 400.6 218.028 403.388C222.854 406.174 230.658 406.179 235.453 403.393C240.249 400.605 240.224 396.08 235.397 393.294Z" fill="#FFC15B"/>
<path d="M205.156 382.872L199.96 385.891L206.848 386.859L205.156 382.872Z" fill="#F9FCFF"/>
<path d="M231.985 398.36L230.382 397.435L228.129 398.744L226.66 395.287L221.464 398.306L227.438 399.145L225.185 400.454L226.789 401.381L231.985 398.36Z" fill="#F9FCFF"/>
<path d="M186.6 372.158L180.626 371.319L182.88 370.01L181.283 369.088L176.088 372.108L177.684 373.029L179.936 371.72L181.405 375.178L186.6 372.158Z" fill="#F9FCFF"/>
</g>
<defs>
<linearGradient id="paint0_linear_792_3580" x1="832.787" y1="241.102" x2="819.664" y2="273.068" gradientUnits="userSpaceOnUse">
<stop stop-color="#89DAF4"/>
<stop offset="1" stop-color="#008DD7"/>
</linearGradient>
<linearGradient id="paint1_linear_792_3580" x1="824.708" y1="439.84" x2="868.322" y2="439.84" gradientUnits="userSpaceOnUse">
<stop stop-color="#144188"/>
<stop offset="0.9975" stop-color="#1A7CDE"/>
</linearGradient>
<linearGradient id="paint2_linear_792_3580" x1="780.903" y1="439.84" x2="824.707" y2="439.84" gradientUnits="userSpaceOnUse">
<stop stop-color="#144188"/>
<stop offset="0.998" stop-color="#102465"/>
</linearGradient>
<linearGradient id="paint3_linear_792_3580" x1="828.335" y1="328.016" x2="813.617" y2="770.143" gradientUnits="userSpaceOnUse">
<stop stop-color="#009AE4" stop-opacity="0"/>
<stop offset="0.2345" stop-color="#0094E0" stop-opacity="0.3832"/>
<stop offset="0.6119" stop-color="#008FDD"/>
</linearGradient>
<linearGradient id="paint4_linear_792_3580" x1="823.727" y1="137.025" x2="822.618" y2="255.611" gradientUnits="userSpaceOnUse">
<stop stop-color="#F9FCFF" stop-opacity="0"/>
<stop offset="1" stop-color="#F9FCFF"/>
</linearGradient>
<linearGradient id="paint5_linear_792_3580" x1="902.965" y1="284.838" x2="895.55" y2="302.9" gradientUnits="userSpaceOnUse">
<stop stop-color="#89DAF4"/>
<stop offset="1" stop-color="#008DD7"/>
</linearGradient>
<linearGradient id="paint6_linear_792_3580" x1="898.4" y1="457.378" x2="923.044" y2="457.378" gradientUnits="userSpaceOnUse">
<stop stop-color="#144188"/>
<stop offset="0.9975" stop-color="#1A7CDE"/>
</linearGradient>
<linearGradient id="paint7_linear_792_3580" x1="873.648" y1="457.378" x2="898.4" y2="457.378" gradientUnits="userSpaceOnUse">
<stop stop-color="#144188"/>
<stop offset="0.998" stop-color="#102465"/>
</linearGradient>
<linearGradient id="paint8_linear_792_3580" x1="896.465" y1="318.405" x2="901.673" y2="703.184" gradientUnits="userSpaceOnUse">
<stop stop-color="#009AE4" stop-opacity="0"/>
<stop offset="0.2345" stop-color="#0094E0" stop-opacity="0.3832"/>
<stop offset="0.6119" stop-color="#008FDD"/>
</linearGradient>
<linearGradient id="paint9_linear_792_3580" x1="896.779" y1="201.083" x2="895.928" y2="292.146" gradientUnits="userSpaceOnUse">
<stop stop-color="#F9FCFF" stop-opacity="0"/>
<stop offset="1" stop-color="#F9FCFF"/>
</linearGradient>
<linearGradient id="paint10_linear_792_3580" x1="881.207" y1="358.175" x2="875.115" y2="373.014" gradientUnits="userSpaceOnUse">
<stop stop-color="#89DAF4"/>
<stop offset="1" stop-color="#008DD7"/>
</linearGradient>
<linearGradient id="paint11_linear_792_3580" x1="877.456" y1="493.043" x2="897.702" y2="493.043" gradientUnits="userSpaceOnUse">
<stop stop-color="#144188"/>
<stop offset="0.9975" stop-color="#1A7CDE"/>
</linearGradient>
<linearGradient id="paint12_linear_792_3580" x1="857.122" y1="493.043" x2="877.457" y2="493.043" gradientUnits="userSpaceOnUse">
<stop stop-color="#144188"/>
<stop offset="0.998" stop-color="#102465"/>
</linearGradient>
<linearGradient id="paint13_linear_792_3580" x1="878.97" y1="410.231" x2="871.906" y2="785.83" gradientUnits="userSpaceOnUse">
<stop stop-color="#009AE4" stop-opacity="0"/>
<stop offset="0.2345" stop-color="#0094E0" stop-opacity="0.3832"/>
<stop offset="0.6119" stop-color="#008FDD"/>
</linearGradient>
<linearGradient id="paint14_linear_792_3580" x1="51.8834" y1="429.245" x2="38.7608" y2="461.21" gradientUnits="userSpaceOnUse">
<stop stop-color="#89DAF4"/>
<stop offset="1" stop-color="#008DD7"/>
</linearGradient>
<linearGradient id="paint15_linear_792_3580" x1="43.8044" y1="533.911" x2="87.4187" y2="533.911" gradientUnits="userSpaceOnUse">
<stop stop-color="#144188"/>
<stop offset="0.9975" stop-color="#1A7CDE"/>
</linearGradient>
<linearGradient id="paint16_linear_792_3580" x1="0" y1="533.911" x2="43.8043" y2="533.911" gradientUnits="userSpaceOnUse">
<stop stop-color="#144188"/>
<stop offset="0.998" stop-color="#102465"/>
</linearGradient>
<linearGradient id="paint17_linear_792_3580" x1="195.035" y1="252.351" x2="189.328" y2="266.253" gradientUnits="userSpaceOnUse">
<stop stop-color="#89DAF4"/>
<stop offset="1" stop-color="#008DD7"/>
</linearGradient>
<linearGradient id="paint18_linear_792_3580" x1="191.521" y1="439.839" x2="210.489" y2="439.839" gradientUnits="userSpaceOnUse">
<stop stop-color="#144188"/>
<stop offset="0.9975" stop-color="#1A7CDE"/>
</linearGradient>
<linearGradient id="paint19_linear_792_3580" x1="172.47" y1="439.839" x2="191.521" y2="439.839" gradientUnits="userSpaceOnUse">
<stop stop-color="#144188"/>
<stop offset="0.998" stop-color="#102465"/>
</linearGradient>
<linearGradient id="paint20_linear_792_3580" x1="194.178" y1="299.516" x2="191.734" y2="426.612" gradientUnits="userSpaceOnUse">
<stop stop-color="#0162C1" stop-opacity="0"/>
<stop offset="0.2351" stop-color="#0162C1" stop-opacity="0.3534"/>
<stop offset="0.9829" stop-color="#027BD0"/>
</linearGradient>
<linearGradient id="paint21_linear_792_3580" x1="190.635" y1="193.16" x2="190.03" y2="257.897" gradientUnits="userSpaceOnUse">
<stop stop-color="#F9FCFF" stop-opacity="0"/>
<stop offset="1" stop-color="#F9FCFF"/>
</linearGradient>
<linearGradient id="paint22_linear_792_3580" x1="133.658" y1="223.032" x2="123.558" y2="247.634" gradientUnits="userSpaceOnUse">
<stop stop-color="#89DAF4"/>
<stop offset="1" stop-color="#008DD7"/>
</linearGradient>
<linearGradient id="paint23_linear_792_3580" x1="127.441" y1="428.511" x2="161.009" y2="428.511" gradientUnits="userSpaceOnUse">
<stop stop-color="#144188"/>
<stop offset="0.9975" stop-color="#1A7CDE"/>
</linearGradient>
<linearGradient id="paint24_linear_792_3580" x1="93.7257" y1="428.511" x2="127.44" y2="428.511" gradientUnits="userSpaceOnUse">
<stop stop-color="#144188"/>
<stop offset="0.998" stop-color="#102465"/>
</linearGradient>
<linearGradient id="paint25_linear_792_3580" x1="129.27" y1="324.147" x2="123.709" y2="629.094" gradientUnits="userSpaceOnUse">
<stop stop-color="#0162C1" stop-opacity="0"/>
<stop offset="0.2894" stop-color="#0061C1" stop-opacity="0.7"/>
<stop offset="0.9888" stop-color="#0158BB"/>
</linearGradient>
<linearGradient id="paint26_linear_792_3580" x1="125.877" y1="126.087" x2="124.877" y2="233.13" gradientUnits="userSpaceOnUse">
<stop stop-color="#F9FCFF" stop-opacity="0"/>
<stop offset="1" stop-color="#F9FCFF"/>
</linearGradient>
<linearGradient id="paint27_linear_792_3580" x1="170.925" y1="313.138" x2="166.237" y2="324.559" gradientUnits="userSpaceOnUse">
<stop stop-color="#89DAF4"/>
<stop offset="1" stop-color="#008DD7"/>
</linearGradient>
<linearGradient id="paint28_linear_792_3580" x1="168.039" y1="469.459" x2="183.622" y2="469.459" gradientUnits="userSpaceOnUse">
<stop stop-color="#144188"/>
<stop offset="0.9975" stop-color="#1A7CDE"/>
</linearGradient>
<linearGradient id="paint29_linear_792_3580" x1="152.388" y1="469.459" x2="168.039" y2="469.459" gradientUnits="userSpaceOnUse">
<stop stop-color="#144188"/>
<stop offset="0.998" stop-color="#102465"/>
</linearGradient>
<linearGradient id="paint30_linear_792_3580" x1="169.795" y1="361.004" x2="165.773" y2="604.605" gradientUnits="userSpaceOnUse">
<stop stop-color="#0162C1" stop-opacity="0"/>
<stop offset="0.1512" stop-color="#0162C1" stop-opacity="0.3534"/>
<stop offset="0.363" stop-color="#0061C0"/>
</linearGradient>
<linearGradient id="paint31_linear_792_3580" x1="167.385" y1="262.128" x2="166.866" y2="317.634" gradientUnits="userSpaceOnUse">
<stop stop-color="#F9FCFF" stop-opacity="0"/>
<stop offset="1" stop-color="#F9FCFF"/>
</linearGradient>
<linearGradient id="paint32_linear_792_3580" x1="632.249" y1="412.122" x2="581.916" y2="513.342" gradientUnits="userSpaceOnUse">
<stop stop-color="#89DAF4"/>
<stop offset="1" stop-color="#008DD7"/>
</linearGradient>
<linearGradient id="paint33_linear_792_3580" x1="338.325" y1="565.562" x2="582.886" y2="565.562" gradientUnits="userSpaceOnUse">
<stop stop-color="#144188"/>
<stop offset="0.998" stop-color="#102465"/>
</linearGradient>
<linearGradient id="paint34_linear_792_3580" x1="505.733" y1="274.369" x2="438.735" y2="437.569" gradientUnits="userSpaceOnUse">
<stop stop-color="#89DAF4"/>
<stop offset="1" stop-color="#008DD7"/>
</linearGradient>
<linearGradient id="paint35_linear_792_3580" x1="464.485" y1="497.346" x2="687.16" y2="497.346" gradientUnits="userSpaceOnUse">
<stop stop-color="#144188"/>
<stop offset="0.9975" stop-color="#1A7CDE"/>
</linearGradient>
<linearGradient id="paint36_linear_792_3580" x1="659.521" y1="488.269" x2="627.789" y2="565.566" gradientUnits="userSpaceOnUse">
<stop stop-color="#89DAF4"/>
<stop offset="1" stop-color="#008DD7"/>
</linearGradient>
<linearGradient id="paint37_linear_792_3580" x1="534.059" y1="577.542" x2="639.985" y2="577.542" gradientUnits="userSpaceOnUse">
<stop stop-color="#144188"/>
<stop offset="0.998" stop-color="#102465"/>
</linearGradient>
<linearGradient id="paint38_linear_792_3580" x1="624.381" y1="482.412" x2="592.648" y2="559.709" gradientUnits="userSpaceOnUse">
<stop stop-color="#89DAF4"/>
<stop offset="1" stop-color="#008DD7"/>
</linearGradient>
<linearGradient id="paint39_linear_792_3580" x1="498.918" y1="574.614" x2="604.844" y2="574.614" gradientUnits="userSpaceOnUse">
<stop stop-color="#144188"/>
<stop offset="0.998" stop-color="#102465"/>
</linearGradient>
<linearGradient id="paint40_linear_792_3580" x1="589.111" y1="476.556" x2="557.379" y2="553.853" gradientUnits="userSpaceOnUse">
<stop stop-color="#89DAF4"/>
<stop offset="1" stop-color="#008DD7"/>
</linearGradient>
<linearGradient id="paint41_linear_792_3580" x1="240.84" y1="497.348" x2="569.574" y2="497.348" gradientUnits="userSpaceOnUse">
<stop stop-color="#144188"/>
<stop offset="0.998" stop-color="#102465"/>
</linearGradient>
<linearGradient id="paint42_linear_792_3580" x1="569.574" y1="565.561" x2="826.387" y2="565.561" gradientUnits="userSpaceOnUse">
<stop stop-color="#144188"/>
<stop offset="0.9975" stop-color="#1A7CDE"/>
</linearGradient>
<linearGradient id="paint43_linear_792_3580" x1="363.461" y1="323.552" x2="436.049" y2="323.552" gradientUnits="userSpaceOnUse">
<stop offset="0.0355" stop-color="#C8D6EE"/>
<stop offset="1" stop-color="#D6E0F2"/>
</linearGradient>
<linearGradient id="paint44_linear_792_3580" x1="312.39" y1="341.818" x2="317.848" y2="341.818" gradientUnits="userSpaceOnUse">
<stop stop-color="#CDEFFB"/>
<stop offset="1" stop-color="#89DAF4"/>
</linearGradient>
<linearGradient id="paint45_linear_792_3580" x1="549.31" y1="266.881" x2="518.836" y2="313.877" gradientUnits="userSpaceOnUse">
<stop stop-color="#89DAF4"/>
<stop offset="1" stop-color="#76CFF0"/>
</linearGradient>
<linearGradient id="paint46_linear_792_3580" x1="614.982" y1="309.465" x2="584.509" y2="356.461" gradientUnits="userSpaceOnUse">
<stop stop-color="#89DAF4"/>
<stop offset="1" stop-color="#76CFF0"/>
</linearGradient>
<linearGradient id="paint47_linear_792_3580" x1="278.393" y1="382.459" x2="238.168" y2="480.443" gradientUnits="userSpaceOnUse">
<stop stop-color="#89DAF4"/>
<stop offset="1" stop-color="#008DD7"/>
</linearGradient>
<linearGradient id="paint48_linear_792_3580" x1="241.572" y1="545.765" x2="375.264" y2="545.765" gradientUnits="userSpaceOnUse">
<stop stop-color="#144188"/>
<stop offset="0.9975" stop-color="#1A7CDE"/>
</linearGradient>
<linearGradient id="paint49_linear_792_3580" x1="107.297" y1="545.765" x2="241.571" y2="545.765" gradientUnits="userSpaceOnUse">
<stop stop-color="#144188"/>
<stop offset="0.998" stop-color="#102465"/>
</linearGradient>
</defs>
</svg>
