<svg width="22" height="20" viewBox="0 0 22 20" fill="none" xmlns="http://www.w3.org/2000/svg">
<path d="M18.86 6.08997C18.86 6.50997 18.83 6.91997 18.78 7.30997C18.32 7.10997 17.82 6.99997 17.29 6.99997C16.07 6.99997 14.99 7.58996 14.32 8.48996C13.64 7.58996 12.56 6.99997 11.34 6.99997C9.29 6.99997 7.63 8.66996 7.63 10.74C7.63 13.42 9.05 15.47 10.63 16.86C10.58 16.89 10.53 16.9 10.48 16.92C10.18 17.03 9.68 17.03 9.38 16.92C6.79 16.03 1 12.35 1 6.08997C1 3.32997 3.21999 1.09998 5.95999 1.09998C7.58999 1.09998 9.02999 1.87997 9.92999 3.08997C10.84 1.87997 12.28 1.09998 13.9 1.09998C16.64 1.09998 18.86 3.32997 18.86 6.08997Z" stroke="#292D32" stroke-width="1.5" stroke-linecap="round" stroke-linejoin="round"/>
<path d="M20.9999 10.74C20.9999 15.42 16.6699 18.18 14.7299 18.84C14.4999 18.92 14.1299 18.92 13.8999 18.84C13.0699 18.56 11.7999 17.89 10.6299 16.86C9.04988 15.47 7.62988 13.42 7.62988 10.74C7.62988 8.66999 9.28987 7 11.3399 7C12.5599 7 13.6399 7.58999 14.3199 8.48999C14.9899 7.58999 16.0699 7 17.2899 7C17.8199 7 18.3199 7.11 18.7799 7.31C20.0899 7.89 20.9999 9.19999 20.9999 10.74Z" stroke="#292D32" stroke-width="1.5" stroke-linecap="round" stroke-linejoin="round"/>
</svg>
