<svg width="414" height="59" viewBox="0 0 414 59" fill="none" xmlns="http://www.w3.org/2000/svg">
<path d="M5.784 10.44C5.784 8.264 5.48533 6.664 4.888 5.64C4.29067 4.57333 3.096 4.04 1.304 4.04H0.024V2.76H5.784C7.36267 2.76 8.536 2.97333 9.304 3.4C10.1147 3.784 10.6907 4.50933 11.032 5.576C11.3733 6.64266 11.544 8.264 11.544 10.44V21.96H30.744V2.76H36.504V37.32C36.504 39.496 36.8027 41.1173 37.4 42.184C37.9973 43.208 39.192 43.72 40.984 43.72H42.264V45H36.504C34.9253 45 33.7307 44.808 32.92 44.424C32.152 43.9973 31.5973 43.2507 31.256 42.184C30.9147 41.1173 30.744 39.496 30.744 37.32V24.52H11.544V45H5.784V10.44ZM59.07 45.64C56.1687 45.64 53.7153 44.9573 51.71 43.592C49.7047 42.184 48.19 40.3067 47.166 37.96C46.142 35.5707 45.63 32.904 45.63 29.96C45.63 27.0587 46.142 24.4133 47.166 22.024C48.19 19.6347 49.662 17.7573 51.582 16.392C53.5447 14.984 55.8273 14.28 58.43 14.28C62.7393 14.28 65.9393 15.496 68.03 17.928C70.1633 20.3173 71.23 23.7947 71.23 28.36L71.102 30.92H51.71C51.71 34.504 52.478 37.4267 54.014 39.688C55.55 41.9493 57.662 43.08 60.35 43.08C62.3553 43.08 64.0407 42.6533 65.406 41.8C66.814 40.9467 68.1153 39.6667 69.31 37.96L70.59 38.92C69.182 41.2667 67.5393 42.9733 65.662 44.04C63.7847 45.1067 61.5873 45.64 59.07 45.64ZM65.15 28.36C65.15 24.6053 64.5953 21.7467 63.486 19.784C62.3767 17.8213 60.6913 16.84 58.43 16.84C57.15 16.84 55.998 17.352 54.974 18.376C53.95 19.3573 53.1393 20.7227 52.542 22.472C51.9873 24.2213 51.71 26.184 51.71 28.36H65.15ZM78.864 10.44C78.864 8.264 78.5653 6.664 77.968 5.64C77.3707 4.57333 76.176 4.04 74.384 4.04H73.104V2.76H78.864C80.4427 2.76 81.616 2.97333 82.384 3.4C83.1947 3.784 83.7707 4.50933 84.112 5.576C84.4533 6.64266 84.624 8.264 84.624 10.44V45H78.864V10.44ZM95.068 22.6C95.068 20.424 94.7693 18.824 94.172 17.8C93.5747 16.7333 92.38 16.2 90.588 16.2H89.308V14.92H95.068C96.6893 14.92 97.9053 15.1547 98.716 15.624C99.5693 16.0507 100.167 16.776 100.508 17.8H100.828C101.596 16.8187 102.684 15.9867 104.092 15.304C105.5 14.6213 107.292 14.28 109.468 14.28C113.137 14.28 115.975 15.7733 117.98 18.76C119.985 21.704 120.988 25.4373 120.988 29.96C120.988 34.5253 119.943 38.28 117.852 41.224C115.804 44.168 112.796 45.64 108.828 45.64C107.207 45.64 105.777 45.4693 104.54 45.128C103.303 44.7867 102.065 44.3173 100.828 43.72V57.16H95.068V22.6ZM106.908 43.08C109.639 43.08 111.644 41.8853 112.924 39.496C114.247 37.1067 114.908 33.928 114.908 29.96C114.908 26.0347 114.289 22.8773 113.052 20.488C111.815 18.056 109.98 16.84 107.548 16.84C104.689 16.84 102.449 18.12 100.828 20.68V41.16C102.108 41.7573 103.217 42.2267 104.156 42.568C105.095 42.9093 106.012 43.08 106.908 43.08ZM138.466 45.64C134.754 45.64 131.895 44.168 129.89 41.224C127.927 38.28 126.946 34.5253 126.946 29.96C126.946 25.3947 127.97 21.64 130.018 18.696C132.108 15.752 135.138 14.28 139.106 14.28C140.727 14.28 142.156 14.4507 143.394 14.792C144.631 15.1333 145.868 15.6027 147.106 16.2V10.44C147.106 8.264 146.807 6.664 146.21 5.64C145.612 4.57333 144.418 4.04 142.626 4.04H141.346V2.76H147.106C148.684 2.76 149.858 2.97333 150.626 3.4C151.436 3.784 152.012 4.50933 152.354 5.576C152.695 6.64266 152.866 8.264 152.866 10.44V45H149.666L147.426 42.12H147.106C146.167 43.1867 145.058 44.04 143.778 44.68C142.54 45.32 140.77 45.64 138.466 45.64ZM140.385 43.08C142.135 43.08 143.458 42.76 144.354 42.12C145.25 41.48 146.167 40.52 147.106 39.24V18.76C145.826 18.1627 144.716 17.6933 143.778 17.352C142.839 17.0107 141.922 16.84 141.026 16.84C138.295 16.84 136.268 18.0347 134.946 20.424C133.666 22.8133 133.026 25.992 133.026 29.96C133.026 33.8853 133.644 37.064 134.882 39.496C136.119 41.8853 137.954 43.08 140.385 43.08ZM173.82 45.64C170.919 45.64 168.465 44.9573 166.46 43.592C164.455 42.184 162.94 40.3067 161.916 37.96C160.892 35.5707 160.38 32.904 160.38 29.96C160.38 27.0587 160.892 24.4133 161.916 22.024C162.94 19.6347 164.412 17.7573 166.332 16.392C168.295 14.984 170.577 14.28 173.18 14.28C177.489 14.28 180.689 15.496 182.78 17.928C184.913 20.3173 185.98 23.7947 185.98 28.36L185.852 30.92H166.46C166.46 34.504 167.228 37.4267 168.764 39.688C170.3 41.9493 172.412 43.08 175.1 43.08C177.105 43.08 178.791 42.6533 180.156 41.8C181.564 40.9467 182.865 39.6667 184.06 37.96L185.34 38.92C183.932 41.2667 182.289 42.9733 180.412 44.04C178.535 45.1067 176.337 45.64 173.82 45.64ZM179.9 28.36C179.9 24.6053 179.345 21.7467 178.236 19.784C177.127 17.8213 175.441 16.84 173.18 16.84C171.9 16.84 170.748 17.352 169.724 18.376C168.7 19.3573 167.889 20.7227 167.292 22.472C166.737 24.2213 166.46 26.184 166.46 28.36H179.9ZM203.406 45.64C198.499 45.64 195.193 44.7867 193.486 43.08C192.761 42.3547 192.313 41.544 192.142 40.648C191.971 39.7093 191.886 38.28 191.886 36.36H193.166C193.55 38.4933 194.467 40.1573 195.918 41.352C197.411 42.504 199.481 43.08 202.126 43.08C204.473 43.08 206.222 42.6747 207.374 41.864C208.569 41.0533 209.166 39.9653 209.166 38.6C209.166 37.3627 208.697 36.296 207.758 35.4C206.862 34.504 205.411 33.6507 203.406 32.84L199.566 31.24C197.006 30.216 195.086 29.0213 193.806 27.656C192.526 26.2907 191.886 24.6053 191.886 22.6C191.886 19.9973 192.867 17.9707 194.83 16.52C196.793 15.0267 199.331 14.28 202.446 14.28C207.139 14.28 210.339 15.1333 212.046 16.84C212.771 17.5653 213.219 18.376 213.39 19.272C213.561 20.168 213.646 21.5973 213.646 23.56H212.366C212.025 21.4267 211.129 19.784 209.678 18.632C208.227 17.4373 206.243 16.84 203.726 16.84C201.721 16.84 200.142 17.2667 198.99 18.12C197.881 18.9307 197.326 19.9973 197.326 21.32C197.326 23.5387 199.033 25.352 202.446 26.76L206.286 28.36C209.187 29.5547 211.299 30.8347 212.622 32.2C213.945 33.5227 214.606 35.2293 214.606 37.32C214.606 39.9227 213.561 41.9707 211.47 43.464C209.379 44.9147 206.691 45.64 203.406 45.64ZM244.641 45.64C241.014 45.64 237.921 43.9333 235.361 40.52L227.681 30.28V45H221.921V10.44C221.921 8.264 221.622 6.664 221.025 5.64C220.427 4.57333 219.233 4.04 217.441 4.04H216.16V2.76H221.921C223.499 2.76 224.673 2.97333 225.441 3.4C226.251 3.784 226.827 4.50933 227.169 5.576C227.51 6.64266 227.681 8.264 227.681 10.44V29.32L235.681 19.08C236.79 17.7147 237.963 16.6907 239.201 16.008C240.438 15.2827 242.038 14.92 244.001 14.92H245.921V16.52C244.769 16.52 243.659 16.7547 242.593 17.224C241.526 17.6933 240.609 18.4187 239.841 19.4L232.801 28.36L240.801 38.6C242.038 40.2213 243.19 41.4373 244.257 42.248C245.366 43.0587 246.561 43.5707 247.841 43.784V45C246.902 45.4267 245.835 45.64 244.641 45.64ZM282.551 58.44C277.175 54.3867 273.164 50.0987 270.519 45.576C267.874 41.096 266.551 35.784 266.551 29.64C266.551 23.496 267.874 18.184 270.519 13.704C273.164 9.18133 277.175 4.89333 282.551 0.839996L283.191 1.8C275.938 8.15733 272.311 17.4373 272.311 29.64C272.311 41.8427 275.938 51.1227 283.191 57.48L282.551 58.44ZM305.284 46.28C301.316 46.28 297.817 45.2987 294.788 43.336C291.801 41.3733 289.497 38.6853 287.876 35.272C286.255 31.8587 285.444 28.0613 285.444 23.88C285.444 19.6987 286.255 15.9013 287.876 12.488C289.497 9.07467 291.801 6.38667 294.788 4.424C297.817 2.46133 301.316 1.48 305.284 1.48C309.252 1.48 312.729 2.46133 315.716 4.424C318.745 6.38667 321.071 9.07467 322.692 12.488C324.313 15.9013 325.124 19.6987 325.124 23.88C325.124 28.0613 324.313 31.8587 322.692 35.272C321.071 38.6853 318.745 41.3733 315.716 43.336C312.729 45.2987 309.252 46.28 305.284 46.28ZM305.284 43.72C308.057 43.72 310.447 42.9093 312.452 41.288C314.5 39.6667 316.057 37.384 317.124 34.44C318.191 31.4533 318.724 27.9333 318.724 23.88C318.724 19.8267 318.191 16.328 317.124 13.384C316.057 10.3973 314.5 8.09333 312.452 6.472C310.447 4.85066 308.057 4.04 305.284 4.04C302.511 4.04 300.1 4.85066 298.052 6.472C296.047 8.09333 294.511 10.3973 293.444 13.384C292.377 16.328 291.844 19.8267 291.844 23.88C291.844 27.9333 292.377 31.4533 293.444 34.44C294.511 37.384 296.047 39.6667 298.052 41.288C300.1 42.9093 302.511 43.72 305.284 43.72ZM346.111 46.088C343.764 46.088 341.46 45.768 339.199 45.128C336.937 44.488 335.081 43.5707 333.631 42.376C332.223 41.1813 331.519 39.816 331.519 38.28V31.432H332.671C333.396 35.6987 334.804 38.792 336.895 40.712C338.985 42.5893 341.865 43.528 345.535 43.528C347.839 43.528 349.801 42.952 351.423 41.8C353.087 40.648 353.919 39.048 353.919 37C353.919 35.208 353.364 33.6507 352.255 32.328C351.145 31.0053 349.353 29.6187 346.878 28.168L339.007 23.496C336.276 21.8747 334.335 20.232 333.183 18.568C332.073 16.904 331.519 14.8773 331.519 12.488C331.519 9.20266 332.649 6.57866 334.911 4.616C337.215 2.61066 340.223 1.608 343.935 1.608C346.111 1.608 348.265 1.928 350.399 2.568C352.532 3.16533 354.281 4.06133 355.647 5.256C357.055 6.408 357.759 7.752 357.759 9.288V16.136H356.607C355.881 11.8693 354.495 8.81867 352.447 6.984C350.441 5.10667 347.604 4.168 343.935 4.168C341.972 4.168 340.244 4.76533 338.751 5.96C337.257 7.15467 336.51 8.712 336.51 10.632C336.51 12.3813 337.044 13.832 338.111 14.984C339.22 16.136 341.055 17.48 343.615 19.016L351.487 23.688C354.388 25.4373 356.436 27.0587 357.631 28.552C358.825 30.0453 359.423 31.944 359.423 34.248C359.423 37.832 358.228 40.712 355.839 42.888C353.449 45.0213 350.207 46.088 346.111 46.088ZM380.236 46.088C377.889 46.088 375.585 45.768 373.324 45.128C371.062 44.488 369.206 43.5707 367.756 42.376C366.348 41.1813 365.644 39.816 365.644 38.28V31.432H366.796C367.521 35.6987 368.929 38.792 371.02 40.712C373.11 42.5893 375.99 43.528 379.66 43.528C381.964 43.528 383.926 42.952 385.548 41.8C387.212 40.648 388.044 39.048 388.044 37C388.044 35.208 387.489 33.6507 386.38 32.328C385.27 31.0053 383.478 29.6187 381.003 28.168L373.132 23.496C370.401 21.8747 368.46 20.232 367.308 18.568C366.198 16.904 365.644 14.8773 365.644 12.488C365.644 9.20266 366.774 6.57866 369.036 4.616C371.34 2.61066 374.348 1.608 378.06 1.608C380.236 1.608 382.39 1.928 384.524 2.568C386.657 3.16533 388.406 4.06133 389.772 5.256C391.18 6.408 391.884 7.752 391.884 9.288V16.136H390.732C390.006 11.8693 388.62 8.81867 386.572 6.984C384.566 5.10667 381.729 4.168 378.06 4.168C376.097 4.168 374.369 4.76533 372.876 5.96C371.382 7.15467 370.635 8.712 370.635 10.632C370.635 12.3813 371.169 13.832 372.236 14.984C373.345 16.136 375.18 17.48 377.74 19.016L385.612 23.688C388.513 25.4373 390.561 27.0587 391.756 28.552C392.95 30.0453 393.548 31.944 393.548 34.248C393.548 37.832 392.353 40.712 389.964 42.888C387.574 45.0213 384.332 46.088 380.236 46.088ZM396.46 57.48C403.713 51.1227 407.34 41.8427 407.34 29.64C407.34 17.4373 403.713 8.15733 396.46 1.8L397.1 0.839996C402.476 4.89333 406.487 9.18133 409.132 13.704C411.777 18.184 413.1 23.496 413.1 29.64C413.1 35.784 411.777 41.096 409.132 45.576C406.487 50.0987 402.476 54.3867 397.1 58.44L396.46 57.48Z" fill="white"/>
</svg>
