<svg width="22" height="22" viewBox="0 0 22 22" fill="none" xmlns="http://www.w3.org/2000/svg">
<path fill-rule="evenodd" clip-rule="evenodd" d="M5.76202 1.02393C3.14524 1.02393 1.02393 3.14524 1.02393 5.76202V16.2382C1.02393 18.855 3.14524 20.9763 5.76202 20.9763H16.2382C18.855 20.9763 20.9763 18.855 20.9763 16.2382V5.76202C20.9763 3.14524 18.855 1.02393 16.2382 1.02393H5.76202ZM0.0239258 5.76202C0.0239258 2.59296 2.59296 0.0239258 5.76202 0.0239258H16.2382C19.4073 0.0239258 21.9763 2.59296 21.9763 5.76202V16.2382C21.9763 19.4073 19.4073 21.9763 16.2382 21.9763H5.76202C2.59296 21.9763 0.0239258 19.4073 0.0239258 16.2382V5.76202ZM11.5868 7.30404C10.8189 7.19017 10.0347 7.32133 9.34572 7.67884C8.65671 8.03636 8.09797 8.60203 7.74898 9.29539C7.39999 9.98876 7.27851 10.7745 7.40183 11.5409C7.52516 12.3073 7.88699 13.0153 8.43588 13.5642C8.98477 14.113 9.69275 14.4749 10.4591 14.5982C11.2255 14.7215 12.0113 14.6 12.7046 14.2511C13.398 13.9021 13.9637 13.3433 14.3212 12.6543C14.6787 11.9653 14.8099 11.1811 14.696 10.4133C14.5799 9.63003 14.2149 8.90492 13.655 8.34503C13.0951 7.78515 12.37 7.42018 11.5868 7.30404ZM8.88515 6.79122C9.76086 6.33683 10.7575 6.17014 11.7335 6.31485C12.7289 6.46247 13.6505 6.92633 14.3621 7.63793C15.0737 8.34952 15.5376 9.27112 15.6852 10.2666C15.8299 11.2425 15.6632 12.2392 15.2088 13.1149C14.7544 13.9906 14.0355 14.7007 13.1542 15.1443C12.273 15.5878 11.2743 15.7422 10.3003 15.5855C9.32621 15.4288 8.42639 14.9689 7.72877 14.2713C7.03116 13.5736 6.57127 12.6738 6.41453 11.6998C6.2578 10.7257 6.41219 9.72705 6.85574 8.8458C7.2993 7.96456 8.00944 7.24561 8.88515 6.79122ZM16.762 4.73821C16.4859 4.73821 16.262 4.96207 16.262 5.23821C16.262 5.51435 16.4859 5.73821 16.762 5.73821H16.772C17.0482 5.73821 17.272 5.51435 17.272 5.23821C17.272 4.96207 17.0482 4.73821 16.772 4.73821H16.762Z" fill="black"/>
</svg>
