<svg width="24" height="25" viewBox="0 0 24 25" fill="none" xmlns="http://www.w3.org/2000/svg">
<g clip-path="url(#clip0_554_2249)">
<path d="M21 10.1357C21 17.1357 12 23.1357 12 23.1357C12 23.1357 3 17.1357 3 10.1357C3 7.74879 3.94821 5.45961 5.63604 3.77178C7.32387 2.08395 9.61305 1.13574 12 1.13574C14.3869 1.13574 16.6761 2.08395 18.364 3.77178C20.0518 5.45961 21 7.74879 21 10.1357Z" stroke="black" stroke-linecap="round" stroke-linejoin="round"/>
<path d="M12 13.1357C13.6569 13.1357 15 11.7926 15 10.1357C15 8.47889 13.6569 7.13574 12 7.13574C10.3431 7.13574 9 8.47889 9 10.1357C9 11.7926 10.3431 13.1357 12 13.1357Z" stroke="black" stroke-linecap="round" stroke-linejoin="round"/>
</g>
<defs>
<clipPath id="clip0_554_2249">
<rect width="24" height="24" fill="white" transform="translate(0 0.135742)"/>
</clipPath>
</defs>
</svg>
