<svg width="109" height="32" viewBox="0 0 109 32" fill="none" xmlns="http://www.w3.org/2000/svg">
<g clip-path="url(#clip0_425_1959)">
<path d="M0.513973 14.1557C0.513973 9.50209 0.513973 4.84614 0.509277 0.192531C0.509277 0.0352189 0.537453 0 0.69946 0C36.5947 0.00469587 72.4876 0.00469587 108.383 0C108.557 0 108.585 0.0399146 108.585 0.20427C108.58 10.7277 108.58 21.2488 108.585 31.7722C108.585 31.9601 108.552 32 108.359 32C72.4805 31.9953 36.6017 31.9953 0.722939 32C0.544496 32 0.509277 31.9554 0.509277 31.784C0.513973 25.9235 0.513973 20.0631 0.513973 14.2027C0.816857 14.09 1.13148 14.1275 1.43906 14.1487C2.42284 14.2167 3.38784 14.3764 4.29884 14.7779C5.96118 15.5152 7.00366 16.7502 7.33942 18.5557C7.34881 18.6003 7.35116 18.6496 7.36759 18.6919C7.36994 18.6989 7.37699 18.7036 7.40986 18.7412C7.64935 18.5041 7.89353 18.2716 8.14711 18.0509C9.2342 17.1024 10.3988 16.2806 11.7958 15.8415C12.4673 15.6302 13.1529 15.5738 13.8502 15.7006C14.2165 15.7664 14.5476 15.919 14.9045 16.128C14.4771 15.4494 14.0169 14.853 13.437 14.3529C12.1903 13.2729 10.7204 12.7493 9.09802 12.5779C7.57186 12.4159 6.07153 12.5849 4.5806 12.9042C3.30567 13.179 2.073 13.5898 0.866163 14.0829C0.755811 14.1252 0.645458 14.2027 0.513973 14.1557Z" fill="#FDFDFC"/>
<path d="M0.51416 14.1557C1.28428 13.8481 2.05206 13.5382 2.84566 13.2963C4.52678 12.7821 6.24077 12.4417 8.00642 12.4534C9.68284 12.4652 11.2794 12.7939 12.7117 13.726C13.6485 14.3365 14.3811 15.1395 14.9493 16.0974C14.9751 16.1397 15.0291 16.1796 14.9962 16.243C13.5968 15.3602 12.2069 15.6372 10.8286 16.2852C9.58188 16.8722 8.5347 17.741 7.54857 18.6848C7.48283 18.7482 7.43352 18.8304 7.32317 18.8703C7.28795 18.605 7.25273 18.3467 7.18229 18.0955C6.67514 16.3064 5.46126 15.2099 3.73787 14.6276C2.69539 14.2754 1.61534 14.1604 0.516508 14.2003C0.51416 14.1862 0.51416 14.1721 0.51416 14.1557Z" fill="#283C90"/>
<path d="M68.4867 29.2952C65.3546 29.2952 62.2201 29.2952 59.0879 29.2952C53.3519 29.2952 47.6159 29.2952 41.8799 29.2952C40.6027 29.2952 39.3254 29.3069 38.0458 29.3093C37.9143 29.3093 37.7804 29.3022 37.649 29.2905C37.0315 29.2365 36.7544 28.9454 36.7544 28.3232C36.7544 27.755 36.7896 27.1891 36.7873 26.6209C36.7849 25.4775 36.7661 24.334 36.7614 23.1906C36.7614 22.9746 36.7779 22.7539 36.8037 22.5402C36.8577 22.1152 37.0479 21.9321 37.4705 21.8499C37.717 21.8029 37.9683 21.8053 38.2148 21.8053C58.245 21.8029 78.2729 21.8029 98.3031 21.8053C98.599 21.8053 98.8948 21.7982 99.1883 21.8499C99.6603 21.9321 99.8622 22.1387 99.9279 22.613C99.9866 23.0403 99.9678 23.4676 99.9702 23.895C99.9749 25.3436 99.9678 26.79 99.9655 28.2386C99.9631 29.098 99.7776 29.2835 98.9253 29.2835C88.7776 29.2835 78.6321 29.2835 68.4844 29.2835C68.4867 29.2905 68.4867 29.2929 68.4867 29.2952Z" fill="#293C90"/>
<path d="M91.7034 15.9402C91.7597 14.5502 91.8959 13.1649 92.0016 11.7773C92.0814 10.7325 92.234 9.68997 92.1659 8.63575C92.1377 8.19199 92.0391 7.75997 91.9593 7.32325C91.8255 6.60009 92.0673 6.32538 92.7975 6.38173C93.1474 6.40756 93.4948 6.43104 93.8423 6.48269C94.3542 6.56018 94.6876 6.83488 94.8778 7.30917C95.1149 7.90319 95.2746 8.51835 95.4389 9.13351C95.5657 9.60545 95.6902 10.0797 95.8099 10.5517C95.8827 10.8405 96.0048 11.1058 96.1269 11.3758C96.1926 11.519 96.2842 11.5354 96.418 11.5354C96.58 11.5354 96.5566 11.4157 96.5777 11.3265C96.8054 10.3732 96.9956 9.41526 97.0238 8.42913C97.0426 7.77875 97.3689 7.25986 97.8221 6.81845C98.2119 6.43808 98.7143 6.3606 99.2285 6.36999C99.5314 6.37469 99.7004 6.57661 99.7826 6.93819C99.8836 7.37256 99.8859 7.81867 99.9164 8.26008C100.013 9.55614 100.177 10.8428 100.32 12.1342C100.471 13.4866 100.654 14.8319 100.682 16.1984C100.703 17.194 100.229 17.4569 99.2896 17.6049C99.097 17.6354 98.8998 17.6189 98.712 17.5626C98.3433 17.4546 98.1625 17.093 98.3433 16.7549C98.9233 15.6725 99.0383 14.5126 98.9632 13.3152C98.8974 12.275 98.7941 11.2396 98.7566 10.1971C98.7401 9.73928 98.557 9.32369 98.3997 8.90107C98.3292 8.71323 98.1884 8.84472 98.0804 8.82828C97.9935 8.81419 97.9324 8.83532 97.909 8.95742C97.6554 10.2558 97.4488 11.5589 97.3079 12.8738C97.2375 13.5382 97.1506 14.2004 97.0684 14.8648C97.0402 15.0832 96.9111 15.2499 96.7585 15.3978C96.6974 15.4565 96.6293 15.4706 96.5448 15.4354C96.4509 15.3978 96.3499 15.379 96.2537 15.3532C95.8451 15.2452 95.5775 15.0245 95.4272 14.5948C94.906 13.0898 94.4857 11.5566 94.1241 10.0046C94.0372 9.63362 93.9574 9.2603 93.577 9.04899C93.4808 8.99498 93.4479 8.99968 93.3728 9.07246C93.2061 9.23447 93.091 9.40352 93.0699 9.65006C92.9689 10.8099 92.7553 11.9628 92.7811 13.1344C92.8093 14.2872 93.091 15.3626 93.7836 16.3041C93.9316 16.506 93.9668 16.7455 94.0372 16.9733C94.0654 17.0648 94.0231 17.0907 93.9503 17.1259C93.3962 17.3818 92.8163 17.3842 92.2364 17.2738C91.91 17.2128 91.7409 16.9756 91.7057 16.5905C91.6893 16.3769 91.7034 16.1562 91.7034 15.9402Z" fill="#283C90"/>
<path d="M86.0237 17.2151C85.4414 17.4264 84.8803 17.5697 84.2886 17.5673C83.3119 17.5626 82.7531 17.0179 82.7202 16.0435C82.7014 15.4683 82.8446 14.9188 82.9738 14.3647C83.3964 12.5662 83.8401 10.7724 84.19 8.95509C84.2534 8.62873 84.1876 8.32115 84.1031 8.01357C84.0491 7.81869 83.981 7.62851 83.9411 7.43128C83.9129 7.28806 83.8542 7.30214 83.7509 7.35145C83.4504 7.49467 83.1405 7.62381 82.8446 7.77643C82.6967 7.85391 82.6286 7.81165 82.5488 7.68721C82.2342 7.18475 82.429 6.66585 83.016 6.54376C83.6335 6.41697 84.2698 6.41932 84.8991 6.40758C85.8875 6.3888 86.876 6.40289 87.8645 6.48506C88.1087 6.50619 88.2989 6.60011 88.4609 6.76447C88.7309 7.03918 88.9422 7.3538 89.0385 7.73416C89.6278 10.0539 90.1232 12.3925 90.6163 14.7334C90.7595 15.4166 90.8206 16.1163 90.7266 16.8183C90.682 17.147 90.4801 17.349 90.1631 17.4311C89.5808 17.5814 88.9868 17.5603 88.3975 17.4992C87.9819 17.457 87.8715 17.1893 88.0523 16.8089C88.0829 16.7455 88.1157 16.6821 88.1556 16.6258C88.8765 15.6091 89.0103 14.4821 88.7778 13.2894C88.7121 12.9536 88.6346 12.6202 88.5337 12.2939C88.097 10.8968 86.5966 10.446 85.4508 11.3594C83.9247 12.5733 83.7697 14.8484 85.1127 16.2595C85.4086 16.5671 85.7021 16.877 86.0237 17.2151Z" fill="#283C90"/>
<path d="M42.8802 17.309C42.0255 17.2831 41.1662 17.2714 40.3233 17.107C39.2315 16.8957 38.7361 16.1655 38.877 15.0643C39.0601 13.6204 39.3841 12.2045 39.626 10.7723C39.8279 9.56077 40.0063 8.34689 40.0321 7.11423C40.0462 6.44741 40.3702 6.17975 41.0347 6.23845C41.5301 6.28306 42.0279 6.24314 42.5257 6.23845C43.0985 6.23375 43.6761 6.16566 44.249 6.29245C44.6271 6.37697 44.8501 6.58829 44.9065 6.98039C44.9299 7.15179 44.9487 7.32084 44.9417 7.49224C44.8971 8.41968 45.1248 9.31424 45.2939 10.2135C45.5686 11.6786 45.8574 13.1414 46.1321 14.6065C46.1931 14.9352 46.1931 15.2756 46.1344 15.6067C45.9607 16.5741 45.2986 17.1704 44.3054 17.2902C43.8288 17.3418 43.3545 17.323 42.8802 17.309Z" fill="#283C90"/>
<path d="M58.5999 17.3066C57.7452 17.2808 56.8882 17.2526 56.043 17.1023C55.0662 16.9286 54.5497 16.2359 54.6507 15.2498C54.7821 13.9655 55.0662 12.7046 55.2869 11.4368C55.5335 10.0209 55.7941 8.60749 55.8011 7.16116C55.8058 6.44739 56.1792 6.15859 56.8882 6.23373C57.3531 6.28303 57.818 6.24782 58.2829 6.23608C58.8323 6.22199 59.3888 6.18207 59.9359 6.27834C60.4571 6.36991 60.6684 6.61409 60.6966 7.15177C60.7154 7.50161 60.7013 7.85146 60.7271 8.2013C60.7881 9.03247 60.9901 9.84015 61.1403 10.6572C61.3775 11.9392 61.6428 13.2165 61.8846 14.4985C61.9715 14.961 61.9762 15.4306 61.8424 15.8861C61.5747 16.7877 60.8938 17.1634 60.0227 17.2878C59.5508 17.3535 59.0742 17.3207 58.5999 17.3066Z" fill="#283C90"/>
<path d="M104.631 17.518C103.992 17.518 103.354 17.5344 102.715 17.5133C102.039 17.4898 101.764 17.2033 101.731 16.5271C101.717 16.2078 101.752 15.8908 101.799 15.5739C101.865 15.1278 101.912 14.6793 102.034 14.2449C102.208 13.6321 102.553 13.3762 103.187 13.4349C103.948 13.5053 103.762 13.3926 103.692 14.0806C103.666 14.3271 103.614 14.5713 103.614 14.8225C103.614 15.4353 103.978 15.9895 104.546 16.2336C104.718 16.3064 104.884 16.3205 105.068 16.2689C105.861 16.0505 106.476 15.3109 106.519 14.4891C106.577 13.3715 105.946 11.8383 104.382 11.5143C103.91 11.4157 103.455 11.4885 102.992 11.5519C102.137 11.6669 101.912 11.4861 101.917 10.6221C101.921 9.56551 101.992 8.50894 102.104 7.45706C102.107 7.44063 102.109 7.42654 102.112 7.4101C102.212 6.61415 102.36 6.48267 103.152 6.4451C104.178 6.39814 105.206 6.40519 106.232 6.45215C107.171 6.49441 107.918 7.5862 107.624 8.47606C107.54 8.72964 107.387 8.91043 107.127 8.98791C106.993 9.02783 106.859 9.07009 106.723 9.09592C106.284 9.18044 105.997 8.96209 105.936 8.51128C105.908 8.29527 105.925 8.07692 105.871 7.86325C105.786 7.54159 105.61 7.40306 105.277 7.43593C104.833 7.48054 104.429 7.6402 104.088 7.93134C103.605 8.34458 103.614 9.28845 104.103 9.75334C104.593 10.2206 105.185 10.5329 105.779 10.8428C106.446 11.1926 107.07 11.5941 107.573 12.1623C108.559 13.2729 108.672 14.5502 108.28 15.919C108.207 16.1726 108.113 16.4191 107.974 16.6469C107.624 17.2198 107.11 17.5086 106.448 17.5227C105.84 17.5367 105.234 17.525 104.626 17.525C104.631 17.5227 104.631 17.5203 104.631 17.518Z" fill="#283C90"/>
<path d="M49.8184 12.5826C49.9147 12.2234 49.9945 11.9088 50.0837 11.5965C50.1213 11.4627 50.2035 11.3758 50.3584 11.35C51.253 11.195 52.1546 11.1668 53.0562 11.1645C53.1619 11.1645 53.2159 11.2044 53.2464 11.2959C53.3239 11.5331 53.3873 11.7749 53.3403 12.0285C53.0609 13.5335 53.2159 14.9986 53.7465 16.4285C53.7653 16.4802 53.7864 16.5295 53.8052 16.5811C53.9484 17.0202 53.7653 17.3184 53.3004 17.3301C51.8376 17.3677 50.3725 17.4076 48.9121 17.2808C47.8156 17.1869 47.076 16.3581 47.0831 15.2663C47.0901 14.2074 47.2286 13.1579 47.346 12.1083C47.5433 10.3544 47.7992 8.60756 47.832 6.83957C47.8391 6.42633 48.0152 6.25963 48.4214 6.25728C49.6282 6.25024 50.8351 6.24554 52.0442 6.24084C52.1992 6.24084 52.3542 6.25258 52.5044 6.29954C52.7345 6.37233 52.9036 6.52964 52.9224 6.75504C52.9693 7.34672 53.1971 7.90318 53.2464 8.49251C53.2605 8.64748 53.2558 8.80244 53.2276 8.95741C53.1478 9.40821 52.8871 9.67118 52.4387 9.71579C52.0724 9.75336 51.7085 9.71814 51.3493 9.63361C51.2319 9.60544 51.2272 9.56552 51.2413 9.45986C51.2624 9.3049 51.3539 9.18985 51.4291 9.06306C51.8916 8.2812 51.4948 7.44064 50.5932 7.28333C50.1542 7.20819 49.8348 7.40777 49.5883 7.73883C49.1727 8.29529 48.952 8.94567 48.7759 9.60778C48.3228 11.3124 48.5458 12.9653 49.1704 14.5854C49.2901 14.8953 49.4005 15.2147 49.593 15.4917C50.1142 16.2384 51.0158 16.2125 51.4878 15.4354C51.5324 15.3626 51.5747 15.2874 51.6075 15.21C51.9386 14.4398 52.0302 13.6368 51.8987 12.8127C51.8141 12.2774 51.5019 12.0755 50.9642 12.1764C50.5768 12.2469 50.2269 12.4136 49.8184 12.5826Z" fill="#283C90"/>
<path d="M6.58121 3.43738C6.82305 3.53599 7.06489 3.62991 7.30437 3.73557C9.20385 4.56908 10.9718 5.61391 12.5121 7.01563C13.5006 7.91254 14.3341 8.9292 14.8999 10.1501C15.6513 11.7678 15.7546 13.4372 15.2639 15.1817C15.2122 14.9892 15.1793 14.8249 15.1253 14.6652C14.8577 13.881 14.327 13.3057 13.6485 12.8573C12.7351 12.2539 11.7091 11.958 10.6455 11.7749C9.76971 11.6246 8.88688 11.5683 8.00641 11.5636C7.97354 11.5237 7.99467 11.4978 8.01345 11.4744C9.22733 9.89655 9.37056 8.18725 8.61922 6.37934C8.17311 5.30868 7.46638 4.41177 6.65869 3.59234C6.62582 3.55947 6.58591 3.53599 6.54834 3.50782C6.55773 3.48434 6.56947 3.46086 6.58121 3.43738Z" fill="#283C90"/>
<path d="M17.2642 14.7379C18.2245 14.5783 18.903 14.0617 19.436 13.3315C20.0629 12.4722 20.3775 11.4861 20.5771 10.4553C20.7555 9.52787 20.8236 8.59105 20.8189 7.64953C20.8189 7.58378 20.8189 7.51569 20.8189 7.40769C21.2134 7.71527 21.6008 7.95476 22.0234 8.1285C23.5238 8.74132 24.9748 8.56522 26.3882 7.84675C27.2218 7.42412 27.9473 6.85123 28.6141 6.2032C28.715 6.10458 28.8043 5.99893 28.9099 5.88153C28.9592 5.9731 28.9099 6.02476 28.8935 6.07171C28.0247 8.28112 26.8836 10.3285 25.2659 12.0848C24.0755 13.3761 22.6926 14.3811 20.9575 14.8248C19.7765 15.1277 18.6001 15.0901 17.4238 14.7966C17.3792 14.7849 17.3369 14.7638 17.2642 14.7379Z" fill="#283C90"/>
<path d="M15.6702 17.2198C14.3507 17.4639 13.5594 18.3374 13.003 19.4738C12.477 20.5491 12.2681 21.709 12.1577 22.89C12.1084 23.4159 12.1014 23.9442 12.0849 24.4678C12.0497 24.496 12.0239 24.4796 11.9981 24.4608C10.3357 23.2023 8.56303 23.1178 6.70347 23.963C5.72907 24.4068 4.9073 25.0689 4.14422 25.8085C4.11135 25.8414 4.07847 25.8742 4.04091 25.9048C4.02917 25.9141 4.01273 25.9141 3.9963 25.9188C3.94699 25.8625 4.00099 25.8179 4.01978 25.7733C4.88382 23.6226 6.01317 21.6339 7.58629 19.9152C8.6006 18.807 9.76517 17.903 11.188 17.3653C12.6109 16.8276 14.0572 16.7901 15.5223 17.1611C15.5599 17.1704 15.5974 17.1822 15.6327 17.1963C15.6467 17.1986 15.6585 17.2104 15.6702 17.2198Z" fill="#283C90"/>
<path d="M17.7148 16.79C18.1022 18.4641 19.302 19.2436 20.7437 19.7531C21.8918 20.157 23.0893 20.2955 24.2984 20.3284C24.5309 20.3354 24.7633 20.3284 24.9653 20.3284C25.0263 20.3871 25.0028 20.4129 24.984 20.4364C23.7138 22.1386 23.6575 23.9395 24.552 25.8132C25.0005 26.75 25.6508 27.5412 26.3717 28.2808C26.4092 28.3207 26.4491 28.3583 26.4867 28.3982C26.4938 28.4076 26.4938 28.4241 26.5055 28.4687C26.2519 28.3654 26.0148 28.2738 25.7823 28.1752C23.7537 27.3041 21.8683 26.2006 20.2576 24.6744C18.9405 23.4253 17.9426 21.9766 17.5646 20.164C17.3486 19.1333 17.3955 17.9147 17.7148 16.79Z" fill="#283C90"/>
<path d="M16.7781 17.4357C15.9047 18.7764 16.1278 20.1218 16.7265 21.4601C17.297 22.7327 18.1681 23.7963 19.1237 24.7965C19.22 24.8951 19.3116 24.9984 19.4289 25.1229C18.7175 25.2027 18.0789 25.4023 17.4896 25.7451C16.2428 26.4682 15.5149 27.5812 15.1087 28.9312C14.8434 29.8093 14.7636 30.7133 14.7378 31.6243C14.7354 31.6994 14.7378 31.7769 14.719 31.8567C14.4396 31.3191 14.2283 30.7579 14.0334 30.1897C13.5122 28.6706 13.1341 27.1186 13.0214 25.5126C12.89 23.6225 13.0754 21.7841 14.0334 20.0959C14.6744 18.9666 15.5877 18.1049 16.7077 17.4569C16.7265 17.4451 16.7476 17.4451 16.7781 17.4357Z" fill="#283C90"/>
<path d="M16.2381 14.4679C16.9166 13.456 16.9072 12.3736 16.5738 11.2654C16.2029 10.0374 15.4938 8.9996 14.6908 8.02286C14.355 7.61432 13.9982 7.22691 13.6084 6.83481C13.8573 6.7902 14.0803 6.76202 14.294 6.70802C16.0502 6.26191 17.182 5.13255 17.8135 3.47022C18.1939 2.47 18.3277 1.42516 18.3395 0.36155C18.3395 0.277024 18.3395 0.194847 18.3395 0.0727539C18.478 0.246501 18.5273 0.424944 18.5931 0.591647C19.3186 2.39486 19.8281 4.25443 19.9995 6.19382C20.1521 7.9172 20.0253 9.61007 19.3092 11.2184C18.6917 12.606 17.7032 13.6626 16.4001 14.4351C16.3555 14.4609 16.3156 14.5079 16.2381 14.4679Z" fill="#283C90"/>
<path d="M81.0131 8.38215C80.7524 8.18258 80.52 8.01587 80.3157 7.8116C79.7851 7.28332 79.1676 7.15653 78.475 7.43359C77.8199 7.69421 77.2822 8.07223 77.0944 8.80478C77.0098 9.1288 77.0169 9.45281 77.0779 9.77683C77.2118 10.4976 77.6414 10.5916 78.2167 10.2441C78.6299 9.99284 79.0878 9.88718 79.5456 9.77448C79.7217 9.73222 79.8626 9.80735 79.9753 9.94823C80.1443 10.1548 80.257 10.392 80.3533 10.6409C80.412 10.7935 80.4777 10.9414 80.527 11.0964C80.5576 11.195 80.6914 11.3171 80.5975 11.3852C80.4707 11.4767 80.3228 11.5753 80.1255 11.5166C79.8203 11.4274 79.508 11.364 79.1887 11.3335C78.597 11.2795 78.1157 11.4697 77.7753 11.9674C77.0756 12.9911 77.1061 14.0759 77.564 15.1653C77.7541 15.6138 78.1251 15.9308 78.6252 16.0388C78.9985 16.1186 79.3507 16.0294 79.6818 15.8533C79.8344 15.7735 79.8954 15.6373 79.9213 15.4753C80.0011 14.9611 79.98 14.468 79.6372 14.036C79.5667 13.9468 79.5198 13.8388 79.4423 13.7026C79.9283 13.712 80.3744 13.5922 80.8323 13.6767C81.053 13.719 81.2079 13.8317 81.276 14.0407C81.424 14.4915 81.5719 14.9399 81.5367 15.426C81.5038 15.8674 81.6071 16.3088 81.5202 16.7502C81.4333 17.1799 81.2408 17.3912 80.8064 17.471C80.203 17.5814 79.5949 17.525 78.9892 17.4921C77.8152 17.4311 76.6436 17.3489 75.4696 17.2832C75.3052 17.2738 75.2372 17.255 75.2912 17.0648C75.8124 15.2146 75.8781 13.3246 75.7748 11.4227C75.6856 9.76039 75.4719 8.10979 75.3099 6.4545C75.2982 6.3324 75.3029 6.26901 75.4532 6.27136C76.9558 6.2831 78.4609 6.21266 79.9612 6.30423C80.5998 6.34414 80.9098 6.60946 81.0248 7.23636C81.0905 7.60264 81.0694 7.97361 81.0131 8.38215Z" fill="#283C90"/>
<path d="M17.9735 15.6984C18.5534 16.1022 19.2014 16.2712 19.9011 16.2501C20.8168 16.2243 21.6527 15.9191 22.4463 15.4894C23.531 14.9048 24.4678 14.1252 25.346 13.2706C25.4282 13.1908 25.4915 13.0898 25.5949 12.9583C25.6723 13.3105 25.7123 13.5852 25.7921 13.8482C26.3368 15.6584 27.6 16.7314 29.3586 17.2809C30.3471 17.5908 31.3684 17.6777 32.4015 17.6612C32.4226 17.7199 32.3663 17.7223 32.3405 17.734C30.1639 18.6849 27.9123 19.3306 25.5268 19.4363C24.017 19.502 22.5449 19.3283 21.1526 18.692C19.7931 18.0698 18.7577 17.093 17.9946 15.8181C17.9782 15.7852 17.9429 15.7571 17.9735 15.6984Z" fill="#283C90"/>
<path d="M67.3011 9.01838C67.0686 8.56758 66.9301 8.14965 66.9254 7.69885C66.916 6.8935 67.4748 6.34409 68.3694 6.2666C68.4234 6.26191 68.4774 6.25721 68.5314 6.25721C69.9871 6.25956 71.4452 6.24078 72.9009 6.26895C74.1664 6.29243 74.8826 7.32318 74.5163 8.5441C74.4529 8.75776 74.3824 8.97143 74.2369 9.171C74.0068 8.82351 73.7861 8.4854 73.5583 8.15434C73.401 7.9219 73.2343 7.6965 72.9995 7.53214C72.6403 7.28091 72.2998 7.32787 72.0486 7.68711C71.7457 8.11913 71.6072 8.61689 71.5931 9.13343C71.5555 10.4788 71.4992 11.8218 71.5814 13.1672C71.6471 14.2355 71.8138 15.2827 72.1683 16.2946C72.2223 16.4496 72.2787 16.6022 72.2904 16.7666C72.3186 17.1117 72.1942 17.2761 71.8443 17.3183C71.5579 17.3536 71.2691 17.3183 70.9803 17.3089C70.56 17.2949 70.1397 17.2831 69.7194 17.2761C69.5481 17.2737 69.4659 17.2362 69.5316 17.0366C69.6161 16.7783 69.6748 16.513 69.7406 16.2477C69.8298 15.9002 69.8627 15.5456 69.8674 15.1864C69.8909 13.6532 69.8721 12.1224 69.8462 10.5892C69.8368 9.99982 69.7993 9.40814 69.7852 8.81881C69.7781 8.53941 69.6772 8.30461 69.5034 8.09799C69.3485 7.91485 69.1841 7.73641 69.0338 7.54858C68.9681 7.4664 68.9212 7.4711 68.846 7.53214C68.3013 7.97355 67.6603 8.314 67.3011 9.01838Z" fill="#283C90"/>
<path d="M31.0773 8.90337C30.4786 8.11682 30.4762 6.68458 31.6596 6.29247C31.8239 6.23847 31.993 6.21029 32.1644 6.21029C33.7305 6.2009 35.2965 6.22203 36.8603 6.29247C37.9262 6.33943 38.5719 7.25512 38.3254 8.32578C38.2643 8.5911 38.1704 8.84468 37.9943 9.08417C37.7994 8.78598 37.6186 8.49953 37.4285 8.21778C37.2453 7.94777 37.0598 7.67775 36.7851 7.48522C36.4094 7.21991 36.0526 7.27626 35.806 7.66601C35.4961 8.15438 35.3998 8.71084 35.3998 9.272C35.3975 10.5399 35.3364 11.8054 35.3998 13.0733C35.4679 14.4492 35.7004 15.7899 36.2662 17.0554C36.2756 17.0765 36.2803 17.1 36.292 17.1446C35.4186 17.2221 34.5593 17.3465 33.6882 17.3254C33.4276 17.3207 33.127 16.8183 33.228 16.5764C33.7962 15.2099 33.8948 13.773 33.8291 12.3196C33.7798 11.2396 33.7305 10.1619 33.6248 9.08651C33.599 8.82355 33.5497 8.56293 33.4863 8.307C33.4182 8.04168 33.2679 7.83037 33.0707 7.64723C32.857 7.45 32.6246 7.41478 32.364 7.55096C31.9554 7.76697 31.622 8.06047 31.3755 8.45257C31.2769 8.60284 31.1783 8.75076 31.0773 8.90337Z" fill="#283C90"/>
<path d="M70.9331 18.7318C58.5125 18.7318 46.0896 18.7318 33.6691 18.7295C33.5564 18.7295 33.399 18.8023 33.4014 18.5628C33.4037 18.3867 33.453 18.3186 33.6268 18.3491C33.6409 18.3515 33.6573 18.3491 33.6738 18.3491C58.5243 18.3491 83.3748 18.3491 108.228 18.3538C108.322 18.3538 108.484 18.2505 108.5 18.4853C108.516 18.6943 108.448 18.7365 108.246 18.7365C95.8095 18.7318 83.3725 18.7318 70.9331 18.7318Z" fill="#2A3D91"/>
<path d="M26.5223 5.92621C26.5199 6.90295 25.7357 7.69185 24.759 7.70125C23.7869 7.71064 22.9769 6.89356 22.9839 5.91447C22.991 4.93538 23.7775 4.16056 24.7613 4.16291C25.7381 4.16291 26.5246 4.94947 26.5223 5.92621Z" fill="#283C90"/>
<path d="M4.72414 8.00182C4.71945 7.02273 5.506 6.22678 6.47805 6.22443C7.47123 6.22208 8.26952 7.00864 8.27187 7.99008C8.27187 8.95038 7.48296 9.75103 6.52501 9.75807C5.52714 9.76512 4.72884 8.9856 4.72414 8.00182Z" fill="#283C90"/>
<path d="M17.8909 30.9693C16.9095 30.9693 16.1323 30.1874 16.1323 29.2036C16.1323 28.2245 16.9189 27.4333 17.8933 27.4286C18.8653 27.4262 19.6636 28.2198 19.666 29.1942C19.666 30.1898 18.8865 30.9693 17.8909 30.9693Z" fill="#283C90"/>
<path d="M31.4764 14.8976C31.4717 15.8767 30.6875 16.6562 29.7037 16.6562C28.7129 16.6562 27.9287 15.8626 27.9381 14.8718C27.9475 13.8833 28.7317 13.1249 29.7436 13.1296C30.7016 13.1319 31.4811 13.9279 31.4764 14.8976Z" fill="#283C90"/>
<path d="M3.73324 19.1615C2.75415 19.1615 1.96524 18.3749 1.9629 17.4005C1.96055 16.4144 2.76354 15.6184 3.74733 15.6278C4.72407 15.6372 5.51767 16.4355 5.50828 17.4029C5.50123 18.3796 4.71233 19.1615 3.73324 19.1615Z" fill="#283C90"/>
<path d="M16.8417 3.04056C16.8347 4.01965 16.0411 4.80151 15.0644 4.79447C14.0712 4.78742 13.2893 3.99147 13.3034 3.00299C13.3151 2.02625 14.1111 1.25143 15.0925 1.26083C16.0693 1.27022 16.8488 2.06382 16.8417 3.04056Z" fill="#283C90"/>
<path d="M6.4917 26.008C6.4917 25.0148 7.27356 24.24 8.27378 24.2424C9.24817 24.2447 10.0418 25.0477 10.03 26.0174C10.0183 26.9989 9.23174 27.7737 8.25265 27.769C7.26417 27.7666 6.4917 26.9942 6.4917 26.008Z" fill="#283C90"/>
<path d="M28.337 24.4584C28.337 25.4375 27.5598 26.2194 26.5761 26.2287C25.604 26.2381 24.7799 25.4164 24.7916 24.4467C24.8057 23.4676 25.597 22.6904 26.5737 22.6928C27.5575 22.6975 28.337 23.477 28.337 24.4584Z" fill="#283C90"/>
<path d="M57.0665 26.3673C57.4046 26.0409 57.4844 25.6394 57.5619 25.2356C57.623 24.9163 57.6676 24.5946 57.7967 24.2917C57.9399 23.9583 58.1865 23.7399 58.5363 23.6366C58.6255 23.6108 58.6889 23.6202 58.7688 23.6742C58.9261 23.7799 58.9613 23.8785 58.8955 24.071C58.5316 25.1393 58.1959 26.217 57.8061 27.2783C57.6817 27.6187 57.4774 27.9381 57.1088 27.9427C56.7566 27.9474 56.5664 27.6211 56.4373 27.3088C56.1931 26.7218 56.0264 26.109 55.8315 25.5056C55.8033 25.4187 55.7751 25.3342 55.7282 25.2004C55.4817 25.9423 55.2962 26.642 55.0355 27.3158C55.0074 27.3886 54.9839 27.4638 54.944 27.5295C54.8054 27.7526 54.6317 27.9756 54.3499 27.9545C54.0494 27.9334 53.8217 27.7526 53.7113 27.4497C53.3638 26.4894 53.0539 25.5173 52.7416 24.5453C52.6735 24.3316 52.6078 24.1156 52.5303 23.9066C52.4951 23.8127 52.5139 23.7658 52.6054 23.7282C53.1572 23.5122 53.4695 23.6296 53.6315 24.172C53.8686 24.9656 54.1128 25.7545 54.3546 26.5504C54.4298 26.5387 54.4157 26.4682 54.4321 26.4142C54.6176 25.832 54.8078 25.252 54.9909 24.6697C55.113 24.2776 55.3995 23.9982 55.653 23.6953C55.7258 23.6085 55.754 23.6625 55.8127 23.7141C56.2189 24.0663 56.4725 24.5077 56.6251 25.0172C56.7636 25.461 56.9162 25.9 57.0665 26.3673Z" fill="white"/>
<path d="M43.7373 26.5575C43.6692 26.9496 43.5847 27.3064 43.5541 27.668C43.526 27.9756 43.2959 27.9474 43.108 27.9944C42.9038 28.046 42.7417 27.9733 42.6384 27.7854C42.5868 27.6892 42.5563 27.5859 42.5539 27.4755C42.5234 26.4588 42.4952 25.4422 42.5586 24.4255C42.5821 24.0569 42.9202 23.6765 43.2912 23.6296C43.9862 23.5404 44.6764 23.585 45.3409 23.7963C46.0594 24.024 46.3576 24.6908 46.1345 25.4915C46.0335 25.8531 45.8645 26.1841 45.6344 26.48C45.5452 26.595 45.5405 26.6842 45.618 26.8087C45.787 27.0764 45.942 27.3558 46.0993 27.6305C46.1721 27.7549 46.0829 28.0554 45.9561 28.1071C45.8739 28.14 45.8316 28.0625 45.78 28.0249C45.1366 27.5647 44.4957 27.0998 43.8523 26.6349C43.8218 26.6138 43.7913 26.5927 43.7373 26.5575Z" fill="white"/>
<path d="M95.1734 25.9025C95.1734 25.3977 95.1663 24.8905 95.1757 24.3857C95.1851 23.8151 95.4551 23.5592 96.0304 23.5428C96.716 23.524 97.3663 23.6672 98.0097 23.8973C98.6741 24.1345 98.9794 24.9586 98.7774 25.5409C98.6507 25.9048 98.4628 26.2335 98.2351 26.5364C98.1576 26.6397 98.1529 26.7125 98.2186 26.8229C98.3947 27.1163 98.5426 27.4263 98.7281 27.7104C98.8455 27.8912 98.7 27.9592 98.6272 28.0626C98.5309 28.1964 98.4628 28.0649 98.3994 28.0226C97.8007 27.6165 97.2067 27.2079 96.6103 26.797C96.4013 26.6515 96.1712 26.7595 96.1431 27.0224C96.1196 27.2314 96.1078 27.4404 96.0914 27.6493C96.075 27.8771 95.9857 27.9522 95.6406 28.0015C95.4504 28.0297 95.2978 27.9686 95.2274 27.7808C95.1804 27.6587 95.1616 27.5272 95.1616 27.3934C95.1663 26.8956 95.164 26.3979 95.164 25.9001C95.1663 25.9025 95.171 25.9025 95.1734 25.9025Z" fill="white"/>
<path d="M49.5388 28.0273C48.4048 28.0273 47.4938 27.3839 47.2308 26.4166C46.8903 25.1722 47.6839 23.9231 48.9823 23.6906C49.9732 23.5122 50.8466 23.7352 51.4782 24.5594C52.4549 25.8366 51.666 27.7197 50.0624 27.9803C49.8793 28.0085 49.6938 28.0437 49.5388 28.0273Z" fill="white"/>
<path d="M70.3371 25.8062C70.3723 27.0999 69.4707 28.0062 68.123 28.032C67.4444 28.0437 66.8504 27.8536 66.3503 27.3957C65.4487 26.5716 65.4229 25.2074 66.2846 24.341C67.2965 23.3244 69.1138 23.3878 69.9309 24.4725C70.2315 24.8693 70.3606 25.3248 70.3371 25.8062Z" fill="white"/>
<path d="M90.6699 25.8062C90.6699 25.137 90.6746 24.4679 90.6676 23.7987C90.6652 23.6531 90.6981 23.5991 90.8578 23.5991C91.6889 23.5991 92.5225 23.571 93.3536 23.6273C93.5086 23.6367 93.8185 23.8903 93.8467 24.0335C93.8561 24.0828 93.8256 24.1016 93.7974 24.1298C93.6189 24.3082 93.4311 24.4632 93.1494 24.4327C92.9874 24.4162 92.823 24.4374 92.6586 24.428C92.2524 24.3998 91.9707 24.6228 91.6983 24.8741C91.6255 24.9398 91.6537 24.9656 91.7195 25.0103C92.0177 25.2028 92.3182 25.3695 92.6962 25.3131C93.1517 25.2427 93.4241 25.5644 93.7223 25.8156C93.8068 25.8884 93.7129 25.9189 93.6729 25.9541C93.4311 26.1607 93.1306 26.1654 92.8394 26.1913C92.7314 26.2007 92.6211 26.1983 92.5131 26.203C91.9496 26.2218 91.6819 26.4425 91.5387 26.9849C91.5035 27.1187 91.5269 27.1445 91.6584 27.1422C92.1257 27.1375 92.5929 27.1516 93.0601 27.1375C93.4123 27.1257 93.6072 27.3629 93.8279 27.5648C93.9077 27.6376 93.8115 27.6658 93.7763 27.708C93.5485 27.978 93.2362 28.0133 92.9122 28.0133C92.2266 28.0133 91.5434 28.0086 90.8578 28.018C90.6887 28.0203 90.6723 27.9522 90.6723 27.8137C90.6746 27.1445 90.6699 26.4754 90.6699 25.8062Z" fill="white"/>
<path d="M85.6454 27.9803C85.3284 27.6422 85.1781 27.2712 85.1946 26.811C85.2181 26.0879 85.218 25.3647 85.1969 24.6416C85.1852 24.2495 85.3871 23.9865 85.6078 23.7118C85.6806 23.6226 85.7064 23.693 85.7487 23.7282C86.1197 24.0381 86.2887 24.4279 86.2793 24.9139C86.2676 25.414 86.2793 25.414 86.7771 25.414C87.1833 25.414 87.5871 25.407 87.9933 25.4187C88.153 25.4234 88.2093 25.3905 88.1999 25.2168C88.1835 24.9304 88.2046 24.6416 88.1929 24.3551C88.1788 24.0241 88.4136 23.8597 88.6273 23.6813C88.6484 23.6625 88.6766 23.6343 88.7047 23.6695C88.855 23.848 89.0781 23.9607 89.0874 24.2495C89.1203 25.4164 89.1109 26.5833 89.118 27.7479C89.118 27.9193 89.0921 27.9968 88.8926 27.9874C88.4042 27.9662 88.1976 27.776 88.1858 27.29C88.1811 27.0576 88.1671 26.8251 88.1037 26.5997C88.0731 26.4894 88.0144 26.4354 87.8947 26.4283C87.6317 26.4096 87.3688 26.372 87.1058 26.3532C86.5564 26.3109 86.2629 26.5152 86.2159 27.0576C86.1878 27.3863 86.0469 27.6093 85.8191 27.8089C85.7604 27.8559 85.7088 27.9146 85.6454 27.9803Z" fill="white"/>
<path d="M77.2845 25.0995C77.9771 25.2451 78.6181 25.3883 79.2638 25.508C79.5103 25.555 79.6113 25.6536 79.6042 25.9166C79.5995 26.1115 79.5737 26.1725 79.3647 26.1631C78.874 26.1443 78.3833 26.1631 77.8926 26.1537C77.7517 26.1514 77.6719 26.1913 77.639 26.3275C77.6296 26.365 77.6132 26.4003 77.6014 26.4378C77.4582 26.8863 77.6014 27.1046 78.0757 27.1328C78.3387 27.1492 78.604 27.1446 78.8693 27.1352C79.0665 27.1305 79.2567 27.1657 79.4493 27.1868C79.5831 27.2033 79.9235 27.5578 79.8766 27.6587C79.8038 27.8184 79.6582 27.964 79.4774 27.971C78.5829 28.0062 77.6907 28.0415 76.7937 27.9851C76.6881 27.9781 76.6904 27.9217 76.6904 27.8466C76.6904 26.4777 76.6928 25.1089 76.6904 23.7377C76.6904 23.632 76.7163 23.5851 76.8337 23.5851C77.6273 23.5921 78.4232 23.5945 79.2168 23.5968C79.5033 23.5968 79.6441 23.8246 79.8343 23.9772C79.8766 24.0124 79.8531 24.0406 79.8202 24.0688C79.6089 24.2495 79.4187 24.4585 79.0947 24.4303C78.8482 24.4092 78.597 24.4186 78.3481 24.4303C77.8902 24.4562 77.6507 24.8342 77.2845 25.0995Z" fill="white"/>
<path d="M71.1636 25.879C71.1636 24.2401 72.739 23.2023 74.3403 23.7893C74.5516 23.8668 74.7465 23.9772 74.9438 24.0875C75.1269 24.1908 75.2067 24.3012 75.1105 24.5148C75.0048 24.7473 74.871 24.8482 74.6432 24.7966C74.5 24.7637 74.3638 24.7074 74.2276 24.6487C73.9154 24.5172 73.5913 24.4327 73.2509 24.489C72.7062 24.5782 72.3211 25.0455 72.2929 25.6231C72.2835 25.8273 72.3 26.0269 72.3446 26.2241C72.4244 26.581 72.6381 26.8088 72.9973 26.9074C73.3143 26.9943 73.643 26.9919 73.9647 27.0365C74.0985 27.0553 74.1314 26.9473 74.1666 26.8534C74.3028 26.4894 74.4648 26.1373 74.7324 25.8461C74.8052 25.7663 74.8428 25.7405 74.9438 25.8226C75.1926 26.0222 75.3617 26.2312 75.2419 26.5763C75.1973 26.7055 75.195 26.851 75.1785 26.9896C75.1269 27.4239 74.9179 27.6775 74.453 27.7432C73.8684 27.8278 73.2885 27.9569 72.6968 27.8325C71.767 27.6352 71.1636 26.8651 71.1636 25.879Z" fill="white"/>
<path d="M39.5064 28.0766C38.525 27.9968 37.6938 27.6563 37.2618 26.6913C36.7641 25.5808 37.2853 24.3199 38.4593 23.8292C39.3327 23.4653 40.1803 23.5028 40.9692 24.0945C41.1077 24.1978 41.1429 24.3105 41.1476 24.4655C41.1523 24.5758 41.1124 24.5993 41.0068 24.6228C40.5912 24.7073 40.192 24.6298 39.7882 24.5453C38.9148 24.3598 38.0859 24.9914 38.0554 25.8437C38.0437 26.1724 38.1658 26.4354 38.4287 26.6279C38.8889 26.959 39.4454 27.0365 39.9666 27.1985C40.0699 27.2313 40.0793 27.1374 40.1122 27.0858C40.3423 26.7242 40.4597 26.3086 40.617 25.9142C40.6757 25.7662 40.7039 25.7381 40.8659 25.8249C41.1359 25.9682 41.204 26.1513 41.1289 26.4307C41.0866 26.5857 41.0843 26.7524 41.0608 26.9144C40.9715 27.5648 40.6616 27.8982 40.023 28.025C39.8539 28.0555 39.6849 28.0977 39.5064 28.0766Z" fill="white"/>
<path d="M61.4995 24.003C62.1616 23.686 62.8284 23.5287 63.5305 23.5592C63.9038 23.5757 64.2748 23.6038 64.6457 23.639C64.8758 23.6602 64.9557 23.8762 65.0895 24.0194C65.1177 24.0476 65.0989 24.0828 65.0754 24.1016C64.9158 24.2378 64.8054 24.4397 64.5377 24.4209C63.8897 24.3763 63.7277 24.705 63.7559 25.3131C63.7864 25.9588 63.8028 26.6021 63.7559 27.2455C63.7324 27.5601 63.4835 27.7198 63.3145 27.9358C63.2699 27.9945 63.2393 27.9522 63.2065 27.9146C63.0022 27.6775 62.8214 27.4521 62.8355 27.0952C62.8637 26.3955 62.8355 25.6958 62.8402 24.9962C62.8425 24.8388 62.8003 24.7473 62.657 24.6674C62.2743 24.4608 61.8963 24.2331 61.4995 24.003Z" fill="white"/>
<path d="M80.6631 24.0757C81.4684 23.5592 82.3325 23.5028 83.2317 23.5615C83.6684 23.5897 84.0089 23.7282 84.2648 24.0827C84.0324 24.2753 83.8046 24.4467 83.4618 24.4396C83.1049 24.4326 82.9054 24.7003 82.9195 25.137C82.9382 25.6347 82.9594 26.1301 82.9476 26.6279C82.9429 26.8768 82.9312 27.1233 82.903 27.3699C82.8725 27.6258 82.6471 27.7667 82.525 27.9615C82.0202 27.6892 81.985 27.2172 81.985 26.7265C81.9873 26.1137 81.9709 25.4985 81.992 24.8857C81.9991 24.6603 81.8981 24.5594 81.7244 24.4913C81.3816 24.3528 81.0341 24.2189 80.6631 24.0757Z" fill="white"/>
<path d="M85.6689 10.0069C85.2228 10.0092 85.049 9.77445 85.1899 9.41287C85.3542 8.99259 85.5538 8.59109 85.8356 8.23421C85.9553 8.08159 86.0938 7.94541 86.2723 7.85854C86.8593 7.56739 87.2279 7.66601 87.5824 8.21308C87.62 8.27178 87.6599 8.33047 87.6904 8.39152C87.7679 8.54883 87.991 8.71084 87.9299 8.83998C87.8149 9.08181 87.6646 9.35652 87.411 9.48096C86.8428 9.76037 86.2371 9.92472 85.6689 10.0069Z" fill="white"/>
<path d="M44.2774 12.2046C44.2751 13.0029 44.1976 13.7824 43.9675 14.5385C43.7397 15.2851 43.1363 15.6256 42.446 15.8486C42.3169 15.8909 42.1831 15.8275 42.0657 15.7664C41.6266 15.5363 41.2791 15.2217 41.0866 14.7498C40.8072 14.0689 40.7015 13.3434 40.5677 12.6296C40.5184 12.3643 40.6405 12.0661 40.6827 11.782C40.8377 10.7771 40.9762 9.7698 41.2462 8.78602C41.4012 8.22016 41.7722 7.83041 42.277 7.551C42.4836 7.4383 42.6714 7.45239 42.8616 7.59561C43.2514 7.88676 43.5543 8.23895 43.6998 8.71088C44.052 9.85433 44.2727 11.0166 44.2774 12.2046Z" fill="white"/>
<path d="M56.3785 12.606C56.4771 11.3123 56.5875 10.0209 57.0007 8.77887C57.158 8.30929 57.4304 7.92188 57.8366 7.62839C58.116 7.42646 58.393 7.41707 58.6795 7.6096C59.0411 7.85144 59.3017 8.15667 59.4167 8.59104C59.7102 9.70396 59.9004 10.838 60.0718 11.9744C60.1258 12.3243 60.0272 12.6999 59.9849 13.0615C59.9333 13.517 59.8746 13.9725 59.8041 14.4233C59.6867 15.184 59.2195 15.717 58.5832 15.8532C58.3202 15.9096 58.0737 15.8743 57.8366 15.7569C57.0923 15.386 56.733 14.7379 56.5382 13.9725C56.4231 13.5241 56.3762 13.0686 56.3785 12.606Z" fill="white"/>
<path d="M43.6198 25.1933C43.6198 24.9609 43.6269 24.7261 43.6175 24.4936C43.6128 24.3645 43.6621 24.3551 43.7678 24.3856C44.1927 24.5077 44.6201 24.6157 45.0403 24.7613C45.2399 24.8317 45.2446 24.9797 45.2399 25.1323C45.2352 25.2919 45.2845 25.4751 45.0685 25.5713C44.6412 25.7615 44.1857 25.8695 43.7466 26.0151C43.6292 26.055 43.6222 25.9846 43.6222 25.8954C43.6222 25.6582 43.6198 25.4258 43.6198 25.1933Z" fill="#293C90"/>
<path d="M96.1405 26.0527C96.1405 25.515 96.1429 25.0032 96.1382 24.4913C96.1382 24.3927 96.1711 24.3763 96.2626 24.3974C96.7064 24.5077 97.1548 24.5993 97.5939 24.7285C97.8334 24.7989 97.824 24.9703 97.8287 25.1464C97.8334 25.3131 97.8592 25.4727 97.6338 25.5596C97.1501 25.7475 96.6524 25.8883 96.1405 26.0527Z" fill="#293C90"/>
<path d="M50.8773 25.8602C50.8726 26.6232 50.2997 27.1867 49.539 27.1774C48.7501 27.168 48.1795 26.581 48.1866 25.7874C48.1936 24.9844 48.7501 24.4772 49.6259 24.4772C50.3232 24.4796 50.882 25.0947 50.8773 25.8602Z" fill="#293C90"/>
<path d="M66.7212 25.8297C66.7235 25.0525 67.287 24.4749 68.0454 24.4772C68.7803 24.4796 69.4448 25.1229 69.4425 25.8273C69.4401 26.5434 68.7662 27.1844 68.0219 27.1797C67.2753 27.175 66.7189 26.5974 66.7212 25.8297Z" fill="#293C90"/>
</g>
<defs>
<clipPath id="clip0_425_1959">
<rect width="108.075" height="32" fill="white" transform="translate(0.509277)"/>
</clipPath>
</defs>
</svg>
