<svg width="270" height="132" viewBox="0 0 270 132" fill="none" xmlns="http://www.w3.org/2000/svg">
<path d="M55.9543 114.713L62.3819 121.949C63.0085 122.654 62.9449 123.731 62.24 124.357C61.535 124.984 60.4581 124.92 59.8314 124.215L53.4038 116.98L55.9543 114.713Z" fill="#FFE366"/>
<path d="M48.2392 114.371C47.2503 115.252 47.1573 116.77 48.0385 117.758L48.5035 118.277C49.3847 119.266 50.9023 119.359 51.8911 118.478L52.18 118.219L48.528 114.111L48.2392 114.371Z" fill="#FBFBFB"/>
<path d="M47.6811 112.173C47.1573 112.638 47.1132 113.436 47.5783 113.96L52.224 119.183C52.6891 119.707 53.487 119.751 54.0108 119.286L58.6712 115.144L52.3415 108.026L47.6811 112.173Z" fill="#CF995B"/>
<path d="M72.9608 112.114L58.681 115.164L52.3317 108.017L57.0312 94.1921L72.9608 112.114Z" fill="#FBFBFB"/>
<path d="M55.9642 92.4346C55.4893 92.8556 55.4452 93.5899 55.8662 94.0599L72.956 113.289C73.377 113.764 74.1113 113.808 74.5813 113.387C75.0561 112.966 75.1002 112.232 74.6792 111.762L57.5894 92.5325C57.1684 92.0577 56.4341 92.0136 55.9642 92.4346Z" fill="#CF995B"/>
<path d="M48.2392 114.371C47.2503 115.252 47.1573 116.77 48.0385 117.758L48.5035 118.277C49.3847 119.266 50.9023 119.359 51.8911 118.478L52.18 118.219L48.528 114.111L48.2392 114.371Z" fill="#FBFBFB"/>
<g opacity="0.58">
<path d="M55.9583 114.714L53.4117 116.978L55.8544 119.726L58.4009 117.462L55.9583 114.714Z" fill="#9BA8C2"/>
</g>
<path d="M47.6811 112.173C47.1573 112.638 47.1132 113.436 47.5783 113.96L52.224 119.183C52.6891 119.707 53.487 119.751 54.0108 119.286L58.6712 115.144L52.3415 108.026L47.6811 112.173Z" fill="#F96364"/>
<path d="M72.9608 112.114L58.681 115.164L52.3317 108.017L57.0312 94.1921L72.9608 112.114Z" fill="#FBFBFB"/>
<path d="M55.9642 92.4346C55.4893 92.8556 55.4452 93.5899 55.8662 94.0599L72.956 113.289C73.377 113.764 74.1113 113.808 74.5813 113.387C75.0561 112.966 75.1002 112.232 74.6792 111.762L57.5894 92.5325C57.1684 92.0577 56.4341 92.0136 55.9642 92.4346Z" fill="#F96364"/>
<g opacity="0.58">
<path d="M73.1469 111.762C72.6721 112.183 71.9426 112.138 71.5216 111.664L70.6454 110.68L57.2467 113.543L57.232 113.529L52.5716 117.67C52.0478 118.135 51.2499 118.086 50.7848 117.567L50.2806 117C49.4973 117.577 48.4546 117.612 47.642 117.132C47.7399 117.357 47.872 117.567 48.0434 117.758L48.5085 118.277C49.3407 119.212 50.7358 119.344 51.7247 118.615L52.2289 119.183C52.694 119.707 53.492 119.751 54.0158 119.286L58.6762 115.144L58.6908 115.159L72.0895 112.295L72.9658 113.279C73.3868 113.754 74.1211 113.798 74.5911 113.377C75.0659 112.956 75.11 112.222 74.689 111.752L73.2497 110.131C73.6609 110.611 73.6169 111.341 73.1469 111.762Z" fill="#9BA8C2"/>
</g>
<path d="M21.1285 75.8638L25.0252 50.0455H32.9704V86.4084H27.5659V60.3307L23.6203 86.4084H18.2158L13.9568 60.6979V86.4084H8.96838V50.0455H16.9136L21.1285 75.8638Z" fill="#1B769E"/>
<path d="M66.0094 86.4084H60.2426L59.2537 79.8095H52.2435L51.2547 86.4084H46.0068L51.8225 50.0455H60.1839L66.0094 86.4084ZM52.973 74.8749H58.4803L55.7291 56.4879L52.973 74.8749Z" fill="#1B769E"/>
<path d="M90.9954 86.4084C90.6821 85.4734 90.4765 84.9007 90.4765 81.9389V76.226C90.4765 72.8482 89.331 71.6048 86.7364 71.6048H84.7636V86.4084H79.0507V50.0455H87.6714C93.5948 50.0455 96.1404 52.7967 96.1404 58.4068V61.2657C96.1404 65.0058 94.946 67.4486 92.4004 68.6431C95.2593 69.8376 96.1943 72.5888 96.1943 76.3827V81.9928C96.1943 83.76 96.2481 85.0573 96.816 86.4084H90.9954ZM84.7636 55.2395V66.4059H86.9959C89.1254 66.4059 90.4226 65.4709 90.4226 62.563V58.9796C90.4226 56.3802 89.5415 55.2395 87.5148 55.2395H84.7636Z" fill="#1B769E"/>
<path d="M117.803 71.9132L116.035 75.2372V86.4035H110.322V50.0406H116.035V65.8821L123.515 50.0406H129.228L121.283 66.2493L129.228 86.4035H123.359L117.803 71.9132Z" fill="#1B769E"/>
<path d="M147.929 65.368H155.771V70.562H147.929V81.2094H157.798V86.4034H142.216V50.0405H157.798V55.2345H147.929V65.368Z" fill="#1B769E"/>
<path d="M170.061 50.0455H187.723V55.2395H181.751V86.4084H176.038V55.2395H170.066V50.0455H170.061Z" fill="#1B769E"/>
<path d="M200.603 50.0455H206.316V86.4084H200.603V50.0455Z" fill="#1B769E"/>
<path d="M225.951 60.0713V86.4084H220.811V50.0455H227.978L233.848 71.8104V50.0455H238.939V86.4084H233.069L225.951 60.0713Z" fill="#1B769E"/>
<path d="M262.001 66.1513H270V77.6848C270 83.5005 267.092 86.8294 261.482 86.8294C255.872 86.8294 252.964 83.5054 252.964 77.6848V58.7788C252.964 52.9631 255.872 49.6343 261.482 49.6343C267.092 49.6343 270 52.9582 270 58.7788V62.3133H264.596V58.4166C264.596 55.8171 263.455 54.8332 261.634 54.8332C259.818 54.8332 258.672 55.822 258.672 58.4166V78.052C258.672 80.6514 259.813 81.5816 261.634 81.5816C263.45 81.5816 264.596 80.6465 264.596 78.052V71.3453H261.996V66.1513H262.001Z" fill="#1B769E"/>
<path d="M259.553 109.412C259.534 107.821 259.264 106.249 258.755 104.742C258.623 104.345 258.466 103.939 258.295 103.537C256.64 99.7287 253.488 96.7327 249.65 95.3278C248.098 94.755 246.458 94.4515 244.813 94.4319L244.725 94.4221L244.705 94.427H244.495C244.431 94.427 244.363 94.427 244.299 94.4319C239.864 94.5054 235.576 96.5614 232.824 99.9294C231.929 101.031 231.189 102.255 230.636 103.572C230.455 103.997 230.293 104.428 230.161 104.849C229.696 106.308 229.447 107.826 229.432 109.358V109.397L229.339 109.485L229.432 109.701C229.447 111.252 229.696 112.77 230.171 114.219C230.298 114.62 230.45 115.027 230.617 115.418C230.886 116.05 231.194 116.662 231.547 117.244C234.117 121.523 238.665 124.25 243.712 124.534C243.991 124.548 244.275 124.553 244.563 124.553C244.715 124.553 244.872 124.553 245.024 124.548C245.836 124.524 246.654 124.431 247.452 124.274C252.23 123.329 256.273 120.035 258.271 115.467C258.447 115.071 258.608 114.66 258.745 114.248C259.264 112.731 259.534 111.155 259.553 109.564L259.558 109.49C259.558 109.461 259.558 109.436 259.553 109.412ZM243.555 103.131V108.565H238.155C238.229 106.861 238.498 105.158 238.968 103.518C240.461 103.293 241.998 103.165 243.555 103.131ZM243.555 110.415V115.771C241.944 115.737 240.393 115.619 238.939 115.414C238.479 113.823 238.214 112.134 238.151 110.415H243.555ZM245.406 110.415H250.751C250.683 112.207 250.428 113.886 249.997 115.423C248.558 115.619 247.021 115.737 245.406 115.771V110.415ZM245.406 108.565V103.136C246.952 103.18 248.494 103.317 250.007 103.547C250.433 105.07 250.683 106.744 250.756 108.565H245.406ZM243.555 101.354C242.219 101.378 240.907 101.462 239.639 101.609C240.402 99.8022 241.582 97.9958 243.066 97.2761C243.227 97.1978 243.389 97.1342 243.555 97.0852V101.354ZM245.406 117.621C246.766 117.592 248.088 117.504 249.341 117.362C248.597 119.173 247.657 120.495 246.536 121.288C246.164 121.557 245.787 121.748 245.406 121.861V117.621ZM249.336 101.613C248.299 101.496 247.207 101.418 246.086 101.378C245.861 101.369 245.631 101.364 245.406 101.359V97.1146C245.479 97.1342 245.552 97.1587 245.626 97.188C247.026 97.7265 248.235 99.1266 249.224 101.344C249.263 101.432 249.302 101.525 249.336 101.613ZM232.022 105.417H232.026C232.208 105.329 232.389 105.251 232.57 105.177C233.04 104.981 233.515 104.805 233.945 104.668C234.91 104.36 235.923 104.095 236.956 103.875C236.579 105.383 236.364 106.969 236.305 108.565H231.072C231.14 107.547 231.321 106.558 231.61 105.613C231.747 105.544 231.884 105.481 232.022 105.417ZM236.31 110.415C236.374 111.987 236.589 113.563 236.961 115.081C236.261 114.944 235.571 114.782 234.895 114.596C233.989 114.346 233.25 114.106 232.575 113.847C232.394 113.778 232.212 113.705 232.031 113.632C231.899 113.573 231.767 113.514 231.635 113.455C231.331 112.486 231.14 111.468 231.072 110.415H236.31ZM239.624 117.372C240.867 117.509 242.189 117.592 243.555 117.621V121.817C241.798 121.215 240.373 119.124 239.668 117.474C239.653 117.44 239.639 117.406 239.624 117.372ZM256.934 113.622L256.929 113.627C256.738 113.705 256.547 113.778 256.356 113.852C255.935 114.009 255.519 114.151 255.128 114.278C254.139 114.596 253.086 114.87 252 115.086C252.337 113.632 252.543 112.07 252.602 110.415H257.889C257.82 111.468 257.629 112.486 257.326 113.455C257.198 113.514 257.066 113.568 256.934 113.622ZM252.602 108.565C252.538 106.91 252.337 105.354 251.995 103.9C252.352 103.968 252.714 104.046 253.067 104.13C254.369 104.438 255.407 104.746 256.342 105.109C256.538 105.182 256.729 105.265 256.924 105.349C257.057 105.407 257.194 105.466 257.326 105.525C257.629 106.494 257.82 107.512 257.889 108.565H252.602ZM256.18 103.111C254.721 102.597 253.116 102.191 251.422 101.907C251.324 101.623 251.221 101.344 251.109 101.07C250.296 99.0678 249.263 97.5454 248.039 96.5271C251.632 97.5111 254.628 99.949 256.342 103.17L256.18 103.111ZM241.098 96.4733C239.776 97.5307 238.753 99.0532 238.146 100.399C237.925 100.889 237.72 101.393 237.539 101.912C236.648 102.064 235.766 102.255 234.915 102.47C234.415 102.597 233.627 102.818 232.722 103.141C232.687 103.151 232.648 103.165 232.614 103.18C234.357 99.9001 237.421 97.4328 241.098 96.4733ZM232.726 115.854C234.205 116.378 235.82 116.789 237.544 117.083C237.916 118.145 238.997 120.794 240.941 122.458C237.338 121.479 234.337 119.041 232.619 115.815C232.653 115.83 232.692 115.839 232.726 115.854ZM250.766 118.693C251.011 118.17 251.226 117.631 251.422 117.068C252.783 116.838 254.08 116.53 255.299 116.158C255.593 116.07 255.887 115.976 256.19 115.874C256.239 115.859 256.288 115.839 256.337 115.82C254.624 119.036 251.632 121.469 248.044 122.453C249.317 121.391 250.198 119.917 250.766 118.693Z" fill="white"/>
<g opacity="0.51">
<path d="M170.82 26.2931V22.1956H168.362C168.088 20.8005 167.54 19.5032 166.776 18.3625L168.514 16.6247L165.616 13.7266L163.878 15.4645C162.737 14.7008 161.44 14.1525 160.045 13.8784V11.4209H155.947V13.8784C154.552 14.1525 153.255 14.7008 152.114 15.4645L150.376 13.7266L147.478 16.6247L149.216 18.3625C148.453 19.5032 147.904 20.8005 147.63 22.1956H145.173V26.2931H147.63C147.904 27.6883 148.453 28.9855 149.216 30.1262L147.478 31.864L150.376 34.7621L152.114 33.0242C153.255 33.7879 154.552 34.3362 155.947 34.6103V37.0678H160.045V34.6103C161.44 34.3362 162.737 33.7879 163.878 33.0242L165.616 34.7621L168.514 31.864L166.776 30.1262C167.54 28.9855 168.088 27.6883 168.362 26.2931H170.82ZM157.999 31.5458C153.965 31.5458 150.695 28.2757 150.695 24.2419C150.695 20.2081 153.965 16.938 157.999 16.938C162.032 16.938 165.302 20.2081 165.302 24.2419C165.302 28.2757 162.032 31.5458 157.999 31.5458Z" fill="#62C4F3"/>
<path d="M157.999 29.8912C161.119 29.8912 163.648 27.3619 163.648 24.2419C163.648 21.1219 161.119 18.5927 157.999 18.5927C154.879 18.5927 152.349 21.1219 152.349 24.2419C152.349 27.3619 154.879 29.8912 157.999 29.8912Z" fill="#62C4F3"/>
<path d="M188.242 36.2307V33.2446H186.45C186.25 32.2263 185.848 31.2815 185.29 30.4493L186.558 29.1814L184.443 27.0666L183.175 28.3345C182.343 27.7764 181.398 27.375 180.38 27.1743V25.3826H177.394V27.1743C176.376 27.375 175.431 27.7715 174.599 28.3345L173.331 27.0666L171.216 29.1814L172.484 30.4493C171.926 31.2815 171.524 32.2263 171.324 33.2446H169.532V36.2307H171.324C171.524 37.249 171.926 38.1938 172.484 39.026L171.216 40.2939L173.331 42.4087L174.599 41.1408C175.431 41.6989 176.376 42.1003 177.394 42.301V44.0927H180.38V42.301C181.398 42.1003 182.343 41.6989 183.175 41.1408L184.443 42.4087L186.558 40.2939L185.29 39.026C185.848 38.1938 186.25 37.249 186.45 36.2307H188.242Z" fill="#62C4F3"/>
</g>
<g opacity="0.51">
<path d="M144.595 108.805L147.307 107.943L146.788 106.318C147.655 105.843 148.399 105.206 148.991 104.457L150.509 105.241L151.816 102.71L150.298 101.927C150.562 101.011 150.655 100.037 150.543 99.053L152.168 98.5341L151.307 95.822L149.681 96.341C149.206 95.4745 148.57 94.7304 147.821 94.138L148.604 92.6205L146.073 91.3134L145.29 92.831C144.375 92.5666 143.401 92.4736 142.417 92.5862L141.898 90.9609L139.186 91.8225L139.704 93.4478C138.838 93.9226 138.094 94.559 137.502 95.308L135.984 94.5248L134.677 97.0557L136.195 97.8389C135.93 98.7544 135.837 99.7286 135.95 100.713L134.324 101.231L135.186 103.943L136.811 103.425C137.286 104.291 137.923 105.035 138.672 105.628L137.888 107.145L140.419 108.452L141.202 106.935C142.118 107.199 143.092 107.292 144.076 107.179L144.595 108.805ZM138.412 101.417C137.56 98.7446 139.039 95.8906 141.712 95.0388C144.384 94.187 147.238 95.6654 148.09 98.3383C148.942 101.011 147.464 103.865 144.791 104.717C142.118 105.569 139.259 104.09 138.412 101.417Z" fill="#62C4F3"/>
<path d="M146.741 101.654C147.73 99.7242 146.967 97.3582 145.037 96.3695C143.107 95.3807 140.741 96.1436 139.752 98.0734C138.764 100.003 139.526 102.369 141.456 103.358C143.386 104.347 145.752 103.584 146.741 101.654Z" fill="#62C4F3"/>
<path d="M141.682 122.433L143.66 121.802L143.283 120.617C143.914 120.27 144.458 119.804 144.889 119.261L145.995 119.834L146.95 117.988L145.843 117.416C146.039 116.75 146.103 116.035 146.02 115.32L147.204 114.943L146.573 112.966L145.388 113.343C145.04 112.711 144.575 112.168 144.032 111.737L144.605 110.631L142.759 109.676L142.186 110.782C141.521 110.586 140.806 110.523 140.091 110.606L139.714 109.421L137.737 110.053L138.113 111.238C137.482 111.585 136.939 112.05 136.508 112.594L135.401 112.021L134.447 113.866L135.553 114.439C135.357 115.105 135.294 115.82 135.377 116.534L134.192 116.911L134.824 118.889L136.008 118.512C136.356 119.144 136.821 119.687 137.364 120.118L136.792 121.224L138.637 122.179L139.21 121.072C139.876 121.268 140.591 121.332 141.305 121.249L141.682 122.433Z" fill="#62C4F3"/>
</g>
<path d="M249.17 7.13245H210.575V34.3704H249.17V7.13245Z" fill="#FBFBFB"/>
<path d="M249.17 7.13245L229.946 26.2342L210.575 7.13245" fill="#77CAE9"/>
<path d="M229.946 22.3865L210.575 7.13245H249.17L229.946 22.3865Z" fill="#FBFBFB"/>
<path d="M74.2727 0H50.4567C46.8782 0 43.9752 2.90296 43.9752 6.48149V18.3626C43.9752 21.9411 46.8782 24.8441 50.4567 24.8441H68.8585C70.8068 24.8441 72.6475 25.7203 73.8811 27.2281L76.9407 30.9829C78.2184 32.5494 80.7542 31.6438 80.7542 29.6269V24.849V10.8237V6.49128C80.7493 2.90296 77.8513 0 74.2727 0Z" fill="#F96364"/>
<path d="M51.0344 10.5691H71.8447C72.6475 10.5691 73.3035 9.91315 73.3035 9.11031C73.3035 8.30747 72.6475 7.65149 71.8447 7.65149H51.0344C50.2316 7.65149 49.5756 8.30747 49.5756 9.11031C49.5707 9.91315 50.2316 10.5691 51.0344 10.5691Z" fill="#FBFBFB"/>
<path d="M66.2639 13.2029H51.0344C50.2315 13.2029 49.5756 13.8589 49.5756 14.6617C49.5756 15.4645 50.2315 16.1205 51.0344 16.1205H66.2639C67.0668 16.1205 67.7227 15.4645 67.7227 14.6617C67.7227 13.8589 67.0668 13.2029 66.2639 13.2029Z" fill="#FBFBFB"/>
<path d="M71.5901 13.2029H69.8474C69.0445 13.2029 68.3885 13.8589 68.3885 14.6617C68.3885 15.4645 69.0445 16.1205 69.8474 16.1205H71.5901C72.393 16.1205 73.049 15.4645 73.049 14.6617C73.049 13.8589 72.393 13.2029 71.5901 13.2029Z" fill="#FBFBFB"/>
<path d="M45.0277 28.8191H60.923C63.312 28.8191 65.2456 30.7577 65.2456 33.1417V41.0673C65.2456 43.4563 63.3071 45.39 60.923 45.39H48.6454C47.3481 45.39 46.1145 45.9725 45.292 46.981L43.2507 49.4874C42.3989 50.5301 40.7051 49.928 40.7051 48.5818V45.39V36.03V33.1368C40.7051 30.7577 42.6437 28.8191 45.0277 28.8191Z" fill="#FFE366"/>
<path d="M60.5362 35.8733H46.648C46.1095 35.8733 45.6738 35.4327 45.6738 34.8991C45.6738 34.3606 46.1144 33.9249 46.648 33.9249H60.5362C61.0747 33.9249 61.5104 34.3655 61.5104 34.8991C61.5104 35.4327 61.0747 35.8733 60.5362 35.8733Z" fill="#FBFBFB"/>
<path d="M50.3734 37.6307H60.5362C61.0747 37.6307 61.5104 38.0713 61.5104 38.6049C61.5104 39.1434 61.0698 39.5791 60.5362 39.5791H50.3734C49.8349 39.5791 49.3992 39.1385 49.3992 38.6049C49.3992 38.0664 49.8398 37.6307 50.3734 37.6307Z" fill="#FBFBFB"/>
<path d="M46.8194 37.6307H47.9796C48.5181 37.6307 48.9538 38.0713 48.9538 38.6049C48.9538 39.1434 48.5132 39.5791 47.9796 39.5791H46.8194C46.2809 39.5791 45.8452 39.1385 45.8452 38.6049C45.8452 38.0664 46.2809 37.6307 46.8194 37.6307Z" fill="#FBFBFB"/>
<g opacity="0.51">
<path d="M48.7532 99.905L48.0237 96.9923L46.2761 97.428C45.8306 96.4832 45.2138 95.6607 44.4648 94.9852L45.39 93.4431L42.8151 91.9011L41.8898 93.4431C40.945 93.1004 39.9219 92.9438 38.8841 92.9976L38.4484 91.25L35.5356 91.9794L35.9713 93.7271C35.0265 94.1725 34.2041 94.7894 33.5285 95.5383L31.9865 94.6131L30.4444 97.1881L31.9865 98.1133C31.6438 99.0581 31.4871 100.081 31.541 101.119L29.7933 101.555L30.5227 104.468L32.2704 104.032C32.7159 104.977 33.3327 105.799 34.0817 106.475L33.1565 108.017L35.7314 109.559L36.6567 108.017C37.6015 108.359 38.6246 108.516 39.6624 108.462L40.0981 110.21L43.0109 109.48L42.5752 107.733C43.52 107.287 44.3424 106.67 45.018 105.921L46.56 106.847L48.1021 104.272L46.56 103.346C46.9027 102.402 47.0594 101.379 47.0055 100.341L48.7532 99.905ZM40.5779 105.926C37.7092 106.646 34.8062 104.903 34.0866 102.035C33.367 99.1658 35.1097 96.2629 37.9784 95.5432C40.8471 94.8236 43.7501 96.5664 44.4697 99.4351C45.1844 102.299 43.4417 105.207 40.5779 105.926Z" fill="#62C4F3"/>
</g>
<g opacity="0.51">
<path d="M222.417 120.554L221.687 117.641L219.94 118.077C219.494 117.132 218.877 116.309 218.128 115.634L219.054 114.092L216.479 112.55L215.554 114.092C214.609 113.749 213.586 113.592 212.548 113.646L212.112 111.899L209.199 112.628L209.635 114.376C208.69 114.821 207.868 115.438 207.192 116.187L205.65 115.262L204.108 117.837L205.65 118.762C205.307 119.707 205.151 120.73 205.205 121.768L203.457 122.203L204.186 125.116L205.934 124.681C206.38 125.625 206.996 126.448 207.745 127.123L206.82 128.665L209.395 130.207L210.32 128.665C211.265 129.008 212.288 129.165 213.326 129.111L213.762 130.859L216.675 130.129L216.239 128.381C217.184 127.936 218.006 127.319 218.682 126.57L220.224 127.495L221.766 124.92L220.224 123.995C220.566 123.05 220.723 122.027 220.669 120.989L222.417 120.554ZM214.237 126.575C211.368 127.295 208.465 125.552 207.745 122.683C207.026 119.815 208.769 116.912 211.637 116.192C214.506 115.472 217.409 117.215 218.128 120.084C218.848 122.948 217.105 125.855 214.237 126.575Z" fill="#62C4F3"/>
</g>
<path d="M72.0405 37.0825H71.551C70.6551 37.0825 69.7984 37.8707 69.8376 38.7959C69.8768 39.726 70.5915 40.5093 71.551 40.5093H72.0405C72.9364 40.5093 73.7931 39.7211 73.7539 38.7959C73.7147 37.8707 73.0049 37.0825 72.0405 37.0825Z" fill="#FFE366"/>
<path d="M79.3839 39.0405C75.2913 39.0405 75.2815 45.4045 79.3839 45.4045C83.4813 45.4045 83.4862 39.0405 79.3839 39.0405Z" fill="#FFE366"/>
<path d="M12.0818 34.8699C11.1076 34.8699 10.3097 35.6678 10.3097 36.642V41.3612C10.3097 42.3353 11.1076 43.1333 12.0818 43.1333C13.056 43.1333 13.8539 42.3353 13.8539 41.3612V36.642C13.8539 35.6678 13.056 34.8699 12.0818 34.8699Z" fill="#37A3C4"/>
<path d="M16.9821 29.338C16.0079 29.338 15.21 30.136 15.21 31.1101V41.3611C15.21 42.3353 16.0079 43.1332 16.9821 43.1332C17.9563 43.1332 18.7542 42.3353 18.7542 41.3611V31.1052C18.7542 30.1311 17.9563 29.338 16.9821 29.338Z" fill="white"/>
<path d="M21.8824 32.5886C20.9082 32.5886 20.1102 33.3866 20.1102 34.3608V41.366C20.1102 42.3402 20.9082 43.1382 21.8824 43.1382C22.8565 43.1382 23.6545 42.3402 23.6545 41.366V34.3608C23.6545 33.3817 22.8565 32.5886 21.8824 32.5886Z" fill="#37A3C4"/>
<path d="M26.7826 28.6135C25.8084 28.6135 25.0105 29.4115 25.0105 30.3857V41.3611C25.0105 42.3353 25.8084 43.1332 26.7826 43.1332C27.7568 43.1332 28.5548 42.3353 28.5548 41.3611V30.3857C28.5548 29.4115 27.7568 28.6135 26.7826 28.6135Z" fill="white"/>
<path d="M205.533 93.9128H185.339C184.15 93.9128 183.175 94.887 183.175 96.0766V109.745C183.175 110.934 184.15 111.908 185.339 111.908H205.533C206.722 111.908 207.696 110.934 207.696 109.745V96.0766C207.696 94.887 206.722 93.9128 205.533 93.9128Z" fill="#1B769E"/>
<path d="M201.773 102.911L191.977 107.806V98.0103L201.773 102.911Z" fill="#FBFBFB"/>
<path d="M155.497 92.1554C155.091 92.1554 154.763 91.8274 154.763 91.4211V89.7077C154.763 89.3014 155.091 88.9734 155.497 88.9734C155.903 88.9734 156.231 89.3014 156.231 89.7077V91.4211C156.231 91.8274 155.903 92.1554 155.497 92.1554Z" fill="white"/>
<path d="M155.497 99.851C155.091 99.851 154.763 99.5231 154.763 99.1167V95.269C154.763 94.8627 155.091 94.5347 155.497 94.5347C155.903 94.5347 156.231 94.8627 156.231 95.269V99.1167C156.231 99.5231 155.903 99.851 155.497 99.851Z" fill="white"/>
<path d="M157.21 105.412H155.497C155.091 105.412 154.763 105.084 154.763 104.678V102.964C154.763 102.558 155.091 102.23 155.497 102.23C155.903 102.23 156.231 102.558 156.231 102.964V103.943H157.21C157.617 103.943 157.945 104.271 157.945 104.678C157.945 105.084 157.617 105.412 157.21 105.412Z" fill="white"/>
<path d="M172.915 105.412H168.989C168.582 105.412 168.254 105.084 168.254 104.678C168.254 104.271 168.582 103.943 168.989 103.943H172.915C173.321 103.943 173.649 104.271 173.649 104.678C173.649 105.084 173.321 105.412 172.915 105.412ZM165.063 105.412H161.137C160.73 105.412 160.402 105.084 160.402 104.678C160.402 104.271 160.73 103.943 161.137 103.943H165.063C165.469 103.943 165.797 104.271 165.797 104.678C165.797 105.084 165.469 105.412 165.063 105.412Z" fill="white"/>
<path d="M178.559 105.412H176.846C176.439 105.412 176.111 105.084 176.111 104.678C176.111 104.271 176.439 103.943 176.846 103.943H178.559C178.965 103.943 179.293 104.271 179.293 104.678C179.293 105.084 178.961 105.412 178.559 105.412Z" fill="white"/>
<path d="M6.60877 62.1714H3.182C2.77568 62.1714 2.44769 61.8434 2.44769 61.4371C2.44769 61.0308 2.77568 60.7028 3.182 60.7028H6.60877C7.01508 60.7028 7.34307 61.0308 7.34307 61.4371C7.34307 61.8434 7.01508 62.1714 6.60877 62.1714ZM0.734307 61.1923C0.327991 61.1923 0 60.8643 0 60.458V57.0312C0 56.6249 0.327991 56.2969 0.734307 56.2969C1.14062 56.2969 1.46861 56.6249 1.46861 57.0312V60.458C1.46861 60.8643 1.14062 61.1923 0.734307 61.1923ZM0.734307 54.3388C0.327991 54.3388 0 54.0108 0 53.6045V50.1777C0 49.7714 0.327991 49.4434 0.734307 49.4434C1.14062 49.4434 1.46861 49.7714 1.46861 50.1777V53.6045C1.46861 54.0108 1.14062 54.3388 0.734307 54.3388ZM0.734307 47.4852C0.327991 47.4852 0 47.1573 0 46.7509V43.3242C0 42.9179 0.327991 42.5899 0.734307 42.5899C1.14062 42.5899 1.46861 42.9179 1.46861 43.3242V46.7509C1.46861 47.1573 1.14062 47.4852 0.734307 47.4852ZM6.48638 42.957H3.05961C2.6533 42.957 2.32531 42.629 2.32531 42.2227C2.32531 41.8164 2.6533 41.4884 3.05961 41.4884H6.48638C6.8927 41.4884 7.22069 41.8164 7.22069 42.2227C7.22069 42.629 6.8927 42.957 6.48638 42.957Z" fill="white"/>
<path d="M42.5066 120.461H41.3856C40.9793 120.461 40.6513 120.133 40.6513 119.726C40.6513 119.32 40.9793 118.992 41.3856 118.992H42.5066C42.9129 118.992 43.2409 119.32 43.2409 119.726C43.2409 120.133 42.9129 120.461 42.5066 120.461ZM37.9588 120.461H34.5321C34.1257 120.461 33.7977 120.133 33.7977 119.726C33.7977 119.32 34.1257 118.992 34.5321 118.992H37.9588C38.3651 118.992 38.6931 119.32 38.6931 119.726C38.6931 120.133 38.3651 120.461 37.9588 120.461ZM31.1053 120.461H27.6785C27.2722 120.461 26.9442 120.133 26.9442 119.726C26.9442 119.32 27.2722 118.992 27.6785 118.992H31.1053C31.5116 118.992 31.8396 119.32 31.8396 119.726C31.8396 120.133 31.5116 120.461 31.1053 120.461ZM24.2517 120.461H21.8824C21.4761 120.461 21.1481 120.133 21.1481 119.726V118.669C21.1481 118.263 21.4761 117.935 21.8824 117.935C22.2887 117.935 22.6167 118.263 22.6167 118.669V118.992H24.2517C24.6581 118.992 24.9861 119.32 24.9861 119.726C24.9861 120.133 24.6581 120.461 24.2517 120.461ZM21.8824 115.976C21.4761 115.976 21.1481 115.649 21.1481 115.242V111.815C21.1481 111.409 21.4761 111.081 21.8824 111.081C22.2887 111.081 22.6167 111.409 22.6167 111.815V115.242C22.6167 115.649 22.2887 115.976 21.8824 115.976ZM21.8824 109.123C21.4761 109.123 21.1481 108.795 21.1481 108.389V104.962C21.1481 104.556 21.4761 104.228 21.8824 104.228C22.2887 104.228 22.6167 104.556 22.6167 104.962V108.389C22.6167 108.795 22.2887 109.123 21.8824 109.123ZM21.8824 102.269C21.4761 102.269 21.1481 101.941 21.1481 101.535V98.1084C21.1481 97.702 21.4761 97.374 21.8824 97.374C22.2887 97.374 22.6167 97.702 22.6167 98.1084V101.535C22.6167 101.941 22.2887 102.269 21.8824 102.269ZM21.8824 95.4159C21.4761 95.4159 21.1481 95.0879 21.1481 94.6816V91.2548C21.1481 90.8485 21.4761 90.5205 21.8824 90.5205C22.2887 90.5205 22.6167 90.8485 22.6167 91.2548V94.6816C22.6167 95.0879 22.2887 95.4159 21.8824 95.4159Z" fill="white"/>
<path d="M191.982 48.0188C191.576 48.0188 191.248 47.6908 191.248 47.2845V43.8577C191.248 43.4514 191.576 43.1234 191.982 43.1234C192.389 43.1234 192.717 43.4514 192.717 43.8577V47.2845C192.717 47.6908 192.389 48.0188 191.982 48.0188ZM191.982 41.1652C191.576 41.1652 191.248 40.8372 191.248 40.4309V37.0042C191.248 36.5978 191.576 36.2699 191.982 36.2699C192.389 36.2699 192.717 36.5978 192.717 37.0042V40.4309C192.717 40.8372 192.389 41.1652 191.982 41.1652ZM191.982 34.3117C191.576 34.3117 191.248 33.9837 191.248 33.5774V30.1506C191.248 29.7443 191.576 29.4163 191.982 29.4163C192.389 29.4163 192.717 29.7443 192.717 30.1506V33.5774C192.717 33.9837 192.389 34.3117 191.982 34.3117ZM205.43 30.6255H202.003C201.597 30.6255 201.269 30.2975 201.269 29.8912C201.269 29.4849 201.597 29.1569 202.003 29.1569H205.43C205.836 29.1569 206.164 29.4849 206.164 29.8912C206.164 30.2975 205.836 30.6255 205.43 30.6255ZM198.576 30.6255H195.15C194.743 30.6255 194.415 30.2975 194.415 29.8912C194.415 29.4849 194.743 29.1569 195.15 29.1569H198.576C198.983 29.1569 199.311 29.4849 199.311 29.8912C199.311 30.2975 198.983 30.6255 198.576 30.6255Z" fill="white"/>
<path d="M227.347 112.638H224.718C224.311 112.638 223.983 112.31 223.983 111.904C223.983 111.497 224.311 111.169 224.718 111.169H227.347C227.753 111.169 228.081 111.497 228.081 111.904C228.081 112.31 227.753 112.638 227.347 112.638ZM221.296 112.638H220.811C220.405 112.638 220.077 112.31 220.077 111.904V108.961C220.077 108.555 220.405 108.227 220.811 108.227C221.218 108.227 221.546 108.555 221.546 108.961V111.208C221.829 111.311 222.03 111.58 222.03 111.899C222.03 112.31 221.702 112.638 221.296 112.638ZM220.811 106.274C220.405 106.274 220.077 105.946 220.077 105.54V102.113C220.077 101.706 220.405 101.378 220.811 101.378C221.218 101.378 221.546 101.706 221.546 102.113V105.54C221.546 105.941 221.213 106.274 220.811 106.274ZM220.811 99.4203C220.405 99.4203 220.077 99.0923 220.077 98.686V95.2592C220.077 94.8529 220.405 94.5249 220.811 94.5249C221.218 94.5249 221.546 94.8529 221.546 95.2592V98.686C221.546 99.0874 221.213 99.4203 220.811 99.4203ZM220.811 92.5668C220.405 92.5668 220.077 92.2388 220.077 91.8325V88.4057C220.077 87.9994 220.405 87.6714 220.811 87.6714C221.218 87.6714 221.546 87.9994 221.546 88.4057V91.8325C221.546 92.2339 221.213 92.5668 220.811 92.5668Z" fill="white"/>
<path d="M264.909 110.224H261.482C261.076 110.224 260.748 109.896 260.748 109.49C260.748 109.084 261.076 108.756 261.482 108.756H264.909C265.315 108.756 265.643 109.084 265.643 109.49C265.643 109.896 265.315 110.224 264.909 110.224ZM267.205 109.093C266.798 109.093 266.471 108.765 266.471 108.359V104.932C266.471 104.526 266.798 104.198 267.205 104.198C267.611 104.198 267.939 104.526 267.939 104.932V108.359C267.939 108.765 267.611 109.093 267.205 109.093ZM267.205 102.24C266.798 102.24 266.471 101.912 266.471 101.506V98.0788C266.471 97.6725 266.798 97.3445 267.205 97.3445C267.611 97.3445 267.939 97.6725 267.939 98.0788V101.506C267.939 101.912 267.611 102.24 267.205 102.24ZM267.205 95.3863C266.798 95.3863 266.471 95.0584 266.471 94.652V91.2253C266.471 90.819 266.798 90.491 267.205 90.491C267.611 90.491 267.939 90.819 267.939 91.2253V94.652C267.939 95.0584 267.611 95.3863 267.205 95.3863Z" fill="white"/>
<path d="M119.565 41.4931C129.092 41.4931 136.816 33.7695 136.816 24.2418C136.816 14.7142 129.092 6.99048 119.565 6.99048C110.037 6.99048 102.313 14.7142 102.313 24.2418C102.313 33.7695 110.037 41.4931 119.565 41.4931Z" fill="#F96364"/>
<path d="M119.565 38.0174C127.173 38.0174 133.34 31.8499 133.34 24.2418C133.34 16.6337 127.173 10.4662 119.565 10.4662C111.957 10.4662 105.789 16.6337 105.789 24.2418C105.789 31.8499 111.957 38.0174 119.565 38.0174Z" fill="#FBFBFB"/>
<path d="M119.565 35.6823C125.883 35.6823 131.005 30.5602 131.005 24.2418C131.005 17.9234 125.883 12.8013 119.565 12.8013C113.246 12.8013 108.124 17.9234 108.124 24.2418C108.124 30.5602 113.246 35.6823 119.565 35.6823Z" fill="#EA5855"/>
<path d="M119.565 32.329C124.031 32.329 127.652 28.7083 127.652 24.2418C127.652 19.7754 124.031 16.1547 119.565 16.1547C115.098 16.1547 111.478 19.7754 111.478 24.2418C111.478 28.7083 115.098 32.329 119.565 32.329Z" fill="#FBFBFB"/>
<path d="M124.53 25.4055C125.175 22.6603 123.473 19.9121 120.727 19.2672C117.982 18.6223 115.234 20.3249 114.589 23.0701C113.944 25.8152 115.647 28.5635 118.392 29.2084C121.137 29.8533 123.885 28.1507 124.53 25.4055Z" fill="#E24C49"/>
<path d="M92.3759 48.0187C91.9696 48.0187 91.6416 47.6908 91.6416 47.2844V43.8577C91.6416 43.4514 91.9696 43.1234 92.3759 43.1234C92.7822 43.1234 93.1102 43.4514 93.1102 43.8577V47.2844C93.1102 47.6908 92.7773 48.0187 92.3759 48.0187ZM92.3759 41.1652C91.9696 41.1652 91.6416 40.8372 91.6416 40.4309V37.0041C91.6416 36.5978 91.9696 36.2698 92.3759 36.2698C92.7822 36.2698 93.1102 36.5978 93.1102 37.0041V40.4309C93.1102 40.8372 92.7773 41.1652 92.3759 41.1652ZM92.3759 34.3117C91.9696 34.3117 91.6416 33.9837 91.6416 33.5774V30.1506C91.6416 29.7443 91.9696 29.4163 92.3759 29.4163C92.7822 29.4163 93.1102 29.7443 93.1102 30.1506V33.5774C93.1102 33.9837 92.7773 34.3117 92.3759 34.3117ZM92.3759 27.4581C91.9696 27.4581 91.6416 27.1301 91.6416 26.7238V24.2419C91.6416 23.8356 91.9696 23.5076 92.3759 23.5076H93.3207C93.727 23.5076 94.055 23.8356 94.055 24.2419C94.055 24.6482 93.727 24.9762 93.3207 24.9762H93.1102V26.7238C93.1102 27.1301 92.7773 27.4581 92.3759 27.4581ZM100.174 24.9762H96.7475C96.3412 24.9762 96.0132 24.6482 96.0132 24.2419C96.0132 23.8356 96.3412 23.5076 96.7475 23.5076H100.174C100.581 23.5076 100.909 23.8356 100.909 24.2419C100.909 24.6482 100.581 24.9762 100.174 24.9762Z" fill="white"/>
<g opacity="0.51">
<path d="M171.706 96.4685V94.9754H170.81C170.712 94.4663 170.511 93.9915 170.232 93.5754L170.864 92.9438L169.806 91.8864L169.175 92.5179C168.759 92.2389 168.284 92.0382 167.775 91.9403V91.0444H166.282V91.9403C165.772 92.0382 165.298 92.2389 164.882 92.5179L164.25 91.8864L163.193 92.9438L163.824 93.5754C163.545 93.9915 163.344 94.4663 163.246 94.9754H162.351V96.4685H163.246C163.344 96.9776 163.545 97.4525 163.824 97.8686L163.193 98.5001L164.25 99.5575L164.882 98.926C165.298 99.205 165.772 99.4057 166.282 99.5037V100.4H167.775V99.5037C168.284 99.4057 168.759 99.205 169.175 98.926L169.806 99.5575L170.864 98.5001L170.232 97.8686C170.511 97.4525 170.712 96.9776 170.81 96.4685H171.706Z" fill="#62C4F3"/>
</g>
<path d="M103.258 119.594C104.095 121.043 104.957 122.536 105.819 124.029C106.132 124.578 105.921 125.283 105.349 125.547C104.272 126.046 102.96 126.09 101.941 125.611C100.688 125.018 99.6357 124.147 98.6909 123.163C95.083 119.418 92.5325 115.056 91.2156 110.009C90.9611 109.025 90.873 107.987 90.7946 106.969C90.6772 105.437 91.3674 104.286 92.65 103.474C92.6549 103.474 92.6549 103.469 92.6598 103.469C93.1738 103.141 93.8591 103.312 94.1627 103.841C95.0096 105.309 95.8565 106.773 96.7083 108.247C96.9383 108.648 96.8845 109.143 96.5908 109.495C95.9446 110.278 95.9201 111.267 96.0963 112.276C96.4978 114.586 97.5845 116.549 99.3322 118.126C99.8952 118.635 100.546 119.041 101.31 119.1C101.589 119.119 101.868 119.09 102.167 119.051C102.607 119.002 103.038 119.212 103.258 119.594Z" fill="#1B769E"/>
<path d="M109.95 123.06C109.808 123.241 109.681 123.52 109.461 123.667C108.927 124.024 108.359 124.333 107.791 124.641C107.346 124.886 106.915 124.769 106.656 124.328C105.549 122.429 104.448 120.524 103.361 118.615C103.121 118.194 103.239 117.763 103.655 117.509C104.218 117.161 104.786 116.833 105.368 116.52C105.794 116.29 106.22 116.402 106.47 116.828C107.581 118.728 108.678 120.632 109.774 122.536C109.843 122.664 109.867 122.81 109.95 123.06Z" fill="#1B769E"/>
<path d="M98.1475 108.986C97.9762 108.863 97.6873 108.751 97.5649 108.545C96.439 106.641 95.3327 104.722 94.2361 102.803C93.9864 102.362 94.1186 101.936 94.5592 101.672C95.0977 101.344 95.6459 101.031 96.1991 100.727C96.674 100.468 97.0901 100.576 97.3642 101.041C98.4608 102.93 99.5525 104.82 100.639 106.714C100.874 107.126 100.791 107.571 100.419 107.806C99.8217 108.178 99.2049 108.516 98.593 108.863C98.4853 108.912 98.3629 108.922 98.1475 108.986Z" fill="#1B769E"/>
<path d="M100.184 131.333C100.184 131.333 100.179 131.333 100.174 131.333C98.9847 131.319 97.7902 131.191 96.63 130.947C96.2335 130.863 95.9789 130.472 96.0621 130.075C96.1454 129.679 96.5321 129.424 96.9335 129.507C97.9958 129.733 99.0924 129.85 100.189 129.86C100.595 129.865 100.918 130.198 100.913 130.604C100.913 131.01 100.585 131.333 100.184 131.333ZM103.591 131.035C103.244 131.035 102.935 130.79 102.872 130.437C102.798 130.041 103.058 129.654 103.459 129.581C104.531 129.38 105.589 129.072 106.602 128.66C106.979 128.509 107.405 128.69 107.557 129.067C107.708 129.444 107.527 129.87 107.15 130.021C106.049 130.467 104.893 130.805 103.728 131.025C103.679 131.03 103.635 131.035 103.591 131.035ZM93.5214 129.928C93.4235 129.928 93.3256 129.909 93.2326 129.87C92.1409 129.4 91.0933 128.817 90.1142 128.142C89.7814 127.911 89.6981 127.451 89.9282 127.118C90.1583 126.785 90.6136 126.702 90.9514 126.932C91.8521 127.554 92.8165 128.088 93.8152 128.518C94.1872 128.68 94.3585 129.111 94.2019 129.483C94.0795 129.762 93.8054 129.928 93.5214 129.928ZM109.901 128.479C109.662 128.479 109.431 128.362 109.289 128.151C109.064 127.814 109.157 127.358 109.5 127.133C110.411 126.531 111.267 125.836 112.046 125.067C112.334 124.783 112.799 124.783 113.083 125.072C113.367 125.361 113.367 125.826 113.078 126.11C112.232 126.947 111.301 127.701 110.313 128.357C110.18 128.44 110.038 128.479 109.901 128.479ZM87.9211 126.061C87.7302 126.061 87.5393 125.988 87.3924 125.836C86.5651 124.979 85.8161 124.039 85.1748 123.045C84.9545 122.703 85.0524 122.252 85.3951 122.032C85.7329 121.812 86.1881 121.91 86.4084 122.252C87.0008 123.168 87.6861 124.034 88.4449 124.818C88.7289 125.106 88.7191 125.571 88.4302 125.855C88.2883 125.992 88.1071 126.061 87.9211 126.061ZM114.738 123.692C114.596 123.692 114.454 123.652 114.327 123.564C113.989 123.339 113.901 122.879 114.131 122.546C114.743 121.636 115.267 120.666 115.688 119.663C115.844 119.291 116.275 119.11 116.647 119.266C117.019 119.423 117.196 119.854 117.044 120.226C116.588 121.317 116.016 122.375 115.35 123.364C115.208 123.574 114.973 123.692 114.738 123.692ZM84.2349 120.338C83.9412 120.338 83.667 120.162 83.5495 119.873C83.1138 118.767 82.7908 117.612 82.5803 116.442C82.5117 116.04 82.7761 115.663 83.1726 115.59C83.574 115.516 83.951 115.786 84.0244 116.182C84.2153 117.259 84.5139 118.316 84.9154 119.335C85.0622 119.712 84.8762 120.138 84.4992 120.289C84.416 120.319 84.323 120.338 84.2349 120.338ZM117.362 117.411C117.313 117.411 117.264 117.406 117.22 117.396C116.823 117.318 116.564 116.931 116.642 116.535C116.853 115.467 116.961 114.371 116.961 113.274C116.961 112.868 117.289 112.54 117.695 112.54C118.101 112.54 118.429 112.868 118.429 113.274C118.429 114.469 118.312 115.663 118.082 116.823C118.013 117.166 117.705 117.411 117.362 117.411ZM83.0453 113.636C83.0404 113.636 83.0355 113.636 83.0306 113.636C82.6243 113.627 82.3012 113.294 82.311 112.887C82.3355 111.698 82.4774 110.503 82.7369 109.348C82.825 108.952 83.2167 108.702 83.6132 108.79C84.0097 108.878 84.2594 109.27 84.1713 109.666C83.9363 110.729 83.8041 111.825 83.7845 112.917C83.7698 113.318 83.4418 113.636 83.0453 113.636ZM117.489 111.331C117.132 111.331 116.819 111.071 116.765 110.709C116.598 109.627 116.319 108.56 115.942 107.537C115.8 107.155 115.996 106.734 116.378 106.592C116.76 106.45 117.181 106.646 117.323 107.028C117.734 108.139 118.033 109.304 118.219 110.479C118.282 110.88 118.008 111.257 117.607 111.316C117.568 111.326 117.528 111.331 117.489 111.331ZM84.5188 106.989C84.4209 106.989 84.3181 106.969 84.2202 106.925C83.8482 106.763 83.6817 106.328 83.8482 105.956C84.3279 104.869 84.9202 103.826 85.6105 102.857C85.8455 102.524 86.3008 102.446 86.6336 102.681C86.9665 102.916 87.0448 103.371 86.8099 103.704C86.1784 104.595 85.635 105.554 85.1944 106.553C85.0671 106.827 84.7979 106.989 84.5188 106.989ZM115.139 104.942C114.895 104.942 114.65 104.82 114.513 104.595C113.94 103.665 113.274 102.788 112.53 101.985C112.256 101.687 112.271 101.222 112.569 100.948C112.868 100.674 113.333 100.688 113.607 100.987C114.415 101.858 115.139 102.813 115.766 103.826C115.977 104.174 115.869 104.624 115.526 104.835C115.404 104.908 115.272 104.942 115.139 104.942ZM88.4449 101.427C88.2491 101.427 88.0582 101.349 87.9113 101.197C87.6323 100.904 87.6421 100.439 87.9407 100.159C88.8023 99.342 89.752 98.6028 90.7555 97.9713C91.0982 97.7559 91.5535 97.8587 91.7689 98.2013C91.9843 98.544 91.8815 98.9993 91.5388 99.2147C90.6136 99.7972 89.7471 100.473 88.954 101.227C88.8121 101.364 88.6261 101.427 88.4449 101.427ZM110.508 99.9539C110.362 99.9539 110.21 99.9098 110.078 99.8168C109.192 99.1755 108.237 98.6224 107.248 98.1671C106.881 98.0006 106.714 97.5649 106.886 97.1929C107.052 96.8257 107.493 96.6593 107.86 96.8306C108.942 97.3251 109.98 97.9272 110.944 98.6224C111.272 98.8622 111.346 99.3175 111.111 99.6455C110.959 99.8462 110.734 99.9539 110.508 99.9539ZM94.2068 97.8048C93.9131 97.8048 93.634 97.6237 93.5214 97.33C93.3795 96.953 93.5655 96.5271 93.9473 96.3803C95.0586 95.9593 96.2139 95.646 97.3888 95.4501C97.7902 95.3816 98.1672 95.6557 98.2357 96.0523C98.3042 96.4537 98.0301 96.8306 97.6336 96.8992C96.5566 97.0803 95.4894 97.3642 94.4711 97.7559C94.383 97.7901 94.2949 97.8048 94.2068 97.8048ZM104.316 97.1293C104.262 97.1293 104.203 97.1244 104.149 97.1097C103.087 96.8649 101.995 96.7229 100.904 96.6838C100.497 96.6691 100.179 96.3313 100.194 95.925C100.209 95.5187 100.556 95.1907 100.953 95.2152C102.142 95.2543 103.332 95.4061 104.487 95.6753C104.884 95.7683 105.128 96.16 105.035 96.5565C104.952 96.8992 104.649 97.1293 104.316 97.1293Z" fill="white"/>
<path d="M128.377 110.944H124.95C124.543 110.944 124.215 110.616 124.215 110.21C124.215 109.803 124.543 109.475 124.95 109.475H128.377C128.783 109.475 129.111 109.803 129.111 110.21C129.111 110.616 128.778 110.944 128.377 110.944ZM121.523 110.944H118.096C117.69 110.944 117.362 110.616 117.362 110.21C117.362 109.803 117.69 109.475 118.096 109.475H121.523C121.929 109.475 122.257 109.803 122.257 110.21C122.257 110.616 121.924 110.944 121.523 110.944ZM128.988 108.134C128.582 108.134 128.254 107.806 128.254 107.4V103.973C128.254 103.567 128.582 103.239 128.988 103.239C129.395 103.239 129.723 103.567 129.723 103.973V107.4C129.723 107.806 129.395 108.134 128.988 108.134ZM128.988 101.281C128.582 101.281 128.254 100.953 128.254 100.546V97.1195C128.254 96.7132 128.582 96.3852 128.988 96.3852C129.395 96.3852 129.723 96.7132 129.723 97.1195V100.546C129.723 100.953 129.395 101.281 128.988 101.281ZM128.988 94.4271C128.582 94.4271 128.254 94.0991 128.254 93.6928V91.0492C128.254 90.6429 128.582 90.3149 128.988 90.3149C129.395 90.3149 129.723 90.6429 129.723 91.0492V93.6928C129.723 94.0991 129.395 94.4271 128.988 94.4271Z" fill="white"/>
<path d="M154.924 117.915C161.743 127.06 172.802 127.06 179.626 117.915C172.802 108.77 161.743 108.77 154.924 117.915Z" fill="#FBFBFB"/>
<path d="M169.571 123.437C172.621 122.174 174.069 118.677 172.806 115.627C171.542 112.577 168.046 111.129 164.996 112.392C161.946 113.656 160.498 117.152 161.761 120.202C163.024 123.252 166.521 124.7 169.571 123.437Z" fill="#4BADE3"/>
<path d="M167.275 121.136C169.054 121.136 170.496 119.694 170.496 117.915C170.496 116.136 169.054 114.694 167.275 114.694C165.496 114.694 164.054 116.136 164.054 117.915C164.054 119.694 165.496 121.136 167.275 121.136Z" fill="#1793CE"/>
<path d="M165.371 117.298C166.423 117.298 167.276 116.446 167.276 115.394C167.276 114.342 166.423 113.49 165.371 113.49C164.32 113.49 163.467 114.342 163.467 115.394C163.467 116.446 164.32 117.298 165.371 117.298Z" fill="#FBFBFB"/>
<path d="M195.693 9.8495C196.481 9.08093 196.045 7.74938 194.959 7.58784L192.026 7.16194C191.596 7.0983 191.223 6.82905 191.028 6.43742L189.716 3.78412C189.231 2.80015 187.826 2.80015 187.337 3.78412L186.025 6.43742C185.834 6.82905 185.457 7.0983 185.026 7.16194L182.094 7.58784C181.007 7.74449 180.571 9.08093 181.359 9.8495L183.479 11.9154C183.792 12.2189 183.934 12.6595 183.861 13.0902L183.361 16.0079C183.175 17.0898 184.311 17.9171 185.285 17.4031L187.904 16.0275C188.291 15.8268 188.751 15.8268 189.138 16.0275L191.757 17.4031C192.731 17.9122 193.867 17.0898 193.681 16.0079L193.182 13.0902C193.108 12.6595 193.25 12.2238 193.563 11.9154L195.693 9.8495Z" fill="#FFE366"/>
<path d="M194.043 122.252C194.572 122.027 194.616 121.293 194.117 121.009L192.765 120.24C192.565 120.128 192.437 119.922 192.418 119.697L192.286 118.15C192.237 117.577 191.551 117.308 191.126 117.695L189.98 118.742C189.814 118.894 189.579 118.958 189.353 118.904L187.841 118.551C187.278 118.419 186.813 118.992 187.053 119.516L187.694 120.931C187.787 121.141 187.772 121.381 187.655 121.577L186.852 122.903C186.553 123.398 186.95 124.015 187.523 123.951L189.065 123.78C189.29 123.755 189.515 123.843 189.667 124.015L190.685 125.185C191.062 125.62 191.772 125.434 191.889 124.871L192.202 123.354C192.247 123.129 192.403 122.943 192.614 122.854L194.043 122.252Z" fill="#FFE366"/>
<path d="M77.8024 94.4222C78.3408 93.8935 78.0422 92.978 77.2981 92.8703L75.2861 92.5766C74.9875 92.5325 74.7329 92.3465 74.6008 92.0773L73.7 90.2513C73.3671 89.5757 72.4027 89.5757 72.065 90.2513L71.1642 92.0773C71.032 92.3465 70.7775 92.5325 70.4789 92.5766L68.4669 92.8703C67.7179 92.978 67.4241 93.8984 67.9626 94.4222L69.4215 95.8418C69.6369 96.0523 69.7348 96.351 69.6809 96.6496L69.3382 98.6567C69.211 99.4008 69.9893 99.9686 70.66 99.6162L72.4615 98.6714C72.7258 98.5343 73.044 98.5343 73.3084 98.6714L75.1099 99.6162C75.7757 99.9686 76.5589 99.4008 76.4316 98.6567L76.089 96.6496C76.04 96.3558 76.1379 96.0523 76.3484 95.8418L77.8024 94.4222Z" fill="#FFFF9F"/>
<g opacity="0.51">
<path d="M258.065 33.411C253.023 33.411 253.018 41.2436 258.065 41.2436C263.107 41.2436 263.117 33.411 258.065 33.411Z" fill="#62C4F3"/>
<path d="M255.779 27.2037C255.847 26.0533 255.152 24.8441 253.664 24.8441C250.83 24.8441 250.825 29.25 253.664 29.25C253.752 29.25 253.826 29.2353 253.909 29.2255C253.987 29.2353 254.066 29.25 254.154 29.25C255.397 29.25 255.94 28.1583 255.779 27.2037Z" fill="#62C4F3"/>
<path d="M248.764 38.0616C247.834 38.1008 247.051 38.8155 247.051 39.775V40.2645C247.051 41.1604 247.839 42.0171 248.764 41.9779C249.694 41.9387 250.477 41.224 250.477 40.2645V39.775C250.477 38.8791 249.689 38.0224 248.764 38.0616Z" fill="#62C4F3"/>
</g>
<path d="M95.5138 9.44814C94.8432 8.83132 94.0208 8.44458 93.0906 8.44458H92.6011C91.7248 8.44458 90.7996 8.82642 90.1779 9.44814C89.845 9.75654 89.6051 10.1237 89.468 10.5496C89.2526 10.9559 89.1547 11.3965 89.1743 11.8713C89.2135 12.7574 89.5072 13.6777 90.1779 14.2946C90.8485 14.9114 91.671 15.2981 92.6011 15.2981H93.0906C93.9669 15.2981 94.8921 14.9163 95.5138 14.2946C95.8467 13.9862 96.0866 13.6141 96.2237 13.1931C96.4391 12.7868 96.537 12.3462 96.5174 11.8713C96.4782 10.9853 96.1894 10.0698 95.5138 9.44814Z" fill="#FFE366"/>
</svg>
