<svg width="687" height="496" viewBox="0 0 687 496" fill="none" xmlns="http://www.w3.org/2000/svg">
<path opacity="0.5" d="M109.906 281.323L56.0688 250.242C55.1466 249.706 55.2587 248.784 56.3305 248.173L109.644 217.392C110.703 216.781 112.311 216.706 113.233 217.242L167.07 248.323C167.992 248.859 167.88 249.781 166.808 250.392L113.495 281.173C112.436 281.796 110.828 281.859 109.906 281.323Z" fill="#242993"/>
<path d="M111.426 297.275C110.467 297.275 109.544 297.075 108.846 296.664L30.0975 251.202C29.3249 250.753 28.9011 250.105 28.8887 249.37C28.8887 248.535 29.4619 247.725 30.4714 247.139L108.46 202.113C110.205 201.103 112.772 201.016 114.305 201.901L193.054 247.363C193.827 247.812 194.25 248.46 194.25 249.195C194.25 250.03 193.677 250.84 192.668 251.426L114.679 296.452C113.744 296.988 112.548 297.275 111.426 297.275ZM109.432 295.642C110.591 296.315 112.735 296.215 114.106 295.43L192.094 250.404C192.717 250.043 193.091 249.594 193.091 249.195C193.091 248.821 192.755 248.547 192.481 248.385L113.732 202.923C112.573 202.25 110.429 202.35 109.058 203.135L31.0696 248.161C30.4465 248.522 30.0726 248.971 30.0726 249.37C30.0726 249.744 30.4091 250.018 30.6832 250.18L109.432 295.642Z" fill="#42FFFF"/>
<path d="M167.68 227.274V216.893L150.769 216.905L113.245 195.234C112.323 194.698 110.715 194.773 109.656 195.383L72.2818 216.943L55.4453 216.955V227.361H55.4578C55.4702 227.685 55.6696 227.997 56.0684 228.221L109.905 259.302C110.828 259.838 112.435 259.763 113.494 259.152L166.808 228.371C167.369 228.059 167.655 227.66 167.68 227.274Z" fill="url(#paint0_linear_648_4717)"/>
<path d="M109.906 248.921L56.0688 217.84C55.1466 217.304 55.2587 216.382 56.3305 215.771L109.644 184.99C110.703 184.379 112.311 184.304 113.233 184.84L167.07 215.921C167.992 216.457 167.88 217.379 166.808 217.99L113.495 248.771C112.436 249.395 110.828 249.457 109.906 248.921Z" fill="url(#paint1_linear_648_4717)"/>
<path d="M110.092 245.282L62.3741 217.728C61.5516 217.254 61.6638 216.432 62.5984 215.884L109.855 188.604C110.802 188.055 112.223 188.005 113.046 188.467L160.764 216.021C161.574 216.494 161.474 217.317 160.539 217.865L113.282 245.145C112.335 245.693 110.915 245.756 110.092 245.282Z" fill="#242993"/>
<path d="M110.217 242.976L66.3749 217.666C65.6272 217.229 65.7144 216.482 66.5868 215.971L110.005 190.909C110.865 190.411 112.186 190.361 112.934 190.785L156.776 216.095C157.524 216.532 157.437 217.279 156.564 217.79L113.146 242.852C112.273 243.35 110.965 243.413 110.217 242.976Z" fill="#4553C7"/>
<path d="M110.566 215.236L105.432 212.27L108.236 210.662L113.358 213.615L110.566 215.236Z" fill="#42FFFF"/>
<path d="M120.088 214.812L114.966 217.778L112.162 216.158L117.297 213.204L120.088 214.812Z" fill="#42FFFF"/>
<path d="M109.395 215.909L106.604 217.529L103.8 215.909L106.604 214.288L109.395 215.909Z" fill="#42FFFF"/>
<path d="M119.079 221.492L116.275 223.112L108.199 218.451L111.003 216.831L119.079 221.492Z" fill="#42FFFF"/>
<path opacity="0.5" d="M600.968 341.54L547.131 310.46C546.209 309.924 546.321 309.001 547.393 308.391L600.706 277.609C601.766 276.998 603.373 276.924 604.296 277.459L658.133 308.54C659.055 309.076 658.943 309.998 657.871 310.609L604.557 341.391C603.498 342.002 601.89 342.076 600.968 341.54Z" fill="#242993"/>
<path d="M602.489 355.498C601.566 355.498 600.682 355.311 599.996 354.912L524.55 311.344C523.802 310.908 523.391 310.285 523.391 309.575C523.391 308.765 523.951 307.98 524.911 307.419L599.635 264.275C601.317 263.302 603.785 263.215 605.255 264.063L680.702 307.631C681.449 308.067 681.861 308.69 681.861 309.4C681.861 310.21 681.3 310.996 680.34 311.556L605.617 354.701C604.719 355.236 603.573 355.498 602.489 355.498ZM602.788 264.673C601.903 264.673 600.943 264.885 600.22 265.309L525.497 308.453C524.911 308.79 524.562 309.213 524.562 309.587C524.562 309.936 524.874 310.185 525.135 310.335L600.582 353.903C601.691 354.539 603.722 354.451 605.031 353.691L679.754 310.547C680.34 310.21 680.689 309.787 680.689 309.413C680.689 309.064 680.378 308.815 680.116 308.653L604.669 265.097C604.183 264.81 603.498 264.673 602.788 264.673Z" fill="#42FFFF"/>
<path d="M658.744 288.875V278.494L641.833 278.506L604.309 256.834C603.387 256.299 601.779 256.373 600.72 256.984L563.358 278.556L546.521 278.569V288.975H546.534C546.546 289.299 546.746 289.61 547.145 289.834L600.982 320.915C601.904 321.451 603.511 321.376 604.571 320.766L657.884 289.984C658.42 289.672 658.719 289.261 658.744 288.875Z" fill="url(#paint2_linear_648_4717)"/>
<path d="M600.968 310.534L547.131 279.453C546.209 278.918 546.321 277.995 547.393 277.385L600.706 246.603C601.766 245.992 603.373 245.918 604.296 246.453L658.133 277.534C659.055 278.07 658.943 278.992 657.871 279.603L604.557 310.385C603.498 310.995 601.89 311.07 600.968 310.534Z" fill="url(#paint3_linear_648_4717)"/>
<path d="M600.968 310.534L547.131 279.453C546.209 278.918 546.321 277.995 547.393 277.385L600.706 246.603C601.766 245.992 603.373 245.918 604.296 246.453L658.133 277.534C659.055 278.07 658.943 278.992 657.871 279.603L604.557 310.385C603.498 310.995 601.89 311.07 600.968 310.534Z" fill="url(#paint4_linear_648_4717)"/>
<path d="M601.155 306.895L553.437 279.341C552.627 278.868 552.727 278.045 553.662 277.497L600.919 250.217C601.866 249.669 603.286 249.619 604.109 250.08L651.827 277.634C652.637 278.108 652.537 278.93 651.602 279.478L604.346 306.758C603.399 307.307 601.965 307.369 601.155 306.895Z" fill="#242993"/>
<path d="M601.28 304.59L557.437 279.279C556.69 278.843 556.777 278.095 557.649 277.584L601.068 252.523C601.928 252.024 603.249 251.974 603.996 252.398L647.839 277.709C648.586 278.145 648.499 278.893 647.627 279.404L604.208 304.465C603.336 304.964 602.027 305.014 601.28 304.59Z" fill="#4553C7"/>
<path d="M601.628 276.849L596.493 273.883L599.297 272.263L604.419 275.229L601.628 276.849Z" fill="#42FFFF"/>
<path d="M611.15 276.425L606.028 279.379L603.224 277.771L608.346 274.805L611.15 276.425Z" fill="#42FFFF"/>
<path d="M600.457 277.509L597.665 279.129L594.861 277.509L597.665 275.902L600.457 277.509Z" fill="#42FFFF"/>
<path d="M610.128 283.105L607.336 284.712L599.261 280.052L602.065 278.444L610.128 283.105Z" fill="#42FFFF"/>
<path opacity="0.4" d="M658.755 264.536L635.85 264.673L604.295 246.453C603.373 245.918 601.765 245.992 600.706 246.603L568.716 265.072L546.508 265.209V278.693L546.52 278.706C546.57 278.992 546.77 279.254 547.131 279.466L600.968 310.547C601.89 311.083 603.498 311.008 604.557 310.397L657.87 279.615C658.357 279.341 658.631 278.992 658.718 278.643L658.755 278.618V264.536Z" fill="#42FFFF"/>
<path d="M658.744 265.87V255.489L641.833 255.501L604.309 233.829C603.387 233.293 601.779 233.368 600.72 233.979L563.358 255.551L546.521 255.563V265.969H546.534C546.546 266.293 546.746 266.605 547.145 266.829L600.982 297.91C601.904 298.446 603.511 298.371 604.571 297.76L657.884 266.979C658.42 266.655 658.719 266.256 658.744 265.87Z" fill="url(#paint5_linear_648_4717)"/>
<path d="M600.968 287.529L547.131 256.448C546.209 255.912 546.321 254.99 547.393 254.379L600.706 223.598C601.766 222.987 603.373 222.912 604.296 223.448L658.133 254.529C659.055 255.065 658.943 255.987 657.871 256.598L604.557 287.379C603.498 287.99 601.89 288.052 600.968 287.529Z" fill="url(#paint6_linear_648_4717)"/>
<path d="M601.155 283.89L553.437 256.336C552.627 255.862 552.727 255.04 553.662 254.492L600.919 227.212C601.866 226.663 603.286 226.613 604.109 227.075L651.827 254.629C652.637 255.102 652.537 255.925 651.602 256.473L604.346 283.753C603.399 284.301 601.965 284.351 601.155 283.89Z" fill="#242993"/>
<path d="M601.28 281.572L557.437 256.261C556.69 255.825 556.777 255.077 557.649 254.566L601.068 229.505C601.928 229.006 603.249 228.957 603.996 229.38L647.839 254.691C648.586 255.127 648.499 255.875 647.627 256.386L604.208 281.448C603.336 281.958 602.027 282.008 601.28 281.572Z" fill="#4553C7"/>
<path d="M601.628 253.831L596.493 250.878L599.297 249.257L604.419 252.223L601.628 253.831Z" fill="#42FFFF"/>
<path d="M611.15 253.42L606.028 256.373L603.224 254.753L608.346 251.8L611.15 253.42Z" fill="#42FFFF"/>
<path d="M600.457 254.504L597.665 256.124L594.861 254.504L597.665 252.884L600.457 254.504Z" fill="#42FFFF"/>
<path d="M610.128 260.087L607.336 261.707L599.261 257.046L602.065 255.426L610.128 260.087Z" fill="#42FFFF"/>
<path d="M485.168 478.176C484.308 478.176 483.461 477.952 482.701 477.516L438.51 452.006L439.095 450.984L483.287 476.494C484.446 477.167 485.891 477.167 487.05 476.494L684.452 362.527C684.726 362.365 684.888 362.078 684.888 361.767C684.888 361.455 684.726 361.168 684.452 361.006L639.289 334.923L639.875 333.901L685.05 359.997C685.698 360.371 686.072 361.031 686.072 361.779C686.072 362.527 685.686 363.187 685.05 363.561L487.648 477.528C486.876 477.952 486.028 478.176 485.168 478.176Z" fill="#42FFFF"/>
<path d="M111.562 381.183C110.465 381.183 109.381 380.909 108.409 380.348L0.934669 318.361C0.348943 318.024 0.0124622 317.426 0 316.753C0 316.08 0.348945 315.482 0.922208 315.145L71.7452 274.257L72.3309 275.279L1.50793 316.167C1.19638 316.342 1.17145 316.641 1.17145 316.753C1.17145 316.865 1.20884 317.164 1.50793 317.339L108.982 379.326C110.565 380.248 112.534 380.236 114.117 379.326L135.801 366.814L136.387 367.836L114.703 380.348C113.755 380.896 112.659 381.183 111.562 381.183Z" fill="#42FFFF"/>
<path d="M270.618 221.728L299.805 48.5529L297.462 47.5684L300.989 45.5495V45.5744C301.674 45.1133 302.646 45.1507 303.705 45.7614L536.986 180.441C538.905 181.55 540.351 184.379 540.015 186.36L510.591 360.919C510.442 361.829 509.993 362.427 509.357 362.701L505.905 364.695L505.307 361.468L505.507 361.53L273.646 227.66C271.727 226.551 270.282 223.71 270.618 221.728Z" fill="url(#paint7_linear_648_4717)"/>
<path d="M535.678 185.177L539.517 183.482C539.953 184.466 540.152 185.501 540.015 186.373L510.592 360.932C510.442 361.841 509.994 362.44 509.358 362.714L505.906 364.708L505.308 361.48L505.507 361.542L493.78 354.763L535.678 185.177Z" fill="url(#paint8_linear_648_4717)"/>
<path d="M269.983 229.754L503.264 364.434C505.071 365.468 506.604 364.87 506.928 363.013L536.351 188.454C536.688 186.473 535.242 183.631 533.323 182.535L300.042 47.855C298.235 46.8206 296.702 47.4188 296.378 49.2757L266.955 223.834C266.618 225.816 268.076 228.657 269.983 229.754Z" fill="#242993"/>
<g opacity="0.51">
<path d="M303.095 58.9963L527.952 188.816L500.074 353.218L275.354 223.473L303.095 58.9963Z" fill="#4553C7"/>
</g>
<path d="M360.384 496.01C358.378 496.01 356.284 495.512 354.614 494.552L106.353 351.161C104.659 350.177 103.687 348.843 103.687 347.485C103.687 346.326 104.384 345.279 105.656 344.544L262.343 254.08C265.035 252.523 269.559 252.697 272.637 254.479L520.885 397.857C522.58 398.842 523.552 400.175 523.552 401.534C523.552 402.693 522.854 403.739 521.583 404.475L364.895 494.938C363.674 495.661 362.066 496.01 360.384 496.01ZM266.867 254.193C265.397 254.193 263.988 254.492 262.942 255.09L106.241 345.553C105.332 346.077 104.858 346.737 104.858 347.485C104.858 348.407 105.618 349.379 106.939 350.152L355.187 493.53C357.891 495.088 361.992 495.275 364.31 493.929L520.997 403.465C521.907 402.942 522.381 402.281 522.381 401.546C522.381 400.611 521.621 399.652 520.3 398.879L272.052 255.501C270.569 254.629 268.662 254.193 266.867 254.193Z" fill="#42FFFF"/>
<path opacity="0.5" d="M125.321 349.192L356.221 482.513C358.751 483.971 362.577 484.133 364.758 482.862L502.553 403.303C504.746 402.045 504.472 399.826 501.942 398.368L271.029 265.06C268.499 263.601 264.674 263.439 262.493 264.711L124.698 344.27C122.517 345.528 122.791 347.734 125.321 349.192Z" fill="#242993"/>
<path d="M123.353 312.404L136.089 319.046L263.752 245.344C265.883 244.111 269.622 244.26 272.089 245.693L492.26 372.808C494.366 371.624 503.975 367.013 503.975 367.013L499.314 379.152C499.314 379.152 499.301 379.139 499.289 379.139C499.102 379.675 498.678 380.186 497.98 380.585L363.525 458.2C361.394 459.433 357.655 459.284 355.188 457.851L129.883 327.782C128.873 327.196 128.25 326.486 127.988 325.776L127.976 325.788L123.353 312.404Z" fill="url(#paint9_linear_648_4717)"/>
<path d="M125.321 314.485L356.234 447.806C358.763 449.264 362.589 449.426 364.77 448.155L502.565 368.596C504.759 367.337 504.485 365.119 501.955 363.661L271.029 230.365C268.499 228.907 264.674 228.745 262.493 230.016L124.698 309.575C122.517 310.821 122.791 313.027 125.321 314.485Z" fill="url(#paint10_linear_648_4717)"/>
<path d="M425.873 418.968V416.439C425.873 416.202 425.723 416.09 425.549 416.189L416.613 421.349C416.439 421.448 416.289 421.735 416.289 421.972V424.502C416.289 424.738 416.439 424.851 416.613 424.751L425.549 419.591C425.723 419.492 425.873 419.205 425.873 418.968Z" fill="#2859CB"/>
<path d="M412.514 426.683V424.153C412.514 423.916 412.365 423.804 412.19 423.903L403.255 429.063C403.08 429.163 402.931 429.449 402.931 429.686V432.216C402.931 432.453 403.08 432.565 403.255 432.465L412.19 427.306C412.377 427.194 412.514 426.919 412.514 426.683Z" fill="#2859CB"/>
<path d="M466.637 361.156L274.756 250.367C273.473 249.631 271.902 249.631 270.619 250.367L202.288 289.897C201.304 290.47 201.304 291.878 202.288 292.452L394.082 403.191C395.366 403.926 396.936 403.926 398.207 403.191L466.625 363.711C467.609 363.138 467.609 361.717 466.637 361.156Z" fill="#ADC8FF"/>
<path d="M466.637 363.711L465.952 364.11L274.756 253.719C273.473 252.984 271.902 252.984 270.619 253.719L202.974 292.85L202.288 292.452C201.304 291.891 201.304 290.47 202.288 289.897L270.619 250.367C271.902 249.631 273.473 249.631 274.756 250.367L466.637 361.156C467.609 361.717 467.609 363.138 466.637 363.711Z" fill="#91AFFF"/>
<path d="M265.461 260.386L432.131 356.62L439.546 352.333L272.864 256.099L265.461 260.386Z" fill="#242993"/>
<path d="M247.29 270.88L403.629 361.131L411.044 356.857L254.693 266.593L247.29 270.88Z" fill="#242993"/>
<path d="M235.451 277.709L419.531 383.974L426.934 379.7L242.866 273.422L235.451 277.709Z" fill="#242993"/>
<path d="M223.624 284.538L407.691 390.816L415.107 386.529L231.027 280.264L223.624 284.538Z" fill="#242993"/>
<path d="M211.785 291.367L395.853 397.646L403.268 393.371L219.2 287.093L211.785 291.367Z" fill="#242993"/>
<path d="M442.213 362.427L449.615 366.714L457.03 362.427L449.615 358.153L442.213 362.427Z" fill="#242993"/>
<path d="M416.066 368.322L431.445 377.195L438.86 372.92L423.481 364.035L416.066 368.322Z" fill="#242993"/>
<path d="M267.353 387.962L215.61 358.09C213.591 356.919 213.591 355.025 215.61 353.866L250.99 333.44C253.009 332.268 256.287 332.268 258.318 333.44L310.061 363.312C312.08 364.483 312.08 366.378 310.061 367.537L274.681 387.962C272.662 389.134 269.384 389.134 267.353 387.962Z" fill="url(#paint11_linear_648_4717)"/>
<path d="M310.061 365.044L258.318 335.172C256.299 334.001 253.022 334.001 250.99 335.172L215.61 355.598C214.987 355.959 214.576 356.395 214.339 356.844C213.803 355.822 214.214 354.676 215.61 353.866L250.99 333.44C253.009 332.268 256.287 332.268 258.318 333.44L310.061 363.312C311.457 364.122 311.868 365.268 311.333 366.29C311.096 365.829 310.685 365.406 310.061 365.044Z" fill="#91AFFF"/>
<g opacity="0.11">
<mask id="mask0_648_4717" style="mask-type:luminance" maskUnits="userSpaceOnUse" x="275" y="58" width="253" height="296">
<path d="M303.094 58.9963L527.95 188.816L500.072 353.218L275.353 223.473L303.094 58.9963Z" fill="white"/>
</mask>
<g mask="url(#mask0_648_4717)">
<path d="M270.804 230.091L501.717 363.412C504.247 364.87 508.073 365.032 510.254 363.761L648.049 284.202C650.242 282.943 649.968 280.725 647.438 279.267L416.525 145.958C413.995 144.5 410.169 144.338 407.988 145.609L270.193 225.168C268 226.414 268.274 228.62 270.804 230.091Z" fill="url(#paint12_linear_648_4717)"/>
<path d="M502.403 253.981L450.66 224.109C448.641 222.937 448.641 221.043 450.66 219.884L486.04 199.458C488.059 198.287 491.336 198.287 493.368 199.458L545.111 229.33C547.13 230.502 547.13 232.396 545.111 233.555L509.731 253.981C507.699 255.152 504.422 255.152 502.403 253.981Z" fill="url(#paint13_linear_648_4717)"/>
<path d="M545.11 231.063L493.367 201.191C491.348 200.019 488.071 200.019 486.039 201.191L450.659 221.616C450.036 221.978 449.624 222.414 449.388 222.862C448.852 221.84 449.263 220.694 450.659 219.884L486.039 199.458C488.058 198.287 491.336 198.287 493.367 199.458L545.11 229.33C546.506 230.14 546.917 231.287 546.381 232.309C546.132 231.86 545.733 231.424 545.11 231.063Z" fill="#91AFFF"/>
<path d="M567.854 300.664L375.973 189.875C374.689 189.14 373.119 189.14 371.836 189.875L303.505 229.405C302.52 229.978 302.52 231.387 303.505 231.96L495.299 342.699C496.583 343.435 498.153 343.435 499.424 342.699L567.842 303.219C568.826 302.658 568.826 301.237 567.854 300.664Z" fill="#ADC8FF"/>
<path d="M567.854 303.219L567.169 303.618L375.973 193.227C374.689 192.492 373.119 192.492 371.836 193.227L304.19 232.359L303.505 231.96C302.52 231.399 302.52 229.978 303.505 229.405L371.836 189.875C373.119 189.14 374.689 189.14 375.973 189.875L567.854 300.664C568.826 301.237 568.826 302.658 567.854 303.219Z" fill="#91AFFF"/>
<path d="M321.375 226.726L488.544 323.233L481.926 327.059L314.758 230.552L321.375 226.726Z" fill="#242993"/>
<path d="M338.997 216.556L497.878 308.291L491.261 312.117L332.367 220.382L338.997 216.556Z" fill="#242993"/>
<path d="M509.742 315.133L524.585 323.707L517.968 327.533L503.125 318.959L509.742 315.133Z" fill="#242993"/>
<path d="M496.645 327.907L506.976 333.876L500.358 337.702L490.015 331.733L496.645 327.907Z" fill="#242993"/>
<path d="M350.027 210.188L535.627 317.339L528.997 321.152L343.409 214.002L350.027 210.188Z" fill="#242993"/>
<path d="M361.067 203.808L546.655 310.958L540.037 314.784L354.449 207.634L361.067 203.808Z" fill="#242993"/>
<path d="M372.109 197.439L557.697 304.59L551.08 308.416L365.479 201.265L372.109 197.439Z" fill="#242993"/>
</g>
</g>
<path opacity="0.42" d="M377.719 351.286L427.468 320.679L315.619 256.099L262.842 291.579L377.719 351.286Z" fill="url(#paint14_radial_648_4717)"/>
<path opacity="0.42" d="M427.469 320.679L438.859 248.697L333.902 188.492V266.518L427.469 320.679Z" fill="url(#paint15_radial_648_4717)"/>
<path opacity="0.5" d="M435.631 159.691L423.742 152.937L424.153 150.357L436.042 157.124L435.631 159.691Z" fill="#42FFFF"/>
<path opacity="0.5" d="M441.726 163.156L437.451 160.726L437.85 158.158L442.137 160.589L441.726 163.156Z" fill="#42FFFF"/>
<path opacity="0.5" d="M446.461 165.848L443.545 164.19L443.956 161.623L446.86 163.28L446.461 165.848Z" fill="#42FFFF"/>
<path opacity="0.5" d="M429.301 162.495L422.82 158.806L423.232 156.239L429.712 159.916L429.301 162.495Z" fill="#42FFFF"/>
<path opacity="0.5" d="M439.059 168.041L431.12 163.53L431.519 160.95L439.457 165.461L439.059 168.041Z" fill="#42FFFF"/>
<path opacity="0.5" d="M443.782 170.72L440.878 169.075L441.277 166.496L444.18 168.153L443.782 170.72Z" fill="#42FFFF"/>
<path opacity="0.5" d="M448.281 173.288L445.365 171.63L445.776 169.05L448.68 170.708L448.281 173.288Z" fill="#42FFFF"/>
<path d="M426.584 167.343L421.898 164.676L422.31 162.109L426.995 164.776L426.584 167.343Z" fill="#42FFFF"/>
<path d="M430.011 169.287L428.403 168.378L428.802 165.81L430.41 166.72L430.011 169.287Z" fill="#42FFFF"/>
<path opacity="0.5" d="M434.735 171.979L431.818 170.322L432.23 167.754L435.133 169.412L434.735 171.979Z" fill="#42FFFF"/>
<path opacity="0.5" d="M438.274 180.391L420.977 170.558L421.388 167.979L438.685 177.824L438.274 180.391Z" fill="#42FFFF"/>
<path opacity="0.5" d="M444.367 183.856L440.093 181.425L440.492 178.858L444.779 181.288L444.367 183.856Z" fill="#42FFFF"/>
<path opacity="0.5" d="M424.74 179.095L420.054 176.428L420.465 173.861L425.151 176.528L424.74 179.095Z" fill="#42FFFF"/>
<path opacity="0.5" d="M435.743 185.351L426.559 180.129L426.957 177.562L436.142 182.784L435.743 185.351Z" fill="#42FFFF"/>
<path opacity="0.5" d="M440.466 188.043L437.562 186.385L437.961 183.806L440.865 185.463L440.466 188.043Z" fill="#42FFFF"/>
<path opacity="0.5" d="M428.727 187.756L419.131 182.31L419.542 179.731L429.126 185.189L428.727 187.756Z" fill="#42FFFF"/>
<path d="M437.477 192.729L430.535 188.791L430.946 186.223L437.875 190.162L437.477 192.729Z" fill="#42FFFF"/>
<path opacity="0.5" d="M443.98 196.43L439.282 193.763L439.693 191.196L444.379 193.863L443.98 196.43Z" fill="#42FFFF"/>
<path opacity="0.5" d="M421.45 190.024L418.21 188.18L418.609 185.613L421.849 187.445L421.45 190.024Z" fill="#42FFFF"/>
<path opacity="0.5" d="M427.544 193.489L423.27 191.059L423.668 188.479L427.955 190.922L427.544 193.489Z" fill="#42FFFF"/>
<path opacity="0.5" d="M436.254 198.449L429.362 194.523L429.761 191.944L436.665 195.869L436.254 198.449Z" fill="#42FFFF"/>
<path opacity="0.5" d="M427.207 199.695L417.287 194.05L417.686 191.482L427.618 197.128L427.207 199.695Z" fill="#42FFFF"/>
<path opacity="0.5" d="M438.323 206.013L429.026 200.729L429.425 198.162L438.722 203.446L438.323 206.013Z" fill="#42FFFF"/>
<path d="M443.047 208.705L440.131 207.048L440.542 204.481L443.446 206.126L443.047 208.705Z" fill="#42FFFF"/>
<path opacity="0.5" d="M447.583 211.285L444.667 209.628L445.078 207.06L447.982 208.705L447.583 211.285Z" fill="#42FFFF"/>
<path opacity="0.5" d="M422.31 203.309L416.365 199.932L416.764 197.352L422.709 200.742L422.31 203.309Z" fill="#42FFFF"/>
<path d="M454.549 170.446L462.786 175.132L463.198 172.565L454.948 167.879L454.549 170.446Z" fill="#42FFFF"/>
<path opacity="0.5" d="M455.397 177.325L461.865 181.014L462.277 178.447L455.796 174.758L455.397 177.325Z" fill="#42FFFF"/>
<path opacity="0.5" d="M456.256 184.217L460.942 186.884L461.353 184.317L456.667 181.65L456.256 184.217Z" fill="#42FFFF"/>
<path opacity="0.5" d="M453.203 188.89L460.02 192.766L460.431 190.186L453.614 186.311L453.203 188.89Z" fill="#42FFFF"/>
<path opacity="0.5" d="M454.412 195.969L459.098 198.636L459.509 196.069L454.823 193.402L454.412 195.969Z" fill="#42FFFF"/>
<path opacity="0.5" d="M452.231 201.128L458.176 204.506L458.587 201.938L452.643 198.561L452.231 201.128Z" fill="#42FFFF"/>
<path opacity="0.5" d="M454.014 208.543L457.254 210.388L457.665 207.808L454.425 205.976L454.014 208.543Z" fill="#42FFFF"/>
<path opacity="0.5" d="M450.062 212.693L456.331 216.258L456.742 213.69L450.461 210.114L450.062 212.693Z" fill="#42FFFF"/>
<path opacity="0.5" d="M449.464 218.75L455.408 222.127L455.807 219.56L449.875 216.183L449.464 218.75Z" fill="#42FFFF"/>
<path opacity="0.5" d="M426.647 205.777L424.13 204.344L424.529 201.764L427.059 203.209L426.647 205.777Z" fill="#42FFFF"/>
<path opacity="0.5" d="M434.161 210.051L428.466 206.811L428.877 204.244L434.56 207.472L434.161 210.051Z" fill="#42FFFF"/>
<path opacity="0.5" d="M481.754 185.812L469.865 179.045L470.264 176.478L482.153 183.233L481.754 185.812Z" fill="#42FFFF"/>
<path opacity="0.5" d="M487.849 189.277L483.562 186.847L483.973 184.267L488.247 186.709L487.849 189.277Z" fill="#42FFFF"/>
<path d="M492.572 191.969L489.668 190.311L490.067 187.744L492.97 189.389L492.572 191.969Z" fill="#42FFFF"/>
<path opacity="0.5" d="M475.411 188.604L468.943 184.927L469.342 182.348L475.823 186.036L475.411 188.604Z" fill="#42FFFF"/>
<path opacity="0.5" d="M485.169 194.149L477.23 189.638L477.642 187.071L485.58 191.582L485.169 194.149Z" fill="#42FFFF"/>
<path d="M489.892 196.841L486.988 195.184L487.387 192.617L490.303 194.274L489.892 196.841Z" fill="#42FFFF"/>
<path opacity="0.5" d="M494.391 199.396L491.487 197.739L491.886 195.171L494.79 196.829L494.391 199.396Z" fill="#42FFFF"/>
<path opacity="0.5" d="M472.707 193.464L468.021 190.797L468.42 188.23L473.106 190.897L472.707 193.464Z" fill="#42FFFF"/>
<path opacity="0.5" d="M476.121 195.408L474.514 194.498L474.925 191.919L476.52 192.841L476.121 195.408Z" fill="#42FFFF"/>
<path opacity="0.5" d="M480.845 198.088L477.941 196.443L478.34 193.863L481.244 195.52L480.845 198.088Z" fill="#42FFFF"/>
<path opacity="0.5" d="M484.396 206.512L467.099 196.667L467.497 194.1L484.795 203.932L484.396 206.512Z" fill="#42FFFF"/>
<path opacity="0.5" d="M490.49 209.977L486.203 207.546L486.614 204.967L490.889 207.409L490.49 209.977Z" fill="#42FFFF"/>
<path opacity="0.5" d="M470.862 205.216L466.176 202.549L466.575 199.969L471.26 202.636L470.862 205.216Z" fill="#42FFFF"/>
<path opacity="0.5" d="M481.854 211.472L472.669 206.238L473.08 203.671L482.265 208.892L481.854 211.472Z" fill="#42FFFF"/>
<path opacity="0.5" d="M486.577 214.151L483.673 212.494L484.072 209.927L486.988 211.584L486.577 214.151Z" fill="#42FFFF"/>
<path d="M474.837 213.877L465.241 208.419L465.652 205.852L475.236 211.298L474.837 213.877Z" fill="#42FFFF"/>
<path opacity="0.5" d="M483.586 218.85L476.657 214.911L477.056 212.332L483.998 216.282L483.586 218.85Z" fill="#42FFFF"/>
<path opacity="0.5" d="M490.092 222.551L485.406 219.884L485.805 217.317L490.491 219.971L490.092 222.551Z" fill="#42FFFF"/>
<path opacity="0.5" d="M467.561 216.133L464.32 214.301L464.732 211.721L467.972 213.566L467.561 216.133Z" fill="#42FFFF"/>
<path opacity="0.5" d="M473.667 219.597L469.38 217.167L469.779 214.6L474.066 217.03L473.667 219.597Z" fill="#42FFFF"/>
<path d="M482.377 224.557L475.473 220.632L475.884 218.064L482.776 221.99L482.377 224.557Z" fill="#42FFFF"/>
<path opacity="0.5" d="M473.317 225.816L463.397 220.171L463.809 217.603L473.729 223.236L473.317 225.816Z" fill="#42FFFF"/>
<path opacity="0.5" d="M484.434 232.134L475.137 226.838L475.548 224.271L484.845 229.555L484.434 232.134Z" fill="#42FFFF"/>
<path opacity="0.5" d="M489.157 234.814L486.253 233.169L486.652 230.589L489.568 232.247L489.157 234.814Z" fill="#42FFFF"/>
<path opacity="0.5" d="M493.693 237.394L490.789 235.736L491.188 233.169L494.092 234.826L493.693 237.394Z" fill="#42FFFF"/>
<path opacity="0.5" d="M468.42 229.418L462.476 226.04L462.887 223.473L468.831 226.85L468.42 229.418Z" fill="#42FFFF"/>
<path d="M500.659 196.567L508.909 201.253L509.308 198.686L501.07 194L500.659 196.567Z" fill="#42FFFF"/>
<path opacity="0.5" d="M501.508 203.446L507.988 207.123L508.387 204.555L501.907 200.879L501.508 203.446Z" fill="#42FFFF"/>
<path opacity="0.5" d="M502.38 210.338L507.066 213.005L507.464 210.425L502.779 207.771L502.38 210.338Z" fill="#42FFFF"/>
<path opacity="0.5" d="M499.326 214.999L506.143 218.874L506.542 216.307L499.725 212.431L499.326 214.999Z" fill="#42FFFF"/>
<path opacity="0.5" d="M500.535 222.09L505.221 224.757L505.62 222.177L500.934 219.51L500.535 222.09Z" fill="#42FFFF"/>
<path opacity="0.5" d="M498.354 227.249L504.299 230.626L504.698 228.059L498.753 224.669L498.354 227.249Z" fill="#42FFFF"/>
<path opacity="0.5" d="M500.136 234.652L503.376 236.496L503.775 233.929L500.535 232.084L500.136 234.652Z" fill="#42FFFF"/>
<path opacity="0.5" d="M496.173 238.802L502.454 242.378L502.853 239.799L496.572 236.234L496.173 238.802Z" fill="#42FFFF"/>
<path opacity="0.5" d="M495.574 244.871L501.519 248.248L501.93 245.681L495.985 242.291L495.574 244.871Z" fill="#42FFFF"/>
<path d="M472.77 231.898L470.24 230.452L470.639 227.885L473.169 229.318L472.77 231.898Z" fill="#42FFFF"/>
<path opacity="0.5" d="M480.271 236.16L474.588 232.932L474.987 230.352L480.682 233.593L480.271 236.16Z" fill="#42FFFF"/>
<path opacity="0.5" d="M427.32 212.594L415.431 205.839L415.842 203.259L427.731 210.026L427.32 212.594Z" fill="#42FFFF"/>
<path opacity="0.5" d="M433.426 216.058L429.139 213.628L429.55 211.061L433.824 213.491L433.426 216.058Z" fill="#42FFFF"/>
<path opacity="0.5" d="M438.149 218.75L435.232 217.092L435.644 214.525L438.547 216.183L438.149 218.75Z" fill="#42FFFF"/>
<path opacity="0.5" d="M420.988 215.398L414.508 211.709L414.919 209.141L421.399 212.818L420.988 215.398Z" fill="#42FFFF"/>
<path opacity="0.5" d="M430.746 220.943L422.808 216.432L423.206 213.852L431.145 218.364L430.746 220.943Z" fill="#42FFFF"/>
<path opacity="0.5" d="M435.469 223.623L432.565 221.978L432.964 219.398L435.868 221.055L435.469 223.623Z" fill="#42FFFF"/>
<path opacity="0.5" d="M439.968 226.19L437.052 224.532L437.463 221.965L440.367 223.61L439.968 226.19Z" fill="#42FFFF"/>
<path opacity="0.5" d="M418.273 220.245L413.587 217.591L413.998 215.011L418.684 217.678L418.273 220.245Z" fill="#42FFFF"/>
<path opacity="0.5" d="M421.699 222.189L420.092 221.28L420.503 218.712L422.098 219.622L421.699 222.189Z" fill="#42FFFF"/>
<path opacity="0.5" d="M426.423 224.881L423.507 223.224L423.918 220.657L426.822 222.314L426.423 224.881Z" fill="#42FFFF"/>
<path opacity="0.5" d="M429.962 233.293L412.664 223.461L413.075 220.893L430.373 230.726L429.962 233.293Z" fill="#42FFFF"/>
<path opacity="0.5" d="M436.068 236.758L431.781 234.328L432.193 231.76L436.467 234.191L436.068 236.758Z" fill="#42FFFF"/>
<path opacity="0.5" d="M416.427 231.997L411.741 229.33L412.152 226.763L416.838 229.43L416.427 231.997Z" fill="#42FFFF"/>
<path opacity="0.5" d="M427.431 238.253L418.246 233.032L418.657 230.464L427.83 235.686L427.431 238.253Z" fill="#42FFFF"/>
<path opacity="0.5" d="M432.155 240.945L429.251 239.288L429.65 236.721L432.554 238.366L432.155 240.945Z" fill="#42FFFF"/>
<path opacity="0.5" d="M420.415 240.659L410.819 235.213L411.231 232.633L420.814 238.091L420.415 240.659Z" fill="#42FFFF"/>
<path opacity="0.5" d="M429.164 245.643L422.223 241.693L422.634 239.126L429.563 243.064L429.164 245.643Z" fill="#42FFFF"/>
<path opacity="0.5" d="M435.669 249.332L430.983 246.665L431.382 244.098L436.068 246.765L435.669 249.332Z" fill="#42FFFF"/>
<path opacity="0.5" d="M413.137 242.927L409.896 241.082L410.308 238.515L413.548 240.347L413.137 242.927Z" fill="#42FFFF"/>
<path opacity="0.5" d="M419.232 246.391L414.957 243.961L415.356 241.381L419.643 243.824L419.232 246.391Z" fill="#42FFFF"/>
<path opacity="0.5" d="M427.942 251.351L421.051 247.425L421.45 244.858L428.354 248.771L427.942 251.351Z" fill="#42FFFF"/>
<path opacity="0.5" d="M418.896 252.597L408.976 246.952L409.387 244.385L419.307 250.03L418.896 252.597Z" fill="#42FFFF"/>
<path opacity="0.5" d="M430.012 258.916L420.715 253.632L421.114 251.064L430.41 256.348L430.012 258.916Z" fill="#42FFFF"/>
<path opacity="0.5" d="M434.735 261.608L431.831 259.95L432.23 257.383L435.134 259.028L434.735 261.608Z" fill="#42FFFF"/>
<path opacity="0.5" d="M439.271 264.187L436.354 262.53L436.766 259.963L439.669 261.608L439.271 264.187Z" fill="#42FFFF"/>
<path opacity="0.5" d="M413.997 256.211L408.053 252.834L408.464 250.255L414.396 253.644L413.997 256.211Z" fill="#42FFFF"/>
<path opacity="0.5" d="M446.236 223.348L454.486 228.047L454.885 225.467L446.648 220.781L446.236 223.348Z" fill="#42FFFF"/>
<path opacity="0.5" d="M447.085 230.228L453.565 233.917L453.964 231.349L447.484 227.66L447.085 230.228Z" fill="#42FFFF"/>
<path opacity="0.5" d="M447.944 237.119L452.643 239.786L453.041 237.219L448.356 234.552L447.944 237.119Z" fill="#42FFFF"/>
<path opacity="0.5" d="M444.891 241.793L451.707 245.668L452.119 243.089L445.302 239.213L444.891 241.793Z" fill="#42FFFF"/>
<path opacity="0.5" d="M446.101 248.871L450.786 251.538L451.198 248.971L446.512 246.304L446.101 248.871Z" fill="#42FFFF"/>
<path opacity="0.5" d="M443.919 254.031L449.863 257.408L450.275 254.841L444.33 251.463L443.919 254.031Z" fill="#42FFFF"/>
<path opacity="0.5" d="M445.701 261.446L448.941 263.29L449.353 260.71L446.112 258.878L445.701 261.446Z" fill="#42FFFF"/>
<path opacity="0.5" d="M441.751 265.596L448.019 269.16L448.431 266.593L442.15 263.016L441.751 265.596Z" fill="#42FFFF"/>
<path opacity="0.5" d="M441.152 271.652L447.097 275.042L447.508 272.462L441.564 269.085L441.152 271.652Z" fill="#42FFFF"/>
<path opacity="0.5" d="M418.346 258.679L415.816 257.246L416.215 254.666L418.745 256.112L418.346 258.679Z" fill="#42FFFF"/>
<path opacity="0.5" d="M425.849 262.954L420.153 259.713L420.565 257.146L426.247 260.374L425.849 262.954Z" fill="#42FFFF"/>
<path opacity="0.5" d="M427.868 282.706L418.272 277.248L418.671 274.681L428.28 280.139L427.868 282.706Z" fill="#42FFFF"/>
<path opacity="0.5" d="M434.448 286.445L430.659 284.301L431.07 281.722L434.847 283.878L434.448 286.445Z" fill="#42FFFF"/>
<path opacity="0.5" d="M473.442 238.714L461.553 231.947L461.952 229.38L473.84 236.135L473.442 238.714Z" fill="#42FFFF"/>
<path opacity="0.5" d="M479.536 242.179L475.262 239.749L475.661 237.169L479.935 239.612L479.536 242.179Z" fill="#42FFFF"/>
<path opacity="0.5" d="M484.26 244.871L481.356 243.213L481.755 240.646L484.659 242.291L484.26 244.871Z" fill="#42FFFF"/>
<path opacity="0.5" d="M467.112 241.506L460.632 237.83L461.031 235.25L467.511 238.939L467.112 241.506Z" fill="#42FFFF"/>
<path opacity="0.5" d="M476.856 247.052L468.918 242.54L469.329 239.973L477.268 244.484L476.856 247.052Z" fill="#42FFFF"/>
<path opacity="0.5" d="M481.58 249.744L478.676 248.086L479.075 245.519L481.991 247.176L481.58 249.744Z" fill="#42FFFF"/>
<path opacity="0.5" d="M486.079 252.298L483.176 250.641L483.575 248.074L486.491 249.731L486.079 252.298Z" fill="#42FFFF"/>
<path opacity="0.5" d="M464.395 246.366L459.709 243.699L460.108 241.132L464.794 243.799L464.395 246.366Z" fill="#42FFFF"/>
<path opacity="0.5" d="M467.809 248.31L466.214 247.401L466.613 244.821L468.22 245.743L467.809 248.31Z" fill="#42FFFF"/>
<path opacity="0.5" d="M472.533 251.002L469.629 249.345L470.028 246.765L472.944 248.422L472.533 251.002Z" fill="#42FFFF"/>
<path opacity="0.5" d="M476.084 259.414L458.786 249.569L459.185 247.002L476.483 256.835L476.084 259.414Z" fill="#42FFFF"/>
<path opacity="0.5" d="M482.178 262.879L477.903 260.449L478.302 257.869L482.577 260.312L482.178 262.879Z" fill="#42FFFF"/>
<path opacity="0.5" d="M462.55 258.118L457.864 255.451L458.263 252.872L462.949 255.539L462.55 258.118Z" fill="#42FFFF"/>
<path opacity="0.5" d="M473.541 264.374L464.356 259.152L464.768 256.573L473.952 261.794L473.541 264.374Z" fill="#42FFFF"/>
<path opacity="0.5" d="M478.265 267.054L475.361 265.396L475.76 262.829L478.676 264.486L478.265 267.054Z" fill="#42FFFF"/>
<path opacity="0.5" d="M466.525 266.779L456.941 261.321L457.34 258.754L466.924 264.2L466.525 266.779Z" fill="#42FFFF"/>
<path opacity="0.5" d="M475.274 271.752L468.345 267.814L468.744 265.234L475.685 269.185L475.274 271.752Z" fill="#42FFFF"/>
<path opacity="0.5" d="M481.78 275.453L477.094 272.786L477.493 270.219L482.178 272.873L481.78 275.453Z" fill="#42FFFF"/>
<path opacity="0.5" d="M459.248 269.035L456.021 267.203L456.419 264.624L459.66 266.468L459.248 269.035Z" fill="#42FFFF"/>
<path opacity="0.5" d="M465.354 272.512L461.067 270.069L461.479 267.502L465.753 269.932L465.354 272.512Z" fill="#42FFFF"/>
<path opacity="0.5" d="M474.065 277.46L467.161 273.534L467.572 270.967L474.464 274.892L474.065 277.46Z" fill="#42FFFF"/>
<path opacity="0.5" d="M465.018 278.718L455.098 273.073L455.496 270.506L465.416 276.139L465.018 278.718Z" fill="#42FFFF"/>
<path opacity="0.5" d="M476.122 285.037L466.825 279.753L467.236 277.173L476.533 282.457L476.122 285.037Z" fill="#42FFFF"/>
<path opacity="0.5" d="M480.845 287.716L477.941 286.071L478.34 283.491L481.256 285.149L480.845 287.716Z" fill="#42FFFF"/>
<path opacity="0.5" d="M485.38 290.296L482.477 288.638L482.875 286.071L485.791 287.729L485.38 290.296Z" fill="#42FFFF"/>
<path opacity="0.5" d="M460.108 282.332L454.163 278.943L454.574 276.375L460.519 279.753L460.108 282.332Z" fill="#42FFFF"/>
<path opacity="0.5" d="M492.36 249.469L500.598 254.155L500.997 251.588L492.759 246.902L492.36 249.469Z" fill="#42FFFF"/>
<path opacity="0.5" d="M493.195 256.348L499.676 260.037L500.074 257.458L493.607 253.781L493.195 256.348Z" fill="#42FFFF"/>
<path opacity="0.5" d="M494.066 263.24L498.752 265.907L499.151 263.34L494.465 260.673L494.066 263.24Z" fill="#42FFFF"/>
<path opacity="0.5" d="M491.015 267.901L497.832 271.777L498.23 269.21L491.413 265.334L491.015 267.901Z" fill="#42FFFF"/>
<path opacity="0.5" d="M492.223 274.992L496.908 277.659L497.307 275.079L492.621 272.412L492.223 274.992Z" fill="#42FFFF"/>
<path opacity="0.5" d="M490.042 280.151L495.987 283.529L496.385 280.961L490.441 277.572L490.042 280.151Z" fill="#42FFFF"/>
<path opacity="0.5" d="M491.823 287.567L495.063 289.398L495.462 286.831L492.222 284.987L491.823 287.567Z" fill="#42FFFF"/>
<path opacity="0.5" d="M487.861 291.704L494.142 295.281L494.541 292.701L488.26 289.137L487.861 291.704Z" fill="#42FFFF"/>
<path opacity="0.5" d="M487.275 297.773L493.22 301.15L493.619 298.583L487.674 295.206L487.275 297.773Z" fill="#42FFFF"/>
<path opacity="0.5" d="M464.457 284.8L461.927 283.354L462.338 280.787L464.855 282.22L464.457 284.8Z" fill="#42FFFF"/>
<path opacity="0.5" d="M471.959 289.062L466.276 285.834L466.675 283.255L472.37 286.495L471.959 289.062Z" fill="#42FFFF"/>
<path opacity="0.5" d="M473.991 308.827L464.383 303.369L464.794 300.789L474.39 306.26L473.991 308.827Z" fill="#42FFFF"/>
<path opacity="0.5" d="M480.558 312.566L476.782 310.41L477.181 307.843L480.97 309.999L480.558 312.566Z" fill="#42FFFF"/>
<path opacity="0.5" d="M324.803 96.1089L312.914 89.3543L313.325 86.7747L325.214 93.5417L324.803 96.1089Z" fill="#42FFFF"/>
<path opacity="0.5" d="M330.898 99.5734L326.623 97.1433L327.022 94.576L331.309 97.0062L330.898 99.5734Z" fill="#42FFFF"/>
<path opacity="0.5" d="M335.621 102.265L332.718 100.608L333.129 98.0405L336.033 99.6855L335.621 102.265Z" fill="#42FFFF"/>
<path opacity="0.5" d="M318.473 98.9004L311.992 95.224L312.403 92.6568L318.871 96.3332L318.473 98.9004Z" fill="#42FFFF"/>
<path opacity="0.5" d="M328.23 104.459L320.292 99.9348L320.691 97.3676L328.629 101.879L328.23 104.459Z" fill="#42FFFF"/>
<path opacity="0.5" d="M332.954 107.138L330.038 105.48L330.449 102.913L333.353 104.571L332.954 107.138Z" fill="#42FFFF"/>
<path opacity="0.5" d="M337.453 109.693L334.537 108.048L334.948 105.468L337.852 107.125L337.453 109.693Z" fill="#42FFFF"/>
<path d="M315.756 103.761L311.07 101.094L311.482 98.5266L316.167 101.193L315.756 103.761Z" fill="#42FFFF"/>
<path d="M319.183 105.705L317.575 104.795L317.974 102.228L319.582 103.138L319.183 105.705Z" fill="#42FFFF"/>
<path opacity="0.5" d="M323.906 108.397L320.99 106.739L321.402 104.172L324.305 105.817L323.906 108.397Z" fill="#42FFFF"/>
<path opacity="0.5" d="M327.446 116.809L310.148 106.976L310.56 104.396L327.857 114.241L327.446 116.809Z" fill="#42FFFF"/>
<path opacity="0.5" d="M333.539 120.273L329.265 117.843L329.663 115.276L333.95 117.706L333.539 120.273Z" fill="#42FFFF"/>
<path opacity="0.5" d="M313.911 115.513L309.226 112.846L309.624 110.278L314.323 112.945L313.911 115.513Z" fill="#42FFFF"/>
<path opacity="0.5" d="M324.915 121.769L315.73 116.547L316.129 113.967L325.314 119.189L324.915 121.769Z" fill="#42FFFF"/>
<path opacity="0.5" d="M329.639 124.448L326.723 122.803L327.134 120.223L330.038 121.881L329.639 124.448Z" fill="#42FFFF"/>
<path opacity="0.5" d="M317.886 124.174L308.303 118.715L308.702 116.148L318.297 121.607L317.886 124.174Z" fill="#42FFFF"/>
<path d="M326.649 129.146L319.707 125.208L320.118 122.629L327.047 126.579L326.649 129.146Z" fill="#42FFFF"/>
<path opacity="0.5" d="M333.14 132.848L328.454 130.181L328.865 127.613L333.551 130.28L333.14 132.848Z" fill="#42FFFF"/>
<path opacity="0.5" d="M310.622 126.442L307.382 124.598L307.781 122.018L311.021 123.862L310.622 126.442Z" fill="#42FFFF"/>
<path opacity="0.5" d="M316.716 129.907L312.441 127.464L312.84 124.897L317.115 127.327L316.716 129.907Z" fill="#42FFFF"/>
<path opacity="0.5" d="M325.426 134.854L318.534 130.941L318.933 128.361L325.837 132.287L325.426 134.854Z" fill="#42FFFF"/>
<path opacity="0.5" d="M316.379 136.113L306.459 130.467L306.858 127.9L316.778 133.545L316.379 136.113Z" fill="#42FFFF"/>
<path opacity="0.5" d="M327.495 142.431L318.198 137.147L318.597 134.567L327.894 139.864L327.495 142.431Z" fill="#42FFFF"/>
<path d="M332.219 145.123L329.303 143.465L329.714 140.886L332.618 142.543L332.219 145.123Z" fill="#42FFFF"/>
<path opacity="0.5" d="M336.755 147.69L333.839 146.045L334.25 143.465L337.154 145.123L336.755 147.69Z" fill="#42FFFF"/>
<path opacity="0.5" d="M311.482 139.727L305.537 136.337L305.936 133.77L311.88 137.147L311.482 139.727Z" fill="#42FFFF"/>
<path d="M343.721 106.864L351.958 111.55L352.37 108.982L344.12 104.297L343.721 106.864Z" fill="#42FFFF"/>
<path opacity="0.5" d="M344.569 113.743L351.037 117.432L351.448 114.852L344.968 111.176L344.569 113.743Z" fill="#42FFFF"/>
<path opacity="0.5" d="M345.428 120.635L350.114 123.301L350.525 120.734L345.839 118.067L345.428 120.635Z" fill="#42FFFF"/>
<path opacity="0.5" d="M342.376 125.295L349.193 129.171L349.604 126.604L342.787 122.728L342.376 125.295Z" fill="#42FFFF"/>
<path opacity="0.5" d="M343.584 132.386L348.27 135.053L348.681 132.474L343.995 129.819L343.584 132.386Z" fill="#42FFFF"/>
<path opacity="0.5" d="M341.403 137.546L347.348 140.923L347.759 138.356L341.815 134.979L341.403 137.546Z" fill="#42FFFF"/>
<path opacity="0.5" d="M343.186 144.961L346.426 146.805L346.837 144.226L343.597 142.381L343.186 144.961Z" fill="#42FFFF"/>
<path opacity="0.5" d="M339.223 149.111L345.504 152.675L345.902 150.108L339.634 146.531L339.223 149.111Z" fill="#42FFFF"/>
<path opacity="0.5" d="M338.638 155.168L344.582 158.545L344.981 155.978L339.036 152.6L338.638 155.168Z" fill="#42FFFF"/>
<path opacity="0.5" d="M315.819 142.194L313.302 140.761L313.701 138.181L316.23 139.627L315.819 142.194Z" fill="#42FFFF"/>
<path opacity="0.5" d="M323.333 146.456L317.638 143.229L318.049 140.649L323.732 143.889L323.333 146.456Z" fill="#42FFFF"/>
<path opacity="0.5" d="M370.926 122.23L359.037 115.463L359.436 112.896L371.325 119.65L370.926 122.23Z" fill="#42FFFF"/>
<path opacity="0.5" d="M377.02 125.694L372.733 123.252L373.145 120.684L377.419 123.115L377.02 125.694Z" fill="#42FFFF"/>
<path d="M381.744 128.374L378.828 126.729L379.239 124.149L382.143 125.806L381.744 128.374Z" fill="#42FFFF"/>
<path opacity="0.5" d="M364.583 125.021L358.115 121.332L358.514 118.765L364.994 122.454L364.583 125.021Z" fill="#42FFFF"/>
<path opacity="0.5" d="M374.341 130.567L366.402 126.056L366.814 123.488L374.74 128L374.341 130.567Z" fill="#42FFFF"/>
<path d="M379.064 133.259L376.16 131.601L376.559 129.034L379.475 130.679L379.064 133.259Z" fill="#42FFFF"/>
<path opacity="0.5" d="M383.563 135.814L380.659 134.156L381.058 131.589L383.962 133.246L383.563 135.814Z" fill="#42FFFF"/>
<path opacity="0.5" d="M361.879 129.882L357.193 127.215L357.592 124.647L362.278 127.302L361.879 129.882Z" fill="#42FFFF"/>
<path opacity="0.5" d="M365.293 131.826L363.686 130.916L364.097 128.336L365.692 129.246L365.293 131.826Z" fill="#42FFFF"/>
<path opacity="0.5" d="M370.017 134.505L367.113 132.86L367.512 130.28L370.416 131.938L370.017 134.505Z" fill="#42FFFF"/>
<path opacity="0.5" d="M373.569 142.93L356.259 133.084L356.67 130.517L373.968 140.35L373.569 142.93Z" fill="#42FFFF"/>
<path opacity="0.5" d="M379.662 146.394L375.375 143.964L375.786 141.384L380.061 143.814L379.662 146.394Z" fill="#42FFFF"/>
<path opacity="0.5" d="M360.034 141.621L355.336 138.967L355.747 136.387L360.433 139.054L360.034 141.621Z" fill="#42FFFF"/>
<path opacity="0.5" d="M371.025 147.877L361.841 142.655L362.252 140.088L371.424 145.31L371.025 147.877Z" fill="#42FFFF"/>
<path opacity="0.5" d="M375.748 150.569L372.845 148.911L373.243 146.344L376.16 148.002L375.748 150.569Z" fill="#42FFFF"/>
<path d="M364.009 150.295L354.413 144.836L354.824 142.269L364.408 147.715L364.009 150.295Z" fill="#42FFFF"/>
<path opacity="0.5" d="M372.758 155.267L365.829 151.317L366.228 148.749L373.157 152.7L372.758 155.267Z" fill="#42FFFF"/>
<path opacity="0.5" d="M379.264 158.969L374.578 156.302L374.977 153.722L379.663 156.389L379.264 158.969Z" fill="#42FFFF"/>
<path opacity="0.5" d="M356.732 152.55L353.492 150.706L353.903 148.139L357.144 149.983L356.732 152.55Z" fill="#42FFFF"/>
<path opacity="0.5" d="M362.826 156.015L358.552 153.585L358.951 151.018L363.238 153.448L362.826 156.015Z" fill="#42FFFF"/>
<path d="M371.549 160.975L364.645 157.049L365.056 154.482L371.947 158.408L371.549 160.975Z" fill="#42FFFF"/>
<path opacity="0.5" d="M362.489 162.221L352.569 156.588L352.981 154.008L362.901 159.654L362.489 162.221Z" fill="#42FFFF"/>
<path opacity="0.5" d="M373.605 168.539L364.309 163.255L364.72 160.688L374.004 165.972L373.605 168.539Z" fill="#42FFFF"/>
<path opacity="0.5" d="M378.329 171.231L375.425 169.574L375.824 167.007L378.74 168.664L378.329 171.231Z" fill="#42FFFF"/>
<path opacity="0.5" d="M382.865 173.811L379.961 172.154L380.36 169.586L383.263 171.244L382.865 173.811Z" fill="#42FFFF"/>
<path opacity="0.5" d="M357.592 165.835L351.647 162.458L352.059 159.891L358.003 163.268L357.592 165.835Z" fill="#42FFFF"/>
<path d="M389.831 132.985L398.081 137.671L398.48 135.103L390.242 130.405L389.831 132.985Z" fill="#42FFFF"/>
<path opacity="0.5" d="M390.68 139.864L397.16 143.54L397.559 140.973L391.078 137.284L390.68 139.864Z" fill="#42FFFF"/>
<path opacity="0.5" d="M391.552 146.755L396.238 149.422L396.636 146.843L391.951 144.176L391.552 146.755Z" fill="#42FFFF"/>
<path opacity="0.5" d="M388.498 151.416L395.315 155.292L395.714 152.725L388.897 148.849L388.498 151.416Z" fill="#42FFFF"/>
<path opacity="0.5" d="M389.694 158.507L394.393 161.162L394.791 158.595L390.106 155.928L389.694 158.507Z" fill="#42FFFF"/>
<path opacity="0.5" d="M387.526 163.667L393.458 167.044L393.87 164.464L387.925 161.087L387.526 163.667Z" fill="#42FFFF"/>
<path opacity="0.5" d="M389.308 171.069L392.535 172.914L392.947 170.347L389.706 168.502L389.308 171.069Z" fill="#42FFFF"/>
<path opacity="0.5" d="M385.345 175.219L391.613 178.783L392.024 176.216L385.743 172.652L385.345 175.219Z" fill="#42FFFF"/>
<path opacity="0.5" d="M384.748 181.288L390.693 184.666L391.104 182.098L385.159 178.709L384.748 181.288Z" fill="#42FFFF"/>
<path d="M361.942 168.315L359.412 166.87L359.811 164.302L362.341 165.736L361.942 168.315Z" fill="#42FFFF"/>
<path opacity="0.5" d="M369.443 172.577L363.748 169.337L364.159 166.77L369.842 170.01L369.443 172.577Z" fill="#42FFFF"/>
<path opacity="0.5" d="M316.492 149.011L304.603 142.257L305.014 139.677L316.903 146.444L316.492 149.011Z" fill="#42FFFF"/>
<path opacity="0.5" d="M322.585 152.476L318.311 150.045L318.709 147.478L322.996 149.908L322.585 152.476Z" fill="#42FFFF"/>
<path opacity="0.5" d="M327.32 155.167L324.404 153.51L324.816 150.943L327.719 152.6L327.32 155.167Z" fill="#42FFFF"/>
<path opacity="0.5" d="M310.16 151.815L303.68 148.126L304.091 145.559L310.571 149.235L310.16 151.815Z" fill="#42FFFF"/>
<path opacity="0.5" d="M319.918 157.361L311.979 152.837L312.378 150.27L320.317 154.781L319.918 157.361Z" fill="#42FFFF"/>
<path opacity="0.5" d="M324.641 160.04L321.737 158.395L322.136 155.816L325.04 157.473L324.641 160.04Z" fill="#42FFFF"/>
<path opacity="0.5" d="M329.14 162.595L326.224 160.95L326.635 158.37L329.539 160.028L329.14 162.595Z" fill="#42FFFF"/>
<path opacity="0.5" d="M307.445 156.663L302.759 153.996L303.17 151.429L307.856 154.096L307.445 156.663Z" fill="#42FFFF"/>
<path opacity="0.5" d="M310.871 158.607L309.264 157.697L309.675 155.13L311.27 156.04L310.871 158.607Z" fill="#42FFFF"/>
<path opacity="0.5" d="M315.595 161.299L312.679 159.641L313.09 157.074L315.994 158.719L315.595 161.299Z" fill="#42FFFF"/>
<path opacity="0.5" d="M319.134 169.711L301.836 159.878L302.247 157.299L319.545 167.144L319.134 169.711Z" fill="#42FFFF"/>
<path opacity="0.5" d="M325.228 173.175L320.953 170.745L321.352 168.178L325.639 170.608L325.228 173.175Z" fill="#42FFFF"/>
<path opacity="0.5" d="M305.599 168.415L300.913 165.748L301.324 163.181L306.01 165.848L305.599 168.415Z" fill="#42FFFF"/>
<path opacity="0.5" d="M316.603 174.671L307.418 169.449L307.817 166.87L317.001 172.104L316.603 174.671Z" fill="#42FFFF"/>
<path opacity="0.5" d="M321.327 177.35L318.423 175.705L318.822 173.126L321.725 174.783L321.327 177.35Z" fill="#42FFFF"/>
<path opacity="0.5" d="M309.587 177.076L299.991 171.618L300.402 169.05L309.986 174.509L309.587 177.076Z" fill="#42FFFF"/>
<path opacity="0.5" d="M318.336 182.049L311.395 178.11L311.806 175.543L318.735 179.481L318.336 182.049Z" fill="#42FFFF"/>
<path opacity="0.5" d="M324.841 185.75L320.155 183.083L320.554 180.516L325.24 183.183L324.841 185.75Z" fill="#42FFFF"/>
<path opacity="0.5" d="M302.31 179.344L299.069 177.5L299.481 174.92L302.708 176.765L302.31 179.344Z" fill="#42FFFF"/>
<path opacity="0.5" d="M308.403 182.809L304.129 180.366L304.528 177.799L308.815 180.229L308.403 182.809Z" fill="#42FFFF"/>
<path opacity="0.5" d="M317.114 187.756L310.223 183.843L310.621 181.263L317.526 185.189L317.114 187.756Z" fill="#42FFFF"/>
<path opacity="0.5" d="M308.067 189.015L298.147 183.37L298.546 180.802L308.479 186.448L308.067 189.015Z" fill="#42FFFF"/>
<path opacity="0.5" d="M319.184 195.333L309.887 190.049L310.286 187.47L319.582 192.766L319.184 195.333Z" fill="#42FFFF"/>
<path opacity="0.5" d="M323.906 198.025L320.99 196.368L321.402 193.8L324.305 195.446L323.906 198.025Z" fill="#42FFFF"/>
<path opacity="0.5" d="M328.443 200.592L325.526 198.947L325.938 196.368L328.841 198.025L328.443 200.592Z" fill="#42FFFF"/>
<path opacity="0.5" d="M303.169 192.629L297.225 189.252L297.623 186.672L303.568 190.049L303.169 192.629Z" fill="#42FFFF"/>
<path opacity="0.5" d="M335.408 159.766L343.658 164.452L344.057 161.885L335.819 157.199L335.408 159.766Z" fill="#42FFFF"/>
<path opacity="0.5" d="M336.257 166.645L342.725 170.334L343.136 167.754L336.656 164.078L336.257 166.645Z" fill="#42FFFF"/>
<path opacity="0.5" d="M337.116 173.537L341.802 176.204L342.213 173.637L337.527 170.97L337.116 173.537Z" fill="#42FFFF"/>
<path opacity="0.5" d="M334.062 178.198L340.879 182.073L341.291 179.506L334.474 175.63L334.062 178.198Z" fill="#42FFFF"/>
<path opacity="0.5" d="M335.272 185.289L339.958 187.956L340.37 185.388L335.684 182.721L335.272 185.289Z" fill="#42FFFF"/>
<path opacity="0.5" d="M333.091 190.448L339.035 193.825L339.447 191.258L333.502 187.881L333.091 190.448Z" fill="#42FFFF"/>
<path opacity="0.5" d="M334.873 197.863L338.113 199.708L338.524 197.128L335.284 195.283L334.873 197.863Z" fill="#42FFFF"/>
<path opacity="0.5" d="M330.923 202.013L337.191 205.577L337.603 203.01L331.322 199.433L330.923 202.013Z" fill="#42FFFF"/>
<path opacity="0.5" d="M330.324 208.07L336.269 211.447L336.68 208.88L330.735 205.503L330.324 208.07Z" fill="#42FFFF"/>
<path opacity="0.5" d="M307.519 195.097L304.989 193.663L305.388 191.084L307.918 192.529L307.519 195.097Z" fill="#42FFFF"/>
<path opacity="0.5" d="M315.02 199.371L309.325 196.131L309.736 193.564L315.419 196.791L315.02 199.371Z" fill="#42FFFF"/>
<path opacity="0.5" d="M317.04 219.124L307.444 213.665L307.843 211.098L317.452 216.557L317.04 219.124Z" fill="#42FFFF"/>
<path opacity="0.5" d="M323.62 222.862L319.831 220.719L320.242 218.139L324.018 220.295L323.62 222.862Z" fill="#42FFFF"/>
<path opacity="0.5" d="M362.614 175.132L350.725 168.365L351.123 165.798L363.012 172.552L362.614 175.132Z" fill="#42FFFF"/>
<path opacity="0.5" d="M368.708 178.596L364.421 176.166L364.832 173.587L369.107 176.029L368.708 178.596Z" fill="#42FFFF"/>
<path opacity="0.5" d="M373.432 181.276L370.528 179.631L370.927 177.051L373.831 178.709L373.432 181.276Z" fill="#42FFFF"/>
<path opacity="0.5" d="M356.272 177.924L349.804 174.247L350.203 171.667L356.683 175.356L356.272 177.924Z" fill="#42FFFF"/>
<path opacity="0.5" d="M366.028 183.469L358.09 178.958L358.501 176.391L366.44 180.902L366.028 183.469Z" fill="#42FFFF"/>
<path opacity="0.5" d="M370.751 186.161L367.848 184.504L368.246 181.936L371.163 183.594L370.751 186.161Z" fill="#42FFFF"/>
<path opacity="0.5" d="M375.251 188.716L372.348 187.058L372.746 184.491L375.65 186.149L375.251 188.716Z" fill="#42FFFF"/>
<path opacity="0.5" d="M353.567 182.784L348.881 180.117L349.28 177.55L353.965 180.204L353.567 182.784Z" fill="#42FFFF"/>
<path opacity="0.5" d="M356.982 184.728L355.374 183.818L355.785 181.239L357.38 182.148L356.982 184.728Z" fill="#42FFFF"/>
<path opacity="0.5" d="M361.705 187.407L358.801 185.762L359.2 183.183L362.116 184.84L361.705 187.407Z" fill="#42FFFF"/>
<path opacity="0.5" d="M365.256 195.832L347.958 185.987L348.357 183.419L365.654 193.252L365.256 195.832Z" fill="#42FFFF"/>
<path opacity="0.5" d="M371.35 199.296L367.063 196.866L367.475 194.286L371.749 196.729L371.35 199.296Z" fill="#42FFFF"/>
<path opacity="0.5" d="M351.722 194.536L347.036 191.869L347.435 189.289L352.121 191.956L351.722 194.536Z" fill="#42FFFF"/>
<path opacity="0.5" d="M362.713 200.779L353.528 195.558L353.94 192.99L363.124 198.212L362.713 200.779Z" fill="#42FFFF"/>
<path opacity="0.5" d="M367.437 203.471L364.533 201.814L364.932 199.246L367.848 200.904L367.437 203.471Z" fill="#42FFFF"/>
<path opacity="0.5" d="M355.698 203.197L346.114 197.738L346.513 195.171L356.097 200.617L355.698 203.197Z" fill="#42FFFF"/>
<path opacity="0.5" d="M364.446 208.169L357.517 204.219L357.915 201.652L364.857 205.602L364.446 208.169Z" fill="#42FFFF"/>
<path opacity="0.5" d="M370.951 211.871L366.266 209.204L366.664 206.624L371.35 209.291L370.951 211.871Z" fill="#42FFFF"/>
<path opacity="0.5" d="M348.42 205.453L345.18 203.608L345.591 201.041L348.831 202.885L348.42 205.453Z" fill="#42FFFF"/>
<path opacity="0.5" d="M354.526 208.917L350.239 206.487L350.651 203.92L354.925 206.35L354.526 208.917Z" fill="#42FFFF"/>
<path opacity="0.5" d="M363.237 213.877L356.333 209.952L356.744 207.384L363.636 211.31L363.237 213.877Z" fill="#42FFFF"/>
<path opacity="0.5" d="M354.178 215.123L344.258 209.49L344.669 206.911L354.589 212.556L354.178 215.123Z" fill="#42FFFF"/>
<path opacity="0.5" d="M365.294 221.454L355.997 216.158L356.408 213.591L365.705 218.875L365.294 221.454Z" fill="#42FFFF"/>
<path opacity="0.5" d="M370.017 224.134L367.113 222.476L367.512 219.909L370.428 221.566L370.017 224.134Z" fill="#42FFFF"/>
<path opacity="0.5" d="M374.552 226.713L371.648 225.056L372.047 222.489L374.951 224.146L374.552 226.713Z" fill="#42FFFF"/>
<path opacity="0.5" d="M349.279 218.737L343.335 215.36L343.746 212.793L349.691 216.17L349.279 218.737Z" fill="#42FFFF"/>
<path opacity="0.5" d="M381.519 185.887L389.769 190.573L390.167 188.006L381.93 183.307L381.519 185.887Z" fill="#42FFFF"/>
<path opacity="0.5" d="M382.367 192.766L388.848 196.442L389.246 193.875L382.766 190.186L382.367 192.766Z" fill="#42FFFF"/>
<path opacity="0.5" d="M383.238 199.658L387.924 202.325L388.323 199.745L383.637 197.091L383.238 199.658Z" fill="#42FFFF"/>
<path opacity="0.5" d="M380.187 204.319L387.003 208.194L387.402 205.627L380.585 201.751L380.187 204.319Z" fill="#42FFFF"/>
<path opacity="0.5" d="M381.395 211.41L386.08 214.064L386.479 211.497L381.793 208.83L381.395 211.41Z" fill="#42FFFF"/>
<path opacity="0.5" d="M379.214 216.569L385.158 219.946L385.557 217.367L379.613 213.989L379.214 216.569Z" fill="#42FFFF"/>
<path opacity="0.5" d="M380.995 223.972L384.235 225.816L384.634 223.249L381.394 221.404L380.995 223.972Z" fill="#42FFFF"/>
<path opacity="0.5" d="M377.033 228.121L383.314 231.698L383.713 229.118L377.432 225.554L377.033 228.121Z" fill="#42FFFF"/>
<path opacity="0.5" d="M376.447 234.191L382.379 237.568L382.791 235.001L376.846 231.611L376.447 234.191Z" fill="#42FFFF"/>
<path opacity="0.5" d="M353.629 221.217L351.1 219.772L351.498 217.205L354.028 218.638L353.629 221.217Z" fill="#42FFFF"/>
<path opacity="0.5" d="M361.131 225.48L355.448 222.239L355.847 219.672L361.542 222.912L361.131 225.48Z" fill="#42FFFF"/>
<path opacity="0.5" d="M363.163 245.245L353.555 239.786L353.953 237.206L363.562 242.665L363.163 245.245Z" fill="#42FFFF"/>
<path opacity="0.5" d="M369.73 248.983L365.954 246.827L366.353 244.26L370.141 246.404L369.73 248.983Z" fill="#42FFFF"/>
<path d="M322.923 153.522L334.027 147.129V147.142C334.176 147.042 334.363 147.042 334.575 147.167L473.704 227.498C474.152 227.76 474.526 228.458 474.526 229.069V255.339C474.526 255.626 474.439 255.837 474.302 255.962H474.289C474.277 255.975 474.264 255.975 474.252 255.987L463.036 262.442L462.949 249.756L334.563 175.63C334.114 175.369 333.74 174.671 333.74 174.06V165.05L322.923 153.522Z" fill="url(#paint16_linear_648_4717)"/>
<path d="M323.421 182.049L462.55 262.38C462.998 262.642 463.372 262.368 463.372 261.757V235.487C463.372 234.876 462.998 234.178 462.55 233.916L323.421 153.585C322.973 153.323 322.599 153.597 322.599 154.208V180.478C322.599 181.076 322.96 181.787 323.421 182.049Z" fill="url(#paint17_linear_648_4717)"/>
<path opacity="0.6" d="M342.612 176.727L450.947 240.422C447.594 243.301 444.429 246.603 441.513 250.23L332.381 187.22C335.521 183.307 338.961 179.768 342.612 176.727Z" fill="#242993"/>
<path d="M327.384 174.16L458.574 249.905C458.886 250.08 459.135 249.893 459.135 249.482V242.889C459.135 242.478 458.886 241.992 458.574 241.817L327.384 166.059C327.073 165.885 326.823 166.072 326.823 166.483V173.076C326.823 173.499 327.073 173.973 327.384 174.16Z" fill="#242993"/>
<path d="M327.384 166.059L330.051 167.605V171.169C330.051 171.58 330.3 172.066 330.612 172.241L459.135 246.441V249.482C459.135 249.893 458.886 250.08 458.574 249.906L327.384 174.16C327.073 173.985 326.823 173.499 326.823 173.088V166.496C326.823 166.072 327.073 165.885 327.384 166.059Z" fill="#4553C7"/>
<path opacity="0.96" d="M253.682 458.349L144.538 395.34C158.62 387.214 170.484 369.418 174.111 352.407C175.582 345.516 179.806 339.521 185.9 335.995L268.375 288.389C291.343 275.129 306.236 251.251 307.794 224.769C309.115 202.412 326.013 180.428 339.136 172.851L448.281 235.86C435.357 243.325 421.125 264.175 419.505 286.158C417.549 312.64 403.155 336.593 380.162 349.878L295.045 399.016C288.938 402.543 284.713 408.525 283.255 415.429C279.629 432.428 267.765 450.224 253.682 458.349Z" fill="url(#paint18_linear_648_4717)"/>
<path opacity="0.8" d="M339.15 172.851L448.294 235.86C447.422 236.371 446.549 236.92 445.689 237.481H445.677L336.545 174.471C337.417 173.898 338.277 173.35 339.15 172.851Z" fill="#4553C7"/>
<g opacity="0.32">
<path d="M380.188 247.376L399.33 258.48L399.492 256.261L380.374 245.22L380.188 247.376Z" fill="#4553C7"/>
<path d="M370.541 241.793L377.308 245.706L377.495 243.55L370.74 239.649L370.541 241.793Z" fill="#4553C7"/>
<path d="M363.14 237.493L367.688 240.135L367.9 238.004L363.351 235.375L363.14 237.493Z" fill="#4553C7"/>
<path d="M388.449 257.42L398.98 263.552L399.129 261.321L388.624 255.214L388.449 257.42Z" fill="#4553C7"/>
<path d="M372.848 248.323L385.522 255.713L385.709 253.52L373.047 246.154L372.848 248.323Z" fill="#4553C7"/>
<path d="M365.395 243.974L369.968 246.653L370.18 244.484L365.606 241.83L365.395 243.974Z" fill="#4553C7"/>
<path d="M358.354 239.886L362.903 242.528L363.115 240.384L358.579 237.755L358.354 239.886Z" fill="#4553C7"/>
<path d="M390.954 264.175L398.618 268.661L398.768 266.418L391.129 261.956L390.954 264.175Z" fill="#4553C7"/>
<path d="M385.409 260.935L388.001 262.455L388.188 260.224L385.596 258.716L385.409 260.935Z" fill="#4553C7"/>
<path d="M377.819 256.473L382.48 259.215L382.667 257.009L378.006 254.28L377.819 256.473Z" fill="#4553C7"/>
<path d="M370.218 257.308L398.258 273.82L398.407 271.552L370.417 255.115L370.218 257.308Z" fill="#4553C7"/>
<path d="M360.547 251.613L367.326 255.601L367.538 253.42L360.771 249.444L360.547 251.613Z" fill="#4553C7"/>
<path d="M390.169 274.456L397.883 279.03L398.045 276.737L390.343 272.188L390.169 274.456Z" fill="#4553C7"/>
<path d="M372.324 263.888L387.192 272.699L387.379 270.431L372.524 261.67L372.324 263.888Z" fill="#4553C7"/>
<path d="M364.771 259.414L369.407 262.168L369.619 259.95L364.983 257.208L364.771 259.414Z" fill="#4553C7"/>
<path d="M381.733 274.88L397.523 284.276L397.685 281.971L381.92 272.612L381.733 274.88Z" fill="#4553C7"/>
<path d="M367.588 266.455L378.779 273.11L378.966 270.855L367.8 264.225L367.588 266.455Z" fill="#4553C7"/>
<path d="M357.22 260.287L364.672 264.723L364.896 262.492L357.457 258.081L357.22 260.287Z" fill="#4553C7"/>
<path d="M391.765 286.345L397.148 289.573L397.31 287.242L391.939 284.04L391.765 286.345Z" fill="#4553C7"/>
<path d="M381.721 280.326L388.762 284.551L388.936 282.245L381.908 278.045L381.721 280.326Z" fill="#4553C7"/>
<path d="M367.563 271.851L378.742 278.556L378.942 276.276L367.775 269.608L367.563 271.851Z" fill="#4553C7"/>
<path d="M380.312 284.999L396.774 294.907L396.936 292.564L380.511 282.694L380.312 284.999Z" fill="#4553C7"/>
<path d="M362.255 274.132L377.334 283.205L377.534 280.912L362.479 271.876L362.255 274.132Z" fill="#4553C7"/>
<path d="M354.689 269.583L359.338 272.375L359.562 270.132L354.926 267.34L354.689 269.583Z" fill="#4553C7"/>
<path d="M347.499 265.247L352.11 268.026L352.347 265.795L347.748 263.028L347.499 265.247Z" fill="#4553C7"/>
<path d="M386.456 294.284L396.401 300.29L396.563 297.935L386.643 291.941L386.456 294.284Z" fill="#4553C7"/>
<path d="M342.664 225.629L330.214 218.413L330.476 216.37L342.913 223.548L342.664 225.629Z" fill="#4553C7"/>
<path d="M339.386 228.832L329.591 223.124L329.865 221.055L339.648 226.738L339.386 228.832Z" fill="#4553C7"/>
<path d="M336.071 232.022L328.955 227.86L329.242 225.779L336.333 229.929L336.071 232.022Z" fill="#4553C7"/>
<path d="M338.725 238.764L328.331 232.645L328.605 230.539L338.986 236.646L338.725 238.764Z" fill="#4553C7"/>
<path d="M334.85 241.705L327.696 237.456L327.97 235.35L335.124 239.574L334.85 241.705Z" fill="#4553C7"/>
<path d="M336.171 247.75L327.049 242.316L327.335 240.185L336.445 245.594L336.171 247.75Z" fill="#4553C7"/>
<path d="M331.385 250.205L326.4 247.214L326.687 245.07L331.659 248.036L331.385 250.205Z" fill="#4553C7"/>
<path d="M335.461 258.006L325.753 252.161L326.04 249.993L335.735 255.813L335.461 258.006Z" fill="#4553C7"/>
<path d="M334.314 262.729L325.092 257.146L325.378 254.953L334.588 260.523L334.314 262.729Z" fill="#4553C7"/>
<path d="M379.265 289.922L383.44 292.452L383.626 290.121L379.464 287.604L379.265 289.922Z" fill="#4553C7"/>
<path d="M366.978 282.494L376.274 288.115L376.474 285.809L367.202 280.201L366.978 282.494Z" fill="#4553C7"/>
</g>
<g opacity="0.32">
<path d="M309.713 319.644L281.249 303.219L283.293 302.048L311.744 318.473L309.713 319.644Z" fill="#4553C7"/>
<path d="M326.262 329.203L315.993 323.271L318.025 322.099L328.293 328.031L326.262 329.203Z" fill="#4553C7"/>
<path d="M334.499 333.963L331.483 332.219L333.515 331.047L336.531 332.792L334.499 333.963Z" fill="#4553C7"/>
<path d="M350.003 342.911L339.734 336.979L341.766 335.808L352.035 341.74L350.003 342.911Z" fill="#4553C7"/>
<path d="M285.361 310.447L277.049 305.649L279.08 304.478L287.392 309.276L285.361 310.447Z" fill="#4553C7"/>
<path d="M322.049 331.633L291.642 314.074L293.673 312.902L324.081 330.462L322.049 331.633Z" fill="#4553C7"/>
<path d="M330.299 336.381L327.283 334.649L329.315 333.477L332.33 335.21L330.299 336.381Z" fill="#4553C7"/>
<path d="M345.79 345.341L335.521 339.409L337.553 338.238L347.822 344.158L345.79 345.341Z" fill="#4553C7"/>
<path d="M276.999 310.472L272.849 308.079L274.88 306.895L279.03 309.301L276.999 310.472Z" fill="#4553C7"/>
<path d="M288.203 316.94L283.28 314.099L285.312 312.927L290.247 315.769L288.203 316.94Z" fill="#4553C7"/>
<path d="M296.453 321.701L293.438 319.968L295.469 318.797L298.485 320.529L296.453 321.701Z" fill="#4553C7"/>
<path d="M311.943 330.649L301.674 324.716L303.705 323.545L313.974 329.477L311.943 330.649Z" fill="#4553C7"/>
<path d="M276.949 315.307L268.637 310.497L270.668 309.326L278.98 314.124L276.949 315.307Z" fill="#4553C7"/>
<path d="M293.498 324.854L283.229 318.922L285.261 317.75L295.53 323.682L293.498 324.854Z" fill="#4553C7"/>
<path d="M301.737 329.614L298.733 327.869L300.765 326.698L303.768 328.443L301.737 329.614Z" fill="#4553C7"/>
<path d="M317.24 338.562L306.971 332.63L309.002 331.459L319.271 337.391L317.24 338.562Z" fill="#4553C7"/>
<path d="M292.578 329.539L264.114 313.114L266.146 311.943L294.609 328.368L292.578 329.539Z" fill="#4553C7"/>
<path d="M309.127 339.098L298.858 333.166L300.89 331.994L311.159 337.926L309.127 339.098Z" fill="#4553C7"/>
<path d="M317.364 343.858L314.349 342.114L316.38 340.942L319.396 342.675L317.364 343.858Z" fill="#4553C7"/>
<path d="M332.868 352.806L322.6 346.874L324.631 345.703L334.9 351.622L332.868 352.806Z" fill="#4553C7"/>
<path d="M268.226 320.342L259.914 315.544L261.945 314.36L270.258 319.171L268.226 320.342Z" fill="#4553C7"/>
<path d="M304.915 341.528L274.507 323.969L276.538 322.785L306.946 340.344L304.915 341.528Z" fill="#4553C7"/>
<path d="M313.152 346.276L310.148 344.544L312.18 343.372L315.196 345.105L313.152 346.276Z" fill="#4553C7"/>
<path d="M328.656 355.224L318.387 349.304L320.418 348.133L330.687 354.053L328.656 355.224Z" fill="#4553C7"/>
<path d="M259.864 320.367L255.714 317.962L257.745 316.79L261.895 319.195L259.864 320.367Z" fill="#4553C7"/>
<path d="M271.067 326.835L266.145 323.994L268.176 322.822L273.098 325.664L271.067 326.835Z" fill="#4553C7"/>
<path d="M279.318 331.595L276.302 329.863L278.333 328.679L281.349 330.424L279.318 331.595Z" fill="#4553C7"/>
<path d="M294.808 340.544L284.539 334.612L286.57 333.44L296.839 339.372L294.808 340.544Z" fill="#4553C7"/>
<path d="M259.814 325.19L251.502 320.392L253.533 319.221L261.846 324.019L259.814 325.19Z" fill="#4553C7"/>
<path d="M276.364 334.748L266.095 328.816L268.126 327.645L278.395 333.577L276.364 334.748Z" fill="#4553C7"/>
<path d="M284.602 339.509L281.599 337.764L283.63 336.593L286.633 338.338L284.602 339.509Z" fill="#4553C7"/>
<path d="M300.104 348.457L289.835 342.525L291.866 341.354L302.135 347.286L300.104 348.457Z" fill="#4553C7"/>
<path d="M275.441 339.434L246.978 323.009L249.009 321.838L277.473 338.263L275.441 339.434Z" fill="#4553C7"/>
<path d="M291.991 348.993L281.722 343.061L283.753 341.889L294.022 347.821L291.991 348.993Z" fill="#4553C7"/>
<path d="M300.228 353.741L297.212 352.009L299.243 350.837L302.259 352.569L300.228 353.741Z" fill="#4553C7"/>
<path d="M315.732 362.689L305.463 356.769L307.494 355.598L317.763 361.517L315.732 362.689Z" fill="#4553C7"/>
<path d="M251.091 330.237L242.778 325.439L244.81 324.255L253.122 329.066L251.091 330.237Z" fill="#4553C7"/>
<path d="M287.779 351.41L257.371 333.864L259.402 332.68L289.81 350.239L287.779 351.41Z" fill="#4553C7"/>
<path d="M296.016 356.171L293.013 354.439L295.044 353.267L298.047 355L296.016 356.171Z" fill="#4553C7"/>
<path d="M311.52 365.119L301.251 359.199L303.282 358.015L313.551 363.947L311.52 365.119Z" fill="#4553C7"/>
<path d="M242.728 330.262L238.578 327.857L240.609 326.685L244.759 329.091L242.728 330.262Z" fill="#4553C7"/>
<path d="M253.932 336.73L249.01 333.889L251.041 332.717L255.964 335.559L253.932 336.73Z" fill="#4553C7"/>
<path d="M262.183 341.491L259.167 339.746L261.198 338.574L264.214 340.319L262.183 341.491Z" fill="#4553C7"/>
<path d="M277.672 350.438L267.403 344.506L269.435 343.335L279.704 349.267L277.672 350.438Z" fill="#4553C7"/>
<path d="M242.679 335.085L234.366 330.287L236.398 329.115L244.71 333.913L242.679 335.085Z" fill="#4553C7"/>
<path d="M259.228 344.643L248.959 338.711L250.99 337.54L261.259 343.472L259.228 344.643Z" fill="#4553C7"/>
<path d="M267.466 349.404L264.463 347.659L266.494 346.488L269.498 348.233L267.466 349.404Z" fill="#4553C7"/>
<path d="M282.969 358.352L272.7 352.42L274.732 351.249L285 357.181L282.969 358.352Z" fill="#4553C7"/>
</g>
<path d="M200.767 203.533L161.175 180.678L200.767 157.822L240.36 180.678L200.767 203.533ZM163.331 180.665L200.767 202.275L238.204 180.665L200.767 159.056L163.331 180.665Z" fill="#88FFF3"/>
<path d="M122.492 474.35L82.8994 451.482L122.492 428.626L162.097 451.482L122.492 474.35ZM85.0554 451.482L122.492 473.092L159.929 451.482L122.492 429.873L85.0554 451.482Z" fill="#88FFF3"/>
<path d="M395.863 45.7115L356.271 22.8558L395.863 0L435.456 22.8558L395.863 45.7115ZM358.414 22.8433L395.851 44.4528L433.287 22.8433L395.851 1.23376L358.414 22.8433Z" fill="#88FFF3"/>
<path d="M552.888 406.556L513.295 383.7L552.888 360.844L592.48 383.7L552.888 406.556ZM515.451 383.688L552.888 405.297L590.324 383.688L552.888 362.078L515.451 383.688Z" fill="#88FFF3"/>
<defs>
<linearGradient id="paint0_linear_648_4717" x1="143.706" y1="196.568" x2="56.2488" y2="266.699" gradientUnits="userSpaceOnUse">
<stop stop-color="#BCD5FF"/>
<stop offset="0.151" stop-color="#A3BEFF"/>
<stop offset="0.3866" stop-color="#82A0FF"/>
<stop offset="0.6124" stop-color="#6A8AFF"/>
<stop offset="0.8221" stop-color="#5C7DFF"/>
<stop offset="1" stop-color="#5778FF"/>
</linearGradient>
<linearGradient id="paint1_linear_648_4717" x1="160.235" y1="217.963" x2="38.5854" y2="179.968" gradientUnits="userSpaceOnUse">
<stop stop-color="#C0D6FF"/>
<stop offset="0.2978" stop-color="#C5DBFF"/>
<stop offset="0.6488" stop-color="#D3E9FF"/>
<stop offset="1" stop-color="#E9FFFF"/>
</linearGradient>
<linearGradient id="paint2_linear_648_4717" x1="634.767" y1="258.177" x2="547.31" y2="328.308" gradientUnits="userSpaceOnUse">
<stop stop-color="#BCD5FF"/>
<stop offset="0.151" stop-color="#A3BEFF"/>
<stop offset="0.3866" stop-color="#82A0FF"/>
<stop offset="0.6124" stop-color="#6A8AFF"/>
<stop offset="0.8221" stop-color="#5C7DFF"/>
<stop offset="1" stop-color="#5778FF"/>
</linearGradient>
<linearGradient id="paint3_linear_648_4717" x1="651.295" y1="279.571" x2="529.645" y2="241.577" gradientUnits="userSpaceOnUse">
<stop stop-color="#C0D6FF"/>
<stop offset="0.2978" stop-color="#C5DBFF"/>
<stop offset="0.6488" stop-color="#D3E9FF"/>
<stop offset="1" stop-color="#E9FFFF"/>
</linearGradient>
<linearGradient id="paint4_linear_648_4717" x1="651.295" y1="279.571" x2="529.645" y2="241.577" gradientUnits="userSpaceOnUse">
<stop stop-color="#C0D6FF"/>
<stop offset="0.2978" stop-color="#C5DBFF"/>
<stop offset="0.6488" stop-color="#D3E9FF"/>
<stop offset="1" stop-color="#E9FFFF"/>
</linearGradient>
<linearGradient id="paint5_linear_648_4717" x1="634.767" y1="235.167" x2="547.31" y2="305.298" gradientUnits="userSpaceOnUse">
<stop stop-color="#BCD5FF"/>
<stop offset="0.151" stop-color="#A3BEFF"/>
<stop offset="0.3866" stop-color="#82A0FF"/>
<stop offset="0.6124" stop-color="#6A8AFF"/>
<stop offset="0.8221" stop-color="#5C7DFF"/>
<stop offset="1" stop-color="#5778FF"/>
</linearGradient>
<linearGradient id="paint6_linear_648_4717" x1="651.295" y1="256.562" x2="529.645" y2="218.567" gradientUnits="userSpaceOnUse">
<stop stop-color="#C0D6FF"/>
<stop offset="0.2978" stop-color="#C5DBFF"/>
<stop offset="0.6488" stop-color="#D3E9FF"/>
<stop offset="1" stop-color="#E9FFFF"/>
</linearGradient>
<linearGradient id="paint7_linear_648_4717" x1="540.059" y1="204.972" x2="270.57" y2="204.972" gradientUnits="userSpaceOnUse">
<stop stop-color="#C0D6FF"/>
<stop offset="0.2978" stop-color="#C5DBFF"/>
<stop offset="0.6488" stop-color="#D3E9FF"/>
<stop offset="1" stop-color="#E9FFFF"/>
</linearGradient>
<linearGradient id="paint8_linear_648_4717" x1="540.058" y1="274.084" x2="493.784" y2="274.084" gradientUnits="userSpaceOnUse">
<stop stop-color="#5778FF"/>
<stop offset="0.1779" stop-color="#5C7DFF"/>
<stop offset="0.3876" stop-color="#6A8AFF"/>
<stop offset="0.6134" stop-color="#82A0FF"/>
<stop offset="0.849" stop-color="#A3BEFF"/>
<stop offset="1" stop-color="#BCD5FF"/>
</linearGradient>
<linearGradient id="paint9_linear_648_4717" x1="503.954" y1="351.774" x2="123.347" y2="351.774" gradientUnits="userSpaceOnUse">
<stop stop-color="#5778FF"/>
<stop offset="0.1779" stop-color="#5C7DFF"/>
<stop offset="0.3876" stop-color="#6A8AFF"/>
<stop offset="0.6134" stop-color="#82A0FF"/>
<stop offset="0.849" stop-color="#A3BEFF"/>
<stop offset="1" stop-color="#BCD5FF"/>
</linearGradient>
<linearGradient id="paint10_linear_648_4717" x1="376.068" y1="339.083" x2="-4.74162" y2="339.083" gradientUnits="userSpaceOnUse">
<stop stop-color="#C0D6FF"/>
<stop offset="0.2978" stop-color="#C5DBFF"/>
<stop offset="0.6488" stop-color="#D3E9FF"/>
<stop offset="1" stop-color="#E9FFFF"/>
</linearGradient>
<linearGradient id="paint11_linear_648_4717" x1="311.579" y1="360.701" x2="214.102" y2="360.701" gradientUnits="userSpaceOnUse">
<stop stop-color="#C0D6FF"/>
<stop offset="0.2978" stop-color="#C5DBFF"/>
<stop offset="0.6488" stop-color="#D3E9FF"/>
<stop offset="1" stop-color="#E9FFFF"/>
</linearGradient>
<linearGradient id="paint12_linear_648_4717" x1="521.558" y1="254.678" x2="140.749" y2="254.678" gradientUnits="userSpaceOnUse">
<stop stop-color="#C0D6FF"/>
<stop offset="0.2978" stop-color="#C5DBFF"/>
<stop offset="0.6488" stop-color="#D3E9FF"/>
<stop offset="1" stop-color="#E9FFFF"/>
</linearGradient>
<linearGradient id="paint13_linear_648_4717" x1="546.622" y1="226.723" x2="449.146" y2="226.723" gradientUnits="userSpaceOnUse">
<stop stop-color="#C0D6FF"/>
<stop offset="0.2978" stop-color="#C5DBFF"/>
<stop offset="0.6488" stop-color="#D3E9FF"/>
<stop offset="1" stop-color="#E9FFFF"/>
</linearGradient>
<radialGradient id="paint14_radial_648_4717" cx="0" cy="0" r="1" gradientUnits="userSpaceOnUse" gradientTransform="translate(393.03 303.696) rotate(180) scale(109.17 109.17)">
<stop stop-color="#2B3AA5"/>
<stop offset="1" stop-color="#182484"/>
</radialGradient>
<radialGradient id="paint15_radial_648_4717" cx="0" cy="0" r="1" gradientUnits="userSpaceOnUse" gradientTransform="translate(416.908 254.584) rotate(180) scale(83.5633 83.5633)">
<stop stop-color="#2B3AA5"/>
<stop offset="1" stop-color="#182484"/>
</radialGradient>
<linearGradient id="paint16_linear_648_4717" x1="446.993" y1="278.708" x2="373.383" y2="146.163" gradientUnits="userSpaceOnUse">
<stop stop-color="#5778FF"/>
<stop offset="0.0398" stop-color="#5C7DFF"/>
<stop offset="0.0867" stop-color="#6A8AFF"/>
<stop offset="0.1372" stop-color="#82A0FF"/>
<stop offset="0.1899" stop-color="#A3BEFF"/>
<stop offset="0.2237" stop-color="#BCD5FF"/>
</linearGradient>
<linearGradient id="paint17_linear_648_4717" x1="356.564" y1="279.178" x2="405.558" y2="183.399" gradientUnits="userSpaceOnUse">
<stop stop-color="#C0D6FF"/>
<stop offset="0.2978" stop-color="#C5DBFF"/>
<stop offset="0.6488" stop-color="#D3E9FF"/>
<stop offset="1" stop-color="#E9FFFF"/>
</linearGradient>
<linearGradient id="paint18_linear_648_4717" x1="224.138" y1="451.346" x2="379.854" y2="175.432" gradientUnits="userSpaceOnUse">
<stop stop-color="#C0D6FF"/>
<stop offset="0.0782" stop-color="#C3D9FF"/>
<stop offset="0.1341" stop-color="#CCE2FF"/>
<stop offset="0.1829" stop-color="#DCF2FF"/>
<stop offset="0.2117" stop-color="#E9FFFF"/>
<stop offset="0.256" stop-color="#D8EEFF"/>
<stop offset="0.3145" stop-color="#CBE1FF"/>
<stop offset="0.3869" stop-color="#C2D8FF"/>
<stop offset="0.5143" stop-color="#C0D6FF"/>
<stop offset="0.6239" stop-color="#D0E6FF"/>
<stop offset="0.755" stop-color="#E9FFFF"/>
<stop offset="1" stop-color="#C0D6FF"/>
</linearGradient>
</defs>
</svg>
