<svg width="548" height="53" viewBox="0 0 548 53" fill="none" xmlns="http://www.w3.org/2000/svg">
<path d="M0.375 52V1.625H18.0625C27.8125 1.625 35.7812 9.28125 35.7812 18.6562C35.7812 28 27.8125 35.625 18.0625 35.625H10.5V52H0.375ZM18.0625 25.625C22.25 25.6562 25.6562 22.4688 25.6562 18.5625C25.6562 14.75 22.25 11.6562 18.0625 11.6562H10.5V25.5938L18.0625 25.625ZM65.9062 52L62.7188 44.9688H42.5625L39.3438 52H28.4062L52.4688 0.375H52.7812L76.875 52H65.9062ZM46.5 36.3438H58.7812L52.6562 22.875L46.5 36.3438ZM82.875 52V30.375L67.2812 1.625H78.7188L87.9062 19.125L97.0938 1.625H108.562L92.9375 30.375V52H82.875ZM152.188 52H139.812L123.781 28.1875V52H113.656L113.625 1.625H130.062C139.469 1.625 147.188 8.875 147.188 17.9375C147.188 24.4062 143.281 30.0625 137.875 31.9688L152.188 52ZM123.75 11.6562V24.3125L130.25 24.3438C133.688 24.375 136.75 21.5938 136.75 18C136.75 14.4062 133.656 11.6562 130.25 11.6562H123.75ZM180.969 52.9688C166.594 52.9688 154.812 41.2188 154.812 26.875C154.812 12.4062 166.594 0.59375 181 0.59375C195.406 0.59375 207.219 12.4062 207.219 26.875C207.219 41.2188 195.406 52.9688 180.969 52.9688ZM180.969 42.7188C189.781 42.7188 196.969 35.5625 196.969 26.8125C196.969 18 189.781 10.8125 180.969 10.8125C172.188 10.8125 165.031 18 165.031 26.8125C165.031 35.5625 172.188 42.7188 180.969 42.7188ZM223.938 41.9375H244.188V52H213.812V1.625H223.938V41.9375ZM260 41.9375H280.25V52H249.875V1.625H260V41.9375ZM319.781 53C311.531 53 305.438 49.5625 302.062 43.3125L310.156 37.625C312.375 41.1875 315.594 42.8125 319.938 42.8125C324.688 42.8125 327.875 40.875 327.875 38.1875C327.875 34.5 321.844 31.5938 316.562 28.9688C310.906 26.1562 304.688 23.0625 304.688 15.0312C304.688 6.3125 312.062 0.5625 321.312 0.5625C328.188 0.5625 333.875 3.40625 336.156 9.5L328.688 14.7188C327.188 11.7188 324.281 10.5 321.469 10.5C317.688 10.5 314.875 12.6875 314.875 15.2812C314.875 18.2812 318.688 19.3125 324.469 22.0312C332.812 25.9688 338.062 30.2188 338.062 37.9688C338.062 47.1562 330.562 53 319.781 53ZM352.938 52V30.375L337.344 1.625H348.781L357.969 19.125L367.156 1.625H378.625L363 30.375V52H352.938ZM398.781 53C390.531 53 384.438 49.5625 381.062 43.3125L389.156 37.625C391.375 41.1875 394.594 42.8125 398.938 42.8125C403.688 42.8125 406.875 40.875 406.875 38.1875C406.875 34.5 400.844 31.5938 395.562 28.9688C389.906 26.1562 383.688 23.0625 383.688 15.0312C383.688 6.3125 391.062 0.5625 400.312 0.5625C407.188 0.5625 412.875 3.40625 415.156 9.5L407.688 14.7188C406.188 11.7188 403.281 10.5 400.469 10.5C396.688 10.5 393.875 12.6875 393.875 15.2812C393.875 18.2812 397.688 19.3125 403.469 22.0312C411.812 25.9688 417.062 30.2188 417.062 37.9688C417.062 47.1562 409.562 53 398.781 53ZM455.062 1.625V11.6562H442.688V52H432.531V11.6562H420.125V1.625H455.062ZM491.125 11.5938H470.875V21.4375H488.25V31.5312H470.875V41.9375H491.125V52H460.75V1.625H491.125V11.5938ZM547.344 0.375H547.906V52H537.781V30.0625L523.281 51.1562H523.219L508.688 30.0625V52H498.562V0.375H499.125L523.25 33.6562L547.344 0.375Z" fill="white"/>
</svg>
