<svg width="552" height="552" viewBox="0 0 552 552" fill="none" xmlns="http://www.w3.org/2000/svg">
<path d="M128.331 295.656L135.755 338.919L192.74 365.714L128.331 295.656Z" fill="#F1F1F2"/>
<path d="M193.462 366.243L192.666 365.87L135.599 339.039L135.585 338.951L128.064 295.113L193.462 366.243ZM135.912 338.799L192.022 365.185L128.602 296.203L135.912 338.799Z" fill="white"/>
<path d="M192.74 395.536V365.714L135.755 338.919L192.74 395.536Z" fill="#D0D2D3"/>
<path d="M192.914 395.95L192.62 395.66L134.927 338.339L135.828 338.763L192.914 365.604V395.95ZM136.583 339.499L192.565 395.122V365.824L136.583 339.499Z" fill="white"/>
<path d="M192.74 365.714L128.331 295.656L300.821 298.31L192.74 365.714Z" fill="url(#paint0_linear_431_2062)"/>
<path d="M192.712 365.935L192.616 365.829L127.935 295.477L128.335 295.481L301.41 298.145L300.913 298.453L192.712 365.935ZM128.731 295.835L192.772 365.493L300.237 298.476L128.731 295.835Z" fill="white"/>
<path d="M345.414 173.438L421.484 246.289L323.899 212.589L345.414 173.438Z" fill="url(#paint1_linear_431_2062)"/>
<path d="M422.169 246.707L323.646 212.686L323.748 212.506L345.372 173.158L345.533 173.314L422.169 246.707ZM324.148 212.492L420.794 245.865L345.46 173.719L324.148 212.492Z" fill="white"/>
<path d="M361.026 314.198L323.899 212.589L421.484 246.288L361.026 314.198Z" fill="url(#paint2_linear_431_2062)"/>
<path d="M360.962 314.53L360.865 314.258L323.614 212.309L323.959 212.428L421.787 246.211L421.613 246.404L360.962 314.53ZM324.185 212.87L361.09 313.867L421.185 246.362L324.185 212.87Z" fill="white"/>
<path d="M339.038 254.026L323.899 212.589L316.521 239.775L300.821 298.31L361.026 314.199L339.038 254.026Z" fill="url(#paint3_linear_431_2062)"/>
<path d="M361.302 314.452L300.61 298.434L300.656 298.269L316.356 239.734L323.877 212.023L339.204 253.971L361.302 314.452ZM301.033 298.191L360.75 313.95L323.923 213.16L316.687 239.821L301.033 298.191Z" fill="white"/>
<path d="M192.74 395.536L361.027 314.198L300.822 298.31L192.74 365.714V395.536Z" fill="url(#paint4_linear_431_2062)"/>
<path d="M192.57 395.812V365.617L192.653 365.567L300.794 298.126L300.868 298.144L361.523 314.152L361.105 314.355L192.57 395.812ZM192.915 365.81V395.264L360.53 314.249L300.849 298.499L192.915 365.81Z" fill="white"/>
<path d="M192.74 185.674L128.331 295.656L300.821 298.31L323.9 212.589L192.74 185.674Z" fill="#EBEBEB"/>
<path d="M300.955 298.485H300.821L128.036 295.826L128.183 295.573L192.652 185.486L192.772 185.509L324.111 212.46L324.065 212.635L300.955 298.485ZM128.63 295.49L300.688 298.14L323.683 212.727L192.827 185.872L128.63 295.49Z" fill="white"/>
<path d="M192.74 185.674L323.9 212.589L345.414 173.438L192.74 185.674Z" fill="url(#paint5_linear_431_2062)"/>
<path d="M323.987 212.787L323.863 212.764L191.516 185.605L192.726 185.509L345.717 173.245L323.987 212.787ZM193.963 185.748L323.808 212.396L345.11 173.636L193.963 185.748Z" fill="white"/>
<path d="M390.774 99.3413C390.774 100.271 390.02 101.025 389.091 101.025C388.162 101.025 387.407 100.271 387.407 99.3413C387.407 98.4121 388.162 97.6577 389.091 97.6577C390.02 97.6577 390.774 98.4121 390.774 99.3413Z" fill="#231F20"/>
<path d="M486.97 237.134C486.97 238.063 486.215 238.818 485.286 238.818C484.357 238.818 483.603 238.063 483.603 237.134C483.603 236.205 484.357 235.451 485.286 235.451C486.215 235.451 486.97 236.205 486.97 237.134Z" fill="#231F20"/>
<path d="M486.97 298.236C486.97 299.166 486.215 299.92 485.286 299.92C484.357 299.92 483.603 299.166 483.603 298.236C483.603 297.307 484.357 296.553 485.286 296.553C486.215 296.557 486.97 297.307 486.97 298.236Z" fill="#231F20"/>
<path d="M267.596 468.262C267.596 469.191 266.841 469.945 265.912 469.945C264.983 469.945 264.229 469.191 264.229 468.262C264.229 467.333 264.983 466.578 265.912 466.578C266.841 466.578 267.596 467.333 267.596 468.262Z" fill="#231F20"/>
<path d="M200.266 464.899C200.266 465.828 199.511 466.583 198.582 466.583C197.653 466.583 196.898 465.828 196.898 464.899C196.898 463.97 197.653 463.215 198.582 463.215C199.511 463.215 200.266 463.97 200.266 464.899Z" fill="#231F20"/>
<path d="M72.4639 218.035C72.4639 218.964 71.7095 219.719 70.7803 219.719C69.8511 219.719 69.0967 218.964 69.0967 218.035C69.0967 217.106 69.8511 216.352 70.7803 216.352C71.7095 216.352 72.4639 217.106 72.4639 218.035Z" fill="#231F20"/>
<path d="M136.206 139.164C136.206 140.093 135.452 140.847 134.522 140.847C133.593 140.847 132.839 140.093 132.839 139.164C132.839 138.234 133.593 137.48 134.522 137.48C135.452 137.48 136.206 138.234 136.206 139.164Z" fill="#231F20"/>
<path d="M485.456 298.126V237.001L355.35 200.647L389.252 98.9965L389.082 98.9229L389.027 98.7803L218.767 162.486L134.72 139.003L134.426 138.869L134.476 139.118L134.398 139.214L134.366 139.228L134.375 139.246L70.7112 217.847L70.4628 217.801L70.5732 218.017L70.2466 218.422L70.6974 218.251L198.43 466.661L198.987 467.742L198.568 465.603L265.908 468.436L266.036 468.441L266.059 468.367L485.328 298.425L486.689 298.687L485.456 298.126ZM355.019 200.555L338.818 196.029L388.235 100.965L355.019 200.555ZM354.908 200.882L332.364 268.474L304.009 262.986L338.652 196.342L354.908 200.882ZM388.732 99.2633L338.477 195.932L219.328 162.642L388.732 99.2633ZM218.781 162.844L338.316 196.245L303.66 262.917L174.11 237.852L168.07 222.727L170.775 222.851L170.968 222.516C169.938 222.47 168.935 222.419 167.932 222.373L153.865 187.132L201.061 169.473L229.959 182.56C230.143 182.519 230.322 182.477 230.506 182.431L201.517 169.303L218.781 162.844ZM303.494 263.239L236.049 392.987L174.262 238.234L303.494 263.239ZM144.794 190.159L135.314 141.602L153.415 186.935L144.794 190.159ZM153.539 187.257L167.55 222.355C166.106 222.286 164.671 222.217 163.19 222.148C159.675 221.987 156.165 221.821 152.651 221.66C152.076 221.632 151.501 221.605 150.926 221.582L144.859 190.504L153.539 187.257ZM150.572 221.563C147.899 221.439 145.231 221.315 142.559 221.191C139.357 221.044 136.155 220.892 132.949 220.745C129.922 220.602 126.896 220.464 123.869 220.321C121.031 220.188 118.192 220.059 115.359 219.926C112.723 219.802 110.092 219.682 107.456 219.558C105.041 219.447 102.626 219.332 100.206 219.222C98.0214 219.121 95.8364 219.02 93.656 218.918C91.7194 218.826 89.7782 218.739 87.8416 218.647C86.1626 218.569 84.4836 218.491 82.8046 218.412C81.4016 218.348 79.994 218.284 78.591 218.215C77.4732 218.164 76.3554 218.109 75.2422 218.058C74.428 218.021 73.6138 217.985 72.795 217.943C72.404 217.925 72.0176 217.906 71.6266 217.888L144.532 190.61L150.572 221.563ZM150.641 221.918L152.955 233.758L73.1492 218.316L150.641 221.918ZM150.995 221.931L167.693 222.709L173.71 237.774L153.318 233.827L150.995 221.931ZM218.215 162.688L201.071 169.1L136.776 139.932L218.215 162.688ZM200.615 169.275L153.737 186.815L134.959 139.78L134.895 139.458L200.615 169.275ZM134.518 139.614L134.624 139.881L144.463 190.283L71.3092 217.653L134.518 139.614ZM71.0976 218.27L153.028 234.121L198.186 465.419L71.0976 218.27ZM198.495 465.225L153.392 234.195L173.862 238.156L235.837 393.392L198.495 465.225ZM198.863 465.267L236.008 393.815L265.659 468.082L198.863 465.267ZM265.898 467.76L236.215 393.41L303.844 263.308L332.253 268.805L265.898 467.76ZM266.257 467.778L332.598 268.87L484.881 298.337L266.257 467.778ZM485.111 297.969L407.178 262.614L406.93 262.894L483.883 297.79L332.709 268.539L355.244 200.974L484.375 237.056L408.416 233.533C408.526 233.661 408.687 233.795 408.793 233.896L485.107 237.438L485.116 237.268V297.969H485.111Z" fill="#231F20"/>
<defs>
<linearGradient id="paint0_linear_431_2062" x1="143.381" y1="316.961" x2="293.353" y2="338.793" gradientUnits="userSpaceOnUse">
<stop stop-color="#D9D9D9"/>
<stop offset="0.2251" stop-color="#CCCCCC"/>
<stop offset="0.6335" stop-color="#ACACAC"/>
<stop offset="1" stop-color="#8A8A8A"/>
</linearGradient>
<linearGradient id="paint1_linear_431_2062" x1="362.517" y1="236.028" x2="384.463" y2="208.596" gradientUnits="userSpaceOnUse">
<stop stop-color="#9C9EA1"/>
<stop offset="0.2337" stop-color="#999B9E"/>
<stop offset="0.4321" stop-color="#8F9193"/>
<stop offset="0.6174" stop-color="#7E8082"/>
<stop offset="0.7949" stop-color="#676869"/>
<stop offset="0.9654" stop-color="#494949"/>
<stop offset="1" stop-color="#424242"/>
</linearGradient>
<linearGradient id="paint2_linear_431_2062" x1="317.751" y1="220.104" x2="391.431" y2="280.388" gradientUnits="userSpaceOnUse">
<stop stop-color="#C4C4C4"/>
<stop offset="0.2852" stop-color="#C1C1C1"/>
<stop offset="0.4995" stop-color="#B8B8B8"/>
<stop offset="0.6906" stop-color="#A8A8A8"/>
<stop offset="0.8672" stop-color="#919191"/>
<stop offset="1" stop-color="#7A7A7A"/>
</linearGradient>
<linearGradient id="paint3_linear_431_2062" x1="306.533" y1="245.738" x2="351.128" y2="320.064" gradientUnits="userSpaceOnUse">
<stop stop-color="#9C9EA1"/>
<stop offset="0.2845" stop-color="#959699"/>
<stop offset="0.7142" stop-color="#808285"/>
<stop offset="1" stop-color="#6F7073"/>
</linearGradient>
<linearGradient id="paint4_linear_431_2062" x1="280.824" y1="370.382" x2="266.894" y2="315.533" gradientUnits="userSpaceOnUse">
<stop stop-color="#6F7073"/>
<stop offset="0.4738" stop-color="#7A7B7C"/>
<stop offset="1" stop-color="#828282"/>
</linearGradient>
<linearGradient id="paint5_linear_431_2062" x1="262.05" y1="197.029" x2="335.226" y2="155.776" gradientUnits="userSpaceOnUse">
<stop stop-color="#DBDCDD"/>
<stop offset="0.1963" stop-color="#D4D5D6"/>
<stop offset="0.4889" stop-color="#BFC1C2"/>
<stop offset="0.84" stop-color="#9EA0A2"/>
<stop offset="1" stop-color="#8D8F91"/>
</linearGradient>
</defs>
</svg>
