<svg width="240" height="150" viewBox="0 0 240 150" fill="none" xmlns="http://www.w3.org/2000/svg">
<path fill-rule="evenodd" clip-rule="evenodd" d="M204.816 87.0739C209.898 81.5374 216.768 83.1778 220.632 90.8509L221.547 92.6668L221.861 92.6045C229.081 91.1744 236.02 97.5831 238.896 108.336L240 112.463H150.359L151.356 108.734C153.954 99.0162 160.222 93.2247 166.743 94.517L167.027 94.5733L167.853 92.9323C171.344 85.9982 177.548 84.5158 182.139 89.519C182.139 87.7632 193.936 70.0515 204.816 87.0739Z" fill="#0F175F"/>
<path d="M202.999 109.481C202.241 96.2961 203.821 88.0552 207.665 84.7796C207.665 84.7796 207.594 84.5128 207.514 84.4185C207.439 84.3305 207.199 84.2327 207.199 84.2327C203.127 87.7031 201.512 96.126 202.282 109.523C202.282 109.523 202.518 109.636 202.634 109.629C202.757 109.622 202.999 109.481 202.999 109.481Z" fill="white"/>
<path d="M195.26 74.7077C195.26 74.7077 195.26 74.7077 195.26 74.7077L195.426 74.356C195.361 74.4929 195.307 74.6091 195.26 74.7077ZM198.482 75.5286C198.484 75.5364 198.486 75.544 198.488 75.5516C198.584 75.5712 198.711 75.588 198.876 75.592C198.884 75.5908 198.893 75.5897 198.902 75.5885C198.972 75.5794 199.07 75.5682 199.189 75.5579C199.425 75.5376 199.754 75.5207 200.125 75.5351C200.81 75.5619 201.843 75.7013 202.631 76.3289C202.641 76.3355 202.651 76.3432 202.663 76.352C202.698 76.3782 202.744 76.4143 202.799 76.4594C202.907 76.5486 203.052 76.6783 203.202 76.8421C203.478 77.143 203.888 77.6855 203.951 78.3964L203.965 78.5522L203.93 78.7047L202.955 78.4845C203.93 78.7047 203.93 78.7054 203.93 78.7062L203.93 78.7077L203.929 78.7107L203.927 78.7169L203.924 78.73C203.922 78.7389 203.919 78.7484 203.917 78.7585C203.911 78.7785 203.904 78.801 203.896 78.8253C203.879 78.8734 203.855 78.9325 203.82 78.9971C203.752 79.124 203.63 79.297 203.421 79.4341C203.314 79.5046 203.205 79.5538 203.095 79.5858C203.224 79.7451 203.363 79.9294 203.496 80.1299C203.713 80.4576 203.946 80.8786 204.067 81.3377C204.188 81.8009 204.22 82.4175 203.859 82.9898L203.718 83.2121L203.487 83.3365L203.013 82.4555C203.487 83.3365 203.486 83.3368 203.485 83.3371L203.484 83.3377L203.482 83.339L203.477 83.3417L203.466 83.3474C203.458 83.3513 203.45 83.3555 203.44 83.3599C203.422 83.3688 203.4 83.3786 203.376 83.3889C203.327 83.4094 203.265 83.4324 203.192 83.4534C203.047 83.4952 202.848 83.532 202.611 83.5202C202.184 83.4991 201.739 83.3253 201.348 82.9465C201.418 83.7751 201.333 84.7102 200.904 85.6262L200.893 85.6479L200.882 85.669L199.998 85.2014C200.882 85.669 200.882 85.6692 200.882 85.6694L200.882 85.6698L200.881 85.6707L200.88 85.673L200.877 85.679L200.867 85.697C200.859 85.7116 200.848 85.7311 200.835 85.7551C200.808 85.8028 200.769 85.8685 200.721 85.9468C200.625 86.1019 200.485 86.3136 200.31 86.536C200.138 86.7556 199.916 87.0054 199.653 87.2232C199.396 87.4359 199.048 87.6614 198.623 87.7582L198.459 87.7956L198.292 87.7772L198.401 86.7832C198.292 87.7772 198.291 87.7771 198.29 87.777L198.289 87.7768L198.285 87.7764L198.278 87.7756L198.262 87.7735C198.251 87.772 198.239 87.7702 198.226 87.768C198.201 87.7637 198.17 87.7578 198.137 87.75C198.07 87.7343 197.987 87.7101 197.894 87.6727C197.719 87.6021 197.506 87.4825 197.303 87.2832C197.083 87.8696 196.751 88.4781 196.24 88.9274L196.202 88.9607L196.161 88.9901L195.58 88.1768C196.161 88.9901 196.161 88.9903 196.161 88.9905L196.16 88.991L196.159 88.9921L196.155 88.9944L196.148 88.9998L196.127 89.0136C196.112 89.024 196.092 89.0368 196.069 89.0515C196.023 89.0807 195.96 89.1181 195.883 89.1582C195.734 89.2365 195.515 89.3356 195.25 89.4C194.704 89.5327 193.863 89.5256 193.2 88.787L193.119 88.6966L193.061 88.5894L193.944 88.1189C193.061 88.5894 193.061 88.5886 193.061 88.5879L193.06 88.5865L193.058 88.5835L193.055 88.5772L193.048 88.5635C193.043 88.5539 193.038 88.5431 193.033 88.5313C193.021 88.5076 193.009 88.4796 192.996 88.4472C192.991 88.434 192.985 88.42 192.979 88.4054C192.911 88.4931 192.835 88.5836 192.752 88.6754C192.187 89.2968 191.279 89.9636 189.912 90.2233L189.853 90.2346L189.793 90.2387L189.726 89.2409C189.793 90.2387 189.792 90.2387 189.792 90.2387L189.791 90.2388L189.79 90.2389L189.786 90.2391L189.776 90.2397L189.746 90.2412C189.723 90.2422 189.691 90.2434 189.653 90.2441C189.576 90.2456 189.471 90.2455 189.345 90.2401C189.097 90.2294 188.751 90.1972 188.38 90.1055C187.685 89.9335 186.589 89.4599 186.29 88.1929L186.282 88.1618L186.277 88.1303L187.263 87.963C186.277 88.1303 186.277 88.1296 186.277 88.129L186.276 88.1277L186.276 88.1249L186.275 88.119L186.273 88.1052C186.272 88.1027 186.272 88.1 186.272 88.0972C186.271 88.0892 186.269 88.0802 186.268 88.0703C186.265 88.0438 186.261 88.0109 186.258 87.9719C186.252 87.8939 186.247 87.7914 186.249 87.6673C186.253 87.4191 186.285 87.0844 186.387 86.6883C186.49 86.2849 186.663 85.8274 186.942 85.3397C186.726 85.3558 186.451 85.335 186.175 85.1954L186.104 85.1593L186.039 85.1123L186.627 84.3033C186.039 85.1123 186.038 85.1118 186.037 85.1113L186.036 85.1103L186.033 85.1081L186.027 85.1035L186.013 85.093C186.003 85.0854 185.992 85.0766 185.98 85.0665C185.955 85.0465 185.926 85.0213 185.894 84.9909C185.829 84.9305 185.749 84.8471 185.668 84.7397C185.505 84.5245 185.326 84.2019 185.263 83.7749C185.13 82.8723 185.548 81.8884 186.633 80.8592L186.691 80.8044L186.757 80.7594L187.321 81.5847C186.757 80.7594 186.757 80.7592 186.757 80.759L186.758 80.7587L186.759 80.7579L186.762 80.7561L186.768 80.7516L186.787 80.7392C186.802 80.7295 186.821 80.717 186.845 80.7018C186.894 80.6714 186.961 80.6307 187.047 80.5818C187.218 80.4841 187.465 80.3538 187.784 80.2095C187.997 80.1131 188.243 80.0103 188.522 79.9068C188.391 79.9116 188.238 79.911 188.077 79.8974C187.847 79.8779 187.513 79.825 187.2 79.6555C186.85 79.4659 186.497 79.1058 186.426 78.544L186.426 78.538L187.419 78.4197C186.426 78.538 186.426 78.5368 186.425 78.5356L186.425 78.5331L186.425 78.528L186.423 78.5176L186.421 78.4951C186.42 78.4794 186.419 78.4623 186.419 78.444C186.417 78.4073 186.417 78.3653 186.42 78.3186C186.426 78.2251 186.442 78.1127 186.478 77.9879C186.552 77.7309 186.703 77.4515 186.967 77.1945C187.464 76.7104 188.276 76.3839 189.522 76.2624C189.496 76.2216 189.472 76.1787 189.45 76.1336C189.189 75.6081 189.292 75.0603 189.527 74.6165L189.56 74.5555L189.6 74.4995L190.411 75.0853C189.6 74.4995 189.601 74.4988 189.601 74.4981L189.602 74.4967L189.604 74.4937L189.609 74.4876L189.619 74.4742C189.626 74.4648 189.634 74.4546 189.643 74.4436C189.661 74.4215 189.683 74.3962 189.709 74.3685C189.76 74.313 189.827 74.2476 189.912 74.1781C190.084 74.0384 190.323 73.8859 190.642 73.767C191.291 73.5252 192.183 73.4521 193.367 73.7744L193.409 73.7857L193.45 73.8006L193.105 74.7393C193.45 73.8006 193.45 73.8006 193.45 73.8007L193.45 73.8008L193.451 73.8011L193.453 73.8018L193.459 73.8039L193.475 73.8102C193.489 73.8154 193.508 73.8225 193.531 73.8317C193.577 73.85 193.642 73.8762 193.723 73.9103C193.778 73.9334 193.839 73.9602 193.908 73.9907C193.904 73.9617 193.902 73.9321 193.9 73.9019C193.871 73.2763 194.297 72.8988 194.605 72.7271C195.125 72.4374 195.735 72.4825 196.178 72.604C196.66 72.7361 197.17 73.0152 197.558 73.4621C197.949 73.9115 198.168 74.4646 198.305 74.8979C198.377 75.1233 198.435 75.3424 198.482 75.5286ZM202.939 77.6666C202.939 77.6666 202.938 77.6663 202.937 77.6658C202.938 77.6664 202.939 77.6666 202.939 77.6666ZM201.898 82.0661L201.283 82.4274C201.283 82.4274 201.283 82.4275 201.283 82.4275L201.898 82.0661ZM196.806 80.6187L196.369 80.7919C196.369 80.7919 196.369 80.7919 196.369 80.7919C196.61 80.6965 196.738 80.6458 196.806 80.6188C196.806 80.6188 196.806 80.6188 196.806 80.6187ZM188.985 79.7444C188.985 79.7444 188.985 79.7443 188.985 79.7443L188.841 78.8749C188.924 79.3765 188.965 79.6231 188.985 79.7444ZM189.729 77.2476C189.708 76.8617 189.695 76.6249 189.687 76.4797C189.687 76.4796 189.687 76.4796 189.687 76.4796L189.729 77.2476ZM195.483 74.5109C195.483 74.5109 195.484 74.5108 195.487 74.5104C195.484 74.5107 195.483 74.5109 195.483 74.5109Z" fill="#0F175F" stroke="#0F175F" stroke-width="2"/>
<path d="M197.061 117.026C197.819 103.841 196.239 95.6001 192.396 92.3245C192.396 92.3245 192.466 92.0577 192.547 91.9634C192.622 91.8754 192.862 91.7776 192.862 91.7776C196.934 95.248 198.549 103.671 197.779 117.067C197.779 117.067 197.542 117.181 197.426 117.174C197.303 117.167 197.061 117.026 197.061 117.026Z" fill="white"/>
<path d="M181.426 96.9873C179.469 97.7729 177.635 98.9482 176.129 100.278L176.067 100.333L175.929 100.457L175.794 100.581L175.664 100.704C175.642 100.725 175.621 100.745 175.6 100.765L175.475 100.887L175.354 101.008L175.237 101.127C175.199 101.166 175.161 101.206 175.125 101.245L175.017 101.36L174.914 101.474L174.816 101.585L174.723 101.694L174.635 101.801C174.607 101.835 174.579 101.87 174.553 101.904L174.476 102.004C174.341 102.184 174.235 102.347 174.163 102.487L174.14 102.534L174.06 102.477C169.419 99.2305 163.282 100.32 159.804 105.062L159.041 106.101L158.863 106.077C152.257 105.179 145.912 109.203 143.285 115.946L142.288 118.506C142.242 118.623 142.329 118.75 142.455 118.75H232.096C232.222 118.75 232.309 118.623 232.263 118.506L231.159 115.673L231.071 115.451C228.114 108.131 221.164 103.782 213.933 104.765L213.724 104.793L212.873 103.633L212.754 103.474C208.85 98.3182 202.055 97.2046 196.959 100.889L196.933 100.908L197.043 101.025C192.202 95.8276 186.794 94.8337 181.426 96.9873Z" fill="#0F175F"/>
<path d="M196.78 101.27C196.843 101.337 196.946 101.346 197.019 101.291C202.021 97.5525 208.777 98.6597 212.583 103.846L213.498 105.092C213.537 105.145 213.602 105.173 213.667 105.164L213.981 105.121L214.195 105.093C221.253 104.238 228.006 108.573 230.825 115.804L231.833 118.391H142.718L143.62 116.077C146.188 109.483 152.378 105.558 158.814 106.433L159.098 106.472C159.163 106.481 159.228 106.453 159.267 106.4L160.093 105.274C163.526 100.595 169.617 99.5964 174.127 102.969C174.24 103.054 174.399 102.981 174.413 102.845L174.414 102.826C174.414 102.78 174.439 102.712 174.485 102.626L174.516 102.572L174.551 102.513C174.557 102.503 174.564 102.493 174.571 102.483L174.614 102.418C174.621 102.407 174.629 102.396 174.637 102.385L174.687 102.315L174.742 102.242L174.832 102.126L174.898 102.044L174.968 101.961L175.042 101.874L175.119 101.785C175.133 101.77 175.146 101.755 175.16 101.74L175.243 101.647L175.33 101.553L175.42 101.457L175.562 101.31L175.66 101.211L175.762 101.11L175.866 101.009L175.973 100.907L176.082 100.804L176.194 100.701L176.309 100.598C176.328 100.581 176.347 100.564 176.367 100.547C177.843 99.2435 179.642 98.0902 181.56 97.3208C186.794 95.2206 192.045 96.1854 196.78 101.27Z" fill="white"/>
<path d="M194.731 77.0675C194.758 77.0519 194.808 77.0241 194.879 76.9861C194.995 76.9236 195.131 76.8543 195.284 76.7798C195.719 76.568 196.21 76.3564 196.747 76.1589C199.015 75.3252 201.345 74.9955 203.534 75.4673C207.688 76.3621 210.62 79.9932 211.797 86.9968L211.145 87.107C210.01 80.3529 207.261 76.9482 203.396 76.1155C201.347 75.6742 199.136 75.9871 196.975 76.7815C196.46 76.9709 195.989 77.1738 195.572 77.3764C195.427 77.447 195.299 77.5124 195.19 77.5708C195.126 77.6053 195.083 77.6294 195.062 77.6414L194.731 77.0675Z" fill="#0F175F"/>
<path d="M210.915 78.8437L210.833 78.906C209.866 79.6599 209.17 80.6578 208.75 81.8916L208.712 82.0063L208.691 82.0225C208.385 82.2452 207.846 82.3387 207.069 82.2751L207.041 82.2739C205.214 82.2666 203.697 82.7659 202.506 83.7747L202.492 83.7875C201.385 84.8314 200.756 85.8531 200.622 86.8604L200.616 86.9068L200.622 86.9533C200.704 87.5894 201.226 87.7304 201.842 87.4173L201.939 87.3681L201.993 87.2734L202.043 87.186C202.74 85.9748 203.494 85.2302 204.292 84.9358L204.32 84.9257L204.383 84.9173C204.473 84.9069 204.548 84.9042 204.608 84.9085L204.63 84.9104L204.637 84.9111L204.129 85.46L203.849 85.7607L203.58 86.0481L203.238 86.4105L202.915 86.7491L202.612 87.064L202.329 87.3552L202.129 87.558C200.084 89.6204 199.337 91.3757 199.987 92.8227L200.024 92.9066L200.098 92.9621C200.818 93.5072 201.586 93.2698 202.278 92.3805L202.329 92.3131L202.492 92.0278L202.638 91.7684L202.779 91.5149L202.915 91.2673L203.047 91.0256L203.174 90.7898C203.194 90.751 203.215 90.7125 203.235 90.6742L203.355 90.4473L203.47 90.2264C203.488 90.19 203.507 90.1539 203.525 90.1181L203.633 89.906L203.735 89.6998C203.752 89.6659 203.769 89.6323 203.785 89.5989L203.88 89.4016L203.971 89.2101L204.057 89.0246L204.138 88.8449L204.214 88.6711L204.24 88.6105L204.274 88.5547C204.891 87.5632 205.578 86.9948 206.332 86.8249L206.381 86.8144L206.37 86.816C206.566 86.7887 206.723 86.7753 206.837 86.7753C206.877 86.7753 206.909 86.7769 206.935 86.7797L206.957 86.7827L206.959 86.7826L206.95 86.7768C207.062 86.8372 207.104 87.0315 207.064 87.2017C207.063 87.2083 207.057 87.2193 207.047 87.2343L207.029 87.26C207.025 87.2648 207.021 87.2699 207.017 87.2752L206.989 87.3102L206.954 87.3512L206.911 87.3983L206.835 87.4801L206.775 87.542L206.444 87.8736L206.332 87.9878L206.232 88.093C205.913 88.4346 205.686 88.7375 205.533 89.0591L205.513 89.1023L205.523 89.0862C203.707 92.1635 203.264 95.179 204.209 98.1091C204.883 99.9367 205.684 101.032 206.659 101.385L206.726 101.41L206.798 101.407C207.679 101.365 208.178 100.696 208.337 99.4861L208.353 99.3544C208.387 99.0424 208.399 98.6968 208.391 98.319L208.398 98.0229L208.408 97.5893L208.42 97.1684L208.434 96.7603L208.45 96.3648L208.467 95.9821L208.479 95.7341L208.499 95.3727L208.513 95.1389L208.535 94.7988L208.551 94.5793L208.567 94.3654L208.594 94.0554L208.612 93.8558L208.631 93.662C208.634 93.6302 208.637 93.5986 208.641 93.5673L208.661 93.3821C208.664 93.3517 208.668 93.3216 208.671 93.2917L208.692 93.1151C208.696 93.0861 208.699 93.0574 208.703 93.029L208.725 92.861L208.748 92.6989L208.772 92.5425L208.796 92.3919L208.821 92.2471C208.825 92.2235 208.829 92.2 208.834 92.1769L208.852 92.0934C209.205 90.5205 209.851 89.6896 210.784 89.5272L210.794 89.533C211.063 89.6956 211.069 90.0356 210.742 90.7076L210.731 90.7318L210.673 90.8775L210.56 91.1659L210.452 91.4501C210.434 91.4971 210.416 91.544 210.399 91.5906L210.296 91.8684C210.262 91.9603 210.23 92.0515 210.197 92.142L210.103 92.4114C210.087 92.4559 210.072 92.5003 210.057 92.5445L209.968 92.8076C209.738 93.5034 209.55 94.1543 209.406 94.7604L209.353 94.9857C209.153 95.8782 209.05 96.6703 209.045 97.3627C208.928 100.471 209.434 102.735 210.592 104.14L210.616 104.167C211.656 105.199 212.701 105.257 213.563 104.293L213.629 104.217L213.648 104.18C214.018 103.471 214.191 102.441 214.172 101.081L214.168 100.885L214.162 100.684C214.161 100.65 214.159 100.616 214.158 100.581L214.147 100.374L214.134 100.162C214.132 100.126 214.129 100.09 214.127 100.054L214.11 99.8348L214.09 99.6114C214.083 99.5362 214.076 99.4602 214.068 99.3835L214.044 99.151C214.039 99.1119 214.035 99.0726 214.03 99.0331L214.002 98.7939C213.992 98.7134 213.982 98.6321 213.971 98.5501L213.937 98.3019L213.901 98.0491C213.895 98.0066 213.889 97.9639 213.882 97.921L213.842 97.6614L213.779 97.2636C213.624 96.2405 213.648 95.2553 213.852 94.3053L213.86 94.2668L213.866 94.261C214.092 94.0088 214.242 93.9497 214.345 93.9974L214.363 94.0069C214.524 94.0966 214.715 94.3948 214.897 94.9058L214.916 94.9608L214.909 95.0572L214.887 95.3916L214.866 95.7206C214.863 95.775 214.86 95.8292 214.857 95.8831L214.84 96.2041L214.824 96.5196L214.811 96.8298C214.809 96.881 214.807 96.932 214.806 96.9828L214.796 97.2849L214.788 97.5816C214.785 97.7286 214.782 97.8736 214.78 98.0166L214.778 98.2998C214.777 98.3934 214.777 98.486 214.778 98.5777L214.779 98.8502L214.783 99.1173L214.79 99.3791L214.798 99.6355L214.808 99.8865L214.821 100.132C214.823 100.173 214.825 100.213 214.828 100.253L214.844 100.491C214.846 100.53 214.849 100.569 214.852 100.607L214.871 100.837C214.921 101.404 214.991 101.921 215.082 102.388C215.63 104.628 217.06 106.129 219.339 106.877L219.458 106.915L219.483 106.919C221.772 107.297 223.233 106.538 223.719 104.664L223.724 104.645C224.129 102.639 223.441 100.424 221.687 98.0074L221.612 97.9139L221.532 97.8164L221.447 97.7157L221.357 97.6117L221.262 97.5045L221.164 97.3941L221.06 97.2804L220.952 97.1635L220.839 97.0433L220.661 96.8569L220.536 96.7285L220.407 96.5969L220.204 96.3932L220.063 96.2534L219.843 96.0374L219.613 95.814L219.372 95.5832L219.12 95.3449L218.858 95.0992L218.585 94.8459L218.301 94.5852L218.007 94.3169L217.703 94.0411L217.28 93.6617L217.125 93.5236L217.12 93.5087C217 93.1854 217.085 93.0353 217.498 92.9667L217.574 92.9554C217.601 92.9519 217.628 92.9487 217.657 92.9457L217.741 92.9378L217.8 92.9518C218.488 93.1228 219.25 93.6432 220.077 94.5184L220.205 94.6559C220.397 94.8663 220.593 95.0956 220.792 95.3439L220.925 95.5122C220.992 95.5978 221.059 95.6855 221.127 95.7753L221.245 95.9246L221.361 96.0698L221.476 96.2109L221.589 96.3478L221.701 96.4806L221.811 96.6092L221.919 96.7337L222.026 96.854L222.132 96.9701L222.236 97.082L222.338 97.1897C222.355 97.2073 222.372 97.2247 222.389 97.242L222.489 97.3434L222.588 97.4406L222.685 97.5335C222.717 97.5638 222.749 97.5934 222.781 97.6223L222.875 97.7067C222.906 97.7342 222.937 97.7609 222.968 97.787L223.06 97.8629L223.15 97.9346C223.165 97.9462 223.18 97.9576 223.195 97.9689L223.283 98.0342C223.37 98.0973 223.456 98.154 223.539 98.2042L223.622 98.2523C224.087 98.5124 224.49 98.5642 224.841 98.4009L224.9 98.3717L224.926 98.3528C226.335 97.2961 226.168 95.5775 224.563 93.3068L224.459 93.1611L224.35 93.0139C224.332 92.9893 224.314 92.9646 224.295 92.9398L224.221 92.8426L224.2 92.8229C223.031 91.7119 221.308 90.7731 219.031 89.9991L218.915 89.963C217.456 89.5019 216.375 88.8792 215.657 88.0986L215.63 88.0685L215.621 88.05C215.45 87.6966 215.529 87.4889 215.976 87.3513L216.05 87.3302C216.062 87.3267 216.075 87.3233 216.089 87.32L216.172 87.3005L216.261 87.2819C216.276 87.2789 216.292 87.2759 216.308 87.273L216.407 87.2559L216.443 87.2502L216.426 87.2513C217.911 87.1573 219.712 87.5208 221.825 88.348L221.858 88.3589C223.358 88.7875 224.317 88.5062 224.493 87.4312C224.65 86.4464 224.078 85.7028 222.844 85.1792L222.722 85.1292C222.702 85.121 222.681 85.1128 222.66 85.1047L222.532 85.0568L222.401 85.0102C222.289 84.972 222.173 84.9351 222.053 84.8997L221.907 84.8579L221.757 84.8174C221.707 84.8041 221.655 84.7911 221.603 84.7783L221.445 84.7405L221.283 84.704L221.117 84.6688L220.947 84.635C220.918 84.6295 220.89 84.624 220.861 84.6186L220.741 84.6013C219.022 84.3641 217.107 84.5707 214.986 85.2147L214.868 85.2508L214.837 85.2551C213.866 85.3771 213.392 85.1357 213.268 84.5108L213.26 84.4629L213.263 84.4541C213.471 83.8435 214.219 83.4026 215.568 83.1682C215.695 83.1469 215.837 83.13 215.995 83.1174L216.134 83.1077L216.28 83.1002L216.434 83.0947L216.595 83.0915L216.764 83.0904L216.94 83.0915L217.124 83.0948L217.315 83.1002C217.347 83.1013 217.38 83.1025 217.413 83.1037L217.615 83.1125L217.824 83.1234L218.041 83.1365L218.265 83.1518C218.409 83.1595 218.547 83.1616 218.679 83.1582L218.79 83.1539C220.249 83.0788 220.839 82.2861 220.355 80.9199L220.328 80.8476L220.318 80.8279C219.655 79.5479 218.212 79.1719 216.083 79.6415L215.909 79.6814L215.874 79.6916C214.451 80.1864 213.113 80.9655 211.861 82.0272L211.787 82.0917L211.727 82.1414L211.694 82.1664C211.613 82.2242 211.582 82.2127 211.544 82.1348L211.53 82.1025L211.506 82.0424C211.424 81.8309 211.493 81.5767 211.68 81.308C211.73 81.2366 211.784 81.1708 211.837 81.1129L211.887 81.0619L211.9 81.0489L211.925 81.0263L211.946 80.9984L211.975 80.9681C212.017 80.9258 212.073 80.8767 212.144 80.8221C212.36 80.6569 212.654 80.4881 213.039 80.3278C213.309 80.2152 213.614 80.1116 213.954 80.0194L214.101 79.9808L214.131 79.9669C215.314 79.4171 215.606 78.6294 214.751 77.9104L214.683 77.853L214.596 77.8342C213.54 77.6063 212.321 77.9464 210.938 78.8277L210.915 78.8437Z" fill="#0F175F"/>
<path d="M211.131 79.1308C212.442 78.2958 213.571 77.9807 214.52 78.1855C215.135 78.7027 214.955 79.1879 213.98 79.6412C213.902 79.6612 213.827 79.6815 213.754 79.7022L213.612 79.7439C213.588 79.7509 213.565 79.758 213.543 79.7651L213.409 79.8078C213.387 79.815 213.366 79.8222 213.345 79.8294L213.22 79.8729C213.2 79.8802 213.18 79.8875 213.16 79.8948L213.044 79.9388L212.933 79.9829L212.828 80.0271L212.729 80.0712L212.634 80.1151C212.619 80.1224 212.604 80.1297 212.589 80.1369L212.502 80.1803L212.42 80.2231L212.344 80.2653C212.331 80.2722 212.319 80.2792 212.307 80.2861L212.237 80.327L212.172 80.3671L212.111 80.406L212.055 80.4437L212.003 80.4802L211.955 80.5151L211.911 80.5485L211.853 80.5954L211.803 80.638L211.749 80.6875L211.717 80.7186L211.671 80.7685L211.658 80.7836L211.621 80.82L211.598 80.8435L211.571 80.8722L211.541 80.9059L211.508 80.9444L211.472 80.9874L211.435 81.0347L211.398 81.086L211.36 81.141C211.184 81.4066 211.022 81.7878 211.172 82.1727C211.353 82.64 211.66 82.6829 212.094 82.3013C213.312 81.2678 214.612 80.511 215.993 80.0311C218.075 79.5357 219.41 79.8564 219.999 80.9933C220.457 82.2302 219.948 82.8326 218.472 82.8005L218.352 82.7966C218.332 82.7957 218.311 82.7947 218.291 82.7936L218.062 82.778C218.024 82.7756 217.987 82.7732 217.95 82.771L217.732 82.7587L217.522 82.7488L217.319 82.741C217.286 82.7399 217.253 82.7389 217.22 82.738L217.028 82.7336C216.996 82.7331 216.965 82.7327 216.934 82.7323L216.753 82.7313C216.723 82.7314 216.694 82.7315 216.665 82.7317L216.495 82.7341C216.106 82.7424 215.777 82.7692 215.507 82.8144C213.981 83.0795 213.11 83.6201 212.893 84.4361C213.009 85.3867 213.693 85.7758 214.945 85.6035C217.126 84.9235 219.076 84.7129 220.795 84.9719L220.882 84.9884L221.051 85.0222C221.079 85.0279 221.107 85.0337 221.135 85.0395L221.298 85.0751C221.324 85.0812 221.351 85.0873 221.378 85.0934L221.534 85.1309L221.686 85.1696C221.81 85.2023 221.93 85.2363 222.045 85.2716L222.181 85.3145C223.63 85.7863 224.282 86.4725 224.139 87.3731C224.007 88.178 223.28 88.3915 221.957 88.0136C219.798 87.1687 217.947 86.7952 216.404 86.8929C215.29 87.0649 214.933 87.5256 215.333 88.2749C216.116 89.1602 217.311 89.8484 218.916 90.3394C221.147 91.098 222.826 92.0127 223.953 93.0835L224.009 93.1568L224.117 93.302C224.17 93.3742 224.222 93.4457 224.272 93.5165L224.37 93.6573C224.402 93.7039 224.434 93.7502 224.464 93.7962L224.555 93.9333L224.641 94.0686C224.669 94.1134 224.696 94.158 224.723 94.2022L224.801 94.3339C224.89 94.4865 224.97 94.6355 225.043 94.7807L225.103 94.9043C225.77 96.3155 225.639 97.3692 224.71 98.0655C224.381 98.2321 223.926 98.0867 223.346 97.6293L223.258 97.5584C223.243 97.5462 223.228 97.5338 223.213 97.5212L223.122 97.4432C223.107 97.4298 223.092 97.4163 223.076 97.4025L222.983 97.3175L222.887 97.2278L222.79 97.1335C222.773 97.1174 222.757 97.1011 222.74 97.0846L222.64 96.9832L222.538 96.8772C222.521 96.8591 222.504 96.8409 222.486 96.8224L222.382 96.7094L222.275 96.5916L222.166 96.4692L222.056 96.3421L221.943 96.2103C221.924 96.188 221.905 96.1654 221.886 96.1427L221.771 96.0039L221.654 95.8604L221.535 95.7123L221.414 95.5594L221.344 95.467L221.205 95.2864C219.954 93.6867 218.808 92.7832 217.765 92.576C216.831 92.6428 216.518 93.0298 216.825 93.737L217.247 94.1146L217.552 94.3893L218.038 94.8308L218.405 95.1694L218.755 95.495L219.005 95.7307L219.245 95.959L219.549 96.2521L219.835 96.5322L220.037 96.7337L220.167 96.864L220.352 97.0534L220.527 97.2354L220.638 97.3527L220.796 97.5226L220.943 97.6851L221.036 97.7894L221.124 97.8905L221.208 97.9883L221.287 98.0828L221.361 98.1741C221.373 98.1891 221.385 98.2039 221.397 98.2185C223.096 100.561 223.755 102.679 223.372 104.574C222.937 106.251 221.66 106.915 219.542 106.565C217.325 105.864 215.956 104.449 215.435 102.32C215.37 101.985 215.316 101.622 215.272 101.232L215.249 101.017C215.246 100.981 215.242 100.944 215.239 100.907L215.219 100.684C215.213 100.609 215.207 100.532 215.201 100.455L215.186 100.221L215.173 99.9813C215.171 99.9409 215.169 99.9003 215.167 99.8595L215.157 99.6118C215.151 99.4448 215.146 99.2743 215.143 99.1002L215.139 98.8363C215.138 98.7918 215.138 98.7472 215.138 98.7023L215.137 98.4303L215.138 98.1529C215.139 98.1062 215.139 98.0593 215.14 98.0122L215.144 97.7267C215.145 97.6786 215.146 97.6304 215.148 97.5819L215.155 97.2883L215.165 96.9893C215.167 96.939 215.169 96.8885 215.171 96.8378L215.184 96.5307L215.199 96.2182L215.216 95.9003L215.235 95.577L215.257 95.2483C215.264 95.1378 215.272 95.0265 215.28 94.9142L215.241 94.7998L215.201 94.6907C215.181 94.6374 215.161 94.5862 215.14 94.5369L215.099 94.4411C214.669 93.478 214.146 93.3645 213.53 94.1008C213.29 95.1353 213.255 96.209 213.424 97.3219L213.488 97.7175C213.494 97.7607 213.501 97.8038 213.508 97.8466L213.546 98.1015L213.582 98.3518C213.587 98.3931 213.593 98.4342 213.599 98.4751L213.631 98.7184L213.66 98.9571L213.687 99.1912L213.711 99.4206L213.733 99.6454L213.752 99.8655C213.755 99.9018 213.758 99.938 213.76 99.9739L213.776 100.187L213.789 100.396L213.799 100.6L213.806 100.799C213.853 102.244 213.694 103.315 213.33 104.014C212.606 104.855 211.786 104.821 210.869 103.912C209.778 102.587 209.29 100.405 209.404 97.3656C209.415 96.0254 209.809 94.2772 210.587 92.1211L210.686 91.8494C210.703 91.8038 210.72 91.758 210.737 91.712L210.842 91.434C210.86 91.3873 210.878 91.3404 210.897 91.2934L211.008 91.009C211.027 90.9612 211.046 90.9133 211.065 90.8652C211.505 89.9631 211.43 89.3934 210.84 89.1562C209.658 89.2994 208.872 90.2846 208.481 92.1117L208.455 92.2562C208.45 92.2807 208.446 92.3055 208.442 92.3305L208.417 92.4836C208.413 92.5095 208.409 92.5358 208.405 92.5622L208.382 92.7239L208.359 92.8913L208.337 93.0644L208.305 93.3349L208.284 93.5224L208.265 93.7156L208.246 93.9146L208.228 94.1193L208.21 94.3298L208.193 94.546L208.177 94.768L208.162 94.9957L208.148 95.2291L208.134 95.4683L208.114 95.8379L208.097 96.2204L208.086 96.4826L208.071 96.8866L208.057 97.3035L208.049 97.5887L208.039 98.0272L208.032 98.3267C208.038 98.5994 208.033 98.8517 208.017 99.0834L208.007 99.22C207.9 100.405 207.492 101.014 206.781 101.048C205.93 100.739 205.187 99.7227 204.551 97.999C203.64 95.1714 204.067 92.2614 205.832 89.269C206.006 88.8749 206.319 88.5169 206.621 88.2064L206.741 88.0847L206.998 87.8283L207.108 87.7157L207.174 87.6444C207.301 87.5048 207.391 87.3838 207.415 87.2835C207.456 87.1052 207.477 86.6516 207.12 86.4603C207.04 86.4175 206.877 86.4058 206.632 86.4253L206.536 86.434C206.519 86.4357 206.502 86.4375 206.485 86.4395L206.377 86.4526C206.359 86.455 206.34 86.4576 206.321 86.4603C205.413 86.6393 204.613 87.3012 203.92 88.446L203.847 88.6142L203.77 88.7884L203.688 88.9686C203.659 89.0296 203.63 89.0916 203.6 89.1547L203.508 89.3467L203.412 89.5447C203.395 89.5782 203.378 89.6119 203.361 89.6459L203.257 89.8528L203.149 90.0657L203.035 90.2845C203.016 90.3215 202.996 90.3587 202.976 90.3961L202.855 90.6239L202.73 90.8575L202.599 91.0972L202.464 91.3427L202.324 91.5943L202.179 91.8517L202.029 92.1152C201.434 92.9037 200.863 93.0905 200.315 92.6758C199.82 91.5743 200.268 90.2136 201.659 88.5938L201.781 88.4543L201.907 88.3136L202.038 88.1716C202.126 88.0765 202.218 87.9805 202.313 87.8838L202.585 87.6072L202.87 87.3147L203.096 87.0798L203.253 86.9158L203.582 86.57L203.93 86.2005L204.297 85.8073L204.684 85.3904L204.987 85.0622C205.114 84.6386 204.863 84.4765 204.233 84.5756C203.299 84.8943 202.448 85.7348 201.68 87.0971C201.256 87.3122 201.022 87.2492 200.979 86.9079C201.1 85.9941 201.687 85.0412 202.739 84.049C203.861 83.0983 205.295 82.6264 207.04 82.6334C207.987 82.7109 208.649 82.5703 209.024 82.2118C209.424 80.9146 210.126 79.8876 211.131 79.1308Z" fill="white"/>
<path d="M196.436 91.4029L196.466 91.4158L196.486 91.4276C196.522 91.4491 196.566 91.4796 196.617 91.5205C196.775 91.6464 196.951 91.83 197.138 92.0824C197.268 92.2586 197.399 92.4614 197.528 92.6924L197.592 92.8093L197.613 92.8349C198.276 93.6584 198.993 93.7393 199.401 92.9006L199.44 92.8206L199.437 92.7317C199.409 91.875 198.918 91.0078 197.989 90.1238L197.968 90.1053L197.894 90.0461C197.148 89.4628 196.271 89.1259 195.273 89.0363L195.18 89.0286L195.172 89.0215C194.973 88.8447 194.815 88.4806 194.722 87.9164L194.717 87.8892C194.377 86.5032 193.712 85.4446 192.721 84.7294L192.705 84.7186C191.706 84.0753 190.809 83.789 190.012 83.8786L189.965 83.8838L189.921 83.9009C189.398 84.105 189.389 84.5897 189.77 85.0301L189.841 85.1124L189.945 85.1415L190.037 85.1675C191.037 85.4573 191.708 85.8671 192.063 86.3834L192.078 86.4056L192.089 86.4331L191.444 86.0757L191.131 85.9003L190.648 85.6261L190.296 85.4232L189.974 85.235L189.825 85.1463C187.88 83.9842 186.399 83.7464 185.406 84.5284L185.334 84.5854L185.298 84.6701C185.007 85.3563 185.35 85.9283 186.174 86.2968L186.246 86.3281L186.525 86.4063L186.774 86.4751L187.017 86.5407L187.252 86.603L187.481 86.6622L187.703 86.7181L187.919 86.7707L188.127 86.8202L188.329 86.8664L188.524 86.9094C188.556 86.9163 188.587 86.9231 188.619 86.9297L188.804 86.9679L188.982 87.0028L189.153 87.0345C189.181 87.0396 189.208 87.0444 189.236 87.0492L189.37 87.0715L189.427 87.0901C190.248 87.3589 190.775 87.7484 191.032 88.2515L191.052 88.2919L191.087 88.3808C191.122 88.4744 191.147 88.5523 191.162 88.6133L191.17 88.6472L191.175 88.6739L191.169 88.6829C191.139 88.7197 191.067 88.7516 190.992 88.7586L190.967 88.7599C190.972 88.7598 190.974 88.7593 190.972 88.758L190.946 88.7474C190.918 88.7361 190.885 88.72 190.844 88.6986L190.779 88.6623L190.637 88.5784L190.271 88.3602L190.18 88.3085C189.866 88.1338 189.595 88.0194 189.322 87.9627L189.283 87.9551L189.3 87.9603C186.646 87.1676 184.29 87.3994 182.261 88.6636C181.003 89.5217 180.322 90.3418 180.237 91.1666L180.23 91.238L180.25 91.3068C180.519 92.201 181.472 92.3821 182.95 91.9801L183.335 91.8933L183.706 91.8113L184.066 91.7341L184.413 91.6617L184.747 91.5942L185.069 91.5315L185.277 91.4924L185.479 91.4555L185.676 91.4207L185.866 91.3881L186.052 91.3577L186.231 91.3294L186.405 91.3032L186.574 91.2793C186.601 91.2755 186.629 91.2717 186.656 91.2681L186.816 91.2474L186.97 91.2289L187.119 91.2125C187.143 91.2099 187.167 91.2075 187.191 91.2051L187.331 91.192L187.465 91.1811C187.509 91.1778 187.552 91.1749 187.594 91.1723L187.669 91.1703C188.836 91.1453 189.534 91.4427 189.828 92.0396L189.838 92.0614L189.834 92.0721C189.762 92.2294 189.55 92.269 189.058 92.1638L189.032 92.1592C188.845 92.1335 188.662 92.1098 188.482 92.0882L188.215 92.0572C188.171 92.0523 188.127 92.0475 188.084 92.0428L187.825 92.0164C187.568 91.9915 187.32 91.9712 187.079 91.9554L186.841 91.9412C185.585 91.8735 184.554 91.9364 183.744 92.1318C181.39 92.6252 179.779 93.4336 178.933 94.5799L178.913 94.6101C178.317 95.6155 178.477 96.4587 179.395 96.9483L179.48 96.992L179.52 97.0018C180.179 97.1618 181.072 97.0767 182.209 96.7517L182.39 96.6984C182.452 96.68 182.513 96.6609 182.576 96.6411L182.766 96.5799C182.83 96.5588 182.894 96.537 182.959 96.5146L183.157 96.4454L183.359 96.3722C183.393 96.3597 183.427 96.347 183.462 96.3342L183.67 96.2551L183.882 96.172C183.918 96.1578 183.954 96.1435 183.99 96.129L184.208 96.04C184.355 95.9794 184.505 95.9161 184.657 95.8503L184.77 95.8026C185.443 95.524 186.12 95.3661 186.802 95.3277L186.948 95.3214L186.954 95.325C187.054 95.3806 187.121 95.434 187.157 95.4805C187.179 95.5081 187.182 95.5184 187.178 95.5358L187.175 95.5511C187.142 95.6618 186.972 95.8407 186.653 96.0551L186.617 96.079L186.392 96.1188L186.1 96.1721L185.814 96.2262L185.534 96.281L185.261 96.3367L184.993 96.3932L184.731 96.4505C184.558 96.4889 184.389 96.5279 184.224 96.5675L183.98 96.6272C183.94 96.6372 183.9 96.6473 183.86 96.6574L183.625 96.7183C183.548 96.7388 183.471 96.7594 183.396 96.7801L183.173 96.8428C183.099 96.8638 183.027 96.8849 182.955 96.9062L182.744 96.9705C182.64 97.0028 182.538 97.0355 182.438 97.0684L182.242 97.1348L182.051 97.202C181.707 97.3259 181.393 97.4541 181.108 97.5866C179.516 98.426 178.648 99.7949 178.51 101.659L178.502 101.777L178.504 101.802C178.652 103.623 179.523 104.611 181.056 104.627L181.076 104.627C182.674 104.556 184.217 103.617 185.705 101.84L185.77 101.754L185.837 101.662L185.906 101.566L185.977 101.464L186.05 101.356L186.125 101.244L186.202 101.126L186.281 101.002L186.362 100.874L186.487 100.671L186.574 100.529L186.707 100.306L186.798 100.15L186.939 99.907L187.134 99.5639L187.235 99.3842L187.442 99.0086L187.603 98.7128L187.883 98.1924L187.998 97.9748L188.197 97.5972L188.215 97.585C188.356 97.4945 188.433 97.5127 188.52 97.6987L188.542 97.7511L188.566 97.8113C188.57 97.822 188.574 97.833 188.578 97.8444L188.599 97.8622C188.63 98.5078 188.285 99.347 187.547 100.365L187.436 100.516C187.417 100.541 187.398 100.566 187.379 100.592L187.26 100.746L187.135 100.902L187.023 101.048C187.005 101.072 186.986 101.096 186.969 101.12L186.863 101.261L186.762 101.399C186.745 101.422 186.729 101.444 186.713 101.467L186.618 101.6L186.528 101.731L186.442 101.859L186.361 101.984L186.284 102.105L186.212 102.224C185.638 103.184 185.513 103.858 185.889 104.294L185.909 104.318L185.934 104.338C186.794 105.04 187.777 104.907 188.847 104.017L188.946 103.932C189.194 103.716 189.447 103.46 189.704 103.164L189.807 103.044C189.841 103.003 189.876 102.962 189.91 102.92L190.032 102.769L190.046 102.744C190.663 101.651 191.044 100.177 191.197 98.319L191.204 98.2069C191.276 97.0567 191.531 96.156 191.964 95.4924L191.982 95.4648L191.988 95.4597C192.195 95.288 192.323 95.3195 192.502 95.6759L192.537 95.7465L192.572 95.825L192.601 95.8928L192.597 95.8788C192.94 96.9591 193.004 98.3623 192.783 100.086L192.781 100.12C192.74 101.364 193.156 102.076 194.053 102.003C194.964 101.925 195.444 101.185 195.547 99.8705L195.556 99.7348L195.563 99.5952C195.569 99.4301 195.57 99.2569 195.566 99.0759L195.561 98.9188C195.56 98.8923 195.559 98.8657 195.557 98.8388L195.549 98.676L195.537 98.562C195.389 97.2298 194.88 95.839 194.011 94.3785L193.952 94.2799L193.943 94.2565C193.691 93.6029 193.767 93.2523 194.153 93.0631L194.178 93.0511L194.207 93.0548C194.649 93.119 195.081 93.5755 195.483 94.4865C195.521 94.574 195.559 94.6734 195.597 94.7847L195.634 94.9C195.69 95.0787 195.745 95.2841 195.799 95.5156L195.835 95.6738C195.841 95.7009 195.847 95.7282 195.853 95.7559L195.888 95.9257L195.923 96.1033L195.958 96.2885C195.97 96.3515 195.981 96.4158 195.993 96.4814C196.272 97.9262 197.083 98.4037 198.167 97.6885L198.228 97.6471L198.245 97.6324C199.132 96.8483 199.121 95.6173 198.296 94.0225L198.278 93.9912C197.638 93.0099 196.801 92.1465 195.768 91.4017L195.74 91.3814C195.704 91.3551 195.676 91.3318 195.655 91.3112L195.649 91.3042L195.653 91.3007C195.663 91.2922 195.675 91.2828 195.689 91.2727C195.804 91.1915 195.979 91.1954 196.191 91.2765C196.235 91.2935 196.276 91.3116 196.31 91.3287L196.357 91.3533L196.394 91.3749L196.436 91.4029Z" fill="#0F175F"/>
<path d="M197.741 90.3839C198.608 91.2088 199.054 91.9952 199.078 92.7431C198.84 93.231 198.507 93.2564 198.077 92.8194L198.017 92.7554L197.955 92.6854C197.934 92.661 197.913 92.6357 197.892 92.6094C197.799 92.4376 197.708 92.2844 197.62 92.1479L197.554 92.0486C197.489 91.9524 197.425 91.8653 197.364 91.7866L197.304 91.7106L197.245 91.64L197.189 91.5745C197.179 91.5641 197.17 91.5538 197.161 91.5437L197.107 91.4858L197.055 91.4326L197.006 91.384L196.958 91.3398L196.913 91.2998L196.871 91.264L196.813 91.2173L196.761 91.1789L196.703 91.1392L196.658 91.1116L196.608 91.0857L196.572 91.0633L196.513 91.0296L196.452 90.9986C196.445 90.9949 196.437 90.9913 196.429 90.9876L196.38 90.9654L196.326 90.9433C196.092 90.8527 195.756 90.7851 195.482 90.9793C195.167 91.2019 195.192 91.4398 195.558 91.6929C196.555 92.4124 197.362 93.2439 197.977 94.1873C198.734 95.6527 198.744 96.7113 198.007 97.363C197.137 97.9583 196.583 97.6438 196.346 96.4195L196.311 96.2212L196.275 96.0305C196.269 95.9993 196.263 95.9685 196.257 95.938L196.22 95.7588L196.184 95.5873L196.146 95.4235C196.14 95.3968 196.134 95.3705 196.127 95.3445L196.089 95.1922C196.064 95.0932 196.038 94.9994 196.012 94.9106L195.973 94.7814C195.92 94.6142 195.867 94.4674 195.812 94.3412C195.33 93.2492 194.764 92.698 194.116 92.6876C193.429 92.9511 193.266 93.5351 193.628 94.4394C194.542 95.944 195.062 97.3634 195.19 98.6975C195.195 98.7833 195.199 98.8672 195.202 98.9493L195.207 99.111C195.242 100.729 194.848 101.574 194.024 101.645C193.399 101.696 193.104 101.191 193.139 100.132C193.367 98.36 193.3 96.9061 192.939 95.7699C192.603 94.9692 192.193 94.7878 191.709 95.2258C191.196 95.9763 190.905 96.9975 190.839 98.2893C190.689 100.099 190.321 101.525 189.733 102.567L189.628 102.697C189.541 102.803 189.455 102.904 189.37 103L189.268 103.113C189.117 103.28 188.967 103.43 188.821 103.564L188.724 103.652C187.74 104.516 186.886 104.652 186.161 104.059C185.993 103.865 185.996 103.547 186.169 103.105L186.206 103.015L186.248 102.922C186.262 102.891 186.277 102.858 186.294 102.826L186.344 102.726C186.362 102.692 186.38 102.658 186.399 102.623L186.459 102.516C186.469 102.498 186.479 102.48 186.49 102.462L186.557 102.35L186.628 102.236C186.64 102.216 186.652 102.197 186.665 102.177L186.742 102.058L186.825 101.935C186.839 101.914 186.853 101.893 186.868 101.872L186.957 101.744C186.972 101.723 186.987 101.701 187.003 101.679L187.099 101.546L187.199 101.41C187.216 101.387 187.234 101.364 187.251 101.341L187.359 101.2C187.377 101.176 187.395 101.152 187.414 101.128C188.485 99.8027 188.999 98.7082 188.957 97.8445C188.733 97.1583 188.386 96.9957 187.916 97.3567L187.739 97.6947L187.567 98.0204L187.344 98.4357L187.13 98.8292L186.925 99.201L186.826 99.3788L186.68 99.6352L186.494 99.9581L186.404 100.111L186.316 100.259L186.189 100.471L186.106 100.605L185.986 100.796L185.871 100.975L185.798 101.088L185.726 101.195L185.656 101.296L185.588 101.393L185.523 101.483L185.46 101.569C185.449 101.582 185.439 101.596 185.429 101.609C184 103.316 182.544 104.202 181.06 104.268C179.729 104.254 178.996 103.422 178.862 101.773C178.971 99.9846 179.77 98.6977 181.26 97.9121C181.788 97.6659 182.426 97.4339 183.174 97.2161L183.391 97.1542C183.427 97.144 183.464 97.1338 183.501 97.1236L183.727 97.0629C183.765 97.0528 183.803 97.0428 183.842 97.0328L184.076 96.9733C184.156 96.9536 184.236 96.934 184.317 96.9145L184.564 96.8565L184.816 96.7993C184.859 96.7898 184.901 96.7804 184.945 96.7709L185.206 96.7149L185.473 96.6596C185.519 96.6504 185.564 96.6413 185.609 96.6322L185.886 96.578L186.168 96.5247L186.457 96.4721L186.751 96.4202L186.843 96.3604C187.703 95.7854 187.765 95.3185 187.031 94.9599C186.182 94.9735 185.344 95.1603 184.515 95.5203L184.404 95.5678L184.186 95.6599L183.972 95.7483L183.762 95.8328L183.556 95.9134L183.354 95.9902C183.321 96.0027 183.288 96.015 183.255 96.0272L183.06 96.0982L182.868 96.1655C182.837 96.1764 182.805 96.1871 182.774 96.1976L182.589 96.2591L182.408 96.3167C182.378 96.326 182.348 96.3351 182.319 96.3441L182.144 96.396C181.05 96.7124 180.203 96.7979 179.605 96.6525C178.843 96.2672 178.715 95.6475 179.222 94.7932C180.006 93.731 181.541 92.9603 183.828 92.4809C184.628 92.2878 185.669 92.2299 186.95 92.3072L187.186 92.3227C187.265 92.3284 187.345 92.3346 187.426 92.3413L187.673 92.3628L187.924 92.3872C188.051 92.4002 188.18 92.4143 188.311 92.4296L188.576 92.4615C188.709 92.4782 188.845 92.496 188.983 92.515C189.737 92.6763 190.148 92.5144 190.215 92.0294C189.888 91.1719 189.007 90.7666 187.572 90.8135L187.44 90.8225L187.303 90.8336C187.28 90.8357 187.256 90.8378 187.232 90.84L187.086 90.8544C187.062 90.857 187.037 90.8597 187.011 90.8625L186.778 90.8899L186.532 90.9222L186.361 90.9465L186.184 90.973L186.002 91.0017L185.814 91.0325L185.521 91.083L185.319 91.1193L185.111 91.1578L184.898 91.1986L184.679 91.2415L184.34 91.31L183.988 91.3834L183.623 91.4618L183.373 91.5167L182.856 91.6333C182.668 91.6843 182.492 91.7251 182.327 91.7557L182.205 91.7768C181.29 91.9234 180.753 91.7322 180.594 91.2033C180.666 90.5094 181.285 89.7644 182.451 88.9684C184.388 87.7613 186.637 87.54 189.197 88.3044C189.483 88.3544 189.768 88.4893 190.028 88.6353L190.138 88.6984L190.245 88.7615L190.492 88.9111L190.583 88.9642C190.744 89.0568 190.877 89.1203 190.972 89.119C191.112 89.117 191.454 89.048 191.53 88.7453C191.547 88.6782 191.526 88.5557 191.467 88.3777L191.436 88.2917C191.42 88.2467 191.402 88.1987 191.381 88.1478C191.078 87.5022 190.436 87.0266 189.453 86.7212L189.296 86.6948C189.269 86.6901 189.242 86.6853 189.214 86.6804L189.046 86.6492L188.871 86.6148L188.689 86.5772L188.5 86.5364C188.468 86.5293 188.436 86.5221 188.403 86.5148L188.204 86.4692L187.999 86.4203L187.786 86.3683L187.566 86.313L187.34 86.2545L187.107 86.1928L186.867 86.1279L186.62 86.0598L186.366 85.9885C185.667 85.6902 185.421 85.2975 185.628 84.8104C186.459 84.156 187.768 84.3541 189.556 85.4048L189.859 85.5841L190.093 85.721L190.43 85.9153L190.795 86.1229L191.29 86.4013L191.83 86.7006L192.174 86.8902C192.514 86.9066 192.588 86.6885 192.397 86.2359C191.985 85.5965 191.2 85.1162 190.041 84.7951C189.802 84.518 189.805 84.3315 190.051 84.2354C190.755 84.1564 191.575 84.4181 192.51 85.0205C193.428 85.6832 194.047 86.6679 194.368 87.9745C194.487 88.6976 194.715 89.1661 195.052 89.3802C196.093 89.4384 196.99 89.7729 197.741 90.3839Z" fill="white"/>
<path fill-rule="evenodd" clip-rule="evenodd" d="M62.5403 87.0927C67.6229 81.5562 74.4922 83.1966 78.357 90.8697L79.2716 92.6856L79.5861 92.6233C86.8053 91.1932 93.7449 97.6019 96.6209 108.355L97.7247 112.482H8.08398L9.08097 108.752C11.6786 99.035 17.9467 93.2435 24.4672 94.5358L24.7513 94.5921L25.5774 92.9511C29.0682 86.017 35.2727 84.5346 39.8634 89.5378C39.8634 87.782 51.6606 70.0703 62.5403 87.0927Z" fill="#0F175F"/>
<path d="M16.6796 96.3117C16.7796 96.3658 16.9316 96.4323 17.1514 96.4916L17.1827 96.5L17.2133 96.5104L16.8909 97.457C17.2133 96.5104 17.2135 96.5105 17.2138 96.5106L17.2142 96.5108L17.2153 96.5111L17.2179 96.512L17.225 96.5145L17.2461 96.5219C17.2632 96.528 17.2864 96.5365 17.315 96.5472C17.3721 96.5687 17.4513 96.5995 17.5473 96.6398C17.7386 96.72 18.0014 96.8393 18.2935 96.9986C18.8568 97.3058 19.6214 97.8109 20.1504 98.545L20.1654 98.5659L20.1794 98.5875L19.5899 98.9677C19.5899 98.9677 19.5899 98.9677 19.5899 98.9677C20.1794 98.5875 20.1795 98.5877 20.1796 98.5878L20.1798 98.5882L20.1803 98.589L20.1816 98.5909L20.1848 98.596L20.1944 98.6111C20.202 98.6233 20.2122 98.6398 20.2246 98.6601C20.2492 98.7007 20.2827 98.7572 20.3217 98.8266C20.399 98.9641 20.5014 99.1582 20.6001 99.3837C20.7719 99.776 21.0363 100.486 20.9146 101.181L20.8875 101.335L20.8148 101.473L19.93 101.008C20.8148 101.473 20.8145 101.474 20.8141 101.475L20.8134 101.476L20.8119 101.479L20.8089 101.484L20.8024 101.496C20.7979 101.504 20.793 101.513 20.7877 101.522C20.7771 101.54 20.7646 101.56 20.7501 101.581C20.7214 101.623 20.6828 101.674 20.6327 101.727C20.5661 101.798 20.47 101.883 20.3414 101.955C20.3527 101.987 20.3639 102.02 20.3748 102.052C20.4994 102.425 20.616 102.892 20.6135 103.367C20.6109 103.846 20.4824 104.45 19.9849 104.909L19.7916 105.087L19.5357 105.147L19.3067 104.174C19.5357 105.147 19.535 105.147 19.5344 105.148L19.5331 105.148L19.5304 105.148L19.5248 105.15L19.5127 105.152C19.5043 105.154 19.495 105.156 19.485 105.158C19.4649 105.162 19.4415 105.166 19.4152 105.169C19.3628 105.176 19.2973 105.183 19.2212 105.184C19.0703 105.187 18.8678 105.171 18.6423 105.098C18.2356 104.967 17.8508 104.684 17.5707 104.217C17.4239 105.035 17.1003 105.917 16.448 106.69L16.4326 106.709L16.4163 106.726L15.6835 106.046C16.4163 106.726 16.4162 106.726 16.416 106.727L16.4157 106.727L16.415 106.728L16.4132 106.73L16.4085 106.735L16.3944 106.749C16.383 106.761 16.3675 106.777 16.3481 106.797C16.3096 106.836 16.2555 106.89 16.1885 106.953C16.0557 107.078 15.8659 107.246 15.6396 107.416C15.4162 107.583 15.1374 107.767 14.827 107.909C14.5237 108.048 14.1291 108.176 13.6937 108.16L13.5256 108.153L13.3688 108.092L13.7315 107.16C13.3688 108.092 13.368 108.092 13.3672 108.092L13.3656 108.091L13.3624 108.09L13.3557 108.087L13.3411 108.081C13.331 108.077 13.3198 108.072 13.3078 108.066C13.2839 108.055 13.2563 108.042 13.2258 108.026C13.165 107.993 13.0912 107.948 13.0114 107.888C12.8607 107.775 12.6854 107.604 12.5414 107.359C12.1771 107.869 11.6986 108.37 11.0893 108.672L11.0441 108.695L10.9969 108.712L10.6453 107.776C10.9969 108.712 10.9965 108.712 10.9961 108.713L10.9953 108.713L10.9936 108.714L10.9898 108.715L10.981 108.718L10.958 108.726C10.9404 108.732 10.9182 108.74 10.8918 108.748C10.8394 108.764 10.769 108.784 10.6848 108.803C10.5205 108.84 10.2826 108.879 10.0101 108.872C9.44844 108.859 8.63825 108.635 8.18874 107.75L8.13372 107.641L8.10625 107.523L9.08036 107.297C8.10625 107.523 8.10607 107.522 8.10589 107.521L8.10552 107.52L8.10478 107.516L8.10325 107.51L8.10006 107.495C8.09789 107.484 8.09563 107.472 8.09333 107.459C8.08874 107.434 8.08404 107.403 8.0797 107.369C8.07794 107.354 8.07623 107.34 8.07462 107.324C7.98578 107.391 7.88927 107.459 7.78497 107.526C7.07876 107.98 6.02915 108.389 4.64166 108.286L4.58136 108.282L4.52204 108.27L4.71558 107.289C4.52204 108.27 4.5217 108.27 4.52136 108.27L4.52064 108.27L4.51905 108.269L4.51527 108.269L4.50538 108.267L4.4766 108.26C4.45356 108.255 4.42285 108.248 4.38556 108.239C4.31119 108.221 4.20943 108.193 4.08928 108.156C3.85277 108.081 3.52642 107.96 3.19195 107.776C2.56472 107.43 1.6288 106.689 1.66765 105.387L1.6686 105.355L1.6716 105.323L2.6672 105.417C1.6716 105.323 1.67166 105.323 1.67172 105.322L1.67185 105.321L1.67212 105.318L1.67273 105.312L1.67425 105.298C1.6754 105.288 1.67685 105.277 1.67866 105.263C1.68228 105.237 1.68733 105.204 1.69437 105.166C1.70843 105.089 1.73042 104.988 1.76463 104.869C1.83311 104.63 1.95056 104.315 2.15103 103.959C2.35513 103.596 2.64045 103.199 3.03626 102.8C2.82364 102.76 2.56292 102.668 2.33272 102.462L2.27316 102.409L2.22284 102.347L2.99996 101.717C2.22284 102.347 2.22231 102.346 2.22177 102.345L2.22068 102.344L2.21843 102.341L2.21363 102.335L2.20296 102.321C2.19539 102.312 2.18689 102.3 2.17763 102.287C2.15916 102.262 2.13747 102.23 2.11401 102.192C2.06737 102.117 2.01198 102.016 1.96106 101.891C1.85902 101.641 1.77034 101.283 1.81982 100.854C1.92443 99.9478 2.5836 99.1057 3.89764 98.3924L3.96768 98.3544L4.04287 98.3279L4.37472 99.2713C4.04287 98.3279 4.04316 98.3278 4.04345 98.3277L4.04407 98.3275L4.0454 98.3271L4.04844 98.326L4.05603 98.3234L4.07722 98.3163C4.09401 98.3108 4.11611 98.3037 4.14341 98.2953C4.19802 98.2785 4.2735 98.2565 4.36905 98.2315C4.56014 98.1815 4.83171 98.1194 5.17745 98.0627C5.40853 98.0248 5.67276 97.9892 5.96823 97.9612C5.84046 97.9319 5.69287 97.8918 5.54158 97.8372C5.32392 97.7586 5.01561 97.6213 4.7572 97.3766C4.4681 97.1028 4.21981 96.6634 4.29719 96.1026L4.29806 96.0966L5.28782 96.2393C4.29806 96.0966 4.29823 96.0954 4.29841 96.0942L4.29877 96.0917L4.29954 96.0867L4.30119 96.0763L4.30509 96.054C4.30797 96.0385 4.31141 96.0218 4.31553 96.0039C4.32377 95.9682 4.3348 95.9276 4.34955 95.8832C4.3791 95.7944 4.42372 95.6899 4.49088 95.5787C4.62913 95.3497 4.84681 95.1188 5.16827 94.9388C5.77369 94.5999 6.6424 94.4947 7.87758 94.6998C7.86348 94.6538 7.85129 94.6062 7.84135 94.5568C7.72554 93.9817 7.9667 93.4792 8.30905 93.1115L8.35612 93.061L8.40969 93.0174L9.04093 93.793C8.40969 93.0174 8.41037 93.0168 8.41105 93.0163L8.41244 93.0152L8.41528 93.0129L8.42129 93.0081L8.4345 92.9978C8.44385 92.9906 8.4543 92.9828 8.46584 92.9745C8.48891 92.9578 8.51641 92.939 8.54838 92.9189C8.61233 92.8786 8.69427 92.8328 8.79446 92.7877C8.99611 92.6971 9.2671 92.6119 9.60601 92.5795C10.2208 92.5209 10.9878 92.6421 11.8996 93.1078C12.1158 92.7856 12.452 92.6223 12.7151 92.5467L12.9267 92.4859L13.1442 92.5196L12.9913 93.5078C13.1442 92.5196 13.1447 92.5196 13.1452 92.5197L13.1461 92.5199L13.1481 92.5202L13.1523 92.5209L13.1619 92.5224L13.1852 92.5266C13.2026 92.5299 13.2238 92.5341 13.2484 92.5395C13.2977 92.5503 13.361 92.5659 13.4364 92.588C13.5873 92.6321 13.787 92.7023 14.02 92.8125C14.488 93.0338 15.0838 93.4132 15.6821 94.0543L15.7068 94.0807L15.7294 94.1088L14.9968 94.6996C15.7295 94.1088 15.7296 94.1091 15.7298 94.1093L15.7302 94.1098L15.731 94.1108L15.7329 94.1131L15.7375 94.1189L15.7497 94.1346C15.7593 94.1468 15.7715 94.1628 15.7859 94.1823C15.8149 94.2213 15.8532 94.2747 15.8977 94.3409C15.9863 94.4729 16.1019 94.6596 16.2181 94.8897C16.3982 95.246 16.5959 95.738 16.6796 96.3117ZM9.32534 103.335C9.32535 103.335 9.32535 103.335 9.32536 103.335L8.18638 106.042C8.18707 106.039 8.18775 106.036 8.18844 106.033C8.23424 105.833 8.29492 105.615 8.37437 105.378C8.54247 105.027 8.69974 104.634 8.84024 104.246C8.97763 103.961 9.13813 103.657 9.32534 103.335ZM6.45788 97.9242C6.45794 97.9242 6.45799 97.9242 6.45805 97.9242L6.54418 97.0473C6.49449 97.5532 6.46999 97.802 6.45788 97.9242ZM7.82309 95.7051C7.90241 95.3269 7.95111 95.0949 7.98103 94.9525C7.98101 94.9525 7.98099 94.9524 7.98096 94.9524L7.82309 95.7051ZM17.6425 103.699L18.3302 103.509L17.6425 103.699C17.6425 103.699 17.6425 103.699 17.6425 103.699ZM13.7864 100.793L13.3192 100.847C13.3192 100.847 13.3192 100.847 13.3192 100.847C13.5765 100.817 13.7135 100.802 13.7863 100.793C13.7864 100.793 13.7864 100.793 13.7864 100.793Z" fill="#0F175F" stroke="#0F175F" stroke-width="2"/>
<path d="M24.9486 83.8693C24.9486 83.8693 24.9486 83.8693 24.9486 83.8693L25.1143 83.5176C25.0498 83.6545 24.9951 83.7707 24.9486 83.8693ZM28.1705 84.6902C28.1725 84.698 28.1745 84.7057 28.1764 84.7133C28.272 84.7328 28.3998 84.7497 28.5641 84.7536C28.5725 84.7525 28.5814 84.7513 28.5907 84.7501C28.6607 84.741 28.7582 84.7298 28.8772 84.7196C29.1135 84.6992 29.4426 84.6823 29.8135 84.6968C30.4985 84.7235 31.5315 84.863 32.3199 85.4905C32.329 85.4971 32.3395 85.5048 32.3512 85.5136C32.3863 85.5399 32.433 85.5759 32.4875 85.621C32.5955 85.7102 32.7407 85.8399 32.8909 86.0038C33.1667 86.3046 33.5765 86.8471 33.6394 87.558L33.6532 87.7138L33.6187 87.8663L32.6433 87.6461C33.6187 87.8663 33.6186 87.8671 33.6184 87.8678L33.6181 87.8693L33.6174 87.8723L33.6159 87.8785L33.6127 87.8916C33.6104 87.9005 33.6079 87.9101 33.6051 87.9201C33.5995 87.9401 33.5925 87.9626 33.584 87.9869C33.5673 88.035 33.5432 88.0941 33.5085 88.1588C33.4406 88.2856 33.3185 88.4586 33.1099 88.5957C33.0027 88.6662 32.8933 88.7154 32.7839 88.7474C32.9129 88.9067 33.0519 89.091 33.1846 89.2915C33.4014 89.6192 33.6349 90.0402 33.7553 90.4993C33.8767 90.9626 33.9089 91.5791 33.5472 92.1514L33.4067 92.3737L33.175 92.4981L32.7019 91.6171C33.175 92.4981 33.1745 92.4984 33.1739 92.4987L33.1727 92.4993L33.1703 92.5006L33.1652 92.5033L33.1542 92.509C33.1465 92.5129 33.138 92.5171 33.1288 92.5215C33.1104 92.5304 33.0889 92.5402 33.0644 92.5505C33.0156 92.5711 32.9539 92.594 32.8808 92.6151C32.7357 92.6568 32.536 92.6936 32.2994 92.6819C31.8727 92.6607 31.4277 92.4869 31.0363 92.1082C31.1063 92.9367 31.0218 93.8719 30.592 94.7878L30.5818 94.8095L30.5706 94.8306L29.6867 94.363C30.5706 94.8306 30.5705 94.8308 30.5704 94.831L30.5702 94.8314L30.5697 94.8324L30.5685 94.8346L30.5653 94.8407L30.5555 94.8587C30.5476 94.8732 30.5367 94.8928 30.5231 94.9167C30.496 94.9645 30.4576 95.0301 30.4092 95.1084C30.3133 95.2635 30.1735 95.4753 29.9988 95.6977C29.8264 95.9173 29.6047 96.167 29.3417 96.3848C29.0847 96.5976 28.7366 96.823 28.3118 96.9198L28.1477 96.9572L27.9805 96.9388L28.0897 95.9448C27.9805 96.9388 27.9797 96.9387 27.9788 96.9386L27.9771 96.9384L27.9737 96.938L27.9665 96.9372L27.9509 96.9351C27.94 96.9336 27.928 96.9318 27.915 96.9297C27.889 96.9253 27.8588 96.9195 27.8251 96.9116C27.758 96.8959 27.6751 96.8717 27.5825 96.8343C27.4075 96.7637 27.194 96.6441 26.9915 96.4448C26.7716 97.0312 26.4392 97.6398 25.9288 98.089L25.8909 98.1223L25.8499 98.1517L25.268 97.3384C25.8499 98.1517 25.8496 98.1519 25.8492 98.1522L25.8485 98.1527L25.8471 98.1537L25.8438 98.156L25.8361 98.1614L25.8159 98.1752C25.8005 98.1856 25.781 98.1984 25.7576 98.2131C25.7111 98.2424 25.6483 98.2797 25.5719 98.3198C25.4228 98.3981 25.203 98.4972 24.9382 98.5616C24.3922 98.6943 23.5516 98.6873 22.8883 97.9486L22.8071 97.8582L22.7499 97.751L23.6323 97.2805C22.7499 97.751 22.7496 97.7503 22.7492 97.7495L22.7484 97.7481L22.7468 97.7451L22.7436 97.7389L22.7366 97.7252C22.7318 97.7155 22.7265 97.7047 22.721 97.6929C22.7099 97.6692 22.6975 97.6412 22.6843 97.6088C22.679 97.5956 22.6735 97.5816 22.6679 97.567C22.5994 97.6547 22.5237 97.7452 22.4404 97.837C21.8758 98.4584 20.9678 99.1252 19.6009 99.385L19.5415 99.3962L19.4812 99.4003L19.4142 98.4025C19.4812 99.4003 19.4809 99.4003 19.4805 99.4003L19.4798 99.4004L19.4782 99.4005L19.4743 99.4007L19.4642 99.4013L19.4349 99.4028C19.4113 99.4039 19.3798 99.405 19.3414 99.4057C19.2648 99.4072 19.1594 99.4071 19.0336 99.4017C18.7859 99.3911 18.4394 99.3588 18.0685 99.2671C17.3731 99.0952 16.2773 98.6216 15.978 97.3545L15.9706 97.3234L15.9653 97.2919L16.9512 97.1247C15.9653 97.2919 15.9652 97.2912 15.9651 97.2906L15.9648 97.2893L15.9644 97.2866L15.9634 97.2806L15.9613 97.2668C15.9609 97.2643 15.9605 97.2616 15.9602 97.2589C15.959 97.2508 15.9578 97.2418 15.9565 97.2319C15.9532 97.2054 15.9496 97.1725 15.9464 97.1335C15.9401 97.0555 15.9354 96.953 15.9375 96.8289C15.9419 96.5807 15.9738 96.2461 16.0752 95.8499C16.1785 95.4465 16.3513 94.989 16.6304 94.5014C16.4146 94.5174 16.1391 94.4966 15.8633 94.357L15.792 94.3209L15.7273 94.2739L16.3151 93.4649C15.7273 94.2739 15.7266 94.2734 15.7259 94.2729L15.7245 94.2719L15.7216 94.2698L15.7154 94.2652L15.7016 94.2546C15.6917 94.247 15.6805 94.2382 15.6682 94.2282C15.6437 94.2081 15.6145 94.1829 15.5821 94.1525C15.5176 94.0921 15.4379 94.0087 15.3565 93.9013C15.1932 93.6861 15.0149 93.3635 14.9517 92.9365C14.8182 92.0339 15.2369 91.05 16.3216 90.0209L16.3794 89.966L16.4452 89.921L17.0099 90.7463C16.4452 89.921 16.4454 89.9208 16.4457 89.9207L16.4462 89.9203L16.4474 89.9195L16.4501 89.9177L16.4567 89.9132L16.4753 89.9009C16.4901 89.8912 16.5096 89.8786 16.5338 89.8634C16.5822 89.833 16.6494 89.7923 16.7353 89.7434C16.9069 89.6457 17.1532 89.5154 17.4724 89.3711C17.6858 89.2747 17.9319 89.1719 18.21 89.0684C18.079 89.0732 17.9261 89.0726 17.7658 89.0591C17.5352 89.0395 17.2019 88.9867 16.8889 88.8172C16.5388 88.6275 16.1853 88.2674 16.1149 87.7057L16.1141 87.6996L17.1071 87.5813C16.1141 87.6996 16.114 87.6984 16.1139 87.6972L16.1136 87.6947L16.113 87.6897L16.1119 87.6792L16.1099 87.6567C16.1087 87.641 16.1077 87.6239 16.107 87.6056C16.1058 87.5689 16.1059 87.5269 16.1087 87.4802C16.1142 87.3867 16.1303 87.2743 16.1664 87.1495C16.2406 86.8925 16.3911 86.6132 16.6551 86.3561C17.1521 85.872 17.964 85.5456 19.2102 85.424C19.1847 85.3832 19.1606 85.3403 19.1382 85.2952C18.8775 84.7697 18.9804 84.2219 19.2159 83.7782L19.2483 83.7172L19.2887 83.6612L20.0992 84.247C19.2887 83.6612 19.2892 83.6605 19.2898 83.6597L19.2908 83.6583L19.293 83.6554L19.2975 83.6492L19.3076 83.6358C19.3148 83.6265 19.3229 83.6162 19.3319 83.6052C19.3498 83.5831 19.3715 83.5579 19.3972 83.5301C19.4485 83.4747 19.5158 83.4092 19.601 83.3398C19.7723 83.2001 20.012 83.0476 20.331 82.9286C20.9795 82.6868 21.8712 82.6137 23.0559 82.936L23.0976 82.9473L23.1381 82.9622L22.7934 83.9009C23.1381 82.9622 23.1382 82.9622 23.1384 82.9623L23.1387 82.9624L23.1396 82.9627L23.1415 82.9635L23.147 82.9655L23.1637 82.9718C23.1774 82.977 23.196 82.9841 23.2193 82.9933C23.2658 83.0116 23.3309 83.0378 23.4115 83.0719C23.4661 83.095 23.528 83.1218 23.5961 83.1523C23.5926 83.1233 23.5901 83.0937 23.5887 83.0635C23.5596 82.4379 23.986 82.0604 24.2939 81.8888C24.8135 81.599 25.4236 81.6441 25.8669 81.7657C26.3484 81.8977 26.8582 82.1768 27.247 82.6237C27.6379 83.0731 27.8561 83.6262 27.9938 84.0595C28.0655 84.285 28.123 84.504 28.1705 84.6902ZM32.6271 86.8283C32.6271 86.8282 32.6265 86.8279 32.6253 86.8274C32.6265 86.828 32.6271 86.8283 32.6271 86.8283ZM31.5867 91.2277L30.9715 91.589C30.9715 91.5891 30.9715 91.5891 30.9715 91.5891L31.5867 91.2277ZM26.4947 89.7803L26.0575 89.9535C26.0575 89.9535 26.0575 89.9535 26.0575 89.9535C26.2983 89.8582 26.4265 89.8074 26.4947 89.7805C26.4947 89.7804 26.4947 89.7804 26.4947 89.7803ZM18.6734 88.906C18.6735 88.906 18.6735 88.906 18.6736 88.9059L18.5298 88.0366C18.6127 88.5382 18.6535 88.7848 18.6734 88.906ZM19.4178 86.4092C19.3965 86.0233 19.3835 85.7866 19.3755 85.6413C19.3755 85.6413 19.3755 85.6412 19.3754 85.6412L19.4178 86.4092ZM25.1717 83.6725C25.1717 83.6726 25.1729 83.6725 25.1753 83.6721C25.1728 83.6723 25.1716 83.6725 25.1717 83.6725Z" fill="#0F175F" stroke="#0F175F" stroke-width="2"/>
<path d="M39.1509 97.0061C37.1931 97.7917 35.3595 98.967 33.8537 100.296L33.7912 100.352L33.6534 100.476L33.5191 100.6L33.3884 100.723C33.3669 100.743 33.3456 100.764 33.3244 100.784L33.1994 100.906L33.0784 101.027L32.9617 101.146C32.9235 101.185 32.886 101.225 32.8493 101.263L32.7416 101.379L32.6385 101.493C32.605 101.53 32.5723 101.568 32.5404 101.604L32.4474 101.713L32.3597 101.819C32.3313 101.854 32.3039 101.889 32.2774 101.923L32.2008 102.023C32.0655 102.203 31.9595 102.366 31.8877 102.506L31.8645 102.553L31.7846 102.496C27.1436 99.2493 21.0066 100.339 17.5284 105.08L16.7653 106.12L16.5873 106.096C9.9819 105.198 3.63635 109.221 1.00941 115.965L0.0124225 118.524C-0.0334555 118.642 0.0534161 118.769 0.179812 118.769H89.8205C89.9469 118.769 90.0338 118.642 89.9879 118.524L88.8841 115.692L88.7957 115.47C85.8385 108.149 78.8887 103.801 71.6577 104.784L71.449 104.812L70.5977 103.652L70.479 103.493C66.5748 98.337 59.7794 97.2234 54.684 100.908L54.6578 100.927L54.7676 101.044C49.927 95.8464 44.5182 94.8525 39.1509 97.0061Z" fill="#0F175F"/>
<path d="M54.5046 101.289C54.5672 101.356 54.6702 101.365 54.7437 101.31C59.7453 97.5713 66.5015 98.6785 70.308 103.865L71.2226 105.111C71.2615 105.164 71.3264 105.191 71.3916 105.182L71.7061 105.14L71.92 105.112C78.9774 104.257 85.7311 108.592 88.5493 115.823L89.5577 118.41H0.442383L1.34413 116.095C3.9125 109.502 10.103 105.577 16.5388 106.452L16.8228 106.491C16.8881 106.5 16.9529 106.472 16.9919 106.419L17.818 105.293C21.2504 100.614 27.3418 99.6152 31.8516 102.988C31.9647 103.073 32.1236 103 32.1378 102.864L32.1388 102.844C32.1388 102.799 32.1634 102.731 32.2097 102.645L32.2402 102.59L32.2757 102.532C32.2821 102.522 32.2886 102.512 32.2954 102.502L32.3384 102.437C32.3459 102.426 32.3537 102.415 32.3617 102.404L32.4118 102.334L32.4665 102.261L32.5257 102.184C32.5359 102.171 32.5463 102.158 32.5569 102.144L32.657 102.022L32.7288 101.936L32.8046 101.849L32.8842 101.758L32.9676 101.666L33.0544 101.572L33.1448 101.476L33.2864 101.329L33.3848 101.23L33.4862 101.129L33.5904 101.028L33.6974 100.926L33.8069 100.823L33.919 100.72L34.0333 100.617C34.0526 100.6 34.0719 100.583 34.0914 100.566C35.5679 99.2623 37.3671 98.109 39.2846 97.3396C44.5188 95.2394 49.7691 96.2042 54.5046 101.289Z" fill="white"/>
<path d="M44.7031 91.1959C44.694 91.166 44.6767 91.1119 44.6507 91.0357C44.6081 90.9105 44.5563 90.7675 44.4951 90.6086C44.3211 90.1566 44.1062 89.6669 43.8481 89.1563C42.7582 86.9999 41.2792 85.17 39.356 84.0216C35.7077 81.843 31.0875 82.4995 25.4501 86.8188L25.8518 87.3441C31.2884 83.1786 35.6204 82.563 39.0155 84.5904C40.8149 85.6649 42.2186 87.4017 43.2571 89.4564C43.5048 89.9463 43.7108 90.4159 43.8772 90.8481C43.9352 90.9987 43.9841 91.1337 44.0239 91.2508C44.0475 91.3199 44.0626 91.3669 44.0695 91.3898L44.7031 91.1959Z" fill="#0F175F"/>
<path d="M33.5835 92.8046C38.2825 90.3514 43.0259 92.129 47.8913 98.2392L48.4534 97.7916C43.3953 91.4394 38.302 89.5307 33.251 92.1676L33.5835 92.8046Z" fill="white"/>
<path d="M32.4119 88.178L32.4851 88.2498C33.3537 89.1159 33.9225 90.1911 34.1893 91.467L34.2133 91.5856L34.2321 91.6042C34.5088 91.8625 35.0316 92.0209 35.811 92.0525L35.8388 92.0548C37.6531 92.2702 39.0978 92.9506 40.1568 94.097L40.1694 94.1114C41.1407 95.2824 41.6405 96.3732 41.6506 97.3892L41.651 97.4361L41.6395 97.4814C41.4812 98.103 40.9458 98.1792 40.3718 97.7934L40.2816 97.7327L40.2401 97.6321L40.2014 97.5394C39.6564 96.2522 38.9995 95.4213 38.2433 95.0318L38.2167 95.0184L38.1547 95.0024C38.0669 94.9811 37.9924 94.9692 37.9322 94.9661L37.9103 94.9653L37.9036 94.9653L38.3409 95.572L38.5823 95.9046L38.8145 96.2226L39.181 96.7203L39.4556 97.0892L39.7138 97.4322L39.8966 97.6724L40.0702 97.898C41.8486 100.194 42.376 102.027 41.5552 103.385L41.5076 103.463L41.428 103.509C40.6466 103.963 39.9127 103.633 39.3348 102.666L39.292 102.593L39.1657 102.29L39.0523 102.015L38.943 101.746L38.8377 101.484L38.7365 101.228L38.6394 100.978C38.6236 100.937 38.6079 100.897 38.5924 100.856L38.5014 100.616L38.4144 100.383C38.4003 100.345 38.3863 100.307 38.3725 100.269L38.2916 100.045L38.2148 99.8281L38.1421 99.6174L38.0734 99.4131C38.0623 99.3796 38.0513 99.3463 38.0406 99.3134L37.978 99.1187L37.9195 98.9305L37.865 98.7487L37.8468 98.6854L37.8193 98.6259C37.3279 97.5665 36.7159 96.9187 35.988 96.6582L35.9405 96.6418L35.9512 96.6447C35.7597 96.5937 35.6058 96.5613 35.4923 96.5474C35.4532 96.5426 35.4206 96.5402 35.3952 96.5399L35.3726 96.5401L35.3706 96.5398L35.3807 96.5351C35.2614 96.5814 35.1963 96.7692 35.215 96.9429C35.2157 96.9497 35.2201 96.9613 35.2282 96.9774L35.2434 97.0052C35.2464 97.0104 35.2496 97.0159 35.2531 97.0217L35.277 97.0598L35.3069 97.1048L35.3429 97.1567L35.4087 97.2472L35.4606 97.316L35.7491 97.6855L35.815 97.7714L35.8763 97.8528L35.9324 97.929C36.2075 98.3069 36.396 98.6352 36.5087 98.9731L36.5232 99.0185L36.5157 99.0013C37.9426 102.277 38.0145 105.324 36.7202 108.117C35.8284 109.849 34.8999 110.838 33.8893 111.07L33.8191 111.087L33.7481 111.074C32.8789 110.926 32.4651 110.201 32.4546 108.981L32.455 108.848C32.4596 108.534 32.4892 108.19 32.5431 107.816L32.5731 107.521L32.6154 107.089L32.6546 106.67L32.6906 106.263L32.7234 105.869L32.7532 105.487L32.7712 105.239L32.7957 104.878L32.8103 104.644L32.8295 104.304L32.8405 104.084L32.8502 103.87L32.8621 103.559L32.8682 103.359L32.873 103.164C32.8737 103.132 32.8743 103.1 32.8748 103.069L32.8775 102.883C32.8778 102.852 32.8781 102.822 32.8783 102.792L32.8788 102.614C32.8788 102.585 32.8787 102.556 32.8786 102.527L32.877 102.358L32.8741 102.194L32.8697 102.036L32.864 101.883L32.8568 101.737C32.8555 101.713 32.8541 101.689 32.8527 101.665L32.8447 101.58C32.6862 99.9762 32.1456 99.0726 31.2395 98.7977L31.2289 98.8023C30.9428 98.931 30.8945 99.2677 31.1377 99.9745L31.1454 99.9998L31.1852 100.152L31.262 100.452L31.3353 100.747C31.3592 100.845 31.3825 100.941 31.4052 101.038L31.4715 101.323C31.5146 101.512 31.5553 101.698 31.5938 101.881L31.6496 102.153C31.7939 102.872 31.9008 103.541 31.9702 104.16L31.9945 104.39C32.0845 105.3 32.0902 106.099 32.011 106.787C31.7483 109.886 30.9697 112.071 29.6498 113.325L29.6223 113.349C28.4645 114.246 27.4203 114.176 26.6822 113.114L26.6259 113.031L26.6113 112.992C26.3305 112.244 26.2846 111.2 26.4687 109.853L26.4965 109.658L26.5275 109.459C26.5329 109.426 26.5385 109.392 26.5442 109.358L26.5798 109.154L26.6186 108.945C26.6253 108.909 26.6322 108.874 26.6391 108.839L26.6826 108.623L26.7291 108.404C26.7452 108.33 26.7617 108.256 26.7788 108.18L26.8315 107.953C26.8406 107.914 26.8498 107.876 26.8591 107.837L26.9165 107.603C26.9361 107.525 26.9563 107.445 26.977 107.365L27.0405 107.123L27.1072 106.876C27.1186 106.835 27.1301 106.793 27.1417 106.751L27.213 106.499L27.3247 106.112C27.6032 105.115 27.6987 104.134 27.6123 103.166L27.6087 103.127L27.604 103.121C27.4102 102.843 27.2684 102.766 27.1606 102.801L27.1412 102.808C26.9706 102.877 26.7453 103.15 26.5019 103.635L26.476 103.687L26.4711 103.784L26.4528 104.118L26.4331 104.448C26.4297 104.502 26.4262 104.556 26.4227 104.61L26.4008 104.931L26.3774 105.246L26.3526 105.555C26.3483 105.606 26.344 105.657 26.3396 105.708L26.3126 106.009L26.2841 106.304C26.2695 106.451 26.2544 106.595 26.2387 106.737L26.2066 107.018C26.1956 107.111 26.1844 107.203 26.173 107.294L26.138 107.564L26.1014 107.829L26.0635 108.088L26.024 108.342L25.9831 108.589L25.9407 108.832C25.9335 108.872 25.9263 108.911 25.919 108.951L25.8744 109.185C25.8668 109.223 25.8592 109.262 25.8516 109.3L25.8048 109.525C25.7889 109.599 25.7728 109.673 25.7565 109.745L25.7067 109.959C25.6142 110.347 25.5142 110.707 25.4067 111.039C24.5899 113.195 22.9878 114.511 20.6341 114.976L20.5118 114.999L20.4861 115C18.1685 115.097 16.8102 114.164 16.5561 112.246L16.5541 112.226C16.3962 110.185 17.3493 108.071 19.3844 105.886L19.4704 105.802L19.5621 105.715L19.6588 105.626L19.8132 105.486L19.9224 105.39L20.0956 105.241L20.2173 105.138L20.344 105.033L20.4757 104.924L20.6125 104.813L20.827 104.642L21.0529 104.465L21.2098 104.343L21.4545 104.155L21.7107 103.962L21.9781 103.762L22.257 103.556L22.5473 103.344L22.849 103.126L23.1621 102.902L23.5973 102.593L24.0529 102.274L24.4588 101.992L24.4662 101.978C24.6244 101.671 24.558 101.512 24.1568 101.393L24.0825 101.373C24.0436 101.363 24.002 101.353 23.9577 101.344L23.9186 101.335L23.8584 101.342C23.1549 101.428 22.3352 101.851 21.4079 102.619L21.2643 102.74C21.0478 102.926 20.8255 103.129 20.5977 103.351L20.4449 103.502C20.3682 103.579 20.2908 103.658 20.2127 103.739L20.0774 103.873L19.9442 104.003L19.813 104.129L19.684 104.251L19.557 104.369L19.4321 104.483L19.3092 104.594L19.1884 104.7L19.0696 104.802L18.9528 104.901L18.838 104.995C18.8191 105.011 18.8002 105.026 18.7814 105.041L18.6696 105.129L18.5597 105.214L18.4519 105.294C18.4162 105.32 18.3809 105.346 18.3459 105.37L18.2419 105.443C18.2076 105.466 18.1735 105.489 18.1398 105.511L18.0397 105.575L17.9414 105.636C17.9252 105.645 17.909 105.655 17.893 105.664L17.7975 105.718C17.1359 106.082 16.6116 106.145 16.2057 105.892L16.1507 105.856L16.128 105.834C14.8577 104.614 15.2329 102.928 17.1027 100.87L17.2241 100.738L17.3495 100.605C17.3707 100.583 17.3921 100.561 17.4137 100.538L17.4989 100.451L17.5218 100.434C18.8177 99.4736 20.6425 98.7519 22.9967 98.2611L23.1162 98.2395C24.6206 97.9595 25.7695 97.4733 26.5767 96.7859L26.6074 96.7593L26.6187 96.7421C26.8203 96.4295 26.7834 96.2195 26.4161 96.0358L26.3518 96.0054L26.2813 95.9754C26.269 95.9705 26.2565 95.9655 26.2437 95.9606L26.1636 95.9311L26.0772 95.9018C26.0622 95.8969 26.047 95.892 26.0315 95.8872L25.9352 95.8581L25.9009 95.8482L25.9171 95.8512C24.455 95.577 22.6231 95.7183 20.4244 96.2818L20.391 96.2887C18.8493 96.5312 17.9321 96.1352 17.8879 95.0466C17.8526 94.0502 18.5112 93.3818 19.7998 93.0125L19.9265 92.9777C19.9479 92.972 19.9695 92.9664 19.9913 92.9609L20.1238 92.9289L20.2603 92.8988C20.3756 92.8744 20.495 92.852 20.6183 92.8314L20.7683 92.8077L20.9222 92.7858C20.9741 92.7788 21.0267 92.7721 21.0799 92.7657L21.2413 92.7474L21.4066 92.731L21.5757 92.7163L21.7486 92.7035C21.7777 92.7015 21.807 92.6996 21.8364 92.6977L21.9573 92.6952C23.6926 92.6693 25.568 93.1077 27.5943 94.0053L27.7079 94.0558L27.7376 94.0636C28.687 94.303 29.1861 94.1211 29.3854 93.516L29.3999 93.4698L29.398 93.4605C29.2651 92.829 28.5764 92.3001 27.2663 91.9031C27.1429 91.8666 27.0037 91.8324 26.8487 91.8007L26.712 91.7742L26.5677 91.7488L26.4156 91.7247L26.2559 91.7018L26.0886 91.6802L25.9137 91.6598L25.7311 91.6407L25.541 91.6228C25.5087 91.6199 25.476 91.6171 25.4431 91.6144L25.2416 91.5984L25.0326 91.5837L24.816 91.5704L24.592 91.5583C22.7551 91.4316 22.0694 90.5312 22.7895 89.0883L22.8245 89.0197L22.837 89.0014C23.673 87.7797 25.2095 87.6045 27.3527 88.4008L27.386 88.4151C28.7384 89.0797 29.9717 90.0161 31.0848 91.2224L31.1503 91.2955L31.2035 91.3521L31.2332 91.3809C31.307 91.4482 31.3395 91.4406 31.3859 91.3678L31.4138 91.3201L31.4351 91.2808C31.5424 91.0809 31.5047 90.8201 31.3517 90.5306C31.311 90.4537 31.2656 90.3818 31.2196 90.3178L31.1771 90.2613L31.1651 90.2467L31.1431 90.2212L31.1254 90.1909L31.1004 90.1573C31.064 90.1103 31.0146 90.0547 30.9505 89.9918C30.7568 89.8016 30.4853 89.5982 30.123 89.3922C29.8683 89.2475 29.5787 89.1076 29.2518 88.9745L29.1108 88.9183L29.0828 88.9008C27.976 88.211 27.7817 87.3935 28.7177 86.7841L28.7924 86.7354L28.8813 86.7274C29.9569 86.6298 31.1257 87.116 32.3909 88.1593L32.4119 88.178Z" fill="#0F175F"/>
<path d="M32.1632 88.4365C30.9644 87.4479 29.8815 86.9975 28.9146 87.0852C28.2413 87.5235 28.361 88.0271 29.2737 88.5959C29.373 88.6349 29.4681 88.6741 29.5591 88.7133L29.6924 88.7721L29.8197 88.8308C29.8612 88.8503 29.9016 88.8698 29.9411 88.8893L30.0567 88.9475L30.1665 89.0053L30.2708 89.0626L30.3697 89.1192L30.4632 89.1752L30.5516 89.2302C30.5802 89.2484 30.6079 89.2665 30.6349 89.2843L30.7132 89.3374L30.7867 89.3892L30.8555 89.4398L30.9198 89.489L30.9796 89.5366L31.0351 89.5827L31.0864 89.627L31.1336 89.6695L31.1769 89.71L31.2164 89.7485L31.2686 89.8021L31.313 89.8505L31.3606 89.9063L31.3882 89.941L31.4279 89.9961L31.4386 90.0127L31.4714 90.0534L31.4912 90.0794L31.5144 90.1112L31.5404 90.1484L31.5687 90.1906L31.5985 90.2376C31.6035 90.2458 31.6087 90.2542 31.6138 90.2628L31.6448 90.3163C31.65 90.3255 31.6552 90.3349 31.6604 90.3445L31.6913 90.4038C31.8338 90.6888 31.9478 91.0869 31.7525 91.4507C31.5154 91.8925 31.2051 91.8976 30.8216 91.466C29.7379 90.2916 28.5401 89.3821 27.2284 88.7376C25.222 87.9921 23.8574 88.1477 23.1343 89.2043C22.5048 90.423 22.9969 91.0881 24.6108 91.1994L24.8398 91.2118C24.8773 91.2139 24.9145 91.2162 24.9514 91.2185L25.1691 91.2328L25.3792 91.2486L25.5818 91.2656C25.615 91.2686 25.6478 91.2716 25.6803 91.2747L25.8717 91.2938C26.0592 91.3136 26.2355 91.3354 26.4005 91.3592L26.5618 91.3838C26.8768 91.4342 27.1466 91.4927 27.3714 91.5593C28.8534 92.0084 29.6523 92.6511 29.768 93.4875C29.5368 94.4168 28.8105 94.7196 27.5889 94.396C25.5074 93.4554 23.5977 93.0088 21.8598 93.0563L21.6849 93.0683L21.5143 93.082L21.3481 93.0975C21.3208 93.1002 21.2936 93.103 21.2666 93.1059L21.1069 93.124L20.9516 93.1439C20.8239 93.1612 20.7008 93.1804 20.5822 93.2013L20.442 93.2274C20.373 93.2408 20.3056 93.255 20.2398 93.2697L20.1105 93.3002C18.8389 93.6135 18.2179 94.1908 18.2478 95.032C18.2786 95.7917 18.8856 96.1044 20.0687 95.9701L20.2001 95.9537C20.2446 95.9476 20.2899 95.941 20.336 95.9337C22.5816 95.3582 24.4643 95.213 25.9841 95.4981C27.0682 95.8045 27.3664 96.3052 26.8786 97.0003C25.993 97.7835 24.7238 98.321 23.0708 98.6128C20.7636 99.0938 18.9855 99.797 17.7366 100.723L17.6724 100.789L17.5472 100.919C17.5267 100.941 17.5064 100.963 17.4862 100.984L17.3674 101.113L17.2527 101.241C17.2152 101.284 17.1784 101.326 17.1423 101.368L17.036 101.493L16.934 101.617C16.9007 101.658 16.8681 101.698 16.8362 101.739L16.7426 101.86C16.6359 102.001 16.5377 102.139 16.4482 102.274L16.3735 102.39C15.5394 103.709 15.5408 104.771 16.3777 105.575C16.6691 105.77 17.1071 105.7 17.6917 105.364L17.7852 105.308C17.801 105.299 17.8169 105.289 17.8329 105.279L17.9301 105.217L18.0297 105.151C18.0801 105.117 18.1314 105.081 18.1837 105.043L18.2894 104.966L18.3975 104.884L18.5081 104.798L18.6211 104.707C18.6592 104.676 18.6977 104.645 18.7366 104.612L18.8545 104.513L18.9748 104.409L19.0976 104.301L19.2228 104.188C19.2439 104.169 19.265 104.15 19.2863 104.13L19.4152 104.011L19.5465 103.887L19.6802 103.759L19.8164 103.626L19.955 103.489C21.4929 101.895 22.8213 101.056 23.94 100.973C24.859 101.153 25.123 101.575 24.7322 102.24L24.2668 102.563L23.9306 102.799L23.395 103.178L22.9886 103.469L22.602 103.75L22.3249 103.953L22.0589 104.15L21.7214 104.404L21.4037 104.647L21.1783 104.823L21.0342 104.936L20.8272 105.102L20.6314 105.261L20.507 105.364L20.3295 105.513L20.1632 105.657L20.0585 105.749L19.9587 105.838L19.8638 105.925L19.7738 106.01L19.6888 106.091C19.675 106.104 19.6615 106.118 19.6481 106.131C17.6757 108.248 16.7641 110.271 16.9131 112.199C17.1406 113.916 18.3269 114.73 20.4721 114.641C22.7577 114.216 24.2889 112.978 25.0657 110.928C25.171 110.603 25.2691 110.25 25.3599 109.869L25.4088 109.658C25.4168 109.622 25.4248 109.586 25.4327 109.55L25.4794 109.331C25.4947 109.257 25.5098 109.182 25.5246 109.106L25.5685 108.875L25.6109 108.639C25.6178 108.599 25.6247 108.559 25.6315 108.519L25.6718 108.274C25.6982 108.109 25.7236 107.941 25.7481 107.768L25.784 107.507C25.7899 107.463 25.7957 107.418 25.8015 107.374L25.8353 107.104L25.8677 106.828C25.873 106.782 25.8782 106.735 25.8834 106.689L25.9137 106.405L25.9425 106.115L25.9699 105.82L25.9959 105.519L26.0204 105.213L26.0436 104.901L26.0652 104.583L26.0855 104.26L26.1043 103.931C26.1104 103.82 26.1162 103.709 26.1217 103.597L26.1747 103.488L26.2275 103.384C26.2539 103.334 26.2803 103.286 26.3067 103.239L26.3594 103.149C26.412 103.062 26.4646 102.982 26.517 102.911L26.5694 102.842C27.0408 102.247 27.5037 102.301 27.9582 103.002C28.0698 104.058 27.9739 105.128 27.6704 106.212L27.5593 106.597C27.5472 106.639 27.5353 106.681 27.5236 106.723L27.4545 106.971L27.3886 107.215C27.3778 107.256 27.3672 107.296 27.3567 107.336L27.2954 107.573L27.2372 107.807L27.1821 108.036L27.13 108.261L27.0811 108.481L27.0353 108.697C27.0279 108.733 27.0206 108.768 27.0135 108.804L26.9723 109.013L26.9342 109.219L26.8992 109.42L26.8673 109.617C26.6446 111.045 26.6717 112.128 26.9485 112.866C27.5647 113.789 28.3829 113.855 29.4031 113.065C30.6473 111.883 31.3979 109.776 31.6549 106.746C31.8082 105.414 31.6301 103.631 31.1205 101.396L31.055 101.114C31.0439 101.067 31.0325 101.02 31.021 100.972L30.9504 100.683C30.9384 100.635 30.9262 100.586 30.9138 100.537L30.8381 100.241C30.8251 100.191 30.8121 100.141 30.7989 100.091C30.4723 99.1424 30.616 98.5861 31.2301 98.4226C32.3859 98.7087 33.0465 99.7824 33.2122 101.644L33.2202 101.79C33.2214 101.815 33.2226 101.84 33.2237 101.865L33.2295 102.02C33.2304 102.047 33.2312 102.073 33.2319 102.1L33.2357 102.263L33.238 102.432L33.2389 102.607L33.2376 102.879L33.235 103.068L33.2309 103.262L33.2254 103.462L33.2185 103.667L33.2102 103.878L33.2005 104.095L33.1893 104.317L33.1767 104.545L33.1627 104.778L33.1473 105.017L33.1215 105.387L33.0925 105.768L33.0714 106.03L33.0371 106.433L32.9995 106.848L32.9728 107.132L32.9299 107.569L32.8996 107.867C32.8607 108.137 32.8349 108.388 32.8223 108.62L32.8164 108.757C32.7776 109.946 33.1086 110.6 33.8096 110.72C34.6919 110.517 35.5537 109.599 36.395 107.966C37.6441 105.27 37.5748 102.33 36.1871 99.1448C36.0625 98.7325 35.7958 98.339 35.5337 97.994L35.4295 97.8586L35.2058 97.5728L35.1106 97.4477L35.0532 97.3688C34.944 97.2148 34.8696 97.0837 34.8586 96.9813C34.839 96.7993 34.874 96.3466 35.2517 96.2001C35.3361 96.1674 35.4989 96.1757 35.7401 96.2249L35.8343 96.2452C35.8506 96.2489 35.8672 96.2528 35.8841 96.2569L35.9892 96.283C36.0074 96.2877 36.0258 96.2925 36.0446 96.2975C36.9237 96.5858 37.6373 97.3403 38.1854 98.561L38.2371 98.7368L38.2928 98.9192L38.3525 99.108C38.3731 99.172 38.3944 99.2371 38.4164 99.3033L38.4842 99.5052L38.5562 99.7135C38.5685 99.7487 38.581 99.7843 38.5937 99.8201L38.6717 100.038L38.7538 100.263L38.8399 100.494C38.8546 100.533 38.8695 100.572 38.8845 100.612L38.9767 100.852L39.073 101.1L39.1734 101.353L39.2778 101.614L39.3862 101.88L39.4988 102.154L39.6153 102.433C40.1095 103.288 40.654 103.544 41.2486 103.199C41.8288 102.239 41.6296 100.959 40.6511 99.3584L40.5586 99.2097C40.448 99.0352 40.3285 98.8569 40.1998 98.6749L40.0874 98.5181C40.0109 98.4129 39.9315 98.3064 39.8492 98.1988L39.6124 97.8911L39.3655 97.5661L39.0338 97.1235L38.8224 96.8385L38.4496 96.3311L38.1329 95.896L37.7997 95.4351L37.5391 95.0724C37.4645 94.6365 37.7336 94.5062 38.3466 94.6814C39.2349 95.1115 39.9771 96.0495 40.5731 97.4952C40.9676 97.7603 41.2072 97.7262 41.2921 97.3928C41.283 96.4711 40.8169 95.4537 39.8937 94.3408C38.8957 93.2603 37.5302 92.6173 35.7972 92.4115C34.8474 92.3729 34.2081 92.1529 33.8793 91.7513C33.6404 90.415 33.0683 89.31 32.1632 88.4365Z" fill="white"/>
<path fill-rule="evenodd" clip-rule="evenodd" d="M107.425 124.85H132.575L134.371 145.15H105.629L107.425 124.85Z" fill="#637CED"/>
<path fill-rule="evenodd" clip-rule="evenodd" d="M103.653 143.353H136.348C139.324 143.353 141.737 145.766 141.737 148.742H98.2637C98.2637 145.766 100.677 143.353 103.653 143.353Z" fill="#0F175F"/>
<path fill-rule="evenodd" clip-rule="evenodd" d="M61.0777 28.0239H179.102C182.078 28.0239 184.491 30.4368 184.491 33.4131V123.952C184.491 126.928 182.078 129.341 179.102 129.341H61.0777C58.1013 129.341 55.6885 126.928 55.6885 123.952V33.4131C55.6885 30.4368 58.1013 28.0239 61.0777 28.0239Z" fill="#637CED"/>
<path fill-rule="evenodd" clip-rule="evenodd" d="M61.0781 33.4131H179.098V111.377H61.0781V33.4131Z" fill="white"/>
<path fill-rule="evenodd" clip-rule="evenodd" d="M101.934 93.4691C101.854 94.4524 101.03 95.2096 100.04 95.2096C99.0197 95.2096 98.1406 94.4945 97.9364 93.4987L94.031 74.4602C93.7655 73.1657 94.1798 71.8255 95.1304 70.9043L111.018 55.509V73.7118L104.744 76.562C103.827 76.9784 103.209 77.8566 103.127 78.8571L101.934 93.4691Z" fill="#0F175F"/>
<path fill-rule="evenodd" clip-rule="evenodd" d="M138.066 93.4691L136.873 78.8571C136.792 77.8566 136.173 76.9784 135.256 76.562L128.982 73.7118V55.509L144.87 70.9043C145.821 71.8255 146.235 73.1657 145.969 74.4602L142.064 93.4987C141.86 94.4945 140.981 95.2096 139.961 95.2096C138.971 95.2096 138.147 94.4524 138.066 93.4691Z" fill="#0F175F"/>
<path fill-rule="evenodd" clip-rule="evenodd" d="M103.652 37.1254C103.652 13.74 118.011 0 120.179 0C122.347 0 136.706 13.74 136.706 37.1254C136.706 52.7157 133.94 67.9453 128.408 82.8144H111.95C106.418 67.9453 103.652 52.7157 103.652 37.1254Z" fill="#637CED"/>
<path fill-rule="evenodd" clip-rule="evenodd" d="M111.916 82.8145H128.443L127.826 86.4859C127.781 86.7515 127.55 86.9462 127.278 86.9462H113.081C112.809 86.9462 112.578 86.7515 112.533 86.4859L111.916 82.8145Z" fill="#0F175F"/>
<path fill-rule="evenodd" clip-rule="evenodd" d="M106.168 20.4268C107.054 17.6719 108.108 15.1695 109.237 12.9341C112.67 13.7343 116.295 14.161 120.113 14.2141C124.053 14.269 127.694 13.8735 131.036 13.0277C132.127 15.2013 133.148 17.6255 134.012 20.2871C129.889 21.7324 125.256 22.455 120.113 22.455C115.138 22.455 110.49 21.779 106.168 20.4268L106.168 20.4268Z" fill="#0F175F"/>
<path fill-rule="evenodd" clip-rule="evenodd" d="M120 59.8203C120.694 59.8203 121.257 60.3773 121.257 61.0645V93.9654C121.257 94.6525 120.694 95.2095 120 95.2095C119.305 95.2095 118.742 94.6525 118.742 93.9654V61.0645C118.742 60.3773 119.305 59.8203 120 59.8203Z" fill="#0F175F"/>
<circle cx="120.089" cy="37.8143" r="8.89222" fill="#0F175F"/>
<circle cx="120" cy="37.9041" r="7.18563" fill="#F2FBFF"/>
<path fill-rule="evenodd" clip-rule="evenodd" d="M55.6885 116.766H184.491V123.952C184.491 126.928 182.078 129.341 179.102 129.341H61.0777C58.1013 129.341 55.6885 126.928 55.6885 123.952V116.766Z" fill="#0F175F"/>
<path d="M65.2091 20.6587H35.748C33.6646 20.6587 31.9756 22.3477 31.9756 24.4311V40.0599C31.9756 42.1434 33.6646 43.8323 35.748 43.8323H65.2091C67.2926 43.8323 68.9816 42.1434 68.9816 40.0599V24.4311C68.9816 22.3477 67.2926 20.6587 65.2091 20.6587Z" fill="#0F175F"/>
<path d="M35.7481 21.0181H65.2092C67.0943 21.0181 68.6224 22.5462 68.6224 24.4312V40.06C68.6224 41.945 67.0943 43.4732 65.2092 43.4732H35.7481C33.8631 43.4732 32.335 41.945 32.335 40.06V24.4312C32.335 22.5462 33.8631 21.0181 35.7481 21.0181Z" fill="white"/>
<circle cx="39.6102" cy="32.4252" r="4.22156" fill="#5BC587"/>
<rect x="45.9893" y="28.563" width="8.44311" height="0.538922" rx="0.269461" fill="#0F175F"/>
<path fill-rule="evenodd" clip-rule="evenodd" d="M45.9893 32.2455C45.9893 32.0967 46.1099 31.9761 46.2587 31.9761H64.2228C64.3716 31.9761 64.4923 32.0967 64.4923 32.2455C64.4923 32.3944 64.3716 32.515 64.2228 32.515H57.8035H46.2587C46.1099 32.515 45.9893 32.3944 45.9893 32.2455Z" fill="#0F175F"/>
<path fill-rule="evenodd" clip-rule="evenodd" d="M45.9893 35.6589C45.9893 35.51 46.1099 35.3894 46.2587 35.3894H64.2228C64.3716 35.3894 64.4923 35.51 64.4923 35.6589C64.4923 35.8077 64.3716 35.9283 64.2228 35.9283H57.8035H46.2587C46.1099 35.9283 45.9893 35.8077 45.9893 35.6589Z" fill="#0F175F"/>
<path d="M208.742 20.6587H179.281C177.198 20.6587 175.509 22.3477 175.509 24.4311V40.0599C175.509 42.1434 177.198 43.8323 179.281 43.8323H208.742C210.826 43.8323 212.515 42.1434 212.515 40.0599V24.4311C212.515 22.3477 210.826 20.6587 208.742 20.6587Z" fill="#0F175F"/>
<path d="M179.281 21.0181H208.742C210.627 21.0181 212.156 22.5462 212.156 24.4312V40.06C212.156 41.945 210.627 43.4732 208.742 43.4732H179.281C177.396 43.4732 175.868 41.945 175.868 40.06V24.4312C175.868 22.5462 177.396 21.0181 179.281 21.0181Z" fill="white"/>
<circle cx="183.143" cy="32.4252" r="4.22156" fill="#EC539C"/>
<rect x="189.522" y="28.563" width="8.44311" height="0.538922" rx="0.269461" fill="#0F175F"/>
<path fill-rule="evenodd" clip-rule="evenodd" d="M189.522 32.2455C189.522 32.0967 189.643 31.9761 189.792 31.9761H207.756C207.905 31.9761 208.025 32.0967 208.025 32.2455C208.025 32.3944 207.905 32.515 207.756 32.515H201.337H189.792C189.643 32.515 189.522 32.3944 189.522 32.2455Z" fill="#0F175F"/>
<path fill-rule="evenodd" clip-rule="evenodd" d="M189.522 35.6589C189.522 35.51 189.643 35.3894 189.792 35.3894H207.756C207.905 35.3894 208.025 35.51 208.025 35.6589C208.025 35.8077 207.905 35.9283 207.756 35.9283H201.337H189.792C189.643 35.9283 189.522 35.8077 189.522 35.6589Z" fill="#0F175F"/>
<circle cx="171.288" cy="12.3054" r="8.53293" fill="#5BC587"/>
<path d="M167.95 11.8467C167.479 11.5293 166.84 11.6538 166.523 12.1246C166.206 12.5954 166.33 13.2344 166.801 13.5518L170.154 15.8125C170.589 16.106 171.176 16.0241 171.514 15.6225L175.986 10.3135C176.352 9.87927 176.296 9.23067 175.862 8.86477C175.428 8.49886 174.78 8.55421 174.414 8.9884L170.537 13.5913L167.95 11.8467Z" fill="white"/>
<path fill-rule="evenodd" clip-rule="evenodd" d="M203.604 59.1018L200.996 59.6976L200.761 62.0925L199.489 62.4203L199.089 65.03H204.478L204.513 62.495L203.168 62.2189L203.604 59.1018Z" fill="#FFB5B9"/>
<path fill-rule="evenodd" clip-rule="evenodd" d="M200.839 61.4371C200.839 61.4371 202.028 61.0736 202.482 60.6805C202.935 60.2873 203.533 59.1018 203.533 59.1018L200.935 60.5L200.839 61.4371Z" fill="#FF9595"/>
<path fill-rule="evenodd" clip-rule="evenodd" d="M200.836 53.7126C199.4 53.7126 199.589 55.0065 199.589 56.4828V58.1922C199.589 59.6686 200.863 60.9618 201.043 60.9618C201.222 60.9618 203.893 59.6272 203.893 58.842C203.893 58.0567 204.271 56.2183 204.271 56.2183C204.271 56.2183 202.272 53.7126 200.836 53.7126Z" fill="#FFB5B9"/>
<path fill-rule="evenodd" clip-rule="evenodd" d="M201.188 53.3596C198.893 52.8746 199.059 54.5227 199.581 55.3614C200.103 56.2002 201.826 55.8355 203.083 56.3909C203.359 57.4939 203.607 57.5057 203.749 57.5057C203.754 57.5057 203.761 57.5068 203.769 57.5091C203.747 57.7865 203.859 58.0749 204.089 58.2645C203.996 58.3896 203.965 58.5454 203.99 58.6935C203.832 58.914 203.59 59.2184 203.265 59.6069C203.647 59.4214 203.956 59.2359 204.193 59.0505C204.194 59.0515 204.196 59.0525 204.197 59.0535C204.4 59.2217 204.677 59.2187 204.863 59.0621C204.949 59.0821 205.051 59.0833 205.167 59.0656C205.112 59.2583 205.149 59.451 205.26 59.5776C205.181 59.6591 205.115 59.7561 205.064 59.8658C204.874 60.279 204.985 60.7273 205.309 60.912C205.301 61.0034 205.306 61.0958 205.325 61.1864C205.312 61.4019 205.413 61.5965 205.601 61.6719C205.613 61.6769 205.626 61.6813 205.638 61.6851C205.691 61.7232 205.749 61.7539 205.81 61.7766C205.676 61.9457 205.622 62.1784 205.685 62.3888C205.756 62.6224 205.953 62.762 206.171 62.7604C206.162 62.8779 206.173 62.9971 206.208 63.1119C206.349 63.5773 206.822 63.7941 207.265 63.596C207.359 63.9063 207.674 64.0508 207.97 63.9187C208.054 63.8811 208.127 63.8251 208.187 63.7571C208.289 63.7223 208.386 63.6682 208.474 63.5987C208.548 63.7308 208.679 63.8171 208.841 63.8205C209.042 63.8248 209.238 63.6991 209.354 63.5123C209.531 63.8711 209.953 63.9834 210.334 63.7584C210.554 63.6283 210.715 63.4121 210.792 63.175C210.932 63.2787 211.13 63.2878 211.314 63.1794C211.517 63.059 211.645 62.8281 211.653 62.6028C211.753 62.5887 211.856 62.5528 211.956 62.4937C212.362 62.2538 212.568 61.7217 212.415 61.305C212.685 61.1451 212.822 60.7903 212.72 60.5126C212.688 60.4245 212.635 60.3548 212.57 60.3057C212.554 60.1905 212.502 60.0811 212.423 59.9945C212.496 59.9234 212.557 59.836 212.599 59.7344C212.768 59.3304 212.587 58.8508 212.196 58.6501C212.197 58.6228 212.197 58.5951 212.196 58.5672C212.261 58.3185 212.145 58.0457 211.913 57.9209C212.052 57.8168 212.137 57.6436 212.124 57.4511C212.11 57.2225 211.962 57.0319 211.764 56.9567C211.797 56.8575 211.812 56.7495 211.805 56.6372C211.778 56.2138 211.446 55.8774 211.046 55.8463C211.007 55.7661 210.955 55.6899 210.892 55.6205C210.796 55.4329 210.601 55.3075 210.385 55.3162C210.371 55.3168 210.357 55.3179 210.343 55.3197C210.273 55.3079 210.203 55.3043 210.133 55.3087C210.175 55.1137 210.11 54.8957 209.944 54.7423C209.759 54.5719 209.502 54.5297 209.294 54.6158C209.244 54.5127 209.173 54.4162 209.083 54.3324C208.714 53.9931 208.155 53.9928 207.833 54.3319C207.588 54.1057 207.215 54.1055 207.001 54.3315C206.94 54.3959 206.898 54.4718 206.875 54.5525C206.796 54.6214 206.73 54.7049 206.682 54.7978C206.545 54.7144 206.377 54.6921 206.222 54.7518C206.056 54.8152 205.943 54.9567 205.903 55.1225C205.85 55.1259 205.797 55.1296 205.745 55.1337C205.491 55.0277 205.205 55.0611 204.99 55.2231C204.286 54.3092 203.103 53.7641 201.188 53.3596ZM211.418 60.2138C211.401 60.2127 211.383 60.2118 211.365 60.211C211.367 60.1958 211.369 60.1807 211.37 60.1657C211.386 60.1823 211.402 60.1983 211.418 60.2138Z" fill="#0F175F"/>
<path d="M202.196 56.6909C201.965 56.3845 201.685 56.3845 201.456 56.6914C201.415 56.7471 201.426 56.8258 201.482 56.8674C201.537 56.9089 201.616 56.8974 201.658 56.8418C201.786 56.6696 201.865 56.6696 201.996 56.8423C202.037 56.8977 202.116 56.9088 202.172 56.867C202.227 56.8252 202.238 56.7463 202.196 56.6909Z" fill="#021768"/>
<path d="M200.399 56.6909C200.168 56.3845 199.888 56.3845 199.659 56.6914C199.618 56.7471 199.629 56.8258 199.685 56.8674C199.741 56.9089 199.819 56.8974 199.861 56.8418C199.989 56.6696 200.068 56.6696 200.199 56.8423C200.24 56.8977 200.319 56.9088 200.375 56.867C200.43 56.8252 200.441 56.7463 200.399 56.6909Z" fill="#021768"/>
<path d="M201.273 59.441C201.131 59.7966 200.861 59.8692 200.558 59.6331C200.476 59.5692 200.503 59.4394 200.603 59.4125L201.124 59.273C201.224 59.2462 201.311 59.3449 201.273 59.441Z" fill="#FF9595"/>
<circle cx="0.179641" cy="0.179641" r="0.179641" transform="matrix(-1 0 0 1 201.916 57.4851)" fill="#021768"/>
<circle cx="0.179641" cy="0.179641" r="0.179641" transform="matrix(-1 0 0 1 200.12 57.4851)" fill="#021768"/>
<path fill-rule="evenodd" clip-rule="evenodd" d="M200.839 57.3054V58.8409C200.839 58.8409 200.007 59.0852 200.138 58.5951C200.269 58.105 200.839 57.3054 200.839 57.3054Z" fill="#FF9595"/>
<path fill-rule="evenodd" clip-rule="evenodd" d="M203.237 59.0939C203.844 59.2506 204.503 59.0199 204.709 58.5786C204.914 58.1372 204.589 57.6524 203.982 57.4957C203.374 57.3389 202.63 58.9372 203.237 59.0939Z" fill="#FFB5B9"/>
<path d="M204.303 58.353C204.16 57.8143 203.843 57.7473 203.538 58.2014C203.5 58.2591 203.515 58.3372 203.573 58.3759C203.631 58.4146 203.709 58.3992 203.747 58.3415L203.78 58.2944L203.809 58.2538L203.836 58.2199C203.92 58.1181 203.964 58.1284 204.014 58.2629L204.029 58.307L204.044 58.3586L204.06 58.4178C204.078 58.4849 204.147 58.5248 204.214 58.5069C204.281 58.489 204.321 58.4201 204.303 58.353Z" fill="#F97A80"/>
<path fill-rule="evenodd" clip-rule="evenodd" d="M199.317 108.477L208.953 145.509H212.335L210.257 123.277L210.96 98.443H204.521L191.35 98.0837C188.016 109.481 186.122 116.941 185.666 120.462C185.211 123.984 186.348 132.333 189.078 145.509H192.477L192.141 122.315L199.317 108.477Z" fill="#FFB5B9"/>
<path fill-rule="evenodd" clip-rule="evenodd" d="M210.257 123.277L210.96 98.443H204.521L191.35 98.0837C188.017 109.481 186.122 116.941 185.666 120.462C185.211 123.984 210.257 123.277 210.257 123.277Z" fill="#637CED"/>
<path fill-rule="evenodd" clip-rule="evenodd" d="M208.972 145.329C208.648 146.276 208.444 146.776 208.358 146.827C206.362 148.019 205.486 147.7 204.97 148.743C205.602 148.743 207.41 148.743 210.391 148.743C210.565 148.743 210.742 148.743 210.923 148.743C211.093 148.743 211.267 148.743 211.445 148.743C211.636 148.743 211.933 148.743 212.335 148.743V145.329H208.972Z" fill="#0F175F"/>
<path fill-rule="evenodd" clip-rule="evenodd" d="M189.032 145.329C188.708 146.276 188.503 146.776 188.417 146.827C186.421 148.019 185.546 147.7 185.029 148.743C185.662 148.743 187.469 148.743 190.451 148.743C190.624 148.743 190.801 148.743 190.983 148.743C191.153 148.743 191.327 148.743 191.504 148.743C191.696 148.743 191.993 148.743 192.395 148.743V145.329H189.032Z" fill="#0F175F"/>
<path fill-rule="evenodd" clip-rule="evenodd" d="M179.785 65.3844C189.28 69.8783 195.033 71.7751 197.044 71.0747C199.054 70.3743 199.252 63.01 198.405 62.926C192.081 62.2994 187.08 61.6101 183.404 60.8582C179.368 56.198 175.018 48.2726 175.018 48.2726C175.127 47.9155 175.153 47.5891 175.096 47.2935C174.973 46.6658 174.819 46.1196 174.686 46.0334C174.203 45.7192 174.416 47.5021 174.172 47.3468C173.732 47.0666 172.1 44.6003 171.721 44.8362C171.634 44.89 171.872 45.4565 172.434 46.5358C172.096 46.9199 171.888 47.1903 171.81 47.3468C171.692 47.5815 171.462 47.9133 171.592 48.2238C171.721 48.5342 172.142 49.2518 173.133 49.5636C173.276 49.9881 177.907 61.9113 179.785 65.3844Z" fill="#FFB5B9"/>
<path fill-rule="evenodd" clip-rule="evenodd" d="M210.325 77.8133L212.065 77.7015C211.947 70.9213 210.805 66.7557 208.642 65.2046C208.497 65.101 208.354 65.0102 208.214 64.9325C208.178 64.906 208.142 64.8794 208.105 64.8529C207.66 64.5348 206.575 63.8138 204.852 62.6897C203.698 63.8856 202.5 64.4509 201.256 64.3855C200.013 64.3201 199.308 63.6424 199.381 62.5587C199.118 62.6359 198.861 62.723 198.61 62.82L188.92 61.8699L187.024 68.8483L194.029 71.8952C193.113 77.8457 191.984 87.4119 190.644 100.594L210.922 101.479C211.13 101.488 211.306 101.327 211.315 101.119C211.316 101.108 211.316 101.098 211.315 101.087C210.898 90.7694 210.568 83.0115 210.325 77.8133Z" fill="#5BC587"/>
<path fill-rule="evenodd" clip-rule="evenodd" d="M204.833 78.4151L203.002 72.8118L204.844 83.9932L193.739 88.2075C202.817 90.5506 208.101 91.4569 209.59 90.9264C210.913 90.4556 211.205 84.251 210.973 78.1467C210.96 77.819 208.914 77.9085 204.833 78.4151Z" fill="#0F175F"/>
<path fill-rule="evenodd" clip-rule="evenodd" d="M204.833 78.2355L205.922 83.4544C197.135 84.5881 191.172 85.111 190.908 85.0229C190.644 84.9351 190.337 84.8967 189.891 84.8263C189.259 84.7266 188.294 84.7304 188.168 84.8256C187.707 85.1728 189.455 85.5823 189.226 85.7584C188.812 86.0761 185.937 86.7656 186.028 87.2029C186.049 87.3027 186.663 87.2731 187.869 87.114C186.723 87.7995 186.176 88.1931 186.23 88.295C186.284 88.3969 186.942 88.2136 188.204 87.7453C187.214 88.5065 186.746 88.9284 186.801 89.0111C186.855 89.0937 187.435 88.8428 188.541 88.2583C187.727 88.9981 187.376 89.3881 187.488 89.4281C187.655 89.4881 189.137 88.5001 189.167 88.483C189.817 88.1172 190.403 87.7864 190.924 87.4904C203.214 89.1767 209.855 89.8431 210.848 89.4894C211.995 89.0809 212.428 83.4502 212.066 77.7017L204.833 78.2355Z" fill="#FFB5B9"/>
<path fill-rule="evenodd" clip-rule="evenodd" d="M204.514 62.4948C203.513 63.6184 202.534 64.1803 201.577 64.1803C200.62 64.1803 199.925 63.5936 199.49 62.4202L198.654 62.787C198.805 64.1932 199.706 64.9899 201.36 65.1771C203.013 65.3643 204.416 64.6515 205.571 63.0387L204.514 62.4948Z" fill="white"/>
<path fill-rule="evenodd" clip-rule="evenodd" d="M36.5765 59.4612L39.1844 60.057L39.4192 62.4518L40.8684 62.8744L41.0917 65.3893H35.7021L35.8449 62.949L37.0125 62.5783L36.5765 59.4612Z" fill="#FFB5B9"/>
<path fill-rule="evenodd" clip-rule="evenodd" d="M39.3421 61.7965C39.3421 61.7965 38.1528 61.433 37.6991 61.0398C37.2455 60.6467 36.6475 59.4612 36.6475 59.4612L39.2461 60.8594L39.3421 61.7965Z" fill="#FF9595"/>
<path fill-rule="evenodd" clip-rule="evenodd" d="M39.3447 54.072C40.781 54.072 40.5912 55.3658 40.5912 56.8422V58.5516C40.5912 60.0279 40.72 61.2556 39.1412 61.2556C37.5624 61.2556 36.3733 60.8723 36.2881 59.2014C36.203 57.5305 35.9102 56.5777 35.9102 56.5777C35.9102 56.5777 37.9084 54.072 39.3447 54.072Z" fill="#FFB5B9"/>
<path d="M38.3437 56.8705C38.5747 56.5642 38.855 56.5642 39.0838 56.8711C39.1254 56.9267 39.1139 57.0055 39.0582 57.0471C39.0025 57.0886 38.9238 57.0771 38.8822 57.0214C38.7538 56.8493 38.6748 56.8493 38.5445 57.022C38.5027 57.0774 38.4238 57.0885 38.3684 57.0467C38.313 57.0048 38.3019 56.926 38.3437 56.8705Z" fill="#021768"/>
<path d="M39.9599 56.8705C40.1909 56.5642 40.4712 56.5642 40.7 56.8711C40.7416 56.9267 40.7301 57.0055 40.6744 57.0471C40.6188 57.0886 40.54 57.0771 40.4984 57.0214C40.37 56.8493 40.291 56.8493 40.1607 57.022C40.1189 57.0774 40.0401 57.0885 39.9846 57.0467C39.9292 57.0048 39.9181 56.926 39.9599 56.8705Z" fill="#021768"/>
<path fill-rule="evenodd" clip-rule="evenodd" d="M39.6919 59.9656C39.5601 60.323 39.403 60.4685 39.2204 60.402C39.0378 60.3354 38.9455 60.149 38.9434 59.8428L39.6919 59.9656Z" fill="#0F175F"/>
<path fill-rule="evenodd" clip-rule="evenodd" d="M39.6919 59.9148C39.6525 59.9491 39.6182 59.9728 39.5889 59.9858C39.3534 59.9937 39.1382 59.9461 38.9434 59.8429L39.6919 59.9148Z" fill="white"/>
<circle cx="38.8037" cy="58.0241" r="0.179641" fill="#021768"/>
<circle cx="40.4199" cy="58.0241" r="0.179641" fill="#021768"/>
<path fill-rule="evenodd" clip-rule="evenodd" d="M39.7012 57.8445V59.38C39.7012 59.38 40.5328 59.6243 40.4019 59.1342C40.2711 58.644 39.7012 57.8445 39.7012 57.8445Z" fill="#FF9595"/>
<path fill-rule="evenodd" clip-rule="evenodd" d="M36.407 59.2815C36.407 59.2815 36.167 57.8129 36.4049 57.6393C36.6428 57.4657 36.8093 58.4241 37.0352 58.3824C37.2611 58.3407 37.3421 57.1503 37.3421 57.1503C37.3421 57.1503 37.4712 57.1599 37.652 56.9945C37.8329 56.8291 37.652 55.5253 37.652 55.5253C37.652 55.5253 40.0092 56.4864 40.757 56.1031C41.5047 55.7199 40.7795 54.0156 38.6233 53.735C36.467 53.4544 36.0881 54.7587 36.0881 54.7587C36.0881 54.7587 35.7984 54.8519 35.7519 55.7199C35.7054 56.5879 36.407 59.2815 36.407 59.2815Z" fill="#0F175F"/>
<path fill-rule="evenodd" clip-rule="evenodd" d="M36.9435 59.453C36.3362 59.6098 35.6773 59.379 35.4717 58.9377C35.2662 58.4964 35.5919 58.0115 36.1991 57.8548C36.8064 57.6981 37.5508 59.2963 36.9435 59.453Z" fill="#FFB5B9"/>
<path d="M35.8773 58.7121C36.0212 58.1734 36.3376 58.1065 36.6422 58.5605C36.6809 58.6182 36.6655 58.6963 36.6078 58.735C36.5501 58.7737 36.472 58.7583 36.4333 58.7006L36.4011 58.6535L36.3718 58.6129L36.3451 58.579C36.2606 58.4772 36.2162 58.4875 36.1671 58.6221L36.1521 58.6661L36.1366 58.7178L36.1203 58.777C36.1024 58.8441 36.0335 58.8839 35.9664 58.866C35.8993 58.8481 35.8594 58.7792 35.8773 58.7121Z" fill="#F97A80"/>
<path fill-rule="evenodd" clip-rule="evenodd" d="M54.5134 120.822C54.0576 117.3 52.1632 109.841 48.8301 98.4431L35.6591 98.8024H29.2198L29.923 123.637L27.8447 145.868H31.2267L40.8626 108.836L48.0386 122.674L47.7026 145.868H51.1022C53.8321 132.692 54.9691 124.343 54.5134 120.822Z" fill="#637CED"/>
<path fill-rule="evenodd" clip-rule="evenodd" d="M31.2072 145.689C31.4926 146.236 31.7024 146.52 31.8366 146.539C34.2343 146.876 35.21 147.731 35.21 149.102C34.4501 149.102 31.995 149.102 27.8447 149.102V145.689H31.2072Z" fill="#0F175F"/>
<path fill-rule="evenodd" clip-rule="evenodd" d="M51.1476 145.689C51.433 146.236 51.6428 146.52 51.7771 146.539C54.1748 146.876 55.1504 147.731 55.1504 149.102C54.3905 149.102 51.9354 149.102 47.7852 149.102V145.689H51.1476Z" fill="#0F175F"/>
<path fill-rule="evenodd" clip-rule="evenodd" d="M69.1376 79.9806C69.375 79.8357 69.6654 79.7293 70.0843 79.5603C70.6775 79.3211 71.6186 79.1077 71.7631 79.172C72.2902 79.4067 70.6788 80.1989 70.9419 80.3189C71.4166 80.5354 74.3735 80.5604 74.3824 81.0072C74.3844 81.1091 73.7798 81.2183 72.5685 81.3347C73.84 81.7446 74.4609 82.0053 74.4312 82.1167C74.4016 82.2281 73.7193 82.1975 72.3846 82.025C73.5202 82.544 74.071 82.8499 74.0367 82.9426C74.0025 83.0354 73.3808 82.9214 72.1719 82.6006C73.1308 83.1385 73.5604 83.4395 73.4607 83.5036C73.3111 83.5997 71.6452 82.9704 71.6117 82.9606C70.8962 82.7504 70.2512 82.5597 69.6768 82.3886L66.9332 82.8175L66.4629 79.9244C67.8893 80.1798 68.7808 80.1986 69.1376 79.9806Z" fill="#FFB5B9"/>
<path fill-rule="evenodd" clip-rule="evenodd" d="M29.5094 89.9434C27.2751 89.1476 27.7498 68.5363 31.5372 65.8384C31.6288 65.7731 31.7198 65.713 31.81 65.6579C31.9417 65.5408 32.0886 65.4242 32.2527 65.307C32.6497 65.0233 33.2645 64.2491 34.7861 63.4929C34.9784 63.3973 35.3197 63.265 35.5055 63.1438C36.6592 64.3398 37.8577 64.9051 39.101 64.8397C40.3444 64.7743 40.9842 64.2449 40.9111 63.1612C41.1696 63.2168 41.4577 63.1644 41.7035 63.2412C42.7678 63.5737 43.6777 64.2234 44.5051 64.953L44.5073 64.9495L44.5198 64.966C44.5576 64.9994 44.5951 65.0333 44.6324 65.0676C44.699 65.1289 44.7682 65.2348 44.84 65.3856L54.155 77.5935L68.8775 79.7675L68.8749 82.7397C62.3781 83.7645 57.1563 84.3321 53.2096 84.4423C51.0088 82.92 49.0754 81.5238 47.4093 80.2535C48.0912 85.7169 48.8592 92.6484 49.7135 101.048L29.4353 101.933C29.2272 101.942 29.0511 101.781 29.042 101.573C29.0415 101.562 29.0415 101.552 29.0419 101.541C29.2164 97.2293 29.3756 93.3646 29.5195 89.9469C29.5161 89.9457 29.5128 89.9445 29.5094 89.9434Z" fill="#EC539C"/>
<path fill-rule="evenodd" clip-rule="evenodd" d="M35.8439 62.9489C36.8449 64.0725 37.8238 64.6344 38.7804 64.6344C39.7371 64.6344 40.4328 64.0477 40.8674 62.8743L41.7035 63.2411C41.5528 64.6473 40.651 65.444 38.9979 65.6312C37.3449 65.8184 35.9409 65.1056 34.7861 63.4928L35.8439 62.9489Z" fill="white"/>
<path fill-rule="evenodd" clip-rule="evenodd" d="M49.4493 85.4768C49.7132 85.389 50.0201 85.3506 50.4663 85.2802C51.0981 85.1806 52.0631 85.1843 52.1894 85.2795C52.6502 85.6267 50.9019 86.0362 51.1313 86.2123C51.5451 86.5301 54.4206 87.2195 54.3287 87.6569C54.3078 87.7567 53.6941 87.727 52.4877 87.5679C53.6344 88.2534 54.1808 88.647 54.1268 88.7489C54.0728 88.8508 53.4149 88.6675 52.1532 88.1992C53.143 88.9604 53.6108 89.3823 53.5565 89.465C53.5023 89.5476 52.9223 89.2967 51.8165 88.7122C52.6298 89.4521 52.9807 89.842 52.8691 89.882C52.7017 89.942 51.2201 88.9541 51.1896 88.9369C50.5398 88.5712 49.9542 88.2403 49.433 87.9444L46.542 88.2702L46.7346 85.3455C48.1477 85.5651 49.0527 85.6089 49.4493 85.4768Z" fill="#FFB5B9"/>
<path fill-rule="evenodd" clip-rule="evenodd" d="M37.3543 73.3042L36.9646 84.0675L35.873 83.9082L37.3543 73.3042ZM46.5231 88.62L46.6181 88.6614C37.54 91.0045 32.2562 91.9108 30.7667 91.3803C30.4513 91.268 30.1967 90.795 29.9951 90.057C31.9872 90.3651 37.4965 89.886 46.5231 88.62Z" fill="#0F175F"/>
</svg>
