<svg width="240" height="147" viewBox="0 0 240 147" fill="none" xmlns="http://www.w3.org/2000/svg">
<path fill-rule="evenodd" clip-rule="evenodd" d="M204.885 74.3054C204.885 74.3054 200.27 73.2178 196.807 75.701C196.807 75.701 201.114 78.0192 205.772 76.6632C205.772 76.6632 205.046 81.5005 207.528 86.185C207.528 86.185 209.363 81.1048 208.164 77.3488C208.164 77.3488 212.199 79.9894 216.966 79.6232C216.966 79.6232 213.146 75.4452 208.983 75.3787C208.983 75.3787 212.829 72.7201 213.151 68.8929C213.151 68.8929 207.941 70.0695 206.771 73.877C206.771 73.877 205.365 68.0826 200.819 64.9653C200.819 64.9653 201.435 68.3819 202.121 69.9573C202.791 71.4953 204.885 74.3054 204.885 74.3054Z" fill="#0F175F" stroke="#0F175F" stroke-width="2"/>
<path fill-rule="evenodd" clip-rule="evenodd" d="M204.281 81.6255C209.441 76.0049 216.415 77.6702 220.338 85.4599L221.267 87.3034L221.586 87.2402C228.915 85.7884 235.96 92.2944 238.88 103.211L240 107.401H148.997L150.009 103.614C152.646 93.7493 159.01 87.8698 165.629 89.1818L165.918 89.2389L166.756 87.573C170.3 80.5335 176.599 79.0285 181.259 84.1078C181.259 82.3253 193.236 64.3444 204.281 81.6255Z" fill="#0F175F"/>
<path d="M180.536 91.6895C178.548 92.487 176.687 93.6803 175.158 95.0298L175.095 95.086L175.024 95.1491L174.886 95.275C174.864 95.2959 174.841 95.3169 174.819 95.3377L174.686 95.4628C174.664 95.4835 174.642 95.5043 174.621 95.525L174.494 95.6486L174.371 95.7711C174.351 95.7914 174.331 95.8116 174.311 95.8318L174.195 95.9521C174.176 95.972 174.157 95.9918 174.139 96.0116L174.029 96.1291L173.925 96.2445C173.891 96.2826 173.857 96.3203 173.825 96.3576L173.731 96.4682L173.642 96.5759C173.613 96.6114 173.585 96.6463 173.558 96.6807L173.48 96.7822C173.343 96.9653 173.235 97.1309 173.162 97.2728L173.139 97.3206L173.058 97.2631C168.346 93.9669 162.116 95.0731 158.585 99.8865L157.81 100.942L157.629 100.918C150.924 100.006 144.482 104.09 141.815 110.937L140.803 113.535C140.756 113.654 140.844 113.783 140.973 113.783H231.976C232.104 113.783 232.192 113.654 232.146 113.535L231.025 110.66L230.935 110.434C227.933 103.002 220.878 98.5874 213.537 99.5853L213.325 99.614L212.461 98.4364L212.34 98.2749C208.377 93.0406 201.478 91.9101 196.305 95.6508L196.279 95.6702L196.39 95.7886C191.476 90.5122 185.985 89.5032 180.536 91.6895Z" fill="#0F175F"/>
<path d="M196.123 96.0372C196.187 96.1053 196.291 96.1147 196.366 96.059C201.443 92.2632 208.302 93.3872 212.167 98.6522L213.095 99.9173C213.135 99.9712 213.201 99.9991 213.267 99.9901L213.586 99.9467L213.803 99.9188C220.968 99.0507 227.824 103.451 230.685 110.792L231.709 113.419H141.239L142.155 111.069C144.762 104.375 151.047 100.39 157.58 101.279L157.869 101.318C157.935 101.327 158.001 101.299 158.04 101.245L158.879 100.102C162.364 95.3522 168.547 94.3382 173.126 97.7624C173.241 97.8483 173.402 97.774 173.416 97.6365L173.417 97.6164C173.417 97.5702 173.442 97.5013 173.489 97.4136L173.52 97.3587L173.556 97.2995C173.563 97.2893 173.569 97.279 173.576 97.2684L173.62 97.2032C173.628 97.192 173.636 97.1806 173.644 97.1691L173.695 97.0982L173.75 97.0237L173.81 96.946L173.875 96.8651L173.943 96.7812L174.016 96.6946L174.093 96.6055L174.174 96.514L174.259 96.4203L174.347 96.3247L174.486 96.178L174.582 96.0783L174.682 95.9773L174.785 95.8753L174.891 95.7723L175 95.6687L175.111 95.5645L175.225 95.46L175.341 95.3555C175.36 95.338 175.38 95.3206 175.4 95.3032C176.899 93.98 178.725 92.8091 180.672 92.028C185.986 89.8959 191.316 90.8754 196.123 96.0372Z" fill="white"/>
<path d="M199.953 89.7581C202.425 92.2491 203.288 95.3871 202.544 99.2142L203.26 99.3534C204.049 95.2959 203.118 91.9121 200.471 89.2443L199.953 89.7581Z" fill="white"/>
<path d="M196.154 78.8245L196.101 79.067L196.076 79.1836C195.329 82.7122 195.856 85.4712 197.664 87.4408L197.738 87.5198L197.6 87.4967C193.578 86.8381 189.907 87.4645 186.594 89.3766L186.095 89.6693L186.519 89.7807C186.613 89.8054 186.706 89.8296 186.798 89.8534L187.072 89.9235L187.341 89.9909L187.605 90.0557L187.864 90.1178L188.118 90.1773L188.366 90.2341L188.609 90.2883L188.847 90.3398L189.08 90.3886L189.308 90.4348L189.531 90.4784L189.748 90.5193C189.784 90.5259 189.82 90.5324 189.855 90.5388L190.065 90.5757L190.269 90.6099L190.469 90.6416L190.663 90.6705C190.695 90.6751 190.727 90.6796 190.758 90.684L190.945 90.709C190.976 90.7129 191.006 90.7167 191.036 90.7205L191.215 90.7414C191.244 90.7447 191.274 90.7479 191.303 90.7509L191.474 90.7679L191.64 90.7823C191.667 90.7845 191.694 90.7865 191.721 90.7885L191.879 90.7988C191.905 90.8003 191.931 90.8017 191.956 90.803L192.107 90.8094C192.132 90.8103 192.156 90.811 192.18 90.8116L192.251 90.8131C192.399 90.8156 192.556 90.8144 192.721 90.8094L192.889 90.8032C192.918 90.802 192.947 90.8006 192.976 90.7992L193.153 90.7892C193.213 90.7855 193.273 90.7813 193.335 90.7768L193.524 90.7618C193.556 90.7591 193.588 90.7563 193.62 90.7534L193.817 90.7347C193.851 90.7314 193.884 90.728 193.918 90.7245L194.124 90.702L194.335 90.6771C194.371 90.6728 194.407 90.6683 194.443 90.6637L194.663 90.6351L194.889 90.6039L195.121 90.5703L195.359 90.5341L195.602 90.4955L195.851 90.4544L196.106 90.4108L196.367 90.3647L196.633 90.3161L196.905 90.265L197.183 90.2114L197.402 90.1682L197.399 90.1732C195.427 92.8371 194.72 95.6674 195.284 98.6534L195.338 98.9397L195.572 98.766L195.676 98.6879C198.442 96.5976 200.132 93.8703 200.741 90.5139L200.759 90.4102L200.775 90.4205C203.759 92.3155 207.173 93.1659 211.012 92.9717L211.424 92.9508L211.131 92.6601L211.017 92.5476C208.391 89.9753 205.732 88.4391 203.041 87.9445L202.94 87.9265L203.036 87.8631C205.828 86.0027 207.819 83.4999 209.005 80.3586L209.137 80.0083L208.645 80.1629C204.957 81.3415 202.395 83.1735 200.969 85.6605L200.92 85.7468L200.904 85.6694C200.244 82.5414 198.732 80.2964 196.37 78.9475L196.154 78.8245Z" fill="#0F175F"/>
<path d="M196.406 79.3921L196.45 79.4192C198.707 80.8133 200.109 83.1113 200.658 86.3277L200.754 86.886L201.002 86.3769L201.048 86.285C202.32 83.7504 204.753 81.8687 208.358 80.6416L208.525 80.5855L208.502 80.6442C207.254 83.7002 205.2 86.1104 202.336 87.8791L201.898 88.15L202.409 88.2152L202.525 88.2305C205.214 88.6041 207.884 90.0544 210.534 92.5875L210.573 92.6244L210.513 92.6263C206.839 92.7277 203.578 91.8367 200.725 89.9535L200.488 89.7969L200.445 90.0778L200.424 90.2048C199.885 93.498 198.3 96.1731 195.663 98.2377L195.591 98.2934L195.586 98.2583C195.13 95.3534 195.928 92.6064 197.986 90.0062L198.298 89.6131L197.667 89.743L197.257 89.8254L196.859 89.9027L196.6 89.9514L196.222 90.0201L195.976 90.0632L195.736 90.1039L195.501 90.1424L195.272 90.1786L195.048 90.2125L194.829 90.2442L194.615 90.2736L194.407 90.3007C194.373 90.305 194.339 90.3093 194.305 90.3134L194.105 90.3371L193.911 90.3586C193.879 90.362 193.847 90.3653 193.815 90.3685L193.629 90.3865L193.447 90.4023C193.418 90.4047 193.388 90.4071 193.359 90.4093L193.186 90.4217L193.018 90.4319L192.855 90.4397L192.698 90.4453C192.672 90.446 192.647 90.4467 192.621 90.4472L192.472 90.4494C192.399 90.45 192.328 90.4496 192.259 90.4485L192.119 90.4449L191.965 90.4383C191.887 90.4343 191.807 90.4292 191.725 90.423L191.557 90.4093L191.384 90.3927L191.205 90.3733C191.145 90.3663 191.083 90.3589 191.021 90.3509L190.83 90.3258C190.798 90.3213 190.766 90.3168 190.733 90.3121L190.535 90.2826L190.33 90.2503L190.12 90.2151L189.905 90.177C189.868 90.1704 189.832 90.1637 189.795 90.1569L189.571 90.1146L189.341 90.0693L189.105 90.0212L188.864 89.9703C188.824 89.9616 188.783 89.9527 188.742 89.9437L188.492 89.8885L188.237 89.8304L187.976 89.7694L187.71 89.7056L187.438 89.6389L187.046 89.5403L187.133 89.4926C190.475 87.673 194.181 87.1711 198.26 87.9875L198.912 88.118L198.418 87.6731C196.355 85.817 195.674 83.0982 196.385 79.4928L196.406 79.3921Z" fill="white"/>
<path fill-rule="evenodd" clip-rule="evenodd" d="M217.02 84.2769C217.02 84.2769 214.812 87.0788 215.404 90.2306C215.404 90.2306 218.353 88.0307 218.909 84.422C218.909 84.422 221.976 86.4554 225.957 86.2531C225.957 86.2531 223.078 83.3854 220.137 83.0088C220.137 83.0088 223.219 81.0961 224.485 77.7281C224.485 77.7281 220.422 79.0053 219.054 81.8235C219.054 81.8235 218.464 78.3547 215.958 76.9175C215.958 76.9175 215.104 80.8454 217.327 82.8548C217.327 82.8548 212.931 81.9708 209.361 84.0799C209.361 84.0799 211.886 84.746 213.178 84.7792C214.439 84.8117 217.02 84.2769 217.02 84.2769Z" fill="#0F175F" stroke="#0F175F" stroke-width="2"/>
<path d="M209.703 75.6162C205.904 76.4977 203.244 78.9338 201.697 82.9627L200.939 82.6716C202.579 78.4002 205.447 75.7733 209.516 74.8292L209.703 75.6162Z" fill="#0F175F"/>
<path d="M215.985 94.5656C218.163 97.8015 218.447 101.397 216.83 105.398L217.583 105.703C219.297 101.46 218.991 97.5833 216.659 94.1177L215.985 94.5656Z" fill="white"/>
<path d="M214.134 83.3213L214.039 83.521L213.982 83.641C212.257 87.3167 212.378 90.4674 214.353 93.0646L214.398 93.1239L214.359 93.1103C209.184 91.3005 204.204 91.0477 199.422 92.3542L198.921 92.491L199.55 92.7636L200.001 92.957L200.442 93.1431L200.872 93.3219L201.291 93.4934L201.565 93.6037L201.833 93.7107L202.097 93.8145L202.484 93.9641L202.737 94.0598L202.984 94.1522L203.226 94.2413L203.464 94.3273L203.697 94.4099L203.926 94.4894C203.963 94.5023 204.001 94.5151 204.038 94.5278L204.259 94.6024L204.476 94.6737L204.687 94.7418C204.722 94.7528 204.757 94.7638 204.791 94.7746L204.996 94.8378L205.196 94.8977C205.261 94.9172 205.326 94.9361 205.391 94.9544L205.581 95.0079C205.612 95.0165 205.643 95.025 205.674 95.0334L205.858 95.082L206.036 95.1273L206.21 95.1694C206.238 95.1761 206.267 95.1827 206.295 95.1892L206.461 95.2264L206.541 95.2434L206.704 95.2767C206.732 95.2822 206.76 95.2876 206.788 95.293L206.96 95.325C206.99 95.3302 207.019 95.3354 207.049 95.3406L207.229 95.3712L207.416 95.4009L207.608 95.4297L207.806 95.4575L208.009 95.4845L208.219 95.5106L208.434 95.5358L208.655 95.5601L208.882 95.5835L209.114 95.606L209.352 95.6276C209.392 95.6311 209.433 95.6346 209.473 95.6381L209.846 95.6681L210.101 95.687L210.362 95.705L210.629 95.7221L210.902 95.7383L211.18 95.7537L211.465 95.7681L211.755 95.7816L212.2 95.8003L212.505 95.8116L212.972 95.8268L213.414 95.839L213.344 95.8932C210.263 98.2772 208.765 101.158 208.862 104.525L208.87 104.782L209.11 104.69L209.24 104.639C213.269 103.066 216.033 100.52 217.521 97.0061L217.567 96.8959L217.63 96.9484C221.074 99.7535 225.291 101.532 230.28 102.283L230.747 102.354L230.448 101.987L230.336 101.85C227.478 98.3874 224.359 96.0543 220.981 94.8547L220.86 94.8121L220.907 94.7973C224.949 93.4913 228.079 91.271 230.29 88.1377L230.51 87.8258L229.966 87.8616C224.874 88.2166 221.147 89.5976 218.794 92.0126L218.739 92.0695L218.738 92.0356C218.589 88.4392 217.144 85.597 214.406 83.5237L214.134 83.3213Z" fill="#0F175F"/>
<path d="M214.273 83.8808L214.275 83.883C216.985 85.9744 218.354 88.8509 218.386 92.5284L218.39 93.0078L218.705 92.6469L218.774 92.5691C220.965 90.1172 224.544 88.6786 229.52 88.2616L229.764 88.2421L229.748 88.2644C227.491 91.3006 224.312 93.4227 220.206 94.6321L219.625 94.8032L220.204 94.9814L220.337 95.0231C223.715 96.0947 226.839 98.3097 229.71 101.672L229.859 101.847L229.777 101.834C224.973 101.025 220.918 99.2331 217.608 96.4568L217.414 96.2938L217.321 96.5298L217.276 96.6441C215.882 100.101 213.25 102.617 209.369 104.196L209.223 104.254L209.223 104.205C209.227 100.958 210.799 98.1907 213.955 95.8905L214.501 95.498L213.625 95.4795L213.303 95.4714L212.986 95.4624L212.522 95.4473L212.22 95.4361L211.777 95.4176L211.489 95.4042L211.207 95.3899L210.795 95.3668L210.396 95.3417L210.137 95.3239L209.883 95.3052L209.636 95.2856L209.275 95.2546C209.236 95.2511 209.197 95.2475 209.158 95.2438L208.928 95.2216L208.704 95.1986L208.485 95.1746L208.272 95.1497L208.065 95.124L207.864 95.0974L207.669 95.07L207.479 95.0416L207.295 95.0124L207.117 94.9823C207.088 94.9772 207.059 94.9721 207.03 94.9669L206.86 94.9355C206.833 94.9302 206.805 94.9249 206.778 94.9195L206.617 94.8868L206.458 94.8522L206.291 94.8139L206.12 94.7725L205.945 94.7278L205.764 94.6798L205.579 94.6286C205.547 94.6198 205.516 94.6109 205.484 94.6018L205.292 94.5458L205.094 94.4865L204.892 94.424C204.858 94.4133 204.824 94.4024 204.789 94.3915L204.58 94.3241L204.366 94.2535L204.147 94.1796L203.923 94.1025L203.695 94.0222C203.656 94.0085 203.618 93.9947 203.579 93.9808L203.343 93.8956L203.103 93.8072L202.858 93.7155L202.608 93.6206C202.565 93.6045 202.523 93.5883 202.481 93.5719L202.224 93.4722L201.962 93.3692L201.695 93.2629L201.424 93.1534L201.147 93.0407L200.724 92.8656L200.29 92.6831L200.03 92.5726L200.14 92.5455C204.864 91.3944 209.785 91.7775 214.908 93.6968L215.605 93.9581L215.107 93.4042C212.829 90.8682 212.526 87.7527 214.208 84.0239L214.273 83.8808Z" fill="white"/>
<path fill-rule="evenodd" clip-rule="evenodd" d="M28.2998 82.9646C28.2998 82.9646 24.874 86.2428 25.0705 90.4995C25.0705 90.4995 29.3601 88.1506 30.7601 83.5051C30.7601 83.5051 34.4218 86.7482 39.7019 87.2187C39.7019 87.2187 36.441 82.9125 32.6377 81.8727C32.6377 81.8727 37.0502 79.9263 39.3395 75.7288C39.3395 75.7288 33.7546 76.6576 31.4315 80.1127C31.4315 80.1127 31.2965 75.4392 28.2625 73.0843C28.2625 73.0843 26.4115 78.0947 28.9672 81.1502C28.9672 81.1502 23.3419 79.1734 18.2516 81.2881C18.2516 81.2881 21.453 82.6318 23.1477 82.9146C24.8023 83.1906 28.2998 82.9646 28.2998 82.9646Z" fill="#0F175F" stroke="#0F175F" stroke-width="2"/>
<path d="M29.4406 82.5881C31.7298 85.7461 32.1388 89.3294 30.6628 93.3847L31.4261 93.6625C32.991 89.3631 32.55 85.4991 30.0982 82.1169L29.4406 82.5881Z" fill="#0F175F"/>
<path fill-rule="evenodd" clip-rule="evenodd" d="M67.5027 83.4922C72.6625 77.8716 79.6362 79.5369 83.5598 87.3266L84.4883 89.1701L84.8075 89.1069C92.1365 87.6551 99.1815 94.1611 102.101 105.078L103.222 109.267H12.2188L13.2309 105.481C15.868 95.616 22.2313 89.7365 28.851 91.0485L29.1393 91.1056L29.978 89.4397C33.5219 82.4002 39.8207 80.8952 44.4812 85.9745C44.4812 84.192 56.4576 66.2111 67.5027 83.4922Z" fill="#0F175F"/>
<path d="M16.3697 95.4784C19.1247 98.2394 20.0893 101.715 19.2658 105.951L20.0632 106.106C20.9362 101.615 19.8961 97.8671 16.9455 94.9102L16.3697 95.4784Z" fill="white"/>
<path d="M36.7911 93.6761C37.0674 97.5668 39.0574 100.575 42.7948 102.732L42.3886 103.436C38.4263 101.148 36.2803 97.9047 35.9845 93.7379L36.7911 93.6761Z" fill="white"/>
<path d="M43.7576 93.5562C41.7701 94.3537 39.9086 95.547 38.3799 96.8965L38.3165 96.9527L38.1766 97.0788L38.0402 97.2044L37.9075 97.3295C37.8857 97.3502 37.864 97.371 37.8426 97.3917L37.7157 97.5153L37.5928 97.6378L37.4743 97.7589C37.4356 97.7989 37.3975 97.8387 37.3603 97.8783L37.2509 97.9958L37.1463 98.1112C37.1122 98.1493 37.079 98.187 37.0467 98.2243L36.9523 98.3349L36.8632 98.4426C36.8344 98.4781 36.8066 98.513 36.7797 98.5474L36.7019 98.6489C36.5646 98.832 36.457 98.9976 36.3841 99.1395L36.3605 99.1874L36.2794 99.1298C31.5678 95.8336 25.3375 96.9398 21.8065 101.753L21.0318 102.809L20.8511 102.784C14.1453 101.872 7.70333 105.957 5.03647 112.803L4.02433 115.402C3.97775 115.521 4.06595 115.65 4.19426 115.65H95.1973C95.3256 115.65 95.4138 115.521 95.3672 115.402L94.2466 112.526L94.1569 112.3C91.1547 104.869 84.0993 100.454 76.7585 101.452L76.5466 101.481L75.6823 100.303L75.5619 100.142C71.5983 94.9073 64.6996 93.7768 59.5268 97.5175L59.5002 97.5369L59.6117 97.6553C54.6975 92.3789 49.2065 91.3699 43.7576 93.5562Z" fill="#0F175F"/>
<path d="M59.3448 97.9039C59.4083 97.972 59.5129 97.9814 59.5875 97.9257C64.6651 94.1299 71.524 95.2539 75.3883 100.519L76.3168 101.784C76.3564 101.838 76.4222 101.866 76.4884 101.857L76.8076 101.813L77.0248 101.785C84.1895 100.917 91.0458 105.318 93.9068 112.659L94.9305 115.285H4.46094L5.37638 112.936C7.98379 106.242 14.2684 102.257 20.802 103.146L21.0903 103.185C21.1566 103.194 21.2224 103.166 21.2619 103.112L22.1006 101.969C25.5852 97.2189 31.7692 96.2049 36.3475 99.6291C36.4623 99.715 36.6236 99.6407 36.638 99.5032L36.6391 99.4831C36.6391 99.4369 36.664 99.368 36.7111 99.2803L36.742 99.2254L36.7781 99.1662C36.7845 99.156 36.7912 99.1457 36.798 99.1351L36.8417 99.0699C36.8493 99.0587 36.8572 99.0473 36.8653 99.0358L36.9162 98.9649L36.9717 98.8904L37.0318 98.8127C37.0422 98.7994 37.0528 98.7861 37.0635 98.7726L37.1651 98.6479L37.238 98.5613L37.315 98.4722L37.3958 98.3807L37.4804 98.287L37.5686 98.1914L37.6603 98.094L37.8041 97.945L37.904 97.844L38.0069 97.742L38.1127 97.639L38.2213 97.5354L38.3325 97.4312L38.4463 97.3267L38.5624 97.2222C38.5819 97.2047 38.6016 97.1873 38.6213 97.1699C40.1202 95.8467 41.9468 94.6758 43.8935 93.8947C49.2073 91.7626 54.5373 92.7421 59.3448 97.9039Z" fill="white"/>
<path d="M13.1852 85.6365L13.1295 85.8507L13.0965 85.9794C12.1045 89.9167 12.8243 92.9865 15.2585 95.1591L15.3146 95.2086L15.2737 95.2027C9.84858 94.4135 4.91124 95.1158 0.466418 97.3107L0.000976562 97.5406L0.67054 97.688L1.15051 97.7918L1.61856 97.8904L2.07469 97.9839L2.5189 98.0723L2.80841 98.1283L3.09264 98.1821L3.37157 98.2336L3.78005 98.3066L4.04575 98.3524L4.30616 98.3959L4.56128 98.4372L4.81112 98.4761L5.05567 98.5128L5.29493 98.5472C5.33436 98.5528 5.37358 98.5582 5.41258 98.5636L5.64391 98.5946L5.86996 98.6233L6.09073 98.6497C6.12708 98.6539 6.16322 98.658 6.19913 98.662L6.41198 98.6851L6.61954 98.7058C6.68785 98.7123 6.75528 98.7184 6.82183 98.7242L7.01884 98.7404C7.05123 98.7429 7.08341 98.7453 7.11536 98.7476L7.30445 98.7603L7.48827 98.7708L7.66681 98.779C7.69613 98.7801 7.72523 98.7812 7.75411 98.7822L7.92474 98.7869L8.0061 98.7884L8.17292 98.7899C8.20118 98.79 8.22966 98.79 8.25838 98.7899L8.43339 98.7884C8.46301 98.788 8.49286 98.7875 8.52294 98.787L8.70615 98.7825L8.89483 98.7761L9.08897 98.7677L9.28858 98.7573L9.49365 98.7449L9.7042 98.7305L9.92022 98.7142L10.1417 98.6959L10.3687 98.6756L10.6011 98.6534L10.839 98.6291C10.8791 98.6249 10.9194 98.6206 10.96 98.6163L11.3312 98.5747L11.5856 98.5445L11.8454 98.5124L12.1107 98.4782L12.3815 98.4421L12.6577 98.404L12.9395 98.364L13.2267 98.3219L13.6678 98.2552L13.9688 98.2082L14.4304 98.134L14.8666 98.0616L14.8078 98.1282C12.2387 101.056 11.3175 104.17 12.0558 107.456L12.1121 107.707L12.3302 107.571L12.4486 107.497C16.1036 105.183 18.3306 102.157 19.1204 98.4237L19.1446 98.3067L19.2172 98.3461C23.1325 100.443 27.612 101.383 32.6522 101.169L33.1243 101.149L32.7611 100.847L32.6243 100.734C29.1582 97.8797 25.652 96.1844 22.1067 95.6515L21.9797 95.6328L22.0229 95.6094C25.7418 93.556 28.3903 90.7793 29.9628 87.2818L30.1194 86.9336L29.5923 87.0725C24.6613 88.3926 21.2668 90.4593 19.4177 93.2789L19.3744 93.3454L19.3668 93.3123C18.5348 89.8102 16.5735 87.2961 13.4903 85.7833L13.1852 85.6365Z" fill="#0F175F"/>
<path d="M13.4279 86.1592L13.431 86.1608C16.49 87.6968 18.3821 90.2593 19.1151 93.8632L19.2107 94.333L19.4515 93.9185L19.5042 93.829C21.1871 91.0041 24.4264 88.9089 29.2313 87.5502L29.467 87.4845L29.4553 87.5094C27.8189 90.9206 25.1036 93.6102 21.3036 95.5809L20.766 95.8597L21.3681 95.9241L21.5072 95.9396C25.0269 96.3471 28.5163 97.9253 31.9763 100.678L32.1554 100.821L32.0727 100.824C27.2025 100.947 22.88 99.9615 19.1019 97.8676L18.8801 97.7447L18.8341 97.9941L18.8113 98.115C18.1027 101.774 15.999 104.746 12.4906 107.036L12.3583 107.122L12.3489 107.074C11.7331 103.886 12.7486 100.869 15.4075 98.0089L15.8684 97.5195L15.0055 97.6684L14.6875 97.7219L14.3749 97.7735L13.9163 97.8472L13.6175 97.8939L13.1795 97.9602L12.8943 98.002L12.6147 98.0418L12.2055 98.0978L11.8088 98.1494L11.5511 98.1813L11.2989 98.2113L11.0523 98.2393L10.6926 98.2776C10.6533 98.2816 10.6143 98.2855 10.5755 98.2894L10.3453 98.3115L10.1207 98.3317L9.90151 98.3498L9.68786 98.3661L9.47972 98.3803L9.27709 98.3926L9.07997 98.4029L8.88836 98.4113L8.70225 98.4177L8.52166 98.4222C8.49202 98.4227 8.46261 98.4232 8.43343 98.4236L8.26111 98.4251C8.23285 98.4252 8.20482 98.4252 8.17701 98.4252L8.01296 98.4237L7.84978 98.4202L7.67934 98.4144L7.50357 98.4063L7.32248 98.396L7.13606 98.3834L6.94432 98.3685C6.91192 98.3658 6.8793 98.363 6.84646 98.3602L6.64674 98.3419L6.4417 98.3214L6.23134 98.2986C6.19584 98.2946 6.16011 98.2905 6.12417 98.2863L5.90583 98.2601L5.68218 98.2317L5.45321 98.2009L5.21893 98.1679L4.97934 98.1326C4.93896 98.1266 4.89836 98.1204 4.85755 98.1142L4.60998 98.0755L4.35711 98.0346L4.09892 97.9914L3.83543 97.9459C3.79107 97.9381 3.74649 97.9303 3.70169 97.9223L3.43023 97.8734L3.15347 97.8223L2.8714 97.7689L2.58403 97.7132L2.29135 97.6553L1.84239 97.5641L1.38151 97.4679L1.10547 97.4089L1.20807 97.3613C5.62565 95.3301 10.5294 94.7671 15.924 95.6738L16.6582 95.7972L16.0642 95.3484C13.3442 93.2937 12.4522 90.2932 13.3912 86.3121L13.4279 86.1592Z" fill="white"/>
<path d="M33.2081 87.0862L33.1537 87.3129L33.1305 87.4115C32.6253 89.6055 32.9552 91.3486 34.1247 92.6194L34.1913 92.6902L34.0828 92.6748C31.2625 92.2898 28.6859 92.7194 26.3581 93.9646L25.9346 94.1912L26.5304 94.3334L26.7831 94.3923L27.0297 94.4485L27.2702 94.5017L27.5045 94.5521L27.7327 94.5996C27.7702 94.6073 27.8075 94.6148 27.8445 94.6223L28.0636 94.6655L28.2765 94.7059L28.4833 94.7434L28.6841 94.778L28.8787 94.8098L29.0672 94.8387C29.0981 94.8433 29.1288 94.8477 29.1592 94.8521L29.3386 94.8767L29.5119 94.8985C29.739 94.9255 29.9498 94.945 30.1444 94.9568L30.2874 94.9642L30.4242 94.9688L30.4873 94.9699C30.6304 94.9719 30.7845 94.9694 30.9499 94.9625L31.1189 94.9541C31.2341 94.9476 31.3543 94.9391 31.4794 94.9286L31.6708 94.9114C31.7033 94.9083 31.7361 94.9051 31.7693 94.9018L31.9718 94.8802L32.1819 94.8557L32.3993 94.8282C32.4362 94.8234 32.4734 94.8185 32.5109 94.8134L32.7396 94.7815C32.7783 94.776 32.8174 94.7703 32.8567 94.7645L33.0966 94.7282L33.344 94.6891L33.5989 94.6469L33.8612 94.6019L33.9803 94.5808L33.9567 94.6111C32.646 96.2968 32.1823 98.089 32.5737 99.9761L32.6289 100.242L32.8543 100.09L32.9518 100.024C34.889 98.6849 36.0841 96.9424 36.53 94.8033L36.5433 94.7373L36.5468 94.7394C38.6586 95.9457 41.0703 96.4863 43.7778 96.3617L44.2211 96.3413L43.8915 96.0441L43.7846 95.9485C41.9671 94.3352 40.1263 93.3556 38.2627 93.0139L38.2301 93.0081L38.2319 93.0072C40.1757 91.807 41.5667 90.2007 42.4006 88.1916L42.5453 87.843L42.1822 87.9463L42.0543 87.9832C39.5086 88.7285 37.7169 89.8756 36.688 91.4285L36.6431 91.4971L36.629 91.4381C36.141 89.4711 35.0683 88.0521 33.415 87.1936L33.2081 87.0862Z" fill="#0F175F"/>
<path d="M33.4551 87.6309L33.4917 87.6517C35.0403 88.5452 36.0026 89.9988 36.3834 92.0265L36.4788 92.5349L36.7233 92.0791L36.7661 92.0009C37.648 90.4177 39.3181 89.2315 41.786 88.4465L41.9071 88.4085L41.8686 88.4916C40.9833 90.3668 39.563 91.8533 37.6034 92.9542L37.1132 93.2296L37.6717 93.2943L37.7792 93.3075C39.606 93.5445 41.4203 94.4222 43.223 95.9449L43.3019 96.0121L43.1793 96.0139C40.6809 96.0387 38.4574 95.4647 36.5051 94.2926L36.2763 94.1552L36.2315 94.4184L36.2125 94.5256C35.8337 96.5928 34.7439 98.2779 32.9362 99.5879L32.8799 99.6281C32.5848 97.8015 33.1475 96.0737 34.5769 94.4315L34.9213 94.0358L34.2819 94.1556L34.0388 94.2L33.8017 94.2421L33.5705 94.2819L33.3453 94.3194L33.1261 94.3546L32.9128 94.3875L32.7055 94.4181L32.5042 94.4463L32.3089 94.4723C32.2768 94.4764 32.245 94.4805 32.2134 94.4844L32.0271 94.5069L31.8467 94.5271C31.8171 94.5303 31.7878 94.5334 31.7588 94.5364L31.5874 94.5531L31.422 94.5676C31.3949 94.5698 31.3681 94.5719 31.3416 94.5739L31.1852 94.5849L31.0348 94.5936L30.8904 94.6C30.8669 94.6009 30.8435 94.6017 30.8205 94.6024L30.6851 94.6053C30.5969 94.6065 30.5127 94.6062 30.4325 94.6043L30.3686 94.6025C30.0875 94.5932 29.7645 94.5647 29.3997 94.5171L29.2138 94.4917L29.0209 94.4631C28.9882 94.458 28.9552 94.4529 28.9218 94.4476L28.7185 94.4142L28.5082 94.3775L28.291 94.3377L28.0668 94.2947L27.8356 94.2485L27.5974 94.1991L27.3524 94.1465L27.1003 94.0907C27.0577 94.0812 27.0148 94.0715 26.9717 94.0616L26.9921 94.0519C29.3193 92.9335 31.8959 92.6316 34.7273 93.1471L35.4217 93.2735L34.8755 92.8265C33.4473 91.6578 32.9677 89.9547 33.4428 87.6885L33.4551 87.6309Z" fill="white"/>
<path fill-rule="evenodd" clip-rule="evenodd" d="M108.875 122.736H134.407L136.231 143.343H107.052L108.875 122.736Z" fill="#5B7AFF"/>
<path fill-rule="evenodd" clip-rule="evenodd" d="M105.045 141.52H138.237C141.258 141.52 143.708 143.969 143.708 146.991H99.5742C99.5742 143.969 102.024 141.52 105.045 141.52Z" fill="#0F175F"/>
<path fill-rule="evenodd" clip-rule="evenodd" d="M61.8237 24.4377H181.641C184.663 24.4377 187.112 26.8873 187.112 29.9089V121.824C187.112 124.845 184.663 127.295 181.641 127.295H61.8237C58.802 127.295 56.3525 124.845 56.3525 121.824V29.9089C56.3525 26.8873 58.802 24.4377 61.8237 24.4377Z" fill="#5B7AFF"/>
<path fill-rule="evenodd" clip-rule="evenodd" d="M61.8232 29.9089H181.636V109.058H61.8232V29.9089Z" fill="white"/>
<path fill-rule="evenodd" clip-rule="evenodd" d="M103.404 46.5046H105.41V109.24H103.404V46.5046Z" fill="#5B7AFF"/>
<path fill-rule="evenodd" clip-rule="evenodd" d="M94.833 48.5107V46.5046H137.508V48.5107H94.833Z" fill="#5B7AFF"/>
<path fill-rule="evenodd" clip-rule="evenodd" d="M86.4434 55.4409L89.8424 53.4348H144.907L147.173 55.4409H86.4434Z" fill="#5B7AFF"/>
<path fill-rule="evenodd" clip-rule="evenodd" d="M103.94 55.2584H101.354L94.9679 49.0287L88.6653 55.1774H86.0791L93.6748 47.7672L94.886 46.5857L94.9691 46.5046H97.5552L96.261 47.7672L102.655 54.0048L109.049 47.7672L107.837 46.5857H110.26L110.343 46.5046H112.929L111.635 47.7672L117.237 53.2329L122.84 47.7672L121.629 46.5857H124.051L124.134 46.5046H126.72L125.426 47.7672L130.802 53.0123L136.179 47.7672L134.968 46.5857H137.39L137.473 46.5046L138.765 47.7672L146.444 55.2584H143.858L137.472 49.0287L132.096 54.2738L133.105 55.2584H130.519L130.436 55.1774H128.583L129.509 54.2738L124.133 49.0287L118.53 54.4944L119.314 55.2584H116.727L116.644 55.1774H115.244L115.944 54.4944L110.342 49.0287L104.039 55.1774H103.857L103.94 55.2584Z" fill="#5B7AFF"/>
<path fill-rule="evenodd" clip-rule="evenodd" d="M95.9268 46.5046H97.9328V109.24H95.9268V46.5046Z" fill="#5B7AFF"/>
<path fill-rule="evenodd" clip-rule="evenodd" d="M98.4886 91.2716L104.017 96.896L105.321 95.5687V98.2234L105.411 98.3144V101.149L104.017 99.7303L95.7451 108.146V105.312L102.624 98.3132L97.0957 92.6888L95.7451 94.0629V91.2286L95.8346 91.1375V88.5714L97.0957 89.8545L102.624 84.2301L97.0957 78.6058L95.7451 79.9799V77.1455L95.8346 77.0545V74.4884L97.0957 75.7714L102.624 70.1471L97.0957 64.5227L95.7451 65.8968V63.0625L95.8346 62.9714V60.4053L97.0957 61.6884L102.624 56.064L95.8346 49.1566V46.3223L104.017 54.6469L105.321 53.3195V55.9742L105.411 56.0653V58.8996L104.017 57.4812L98.4886 63.1055L104.017 68.7299L105.321 67.4026V70.0573L105.411 70.1483V72.9826L104.017 71.5642L98.4886 77.1886L104.017 82.813L105.321 81.4856V84.1403L105.411 84.2314V87.0657L104.017 85.6473L98.4886 91.2716Z" fill="#5B7AFF"/>
<path fill-rule="evenodd" clip-rule="evenodd" d="M127.566 98.1155H137.773C138.024 98.1155 138.227 98.3188 138.227 98.5695V108.786C138.227 109.037 138.024 109.24 137.773 109.24H127.566C127.315 109.24 127.112 109.037 127.112 108.786V98.5695C127.112 98.3188 127.315 98.1155 127.566 98.1155Z" fill="#5B7AFF"/>
<path fill-rule="evenodd" clip-rule="evenodd" d="M139.248 98.1155H149.455C149.705 98.1155 149.909 98.3188 149.909 98.5695V108.786C149.909 109.037 149.705 109.24 149.455 109.24H139.248C138.997 109.24 138.794 109.037 138.794 108.786V98.5695C138.794 98.3188 138.997 98.1155 139.248 98.1155Z" fill="#EC539C"/>
<path fill-rule="evenodd" clip-rule="evenodd" d="M133.124 86.991H143.331C143.581 86.991 143.785 87.1943 143.785 87.445V97.6615C143.785 97.9123 143.581 98.1156 143.331 98.1156H133.124C132.873 98.1156 132.67 97.9123 132.67 97.6615V87.445C132.67 87.1943 132.873 86.991 133.124 86.991Z" fill="#5BC587"/>
<rect x="144.438" y="56.1704" width="0.729483" height="18.4195" fill="#5B7AFF"/>
<path fill-rule="evenodd" clip-rule="evenodd" d="M146.789 72.219C148.082 72.9458 148.969 74.3312 148.997 75.9351C149.025 77.598 148.124 79.0583 146.778 79.8086L146.711 75.9751L142.712 76.045L142.779 79.8786C141.407 79.1758 140.455 77.7479 140.426 76.085C140.399 74.4811 141.236 73.0656 142.504 72.2939L146.789 72.219Z" fill="#5B7AFF"/>
<circle cx="144.62" cy="54.529" r="2.37082" fill="#0F175F"/>
<path fill-rule="evenodd" clip-rule="evenodd" d="M56.3525 114.529H187.112V121.824C187.112 124.845 184.663 127.295 181.641 127.295H61.8237C58.802 127.295 56.3525 124.845 56.3525 121.824V114.529Z" fill="#0F175F"/>
<path d="M66.0179 16.9604H36.1091C33.994 16.9604 32.2793 18.6751 32.2793 20.7902V36.6565C32.2793 38.7716 33.994 40.4863 36.1091 40.4863H66.0179C68.133 40.4863 69.8477 38.7716 69.8477 36.6565V20.7902C69.8477 18.6751 68.133 16.9604 66.0179 16.9604Z" fill="#0F175F"/>
<path d="M36.1086 17.3252H66.0174C67.9311 17.3252 69.4825 18.8765 69.4825 20.7902V36.6565C69.4825 38.5702 67.9311 40.1215 66.0174 40.1215H36.1086C34.1949 40.1215 32.6436 38.5702 32.6436 36.6565V20.7902C32.6436 18.8765 34.1949 17.3252 36.1086 17.3252Z" fill="white"/>
<circle cx="40.0299" cy="28.9058" r="4.28571" fill="#EC539C"/>
<rect x="46.5059" y="24.9849" width="8.57143" height="0.547112" rx="0.273556" fill="#0F175F"/>
<path fill-rule="evenodd" clip-rule="evenodd" d="M46.5059 28.7235C46.5059 28.5724 46.6283 28.45 46.7794 28.45H65.0165C65.1676 28.45 65.2901 28.5724 65.2901 28.7235C65.2901 28.8746 65.1676 28.9971 65.0165 28.9971H58.4996H46.7794C46.6283 28.9971 46.5059 28.8746 46.5059 28.7235Z" fill="#0F175F"/>
<path fill-rule="evenodd" clip-rule="evenodd" d="M46.5059 32.1886C46.5059 32.0375 46.6283 31.915 46.7794 31.915H65.0165C65.1676 31.915 65.2901 32.0375 65.2901 32.1886C65.2901 32.3397 65.1676 32.4622 65.0165 32.4622H58.4996H46.7794C46.6283 32.4622 46.5059 32.3397 46.5059 32.1886Z" fill="#0F175F"/>
<path d="M224.316 28.6323H194.407C192.292 28.6323 190.577 30.347 190.577 32.4621V48.3284C190.577 50.4435 192.292 52.1582 194.407 52.1582H224.316C226.431 52.1582 228.146 50.4435 228.146 48.3284V32.4621C228.146 30.347 226.431 28.6323 224.316 28.6323Z" fill="#0F175F"/>
<path d="M194.406 28.9971H224.315C226.229 28.9971 227.78 30.5484 227.78 32.4621V48.3284C227.78 50.2421 226.229 51.7934 224.315 51.7934H194.406C192.493 51.7934 190.941 50.2421 190.941 48.3284V32.4621C190.941 30.5484 192.493 28.9971 194.406 28.9971Z" fill="white"/>
<circle cx="198.328" cy="40.5777" r="4.28571" fill="#5BC587"/>
<rect x="204.804" y="36.6567" width="8.57143" height="0.547112" rx="0.273556" fill="#0F175F"/>
<path fill-rule="evenodd" clip-rule="evenodd" d="M204.804 40.3954C204.804 40.2443 204.926 40.1218 205.077 40.1218H223.314C223.465 40.1218 223.588 40.2443 223.588 40.3954C223.588 40.5465 223.465 40.6689 223.314 40.6689H216.797H205.077C204.926 40.6689 204.804 40.5465 204.804 40.3954Z" fill="#0F175F"/>
<path fill-rule="evenodd" clip-rule="evenodd" d="M204.804 43.8605C204.804 43.7094 204.926 43.5869 205.077 43.5869H223.314C223.465 43.5869 223.588 43.7094 223.588 43.8605C223.588 44.0116 223.465 44.134 223.314 44.134H216.797H205.077C204.926 44.134 204.804 44.0116 204.804 43.8605Z" fill="#0F175F"/>
<path fill-rule="evenodd" clip-rule="evenodd" d="M166.972 0H184.304C185.368 0 186.23 0.862226 186.23 1.92584V19.2584C186.23 20.322 185.368 21.1842 184.304 21.1842H166.972C165.908 21.1842 165.046 20.322 165.046 19.2584V1.92584C165.046 0.862226 165.908 0 166.972 0Z" fill="#5B7AFF"/>
<path fill-rule="evenodd" clip-rule="evenodd" d="M170.911 6.97885L171.784 6.10544C171.852 6.03795 171.957 6.02506 172.038 6.07416L172.809 6.53683C173.311 6.21424 173.875 5.97948 174.478 5.85427L174.699 4.97225C174.722 4.87965 174.805 4.8147 174.9 4.8147H176.136C176.231 4.8147 176.314 4.87965 176.337 4.97225L176.558 5.85468V5.86537C177.154 5.99566 177.709 6.23288 178.204 6.55589L178.218 6.54214L178.998 6.07416C179.079 6.02506 179.184 6.03795 179.252 6.10544L180.125 6.97885C180.193 7.04633 180.206 7.15109 180.156 7.23294L179.688 8.0129L179.67 8.03133C179.988 8.52528 180.221 9.07929 180.348 9.67259H180.376L181.258 9.89319C181.351 9.91634 181.416 9.99954 181.416 10.095V11.3302C181.416 11.4256 181.351 11.5088 181.258 11.5319L180.376 11.7526H180.35C180.224 12.3469 179.991 12.902 179.673 13.397L179.688 13.4122L180.156 14.1922C180.206 14.274 180.193 14.3788 180.125 14.4463L179.252 15.3197C179.184 15.3872 179.079 15.4001 178.998 15.351L178.218 14.883L178.209 14.8741C177.713 15.1988 177.156 15.4371 176.558 15.5678V15.5705L176.337 16.4529C176.314 16.5455 176.231 16.6104 176.136 16.6104H174.9C174.805 16.6104 174.722 16.5455 174.699 16.4529L174.48 15.5794C173.873 15.4538 173.307 15.2173 172.803 14.8922L172.038 15.351C171.957 15.4001 171.852 15.3872 171.784 15.3197L170.911 14.4463C170.843 14.3788 170.83 14.274 170.88 14.1922L171.335 13.4337C171.003 12.9277 170.762 12.3575 170.633 11.7457L169.778 11.5319C169.685 11.5088 169.62 11.4256 169.62 11.3302V10.095C169.62 9.99954 169.685 9.91634 169.778 9.89319L170.635 9.67895C170.764 9.0689 171.006 8.50028 171.337 7.99563L170.88 7.23294C170.83 7.15109 170.843 7.04633 170.911 6.97885ZM175.544 13.3185C176.981 13.3185 178.146 12.1536 178.146 10.7165C178.146 9.27946 176.981 8.1145 175.544 8.1145C174.107 8.1145 172.942 9.27946 172.942 10.7165C172.942 12.1536 174.107 13.3185 175.544 13.3185Z" fill="white"/>
<path fill-rule="evenodd" clip-rule="evenodd" d="M187.477 61.7871C187.477 61.7871 186.191 66.8338 186.191 67.9064C186.191 68.9791 189.483 69.0273 189.483 69.0273L187.477 61.7871Z" fill="#0F175F"/>
<path fill-rule="evenodd" clip-rule="evenodd" d="M191.561 66.0183L188.914 66.6231L188.676 69.0544L187.355 69.4461L186.978 72.0365H192.449L192.479 69.5213L191.127 69.1298L191.561 66.0183Z" fill="#FFB5B9"/>
<path fill-rule="evenodd" clip-rule="evenodd" d="M188.754 68.3891C188.754 68.3891 189.961 68.0201 190.422 67.621C190.882 67.2218 191.489 66.0183 191.489 66.0183L188.851 67.4378L188.754 68.3891Z" fill="#FF9595"/>
<path fill-rule="evenodd" clip-rule="evenodd" d="M188.751 60.5471C187.292 60.5471 187.485 61.8606 187.485 63.3594V65.0948C187.485 66.5936 188.778 67.9065 188.96 67.9065C189.143 67.9065 191.854 66.5516 191.854 65.7544C191.854 64.9572 192.237 63.0909 192.237 63.0909C192.237 63.0909 190.209 60.5471 188.751 60.5471Z" fill="#FFB5B9"/>
<path fill-rule="evenodd" clip-rule="evenodd" d="M189.108 60.1888C186.777 59.6965 186.947 61.3696 187.476 62.2211C188.006 63.0726 189.756 62.7024 191.032 63.2662C191.312 64.386 191.564 64.3979 191.707 64.3979C191.713 64.3979 191.719 64.399 191.728 64.4013C191.706 64.683 191.819 64.9758 192.052 65.1683C191.959 65.2953 191.927 65.4534 191.953 65.6038C191.792 65.8276 191.546 66.1367 191.216 66.531C189.868 69.1732 190.703 69.2444 193.12 69.3864C195.538 69.5284 193.025 62.0371 192.967 62.0806C192.253 61.1528 191.052 60.5994 189.108 60.1888ZM199.494 67.1471C199.476 67.146 199.458 67.1451 199.44 67.1443C199.442 67.1289 199.444 67.1135 199.446 67.0983C199.461 67.1151 199.478 67.1314 199.494 67.1471Z" fill="#0F175F"/>
<path d="M190.132 63.5706C189.898 63.2596 189.613 63.2596 189.381 63.5711C189.339 63.6276 189.351 63.7076 189.407 63.7498C189.464 63.7919 189.544 63.7803 189.586 63.7238C189.716 63.549 189.796 63.549 189.929 63.7243C189.971 63.7806 190.051 63.7918 190.107 63.7494C190.164 63.7069 190.175 63.6269 190.132 63.5706Z" fill="#021768"/>
<path d="M188.308 63.5706C188.074 63.2596 187.789 63.2596 187.557 63.5711C187.515 63.6276 187.526 63.7076 187.583 63.7498C187.639 63.7919 187.719 63.7803 187.762 63.7238C187.892 63.549 187.972 63.549 188.104 63.7243C188.147 63.7806 188.227 63.7918 188.283 63.7494C188.339 63.7069 188.351 63.6269 188.308 63.5706Z" fill="#021768"/>
<path d="M189.195 66.3626C189.051 66.7236 188.776 66.7972 188.469 66.5576C188.386 66.4927 188.413 66.3609 188.515 66.3336L189.043 66.192C189.145 66.1648 189.234 66.265 189.195 66.3626Z" fill="#FF9595"/>
<circle cx="0.182371" cy="0.182371" r="0.182371" transform="matrix(-1 0 0 1 189.848 64.377)" fill="#021768"/>
<circle cx="0.182371" cy="0.182371" r="0.182371" transform="matrix(-1 0 0 1 188.024 64.377)" fill="#021768"/>
<path fill-rule="evenodd" clip-rule="evenodd" d="M188.754 64.1946V65.7534C188.754 65.7534 187.91 66.0015 188.042 65.5039C188.175 65.0063 188.754 64.1946 188.754 64.1946Z" fill="#FF9595"/>
<path fill-rule="evenodd" clip-rule="evenodd" d="M191.188 66.0102C191.805 66.1693 192.474 65.9351 192.683 65.487C192.891 65.039 192.561 64.5468 191.944 64.3877C191.328 64.2286 190.572 65.8511 191.188 66.0102Z" fill="#FFB5B9"/>
<path d="M192.271 65.258C192.125 64.7111 191.804 64.6432 191.495 65.1041C191.455 65.1627 191.471 65.242 191.529 65.2813C191.588 65.3206 191.667 65.3049 191.707 65.2464L191.739 65.1985L191.769 65.1574L191.796 65.1229C191.882 65.0196 191.927 65.0301 191.977 65.1666L191.992 65.2114L192.008 65.2638L192.024 65.3239C192.043 65.392 192.113 65.4325 192.181 65.4143C192.249 65.3961 192.289 65.3262 192.271 65.258Z" fill="#F97A80"/>
<path fill-rule="evenodd" clip-rule="evenodd" d="M186.731 118.947C188.428 126.392 189.984 131.085 191.398 133.027C191.645 133.365 191.891 133.656 192.137 133.898L192.02 134.137L192.707 134.373C193.131 134.662 193.553 134.807 193.974 134.808L214.008 141.683L215.987 138.856L197.802 128.463L198.854 105.593L183.34 105.593C171.388 111.257 163.774 114.84 160.497 116.342C159.322 116.881 158.696 117.479 158.618 118.137C158.481 118.493 158.38 118.927 158.314 119.438C157.851 123.013 159.613 131.063 163.601 143.589H167.052L165.068 122.011L186.731 118.947Z" fill="#5BC587"/>
<path fill-rule="evenodd" clip-rule="evenodd" d="M213.939 141.651C214.37 142.106 214.572 142.401 214.546 142.536C213.639 142.689 213.395 143.36 213.814 144.551H216.605L218.326 139.552L215.05 138.424L213.939 141.651Z" fill="#0F175F"/>
<path fill-rule="evenodd" clip-rule="evenodd" d="M163.638 143.526C163.348 144.082 163.135 144.369 162.999 144.389C160.565 144.731 159.575 145.599 159.575 146.991C160.346 146.991 162.838 146.991 167.052 146.991V143.526H163.638Z" fill="#0F175F"/>
<path fill-rule="evenodd" clip-rule="evenodd" d="M161.322 82.8601C161.061 82.7525 160.753 82.6919 160.306 82.589C159.673 82.4433 158.695 82.3788 158.561 82.4663C158.07 82.7853 159.811 83.3238 159.566 83.4859C159.125 83.7783 156.164 84.2729 156.226 84.7223C156.24 84.8249 156.864 84.8383 158.097 84.7627C156.887 85.3756 156.306 85.7356 156.353 85.8426C156.4 85.9496 157.08 85.8106 158.391 85.4256C157.334 86.1265 156.831 86.5206 156.88 86.6082C156.929 86.6957 157.534 86.4826 158.695 85.9691C157.819 86.6607 157.436 87.0307 157.546 87.0792C157.712 87.1518 159.282 86.2562 159.314 86.241C159.998 85.9166 160.615 85.623 161.163 85.3602L161.498 85.3595C161.53 85.3711 161.564 85.3791 161.6 85.3831C162.047 85.4653 174.913 87.2214 178.921 87.2634C187.584 81.0447 192.1 76.8702 192.468 74.74C192.836 72.6097 184.395 70.9189 183.904 71.6296C180.235 76.9367 179.16 78.9281 176.683 81.8224C172.936 82.6119 168.33 83.0281 162.867 83.071C162.106 83.0414 161.591 82.9711 161.322 82.8601Z" fill="#FFB5B9"/>
<path fill-rule="evenodd" clip-rule="evenodd" d="M198.384 85.0142L200.15 84.9007C200.03 78.0176 198.871 73.7886 196.675 72.214C196.528 72.1087 196.383 72.0166 196.24 71.9377C196.204 71.9108 196.167 71.8838 196.129 71.8568C195.678 71.534 194.577 70.802 192.827 69.6608C191.656 70.8749 190.439 71.4488 189.177 71.3824C187.915 71.316 187.199 70.628 187.273 69.5278C185.86 69.9418 184.623 70.6371 183.562 71.6138C183.535 71.6378 183.509 71.6686 183.482 71.7061C183.464 71.6806 183.445 71.6551 183.427 71.6296L177.9 80.2504L181.242 83.176C180.432 89.1756 179.486 97.4973 178.403 108.141L198.99 109.04C199.201 109.049 199.38 108.885 199.389 108.674C199.389 108.663 199.389 108.652 199.389 108.642C198.965 98.1673 198.63 90.2915 198.384 85.0142Z" fill="#EC539C"/>
<path fill-rule="evenodd" clip-rule="evenodd" d="M192.808 85.625L190.949 79.9365L192.819 91.2879L181.545 95.5662C190.761 97.9449 196.126 98.865 197.638 98.3265C198.98 97.8485 199.276 91.5496 199.041 85.3526C199.028 85.0199 196.951 85.1107 192.808 85.625Z" fill="#0F175F"/>
<path fill-rule="evenodd" clip-rule="evenodd" d="M192.809 85.4426L193.913 90.7408C184.993 91.8918 178.94 92.4226 178.671 92.3332C178.403 92.244 178.092 92.205 177.639 92.1336C176.997 92.0324 176.018 92.0362 175.89 92.1328C175.422 92.4853 177.197 92.901 176.964 93.0798C176.544 93.4024 173.624 94.1023 173.718 94.5463C173.739 94.6476 174.362 94.6175 175.587 94.456C174.423 95.1519 173.868 95.5515 173.923 95.655C173.978 95.7584 174.645 95.5724 175.926 95.0969C174.921 95.8697 174.447 96.298 174.502 96.3819C174.557 96.4658 175.146 96.2111 176.268 95.6177C175.442 96.3688 175.086 96.7646 175.199 96.8053C175.369 96.8662 176.874 95.8632 176.904 95.8458C177.564 95.4745 178.159 95.1386 178.688 94.8382C191.164 96.5501 197.906 97.2266 198.915 96.8675C200.079 96.4528 200.519 90.7365 200.151 84.9006L192.809 85.4426Z" fill="#FFB5B9"/>
<path fill-rule="evenodd" clip-rule="evenodd" d="M192.484 69.463C191.468 70.6037 190.474 71.1741 189.503 71.1741C188.531 71.1741 187.825 70.5784 187.384 69.3872L186.535 69.7596C186.688 71.1872 187.604 71.996 189.282 72.186C190.96 72.376 192.385 71.6524 193.558 70.0152L192.484 69.463Z" fill="white"/>
<path fill-rule="evenodd" clip-rule="evenodd" d="M36.9491 55.988L39.5967 56.5929L39.8351 59.0242L41.3063 59.4531L41.533 62.0063H36.0615L36.2064 59.5288L37.3918 59.1525L36.9491 55.988Z" fill="#FFB5B9"/>
<path fill-rule="evenodd" clip-rule="evenodd" d="M39.757 58.3589C39.757 58.3589 38.5497 57.9898 38.0891 57.5907C37.6286 57.1916 37.0215 55.988 37.0215 55.988L39.6596 57.4075L39.757 58.3589Z" fill="#FF9595"/>
<path fill-rule="evenodd" clip-rule="evenodd" d="M39.7602 50.5168C41.2183 50.5168 41.0256 51.8303 41.0256 53.3291V55.0645C41.0256 56.5633 41.1564 57.8096 39.5536 57.8096C37.9508 57.8096 36.7436 57.4204 36.6571 55.7241C36.5707 54.0278 36.2734 53.0606 36.2734 53.0606C36.2734 53.0606 38.302 50.5168 39.7602 50.5168Z" fill="#FFB5B9"/>
<path d="M38.7435 53.3579C38.978 53.0469 39.2625 53.0469 39.4949 53.3585C39.537 53.415 39.5254 53.495 39.4689 53.5371C39.4124 53.5793 39.3324 53.5676 39.2902 53.5111C39.1598 53.3363 39.0796 53.3363 38.9474 53.5117C38.9049 53.5679 38.8249 53.5792 38.7686 53.5367C38.7123 53.4943 38.7011 53.4142 38.7435 53.3579Z" fill="#021768"/>
<path d="M40.3851 53.3579C40.6196 53.0469 40.9041 53.0469 41.1365 53.3585C41.1786 53.415 41.167 53.495 41.1105 53.5371C41.054 53.5793 40.974 53.5676 40.9318 53.5111C40.8014 53.3363 40.7212 53.3363 40.589 53.5117C40.5465 53.5679 40.4665 53.5792 40.4102 53.5367C40.3539 53.4943 40.3427 53.4142 40.3851 53.3579Z" fill="#021768"/>
<path fill-rule="evenodd" clip-rule="evenodd" d="M40.1124 56.5002C39.9787 56.8631 39.8191 57.0107 39.6338 56.9432C39.4484 56.8756 39.3547 56.6864 39.3525 56.3755L40.1124 56.5002Z" fill="#0F175F"/>
<path fill-rule="evenodd" clip-rule="evenodd" d="M40.1124 56.4484C40.0725 56.4832 40.0376 56.5073 40.0079 56.5204C39.7688 56.5285 39.5503 56.4802 39.3525 56.3754L40.1124 56.4484Z" fill="white"/>
<circle cx="39.2107" cy="54.529" r="0.182371" fill="#021768"/>
<circle cx="40.8513" cy="54.529" r="0.182371" fill="#021768"/>
<path fill-rule="evenodd" clip-rule="evenodd" d="M40.1221 54.3467V55.9055C40.1221 55.9055 40.9664 56.1536 40.8335 55.656C40.7006 55.1584 40.1221 54.3467 40.1221 54.3467Z" fill="#FF9595"/>
<path fill-rule="evenodd" clip-rule="evenodd" d="M36.7783 55.8056C36.7783 55.8056 36.5347 54.3147 36.7762 54.1384C37.0177 53.9622 37.1868 54.9351 37.4161 54.8928C37.6454 54.8505 37.7277 53.6419 37.7277 53.6419C37.7277 53.6419 37.8587 53.6517 38.0423 53.4838C38.2259 53.3159 38.0423 51.9923 38.0423 51.9923C38.0423 51.9923 40.0575 52.7682 41.1944 52.5789C42.3313 52.3895 42.7749 50.2002 41.6867 49.4154C40.5985 48.6307 41.5251 50.7682 39.0054 50.232C36.4857 49.6957 36.4545 51.214 36.4545 51.214C36.4545 51.214 36.1605 51.3087 36.1133 52.1898C36.0661 53.071 36.7783 55.8056 36.7783 55.8056Z" fill="#0F175F"/>
<path fill-rule="evenodd" clip-rule="evenodd" d="M37.3222 55.9799C36.7057 56.139 36.0368 55.9048 35.8282 55.4568C35.6195 55.0087 35.9501 54.5165 36.5666 54.3574C37.1831 54.1983 37.9388 55.8208 37.3222 55.9799Z" fill="#FFB5B9"/>
<path d="M36.2397 55.2275C36.3857 54.6806 36.7069 54.6127 37.0162 55.0736C37.0554 55.1322 37.0398 55.2115 36.9813 55.2508C36.9227 55.29 36.8434 55.2744 36.8041 55.2159L36.7714 55.168L36.7416 55.1268L36.7146 55.0924C36.6288 54.989 36.5837 54.9995 36.5338 55.1361L36.5187 55.1809L36.503 55.2333L36.4864 55.2934C36.4682 55.3615 36.3982 55.402 36.3301 55.3838C36.262 55.3656 36.2215 55.2956 36.2397 55.2275Z" fill="#F97A80"/>
<path fill-rule="evenodd" clip-rule="evenodd" d="M55.1594 118.281C54.6967 114.706 52.7735 107.133 49.3897 95.5625L36.0186 95.9272H29.4809L30.1948 121.139L28.085 143.708H31.5183L41.3008 106.113L48.5862 120.162L48.2451 143.708H51.6963C54.4677 130.332 55.6221 121.856 55.1594 118.281Z" fill="#0F175F"/>
<path fill-rule="evenodd" clip-rule="evenodd" d="M31.4985 143.526C31.7883 144.082 32.0013 144.37 32.1375 144.389C34.5717 144.732 35.5622 145.599 35.5622 146.991C34.7907 146.991 32.2983 146.991 28.085 146.991V143.526H31.4985Z" fill="#0F175F"/>
<path fill-rule="evenodd" clip-rule="evenodd" d="M51.7417 143.526C52.0314 144.082 52.2444 144.37 52.3807 144.389C54.8148 144.732 55.8053 145.599 55.8053 146.991C55.0338 146.991 52.5414 146.991 48.3281 146.991V143.526H51.7417Z" fill="#0F175F"/>
<path fill-rule="evenodd" clip-rule="evenodd" d="M31.5365 62.6963C33.5145 61.824 34.0665 64.6919 33.1926 71.2999L23.6212 78.756L30.877 89.0601L28.9973 91.2523C20.8447 84.7968 16.4497 80.8324 15.8123 79.3592C14.8562 77.1494 28.5696 64.0047 31.5365 62.6963Z" fill="#FFB5B9"/>
<path fill-rule="evenodd" clip-rule="evenodd" d="M62.7075 74.7609C60.8738 76.3214 45.8715 71.4662 43.7528 69.0115C42.3404 67.3749 41.7034 64.3969 41.8418 60.0772L58.7922 67.9694C58.7922 67.9694 63.0863 55.1623 63.3273 54.8128C63.4875 54.5803 63.7129 54.3618 64.0317 54.0321C64.483 53.5653 65.2677 52.9788 65.4283 52.9788C66.014 52.9788 64.8467 54.3789 65.1403 54.3815C65.6699 54.3863 68.4225 53.1885 68.6152 53.5992C68.6592 53.6929 68.1436 54.0438 67.0683 54.6519C68.4168 54.507 69.1002 54.4924 69.1187 54.608C69.1372 54.7236 68.4918 54.9769 67.1827 55.3681C68.4503 55.3805 69.0873 55.4368 69.0939 55.5369C69.1004 55.6371 68.4768 55.788 67.2231 55.9898C68.3346 56.0927 68.8573 56.1944 68.7913 56.295C68.6922 56.4459 66.8874 56.5502 66.8522 56.5549C66.1019 56.6554 65.5088 56.6554 65.0732 56.5549C65.0732 56.5549 63.9299 73.7206 62.7075 74.7609Z" fill="#FFB5B9"/>
<path fill-rule="evenodd" clip-rule="evenodd" d="M43.6016 60.5588L53.0647 65.2325L51.0132 72.5774L47.2212 71.5944C48.0795 77.6809 49.1013 86.5517 50.2868 98.2067L29.7004 99.1053C29.4891 99.1146 29.3103 98.9507 29.3011 98.7394C29.3006 98.7287 29.3006 98.718 29.301 98.7072C29.7641 87.2612 30.1213 78.9181 30.3727 73.6782L28.6214 75.1553L23.6709 68.7652C28.7677 64.5692 31.7309 62.2883 32.5605 61.9225C33.0123 61.5996 34.1131 60.8676 35.8628 59.7264C37.034 60.9406 38.2508 61.5144 39.513 61.448C40.7752 61.3816 41.4304 60.6578 41.3562 59.5576C42.1654 59.834 42.9138 60.1576 43.6016 60.5588V60.5588Z" fill="#5BC587"/>
<path fill-rule="evenodd" clip-rule="evenodd" d="M36.2066 59.5286C37.2229 60.6694 38.2166 61.2397 39.1878 61.2397C40.1591 61.2397 40.8653 60.6441 41.3065 59.4529L42.1553 59.8253C42.0024 61.2529 41.0868 62.0617 39.4086 62.2517C37.7304 62.4417 36.3052 61.7181 35.1328 60.0808L36.2066 59.5286Z" fill="white"/>
<path fill-rule="evenodd" clip-rule="evenodd" d="M28.4362 91.1232C27.5618 89.9691 29.7436 87.6796 29.7532 87.715C29.9212 88.3324 29.5784 88.7831 29.9255 88.9101C29.9684 88.9258 32.2111 89.5591 32.2904 89.7755C32.3433 89.9198 31.654 89.9015 30.2227 89.7206C31.7415 90.3224 32.4817 90.685 32.4433 90.8085C32.405 90.932 31.5854 90.8249 29.9845 90.4873C31.3343 91.1009 31.9802 91.4775 31.9221 91.617C31.864 91.7565 31.141 91.6922 29.7532 91.4241C30.4739 91.8801 30.7859 92.1696 30.6892 92.2926C30.5442 92.477 29.3107 92.2774 28.4362 91.1232Z" fill="#FFB5B9"/>
</svg>
