<svg width="22" height="22" viewBox="0 0 22 22" fill="none" xmlns="http://www.w3.org/2000/svg">
<path d="M4 15L9 12M13 10L18 7M11 4V9M11 13V18M4 7L9 10M13 12L18 15" stroke="#141B34" stroke-width="1.5" stroke-linejoin="round"/>
<path d="M19.5 8.00001V13.5M12.5 19.5L18 16.5M3.5 16.5L9.5 19.5M2.5 14V8.00001M3.5 5.5L9.5 2.5M18.5 5.5L12.5 2.5" stroke="#141B34" stroke-width="1.5" stroke-linejoin="round"/>
<circle cx="11" cy="2.5" r="1.5" stroke="#141B34" stroke-width="1.5" stroke-linejoin="round"/>
<circle cx="11" cy="19.5" r="1.5" stroke="#141B34" stroke-width="1.5" stroke-linejoin="round"/>
<circle cx="2.5" cy="6.5" r="1.5" stroke="#141B34" stroke-width="1.5" stroke-linejoin="round"/>
<circle cx="19.5" cy="6.5" r="1.5" stroke="#141B34" stroke-width="1.5" stroke-linejoin="round"/>
<circle cx="19.5" cy="15.5" r="1.5" stroke="#141B34" stroke-width="1.5" stroke-linejoin="round"/>
<circle cx="2.5" cy="15.5" r="1.5" stroke="#141B34" stroke-width="1.5" stroke-linejoin="round"/>
<path d="M11 8.75L13 9.875V12.125L11 13.25L9 12.125V9.875L11 8.75Z" stroke="#141B34" stroke-width="1.5" stroke-linejoin="round"/>
</svg>
