<svg width="260" height="162" viewBox="0 0 260 162" fill="none" xmlns="http://www.w3.org/2000/svg">
<mask id="mask0_425_2110" style="mask-type:alpha" maskUnits="userSpaceOnUse" x="0" y="23" width="232" height="119">
<path d="M15.3125 68.2734L0.574219 23.9219H13.2344L19.332 44.1016L28.3555 24.0039H29.2305L38.2539 44.0469L44.3242 23.9219H56.9844L42.2734 68.2734H39.0469L28.7383 46.4805L18.5117 68.2734H15.3125ZM86.2148 23.9219H97.8906V68H86.2148V51.4023H73.1172V68H61.4141V23.9219H73.1172V40.4648H86.2148V23.9219ZM136.008 68L133.793 62.8594H117.332L115.09 68H102.293L122.773 23.375H128.324L148.832 68H136.008ZM121.023 54.3008H130.074L125.562 43.8555L121.023 54.3008ZM177.953 23.9219V34.8594H167.398V68H155.668V34.8594H145.086V23.9219H177.953ZM15.3125 141.273L0.574219 96.9219H13.2344L19.332 117.102L28.3555 97.0039H29.2305L38.2539 117.047L44.3242 96.9219H56.9844L42.2734 141.273H39.0469L28.7383 119.48L18.5117 141.273H15.3125ZM89.9883 107.805H72.9805V113.957H86.9805V123.719H72.9805V130.035H89.9883V141H61.4141V96.9219H89.9883V107.805ZM144.102 141L141.887 135.859H125.426L123.184 141H110.387L130.867 96.375H136.418L156.926 141H144.102ZM129.117 127.301H138.168L133.656 116.855L129.117 127.301ZM198.57 141H184.871L173.086 121.859V141H161.383L161.328 96.9219H178.062C187.578 96.9219 194.387 103.348 194.387 111.25C194.387 116.746 191.078 121.34 186.758 123.309L198.57 141ZM173.031 107.449V116.281L177.816 116.309C180.305 116.336 182.574 114.586 182.574 111.879C182.574 109.145 180.277 107.449 177.816 107.449H173.031ZM231.355 107.805H214.348V113.957H228.348V123.719H214.348V130.035H231.355V141H202.781V96.9219H231.355V107.805Z" fill="#5A5A5A"/>
</mask>
<g mask="url(#mask0_425_2110)">
<rect y="-14" width="1243" height="191" fill="url(#paint0_linear_425_2110)"/>
</g>
<defs>
<linearGradient id="paint0_linear_425_2110" x1="-2.4885e-07" y1="1.5" x2="1170.46" y2="393.564" gradientUnits="userSpaceOnUse">
<stop stop-color="#004AAD"/>
<stop offset="0.295786" stop-color="#E8F2FF"/>
<stop offset="0.662766" stop-color="#004AAD"/>
<stop offset="1" stop-color="#E8F2FF"/>
</linearGradient>
</defs>
</svg>
