<svg width="389" height="27" viewBox="0 0 389 27" fill="none" xmlns="http://www.w3.org/2000/svg">
<path d="M8.53125 26.3125L0.328125 0.8125H5.78125L9.65625 13.5156L15.0625 0.90625H15.1562L20.5469 13.5L24.4062 0.8125H29.875L21.6719 26.3125H21.375L15.0469 12.625L8.8125 26.3125H8.53125ZM47.5938 5.79688H37.4688V10.7188H46.1562V15.7656H37.4688V20.9688H47.5938V26H32.4062V0.8125H47.5938V5.79688ZM63.125 11.8125C65.5469 11.8125 68.6875 14.3125 68.6875 18.3594C68.6875 22.0781 66.0156 26 60.8281 26H51.3125V0.8125H58.1875C62.6562 0.8125 65.5 4.09375 65.5 7.48438C65.5 10.1562 63.7344 11.8125 63.125 11.8125ZM58.5 5.73438H56.3594V10.6562H58.4062C59.6094 10.6562 60.7812 9.625 60.7812 8.15625C60.7812 6.73438 59.6719 5.73438 58.5 5.73438ZM60.3594 21.0625C62 21.0625 63.75 19.9375 63.75 18C63.75 16.5469 62.75 15.0938 60.3438 15.0938H56.3594V21.0625H60.3594ZM79.0781 26.5C74.9531 26.5 71.9062 24.7812 70.2188 21.6562L74.2656 18.8125C75.375 20.5938 76.9844 21.4062 79.1562 21.4062C81.5312 21.4062 83.125 20.4375 83.125 19.0938C83.125 17.25 80.1094 15.7969 77.4688 14.4844C74.6406 13.0781 71.5312 11.5312 71.5312 7.51562C71.5312 3.15625 75.2188 0.28125 79.8438 0.28125C83.2812 0.28125 86.125 1.70312 87.2656 4.75L83.5312 7.35938C82.7812 5.85938 81.3281 5.25 79.9219 5.25C78.0312 5.25 76.625 6.34375 76.625 7.64062C76.625 9.14062 78.5312 9.65625 81.4219 11.0156C85.5938 12.9844 88.2188 15.1094 88.2188 18.9844C88.2188 23.5781 84.4688 26.5 79.0781 26.5ZM91.2812 26V0.8125H96.3438V26H91.2812ZM116.656 0.8125V5.82812H110.469V26H105.391V5.82812H99.1875V0.8125H116.656ZM134.688 5.79688H124.562V10.7188H133.25V15.7656H124.562V20.9688H134.688V26H119.5V0.8125H134.688V5.79688ZM155.109 0.8125C163.25 0.796875 168.219 5.57812 168.219 13.4375C168.219 21.25 163.25 26 155.109 26H147.781V0.828125L155.109 0.8125ZM155.141 20.9531C160.094 20.9531 163.109 18.1094 163.109 13.4219C163.109 8.70312 160.078 5.82812 155.094 5.82812H152.828V20.9531H155.141ZM186.688 5.79688H176.562V10.7188H185.25V15.7656H176.562V20.9688H186.688V26H171.5V0.8125H186.688V5.79688ZM206.828 0.8125H212.25L200.469 26.625H200.281L188.547 0.8125H193.906L200.359 15.4375L206.828 0.8125ZM229.969 5.79688H219.844V10.7188H228.531V15.7656H219.844V20.9688H229.969V26H214.781V0.8125H229.969V5.79688ZM238.75 20.9688H248.875V26H233.688V0.8125H238.75V20.9688ZM262.922 26.4844C255.734 26.4844 249.844 20.6094 249.844 13.4375C249.844 6.20312 255.734 0.296875 262.938 0.296875C270.141 0.296875 276.047 6.20312 276.047 13.4375C276.047 20.6094 270.141 26.4844 262.922 26.4844ZM262.922 21.3594C267.328 21.3594 270.922 17.7812 270.922 13.4062C270.922 9 267.328 5.40625 262.922 5.40625C258.531 5.40625 254.953 9 254.953 13.4062C254.953 17.7812 258.531 21.3594 262.922 21.3594ZM279.344 26V0.8125H288.188C293.062 0.8125 297.047 4.64062 297.047 9.32812C297.047 14 293.062 17.8125 288.188 17.8125H284.406V26H279.344ZM288.188 12.8125C290.281 12.8281 291.984 11.2344 291.984 9.28125C291.984 7.375 290.281 5.82812 288.188 5.82812H284.406V12.7969L288.188 12.8125ZM324.297 0.1875H324.578V26H319.516V15.0312L312.266 25.5781H312.234L304.969 15.0312V26H299.906V0.1875H300.188L312.25 16.8281L324.297 0.1875ZM344.156 5.79688H334.031V10.7188H342.719V15.7656H334.031V20.9688H344.156V26H328.969V0.8125H344.156V5.79688ZM363.047 0.75H368.125V26.4688H367.891L352.938 11.9219V26.0312H347.875V0.34375H348.125L363.047 14.8594V0.75ZM388.438 0.8125V5.82812H382.25V26H377.172V5.82812H370.969V0.8125H388.438Z" fill="#283C90"/>
</svg>
