<svg width="270" height="169" viewBox="0 0 270 169" fill="none" xmlns="http://www.w3.org/2000/svg">
<g clip-path="url(#clip0_909_1121)">
<path d="M43.2501 77.8045L41.474 82.4625L41.2526 83.0165L40.6252 85.0874L40.4023 85.6414L39.5157 87.7123L39.3305 88.2663L38.7388 90.3372L38.5173 90.929L37.5915 92.851L37.37 93.4428L36.7782 95.55L36.5931 96.104L35.6324 98.1371L35.4473 98.6926L34.7821 100.762L34.597 101.354L33.9681 103.425L33.8208 103.794L33.6356 103.979L33.3764 104.016L30.9003 103.942L28.0162 103.757L27.6459 103.683L27.4607 103.387L26.5364 101.576L26.3512 101.058L25.6861 99.1348L25.5387 98.6185L24.8736 96.7328L24.6884 96.2151L23.9492 94.3294L23.7263 93.8116L23.0612 91.9637L22.8775 91.6311H22.7686L22.6212 91.9637L21.9561 93.8494L21.7709 94.3671L20.8829 96.1418L20.6977 96.6595L20.1059 98.6193L19.9222 99.1355L19.2934 101.021L19.072 101.539L18.3691 103.387L18.1839 103.794L17.7773 103.979L15.4849 103.794H14.8931L12.6008 103.979L12.2682 103.794L12.1208 103.351L11.0854 101.354L10.9002 100.8L10.3825 98.6926L10.1988 98.1371L9.27448 96.0677L9.05154 95.5122L8.27459 93.5161L8.09091 92.9243L7.46134 90.8172L7.27618 90.2617L5.42749 85.6051L5.20603 85.0496L4.54091 82.9802L4.28242 82.3884L3.35807 80.4649L3.09884 79.9109L2.25079 77.8045L2.21301 77.3601L2.43447 77.1016L2.84257 76.9905H3.39659L4.83866 77.1016H5.43045L7.98129 77.1394H9.97737L10.4588 77.1756L10.6062 77.3245L10.6803 77.6934L11.5305 80.1331L11.7157 80.6886L12.4549 83.0543L12.6401 83.6083L13.5999 85.8266L13.7851 86.3806L14.5243 88.6366L14.6354 89.2284L15.0791 91.5571L15.2264 91.8896L15.4479 91.9274L15.6708 91.6311L16.2982 89.7469L16.4833 89.2292L16.9648 87.2694L17.1122 86.7139L17.6662 84.903L17.8136 84.3475L18.4424 82.4255L18.5898 81.9077L19.1816 79.9857L19.3667 79.468L19.9222 77.8785L20.0696 77.4719L20.2548 77.2867L20.6614 77.2127L22.5101 77.0653L23.0641 77.0275L23.8781 77.0653H24.4321L24.9876 77.1016L25.3565 77.249L25.5794 77.6193L25.689 77.9156L25.912 78.4318L26.3186 79.4672L26.5038 79.985L27.0578 81.907L27.2052 82.4247L27.797 84.3467L27.9458 84.8645L28.388 86.8242L28.5732 87.342L29.4612 89.1544L29.6086 89.6706L29.7197 90.5209L29.8293 91.1127L29.9782 91.6682L30.1997 91.963L30.4211 91.9267L30.6063 91.52L31.0507 89.3751L31.1981 88.8196L31.4943 88.0449L31.678 87.4894L31.9743 86.6769L32.1595 86.0851L32.5283 84.3467L32.7135 83.7549L33.3423 82.0922L33.5637 81.5381L34.2666 79.8731L34.4518 79.3191L34.8207 77.9148L34.9695 77.4704L35.191 77.2112L35.6346 77.1371L37.593 77.2845H38.1847L40.1823 77.1734H40.7741L42.7339 77.3223H43.1405L43.2879 77.4319L43.2501 77.8045Z" fill="#F7E041"/>
<path d="M67.7082 100.429L67.6719 101.021L67.5245 103.017L67.4867 103.388L67.3393 103.646L67.1542 103.794L62.311 103.942H61.7192L59.7609 103.794L59.1676 103.831L57.2456 103.979L56.6538 104.016H54.103L52.1809 103.868H51.5892L48.4102 104.053L47.1533 103.979L46.7089 103.905L46.4497 103.719L46.3386 103.46L46.2653 103.054L46.1912 102.203L46.1534 101.612L46.1912 101.057V100.502L46.3386 98.5422V97.9504L46.3764 95.9921L46.3386 95.4003L46.229 93.4405L46.1912 92.8487L46.2653 90.8512V87.71L46.4127 85.7502L46.3764 85.1584L46.2653 83.1987L46.229 82.6069V81.7188L46.3031 80.6108V80.0553L46.4127 78.1333L46.4504 77.6155L46.5615 77.3208L46.7467 77.1719L47.0415 77.1356L47.5214 77.0615L49.9249 77.2089L52.1795 77.1711H52.7713L54.9895 77.32H55.5813L57.7996 77.1711H58.3914L63.4183 77.2452L64.0471 77.2089L65.304 77.0978H66.2283L66.7461 77.2089L66.9675 77.3941L67.0416 77.6526L67.1157 78.1325V79.1302L67.0416 80.0545V80.6834L67.0794 81.6077L67.1157 82.1617L67.0794 82.7172L67.0053 83.1594L66.8579 83.4186L66.6727 83.5675L66.2283 83.6416H65.9321L65.3403 83.6779L61.8666 83.6038H61.2748L59.3891 83.6779H58.7973L56.8753 83.6038L55.211 83.4942H54.657L54.3607 83.5305L53.9919 83.6045L53.8067 83.7897L53.7689 84.0112L53.6949 84.4193L53.6208 85.3058V85.8976L53.6586 86.5264L53.6949 86.9331L53.7689 87.1923L53.9178 87.3775L54.3244 87.4871L55.5073 87.5612L56.6901 87.4871H60.2016L64.3419 87.2656L65.4892 87.3397L65.8958 87.4138L66.1172 87.5989L66.2283 87.8204L66.2646 88.2285L66.3402 88.8558L66.3765 89.4847V90.7038L66.4505 91.5541L66.3765 92.6636L66.3024 93.1072L66.155 93.3665L65.8958 93.5501L65.5255 93.6257H64.7863L63.1235 93.4405L62.5317 93.4028L59.5742 93.5879L57.2078 93.5139H56.616L55.1362 93.4028L54.5088 93.4405L54.0645 93.4768L53.8793 93.5879L53.7682 93.8472L53.7319 94.4012L53.6208 95.327L53.5845 95.9173V96.7313L53.6208 97.1001L53.7319 97.3594L53.8793 97.5082L54.2859 97.5445L56.319 97.6186H56.9108L58.9084 97.4712L61.5318 97.6186H62.1251L64.7485 97.4712H65.304L65.858 97.509L67.1897 97.6564L67.4112 97.7675L67.5586 97.9889L67.5963 98.3955L67.7082 100.429Z" fill="#F7E041"/>
<path d="M96.263 95.7715L96.2252 96.3633L96.1511 97.3254L96.04 97.8794L95.7808 98.6564L95.5594 99.1741L95.189 99.877L94.8565 100.357L94.2647 101.06L93.8581 101.466L92.9337 102.132L92.4537 102.428L91.936 102.686L91.3805 102.945L90.7887 103.13L90.2347 103.315L88.5697 103.648L87.7209 103.759L87.1291 103.795L86.2411 103.869H85.6493L83.6162 103.945H80.3995L78.3301 103.834H77.7383L75.7052 103.908H75.1497L73.7454 103.87L73.1536 103.796L72.6359 103.722L72.3411 103.612L72.1559 103.427L72.0819 103.019L72.0441 102.503L72.0819 101.947V101.355L72.1181 101.061V100.432L72.2292 98.472L72.1915 97.8802L72.1552 96.9558L72.1174 96.4018L72.0811 95.8841V95.3301L72.1174 94.4042V92.7785L72.2648 90.8187V90.2269L72.1907 88.2671V87.6753L72.1544 85.7155L72.1907 85.1238L72.3018 83.164L72.3396 82.5722L72.1907 80.6139L72.1544 80.0221L72.0433 78.9126V78.0623L72.1907 77.5823L72.5611 77.3594L73.0788 77.2853L73.6706 77.2476L77.6998 77.1379L80.9165 77.3231L82.9126 77.2476H83.5043L85.5374 77.2853H86.1292L88.2742 77.4327L88.903 77.5068L89.5304 77.6179L90.9347 78.0623L91.4902 78.3215L92.193 78.6904L92.673 79.0229L93.3003 79.5406L93.6707 79.9488L94.1884 80.5761L94.4476 81.056L94.8542 81.7589L95.0772 82.2766L95.2609 82.8307L95.372 83.4225L95.5194 84.3838L95.5571 84.9756L95.5194 85.6044L95.4097 86.2318L95.1868 87.0821L94.9653 87.5998L94.5587 88.3027L94.1884 88.7093L93.5966 89.2633L93.3003 89.5596L93.1907 89.8188L93.3003 90.1136L93.6344 90.4839L94.0773 90.8905L94.5217 91.3705L95.0772 92.1467L95.4097 92.7022L95.6675 93.294L95.8164 93.5888L96.0015 94.1806L96.1489 94.8094L96.223 95.4367L96.263 95.7715ZM79.4418 85.6793L79.4781 85.974L79.5159 86.5658L79.5899 86.9724L79.7373 87.1954L80.0336 87.3428L80.4758 87.3805H81.9556L82.583 87.3428H83.2118L84.062 87.4168L85.319 87.4909H86.1315L86.6129 87.3813L87.0551 87.1583L87.4254 86.8991L87.6846 86.6043L87.9061 86.234L88.0172 85.7163V85.0889L87.9061 84.6075L87.5735 84.1276L87.0558 83.7572L86.8344 83.6832L86.2803 83.5358L86.0211 83.4995L85.3923 83.4239H85.0597L83.6177 83.2403H83.0636L82.1393 83.2765L81.5475 83.3143H80.7705L80.4002 83.3884L80.0677 83.4247L79.8462 83.5358L79.6988 83.7209L79.5877 84.2009L79.4766 85.0889L79.4418 85.6793ZM87.9439 97.5832L88.2386 97.3239L88.3875 97.101L88.6467 96.547L88.7564 95.9552L88.7941 95.7337L88.7564 95.216L88.6467 94.6983L88.3505 94.1806L88.129 93.9213L87.6476 93.4414L87.0558 93.1088L86.5018 92.9237L86.2426 92.8496L85.7248 92.8118L84.0613 92.8859L83.4325 92.9237H81.2512L80.6972 92.9614L80.0321 93.0711L79.6996 93.1821L79.5885 93.3673L79.5507 93.8095V94.4383L79.5885 95.0301V95.8426L79.5144 96.4714V97.2106L79.5885 97.6172L79.7359 97.8402L79.9951 97.9876L80.475 98.0616L85.6886 97.9505L86.9454 97.8765L87.5372 97.7668L87.9439 97.5832Z" fill="#F7E041"/>
<path d="M140.573 91.2616L140.537 91.8889L140.499 92.7769L140.388 93.3687L140.129 94.219L139.945 94.8108L139.722 95.3648L139.501 95.9566L139.278 96.5854L139.056 97.1394L138.65 97.952L138.353 98.4334L137.837 99.0252L137.467 99.4318L136.838 100.024L136.025 100.836L135.545 101.244L134.843 101.798L134.363 102.093L133.622 102.501L133.142 102.723L132.329 103.017L131.774 103.203L131.182 103.351L130.59 103.461L128.336 103.794L127.782 103.831L126.968 103.905H126.376L125.193 103.868L124.233 103.794H123.641L122.458 103.868L121.532 103.905L120.905 103.943L120.349 103.905H117.762L117.208 103.868L115.617 103.72L115.322 103.573L115.137 103.388L115.063 102.981L115.027 102.389L115.063 102.093L115.137 100.985V100.467L115.175 99.617V99.0615L115.211 98.4697V97.8779L115.175 95.9181V95.3278L115.101 93.368L115.137 92.8125L115.175 92L115.249 91.4445L115.285 90.8172V90.2254L115.211 89.264L115.175 88.6367V88.3041L115.137 87.6753L115.285 85.7155V85.1237L115.248 83.1639V82.5721L115.137 80.6138V79.1717L115.175 78.5799L115.285 78.0244L115.36 77.6178L115.508 77.3964L115.914 77.2853L116.543 77.2112L117.097 77.1371L117.689 77.0994L120.943 77.1371H121.533L123.309 77.2467L123.604 77.2845H124.269L125.822 77.2105L126.376 77.1727H126.968L127.892 77.2467L129.075 77.3223L129.667 77.3964L130.629 77.5438L131.221 77.6549L131.775 77.8022L133.106 78.2822L133.66 78.5407L134.214 78.837L134.732 79.1317L135.953 79.982L136.433 80.3886L136.876 80.759L137.689 81.5359L138.059 81.9048L138.392 82.3129L138.651 82.7928L139.058 83.6053L139.279 84.1608L139.464 84.7526L139.687 85.3444L139.872 85.9362L140.02 86.528L140.167 87.3405L140.278 87.9323L140.388 88.5611L140.462 89.1529L140.5 90.0395L140.537 90.6313L140.573 91.2616ZM132.144 94.4405L132.404 93.8865L132.625 93.2576L132.774 92.7036L132.921 91.8896L132.958 91.3719L132.995 90.5216V89.3388L132.958 88.747L132.848 87.8967L132.699 87.3427L132.625 87.1213L132.33 86.5658L131.775 85.7888L131.591 85.6051L131.221 85.197L130.814 84.7904L130.37 84.4578L129.557 83.9779L129.039 83.7549L128.522 83.6453L127.93 83.5342L127.006 83.4979L126.377 83.4602H125.452L124.64 83.4224L124.084 83.4602L123.272 83.5713L122.865 83.6809L122.68 83.8661L122.569 84.3104L122.533 84.643L122.495 85.197L122.569 86.3065L122.607 86.8983L122.681 87.7123L122.755 88.3041L122.793 88.8959V89.4877L122.755 90.3002V92.0748L122.717 92.7036L122.681 93.2954L122.607 94.1079V94.6256L122.569 95.4759L122.607 96.0299L122.716 96.918L122.865 97.3246L123.087 97.5098L123.531 97.5461L126.969 97.3246L127.819 97.2868L128.411 97.1772L129.039 96.9921L129.631 96.7691L130.185 96.5121L130.665 96.1781L131.332 95.5863L131.701 95.1434L132.144 94.4405Z" fill="#F7E041"/>
<path d="M165.728 100.429L165.692 101.021L165.545 103.017L165.507 103.388L165.359 103.646L165.174 103.794L160.331 103.942H159.739L157.779 103.794L157.189 103.831L155.266 103.979L154.674 104.016H152.123L150.201 103.868H149.609L146.43 104.053L145.173 103.979L144.729 103.905L144.47 103.719L144.359 103.46L144.285 103.054L144.21 102.203L144.174 101.612L144.21 101.057V100.502L144.358 98.5422V97.9504L144.396 95.9921L144.358 95.4003L144.248 93.4405L144.21 92.8487L144.285 90.8512V87.71L144.432 85.7502L144.396 85.1584L144.285 83.1987L144.248 82.6069V81.7188L144.322 80.6108V80.0553L144.432 78.1333L144.47 77.6155L144.581 77.3208L144.764 77.1719L145.061 77.1356L145.541 77.0615L147.944 77.2089L150.199 77.1711H150.791L153.009 77.32H153.601L155.819 77.1711H156.411L161.438 77.2452L162.066 77.2089L163.323 77.0978H164.248L164.765 77.2089L164.987 77.3941L165.06 77.6526L165.134 78.1325V79.1302L165.06 80.0545V80.6834L165.098 81.6077L165.134 82.1617L165.098 82.7172L165.024 83.1594L164.875 83.4186L164.691 83.5675L164.248 83.6416H163.951L163.36 83.6779L159.886 83.6038H159.294L157.408 83.6779H156.817L154.895 83.6038L153.23 83.4942H152.676L152.38 83.5305L152.011 83.6045L151.826 83.7897L151.788 84.0112L151.715 84.4193L151.641 85.3058V85.8976L151.679 86.5264L151.715 86.9331L151.788 87.1923L151.937 87.3775L152.344 87.4871L153.527 87.5612L154.709 87.4871H158.221L162.361 87.2656L163.508 87.3397L163.915 87.4138L164.137 87.5989L164.248 87.8204L164.285 88.2285L164.359 88.8558L164.396 89.4847V90.7038L164.47 91.5541L164.396 92.6636L164.322 93.1072L164.175 93.3665L163.917 93.5501L163.546 93.6257H162.807L161.144 93.4405L160.552 93.4028L157.594 93.5879L155.228 93.5139H154.636L153.156 93.4028L152.529 93.4405L152.085 93.4768L151.9 93.5879L151.789 93.8472L151.753 94.4012L151.642 95.327L151.605 95.9173V96.7313L151.642 97.1001L151.753 97.3594L151.9 97.5082L152.307 97.5445L154.34 97.6186H154.932L156.929 97.4712L159.554 97.6186H160.144L162.769 97.4712H163.325L163.879 97.509L165.21 97.6564L165.432 97.7675L165.579 97.9889L165.617 98.3955L165.728 100.429Z" fill="#F7E041"/>
<path d="M192.396 95.624L192.359 96.2528L192.285 96.8802L192.174 97.472L191.989 98.2845L191.804 98.8022L191.471 99.5429L191.213 100.023L190.77 100.688L190.4 101.132L189.956 101.576L189.513 101.983L188.772 102.463L188.292 102.795L187.738 103.091L187.221 103.351L186.37 103.645L185.261 104.016L184.669 104.125L183.745 104.274L183.189 104.348L182.377 104.422L181.859 104.459L181.009 104.496L179.234 104.608H178.422L177.904 104.57L177.054 104.496L176.5 104.422L175.87 104.31L175.316 104.125L174.502 103.867L173.984 103.609L173.43 103.35L172.913 103.091L172.433 102.794L171.25 101.982L170.806 101.612L170.141 101.094L169.697 100.725L169.291 100.317L168.995 99.9843L168.958 99.7251L169.143 99.3925L169.291 99.2088L169.661 98.8007L170.695 97.8401L171.028 97.4334L171.656 96.4713L171.989 96.0647L172.359 95.6581L172.766 95.4351L173.173 95.5092L173.579 95.8055L174.762 96.618L175.318 96.9142L175.834 97.1735L176.684 97.5801L177.24 97.7653L177.831 97.9489L178.423 98.0601L179.273 98.0978L179.865 98.1341L182.194 97.9867L182.786 97.9127L183.082 97.8386L183.636 97.6157L184.116 97.3209L184.486 96.9505L184.671 96.6913L184.893 96.1373L184.857 95.5085L184.782 95.2137L184.486 94.696L184.301 94.4745L183.821 94.1042L183.525 93.9931L182.971 93.7716L182.342 93.6242L181.715 93.5131L178.202 93.1806L177.094 92.9591L176.502 92.8102L175.688 92.5155L175.134 92.3303L174.578 92.0718L173.321 91.4422L172.842 91.1097L172.286 90.7771L171.806 90.4446L171.179 89.9268L170.846 89.4469L170.512 88.8929L170.291 88.3374L170.031 87.5604L169.92 87.0064L169.811 86.1939L169.737 85.0111L169.773 84.4193L169.847 83.5312L169.958 82.9772L170.106 82.4958L170.291 81.9418L170.661 81.1293L170.92 80.6115L171.215 80.1679L171.585 79.7613L172.177 79.2058L172.657 78.8369L173.137 78.5044L173.655 78.2451L174.358 77.837L175.467 77.3948L176.021 77.2097L176.871 77.0623L177.463 76.9512L178.573 76.8038L179.385 76.6549L179.977 76.5809L180.533 76.5446H181.124L182.234 76.6542L182.788 76.7297L183.047 76.8038L183.639 76.8779L184.896 77.0993L185.525 77.2467L186.116 77.4319L186.744 77.617L187.336 77.8385L187.891 78.0977L188.445 78.3207L189.148 78.7273L189.666 78.9865L190.146 79.3191L190.478 79.6516V80.022L190.257 80.4286L189.85 81.1678L189.554 81.6114L188.15 83.4594L187.743 83.9771L187.299 84.346L187.002 84.457L186.743 84.4208L186.374 84.2356L185.819 83.903L185.265 83.6801L185.006 83.5705L184.451 83.3853L184.156 83.3112L183.527 83.1624L182.678 82.9787L182.085 82.9409L181.125 82.8669H180.159L179.532 82.9031L178.903 83.0142L178.311 83.1994L178.09 83.3105L177.645 83.6431L177.46 83.8645L177.201 84.3822L177.127 84.974L177.238 85.454L177.533 85.9354L177.941 86.3043L178.384 86.5272L178.642 86.6368L179.198 86.7479L180.122 86.859L181.379 86.9331L182.006 87.0442L183.263 87.339L184.446 87.7093L185.297 87.893L185.852 88.0419L186.887 88.4107L187.627 88.7433L188.144 89.0025L188.662 89.2988L189.142 89.5935L190.214 90.4816L190.62 90.926L190.991 91.3689L191.434 92.034L191.729 92.5155L191.988 93.0695L192.137 93.625L192.285 94.4375L192.359 94.9915L192.396 95.624Z" fill="#F7E041"/>
<path d="M204.056 98.0276V98.6193L203.909 100.615V101.207L203.871 103.24V103.647L203.761 103.832L203.465 103.943L202.947 103.98L201.061 103.943H198.771L196.923 103.794L196.7 103.72L196.589 103.611V103.24L196.515 102.316V101.724L196.478 101.169V100.615L196.367 98.6186L196.405 98.0268L196.515 96.0293L196.552 95.4375L196.441 93.4043V92.8126L196.405 90.8165V87.6361L196.367 85.6044V85.0126L196.405 83.0151V79.8362L196.329 77.8045L196.44 77.3979L196.663 77.249L197.031 77.2127H197.328L197.882 77.175L198.77 77.2127H199.362L201.061 77.1387H203.353L203.761 77.2127L203.835 77.4342L203.872 77.8408L203.946 78.8029L203.983 79.3947V83.0173L204.021 85.0149V85.6067L203.983 87.6383V88.2316L204.021 90.2276V90.8194L203.946 92.8155V96.0322L204.056 98.0276Z" fill="#F7E041"/>
<path d="M234.302 88.747L234.339 89.3766L234.191 91.78V95.2537L234.119 96.8069V98.9881L234.08 99.3948L233.86 99.7651L233.562 100.245L233.231 100.726L232.602 101.354L232.16 101.76L231.937 101.983L231.455 102.316L231.196 102.463L230.718 102.76L229.977 103.128L229.423 103.351L228.905 103.535L228.056 103.794L227.499 103.943L226.909 104.053L226.355 104.164L225.503 104.275L224.986 104.349L224.432 104.459L222.953 104.644L222.396 104.682L221.253 104.608L220.401 104.533L219.811 104.458L219.219 104.348L218.663 104.199L217.369 103.831L216.815 103.683L216.261 103.498L215.52 103.239L215.04 102.98L214.301 102.573L213.857 102.24L213.377 101.908L212.934 101.538L212.49 101.205L212.083 100.835L211.492 100.243L211.121 99.8006L210.715 99.2452L210.382 98.7274L209.458 97.0646L209.198 96.4729L208.94 95.9174L208.755 95.3271L208.571 94.6982L208.46 94.1064L208.349 93.4776L208.275 92.8858L208.127 92.0733L208.053 91.4815L208.016 90.9275V90.372L208.127 88.7092L208.201 88.413L208.312 87.7856L208.459 87.1561L208.644 86.5643L208.83 85.9369L209.013 85.3452L209.198 84.7897L209.458 84.1979L209.716 83.5705L209.975 83.0528L210.455 82.3877L210.788 81.9433L211.196 81.4633L211.603 81.0189L212.046 80.6123L213.007 79.7983L213.487 79.4295L213.931 79.0969L214.374 78.8007L215.595 78.0978L216.149 77.7652L216.778 77.506L217.405 77.3223L217.997 77.1734L219.365 76.952L220.438 76.8046L220.992 76.6935L221.546 76.6194L222.395 76.5453L222.988 76.5076L223.801 76.5809L224.355 76.6187L225.206 76.7298L225.724 76.8394L226.537 76.9868L227.091 77.1357L227.903 77.3949L228.46 77.5801L229.79 78.2452L230.344 78.5777L230.826 78.9103L231.009 79.0199L231.416 79.2791L231.823 79.5754L232.009 79.7606L232.416 80.0553L232.636 80.2405L232.859 80.4997V80.759L232.748 81.0182L232.528 81.3508L232.194 81.8307L231.823 82.2373L230.788 83.2728L230.123 83.8646L229.681 84.2349L229.274 84.5297L228.979 84.7526L228.756 84.9L228.462 84.9363L228.055 84.6786L227.574 84.3445L227.092 84.0497L226.574 83.7535L225.984 83.4957L225.391 83.2728L224.761 83.1254L224.135 83.0143L222.396 82.9032H222.14L221.547 82.941L220.586 83.015L219.993 83.1624L218.885 83.6801L218.403 84.0127L217.923 84.383L217.517 84.7897L217.147 85.2696L216.814 85.751L216.519 86.2688L216.296 86.8228L216.111 87.4146L215.964 87.9701L215.742 89.0781L215.631 89.6699L215.595 90.2987V90.9275L215.668 91.8141L215.778 92.4059L215.963 93.2562L216.148 93.8479L216.518 94.7345L216.778 95.2523L217.221 95.9174L217.591 96.361L218.256 96.9906L218.736 97.3594L219.477 97.7675L220.031 97.989L221.14 98.2482L221.769 98.3223L222.395 98.3601H222.988L223.581 98.2845L224.135 98.1749L226.131 97.6949L226.722 97.472L227.279 97.2128L227.646 96.9535L227.757 96.7321V96.3255L227.796 95.9929V95.4374L227.721 94.3279V93.7006L227.574 93.4776L227.167 93.4036H226.279L225.689 93.4413L224.837 93.5509L224.246 93.5887H223.395L222.804 93.5509L221.546 93.3295L221.323 93.2554L221.176 93.0702L221.103 92.6266L221.064 92.3318L221.028 91.74L221.064 90.8157L220.991 89.7062L220.916 89.1522V88.3752L221.027 87.9686L221.213 87.7834L221.656 87.7093L222.58 87.5983L223.209 87.5605H224.909L227.311 87.4509L230.267 87.6345H230.861L232.375 87.4509L232.968 87.4131L233.263 87.4509L233.817 87.5605L234.075 87.7093L234.151 87.9308L234.262 88.4485L234.302 88.747Z" fill="#F7E041"/>
<path d="M263.818 83.0172L263.781 83.609V89.0802L263.893 91.2252V91.817L263.968 96.6964V97.326L263.929 97.6208L263.893 98.2496L263.781 100.024L263.818 102.169L263.781 102.685L263.634 103.13L263.339 103.536L262.969 103.796L262.638 103.907L262.12 103.945L260.233 104.019L259.643 104.055L258.718 104.093H258.125L257.647 103.982L257.201 103.796L256.758 103.464L256.424 102.984L255.87 101.912L255.539 101.431L254.097 99.6198L253.726 99.1754L252.284 97.4008L251.95 96.9209L250.655 94.9974L250.324 94.5545L248.882 92.7798L248.512 92.3362L247.145 90.5238L246.811 90.229L246.553 90.3401L246.442 90.7823L246.369 92.6302V93.222L246.406 95.0722V95.664L246.442 97.7334V98.3252L246.331 100.396L246.37 100.988L246.59 102.465L246.629 103.057L246.518 103.537L246.26 103.796L246.001 103.87L245.558 103.946L245.261 103.982L244.635 104.02L242.934 103.982H242.341L240.827 104.056H240.234L239.68 104.02L239.273 103.946L238.978 103.761L238.828 103.502L238.755 103.131L238.719 102.872V102.318L238.792 101.097L238.828 100.506L238.72 98.5459V97.9541L238.792 93.4449L238.829 92.8531L238.94 90.8934L238.979 90.3016V87.7507L238.829 85.7909V85.1991L238.979 83.2408L238.94 82.6491L238.792 80.6515L238.756 80.0597V79.2094L238.792 78.6554L238.868 78.0999L238.94 77.6933L239.052 77.4341L239.274 77.3244L239.681 77.2489L240.789 77.1748L241.9 77.2489H244.672L245.115 77.2867L245.301 77.4341L245.521 77.7666L247.074 79.4309L247.445 79.8731L248.811 81.6477L249.182 82.0921L250.551 83.9045L250.918 84.3474L252.249 86.1968L252.583 86.639L253.988 88.4136L254.356 88.8573L255.689 90.7052L255.984 90.9645L256.279 91.0022L256.537 90.8171V90.4105L256.279 88.8573L256.242 88.2655L256.353 86.676V86.0842L256.206 83.8297V83.2379L256.353 80.9818L256.314 80.39L256.206 79.022V78.0977L256.314 77.6177L256.465 77.323L256.72 77.1741L257.166 77.1H257.497L258.126 77.0637L259.79 77.1733H260.38L261.639 77.0993L262.193 77.137L263.045 77.1733L263.451 77.2474L263.71 77.3585L263.93 77.6177L264.005 78.1355L264.041 78.468L264.078 79.0968L264.005 80.2419L263.93 80.8337L263.818 83.0172Z" fill="#F7E041"/>
<path d="M115.841 72.8953H114.73V97.8785H115.841V72.8953Z" fill="#053F64"/>
<path d="M93.4128 76.8052H72.5647V77.9162H93.4128V76.8052Z" fill="#053F64"/>
<path d="M65.8966 86.825H53.9194V87.9359H65.8966V86.825Z" fill="#053F64"/>
<path d="M2.77275 77.6081L1.73608 78.0077L11.7547 103.997L12.7913 103.597L2.77275 77.6081Z" fill="#053F64"/>
<path d="M23.3975 91.4257L22.3624 91.8292L26.9453 103.585L27.9804 103.182L23.3975 91.4257Z" fill="#053F64"/>
<path d="M221.474 88.3781H220.363V94.7344H221.474V88.3781Z" fill="#053F64"/>
<path d="M144.876 83.8075H143.765V108.252H144.876V83.8075Z" fill="#053F64"/>
<path d="M196.884 81.9069H195.773V109.042H196.884V81.9069Z" fill="#053F64"/>
<path d="M256.869 72.6154H255.758V90.4112H256.869V72.6154Z" fill="#053F64"/>
<path d="M160.617 77.6947H158.395V76.5837H160.617V77.6947ZM156.173 77.6947H153.951V76.5837H156.173V77.6947ZM151.729 77.6947H149.507V76.5837H151.729V77.6947ZM147.285 77.6947H145.063V76.5837H147.285V77.6947Z" fill="#053F64"/>
<path d="M75.0897 155.297H31.9217C28.9835 155.297 26.6016 152.915 26.6016 149.976V146.081H80.4107V149.976C80.4107 152.915 78.0287 155.297 75.0897 155.297Z" fill="#63DCFF"/>
<path d="M80.9654 146.637H26.0453V115.044C26.0453 111.803 28.6814 109.167 31.9218 109.167H75.0905C78.3309 109.167 80.9662 111.803 80.9662 115.044V146.637H80.9654ZM27.1563 145.526H79.8544V115.044C79.8544 112.416 77.7169 110.278 75.0898 110.278H31.9218C29.2946 110.278 27.1563 112.416 27.1563 115.044V145.526Z" fill="#083C5A"/>
<path d="M77.948 146.637H29.0628V114.773C29.0628 113.459 30.1323 112.39 31.4463 112.39H75.5645C76.8785 112.39 77.948 113.458 77.948 114.773V146.637ZM30.1738 145.526H76.837V114.773C76.837 114.072 76.2667 113.501 75.5645 113.501H31.447C30.7456 113.501 30.1745 114.072 30.1745 114.773V145.526H30.1738Z" fill="#083C5A"/>
<path d="M53.5054 153.252C52.0922 153.252 50.942 152.102 50.942 150.689C50.942 149.275 52.0922 148.125 53.5054 148.125C54.9193 148.125 56.0688 149.275 56.0688 150.689C56.0696 152.103 54.9193 153.252 53.5054 153.252ZM53.5054 149.236C52.7047 149.236 52.0529 149.888 52.0529 150.689C52.0529 151.49 52.7047 152.141 53.5054 152.141C54.3068 152.141 54.9578 151.49 54.9578 150.689C54.9586 149.888 54.3068 149.236 53.5054 149.236Z" fill="#083C5A"/>
<path d="M60.9476 162.281H46.064V154.741H60.9476V162.281ZM47.175 161.17H59.8366V155.852H47.175V161.17Z" fill="#083C5A"/>
<path d="M65.8441 164.443H41.1682C40.266 164.443 39.5313 163.709 39.5313 162.807C39.5313 161.904 40.2653 161.17 41.1682 161.17H65.8441C66.7462 161.17 67.4802 161.904 67.4802 162.806C67.4802 163.708 66.7462 164.443 65.8441 164.443ZM41.1682 162.281C40.8786 162.281 40.6423 162.517 40.6423 162.806C40.6423 163.097 40.8778 163.332 41.1682 163.332H65.8441C66.1337 163.332 66.3692 163.097 66.3692 162.807C66.3692 162.517 66.1337 162.281 65.8441 162.281H41.1682Z" fill="#083C5A"/>
<path d="M64.9271 118.091H42.0844V140.934H64.9271V118.091Z" fill="#2FE29B"/>
<path d="M65.4826 141.489H63.0754V140.378H64.3716V139.082H65.4826V141.489Z" fill="#083C5A"/>
<path d="M59.2477 141.489H55.42V140.378H59.2477V141.489ZM51.5915 141.489H47.7637V140.378H51.5915V141.489Z" fill="#083C5A"/>
<path d="M43.936 141.489H41.5289V139.082H42.6399V140.378H43.936V141.489Z" fill="#083C5A"/>
<path d="M42.6399 135.254H41.5289V131.427H42.6399V135.254ZM42.6399 127.599H41.5289V123.771H42.6399V127.599Z" fill="#083C5A"/>
<path d="M42.6399 119.944H41.5289V117.536H43.9361V118.647H42.6399V119.944Z" fill="#083C5A"/>
<path d="M59.2477 118.647H55.42V117.536H59.2477V118.647ZM51.5915 118.647H47.7637V117.536H51.5915V118.647Z" fill="#083C5A"/>
<path d="M65.4826 119.944H64.3716V118.647H63.0754V117.536H65.4826V119.944Z" fill="#083C5A"/>
<path d="M65.4827 135.254H64.3717V131.426H65.4827V135.254ZM65.4827 127.598H64.3717V123.771H65.4827V127.598Z" fill="#083C5A"/>
<path d="M55.1748 135.149H51.8366C51.53 135.149 51.2811 134.9 51.2811 134.594V121.088C51.2811 120.781 51.53 120.532 51.8366 120.532H55.1748C55.4814 120.532 55.7303 120.781 55.7303 121.088V134.594C55.7303 134.9 55.4814 135.149 55.1748 135.149ZM52.3921 134.038H54.6193V121.643H52.3921V134.038Z" fill="#083C5A"/>
<path d="M53.5054 138.494C53.295 138.494 53.1024 138.375 53.0084 138.187L51.3397 134.842C51.2538 134.67 51.2626 134.465 51.3641 134.302C51.4656 134.138 51.6441 134.039 51.8367 134.039H55.1748C55.3674 134.039 55.5459 134.139 55.6474 134.302C55.7488 134.466 55.7577 134.67 55.6718 134.842L54.0024 138.187C53.9083 138.374 53.7157 138.494 53.5054 138.494ZM52.7343 135.149L53.5054 136.694L54.2771 135.149H52.7343Z" fill="#083C5A"/>
<path d="M59.5292 137.383H47.1535V138.494H59.5292V137.383Z" fill="#083C5A"/>
<path d="M204.059 66.9424H157.294V31.0292H204.059V66.9424ZM158.405 65.8314H202.949V32.1402H158.405V65.8314Z" fill="#083C5A"/>
<path d="M204.059 37.133H157.294V31.0292H204.059V37.133ZM158.405 36.022H202.949V32.1402H158.405V36.022Z" fill="#083C5A"/>
<path d="M169.858 34.0807C169.858 34.6562 169.391 35.1235 168.815 35.1235C168.239 35.1235 167.772 34.6569 167.772 34.0807C167.772 33.5052 168.238 33.0378 168.815 33.0378C169.391 33.0386 169.858 33.5052 169.858 34.0807Z" fill="#2FE29B"/>
<path d="M165.748 34.0807C165.748 34.6562 165.282 35.1235 164.706 35.1235C164.13 35.1235 163.663 34.6569 163.663 34.0807C163.663 33.5052 164.129 33.0378 164.706 33.0378C165.281 33.0386 165.748 33.5052 165.748 34.0807Z" fill="#63DCFF"/>
<path d="M161.638 34.0807C161.638 34.6562 161.172 35.1235 160.596 35.1235C160.02 35.1235 159.553 34.6569 159.553 34.0807C159.553 33.5052 160.019 33.0378 160.596 33.0378C161.172 33.0386 161.638 33.5052 161.638 34.0807Z" fill="#F7E041"/>
<path d="M164.689 48.9126L164.686 47.8016C165.394 47.7994 166.091 47.612 166.699 47.2587L167.257 48.2193C166.48 48.6704 165.592 48.9104 164.689 48.9126ZM162.117 48.2349C161.336 47.7868 160.683 47.1402 160.228 46.364L161.187 45.8025C161.544 46.4121 162.057 46.9194 162.669 47.2705L162.117 48.2349ZM169.133 46.3373L168.171 45.7818C168.523 45.1722 168.708 44.476 168.708 43.7679L169.819 43.7131V43.7679C169.82 44.6701 169.583 45.5589 169.133 46.3373ZM159.659 43.7916L159.529 43.7909C159.528 42.8762 159.761 41.997 160.199 41.2253L161.165 41.7741C160.821 42.3785 160.639 43.068 160.639 43.7672L159.659 43.7916ZM168.147 41.7126C167.786 41.1045 167.27 40.6001 166.656 40.2528L167.203 39.2855C167.986 39.7284 168.641 40.3705 169.102 41.1445L168.147 41.7126ZM162.63 40.289L162.066 39.3314C162.841 38.8759 163.726 38.6307 164.628 38.6226L164.639 39.7336C163.932 39.7395 163.236 39.9313 162.63 40.289Z" fill="#083C5A"/>
<path d="M191.966 44.3227H170.934V38.6218H191.966V44.3227ZM172.046 43.2117H190.855V39.7328H172.046V43.2117Z" fill="#083C5A"/>
<path d="M201.27 39.1772H193.42V63.845H201.27V39.1772Z" fill="#2FE29B"/>
<path d="M191.965 57.0155H190.299V55.9045H190.854V55.349H191.965V57.0155Z" fill="#083C5A"/>
<path d="M188.333 57.0155H186.367V55.9045H188.333V57.0155ZM184.4 57.0155H182.434V55.9045H184.4V57.0155ZM180.467 57.0155H178.501V55.9045H180.467V57.0155ZM176.534 57.0155H174.567V55.9045H176.534V57.0155Z" fill="#083C5A"/>
<path d="M172.601 57.0155H170.934V55.349H172.045V55.9045H172.601V57.0155Z" fill="#083C5A"/>
<path d="M172.045 49.8134H170.934V52.5812H172.045V49.8134Z" fill="#083C5A"/>
<path d="M172.045 47.0454H170.934V45.3789H172.601V46.4899H172.045V47.0454Z" fill="#083C5A"/>
<path d="M188.333 46.49H186.367V45.379H188.333V46.49ZM184.4 46.49H182.433V45.379H184.4V46.49ZM180.467 46.49H178.501V45.379H180.467V46.49ZM176.534 46.49H174.567V45.379H176.534V46.49Z" fill="#083C5A"/>
<path d="M191.965 47.0455H190.854V46.49H190.299V45.379H191.965V47.0455Z" fill="#083C5A"/>
<path d="M191.965 49.8134H190.854V52.5812H191.965V49.8134Z" fill="#083C5A"/>
<path d="M182.211 48.2295H181.1V54.1652H182.211V48.2295Z" fill="#083C5A"/>
<path d="M182.825 53.6089H180.483V54.7199H182.825V53.6089Z" fill="#083C5A"/>
<path d="M185.628 49.7642H184.517V48.7851H178.796V49.7642H177.685V47.6741H185.628V49.7642Z" fill="#083C5A"/>
<path d="M178.796 47.3291H177.685V48.2297H178.796V47.3291Z" fill="#083C5A"/>
<path d="M185.628 47.3291H184.517V48.2297H185.628V47.3291Z" fill="#083C5A"/>
<path d="M169.264 50.5575H160.085V63.845H169.264V50.5575Z" fill="#63DCFF"/>
<path d="M191.966 64.4005H170.934V58.319H191.966V64.4005ZM172.046 63.2896H190.855V59.43H172.046V63.2896Z" fill="#083C5A"/>
<path d="M175.583 144.424H122.666V113.184C122.666 111.807 123.782 110.69 125.16 110.69H173.09C174.467 110.69 175.584 111.806 175.584 113.184L175.583 144.424Z" fill="#2FE29B"/>
<path d="M181.439 149.354H116.81C115.129 149.354 113.76 147.986 113.76 146.305V143.868H184.489V146.305C184.489 147.987 183.121 149.354 181.439 149.354ZM114.871 144.979V146.305C114.871 147.374 115.741 148.243 116.81 148.243H181.439C182.508 148.243 183.378 147.374 183.378 146.305V144.979H114.871Z" fill="#083C5A"/>
<path d="M154.422 147.166H143.828C142.629 147.166 141.654 146.192 141.654 144.993V143.868H156.595V144.993C156.595 146.192 155.62 147.166 154.422 147.166ZM142.766 144.979V144.994C142.766 145.579 143.243 146.056 143.828 146.056H154.423C155.009 146.056 155.486 145.579 155.486 144.994V144.979H142.766Z" fill="#083C5A"/>
<path d="M139.636 116.503H134.789V117.614H139.636V116.503Z" fill="#083C5A"/>
<path d="M147.499 116.503H143.019V117.614H147.499V116.503Z" fill="#083C5A"/>
<path d="M159.203 116.503H150.334V117.614H159.203V116.503Z" fill="#083C5A"/>
<path d="M167.981 116.503H162.404V117.614H167.981V116.503Z" fill="#083C5A"/>
<path d="M145.259 119.082H130.56V120.193H145.259V119.082Z" fill="#083C5A"/>
<path d="M159.203 119.082H147.499V120.193H159.203V119.082Z" fill="#083C5A"/>
<path d="M167.981 119.082H161.226V120.193H167.981V119.082Z" fill="#083C5A"/>
<path d="M148.043 121.662H130.56V122.773H148.043V121.662Z" fill="#083C5A"/>
<path d="M156.04 121.662H150.334V122.773H156.04V121.662Z" fill="#083C5A"/>
<path d="M167.981 121.662H158.012V122.773H167.981V121.662Z" fill="#083C5A"/>
<path d="M133.767 124.242H130.56V125.353H133.767V124.242Z" fill="#083C5A"/>
<path d="M144.321 124.242H135.806V125.353H144.321V124.242Z" fill="#083C5A"/>
<path d="M161.226 124.242H146.446V125.353H161.226V124.242Z" fill="#083C5A"/>
<path d="M167.981 124.242H163.948V125.353H167.981V124.242Z" fill="#083C5A"/>
<path d="M139.636 126.822H134.789V127.933H139.636V126.822Z" fill="#083C5A"/>
<path d="M147.499 126.822H143.019V127.933H147.499V126.822Z" fill="#083C5A"/>
<path d="M159.203 126.822H150.334V127.933H159.203V126.822Z" fill="#083C5A"/>
<path d="M167.981 126.822H162.404V127.933H167.981V126.822Z" fill="#083C5A"/>
<path d="M145.259 129.402H130.56V130.513H145.259V129.402Z" fill="#083C5A"/>
<path d="M163.542 129.402H147.499V130.513H163.542V129.402Z" fill="#083C5A"/>
<path d="M139.635 131.982H130.56V133.093H139.635V131.982Z" fill="#083C5A"/>
<path d="M154.768 131.982H143.019V133.093H154.768V131.982Z" fill="#083C5A"/>
<path d="M167.981 131.982H157.346V133.093H167.981V131.982Z" fill="#083C5A"/>
<path d="M144.321 134.561H134.789V135.672H144.321V134.561Z" fill="#083C5A"/>
<path d="M159.203 134.561H146.917V135.672H159.203V134.561Z" fill="#083C5A"/>
<path d="M167.981 134.561H162.404V135.672H167.981V134.561Z" fill="#083C5A"/>
<path d="M139.635 137.14H130.56V138.251H139.635V137.14Z" fill="#083C5A"/>
<path d="M153.835 137.14H143.019V138.251H153.835V137.14Z" fill="#083C5A"/>
<path d="M167.981 137.14H157.002V138.251H167.981V137.14Z" fill="#083C5A"/>
<path d="M83.3424 60.5555C83.115 60.5555 82.9113 60.417 82.8269 60.2059L78.9258 50.4395C78.8577 50.2684 78.8784 50.0744 78.9814 49.9218C79.085 49.7692 79.2569 49.6774 79.4413 49.6774H87.2427C87.4271 49.6774 87.5989 49.7692 87.7026 49.9218C87.8056 50.0744 87.8271 50.2684 87.7582 50.4395L83.8571 60.2059C83.7742 60.417 83.5697 60.5555 83.3424 60.5555ZM80.2619 50.7891L83.3431 58.5024L86.4243 50.7891H80.2619Z" fill="#083C5A"/>
<path d="M82.5981 50.7891H79.6524C79.2303 50.7891 78.8866 50.4455 78.8866 50.0233V15.6166H82.5981V50.7891ZM79.9976 49.6781H81.4871V16.7276H79.9976V49.6781Z" fill="#083C5A"/>
<path d="M85.1985 50.7891H81.4871V15.6166H85.1985V50.7891ZM82.5981 49.6781H84.0875V16.7276H82.5981V49.6781Z" fill="#083C5A"/>
<path d="M87.0331 50.7891H84.0875V15.6166H87.799V50.0233C87.799 50.4455 87.4553 50.7891 87.0331 50.7891ZM85.1985 49.6781H86.688V16.7276H85.1985V49.6781Z" fill="#083C5A"/>
<path d="M83.3423 61.4977L80.8359 55.2228L85.825 55.2835L83.3423 61.4977ZM82.4846 56.3538L83.3431 58.5024L84.1934 56.3745L82.4846 56.3538Z" fill="#083C5A"/>
<path d="M87.799 16.7275H78.8866V12.8976H87.799V16.7275ZM79.9976 15.6165H86.688V14.0086H79.9976V15.6165Z" fill="#083C5A"/>
<path d="M87.7989 14.0086H78.8865V11.5763C78.8865 10.3068 79.9197 9.27356 81.1892 9.27356H85.4961C86.7656 9.27356 87.7989 10.3068 87.7989 11.5763V14.0086ZM79.9975 12.8976H86.6879V11.5763C86.6879 10.9193 86.1531 10.3846 85.4961 10.3846H81.1892C80.5322 10.3846 79.9975 10.9193 79.9975 11.5763V12.8976Z" fill="#083C5A"/>
<path d="M101.734 60.5555H91.1583V9.27356H101.734V60.5555ZM92.2686 59.4445H100.623V10.3846H92.2686V59.4445Z" fill="#083C5A"/>
<path d="M101.179 11.0281H97.4946V12.1391H101.179V11.0281Z" fill="#083C5A"/>
<path d="M101.179 13.6204H99.3367V14.7314H101.179V13.6204Z" fill="#083C5A"/>
<path d="M101.179 16.2128H97.4946V17.3238H101.179V16.2128Z" fill="#083C5A"/>
<path d="M101.179 18.8051H99.3367V19.916H101.179V18.8051Z" fill="#083C5A"/>
<path d="M101.179 21.3973H97.4946V22.5083H101.179V21.3973Z" fill="#083C5A"/>
<path d="M101.179 23.9896H99.3367V25.1006H101.179V23.9896Z" fill="#083C5A"/>
<path d="M101.179 26.582H97.4946V27.693H101.179V26.582Z" fill="#083C5A"/>
<path d="M101.179 29.1743H99.3367V30.2853H101.179V29.1743Z" fill="#083C5A"/>
<path d="M101.179 31.7666H97.4946V32.8776H101.179V31.7666Z" fill="#083C5A"/>
<path d="M101.179 34.3589H99.3367V35.4699H101.179V34.3589Z" fill="#083C5A"/>
<path d="M101.179 36.9513H97.4946V38.0623H101.179V36.9513Z" fill="#083C5A"/>
<path d="M101.179 39.5436H99.3367V40.6546H101.179V39.5436Z" fill="#083C5A"/>
<path d="M101.179 42.1359H97.4946V43.2469H101.179V42.1359Z" fill="#083C5A"/>
<path d="M101.179 44.7281H99.3367V45.8391H101.179V44.7281Z" fill="#083C5A"/>
<path d="M101.179 47.3206H97.4946V48.4315H101.179V47.3206Z" fill="#083C5A"/>
<path d="M101.179 49.9128H99.3367V51.0238H101.179V49.9128Z" fill="#083C5A"/>
<path d="M101.179 52.5051H97.4946V53.6161H101.179V52.5051Z" fill="#083C5A"/>
<path d="M101.179 55.0974H99.3367V56.2084H101.179V55.0974Z" fill="#083C5A"/>
<path d="M101.179 57.6898H97.4946V58.8008H101.179V57.6898Z" fill="#083C5A"/>
<path d="M94.3401 13.879C93.4847 13.879 92.7885 13.1828 92.7885 12.3273C92.7885 11.4719 93.4847 10.7756 94.3401 10.7756C95.1956 10.7756 95.8918 11.4719 95.8918 12.3273C95.8918 13.1828 95.1956 13.879 94.3401 13.879ZM94.3401 11.8866C94.0972 11.8866 93.8994 12.0844 93.8994 12.3273C93.8994 12.5703 94.0972 12.768 94.3401 12.768C94.5831 12.768 94.7808 12.5703 94.7808 12.3273C94.7808 12.0844 94.5831 11.8866 94.3401 11.8866Z" fill="#083C5A"/>
<path d="M134.344 9.19263H138.923C142.196 9.19263 144.849 11.8457 144.849 15.1187V54.71C144.849 57.983 142.196 60.636 138.923 60.636H134.344V9.19263Z" fill="#63DCFF"/>
<path d="M130.165 60.6361H106.646C106.095 60.6361 105.648 60.1894 105.648 59.6384V10.1896C105.648 9.63851 106.095 9.19189 106.646 9.19189H130.165V60.6361Z" fill="#63DCFF"/>
<path d="M133.691 63.6949H130.818C130.151 63.6949 129.609 63.1528 129.609 62.4862V7.34316C129.609 6.67656 130.151 6.1344 130.818 6.1344H133.691C134.358 6.1344 134.9 6.67656 134.9 7.34316V62.4862C134.9 63.152 134.358 63.6949 133.691 63.6949ZM130.819 7.24465C130.765 7.24465 130.721 7.28909 130.721 7.34242V62.4854C130.721 62.5395 130.765 62.5832 130.819 62.5832H133.692C133.746 62.5832 133.789 62.5388 133.789 62.4854V7.34242C133.789 7.28835 133.746 7.24465 133.692 7.24465H130.819Z" fill="#083C5A"/>
<path d="M109.843 9.19263H108.732V60.5249H109.843V9.19263Z" fill="#083C5A"/>
<path d="M218.664 112.443L214.219 113.628H202.048V116.323H221.139V113.628V112.443H218.664Z" fill="#2FE29B"/>
<path d="M218.091 146.772H205.096V148.449H218.091V146.772Z" fill="#63DCFF"/>
<path d="M218.09 146.772C213.759 146.772 209.427 146.772 205.096 146.772C204.08 137.744 203.064 128.716 202.048 119.688C208.412 119.688 214.776 119.688 221.139 119.688C220.122 128.716 219.106 137.744 218.09 146.772Z" fill="#F7E041"/>
<path d="M223.55 120.244H199.637V117.735C199.637 116.65 200.519 115.767 201.605 115.767H221.582C222.667 115.767 223.55 116.65 223.55 117.735V120.244ZM200.748 119.133H222.439V117.735C222.439 117.263 222.053 116.878 221.582 116.878H201.605C201.132 116.878 200.748 117.264 200.748 117.735V119.133Z" fill="#083C5A"/>
<path d="M219.737 137.102H203.449L202.32 127.068H220.867L219.737 137.102ZM204.441 135.991H218.745L219.624 128.179H203.562L204.441 135.991Z" fill="#083C5A"/>
<path d="M220.245 128.18H202.941C202.635 128.18 202.386 127.931 202.386 127.624C202.386 127.317 202.635 127.069 202.941 127.069H220.245C220.552 127.069 220.801 127.317 220.801 127.624C220.801 127.931 220.552 128.18 220.245 128.18Z" fill="#083C5A"/>
<path d="M237.619 152.84H226.931C225.706 152.84 224.712 151.847 224.712 150.622V135.375C224.712 134.149 225.705 133.156 226.931 133.156H237.619C238.844 133.156 239.837 134.149 239.837 135.375V150.622C239.837 151.847 238.844 152.84 237.619 152.84Z" fill="#63DCFF"/>
<path d="M237.498 142.751H227.053V134.961H237.498V142.751ZM228.163 141.64H236.386V136.072H228.163V141.64Z" fill="#053F64"/>
<path d="M232.275 151.641C230.13 151.641 228.385 149.895 228.385 147.751C228.385 145.607 230.131 143.861 232.275 143.861C234.42 143.861 236.165 145.607 236.165 147.751C236.165 149.895 234.42 151.641 232.275 151.641ZM232.275 144.971C230.744 144.971 229.496 146.218 229.496 147.75C229.496 149.282 230.744 150.529 232.275 150.529C233.807 150.529 235.054 149.282 235.054 147.75C235.054 146.218 233.807 144.971 232.275 144.971Z" fill="#083C5A"/>
<path d="M232.275 149.333C231.403 149.333 230.693 148.623 230.693 147.75C230.693 146.878 231.403 146.167 232.275 146.167C233.148 146.167 233.858 146.878 233.858 147.75C233.858 148.623 233.148 149.333 232.275 149.333ZM232.275 147.279C232.015 147.279 231.803 147.49 231.803 147.751C231.803 148.012 232.015 148.223 232.275 148.223C232.536 148.223 232.747 148.012 232.747 147.751C232.747 147.49 232.536 147.279 232.275 147.279Z" fill="#083C5A"/>
<path d="M229.55 133.712H226.434V129.891H229.55V133.712ZM227.545 132.601H228.439V131.002H227.545V132.601Z" fill="#083C5A"/>
<path d="M244.698 138.479H240.994V134.658H244.698V138.479ZM242.105 137.368H243.587V135.769H242.105V137.368Z" fill="#083C5A"/>
<path d="M243.401 135.213H242.29V126.845C242.29 126.075 241.665 125.449 240.895 125.449H229.943C229.173 125.449 228.548 126.075 228.548 126.845V130.446H227.437V126.845C227.437 125.463 228.561 124.338 229.943 124.338H240.895C242.277 124.338 243.401 125.463 243.401 126.845V135.213Z" fill="#083C5A"/>
<path d="M248.056 152.616H246.094C244.713 152.616 243.589 151.493 243.588 150.112V137.923H244.699V150.109C244.699 150.879 245.324 151.505 246.094 151.505H248.056V152.616Z" fill="#083C5A"/>
<path d="M251.97 150.443C251.348 150.443 250.809 150.794 250.538 151.308H248.055V152.815H250.538C250.809 153.329 251.348 153.679 251.97 153.679C252.864 153.679 253.588 152.955 253.588 152.061C253.588 151.167 252.864 150.443 251.97 150.443Z" fill="#2FE29B"/>
<path d="M246.052 158.591H243.502C242.12 158.591 240.995 157.467 240.995 156.084V137.901H242.106V156.084C242.106 156.854 242.733 157.48 243.502 157.48H246.052V158.591Z" fill="#083C5A"/>
<path d="M249.965 156.417C249.344 156.417 248.805 156.768 248.534 157.282H246.051V158.789H248.534C248.805 159.303 249.344 159.653 249.965 159.653C250.859 159.653 251.584 158.929 251.584 158.035C251.584 157.142 250.859 156.417 249.965 156.417Z" fill="#2FE29B"/>
<path d="M247.943 110.538C247.943 110.315 247.96 110.095 247.992 109.881C247.976 109.881 247.96 109.879 247.943 109.879C244.384 109.879 241.499 112.764 241.499 116.323C241.499 119.882 244.384 122.767 247.943 122.767C251.501 122.767 254.386 119.882 254.386 116.323C254.386 115.685 254.292 115.07 254.12 114.488C253.564 114.745 252.946 114.89 252.294 114.89C249.89 114.89 247.943 112.942 247.943 110.538Z" fill="#F7E041"/>
<path d="M245.612 115.345C244.8 115.345 244.141 114.686 244.141 113.875C244.141 113.064 244.801 112.404 245.612 112.404C246.423 112.404 247.083 113.064 247.083 113.875C247.083 114.686 246.423 115.345 245.612 115.345ZM245.612 113.515C245.413 113.515 245.252 113.676 245.252 113.875C245.252 114.074 245.413 114.234 245.612 114.234C245.811 114.234 245.972 114.073 245.972 113.875C245.972 113.676 245.81 113.515 245.612 113.515Z" fill="#083C5A"/>
<path d="M251.118 120.023C250.29 120.023 249.618 119.351 249.618 118.524C249.618 117.697 250.29 117.024 251.118 117.024C251.945 117.024 252.618 117.696 252.618 118.524C252.618 119.351 251.946 120.023 251.118 120.023ZM251.118 118.135C250.903 118.135 250.729 118.309 250.729 118.524C250.729 118.738 250.903 118.913 251.118 118.913C251.333 118.913 251.507 118.738 251.507 118.524C251.507 118.31 251.333 118.135 251.118 118.135Z" fill="#083C5A"/>
<path d="M247.943 117.941C247.051 117.941 246.324 117.215 246.324 116.323C246.324 115.431 247.05 114.706 247.943 114.706C248.835 114.706 249.56 115.431 249.56 116.323C249.56 117.216 248.834 117.941 247.943 117.941ZM247.943 115.817C247.663 115.817 247.435 116.044 247.435 116.323C247.435 116.602 247.663 116.83 247.943 116.83C248.222 116.83 248.449 116.602 248.449 116.323C248.449 116.044 248.222 115.817 247.943 115.817Z" fill="#083C5A"/>
<path d="M244.061 118.765C243.325 118.765 242.725 118.166 242.725 117.43C242.725 116.694 243.325 116.094 244.061 116.094C244.798 116.094 245.398 116.694 245.398 117.43C245.398 118.166 244.798 118.765 244.061 118.765ZM244.061 117.205C243.938 117.205 243.836 117.306 243.836 117.43C243.836 117.553 243.938 117.654 244.061 117.654C244.185 117.654 244.287 117.553 244.287 117.43C244.287 117.306 244.185 117.205 244.061 117.205Z" fill="#083C5A"/>
<path d="M247.577 121.905C246.63 121.905 245.859 121.135 245.859 120.188C245.859 119.241 246.63 118.469 247.577 118.469C248.525 118.469 249.295 119.241 249.295 120.188C249.295 121.135 248.525 121.905 247.577 121.905ZM247.577 119.58C247.243 119.58 246.97 119.852 246.97 120.187C246.97 120.522 247.243 120.794 247.577 120.794C247.912 120.794 248.184 120.522 248.184 120.187C248.185 119.853 247.912 119.58 247.577 119.58Z" fill="#083C5A"/>
<path d="M256.531 123.322C254.801 123.322 253.174 122.477 252.176 121.06L253.085 120.42C253.874 121.542 255.163 122.211 256.531 122.211C258.853 122.211 260.741 120.323 260.741 118.001C260.741 115.679 258.853 113.791 256.531 113.791C255.331 113.791 254.183 114.306 253.384 115.204L252.554 114.466C253.564 113.331 255.013 112.68 256.531 112.68C259.465 112.68 261.852 115.067 261.852 118.001C261.852 120.935 259.465 123.322 256.531 123.322Z" fill="#083C5A"/>
<path d="M41.2504 40.5132C41.2504 34.0265 35.8429 28.8026 29.2895 29.1048C23.3249 29.3796 18.5336 34.3042 18.4106 40.2732C18.3425 43.6069 19.7038 46.6222 21.9229 48.7516C23.3857 50.1544 24.1693 52.1231 24.1693 54.1495V58.3239C24.1693 59.62 25.2299 60.6807 26.5261 60.6807H33.1328C34.4289 60.6807 35.4896 59.62 35.4896 58.3239V54.0517C35.4896 52.0327 36.3295 50.1151 37.779 48.7101C39.9195 46.6355 41.2504 43.7306 41.2504 40.5132Z" fill="#F7E041"/>
<path d="M32.1388 66.4201H27.5193C26.706 66.4201 26.0453 65.7587 26.0453 64.9462V60.1245H33.6127V64.9462C33.6127 65.7595 32.952 66.4201 32.1388 66.4201ZM27.1563 61.2355V64.9462C27.1563 65.1462 27.3193 65.3091 27.5193 65.3091H32.1388C32.3395 65.3091 32.5017 65.1462 32.5017 64.9462V61.2355H27.1563Z" fill="#083C5A"/>
<path d="M30.9774 68.7444H28.6517C27.7214 68.7444 26.9645 67.9874 26.9645 67.0572V65.3099H32.6654V67.0572C32.6646 67.9874 31.9077 68.7444 30.9774 68.7444ZM28.0747 66.4202V67.0564C28.0747 67.3742 28.3332 67.6327 28.651 67.6327H30.9766C31.2944 67.6327 31.5529 67.3742 31.5529 67.0564V66.4202H28.0747Z" fill="#083C5A"/>
<path d="M33.0572 63.8278H28.6369C28.3303 63.8278 28.0814 63.5789 28.0814 63.2723C28.0814 62.9657 28.3303 62.7168 28.6369 62.7168H33.0572C33.3638 62.7168 33.6127 62.9657 33.6127 63.2723C33.6127 63.5789 33.3638 63.8278 33.0572 63.8278Z" fill="#083C5A"/>
<path d="M29.3369 42.9426H28.226V60.6807H29.3369V42.9426Z" fill="#083C5A"/>
<path d="M31.4329 42.9426H30.3219V60.6807H31.4329V42.9426Z" fill="#083C5A"/>
<path d="M29.3369 43.5032H26.3476C24.6996 43.5032 23.3583 42.1618 23.3583 40.5138C23.3583 38.8659 24.6996 37.5245 26.3476 37.5245C27.9956 37.5245 29.3369 38.8659 29.3369 40.5138V43.5032ZM26.3476 38.6355C25.3121 38.6355 24.4693 39.4784 24.4693 40.5138C24.4693 41.5493 25.3121 42.3922 26.3476 42.3922H28.2259V40.5138C28.2259 39.4784 27.383 38.6355 26.3476 38.6355Z" fill="#083C5A"/>
<path d="M33.3112 43.5032H30.3219V40.5138C30.3219 38.8659 31.6632 37.5245 33.3112 37.5245C34.9592 37.5245 36.3005 38.8659 36.3005 40.5138C36.3005 42.1618 34.9592 43.5032 33.3112 43.5032ZM31.4329 42.3922H33.3112C34.3467 42.3922 35.1895 41.5493 35.1895 40.5138C35.1895 39.4784 34.3467 38.6355 33.3112 38.6355C32.2758 38.6355 31.4329 39.4784 31.4329 40.5138V42.3922Z" fill="#083C5A"/>
<path d="M30.8775 42.3872H28.7814V43.4982H30.8775V42.3872Z" fill="#083C5A"/>
<path d="M39.1581 87.9253H38.0471V77.69H43.1918C45.3278 77.69 47.0662 75.9525 47.0662 73.8164V66.4053H50.2488C50.348 66.4053 50.3999 66.3438 50.4221 66.3076C50.4443 66.2713 50.4739 66.1965 50.428 66.1091L47.0662 59.7408V59.6031C47.0662 53.9333 44.5361 48.6435 40.1254 45.0906L40.8224 44.2255C45.4604 47.9614 48.1349 53.5089 48.1764 59.4646L51.4101 65.5899C51.6272 66.0002 51.6131 66.4831 51.3738 66.8808C51.1339 67.2786 50.7132 67.5156 50.2488 67.5156H48.1772V73.8157C48.1772 76.565 45.9404 78.8003 43.1918 78.8003H39.1581V87.9253Z" fill="#083C5A"/>
<path d="M20.4104 87.9253H19.2994V82.6474C19.2994 79.113 17.8744 75.7348 15.3894 73.3802C11.2173 69.4251 9.02272 63.8857 9.37083 58.1819C9.75005 51.9588 13.1541 46.2498 18.478 42.9116L19.0683 43.8523C14.0481 47.0008 10.8373 52.3825 10.4796 58.2485C10.1522 63.6235 12.2209 68.8444 16.1546 72.5729C18.8594 75.1371 20.4111 78.8085 20.4111 82.6466L20.4104 87.9253Z" fill="#083C5A"/>
<path d="M45.3611 42.9425H44.2501C44.2501 26.7391 57.4324 13.5568 73.6351 13.5568V14.6678C58.0449 14.6678 45.3611 27.3516 45.3611 42.9425Z" fill="#053F64"/>
<path d="M70.4301 18.1052L69.6443 17.3193L72.8506 14.113L69.6443 10.9074L70.4301 10.1216L74.1905 13.8819V14.3419L70.4301 18.1052Z" fill="#053F64"/>
<path d="M91.2229 118.62L87.4625 114.859V114.399L91.2229 110.636L92.0087 111.422L88.8024 114.629L92.0087 117.835L91.2229 118.62Z" fill="#053F64"/>
<path d="M106.204 115.182H88.0172V114.071H105.093V68.189H106.204V115.182Z" fill="#053F64"/>
<path d="M112.372 128.685L111.586 127.9L114.792 124.694L111.586 121.488L112.372 120.703L116.132 124.463V124.923L112.372 128.685Z" fill="#053F64"/>
<path d="M115.029 124.138H88.0171V125.249H115.029V124.138Z" fill="#053F64"/>
<path d="M171.186 74.6651L167.98 71.4588L164.774 74.6651L163.989 73.8792L167.749 70.1189H168.209L171.972 73.8792L171.186 74.6651Z" fill="#053F64"/>
<path d="M168.536 71.2084H167.425V106.635H168.536V71.2084Z" fill="#053F64"/>
<path d="M221.518 58.1565L220.732 57.3706L223.938 54.1643L220.732 50.958L221.518 50.1729L225.279 53.9332V54.3939L221.518 58.1565Z" fill="#053F64"/>
<path d="M224.189 53.6088H210.406V54.7198H224.189V53.6088Z" fill="#053F64"/>
<path d="M244.438 63.3937C244.118 61.9591 242.51 60.911 240.628 60.911H238.309C238.309 62.0324 237.134 62.9412 235.684 62.9412C234.235 62.9412 233.06 62.0324 233.06 60.911H230.741C228.858 60.911 227.25 61.9591 226.931 63.3937L224.814 70.5396H246.554L244.438 63.3937Z" fill="#63DCFF"/>
<path d="M235.684 58.2445C233.107 58.2445 227.859 53.9279 227.859 48.9188H228.97C228.97 53.4909 233.792 57.1335 235.684 57.1335C237.578 57.1335 242.4 53.4902 242.4 48.9188H243.511C243.511 53.9279 238.261 58.2445 235.684 58.2445Z" fill="#083C5A"/>
<path d="M228.413 48.9188L226.884 36.5031C226.884 36.5031 230.047 37.0127 234.96 35.3173C238.586 34.0671 244.08 35.9054 244.082 38.3859C244.084 40.8664 242.955 48.9188 242.955 48.9188C242.955 48.9188 242.343 41.9055 238.672 41.5196C234.858 41.1182 233.57 42.4869 231.089 41.8255C230.082 44.9059 229.204 44.072 228.413 48.9188Z" fill="#2FE29B"/>
<path d="M233.547 48.7515H231.896C230.698 48.7515 229.723 47.7768 229.723 46.5784V46.3666C229.723 45.1682 230.698 44.1935 231.896 44.1935H233.547C234.744 44.1935 235.72 45.1682 235.72 46.3666V46.5784C235.719 47.7761 234.744 48.7515 233.547 48.7515ZM231.895 45.3045C231.31 45.3045 230.833 45.7807 230.833 46.3666V46.5784C230.833 47.1635 231.309 47.6405 231.895 47.6405H233.546C234.131 47.6405 234.608 47.1635 234.608 46.5784V46.3666C234.608 45.7815 234.131 45.3045 233.546 45.3045H231.895Z" fill="#083C5A"/>
<path d="M239.473 48.7515H237.822C236.624 48.7515 235.648 47.7768 235.648 46.5784V46.3666C235.648 45.1682 236.623 44.1935 237.822 44.1935H239.473C240.671 44.1935 241.646 45.1682 241.646 46.3666V46.5784C241.645 47.7761 240.671 48.7515 239.473 48.7515ZM237.822 45.3045C237.236 45.3045 236.759 45.7807 236.759 46.3666V46.5784C236.759 47.1635 237.236 47.6405 237.822 47.6405H239.473C240.058 47.6405 240.535 47.1635 240.535 46.5784V46.3666C240.535 45.7815 240.059 45.3045 239.473 45.3045H237.822Z" fill="#083C5A"/>
<path d="M242.479 45.8112H241.09V46.9222H242.479V45.8112Z" fill="#083C5A"/>
<path d="M230.278 45.8112H228.723V46.9222H230.278V45.8112Z" fill="#083C5A"/>
<path d="M236.204 45.8112H235.164V46.9222H236.204V45.8112Z" fill="#083C5A"/>
<path d="M239.234 69.8714L236.949 68.5938V64.255H241.518V68.5938L239.234 69.8714ZM238.06 67.942L239.234 68.5982L240.407 67.942V65.3653H238.06V67.942Z" fill="#083C5A"/>
<path d="M238.309 61.4665H237.436V56.8536H238.547V60.911H238.309V61.4665Z" fill="#083C5A"/>
<path d="M233.933 61.4665H233.06V60.911H232.822V56.8536H233.933V61.4665Z" fill="#083C5A"/>
<path d="M229.576 121.808L225.815 118.047V117.587L229.576 113.825L230.361 114.61L227.155 117.816L230.361 121.023L229.576 121.808Z" fill="#053F64"/>
<path d="M237.033 118.372H227.062V117.261H235.922V72.6152H237.033V118.372Z" fill="#053F64"/>
<path d="M167.981 129.402H165.964V130.513H167.981V129.402Z" fill="#083C5A"/>
<path d="M216.071 2.88583L200.766 18.1906L201.551 18.9761L216.856 3.67141L216.071 2.88583Z" fill="#083C5A"/>
<path d="M218.519 2.88678L217.734 3.67236L233.038 18.9771L233.824 18.1915L218.519 2.88678Z" fill="#083C5A"/>
<path d="M217.297 5.24182L213.775 13.9328L214.442 14.6253C215.053 15.2682 215.559 16.017 215.937 16.8398L216.136 17.2702H218.46L218.658 16.8398C219.037 16.017 219.543 15.2689 220.154 14.6253L220.82 13.9328L217.297 5.24182Z" fill="#F7E041"/>
<path d="M217.852 5.24182H216.741V11.2264H217.852V5.24182Z" fill="#083C5A"/>
<path d="M217.297 12.453C216.644 12.453 216.112 11.9019 216.112 11.225C216.112 10.548 216.644 9.99695 217.297 9.99695C217.95 9.99695 218.482 10.548 218.482 11.225C218.482 11.9019 217.95 12.453 217.297 12.453ZM217.297 11.1079C217.267 11.1079 217.223 11.1539 217.223 11.225C217.223 11.3672 217.37 11.3672 217.37 11.225C217.371 11.1539 217.327 11.1079 217.297 11.1079Z" fill="#083C5A"/>
<path d="M218.9 17.2709H215.695V19.578H218.9V17.2709Z" fill="#2FE29B"/>
<path d="M218.9 26.0255H215.695V43.1207H218.9V26.0255Z" fill="#2FE29B"/>
<path d="M220.061 26.5812H214.534V19.0234H220.061V26.5812ZM215.645 25.4702H218.95V20.1344H215.645V25.4702Z" fill="#083C5A"/>
<path d="M217.297 4.89453L214.85 2.44739L217.297 0.000244141L219.744 2.44739L217.297 4.89453ZM216.422 2.44739L217.298 3.32359L218.174 2.44739L217.298 1.57118L216.422 2.44739Z" fill="#083C5A"/>
<path d="M233.434 1.89185H218.959V3.00284H233.434V1.89185Z" fill="#083C5A"/>
<path d="M215.636 1.89185H201.161V3.00284H215.636V1.89185Z" fill="#083C5A"/>
<path d="M219.29 31.9389L218.505 32.7245L219.29 33.5101L220.076 32.7245L219.29 31.9389Z" fill="#083C5A"/>
<path d="M221.519 31.2834L220.733 30.4975L222.173 29.0577L222.958 29.8435L221.519 31.2834ZM224.398 28.4029L223.612 27.6171L225.053 26.1773L225.838 26.9631L224.398 28.4029ZM227.279 25.5225L226.494 24.7367L227.934 23.2968L228.72 24.0827L227.279 25.5225ZM230.16 22.6421L229.375 21.8562L230.815 20.4156L231.6 21.2015L230.16 22.6421Z" fill="#083C5A"/>
<path d="M233.038 18.1912L232.252 18.9769L233.037 19.7634L233.824 18.9776L233.038 18.1912Z" fill="#083C5A"/>
<path d="M201.552 18.1898L200.766 18.9762L201.552 19.762L202.338 18.9755L201.552 18.1898Z" fill="#083C5A"/>
<path d="M213.076 31.2835L211.636 29.8436L212.422 29.0578L213.862 30.4976L213.076 31.2835ZM210.195 28.4031L208.756 26.9632L209.541 26.1774L210.981 27.6172L210.195 28.4031ZM207.316 25.5226L205.875 24.0828L206.661 23.2969L208.102 24.7368L207.316 25.5226ZM204.435 22.6422L202.995 21.2023L203.781 20.4165L205.22 21.8564L204.435 22.6422Z" fill="#083C5A"/>
<path d="M215.304 31.9522L214.519 32.7386L215.305 33.5244L216.091 32.738L215.304 31.9522Z" fill="#083C5A"/>
<path d="M154.171 8.6377H153.06V9.74869H154.171V8.6377Z" fill="#053F64"/>
<path d="M186.796 9.74869H184.465V8.6377H186.796V9.74869ZM182.135 9.74869H179.805V8.6377H182.135V9.74869ZM177.475 9.74869H175.144V8.6377H177.475V9.74869ZM172.814 9.74869H170.483V8.6377H172.814V9.74869ZM168.153 9.74869H165.823V8.6377H168.153V9.74869ZM163.492 9.74869H161.162V8.6377H163.492V9.74869ZM158.832 9.74869H156.502V8.6377H158.832V9.74869Z" fill="#053F64"/>
<path d="M190.237 8.6377H189.126V9.74869H190.237V8.6377Z" fill="#053F64"/>
<path d="M2.76865 145.275H1.65765V144.914H2.76865V145.275ZM2.76865 142.692H1.65765V140.47H2.76865V142.692ZM2.76865 138.248H1.65765V136.026H2.76865V138.248ZM2.76865 133.804H1.65765V131.582H2.76865V133.804ZM2.76865 129.36H1.65765V127.138H2.76865V129.36ZM2.76865 124.916H1.65765V122.694H2.76865V124.916ZM2.76865 120.472H1.65765V118.25H2.76865V120.472ZM2.76865 116.028H1.65765V113.806H2.76865V116.028ZM2.76865 111.584H1.65765V109.362H2.76865V111.584ZM2.76865 107.14H1.65765V104.918H2.76865V107.14ZM2.76865 102.696H1.65765V100.474H2.76865V102.696ZM2.76865 98.2519H1.65765V96.0299H2.76865V98.2519Z" fill="#053F64"/>
<path d="M269.941 71.0955H267.719V69.9845H269.941V71.0955ZM265.497 71.0955H263.275V69.9845H265.497V71.0955ZM261.053 71.0955H258.831V69.9845H261.053V71.0955ZM256.609 71.0955H254.387V69.9845H256.609V71.0955Z" fill="#053F64"/>
<path d="M75.5971 45.8395H74.221V44.7285H75.5971V45.8395ZM71.9982 45.8395H69.7763V44.7285H71.9982V45.8395ZM67.5543 45.8395H65.3323V44.7285H67.5543V45.8395ZM63.1103 45.8395H60.8883V44.7285H63.1103V45.8395ZM58.6663 45.8395H56.4443V44.7285H58.6663V45.8395ZM54.2224 45.8395H52.0004V44.7285H54.2224V45.8395ZM49.7784 45.8395H47.5564V44.7285H49.7784V45.8395Z" fill="#053F64"/>
<path d="M164.9 157.32H163.189V156.209H164.9V157.32ZM160.967 157.32H158.745V156.209H160.967V157.32ZM156.523 157.32H154.301V156.209H156.523V157.32ZM152.079 157.32H149.857V156.209H152.079V157.32ZM147.635 157.32H145.413V156.209H147.635V157.32ZM143.191 157.32H140.969V156.209H143.191V157.32ZM138.747 157.32H136.525V156.209H138.747V157.32ZM134.303 157.32H132.081V156.209H134.303V157.32ZM129.859 157.32H127.637V156.209H129.859V157.32ZM125.415 157.32H123.193V156.209H125.415V157.32Z" fill="#053F64"/>
<path d="M63.0748 35.3978C62.8437 35.397 62.6037 35.38 62.3741 35.343L62.5497 34.2461C62.72 34.2735 62.8948 34.2875 63.0718 34.2875H63.0741C63.5392 34.2875 63.988 34.1927 64.4087 34.0061L64.8598 35.0208C64.2969 35.2704 63.6962 35.3978 63.0748 35.3978ZM60.1144 34.2579C59.4789 33.6824 59.0278 32.9418 58.8101 32.1167L59.884 31.8337C60.0462 32.4492 60.384 33.0032 60.8595 33.4343L60.1144 34.2579ZM66.7677 33.3936L65.8367 32.7877C66.1848 32.2529 66.3693 31.6315 66.3693 30.9909C66.3693 30.4191 66.2204 29.8554 65.9389 29.3614L66.9048 28.8111C67.281 29.4725 67.4803 30.2258 67.4803 30.9901C67.4803 31.8471 67.2336 32.6781 66.7677 33.3936ZM59.9403 29.9584L58.8849 29.611C59.1515 28.8007 59.6455 28.0889 60.3143 27.552L61.0098 28.4178C60.5091 28.82 60.1395 29.3525 59.9403 29.9584ZM64.5857 28.0608C64.0169 27.7668 63.3696 27.649 62.7437 27.7097L62.6356 26.6039C63.4629 26.521 64.345 26.6846 65.0968 27.0742L64.5857 28.0608Z" fill="#053F64"/>
<path d="M158.012 25.5234C155.582 25.5234 153.604 23.5465 153.604 21.1157C153.604 18.6856 155.582 16.708 158.012 16.708C160.442 16.708 162.419 18.6856 162.419 21.1157C162.42 23.5465 160.443 25.5234 158.012 25.5234ZM158.012 17.819C156.194 17.819 154.715 19.2981 154.715 21.1157C154.715 22.9333 156.194 24.4124 158.012 24.4124C159.83 24.4124 161.308 22.9333 161.308 21.1157C161.309 19.2981 159.83 17.819 158.012 17.819Z" fill="#053F64"/>
<path d="M158.016 28.56C157.916 28.5593 157.806 28.5586 157.702 28.5541L157.749 27.4439C157.838 27.4476 157.915 27.4453 158.016 27.449C158.612 27.449 159.202 27.3661 159.768 27.2031L160.076 28.2704C159.409 28.4623 158.716 28.56 158.016 28.56ZM155.361 28.0734C154.609 27.7875 153.915 27.3831 153.293 26.8728L153.999 26.0151C154.527 26.4492 155.118 26.7921 155.756 27.0358L155.361 28.0734ZM162.236 27.2461L161.605 26.3321C162.167 25.944 162.661 25.4693 163.073 24.9234L163.96 25.5922C163.477 26.2329 162.897 26.7899 162.236 27.2461ZM151.711 25.0826C151.282 24.402 150.968 23.6613 150.779 22.8814L151.858 22.6184C152.019 23.2821 152.286 23.9116 152.651 24.4894L151.711 25.0826ZM165.074 23.4754L164.02 23.1228C164.236 22.477 164.345 21.8015 164.345 21.1157H165.456C165.456 21.9222 165.327 22.7162 165.074 23.4754ZM151.701 20.5905L150.594 20.4994C150.66 19.6958 150.854 18.9151 151.171 18.1789L152.191 18.6181C151.922 19.244 151.757 19.9076 151.701 20.5905ZM164.269 20.1276C164.163 19.4529 163.95 18.8033 163.635 18.1967L164.62 17.6849C164.991 18.3982 165.243 19.1625 165.368 19.9558L164.269 20.1276ZM153.284 16.902L152.456 16.1628C152.99 15.5622 153.615 15.0555 154.311 14.6563L154.864 15.6199C154.271 15.9599 153.74 16.391 153.284 16.902ZM162.418 16.5665C161.926 16.0895 161.364 15.6984 160.75 15.4029L161.23 14.4015C161.952 14.7482 162.612 15.2081 163.19 15.7681L162.418 16.5665ZM156.766 14.9052L156.549 13.8157C157.027 13.7201 157.517 13.672 158.008 13.672C158.009 13.672 158.011 13.672 158.014 13.672C158.322 13.672 158.632 13.6913 158.936 13.729L158.799 14.8311C158.539 14.7985 158.277 14.7941 158.008 14.783C157.59 14.783 157.173 14.8245 156.766 14.9052Z" fill="#053F64"/>
<path d="M68.5342 72.8582L66.9536 70.5511H65.7145L64.1339 72.8582L63.7628 72.7693C63.191 72.6331 62.6296 72.4516 62.0963 72.2294L61.743 72.0827L61.8201 69.286L60.8172 68.5579L58.1849 69.4941L57.9368 69.2038C57.5524 68.755 57.205 68.2787 56.9043 67.7891L56.7036 67.4632L58.4108 65.2464L58.0264 64.0666L55.3474 63.2778L55.3178 62.8963C55.2948 62.6067 55.28 62.3156 55.28 62.0201C55.28 61.7253 55.2948 61.4335 55.3178 61.1439L55.3474 60.7625L58.0264 59.9737L58.4108 58.7938L56.7043 56.577L56.9043 56.2511C57.2043 55.7623 57.5509 55.286 57.9368 54.8364L58.1849 54.5461L60.8172 55.4823L61.8201 54.7542L61.743 51.9567L62.0956 51.8101C62.6274 51.5894 63.1881 51.4072 63.7621 51.2709L64.1332 51.182L65.7137 53.4892H66.9529L68.5334 51.182L68.9045 51.2709C69.4785 51.4072 70.0399 51.5894 70.571 51.8101L70.9235 51.9567L70.8458 54.7542L71.8486 55.4823L74.481 54.5461L74.7298 54.8364C75.115 55.286 75.4623 55.7623 75.7616 56.2511L75.9615 56.577L74.255 58.7938L74.6394 59.9737L77.3184 60.7625L77.3481 61.1439C77.371 61.4335 77.3858 61.7246 77.3858 62.0201C77.3858 62.3156 77.3703 62.6067 77.3481 62.8963L77.3184 63.2778L74.6394 64.0666L74.255 65.2464L75.9623 67.4632L75.7616 67.7891C75.4608 68.2794 75.1142 68.755 74.7298 69.2038L74.481 69.4941L71.8486 68.5579L70.8458 69.286L70.9235 72.0827L70.571 72.2294C70.0385 72.4509 69.4778 72.6323 68.9045 72.7693L68.5342 72.8582ZM62.8755 71.3428C63.1296 71.4369 63.3895 71.5213 63.6532 71.5946L65.1286 69.4408H67.5387L69.0149 71.5946C69.2785 71.5206 69.5385 71.4369 69.7926 71.3436L69.72 68.7327L71.6701 67.3158L74.1277 68.1906C74.2987 67.975 74.4602 67.7543 74.6106 67.5299L73.0181 65.4612L73.7647 63.1674L76.2652 62.4304C76.2719 62.2949 76.2756 62.1586 76.2756 62.0209C76.2756 61.8838 76.2719 61.7476 76.2652 61.612L73.7647 60.8751L73.0181 58.5812L74.6106 56.5126C74.4602 56.2881 74.2987 56.0674 74.1277 55.8519L71.6701 56.7266L69.72 55.3097L69.7926 52.6989C69.5393 52.6056 69.2793 52.5211 69.0149 52.4478L67.5387 54.6016H65.1286L63.6532 52.4471C63.3888 52.5204 63.1288 52.6048 62.8755 52.6981L62.9481 55.309L60.9979 56.7259L58.5404 55.8511C58.3693 56.0667 58.2079 56.2874 58.0575 56.5118L59.6499 58.5805L58.9033 60.8743L56.4029 61.6113C56.3962 61.7468 56.3925 61.8831 56.3925 62.0201C56.3925 62.1579 56.3962 62.2942 56.4029 62.4297L58.9033 63.1667L59.6499 65.4605L58.0575 67.5292C58.2079 67.7536 58.3693 67.975 58.5404 68.1898L60.9979 67.3151L62.9481 68.732L62.8755 71.3428ZM66.3344 67.521C63.3014 67.521 60.8335 65.0531 60.8335 62.0209C60.8335 58.9878 63.3014 56.5207 66.3344 56.5207C69.3674 56.5207 71.8346 58.9878 71.8346 62.0209C71.8346 65.0531 69.3667 67.521 66.3344 67.521ZM66.3344 57.631C63.9139 57.631 61.9445 59.6004 61.9445 62.0201C61.9445 64.4406 63.9139 66.4093 66.3344 66.4093C68.7549 66.4093 70.7236 64.4399 70.7236 62.0201C70.7236 59.6004 68.7541 57.631 66.3344 57.631Z" fill="#053F64"/>
<path d="M92.1405 158.055L91.7694 157.967C91.1954 157.831 90.6347 157.649 90.1029 157.428L89.7504 157.282L89.8281 154.484L88.8253 153.756L86.193 154.693L85.9448 154.403C85.5604 153.953 85.2131 153.478 84.9124 152.988L84.7116 152.662L86.4189 150.446L86.0345 149.265L83.3548 148.476L83.3251 148.094C83.3029 147.805 83.2874 147.514 83.2874 147.218C83.2874 146.924 83.3029 146.632 83.3251 146.343L83.3548 145.961L86.0345 145.172L86.4189 143.991L84.7116 141.775L84.9124 141.449C85.2131 140.959 85.5604 140.483 85.9448 140.034L86.193 139.744L88.8253 140.681L89.8281 139.953L89.7504 137.156L90.1029 137.01C90.6377 136.788 91.1984 136.606 91.7694 136.471L92.1405 136.383L93.7211 138.689H94.9602L96.5408 136.383L96.9118 136.471C97.4829 136.606 98.0436 136.788 98.5791 137.01L98.9316 137.156L98.8538 139.953L99.8567 140.681L102.489 139.744L102.737 140.034C103.122 140.483 103.469 140.959 103.77 141.449L103.97 141.775L102.262 143.991L102.647 145.172L105.326 145.961L105.356 146.342C105.379 146.632 105.394 146.923 105.394 147.218C105.394 147.513 105.378 147.805 105.356 148.095L105.326 148.476L102.647 149.265L102.262 150.446L103.97 152.662L103.77 152.988C103.469 153.478 103.122 153.954 102.737 154.403L102.489 154.693L99.8567 153.756L98.8538 154.484L98.9316 157.282L98.5783 157.428C98.045 157.649 97.4844 157.831 96.9111 157.967L96.54 158.055L94.9594 155.749H93.7203L92.1405 158.055ZM93.1359 154.637H95.546L97.0214 156.791C97.2851 156.717 97.5458 156.634 97.7991 156.54L97.7266 153.929L99.6767 152.512L102.134 153.387C102.305 153.171 102.467 152.95 102.617 152.725L101.025 150.657L101.771 148.364L104.273 147.627C104.279 147.49 104.283 147.355 104.283 147.217C104.283 147.079 104.279 146.944 104.273 146.807L101.771 146.07L101.025 143.777L102.617 141.709C102.467 141.484 102.305 141.263 102.134 141.047L99.6767 141.922L97.7266 140.505L97.7991 137.894C97.5444 137.799 97.2844 137.716 97.0214 137.642L95.546 139.796H93.1359L91.6598 137.642C91.3969 137.716 91.1369 137.8 90.8821 137.894L90.9547 140.505L89.0045 141.922L86.547 141.047C86.3759 141.263 86.2144 141.484 86.0641 141.709L87.6565 143.777L86.9099 146.07L84.4095 146.807C84.4028 146.944 84.3991 147.079 84.3991 147.217C84.3991 147.354 84.4028 147.49 84.4095 147.627L86.9099 148.364L87.6565 150.657L86.0641 152.725C86.2144 152.95 86.3759 153.171 86.547 153.387L89.0045 152.512L90.9547 153.929L90.8821 156.54C91.1354 156.634 91.3954 156.717 91.6598 156.791L93.1359 154.637ZM94.3403 152.719C91.3072 152.719 88.8401 150.251 88.8401 147.218C88.8401 144.185 91.308 141.718 94.3403 141.718C97.3733 141.718 99.8411 144.185 99.8411 147.218C99.8411 150.251 97.3733 152.719 94.3403 152.719ZM94.3403 142.829C91.9198 142.829 89.9511 144.797 89.9511 147.218C89.9511 149.638 91.9205 151.608 94.3403 151.608C96.7607 151.608 98.7301 149.638 98.7301 147.218C98.7301 144.797 96.7607 142.829 94.3403 142.829Z" fill="#053F64"/>
<path d="M114.868 161.507C114.895 161.303 114.917 161.097 114.929 160.888C114.941 160.679 114.942 160.473 114.937 160.267L113.039 159.59L112.69 158.274L114.009 156.745C113.812 156.38 113.586 156.032 113.335 155.703L111.4 156.273L110.345 155.413L110.513 153.4C110.144 153.222 109.757 153.073 109.357 152.953L108.125 154.553L106.766 154.478L105.72 152.751C105.309 152.825 104.908 152.93 104.521 153.067L104.464 155.087L103.321 155.824L101.461 155.044C101.175 155.342 100.912 155.662 100.675 156.003L101.816 157.67L101.323 158.939L99.3606 159.4C99.3332 159.604 99.311 159.81 99.2991 160.019C99.2873 160.227 99.2865 160.434 99.291 160.64L101.189 161.316L101.538 162.632L100.219 164.162C100.416 164.527 100.643 164.875 100.893 165.203L102.828 164.634L103.883 165.494L103.715 167.507C104.085 167.685 104.471 167.834 104.872 167.953L106.104 166.353L107.462 166.429L108.509 168.156C108.92 168.081 109.32 167.976 109.708 167.84L109.764 165.82L110.908 165.083L112.767 165.863C113.053 165.565 113.317 165.245 113.553 164.903L112.413 163.237L112.906 161.967L114.868 161.507ZM106.908 164.134C104.875 164.021 103.318 162.281 103.432 160.247C103.545 158.214 105.285 156.658 107.319 156.771C109.352 156.884 110.908 158.625 110.795 160.658C110.682 162.692 108.941 164.248 106.908 164.134Z" fill="#F7E041"/>
<path d="M261.74 53.7387C261.751 53.5957 261.758 53.452 261.758 53.3069C261.758 53.1617 261.751 53.018 261.74 52.8751L260.395 52.4781L260.102 51.5774L260.96 50.465C260.809 50.2183 260.638 49.9858 260.452 49.768L259.13 50.2376L258.364 49.6806L258.404 48.2756C258.14 48.1659 257.866 48.0771 257.583 48.0097L256.788 49.1681L255.842 49.1673L255.048 48.0082C254.766 48.0756 254.491 48.1637 254.228 48.2733L254.266 49.6784L253.5 50.2346L252.178 49.7636C251.99 49.9821 251.82 50.2146 251.669 50.4605L252.525 51.5737L252.231 52.4744L250.886 52.8699C250.875 53.0128 250.867 53.1565 250.867 53.3017C250.867 53.4469 250.874 53.5906 250.885 53.7335L252.23 54.1305L252.522 55.0311L251.664 56.1436C251.815 56.3903 251.986 56.6228 252.172 56.8406L253.495 56.371L254.26 56.928L254.221 58.333C254.485 58.4426 254.759 58.5315 255.042 58.5989L255.837 57.4405L256.783 57.4413L257.576 58.6004C257.859 58.533 258.133 58.4449 258.397 58.3352L258.358 56.9302L259.124 56.374L260.446 56.845C260.633 56.6265 260.803 56.394 260.955 56.1481L260.098 55.0341L260.392 54.1335L261.74 53.7387ZM256.312 55.8696C254.895 55.8688 253.748 54.7201 253.749 53.3032C253.749 51.887 254.898 50.739 256.315 50.7397C257.732 50.7405 258.879 51.8892 258.878 53.3061C258.878 54.7223 257.728 55.8696 256.312 55.8696Z" fill="#63DCFF"/>
<path d="M184.489 134.788H183.378V132.566H184.489V134.788ZM184.489 130.344H183.378V128.122H184.489V130.344ZM184.489 125.9H183.378V123.678H184.489V125.9ZM184.489 121.456H183.378V119.234H184.489V121.456ZM184.489 117.012H183.378V114.79H184.489V117.012Z" fill="#053F64"/>
<path d="M192.311 135.618C191.489 135.505 190.718 135.22 190.019 134.774L190.617 133.838C191.18 134.197 191.801 134.426 192.463 134.517L192.311 135.618ZM194.743 135.435L194.427 134.369C195.065 134.181 195.646 133.861 196.152 133.421L196.881 134.259C196.254 134.805 195.536 135.2 194.743 135.435ZM188.284 133.059C187.831 132.364 187.539 131.596 187.416 130.777L188.516 130.614C188.614 131.273 188.849 131.892 189.214 132.452L188.284 133.059ZM198.342 132.305L197.331 131.844C197.607 131.239 197.748 130.591 197.748 129.92C197.748 129.452 197.679 128.992 197.543 128.551L198.605 128.223C198.774 128.77 198.86 129.341 198.86 129.92C198.858 130.751 198.684 131.553 198.342 132.305ZM188.641 128.648L187.573 128.344C187.799 127.549 188.187 126.824 188.725 126.193L189.572 126.914C189.136 127.423 188.824 128.006 188.641 128.648ZM196.575 126.835C196.135 126.342 195.584 125.94 194.984 125.674L195.434 124.659C196.179 124.988 196.86 125.486 197.403 126.096L196.575 126.835ZM191.136 125.717L190.664 124.712C191.411 124.361 192.211 124.179 193.042 124.171L193.054 125.282C192.384 125.287 191.738 125.435 191.136 125.717Z" fill="#053F64"/>
<path d="M193.105 133.093C191.357 133.093 189.933 131.669 189.933 129.92C189.933 128.172 191.357 126.748 193.105 126.748C194.854 126.748 196.278 128.172 196.278 129.92C196.278 131.669 194.855 133.093 193.105 133.093ZM193.105 127.858C191.969 127.858 191.044 128.783 191.044 129.92C191.044 131.056 191.969 131.981 193.105 131.981C194.242 131.981 195.167 131.056 195.167 129.92C195.167 128.783 194.242 127.858 193.105 127.858Z" fill="#053F64"/>
<path d="M127.745 66.4678H115.028V67.5788H127.745V66.4678Z" fill="#053F64"/>
<path d="M135.806 69.9845H127.746V71.0955H135.806V69.9845Z" fill="#053F64"/>
<path d="M135.806 66.4102H131.205V67.5211H135.806V66.4102Z" fill="#053F64"/>
<path d="M142.21 66.4102H139.302V67.5211H142.21V66.4102Z" fill="#053F64"/>
<path d="M193.889 143.868H187.91V144.979H193.889V143.868Z" fill="#053F64"/>
<path d="M200.959 143.868H197.338V144.979H200.959V143.868Z" fill="#053F64"/>
<path d="M253.241 135.672C252.021 135.672 251.029 134.679 251.029 133.459C251.029 132.239 252.021 131.247 253.241 131.247C254.461 131.247 255.454 132.239 255.454 133.459C255.454 134.679 254.461 135.672 253.241 135.672ZM253.241 132.357C252.634 132.357 252.14 132.851 252.14 133.458C252.14 134.066 252.634 134.561 253.241 134.561C253.849 134.561 254.343 134.066 254.343 133.458C254.343 132.851 253.849 132.357 253.241 132.357Z" fill="#053F64"/>
<path d="M193.42 11.4063C192.2 11.4063 191.207 10.4138 191.207 9.1932C191.207 7.97333 192.2 6.9801 193.42 6.9801C194.64 6.9801 195.632 7.97259 195.632 9.1932C195.632 10.4131 194.641 11.4063 193.42 11.4063ZM193.42 8.0911C192.813 8.0911 192.318 8.58512 192.318 9.1932C192.318 9.80054 192.813 10.2953 193.42 10.2953C194.027 10.2953 194.521 9.80128 194.521 9.1932C194.521 8.58512 194.027 8.0911 193.42 8.0911Z" fill="#053F64"/>
<path d="M169.638 158.979C168.418 158.979 167.426 157.985 167.426 156.766C167.426 155.546 168.418 154.553 169.638 154.553C170.858 154.553 171.851 155.546 171.851 156.766C171.851 157.985 170.858 158.979 169.638 158.979ZM169.638 155.663C169.031 155.663 168.537 156.157 168.537 156.765C168.537 157.372 169.031 157.867 169.638 157.867C170.246 157.867 170.74 157.372 170.74 156.765C170.74 156.157 170.246 155.663 169.638 155.663Z" fill="#053F64"/>
<path d="M2.2131 150.663C0.992489 150.663 0 149.669 0 148.449C0 147.23 0.992489 146.236 2.2131 146.236C3.43371 146.236 4.4262 147.23 4.4262 148.449C4.4262 149.669 3.43371 150.663 2.2131 150.663ZM2.2131 147.347C1.60576 147.347 1.11099 147.842 1.11099 148.449C1.11099 149.057 1.60502 149.552 2.2131 149.552C2.82118 149.552 3.3152 149.057 3.3152 148.449C3.3152 147.841 2.82118 147.347 2.2131 147.347Z" fill="#053F64"/>
<path d="M14.3769 123.322C12.4964 123.322 10.9669 121.793 10.9669 119.912C10.9669 118.033 12.4964 116.502 14.3769 116.502C16.2575 116.502 17.7862 118.033 17.7862 119.912C17.7862 121.793 16.2567 123.322 14.3769 123.322ZM14.3769 117.614C13.1097 117.614 12.0779 118.646 12.0779 119.913C12.0779 121.18 13.1089 122.212 14.3769 122.212C15.6442 122.212 16.6752 121.18 16.6752 119.913C16.6752 118.646 15.6442 117.614 14.3769 117.614Z" fill="#053F64"/>
<path d="M193.976 24.9678H192.865V23.7013H193.976V24.9678ZM193.976 21.4793H192.865V19.2573H193.976V21.4793ZM193.976 17.0353H192.865V14.8134H193.976V17.0353Z" fill="#053F64"/>
</g>
<defs>
<clipPath id="clip0_909_1121">
<rect width="269.941" height="168.155" fill="white"/>
</clipPath>
</defs>
</svg>
